<?xml version="1.0" encoding="utf-8" standalone="no"?>
<!DOCTYPE svg PUBLIC "-//W3C//DTD SVG 1.1//EN"
  "http://www.w3.org/Graphics/SVG/1.1/DTD/svg11.dtd">
<svg xmlns:xlink="http://www.w3.org/1999/xlink" width="323.25625pt" height="325.755469pt" viewBox="0 0 323.25625 325.755469" xmlns="http://www.w3.org/2000/svg" version="1.1">
 <metadata>
  <rdf:RDF xmlns:dc="http://purl.org/dc/elements/1.1/" xmlns:cc="http://creativecommons.org/ns#" xmlns:rdf="http://www.w3.org/1999/02/22-rdf-syntax-ns#">
   <cc:Work>
    <dc:type rdf:resource="http://purl.org/dc/dcmitype/StillImage"/>
    <dc:date>2025-02-27T13:41:03.232452</dc:date>
    <dc:format>image/svg+xml</dc:format>
    <dc:creator>
     <cc:Agent>
      <dc:title>Matplotlib v3.10.0, https://matplotlib.org/</dc:title>
     </cc:Agent>
    </dc:creator>
   </cc:Work>
  </rdf:RDF>
 </metadata>
 <defs>
  <style type="text/css">*{stroke-linejoin: round; stroke-linecap: butt}</style>
 </defs>
 <g id="figure_1">
  <g id="patch_1">
   <path d="M 0 325.755469 
L 323.25625 325.755469 
L 323.25625 0 
L 0 0 
z
" style="fill: #ffffff"/>
  </g>
  <g id="axes_1">
   <g id="patch_2">
    <path d="M 58.523438 288.199219 
L 304.923438 288.199219 
L 304.923438 10.999219 
L 58.523438 10.999219 
z
" style="fill: #ffffff"/>
   </g>
   <g id="PathCollection_1">
    <defs>
     <path id="me0ecef9058" d="M 0 3 
C 0.795609 3 1.55874 2.683901 2.12132 2.12132 
C 2.683901 1.55874 3 0.795609 3 0 
C 3 -0.795609 2.683901 -1.55874 2.12132 -2.12132 
C 1.55874 -2.683901 0.795609 -3 0 -3 
C -0.795609 -3 -1.55874 -2.683901 -2.12132 -2.12132 
C -2.683901 -1.55874 -3 -0.795609 -3 0 
C -3 0.795609 -2.683901 1.55874 -2.12132 2.12132 
C -1.55874 2.683901 -0.795609 3 0 3 
z
" style="stroke: #1f77b4"/>
    </defs>
    <g clip-path="url(#p9d51a50991)">
     <use xlink:href="#me0ecef9058" x="158.540175" y="227.625081" style="fill: #1f77b4; stroke: #1f77b4"/>
     <use xlink:href="#me0ecef9058" x="151.14446" y="177.237418" style="fill: #1f77b4; stroke: #1f77b4"/>
     <use xlink:href="#me0ecef9058" x="180.341486" y="84.850287" style="fill: #1f77b4; stroke: #1f77b4"/>
     <use xlink:href="#me0ecef9058" x="105.575048" y="178.934351" style="fill: #1f77b4; stroke: #1f77b4"/>
     <use xlink:href="#me0ecef9058" x="129.507347" y="153.660932" style="fill: #1f77b4; stroke: #1f77b4"/>
     <use xlink:href="#me0ecef9058" x="122.824759" y="171.472817" style="fill: #1f77b4; stroke: #1f77b4"/>
     <use xlink:href="#me0ecef9058" x="151.985582" y="195.166984" style="fill: #1f77b4; stroke: #1f77b4"/>
     <use xlink:href="#me0ecef9058" x="141.416308" y="236.986999" style="fill: #1f77b4; stroke: #1f77b4"/>
     <use xlink:href="#me0ecef9058" x="116.480763" y="177.404188" style="fill: #1f77b4; stroke: #1f77b4"/>
     <use xlink:href="#me0ecef9058" x="180.085343" y="152.020454" style="fill: #1f77b4; stroke: #1f77b4"/>
     <use xlink:href="#me0ecef9058" x="143.931913" y="173.501533" style="fill: #1f77b4; stroke: #1f77b4"/>
     <use xlink:href="#me0ecef9058" x="127.398391" y="118.23224" style="fill: #1f77b4; stroke: #1f77b4"/>
     <use xlink:href="#me0ecef9058" x="138.430745" y="160.25291" style="fill: #1f77b4; stroke: #1f77b4"/>
     <use xlink:href="#me0ecef9058" x="133.639124" y="124.272651" style="fill: #1f77b4; stroke: #1f77b4"/>
     <use xlink:href="#me0ecef9058" x="133.725827" y="271.661795" style="fill: #1f77b4; stroke: #1f77b4"/>
     <use xlink:href="#me0ecef9058" x="113.722799" y="149.980909" style="fill: #1f77b4; stroke: #1f77b4"/>
     <use xlink:href="#me0ecef9058" x="134.335366" y="217.064095" style="fill: #1f77b4; stroke: #1f77b4"/>
     <use xlink:href="#me0ecef9058" x="153.852333" y="232.11076" style="fill: #1f77b4; stroke: #1f77b4"/>
     <use xlink:href="#me0ecef9058" x="136.171507" y="169.155523" style="fill: #1f77b4; stroke: #1f77b4"/>
     <use xlink:href="#me0ecef9058" x="161.978052" y="211.298686" style="fill: #1f77b4; stroke: #1f77b4"/>
     <use xlink:href="#me0ecef9058" x="175.133435" y="147.982727" style="fill: #1f77b4; stroke: #1f77b4"/>
     <use xlink:href="#me0ecef9058" x="136.141755" y="204.067158" style="fill: #1f77b4; stroke: #1f77b4"/>
     <use xlink:href="#me0ecef9058" x="171.121524" y="149.357815" style="fill: #1f77b4; stroke: #1f77b4"/>
     <use xlink:href="#me0ecef9058" x="143.251555" y="207.99327" style="fill: #1f77b4; stroke: #1f77b4"/>
     <use xlink:href="#me0ecef9058" x="123.730986" y="255.249474" style="fill: #1f77b4; stroke: #1f77b4"/>
     <use xlink:href="#me0ecef9058" x="147.551358" y="169.477401" style="fill: #1f77b4; stroke: #1f77b4"/>
     <use xlink:href="#me0ecef9058" x="130.892962" y="143.506576" style="fill: #1f77b4; stroke: #1f77b4"/>
     <use xlink:href="#me0ecef9058" x="134.225272" y="148.735247" style="fill: #1f77b4; stroke: #1f77b4"/>
     <use xlink:href="#me0ecef9058" x="148.898401" y="231.50343" style="fill: #1f77b4; stroke: #1f77b4"/>
     <use xlink:href="#me0ecef9058" x="114.525017" y="187.538374" style="fill: #1f77b4; stroke: #1f77b4"/>
     <use xlink:href="#me0ecef9058" x="145.017192" y="213.32417" style="fill: #1f77b4; stroke: #1f77b4"/>
     <use xlink:href="#me0ecef9058" x="151.57166" y="204.926332" style="fill: #1f77b4; stroke: #1f77b4"/>
     <use xlink:href="#me0ecef9058" x="131.413022" y="193.722821" style="fill: #1f77b4; stroke: #1f77b4"/>
     <use xlink:href="#me0ecef9058" x="171.152606" y="186.373361" style="fill: #1f77b4; stroke: #1f77b4"/>
     <use xlink:href="#me0ecef9058" x="172.545357" y="164.622839" style="fill: #1f77b4; stroke: #1f77b4"/>
     <use xlink:href="#me0ecef9058" x="129.049872" y="202.852555" style="fill: #1f77b4; stroke: #1f77b4"/>
     <use xlink:href="#me0ecef9058" x="91.158687" y="135.818096" style="fill: #1f77b4; stroke: #1f77b4"/>
     <use xlink:href="#me0ecef9058" x="123.582255" y="186.772568" style="fill: #1f77b4; stroke: #1f77b4"/>
     <use xlink:href="#me0ecef9058" x="121.116883" y="214.126728" style="fill: #1f77b4; stroke: #1f77b4"/>
     <use xlink:href="#me0ecef9058" x="114.56944" y="191.021105" style="fill: #1f77b4; stroke: #1f77b4"/>
     <use xlink:href="#me0ecef9058" x="105.283836" y="188.926606" style="fill: #1f77b4; stroke: #1f77b4"/>
     <use xlink:href="#me0ecef9058" x="122.08649" y="111.054578" style="fill: #1f77b4; stroke: #1f77b4"/>
     <use xlink:href="#me0ecef9058" x="192.86405" y="176.832751" style="fill: #1f77b4; stroke: #1f77b4"/>
     <use xlink:href="#me0ecef9058" x="125.736607" y="154.16679" style="fill: #1f77b4; stroke: #1f77b4"/>
     <use xlink:href="#me0ecef9058" x="77.837733" y="160.605481" style="fill: #1f77b4; stroke: #1f77b4"/>
     <use xlink:href="#me0ecef9058" x="77.3045" y="96.904175" style="fill: #1f77b4; stroke: #1f77b4"/>
     <use xlink:href="#me0ecef9058" x="126.704485" y="194.939889" style="fill: #1f77b4; stroke: #1f77b4"/>
     <use xlink:href="#me0ecef9058" x="159.619107" y="114.573232" style="fill: #1f77b4; stroke: #1f77b4"/>
     <use xlink:href="#me0ecef9058" x="148.212152" y="140.775039" style="fill: #1f77b4; stroke: #1f77b4"/>
     <use xlink:href="#me0ecef9058" x="174.136265" y="132.741757" style="fill: #1f77b4; stroke: #1f77b4"/>
     <use xlink:href="#me0ecef9058" x="153.282397" y="199.313513" style="fill: #1f77b4; stroke: #1f77b4"/>
     <use xlink:href="#me0ecef9058" x="228.043245" y="188.888941" style="fill: #1f77b4; stroke: #1f77b4"/>
     <use xlink:href="#me0ecef9058" x="211.547733" y="103.067208" style="fill: #1f77b4; stroke: #1f77b4"/>
     <use xlink:href="#me0ecef9058" x="128.003094" y="115.628671" style="fill: #1f77b4; stroke: #1f77b4"/>
     <use xlink:href="#me0ecef9058" x="181.117958" y="82.946757" style="fill: #1f77b4; stroke: #1f77b4"/>
     <use xlink:href="#me0ecef9058" x="122.542403" y="91.661412" style="fill: #1f77b4; stroke: #1f77b4"/>
     <use xlink:href="#me0ecef9058" x="166.591233" y="106.180524" style="fill: #1f77b4; stroke: #1f77b4"/>
     <use xlink:href="#me0ecef9058" x="130.134297" y="201.453114" style="fill: #1f77b4; stroke: #1f77b4"/>
     <use xlink:href="#me0ecef9058" x="192.686312" y="148.082781" style="fill: #1f77b4; stroke: #1f77b4"/>
     <use xlink:href="#me0ecef9058" x="156.764461" y="140.260386" style="fill: #1f77b4; stroke: #1f77b4"/>
     <use xlink:href="#me0ecef9058" x="138.544539" y="211.556762" style="fill: #1f77b4; stroke: #1f77b4"/>
     <use xlink:href="#me0ecef9058" x="110.327397" y="170.377611" style="fill: #1f77b4; stroke: #1f77b4"/>
     <use xlink:href="#me0ecef9058" x="197.788809" y="163.157144" style="fill: #1f77b4; stroke: #1f77b4"/>
     <use xlink:href="#me0ecef9058" x="141.428771" y="142.506696" style="fill: #1f77b4; stroke: #1f77b4"/>
     <use xlink:href="#me0ecef9058" x="153.052248" y="279.70906" style="fill: #1f77b4; stroke: #1f77b4"/>
     <use xlink:href="#me0ecef9058" x="212.030306" y="222.602874" style="fill: #1f77b4; stroke: #1f77b4"/>
     <use xlink:href="#me0ecef9058" x="146.498832" y="77.22164" style="fill: #1f77b4; stroke: #1f77b4"/>
     <use xlink:href="#me0ecef9058" x="143.542735" y="133.336745" style="fill: #1f77b4; stroke: #1f77b4"/>
     <use xlink:href="#me0ecef9058" x="176.892518" y="194.530603" style="fill: #1f77b4; stroke: #1f77b4"/>
     <use xlink:href="#me0ecef9058" x="178.218179" y="82.007293" style="fill: #1f77b4; stroke: #1f77b4"/>
     <use xlink:href="#me0ecef9058" x="179.021245" y="175.054305" style="fill: #1f77b4; stroke: #1f77b4"/>
     <use xlink:href="#me0ecef9058" x="155.527037" y="90.467511" style="fill: #1f77b4; stroke: #1f77b4"/>
     <use xlink:href="#me0ecef9058" x="134.566321" y="193.878687" style="fill: #1f77b4; stroke: #1f77b4"/>
     <use xlink:href="#me0ecef9058" x="199.62417" y="146.79807" style="fill: #1f77b4; stroke: #1f77b4"/>
     <use xlink:href="#me0ecef9058" x="146.496216" y="126.577308" style="fill: #1f77b4; stroke: #1f77b4"/>
     <use xlink:href="#me0ecef9058" x="148.428581" y="176.983174" style="fill: #1f77b4; stroke: #1f77b4"/>
     <use xlink:href="#me0ecef9058" x="161.509501" y="163.63649" style="fill: #1f77b4; stroke: #1f77b4"/>
     <use xlink:href="#me0ecef9058" x="158.78561" y="209.510389" style="fill: #1f77b4; stroke: #1f77b4"/>
     <use xlink:href="#me0ecef9058" x="127.008972" y="206.593599" style="fill: #1f77b4; stroke: #1f77b4"/>
     <use xlink:href="#me0ecef9058" x="215.184765" y="230.531716" style="fill: #1f77b4; stroke: #1f77b4"/>
    </g>
   </g>
   <g id="PathCollection_2">
    <defs>
     <path id="mb9ce3f5a24" d="M 0 3 
C 0.795609 3 1.55874 2.683901 2.12132 2.12132 
C 2.683901 1.55874 3 0.795609 3 0 
C 3 -0.795609 2.683901 -1.55874 2.12132 -2.12132 
C 1.55874 -2.683901 0.795609 -3 0 -3 
C -0.795609 -3 -1.55874 -2.683901 -2.12132 -2.12132 
C -2.683901 -1.55874 -3 -0.795609 -3 0 
C -3 0.795609 -2.683901 1.55874 -2.12132 2.12132 
C -1.55874 2.683901 -0.795609 3 0 3 
z
" style="stroke: #ff7f0e"/>
    </defs>
    <g clip-path="url(#p9d51a50991)">
     <use xlink:href="#mb9ce3f5a24" x="230.118503" y="60.947738" style="fill: #ff7f0e; stroke: #ff7f0e"/>
     <use xlink:href="#mb9ce3f5a24" x="226.515036" y="161.925461" style="fill: #ff7f0e; stroke: #ff7f0e"/>
     <use xlink:href="#mb9ce3f5a24" x="264.357641" y="241.226051" style="fill: #ff7f0e; stroke: #ff7f0e"/>
     <use xlink:href="#mb9ce3f5a24" x="258.435378" y="198.425719" style="fill: #ff7f0e; stroke: #ff7f0e"/>
     <use xlink:href="#mb9ce3f5a24" x="185.757296" y="57.742941" style="fill: #ff7f0e; stroke: #ff7f0e"/>
     <use xlink:href="#mb9ce3f5a24" x="101.317585" y="119.595976" style="fill: #ff7f0e; stroke: #ff7f0e"/>
     <use xlink:href="#mb9ce3f5a24" x="184.858101" y="125.368613" style="fill: #ff7f0e; stroke: #ff7f0e"/>
     <use xlink:href="#mb9ce3f5a24" x="164.892984" y="104.554075" style="fill: #ff7f0e; stroke: #ff7f0e"/>
     <use xlink:href="#mb9ce3f5a24" x="151.29821" y="120.183335" style="fill: #ff7f0e; stroke: #ff7f0e"/>
     <use xlink:href="#mb9ce3f5a24" x="163.44117" y="104.125772" style="fill: #ff7f0e; stroke: #ff7f0e"/>
     <use xlink:href="#mb9ce3f5a24" x="178.490241" y="106.593696" style="fill: #ff7f0e; stroke: #ff7f0e"/>
     <use xlink:href="#mb9ce3f5a24" x="208.07892" y="172.235368" style="fill: #ff7f0e; stroke: #ff7f0e"/>
     <use xlink:href="#mb9ce3f5a24" x="237.407422" y="138.432336" style="fill: #ff7f0e; stroke: #ff7f0e"/>
     <use xlink:href="#mb9ce3f5a24" x="178.403672" y="106.170134" style="fill: #ff7f0e; stroke: #ff7f0e"/>
     <use xlink:href="#mb9ce3f5a24" x="232.167061" y="136.252129" style="fill: #ff7f0e; stroke: #ff7f0e"/>
     <use xlink:href="#mb9ce3f5a24" x="203.542749" y="89.861972" style="fill: #ff7f0e; stroke: #ff7f0e"/>
     <use xlink:href="#mb9ce3f5a24" x="214.178581" y="156.136035" style="fill: #ff7f0e; stroke: #ff7f0e"/>
     <use xlink:href="#mb9ce3f5a24" x="144.391555" y="108.168751" style="fill: #ff7f0e; stroke: #ff7f0e"/>
     <use xlink:href="#mb9ce3f5a24" x="221.811049" y="172.452741" style="fill: #ff7f0e; stroke: #ff7f0e"/>
     <use xlink:href="#mb9ce3f5a24" x="234.58118" y="145.741773" style="fill: #ff7f0e; stroke: #ff7f0e"/>
     <use xlink:href="#mb9ce3f5a24" x="214.408203" y="128.950413" style="fill: #ff7f0e; stroke: #ff7f0e"/>
     <use xlink:href="#mb9ce3f5a24" x="152.496552" y="86.609857" style="fill: #ff7f0e; stroke: #ff7f0e"/>
     <use xlink:href="#mb9ce3f5a24" x="189.086618" y="115.117189" style="fill: #ff7f0e; stroke: #ff7f0e"/>
     <use xlink:href="#mb9ce3f5a24" x="214.74503" y="89.532048" style="fill: #ff7f0e; stroke: #ff7f0e"/>
     <use xlink:href="#mb9ce3f5a24" x="259.192136" y="158.161325" style="fill: #ff7f0e; stroke: #ff7f0e"/>
     <use xlink:href="#mb9ce3f5a24" x="145.608059" y="44.968194" style="fill: #ff7f0e; stroke: #ff7f0e"/>
     <use xlink:href="#mb9ce3f5a24" x="187.447423" y="76.632076" style="fill: #ff7f0e; stroke: #ff7f0e"/>
     <use xlink:href="#mb9ce3f5a24" x="246.149702" y="132.257536" style="fill: #ff7f0e; stroke: #ff7f0e"/>
     <use xlink:href="#mb9ce3f5a24" x="168.437287" y="114.628629" style="fill: #ff7f0e; stroke: #ff7f0e"/>
     <use xlink:href="#mb9ce3f5a24" x="189.77214" y="75.304921" style="fill: #ff7f0e; stroke: #ff7f0e"/>
     <use xlink:href="#mb9ce3f5a24" x="118.553719" y="118.235998" style="fill: #ff7f0e; stroke: #ff7f0e"/>
     <use xlink:href="#mb9ce3f5a24" x="214.408781" y="26.022887" style="fill: #ff7f0e; stroke: #ff7f0e"/>
     <use xlink:href="#mb9ce3f5a24" x="161.300217" y="106.745651" style="fill: #ff7f0e; stroke: #ff7f0e"/>
     <use xlink:href="#mb9ce3f5a24" x="298.463567" y="183.485975" style="fill: #ff7f0e; stroke: #ff7f0e"/>
     <use xlink:href="#mb9ce3f5a24" x="219.688442" y="170.945586" style="fill: #ff7f0e; stroke: #ff7f0e"/>
     <use xlink:href="#mb9ce3f5a24" x="241.1068" y="129.409846" style="fill: #ff7f0e; stroke: #ff7f0e"/>
     <use xlink:href="#mb9ce3f5a24" x="266.494391" y="201.809492" style="fill: #ff7f0e; stroke: #ff7f0e"/>
     <use xlink:href="#mb9ce3f5a24" x="174.653109" y="110.172306" style="fill: #ff7f0e; stroke: #ff7f0e"/>
     <use xlink:href="#mb9ce3f5a24" x="183.180666" y="119.259736" style="fill: #ff7f0e; stroke: #ff7f0e"/>
     <use xlink:href="#mb9ce3f5a24" x="217.264872" y="147.90957" style="fill: #ff7f0e; stroke: #ff7f0e"/>
     <use xlink:href="#mb9ce3f5a24" x="218.226927" y="136.371445" style="fill: #ff7f0e; stroke: #ff7f0e"/>
     <use xlink:href="#mb9ce3f5a24" x="215.01871" y="77.284894" style="fill: #ff7f0e; stroke: #ff7f0e"/>
     <use xlink:href="#mb9ce3f5a24" x="243.120165" y="174.685163" style="fill: #ff7f0e; stroke: #ff7f0e"/>
     <use xlink:href="#mb9ce3f5a24" x="227.486066" y="149.773355" style="fill: #ff7f0e; stroke: #ff7f0e"/>
     <use xlink:href="#mb9ce3f5a24" x="223.147297" y="172.120407" style="fill: #ff7f0e; stroke: #ff7f0e"/>
     <use xlink:href="#mb9ce3f5a24" x="193.846577" y="116.126715" style="fill: #ff7f0e; stroke: #ff7f0e"/>
     <use xlink:href="#mb9ce3f5a24" x="190.43548" y="148.522485" style="fill: #ff7f0e; stroke: #ff7f0e"/>
     <use xlink:href="#mb9ce3f5a24" x="225.707694" y="193.460099" style="fill: #ff7f0e; stroke: #ff7f0e"/>
     <use xlink:href="#mb9ce3f5a24" x="200.342271" y="190.672694" style="fill: #ff7f0e; stroke: #ff7f0e"/>
     <use xlink:href="#mb9ce3f5a24" x="184.475688" y="161.283027" style="fill: #ff7f0e; stroke: #ff7f0e"/>
     <use xlink:href="#mb9ce3f5a24" x="192.674543" y="66.752637" style="fill: #ff7f0e; stroke: #ff7f0e"/>
     <use xlink:href="#mb9ce3f5a24" x="159.196301" y="108.219983" style="fill: #ff7f0e; stroke: #ff7f0e"/>
     <use xlink:href="#mb9ce3f5a24" x="232.248191" y="106.462616" style="fill: #ff7f0e; stroke: #ff7f0e"/>
     <use xlink:href="#mb9ce3f5a24" x="181.142731" y="151.002949" style="fill: #ff7f0e; stroke: #ff7f0e"/>
     <use xlink:href="#mb9ce3f5a24" x="153.623862" y="97.731751" style="fill: #ff7f0e; stroke: #ff7f0e"/>
     <use xlink:href="#mb9ce3f5a24" x="175.42352" y="119.155588" style="fill: #ff7f0e; stroke: #ff7f0e"/>
     <use xlink:href="#mb9ce3f5a24" x="226.330376" y="145.574212" style="fill: #ff7f0e; stroke: #ff7f0e"/>
     <use xlink:href="#mb9ce3f5a24" x="201.192177" y="132.684202" style="fill: #ff7f0e; stroke: #ff7f0e"/>
     <use xlink:href="#mb9ce3f5a24" x="220.647237" y="104.776631" style="fill: #ff7f0e; stroke: #ff7f0e"/>
     <use xlink:href="#mb9ce3f5a24" x="230.495751" y="111.275544" style="fill: #ff7f0e; stroke: #ff7f0e"/>
     <use xlink:href="#mb9ce3f5a24" x="229.573898" y="117.274647" style="fill: #ff7f0e; stroke: #ff7f0e"/>
     <use xlink:href="#mb9ce3f5a24" x="182.61355" y="84.501582" style="fill: #ff7f0e; stroke: #ff7f0e"/>
     <use xlink:href="#mb9ce3f5a24" x="225.399989" y="104.132064" style="fill: #ff7f0e; stroke: #ff7f0e"/>
     <use xlink:href="#mb9ce3f5a24" x="255.029854" y="137.376509" style="fill: #ff7f0e; stroke: #ff7f0e"/>
     <use xlink:href="#mb9ce3f5a24" x="165.387196" y="120.677569" style="fill: #ff7f0e; stroke: #ff7f0e"/>
     <use xlink:href="#mb9ce3f5a24" x="185.917135" y="80.794772" style="fill: #ff7f0e; stroke: #ff7f0e"/>
     <use xlink:href="#mb9ce3f5a24" x="237.12071" y="169.994093" style="fill: #ff7f0e; stroke: #ff7f0e"/>
     <use xlink:href="#mb9ce3f5a24" x="156.315985" y="166.794605" style="fill: #ff7f0e; stroke: #ff7f0e"/>
     <use xlink:href="#mb9ce3f5a24" x="224.11666" y="130.855875" style="fill: #ff7f0e; stroke: #ff7f0e"/>
     <use xlink:href="#mb9ce3f5a24" x="179.831416" y="108.952077" style="fill: #ff7f0e; stroke: #ff7f0e"/>
     <use xlink:href="#mb9ce3f5a24" x="133.154676" y="149.320339" style="fill: #ff7f0e; stroke: #ff7f0e"/>
     <use xlink:href="#mb9ce3f5a24" x="197.612149" y="92.314274" style="fill: #ff7f0e; stroke: #ff7f0e"/>
     <use xlink:href="#mb9ce3f5a24" x="185.759097" y="112.935156" style="fill: #ff7f0e; stroke: #ff7f0e"/>
     <use xlink:href="#mb9ce3f5a24" x="181.717377" y="118.618794" style="fill: #ff7f0e; stroke: #ff7f0e"/>
     <use xlink:href="#mb9ce3f5a24" x="212.340427" y="139.094503" style="fill: #ff7f0e; stroke: #ff7f0e"/>
     <use xlink:href="#mb9ce3f5a24" x="211.304088" y="120.951783" style="fill: #ff7f0e; stroke: #ff7f0e"/>
     <use xlink:href="#mb9ce3f5a24" x="224.855268" y="141.993382" style="fill: #ff7f0e; stroke: #ff7f0e"/>
     <use xlink:href="#mb9ce3f5a24" x="211.14007" y="110.685525" style="fill: #ff7f0e; stroke: #ff7f0e"/>
     <use xlink:href="#mb9ce3f5a24" x="220.315032" y="126.260168" style="fill: #ff7f0e; stroke: #ff7f0e"/>
     <use xlink:href="#mb9ce3f5a24" x="187.805468" y="96.818807" style="fill: #ff7f0e; stroke: #ff7f0e"/>
    </g>
   </g>
   <g id="matplotlib.axis_1">
    <g id="xtick_1">
     <g id="line2d_1">
      <defs>
       <path id="m184b960651" d="M 0 0 
L 0 3.5 
" style="stroke: #000000; stroke-width: 0.8"/>
      </defs>
      <g>
       <use xlink:href="#m184b960651" x="58.523438" y="288.199219" style="stroke: #000000; stroke-width: 0.8"/>
      </g>
     </g>
     <g id="text_1">
      <!-- −0.15 -->
      <g transform="translate(43.200781 302.797656) scale(0.1 -0.1)">
       <defs>
        <path id="DejaVuSans-2212" d="M 678 2272 
L 4684 2272 
L 4684 1741 
L 678 1741 
L 678 2272 
z
" transform="scale(0.015625)"/>
        <path id="DejaVuSans-30" d="M 2034 4250 
Q 1547 4250 1301 3770 
Q 1056 3291 1056 2328 
Q 1056 1369 1301 889 
Q 1547 409 2034 409 
Q 2525 409 2770 889 
Q 3016 1369 3016 2328 
Q 3016 3291 2770 3770 
Q 2525 4250 2034 4250 
z
M 2034 4750 
Q 2819 4750 3233 4129 
Q 3647 3509 3647 2328 
Q 3647 1150 3233 529 
Q 2819 -91 2034 -91 
Q 1250 -91 836 529 
Q 422 1150 422 2328 
Q 422 3509 836 4129 
Q 1250 4750 2034 4750 
z
" transform="scale(0.015625)"/>
        <path id="DejaVuSans-2e" d="M 684 794 
L 1344 794 
L 1344 0 
L 684 0 
L 684 794 
z
" transform="scale(0.015625)"/>
        <path id="DejaVuSans-31" d="M 794 531 
L 1825 531 
L 1825 4091 
L 703 3866 
L 703 4441 
L 1819 4666 
L 2450 4666 
L 2450 531 
L 3481 531 
L 3481 0 
L 794 0 
L 794 531 
z
" transform="scale(0.015625)"/>
        <path id="DejaVuSans-35" d="M 691 4666 
L 3169 4666 
L 3169 4134 
L 1269 4134 
L 1269 2991 
Q 1406 3038 1543 3061 
Q 1681 3084 1819 3084 
Q 2600 3084 3056 2656 
Q 3513 2228 3513 1497 
Q 3513 744 3044 326 
Q 2575 -91 1722 -91 
Q 1428 -91 1123 -41 
Q 819 9 494 109 
L 494 744 
Q 775 591 1075 516 
Q 1375 441 1709 441 
Q 2250 441 2565 725 
Q 2881 1009 2881 1497 
Q 2881 1984 2565 2268 
Q 2250 2553 1709 2553 
Q 1456 2553 1204 2497 
Q 953 2441 691 2322 
L 691 4666 
z
" transform="scale(0.015625)"/>
       </defs>
       <use xlink:href="#DejaVuSans-2212"/>
       <use xlink:href="#DejaVuSans-30" transform="translate(83.789062 0)"/>
       <use xlink:href="#DejaVuSans-2e" transform="translate(147.412109 0)"/>
       <use xlink:href="#DejaVuSans-31" transform="translate(179.199219 0)"/>
       <use xlink:href="#DejaVuSans-35" transform="translate(242.822266 0)"/>
      </g>
     </g>
    </g>
    <g id="xtick_2">
     <g id="line2d_2">
      <g>
       <use xlink:href="#m184b960651" x="89.323438" y="288.199219" style="stroke: #000000; stroke-width: 0.8"/>
      </g>
     </g>
     <g id="text_2">
      <!-- −0.10 -->
      <g transform="translate(74.000781 302.797656) scale(0.1 -0.1)">
       <use xlink:href="#DejaVuSans-2212"/>
       <use xlink:href="#DejaVuSans-30" transform="translate(83.789062 0)"/>
       <use xlink:href="#DejaVuSans-2e" transform="translate(147.412109 0)"/>
       <use xlink:href="#DejaVuSans-31" transform="translate(179.199219 0)"/>
       <use xlink:href="#DejaVuSans-30" transform="translate(242.822266 0)"/>
      </g>
     </g>
    </g>
    <g id="xtick_3">
     <g id="line2d_3">
      <g>
       <use xlink:href="#m184b960651" x="120.123438" y="288.199219" style="stroke: #000000; stroke-width: 0.8"/>
      </g>
     </g>
     <g id="text_3">
      <!-- −0.05 -->
      <g transform="translate(104.800781 302.797656) scale(0.1 -0.1)">
       <use xlink:href="#DejaVuSans-2212"/>
       <use xlink:href="#DejaVuSans-30" transform="translate(83.789062 0)"/>
       <use xlink:href="#DejaVuSans-2e" transform="translate(147.412109 0)"/>
       <use xlink:href="#DejaVuSans-30" transform="translate(179.199219 0)"/>
       <use xlink:href="#DejaVuSans-35" transform="translate(242.822266 0)"/>
      </g>
     </g>
    </g>
    <g id="xtick_4">
     <g id="line2d_4">
      <g>
       <use xlink:href="#m184b960651" x="150.923438" y="288.199219" style="stroke: #000000; stroke-width: 0.8"/>
      </g>
     </g>
     <g id="text_4">
      <!-- 0.00 -->
      <g transform="translate(139.790625 302.797656) scale(0.1 -0.1)">
       <use xlink:href="#DejaVuSans-30"/>
       <use xlink:href="#DejaVuSans-2e" transform="translate(63.623047 0)"/>
       <use xlink:href="#DejaVuSans-30" transform="translate(95.410156 0)"/>
       <use xlink:href="#DejaVuSans-30" transform="translate(159.033203 0)"/>
      </g>
     </g>
    </g>
    <g id="xtick_5">
     <g id="line2d_5">
      <g>
       <use xlink:href="#m184b960651" x="181.723438" y="288.199219" style="stroke: #000000; stroke-width: 0.8"/>
      </g>
     </g>
     <g id="text_5">
      <!-- 0.05 -->
      <g transform="translate(170.590625 302.797656) scale(0.1 -0.1)">
       <use xlink:href="#DejaVuSans-30"/>
       <use xlink:href="#DejaVuSans-2e" transform="translate(63.623047 0)"/>
       <use xlink:href="#DejaVuSans-30" transform="translate(95.410156 0)"/>
       <use xlink:href="#DejaVuSans-35" transform="translate(159.033203 0)"/>
      </g>
     </g>
    </g>
    <g id="xtick_6">
     <g id="line2d_6">
      <g>
       <use xlink:href="#m184b960651" x="212.523438" y="288.199219" style="stroke: #000000; stroke-width: 0.8"/>
      </g>
     </g>
     <g id="text_6">
      <!-- 0.10 -->
      <g transform="translate(201.390625 302.797656) scale(0.1 -0.1)">
       <use xlink:href="#DejaVuSans-30"/>
       <use xlink:href="#DejaVuSans-2e" transform="translate(63.623047 0)"/>
       <use xlink:href="#DejaVuSans-31" transform="translate(95.410156 0)"/>
       <use xlink:href="#DejaVuSans-30" transform="translate(159.033203 0)"/>
      </g>
     </g>
    </g>
    <g id="xtick_7">
     <g id="line2d_7">
      <g>
       <use xlink:href="#m184b960651" x="243.323438" y="288.199219" style="stroke: #000000; stroke-width: 0.8"/>
      </g>
     </g>
     <g id="text_7">
      <!-- 0.15 -->
      <g transform="translate(232.190625 302.797656) scale(0.1 -0.1)">
       <use xlink:href="#DejaVuSans-30"/>
       <use xlink:href="#DejaVuSans-2e" transform="translate(63.623047 0)"/>
       <use xlink:href="#DejaVuSans-31" transform="translate(95.410156 0)"/>
       <use xlink:href="#DejaVuSans-35" transform="translate(159.033203 0)"/>
      </g>
     </g>
    </g>
    <g id="xtick_8">
     <g id="line2d_8">
      <g>
       <use xlink:href="#m184b960651" x="274.123438" y="288.199219" style="stroke: #000000; stroke-width: 0.8"/>
      </g>
     </g>
     <g id="text_8">
      <!-- 0.20 -->
      <g transform="translate(262.990625 302.797656) scale(0.1 -0.1)">
       <defs>
        <path id="DejaVuSans-32" d="M 1228 531 
L 3431 531 
L 3431 0 
L 469 0 
L 469 531 
Q 828 903 1448 1529 
Q 2069 2156 2228 2338 
Q 2531 2678 2651 2914 
Q 2772 3150 2772 3378 
Q 2772 3750 2511 3984 
Q 2250 4219 1831 4219 
Q 1534 4219 1204 4116 
Q 875 4013 500 3803 
L 500 4441 
Q 881 4594 1212 4672 
Q 1544 4750 1819 4750 
Q 2544 4750 2975 4387 
Q 3406 4025 3406 3419 
Q 3406 3131 3298 2873 
Q 3191 2616 2906 2266 
Q 2828 2175 2409 1742 
Q 1991 1309 1228 531 
z
" transform="scale(0.015625)"/>
       </defs>
       <use xlink:href="#DejaVuSans-30"/>
       <use xlink:href="#DejaVuSans-2e" transform="translate(63.623047 0)"/>
       <use xlink:href="#DejaVuSans-32" transform="translate(95.410156 0)"/>
       <use xlink:href="#DejaVuSans-30" transform="translate(159.033203 0)"/>
      </g>
     </g>
    </g>
    <g id="xtick_9">
     <g id="line2d_9">
      <g>
       <use xlink:href="#m184b960651" x="304.923438" y="288.199219" style="stroke: #000000; stroke-width: 0.8"/>
      </g>
     </g>
     <g id="text_9">
      <!-- 0.25 -->
      <g transform="translate(293.790625 302.797656) scale(0.1 -0.1)">
       <use xlink:href="#DejaVuSans-30"/>
       <use xlink:href="#DejaVuSans-2e" transform="translate(63.623047 0)"/>
       <use xlink:href="#DejaVuSans-32" transform="translate(95.410156 0)"/>
       <use xlink:href="#DejaVuSans-35" transform="translate(159.033203 0)"/>
      </g>
     </g>
    </g>
    <g id="text_10">
     <!-- $PC_1$ -->
     <g transform="translate(172.823438 316.475781) scale(0.1 -0.1)">
      <defs>
       <path id="DejaVuSans-Oblique-50" d="M 1081 4666 
L 2541 4666 
Q 3178 4666 3512 4369 
Q 3847 4072 3847 3500 
Q 3847 2731 3353 2303 
Q 2859 1875 1966 1875 
L 1172 1875 
L 806 0 
L 172 0 
L 1081 4666 
z
M 1613 4147 
L 1275 2394 
L 2069 2394 
Q 2606 2394 2893 2669 
Q 3181 2944 3181 3456 
Q 3181 3784 2986 3965 
Q 2791 4147 2438 4147 
L 1613 4147 
z
" transform="scale(0.015625)"/>
       <path id="DejaVuSans-Oblique-43" d="M 4447 4306 
L 4319 3641 
Q 4019 3944 3683 4091 
Q 3347 4238 2956 4238 
Q 2422 4238 2017 3981 
Q 1613 3725 1319 3200 
Q 1131 2863 1032 2486 
Q 934 2109 934 1728 
Q 934 1091 1264 756 
Q 1594 422 2222 422 
Q 2656 422 3056 561 
Q 3456 700 3834 978 
L 3688 231 
Q 3316 72 2936 -9 
Q 2556 -91 2175 -91 
Q 1278 -91 773 396 
Q 269 884 269 1753 
Q 269 2309 461 2846 
Q 653 3384 1013 3828 
Q 1394 4300 1883 4525 
Q 2372 4750 3022 4750 
Q 3422 4750 3780 4639 
Q 4138 4528 4447 4306 
z
" transform="scale(0.015625)"/>
      </defs>
      <use xlink:href="#DejaVuSans-Oblique-50" transform="translate(0 0.78125)"/>
      <use xlink:href="#DejaVuSans-Oblique-43" transform="translate(60.302734 0.78125)"/>
      <use xlink:href="#DejaVuSans-31" transform="translate(130.126953 -15.625) scale(0.7)"/>
     </g>
    </g>
   </g>
   <g id="matplotlib.axis_2">
    <g id="ytick_1">
     <g id="line2d_10">
      <defs>
       <path id="m723d578143" d="M 0 0 
L -3.5 0 
" style="stroke: #000000; stroke-width: 0.8"/>
      </defs>
      <g>
       <use xlink:href="#m723d578143" x="58.523438" y="288.199219" style="stroke: #000000; stroke-width: 0.8"/>
      </g>
     </g>
     <g id="text_11">
      <!-- −0.25 -->
      <g transform="translate(20.878125 291.998438) scale(0.1 -0.1)">
       <use xlink:href="#DejaVuSans-2212"/>
       <use xlink:href="#DejaVuSans-30" transform="translate(83.789062 0)"/>
       <use xlink:href="#DejaVuSans-2e" transform="translate(147.412109 0)"/>
       <use xlink:href="#DejaVuSans-32" transform="translate(179.199219 0)"/>
       <use xlink:href="#DejaVuSans-35" transform="translate(242.822266 0)"/>
      </g>
     </g>
    </g>
    <g id="ytick_2">
     <g id="line2d_11">
      <g>
       <use xlink:href="#m723d578143" x="58.523438" y="257.399219" style="stroke: #000000; stroke-width: 0.8"/>
      </g>
     </g>
     <g id="text_12">
      <!-- −0.20 -->
      <g transform="translate(20.878125 261.198438) scale(0.1 -0.1)">
       <use xlink:href="#DejaVuSans-2212"/>
       <use xlink:href="#DejaVuSans-30" transform="translate(83.789062 0)"/>
       <use xlink:href="#DejaVuSans-2e" transform="translate(147.412109 0)"/>
       <use xlink:href="#DejaVuSans-32" transform="translate(179.199219 0)"/>
       <use xlink:href="#DejaVuSans-30" transform="translate(242.822266 0)"/>
      </g>
     </g>
    </g>
    <g id="ytick_3">
     <g id="line2d_12">
      <g>
       <use xlink:href="#m723d578143" x="58.523438" y="226.599219" style="stroke: #000000; stroke-width: 0.8"/>
      </g>
     </g>
     <g id="text_13">
      <!-- −0.15 -->
      <g transform="translate(20.878125 230.398438) scale(0.1 -0.1)">
       <use xlink:href="#DejaVuSans-2212"/>
       <use xlink:href="#DejaVuSans-30" transform="translate(83.789062 0)"/>
       <use xlink:href="#DejaVuSans-2e" transform="translate(147.412109 0)"/>
       <use xlink:href="#DejaVuSans-31" transform="translate(179.199219 0)"/>
       <use xlink:href="#DejaVuSans-35" transform="translate(242.822266 0)"/>
      </g>
     </g>
    </g>
    <g id="ytick_4">
     <g id="line2d_13">
      <g>
       <use xlink:href="#m723d578143" x="58.523438" y="195.799219" style="stroke: #000000; stroke-width: 0.8"/>
      </g>
     </g>
     <g id="text_14">
      <!-- −0.10 -->
      <g transform="translate(20.878125 199.598437) scale(0.1 -0.1)">
       <use xlink:href="#DejaVuSans-2212"/>
       <use xlink:href="#DejaVuSans-30" transform="translate(83.789062 0)"/>
       <use xlink:href="#DejaVuSans-2e" transform="translate(147.412109 0)"/>
       <use xlink:href="#DejaVuSans-31" transform="translate(179.199219 0)"/>
       <use xlink:href="#DejaVuSans-30" transform="translate(242.822266 0)"/>
      </g>
     </g>
    </g>
    <g id="ytick_5">
     <g id="line2d_14">
      <g>
       <use xlink:href="#m723d578143" x="58.523438" y="164.999219" style="stroke: #000000; stroke-width: 0.8"/>
      </g>
     </g>
     <g id="text_15">
      <!-- −0.05 -->
      <g transform="translate(20.878125 168.798438) scale(0.1 -0.1)">
       <use xlink:href="#DejaVuSans-2212"/>
       <use xlink:href="#DejaVuSans-30" transform="translate(83.789062 0)"/>
       <use xlink:href="#DejaVuSans-2e" transform="translate(147.412109 0)"/>
       <use xlink:href="#DejaVuSans-30" transform="translate(179.199219 0)"/>
       <use xlink:href="#DejaVuSans-35" transform="translate(242.822266 0)"/>
      </g>
     </g>
    </g>
    <g id="ytick_6">
     <g id="line2d_15">
      <g>
       <use xlink:href="#m723d578143" x="58.523438" y="134.199219" style="stroke: #000000; stroke-width: 0.8"/>
      </g>
     </g>
     <g id="text_16">
      <!-- 0.00 -->
      <g transform="translate(29.257813 137.998437) scale(0.1 -0.1)">
       <use xlink:href="#DejaVuSans-30"/>
       <use xlink:href="#DejaVuSans-2e" transform="translate(63.623047 0)"/>
       <use xlink:href="#DejaVuSans-30" transform="translate(95.410156 0)"/>
       <use xlink:href="#DejaVuSans-30" transform="translate(159.033203 0)"/>
      </g>
     </g>
    </g>
    <g id="ytick_7">
     <g id="line2d_16">
      <g>
       <use xlink:href="#m723d578143" x="58.523438" y="103.399219" style="stroke: #000000; stroke-width: 0.8"/>
      </g>
     </g>
     <g id="text_17">
      <!-- 0.05 -->
      <g transform="translate(29.257813 107.198437) scale(0.1 -0.1)">
       <use xlink:href="#DejaVuSans-30"/>
       <use xlink:href="#DejaVuSans-2e" transform="translate(63.623047 0)"/>
       <use xlink:href="#DejaVuSans-30" transform="translate(95.410156 0)"/>
       <use xlink:href="#DejaVuSans-35" transform="translate(159.033203 0)"/>
      </g>
     </g>
    </g>
    <g id="ytick_8">
     <g id="line2d_17">
      <g>
       <use xlink:href="#m723d578143" x="58.523438" y="72.599219" style="stroke: #000000; stroke-width: 0.8"/>
      </g>
     </g>
     <g id="text_18">
      <!-- 0.10 -->
      <g transform="translate(29.257813 76.398437) scale(0.1 -0.1)">
       <use xlink:href="#DejaVuSans-30"/>
       <use xlink:href="#DejaVuSans-2e" transform="translate(63.623047 0)"/>
       <use xlink:href="#DejaVuSans-31" transform="translate(95.410156 0)"/>
       <use xlink:href="#DejaVuSans-30" transform="translate(159.033203 0)"/>
      </g>
     </g>
    </g>
    <g id="ytick_9">
     <g id="line2d_18">
      <g>
       <use xlink:href="#m723d578143" x="58.523438" y="41.799219" style="stroke: #000000; stroke-width: 0.8"/>
      </g>
     </g>
     <g id="text_19">
      <!-- 0.15 -->
      <g transform="translate(29.257813 45.598437) scale(0.1 -0.1)">
       <use xlink:href="#DejaVuSans-30"/>
       <use xlink:href="#DejaVuSans-2e" transform="translate(63.623047 0)"/>
       <use xlink:href="#DejaVuSans-31" transform="translate(95.410156 0)"/>
       <use xlink:href="#DejaVuSans-35" transform="translate(159.033203 0)"/>
      </g>
     </g>
    </g>
    <g id="ytick_10">
     <g id="line2d_19">
      <g>
       <use xlink:href="#m723d578143" x="58.523438" y="10.999219" style="stroke: #000000; stroke-width: 0.8"/>
      </g>
     </g>
     <g id="text_20">
      <!-- 0.20 -->
      <g transform="translate(29.257813 14.798437) scale(0.1 -0.1)">
       <use xlink:href="#DejaVuSans-30"/>
       <use xlink:href="#DejaVuSans-2e" transform="translate(63.623047 0)"/>
       <use xlink:href="#DejaVuSans-32" transform="translate(95.410156 0)"/>
       <use xlink:href="#DejaVuSans-30" transform="translate(159.033203 0)"/>
      </g>
     </g>
    </g>
    <g id="text_21">
     <!-- $PC_4$ -->
     <g transform="translate(14.798438 158.499219) rotate(-90) scale(0.1 -0.1)">
      <defs>
       <path id="DejaVuSans-34" d="M 2419 4116 
L 825 1625 
L 2419 1625 
L 2419 4116 
z
M 2253 4666 
L 3047 4666 
L 3047 1625 
L 3713 1625 
L 3713 1100 
L 3047 1100 
L 3047 0 
L 2419 0 
L 2419 1100 
L 313 1100 
L 313 1709 
L 2253 4666 
z
" transform="scale(0.015625)"/>
      </defs>
      <use xlink:href="#DejaVuSans-Oblique-50" transform="translate(0 0.78125)"/>
      <use xlink:href="#DejaVuSans-Oblique-43" transform="translate(60.302734 0.78125)"/>
      <use xlink:href="#DejaVuSans-34" transform="translate(130.126953 -15.625) scale(0.7)"/>
     </g>
    </g>
   </g>
   <g id="QuadContourSet_1">
    <path d="M 133.952009 261.231909 
L 138.98058 263.810826 
L 144.009152 265.116931 
L 149.037723 265.277771 
L 154.066295 264.159516 
L 159.094866 261.315344 
L 160.624011 259.913504 
L 164.123438 256.36924 
L 165.660093 254.256362 
L 168.987983 248.599219 
L 169.152009 248.266642 
L 171.617168 242.942076 
L 173.550595 237.284933 
L 174.18058 235.020121 
L 175.284407 231.62779 
L 176.884908 225.970647 
L 178.337792 220.313504 
L 179.209152 217.067933 
L 180.300783 214.656362 
L 183.810993 208.999219 
L 184.237723 208.527842 
L 189.266295 207.086513 
L 194.294866 207.828408 
L 198.317753 208.999219 
L 199.323438 209.334941 
L 204.352009 211.248563 
L 209.38058 212.884144 
L 214.409152 214.153631 
L 217.227412 214.656362 
L 219.437723 215.150409 
L 224.466295 215.779774 
L 229.494866 215.884278 
L 234.523438 215.41585 
L 237.956041 214.656362 
L 239.552009 214.339318 
L 244.58058 212.664648 
L 249.609152 209.979837 
L 250.986866 208.999219 
L 254.637723 206.19789 
L 257.458676 203.342076 
L 259.666295 200.673415 
L 261.775774 197.684933 
L 264.694866 192.145421 
L 264.75357 192.02779 
L 267.026746 186.370647 
L 268.518404 180.713504 
L 269.429381 175.056362 
L 269.723438 171.556668 
L 269.936324 169.399219 
L 270.064924 163.742076 
L 269.786849 158.084933 
L 269.723438 157.545291 
L 269.259117 152.42779 
L 268.445662 146.770647 
L 267.301746 141.113504 
L 265.768371 135.456362 
L 264.694866 132.301961 
L 263.989922 129.799219 
L 262.04872 124.142076 
L 259.666295 118.727642 
L 259.573805 118.484933 
L 257.142785 112.82779 
L 254.637723 108.182204 
L 254.143397 107.170647 
L 251.017736 101.513504 
L 249.609152 99.306128 
L 247.521481 95.856362 
L 244.58058 91.646902 
L 243.588604 90.199219 
L 239.552009 84.921179 
L 239.257828 84.542076 
L 234.523438 78.889607 
L 234.519327 78.884933 
L 229.494866 73.413198 
L 229.309775 73.22779 
L 224.466295 68.424672 
L 223.49644 67.570647 
L 219.437723 63.914272 
L 216.845236 61.913504 
L 214.409152 59.926153 
L 209.38058 56.492967 
L 208.985424 56.256362 
L 204.352009 53.177224 
L 199.323438 50.600477 
L 199.320555 50.599219 
L 194.294866 48.043272 
L 189.266295 46.124283 
L 185.106252 44.942076 
L 184.237723 44.640099 
L 179.209152 43.377091 
L 174.18058 42.632484 
L 169.152009 42.38672 
L 164.123438 42.66649 
L 159.094866 43.547483 
L 154.69266 44.942076 
L 154.066295 45.126604 
L 149.037723 47.290903 
L 144.009152 50.546723 
L 143.941524 50.599219 
L 138.98058 54.712238 
L 137.435116 56.256362 
L 133.952009 60.111042 
L 132.440605 61.913504 
L 128.923438 66.502809 
L 128.096821 67.570647 
L 123.894866 73.152872 
L 123.835706 73.22779 
L 119.152616 78.884933 
L 118.866295 79.204619 
L 114.1135 84.542076 
L 113.837723 84.829699 
L 109.235137 90.199219 
L 108.809152 90.691725 
L 105.015502 95.856362 
L 103.78058 97.702591 
L 101.540949 101.513504 
L 98.846037 107.170647 
L 98.752009 107.394641 
L 96.519734 112.82779 
L 94.792856 118.484933 
L 93.723438 123.215794 
L 93.484598 124.142076 
L 92.303108 129.799219 
L 91.478138 135.456362 
L 90.941712 141.113504 
L 90.646145 146.770647 
L 90.560227 152.42779 
L 90.666683 158.084933 
L 90.960817 163.742076 
L 91.450302 169.399219 
L 92.156188 175.056362 
L 93.115327 180.713504 
L 93.723438 183.561055 
L 94.1518 186.370647 
L 95.208059 192.02779 
L 96.559023 197.684933 
L 98.300568 203.342076 
L 98.752009 204.628108 
L 99.96068 208.999219 
L 101.908063 214.656362 
L 103.78058 219.016247 
L 104.258302 220.313504 
L 106.610232 225.970647 
L 108.809152 230.211343 
L 109.495974 231.62779 
L 112.589621 237.284933 
L 113.837723 239.2926 
L 116.157558 242.942076 
L 118.866295 246.714845 
L 120.378054 248.599219 
L 123.894866 252.74886 
L 125.469306 254.256362 
L 128.923438 257.603508 
L 132.215436 259.913504 
L 133.952009 261.231909 
z
" clip-path="url(#p9d51a50991)" style="fill: none; stroke: #000000; stroke-width: 1.5"/>
    <path d="M 133.952009 243.956271 
L 138.98058 246.391242 
L 144.009152 247.282472 
L 149.037723 246.575085 
L 154.066295 243.82647 
L 154.991695 242.942076 
L 159.094866 238.36637 
L 159.788623 237.284933 
L 162.787563 231.62779 
L 164.123438 228.230969 
L 164.957759 225.970647 
L 166.635924 220.313504 
L 167.904417 214.656362 
L 168.909575 208.999219 
L 169.152009 207.452901 
L 170.025189 203.342076 
L 171.323564 197.684933 
L 173.033928 192.02779 
L 174.18058 189.420402 
L 178.486997 186.370647 
L 179.209152 186.063198 
L 181.57086 186.370647 
L 184.237723 186.708248 
L 189.266295 188.710798 
L 194.294866 190.94189 
L 196.833994 192.02779 
L 199.323438 193.188894 
L 204.352009 195.221249 
L 209.38058 196.772878 
L 213.668888 197.684933 
L 214.409152 197.869273 
L 219.437723 198.531686 
L 224.466295 198.550823 
L 229.494866 197.842336 
L 230.035787 197.684933 
L 234.523438 196.388395 
L 239.552009 193.844416 
L 241.99485 192.02779 
L 244.58058 189.799966 
L 247.559964 186.370647 
L 249.609152 183.277509 
L 251.061565 180.713504 
L 253.352069 175.056362 
L 254.637723 169.915879 
L 254.766779 169.399219 
L 255.617672 163.742076 
L 255.903398 158.084933 
L 255.703697 152.42779 
L 255.053598 146.770647 
L 254.637723 144.605838 
L 254.070736 141.113504 
L 252.77873 135.456362 
L 251.055778 129.799219 
L 249.609152 126.044182 
L 248.95348 124.142076 
L 246.607376 118.484933 
L 244.58058 114.496188 
L 243.786439 112.82779 
L 240.656606 107.170647 
L 239.552009 105.421819 
L 237.130897 101.513504 
L 234.523438 97.834586 
L 233.099097 95.856362 
L 229.494866 91.324538 
L 228.552557 90.199219 
L 224.466295 85.625592 
L 223.409129 84.542076 
L 219.437723 80.594218 
L 217.488268 78.884933 
L 214.409152 76.176157 
L 210.459611 73.22779 
L 209.38058 72.391983 
L 204.352009 69.033531 
L 201.638043 67.570647 
L 199.323438 66.21121 
L 194.294866 63.853084 
L 189.266295 62.108989 
L 188.467142 61.913504 
L 184.237723 60.711369 
L 179.209152 59.89317 
L 174.18058 59.689198 
L 169.152009 60.155914 
L 164.123438 61.41572 
L 162.90717 61.913504 
L 159.094866 63.51824 
L 154.066295 66.810633 
L 153.164494 67.570647 
L 149.037723 71.575597 
L 147.606917 73.22779 
L 144.009152 78.190417 
L 143.521566 78.884933 
L 139.959802 84.542076 
L 138.98058 86.230991 
L 136.276084 90.199219 
L 133.952009 93.341248 
L 131.596378 95.856362 
L 128.923438 98.208954 
L 124.601798 101.513504 
L 123.894866 101.964224 
L 118.866295 105.624672 
L 117.224972 107.170647 
L 113.837723 110.344487 
L 111.879664 112.82779 
L 108.809152 117.25339 
L 108.119301 118.484933 
L 105.418598 124.142076 
L 103.78058 128.784166 
L 103.441438 129.799219 
L 101.918955 135.456362 
L 100.868977 141.113504 
L 100.196231 146.770647 
L 99.83249 152.42779 
L 99.731567 158.084933 
L 99.865689 163.742076 
L 100.223259 169.399219 
L 100.808016 175.056362 
L 101.639627 180.713504 
L 102.755958 186.370647 
L 103.78058 190.441229 
L 104.112142 192.02779 
L 105.523877 197.684933 
L 107.307971 203.342076 
L 108.809152 207.247466 
L 109.424278 208.999219 
L 111.710009 214.656362 
L 113.837723 218.968336 
L 114.503299 220.313504 
L 117.643153 225.970647 
L 118.866295 227.925742 
L 121.428826 231.62779 
L 123.894866 234.874766 
L 126.148493 237.284933 
L 128.923438 240.178481 
L 132.643142 242.942076 
L 133.952009 243.956271 
z
" clip-path="url(#p9d51a50991)" style="fill: none; stroke: #000000; stroke-width: 1.5"/>
    <path d="M 133.952009 232.517985 
L 138.98058 234.784327 
L 144.009152 235.189423 
L 149.037723 233.452857 
L 151.211956 231.62779 
L 154.066295 228.777476 
L 155.85766 225.970647 
L 158.574044 220.313504 
L 159.094866 218.865579 
L 160.438034 214.656362 
L 161.764608 208.999219 
L 162.715741 203.342076 
L 163.413664 197.684933 
L 163.962465 192.02779 
L 164.123438 190.16583 
L 164.594921 186.370647 
L 165.483326 180.713504 
L 167.002686 175.056362 
L 169.152009 171.001345 
L 174.18058 170.004438 
L 179.209152 171.922312 
L 184.237723 174.583182 
L 185.0258 175.056362 
L 189.266295 177.560587 
L 194.294866 180.277728 
L 195.203364 180.713504 
L 199.323438 182.792064 
L 204.352009 184.789227 
L 209.38058 186.217314 
L 210.310556 186.370647 
L 214.409152 187.132231 
L 219.437723 187.339395 
L 224.466295 186.72202 
L 225.635869 186.370647 
L 229.494866 185.144109 
L 234.523438 182.220889 
L 236.274798 180.713504 
L 239.552009 177.152831 
L 241.02213 175.056362 
L 243.825913 169.399219 
L 244.58058 166.980425 
L 245.508063 163.742076 
L 246.385889 158.084933 
L 246.613713 152.42779 
L 246.292805 146.770647 
L 245.469512 141.113504 
L 244.58058 137.292743 
L 244.197206 135.456362 
L 242.584731 129.799219 
L 240.474582 124.142076 
L 239.552009 122.111673 
L 237.987004 118.484933 
L 235.010101 112.82779 
L 234.523438 112.014708 
L 231.639047 107.170647 
L 229.494866 104.055195 
L 227.689498 101.513504 
L 224.466295 97.439315 
L 223.124137 95.856362 
L 219.437723 91.80887 
L 217.803994 90.199219 
L 214.409152 86.972877 
L 211.440506 84.542076 
L 209.38058 82.857232 
L 204.352009 79.413922 
L 203.412499 78.884933 
L 199.323438 76.469316 
L 194.294866 74.205159 
L 191.289201 73.22779 
L 189.266295 72.502906 
L 184.237723 71.381598 
L 179.209152 70.964824 
L 174.18058 71.318236 
L 169.152009 72.588479 
L 167.707887 73.22779 
L 164.123438 74.973175 
L 159.106077 78.884933 
L 159.094866 78.895568 
L 154.451094 84.542076 
L 154.066295 85.158478 
L 151.141851 90.199219 
L 149.037723 94.938404 
L 148.58874 95.856362 
L 146.084224 101.513504 
L 144.009152 106.00896 
L 143.200138 107.170647 
L 138.98058 111.633583 
L 136.805125 112.82779 
L 133.952009 113.9567 
L 128.923438 115.556893 
L 123.894866 117.738066 
L 122.817907 118.484933 
L 118.866295 121.184326 
L 116.186116 124.142076 
L 113.837723 127.115173 
L 112.307455 129.799219 
L 109.778897 135.456362 
L 108.809152 138.415454 
L 108.02513 141.113504 
L 106.843772 146.770647 
L 106.119569 152.42779 
L 105.771998 158.084933 
L 105.747618 163.742076 
L 106.015991 169.399219 
L 106.567266 175.056362 
L 107.411525 180.713504 
L 108.58005 186.370647 
L 108.809152 187.261309 
L 109.912593 192.02779 
L 111.550194 197.684933 
L 113.613658 203.342076 
L 113.837723 203.884009 
L 115.942093 208.999219 
L 118.797086 214.656362 
L 118.866295 214.7823 
L 122.216177 220.313504 
L 123.894866 222.767953 
L 126.60305 225.970647 
L 128.923438 228.572335 
L 132.830423 231.62779 
L 133.952009 232.517985 
z
" clip-path="url(#p9d51a50991)" style="fill: none; stroke: #000000; stroke-width: 1.5"/>
    <path d="M 133.952009 222.998988 
L 138.98058 225.029979 
L 144.009152 224.794704 
L 149.037723 221.629959 
L 150.084553 220.313504 
L 153.516056 214.656362 
L 154.066295 213.390378 
L 155.544121 208.999219 
L 156.85513 203.342076 
L 157.699227 197.684933 
L 158.202293 192.02779 
L 158.456859 186.370647 
L 158.534 180.713504 
L 158.492493 175.056362 
L 158.387659 169.399219 
L 158.284224 163.742076 
L 158.286902 158.084933 
L 158.656347 152.42779 
L 159.094866 150.331973 
L 164.123438 149.746404 
L 167.701832 152.42779 
L 169.152009 153.139435 
L 174.18058 157.122791 
L 175.23219 158.084933 
L 179.209152 161.190803 
L 182.420465 163.742076 
L 184.237723 165.062721 
L 189.266295 168.596226 
L 190.544035 169.399219 
L 194.294866 171.731898 
L 199.323438 174.284254 
L 201.324887 175.056362 
L 204.352009 176.2803 
L 209.38058 177.599354 
L 214.409152 178.145947 
L 219.437723 177.803707 
L 224.466295 176.345575 
L 226.825579 175.056362 
L 229.494866 173.283649 
L 233.1789 169.399219 
L 234.523438 167.365883 
L 236.379053 163.742076 
L 238.112939 158.084933 
L 238.884845 152.42779 
L 238.924145 146.770647 
L 238.363543 141.113504 
L 237.265832 135.456362 
L 235.637627 129.799219 
L 234.523438 126.878845 
L 233.51438 124.142076 
L 230.910666 118.484933 
L 229.494866 115.927192 
L 227.7566 112.82779 
L 224.466295 107.841561 
L 223.999721 107.170647 
L 219.566734 101.513504 
L 219.437723 101.3622 
L 214.409152 96.012971 
L 214.240717 95.856362 
L 209.38058 91.538206 
L 207.568634 90.199219 
L 204.352009 87.842942 
L 199.323438 84.919289 
L 198.468676 84.542076 
L 194.294866 82.623724 
L 189.266295 81.074379 
L 184.237723 80.288362 
L 179.209152 80.343822 
L 174.18058 81.420264 
L 169.152009 83.821846 
L 168.16767 84.542076 
L 164.123438 88.263966 
L 162.570915 90.199219 
L 159.316073 95.856362 
L 159.094866 96.418958 
L 157.159883 101.513504 
L 155.724458 107.170647 
L 154.782765 112.82779 
L 154.153804 118.484933 
L 154.066295 119.643702 
L 153.387484 124.142076 
L 151.400709 129.799219 
L 149.037723 131.54019 
L 144.009152 130.239727 
L 142.829598 129.799219 
L 138.98058 128.634523 
L 133.952009 127.734054 
L 128.923438 127.986895 
L 124.121429 129.799219 
L 123.894866 129.883462 
L 118.866295 134.22988 
L 118.015907 135.456362 
L 114.871049 141.113504 
L 113.837723 143.705934 
L 112.879999 146.770647 
L 111.674654 152.42779 
L 110.999534 158.084933 
L 110.761269 163.742076 
L 110.899217 169.399219 
L 111.380847 175.056362 
L 112.199052 180.713504 
L 113.371646 186.370647 
L 113.837723 188.114901 
L 114.869574 192.02779 
L 116.721385 197.684933 
L 118.866295 202.964453 
L 119.035276 203.342076 
L 121.904768 208.999219 
L 123.894866 212.372012 
L 125.577435 214.656362 
L 128.923438 218.823764 
L 130.698324 220.313504 
L 133.952009 222.998988 
z
" clip-path="url(#p9d51a50991)" style="fill: none; stroke: #000000; stroke-width: 1.5"/>
    <path d="M 138.98058 215.803589 
L 143.775907 214.656362 
L 144.009152 214.589172 
L 148.846375 208.999219 
L 149.037723 208.675144 
L 151.020374 203.342076 
L 152.324146 197.684933 
L 153.035249 192.02779 
L 153.299454 186.370647 
L 153.208599 180.713504 
L 152.811579 175.056362 
L 152.115158 169.399219 
L 151.070171 163.742076 
L 149.525649 158.084933 
L 149.037723 156.70514 
L 147.345491 152.42779 
L 144.067965 146.770647 
L 144.009152 146.689925 
L 138.98058 141.539919 
L 138.198913 141.113504 
L 133.952009 139.014562 
L 128.923438 138.755699 
L 123.929124 141.113504 
L 123.894866 141.131827 
L 119.620803 146.770647 
L 118.866295 148.188233 
L 117.38936 152.42779 
L 116.167363 158.084933 
L 115.587018 163.742076 
L 115.529879 169.399219 
L 115.920742 175.056362 
L 116.72141 180.713504 
L 117.926914 186.370647 
L 118.866295 189.663783 
L 119.612278 192.02779 
L 121.813314 197.684933 
L 123.894866 202.097672 
L 124.640182 203.342076 
L 128.47799 208.999219 
L 128.923438 209.595308 
L 133.952009 214.029718 
L 135.744846 214.656362 
L 138.98058 215.803589 
z
M 209.38058 169.569308 
L 214.409152 169.658111 
L 215.660512 169.399219 
L 219.437723 168.484773 
L 224.466295 165.482133 
L 226.198929 163.742076 
L 229.494866 158.743981 
L 229.814531 158.084933 
L 231.464584 152.42779 
L 232.044953 146.770647 
L 231.802846 141.113504 
L 230.872812 135.456362 
L 229.494866 130.478604 
L 229.30874 129.799219 
L 227.157546 124.142076 
L 224.466295 118.631064 
L 224.392137 118.484933 
L 220.956469 112.82779 
L 219.437723 110.683027 
L 216.722799 107.170647 
L 214.409152 104.494907 
L 211.463959 101.513504 
L 209.38058 99.550869 
L 204.670927 95.856362 
L 204.352009 95.614374 
L 199.323438 92.562991 
L 194.294866 90.355026 
L 193.701209 90.199219 
L 189.266295 89.002297 
L 184.237723 88.60961 
L 179.209152 89.344523 
L 177.088993 90.199219 
L 174.18058 91.649905 
L 169.580237 95.856362 
L 169.152009 96.428789 
L 166.30792 101.513504 
L 164.524293 107.170647 
L 164.123438 109.99724 
L 163.720993 112.82779 
L 163.68376 118.484933 
L 164.123438 121.989193 
L 164.370474 124.142076 
L 165.688379 129.799219 
L 167.897682 135.456362 
L 169.152009 137.635316 
L 171.009457 141.113504 
L 174.18058 145.458129 
L 175.118712 146.770647 
L 179.209152 151.415783 
L 180.133858 152.42779 
L 184.237723 156.345057 
L 186.247138 158.084933 
L 189.266295 160.496112 
L 194.04167 163.742076 
L 194.294866 163.908468 
L 199.323438 166.592895 
L 204.352009 168.496593 
L 208.607331 169.399219 
L 209.38058 169.569308 
z
" clip-path="url(#p9d51a50991)" style="fill: none; stroke: #000000; stroke-width: 1.5"/>
    <path d="M 133.952009 204.615584 
L 138.98058 205.857724 
L 143.066861 203.342076 
L 144.009152 202.483423 
L 146.14804 197.684933 
L 147.535314 192.02779 
L 148.084999 186.370647 
L 148.005922 180.713504 
L 147.407869 175.056362 
L 146.319476 169.399219 
L 144.682141 163.742076 
L 144.009152 161.996307 
L 141.98838 158.084933 
L 138.98058 153.567533 
L 137.570959 152.42779 
L 133.952009 149.873183 
L 128.923438 149.685501 
L 125.436731 152.42779 
L 123.894866 154.138419 
L 122.254043 158.084933 
L 120.934219 163.742076 
L 120.478718 169.399219 
L 120.704941 175.056362 
L 121.500306 180.713504 
L 122.809681 186.370647 
L 123.894866 189.759476 
L 124.842527 192.02779 
L 127.74984 197.684933 
L 128.923438 199.625553 
L 132.58627 203.342076 
L 133.952009 204.615584 
z
M 199.323438 158.954038 
L 204.352009 160.70737 
L 209.38058 161.361003 
L 214.409152 160.612175 
L 219.108905 158.084933 
L 219.437723 157.825793 
L 223.202002 152.42779 
L 224.466295 148.49932 
L 224.879106 146.770647 
L 225.157548 141.113504 
L 224.515771 135.456362 
L 224.466295 135.26496 
L 223.012671 129.799219 
L 220.807723 124.142076 
L 219.437723 121.461928 
L 217.790458 118.484933 
L 214.409152 113.466225 
L 213.919074 112.82779 
L 209.38058 107.709153 
L 208.803799 107.170647 
L 204.352009 103.39743 
L 201.470404 101.513504 
L 199.323438 100.182112 
L 194.294866 98.07098 
L 189.266295 97.035048 
L 184.237723 97.318359 
L 179.209152 99.407892 
L 176.746579 101.513504 
L 174.18058 105.00728 
L 173.089289 107.170647 
L 171.628184 112.82779 
L 171.350784 118.484933 
L 172.015088 124.142076 
L 173.552383 129.799219 
L 174.18058 131.277706 
L 175.963946 135.456362 
L 179.209152 140.999812 
L 179.279754 141.113504 
L 183.629712 146.770647 
L 184.237723 147.437548 
L 189.266295 152.385045 
L 189.318488 152.42779 
L 194.294866 156.134333 
L 197.722474 158.084933 
L 199.323438 158.954038 
z
" clip-path="url(#p9d51a50991)" style="fill: none; stroke: #000000; stroke-width: 1.5"/>
    <path d="M 133.952009 192.563677 
L 138.98058 192.161793 
L 139.067317 192.02779 
L 141.012542 186.370647 
L 141.418739 180.713504 
L 140.761507 175.056362 
L 139.241922 169.399219 
L 138.98058 168.764816 
L 134.823238 163.742076 
L 133.952009 162.902144 
L 130.536102 163.742076 
L 128.923438 164.46927 
L 127.353906 169.399219 
L 126.982777 175.056362 
L 127.660216 180.713504 
L 128.923438 185.471884 
L 129.398918 186.370647 
L 133.482136 192.02779 
L 133.952009 192.563677 
z
M 194.294866 147.543122 
L 199.323438 150.446524 
L 204.352009 152.039437 
L 209.38058 151.786385 
L 214.409152 148.489511 
L 215.606534 146.770647 
L 217.323794 141.113504 
L 217.280438 135.456362 
L 216.037269 129.799219 
L 214.409152 125.628605 
L 213.742252 124.142076 
L 210.24608 118.484933 
L 209.38058 117.353592 
L 205.159622 112.82779 
L 204.352009 112.077709 
L 199.323438 108.645562 
L 195.782345 107.170647 
L 194.294866 106.604913 
L 189.266295 106.280605 
L 186.490842 107.170647 
L 184.237723 108.322452 
L 180.823776 112.82779 
L 179.344314 118.484933 
L 179.658708 124.142076 
L 181.196285 129.799219 
L 183.729159 135.456362 
L 184.237723 136.274706 
L 187.662325 141.113504 
L 189.266295 142.954855 
L 193.344749 146.770647 
L 194.294866 147.543122 
z
" clip-path="url(#p9d51a50991)" style="fill: none; stroke: #000000; stroke-width: 1.5"/>
    <path d="M 199.323438 137.884517 
L 204.352009 137.503144 
L 205.774583 135.456362 
L 205.722784 129.799219 
L 204.352009 126.640504 
L 202.613965 124.142076 
L 199.323438 121.222139 
L 194.294866 120.039604 
L 191.080168 124.142076 
L 191.888268 129.799219 
L 194.294866 134.137319 
L 195.593804 135.456362 
L 199.323438 137.884517 
z
" clip-path="url(#p9d51a50991)" style="fill: none; stroke: #000000; stroke-width: 1.5"/>
   </g>
   <g id="patch_3">
    <path d="M 58.523438 288.199219 
L 58.523438 10.999219 
" style="fill: none; stroke: #000000; stroke-width: 0.8; stroke-linejoin: miter; stroke-linecap: square"/>
   </g>
   <g id="patch_4">
    <path d="M 304.923438 288.199219 
L 304.923438 10.999219 
" style="fill: none; stroke: #000000; stroke-width: 0.8; stroke-linejoin: miter; stroke-linecap: square"/>
   </g>
   <g id="patch_5">
    <path d="M 58.523438 288.199219 
L 304.923438 288.199219 
" style="fill: none; stroke: #000000; stroke-width: 0.8; stroke-linejoin: miter; stroke-linecap: square"/>
   </g>
   <g id="patch_6">
    <path d="M 58.523438 10.999219 
L 304.923438 10.999219 
" style="fill: none; stroke: #000000; stroke-width: 0.8; stroke-linejoin: miter; stroke-linecap: square"/>
   </g>
   <g id="legend_1">
    <g id="patch_7">
     <path d="M 241.898438 48.355469 
L 297.923438 48.355469 
Q 299.923438 48.355469 299.923438 46.355469 
L 299.923438 17.999219 
Q 299.923438 15.999219 297.923438 15.999219 
L 241.898438 15.999219 
Q 239.898438 15.999219 239.898438 17.999219 
L 239.898438 46.355469 
Q 239.898438 48.355469 241.898438 48.355469 
z
" style="fill: #ffffff; opacity: 0.8; stroke: #cccccc; stroke-linejoin: miter"/>
    </g>
    <g id="PathCollection_3">
     <g>
      <use xlink:href="#me0ecef9058" x="253.898438" y="24.972656" style="fill: #1f77b4; stroke: #1f77b4"/>
     </g>
    </g>
    <g id="text_22">
     <!-- dogs -->
     <g transform="translate(271.898438 27.597656) scale(0.1 -0.1)">
      <defs>
       <path id="DejaVuSans-64" d="M 2906 2969 
L 2906 4863 
L 3481 4863 
L 3481 0 
L 2906 0 
L 2906 525 
Q 2725 213 2448 61 
Q 2172 -91 1784 -91 
Q 1150 -91 751 415 
Q 353 922 353 1747 
Q 353 2572 751 3078 
Q 1150 3584 1784 3584 
Q 2172 3584 2448 3432 
Q 2725 3281 2906 2969 
z
M 947 1747 
Q 947 1113 1208 752 
Q 1469 391 1925 391 
Q 2381 391 2643 752 
Q 2906 1113 2906 1747 
Q 2906 2381 2643 2742 
Q 2381 3103 1925 3103 
Q 1469 3103 1208 2742 
Q 947 2381 947 1747 
z
" transform="scale(0.015625)"/>
       <path id="DejaVuSans-6f" d="M 1959 3097 
Q 1497 3097 1228 2736 
Q 959 2375 959 1747 
Q 959 1119 1226 758 
Q 1494 397 1959 397 
Q 2419 397 2687 759 
Q 2956 1122 2956 1747 
Q 2956 2369 2687 2733 
Q 2419 3097 1959 3097 
z
M 1959 3584 
Q 2709 3584 3137 3096 
Q 3566 2609 3566 1747 
Q 3566 888 3137 398 
Q 2709 -91 1959 -91 
Q 1206 -91 779 398 
Q 353 888 353 1747 
Q 353 2609 779 3096 
Q 1206 3584 1959 3584 
z
" transform="scale(0.015625)"/>
       <path id="DejaVuSans-67" d="M 2906 1791 
Q 2906 2416 2648 2759 
Q 2391 3103 1925 3103 
Q 1463 3103 1205 2759 
Q 947 2416 947 1791 
Q 947 1169 1205 825 
Q 1463 481 1925 481 
Q 2391 481 2648 825 
Q 2906 1169 2906 1791 
z
M 3481 434 
Q 3481 -459 3084 -895 
Q 2688 -1331 1869 -1331 
Q 1566 -1331 1297 -1286 
Q 1028 -1241 775 -1147 
L 775 -588 
Q 1028 -725 1275 -790 
Q 1522 -856 1778 -856 
Q 2344 -856 2625 -561 
Q 2906 -266 2906 331 
L 2906 616 
Q 2728 306 2450 153 
Q 2172 0 1784 0 
Q 1141 0 747 490 
Q 353 981 353 1791 
Q 353 2603 747 3093 
Q 1141 3584 1784 3584 
Q 2172 3584 2450 3431 
Q 2728 3278 2906 2969 
L 2906 3500 
L 3481 3500 
L 3481 434 
z
" transform="scale(0.015625)"/>
       <path id="DejaVuSans-73" d="M 2834 3397 
L 2834 2853 
Q 2591 2978 2328 3040 
Q 2066 3103 1784 3103 
Q 1356 3103 1142 2972 
Q 928 2841 928 2578 
Q 928 2378 1081 2264 
Q 1234 2150 1697 2047 
L 1894 2003 
Q 2506 1872 2764 1633 
Q 3022 1394 3022 966 
Q 3022 478 2636 193 
Q 2250 -91 1575 -91 
Q 1294 -91 989 -36 
Q 684 19 347 128 
L 347 722 
Q 666 556 975 473 
Q 1284 391 1588 391 
Q 1994 391 2212 530 
Q 2431 669 2431 922 
Q 2431 1156 2273 1281 
Q 2116 1406 1581 1522 
L 1381 1569 
Q 847 1681 609 1914 
Q 372 2147 372 2553 
Q 372 3047 722 3315 
Q 1072 3584 1716 3584 
Q 2034 3584 2315 3537 
Q 2597 3491 2834 3397 
z
" transform="scale(0.015625)"/>
      </defs>
      <use xlink:href="#DejaVuSans-64"/>
      <use xlink:href="#DejaVuSans-6f" transform="translate(63.476562 0)"/>
      <use xlink:href="#DejaVuSans-67" transform="translate(124.658203 0)"/>
      <use xlink:href="#DejaVuSans-73" transform="translate(188.134766 0)"/>
     </g>
    </g>
    <g id="PathCollection_4">
     <g>
      <use xlink:href="#mb9ce3f5a24" x="253.898438" y="39.650781" style="fill: #ff7f0e; stroke: #ff7f0e"/>
     </g>
    </g>
    <g id="text_23">
     <!-- cats -->
     <g transform="translate(271.898438 42.275781) scale(0.1 -0.1)">
      <defs>
       <path id="DejaVuSans-63" d="M 3122 3366 
L 3122 2828 
Q 2878 2963 2633 3030 
Q 2388 3097 2138 3097 
Q 1578 3097 1268 2742 
Q 959 2388 959 1747 
Q 959 1106 1268 751 
Q 1578 397 2138 397 
Q 2388 397 2633 464 
Q 2878 531 3122 666 
L 3122 134 
Q 2881 22 2623 -34 
Q 2366 -91 2075 -91 
Q 1284 -91 818 406 
Q 353 903 353 1747 
Q 353 2603 823 3093 
Q 1294 3584 2113 3584 
Q 2378 3584 2631 3529 
Q 2884 3475 3122 3366 
z
" transform="scale(0.015625)"/>
       <path id="DejaVuSans-61" d="M 2194 1759 
Q 1497 1759 1228 1600 
Q 959 1441 959 1056 
Q 959 750 1161 570 
Q 1363 391 1709 391 
Q 2188 391 2477 730 
Q 2766 1069 2766 1631 
L 2766 1759 
L 2194 1759 
z
M 3341 1997 
L 3341 0 
L 2766 0 
L 2766 531 
Q 2569 213 2275 61 
Q 1981 -91 1556 -91 
Q 1019 -91 701 211 
Q 384 513 384 1019 
Q 384 1609 779 1909 
Q 1175 2209 1959 2209 
L 2766 2209 
L 2766 2266 
Q 2766 2663 2505 2880 
Q 2244 3097 1772 3097 
Q 1472 3097 1187 3025 
Q 903 2953 641 2809 
L 641 3341 
Q 956 3463 1253 3523 
Q 1550 3584 1831 3584 
Q 2591 3584 2966 3190 
Q 3341 2797 3341 1997 
z
" transform="scale(0.015625)"/>
       <path id="DejaVuSans-74" d="M 1172 4494 
L 1172 3500 
L 2356 3500 
L 2356 3053 
L 1172 3053 
L 1172 1153 
Q 1172 725 1289 603 
Q 1406 481 1766 481 
L 2356 481 
L 2356 0 
L 1766 0 
Q 1100 0 847 248 
Q 594 497 594 1153 
L 594 3053 
L 172 3053 
L 172 3500 
L 594 3500 
L 594 4494 
L 1172 4494 
z
" transform="scale(0.015625)"/>
      </defs>
      <use xlink:href="#DejaVuSans-63"/>
      <use xlink:href="#DejaVuSans-61" transform="translate(54.980469 0)"/>
      <use xlink:href="#DejaVuSans-74" transform="translate(116.259766 0)"/>
      <use xlink:href="#DejaVuSans-73" transform="translate(155.46875 0)"/>
     </g>
    </g>
   </g>
  </g>
 </g>
 <defs>
  <clipPath id="p9d51a50991">
   <rect x="58.523438" y="10.999219" width="246.4" height="277.2"/>
  </clipPath>
 </defs>
</svg>
