<?xml version="1.0" encoding="utf-8" standalone="no"?>
<!DOCTYPE svg PUBLIC "-//W3C//DTD SVG 1.1//EN"
  "http://www.w3.org/Graphics/SVG/1.1/DTD/svg11.dtd">
<svg xmlns:xlink="http://www.w3.org/1999/xlink" width="427.903125pt" height="308.78pt" viewBox="0 0 427.903125 308.78" xmlns="http://www.w3.org/2000/svg" version="1.1">
 <metadata>
  <rdf:RDF xmlns:dc="http://purl.org/dc/elements/1.1/" xmlns:cc="http://creativecommons.org/ns#" xmlns:rdf="http://www.w3.org/1999/02/22-rdf-syntax-ns#">
   <cc:Work>
    <dc:type rdf:resource="http://purl.org/dc/dcmitype/StillImage"/>
    <dc:date>2025-02-04T14:49:25.215768</dc:date>
    <dc:format>image/svg+xml</dc:format>
    <dc:creator>
     <cc:Agent>
      <dc:title>Matplotlib v3.10.0, https://matplotlib.org/</dc:title>
     </cc:Agent>
    </dc:creator>
   </cc:Work>
  </rdf:RDF>
 </metadata>
 <defs>
  <style type="text/css">*{stroke-linejoin: round; stroke-linecap: butt}</style>
 </defs>
 <g id="figure_1">
  <g id="patch_1">
   <path d="M 0 308.78 
L 427.903125 308.78 
L 427.903125 0 
L 0 0 
z
" style="fill: #ffffff"/>
  </g>
  <g id="axes_1">
   <g id="patch_2">
    <path d="M 30.103125 284.4 
L 420.703125 284.4 
L 420.703125 7.2 
L 30.103125 7.2 
z
" style="fill: #ffffff"/>
   </g>
   <g id="matplotlib.axis_1">
    <g id="xtick_1">
     <g id="text_1">
      <!-- 6 -->
      <g transform="translate(36.216625 296.49) rotate(-90) scale(0.08 -0.08)">
       <defs>
        <path id="DejaVuSans-36" d="M 2113 2584 
Q 1688 2584 1439 2293 
Q 1191 2003 1191 1497 
Q 1191 994 1439 701 
Q 1688 409 2113 409 
Q 2538 409 2786 701 
Q 3034 994 3034 1497 
Q 3034 2003 2786 2293 
Q 2538 2584 2113 2584 
z
M 3366 4563 
L 3366 3988 
Q 3128 4100 2886 4159 
Q 2644 4219 2406 4219 
Q 1781 4219 1451 3797 
Q 1122 3375 1075 2522 
Q 1259 2794 1537 2939 
Q 1816 3084 2150 3084 
Q 2853 3084 3261 2657 
Q 3669 2231 3669 1497 
Q 3669 778 3244 343 
Q 2819 -91 2113 -91 
Q 1303 -91 875 529 
Q 447 1150 447 2328 
Q 447 3434 972 4092 
Q 1497 4750 2381 4750 
Q 2619 4750 2861 4703 
Q 3103 4656 3366 4563 
z
" transform="scale(0.015625)"/>
       </defs>
       <use xlink:href="#DejaVuSans-36"/>
      </g>
     </g>
    </g>
    <g id="xtick_2">
     <g id="text_2">
      <!-- 8 -->
      <g transform="translate(44.028625 296.49) rotate(-90) scale(0.08 -0.08)">
       <defs>
        <path id="DejaVuSans-38" d="M 2034 2216 
Q 1584 2216 1326 1975 
Q 1069 1734 1069 1313 
Q 1069 891 1326 650 
Q 1584 409 2034 409 
Q 2484 409 2743 651 
Q 3003 894 3003 1313 
Q 3003 1734 2745 1975 
Q 2488 2216 2034 2216 
z
M 1403 2484 
Q 997 2584 770 2862 
Q 544 3141 544 3541 
Q 544 4100 942 4425 
Q 1341 4750 2034 4750 
Q 2731 4750 3128 4425 
Q 3525 4100 3525 3541 
Q 3525 3141 3298 2862 
Q 3072 2584 2669 2484 
Q 3125 2378 3379 2068 
Q 3634 1759 3634 1313 
Q 3634 634 3220 271 
Q 2806 -91 2034 -91 
Q 1263 -91 848 271 
Q 434 634 434 1313 
Q 434 1759 690 2068 
Q 947 2378 1403 2484 
z
M 1172 3481 
Q 1172 3119 1398 2916 
Q 1625 2713 2034 2713 
Q 2441 2713 2670 2916 
Q 2900 3119 2900 3481 
Q 2900 3844 2670 4047 
Q 2441 4250 2034 4250 
Q 1625 4250 1398 4047 
Q 1172 3844 1172 3481 
z
" transform="scale(0.015625)"/>
       </defs>
       <use xlink:href="#DejaVuSans-38"/>
      </g>
     </g>
    </g>
    <g id="xtick_3">
     <g id="text_3">
      <!-- 3 -->
      <g transform="translate(51.840625 296.49) rotate(-90) scale(0.08 -0.08)">
       <defs>
        <path id="DejaVuSans-33" d="M 2597 2516 
Q 3050 2419 3304 2112 
Q 3559 1806 3559 1356 
Q 3559 666 3084 287 
Q 2609 -91 1734 -91 
Q 1441 -91 1130 -33 
Q 819 25 488 141 
L 488 750 
Q 750 597 1062 519 
Q 1375 441 1716 441 
Q 2309 441 2620 675 
Q 2931 909 2931 1356 
Q 2931 1769 2642 2001 
Q 2353 2234 1838 2234 
L 1294 2234 
L 1294 2753 
L 1863 2753 
Q 2328 2753 2575 2939 
Q 2822 3125 2822 3475 
Q 2822 3834 2567 4026 
Q 2313 4219 1838 4219 
Q 1578 4219 1281 4162 
Q 984 4106 628 3988 
L 628 4550 
Q 988 4650 1302 4700 
Q 1616 4750 1894 4750 
Q 2613 4750 3031 4423 
Q 3450 4097 3450 3541 
Q 3450 3153 3228 2886 
Q 3006 2619 2597 2516 
z
" transform="scale(0.015625)"/>
       </defs>
       <use xlink:href="#DejaVuSans-33"/>
      </g>
     </g>
    </g>
    <g id="xtick_4">
     <g id="text_4">
      <!-- 24 -->
      <g transform="translate(59.652625 301.58) rotate(-90) scale(0.08 -0.08)">
       <defs>
        <path id="DejaVuSans-32" d="M 1228 531 
L 3431 531 
L 3431 0 
L 469 0 
L 469 531 
Q 828 903 1448 1529 
Q 2069 2156 2228 2338 
Q 2531 2678 2651 2914 
Q 2772 3150 2772 3378 
Q 2772 3750 2511 3984 
Q 2250 4219 1831 4219 
Q 1534 4219 1204 4116 
Q 875 4013 500 3803 
L 500 4441 
Q 881 4594 1212 4672 
Q 1544 4750 1819 4750 
Q 2544 4750 2975 4387 
Q 3406 4025 3406 3419 
Q 3406 3131 3298 2873 
Q 3191 2616 2906 2266 
Q 2828 2175 2409 1742 
Q 1991 1309 1228 531 
z
" transform="scale(0.015625)"/>
        <path id="DejaVuSans-34" d="M 2419 4116 
L 825 1625 
L 2419 1625 
L 2419 4116 
z
M 2253 4666 
L 3047 4666 
L 3047 1625 
L 3713 1625 
L 3713 1100 
L 3047 1100 
L 3047 0 
L 2419 0 
L 2419 1100 
L 313 1100 
L 313 1709 
L 2253 4666 
z
" transform="scale(0.015625)"/>
       </defs>
       <use xlink:href="#DejaVuSans-32"/>
       <use xlink:href="#DejaVuSans-34" transform="translate(63.623047 0)"/>
      </g>
     </g>
    </g>
    <g id="xtick_5">
     <g id="text_5">
      <!-- 0 -->
      <g transform="translate(67.464625 296.49) rotate(-90) scale(0.08 -0.08)">
       <defs>
        <path id="DejaVuSans-30" d="M 2034 4250 
Q 1547 4250 1301 3770 
Q 1056 3291 1056 2328 
Q 1056 1369 1301 889 
Q 1547 409 2034 409 
Q 2525 409 2770 889 
Q 3016 1369 3016 2328 
Q 3016 3291 2770 3770 
Q 2525 4250 2034 4250 
z
M 2034 4750 
Q 2819 4750 3233 4129 
Q 3647 3509 3647 2328 
Q 3647 1150 3233 529 
Q 2819 -91 2034 -91 
Q 1250 -91 836 529 
Q 422 1150 422 2328 
Q 422 3509 836 4129 
Q 1250 4750 2034 4750 
z
" transform="scale(0.015625)"/>
       </defs>
       <use xlink:href="#DejaVuSans-30"/>
      </g>
     </g>
    </g>
    <g id="xtick_6">
     <g id="text_6">
      <!-- 14 -->
      <g transform="translate(75.276625 301.58) rotate(-90) scale(0.08 -0.08)">
       <defs>
        <path id="DejaVuSans-31" d="M 794 531 
L 1825 531 
L 1825 4091 
L 703 3866 
L 703 4441 
L 1819 4666 
L 2450 4666 
L 2450 531 
L 3481 531 
L 3481 0 
L 794 0 
L 794 531 
z
" transform="scale(0.015625)"/>
       </defs>
       <use xlink:href="#DejaVuSans-31"/>
       <use xlink:href="#DejaVuSans-34" transform="translate(63.623047 0)"/>
      </g>
     </g>
    </g>
    <g id="xtick_7">
     <g id="text_7">
      <!-- 15 -->
      <g transform="translate(83.088625 301.58) rotate(-90) scale(0.08 -0.08)">
       <defs>
        <path id="DejaVuSans-35" d="M 691 4666 
L 3169 4666 
L 3169 4134 
L 1269 4134 
L 1269 2991 
Q 1406 3038 1543 3061 
Q 1681 3084 1819 3084 
Q 2600 3084 3056 2656 
Q 3513 2228 3513 1497 
Q 3513 744 3044 326 
Q 2575 -91 1722 -91 
Q 1428 -91 1123 -41 
Q 819 9 494 109 
L 494 744 
Q 775 591 1075 516 
Q 1375 441 1709 441 
Q 2250 441 2565 725 
Q 2881 1009 2881 1497 
Q 2881 1984 2565 2268 
Q 2250 2553 1709 2553 
Q 1456 2553 1204 2497 
Q 953 2441 691 2322 
L 691 4666 
z
" transform="scale(0.015625)"/>
       </defs>
       <use xlink:href="#DejaVuSans-31"/>
       <use xlink:href="#DejaVuSans-35" transform="translate(63.623047 0)"/>
      </g>
     </g>
    </g>
    <g id="xtick_8">
     <g id="text_8">
      <!-- 23 -->
      <g transform="translate(90.900625 301.58) rotate(-90) scale(0.08 -0.08)">
       <use xlink:href="#DejaVuSans-32"/>
       <use xlink:href="#DejaVuSans-33" transform="translate(63.623047 0)"/>
      </g>
     </g>
    </g>
    <g id="xtick_9">
     <g id="text_9">
      <!-- 21 -->
      <g transform="translate(98.712625 301.58) rotate(-90) scale(0.08 -0.08)">
       <use xlink:href="#DejaVuSans-32"/>
       <use xlink:href="#DejaVuSans-31" transform="translate(63.623047 0)"/>
      </g>
     </g>
    </g>
    <g id="xtick_10">
     <g id="text_10">
      <!-- 22 -->
      <g transform="translate(106.524625 301.58) rotate(-90) scale(0.08 -0.08)">
       <use xlink:href="#DejaVuSans-32"/>
       <use xlink:href="#DejaVuSans-32" transform="translate(63.623047 0)"/>
      </g>
     </g>
    </g>
    <g id="xtick_11">
     <g id="text_11">
      <!-- 4 -->
      <g transform="translate(114.336625 296.49) rotate(-90) scale(0.08 -0.08)">
       <use xlink:href="#DejaVuSans-34"/>
      </g>
     </g>
    </g>
    <g id="xtick_12">
     <g id="text_12">
      <!-- 19 -->
      <g transform="translate(122.148625 301.58) rotate(-90) scale(0.08 -0.08)">
       <defs>
        <path id="DejaVuSans-39" d="M 703 97 
L 703 672 
Q 941 559 1184 500 
Q 1428 441 1663 441 
Q 2288 441 2617 861 
Q 2947 1281 2994 2138 
Q 2813 1869 2534 1725 
Q 2256 1581 1919 1581 
Q 1219 1581 811 2004 
Q 403 2428 403 3163 
Q 403 3881 828 4315 
Q 1253 4750 1959 4750 
Q 2769 4750 3195 4129 
Q 3622 3509 3622 2328 
Q 3622 1225 3098 567 
Q 2575 -91 1691 -91 
Q 1453 -91 1209 -44 
Q 966 3 703 97 
z
M 1959 2075 
Q 2384 2075 2632 2365 
Q 2881 2656 2881 3163 
Q 2881 3666 2632 3958 
Q 2384 4250 1959 4250 
Q 1534 4250 1286 3958 
Q 1038 3666 1038 3163 
Q 1038 2656 1286 2365 
Q 1534 2075 1959 2075 
z
" transform="scale(0.015625)"/>
       </defs>
       <use xlink:href="#DejaVuSans-31"/>
       <use xlink:href="#DejaVuSans-39" transform="translate(63.623047 0)"/>
      </g>
     </g>
    </g>
    <g id="xtick_13">
     <g id="text_13">
      <!-- 13 -->
      <g transform="translate(129.960625 301.58) rotate(-90) scale(0.08 -0.08)">
       <use xlink:href="#DejaVuSans-31"/>
       <use xlink:href="#DejaVuSans-33" transform="translate(63.623047 0)"/>
      </g>
     </g>
    </g>
    <g id="xtick_14">
     <g id="text_14">
      <!-- 16 -->
      <g transform="translate(137.772625 301.58) rotate(-90) scale(0.08 -0.08)">
       <use xlink:href="#DejaVuSans-31"/>
       <use xlink:href="#DejaVuSans-36" transform="translate(63.623047 0)"/>
      </g>
     </g>
    </g>
    <g id="xtick_15">
     <g id="text_15">
      <!-- 2 -->
      <g transform="translate(145.584625 296.49) rotate(-90) scale(0.08 -0.08)">
       <use xlink:href="#DejaVuSans-32"/>
      </g>
     </g>
    </g>
    <g id="xtick_16">
     <g id="text_16">
      <!-- 12 -->
      <g transform="translate(153.396625 301.58) rotate(-90) scale(0.08 -0.08)">
       <use xlink:href="#DejaVuSans-31"/>
       <use xlink:href="#DejaVuSans-32" transform="translate(63.623047 0)"/>
      </g>
     </g>
    </g>
    <g id="xtick_17">
     <g id="text_17">
      <!-- 18 -->
      <g transform="translate(161.208625 301.58) rotate(-90) scale(0.08 -0.08)">
       <use xlink:href="#DejaVuSans-31"/>
       <use xlink:href="#DejaVuSans-38" transform="translate(63.623047 0)"/>
      </g>
     </g>
    </g>
    <g id="xtick_18">
     <g id="text_18">
      <!-- 5 -->
      <g transform="translate(169.020625 296.49) rotate(-90) scale(0.08 -0.08)">
       <use xlink:href="#DejaVuSans-35"/>
      </g>
     </g>
    </g>
    <g id="xtick_19">
     <g id="text_19">
      <!-- 11 -->
      <g transform="translate(176.832625 301.58) rotate(-90) scale(0.08 -0.08)">
       <use xlink:href="#DejaVuSans-31"/>
       <use xlink:href="#DejaVuSans-31" transform="translate(63.623047 0)"/>
      </g>
     </g>
    </g>
    <g id="xtick_20">
     <g id="text_20">
      <!-- 7 -->
      <g transform="translate(184.644625 296.49) rotate(-90) scale(0.08 -0.08)">
       <defs>
        <path id="DejaVuSans-37" d="M 525 4666 
L 3525 4666 
L 3525 4397 
L 1831 0 
L 1172 0 
L 2766 4134 
L 525 4134 
L 525 4666 
z
" transform="scale(0.015625)"/>
       </defs>
       <use xlink:href="#DejaVuSans-37"/>
      </g>
     </g>
    </g>
    <g id="xtick_21">
     <g id="text_21">
      <!-- 9 -->
      <g transform="translate(192.456625 296.49) rotate(-90) scale(0.08 -0.08)">
       <use xlink:href="#DejaVuSans-39"/>
      </g>
     </g>
    </g>
    <g id="xtick_22">
     <g id="text_22">
      <!-- 1 -->
      <g transform="translate(200.268625 296.49) rotate(-90) scale(0.08 -0.08)">
       <use xlink:href="#DejaVuSans-31"/>
      </g>
     </g>
    </g>
    <g id="xtick_23">
     <g id="text_23">
      <!-- 17 -->
      <g transform="translate(208.080625 301.58) rotate(-90) scale(0.08 -0.08)">
       <use xlink:href="#DejaVuSans-31"/>
       <use xlink:href="#DejaVuSans-37" transform="translate(63.623047 0)"/>
      </g>
     </g>
    </g>
    <g id="xtick_24">
     <g id="text_24">
      <!-- 10 -->
      <g transform="translate(215.892625 301.58) rotate(-90) scale(0.08 -0.08)">
       <use xlink:href="#DejaVuSans-31"/>
       <use xlink:href="#DejaVuSans-30" transform="translate(63.623047 0)"/>
      </g>
     </g>
    </g>
    <g id="xtick_25">
     <g id="text_25">
      <!-- 20 -->
      <g transform="translate(223.704625 301.58) rotate(-90) scale(0.08 -0.08)">
       <use xlink:href="#DejaVuSans-32"/>
       <use xlink:href="#DejaVuSans-30" transform="translate(63.623047 0)"/>
      </g>
     </g>
    </g>
    <g id="xtick_26">
     <g id="text_26">
      <!-- 45 -->
      <g transform="translate(231.516625 301.58) rotate(-90) scale(0.08 -0.08)">
       <use xlink:href="#DejaVuSans-34"/>
       <use xlink:href="#DejaVuSans-35" transform="translate(63.623047 0)"/>
      </g>
     </g>
    </g>
    <g id="xtick_27">
     <g id="text_27">
      <!-- 25 -->
      <g transform="translate(239.328625 301.58) rotate(-90) scale(0.08 -0.08)">
       <use xlink:href="#DejaVuSans-32"/>
       <use xlink:href="#DejaVuSans-35" transform="translate(63.623047 0)"/>
      </g>
     </g>
    </g>
    <g id="xtick_28">
     <g id="text_28">
      <!-- 40 -->
      <g transform="translate(247.140625 301.58) rotate(-90) scale(0.08 -0.08)">
       <use xlink:href="#DejaVuSans-34"/>
       <use xlink:href="#DejaVuSans-30" transform="translate(63.623047 0)"/>
      </g>
     </g>
    </g>
    <g id="xtick_29">
     <g id="text_29">
      <!-- 38 -->
      <g transform="translate(254.952625 301.58) rotate(-90) scale(0.08 -0.08)">
       <use xlink:href="#DejaVuSans-33"/>
       <use xlink:href="#DejaVuSans-38" transform="translate(63.623047 0)"/>
      </g>
     </g>
    </g>
    <g id="xtick_30">
     <g id="text_30">
      <!-- 41 -->
      <g transform="translate(262.764625 301.58) rotate(-90) scale(0.08 -0.08)">
       <use xlink:href="#DejaVuSans-34"/>
       <use xlink:href="#DejaVuSans-31" transform="translate(63.623047 0)"/>
      </g>
     </g>
    </g>
    <g id="xtick_31">
     <g id="text_31">
      <!-- 49 -->
      <g transform="translate(270.576625 301.58) rotate(-90) scale(0.08 -0.08)">
       <use xlink:href="#DejaVuSans-34"/>
       <use xlink:href="#DejaVuSans-39" transform="translate(63.623047 0)"/>
      </g>
     </g>
    </g>
    <g id="xtick_32">
     <g id="text_32">
      <!-- 28 -->
      <g transform="translate(278.388625 301.58) rotate(-90) scale(0.08 -0.08)">
       <use xlink:href="#DejaVuSans-32"/>
       <use xlink:href="#DejaVuSans-38" transform="translate(63.623047 0)"/>
      </g>
     </g>
    </g>
    <g id="xtick_33">
     <g id="text_33">
      <!-- 29 -->
      <g transform="translate(286.200625 301.58) rotate(-90) scale(0.08 -0.08)">
       <use xlink:href="#DejaVuSans-32"/>
       <use xlink:href="#DejaVuSans-39" transform="translate(63.623047 0)"/>
      </g>
     </g>
    </g>
    <g id="xtick_34">
     <g id="text_34">
      <!-- 27 -->
      <g transform="translate(294.012625 301.58) rotate(-90) scale(0.08 -0.08)">
       <use xlink:href="#DejaVuSans-32"/>
       <use xlink:href="#DejaVuSans-37" transform="translate(63.623047 0)"/>
      </g>
     </g>
    </g>
    <g id="xtick_35">
     <g id="text_35">
      <!-- 36 -->
      <g transform="translate(301.824625 301.58) rotate(-90) scale(0.08 -0.08)">
       <use xlink:href="#DejaVuSans-33"/>
       <use xlink:href="#DejaVuSans-36" transform="translate(63.623047 0)"/>
      </g>
     </g>
    </g>
    <g id="xtick_36">
     <g id="text_36">
      <!-- 37 -->
      <g transform="translate(309.636625 301.58) rotate(-90) scale(0.08 -0.08)">
       <use xlink:href="#DejaVuSans-33"/>
       <use xlink:href="#DejaVuSans-37" transform="translate(63.623047 0)"/>
      </g>
     </g>
    </g>
    <g id="xtick_37">
     <g id="text_37">
      <!-- 47 -->
      <g transform="translate(317.448625 301.58) rotate(-90) scale(0.08 -0.08)">
       <use xlink:href="#DejaVuSans-34"/>
       <use xlink:href="#DejaVuSans-37" transform="translate(63.623047 0)"/>
      </g>
     </g>
    </g>
    <g id="xtick_38">
     <g id="text_38">
      <!-- 48 -->
      <g transform="translate(325.260625 301.58) rotate(-90) scale(0.08 -0.08)">
       <use xlink:href="#DejaVuSans-34"/>
       <use xlink:href="#DejaVuSans-38" transform="translate(63.623047 0)"/>
      </g>
     </g>
    </g>
    <g id="xtick_39">
     <g id="text_39">
      <!-- 32 -->
      <g transform="translate(333.072625 301.58) rotate(-90) scale(0.08 -0.08)">
       <use xlink:href="#DejaVuSans-33"/>
       <use xlink:href="#DejaVuSans-32" transform="translate(63.623047 0)"/>
      </g>
     </g>
    </g>
    <g id="xtick_40">
     <g id="text_40">
      <!-- 35 -->
      <g transform="translate(340.884625 301.58) rotate(-90) scale(0.08 -0.08)">
       <use xlink:href="#DejaVuSans-33"/>
       <use xlink:href="#DejaVuSans-35" transform="translate(63.623047 0)"/>
      </g>
     </g>
    </g>
    <g id="xtick_41">
     <g id="text_41">
      <!-- 42 -->
      <g transform="translate(348.696625 301.58) rotate(-90) scale(0.08 -0.08)">
       <use xlink:href="#DejaVuSans-34"/>
       <use xlink:href="#DejaVuSans-32" transform="translate(63.623047 0)"/>
      </g>
     </g>
    </g>
    <g id="xtick_42">
     <g id="text_42">
      <!-- 30 -->
      <g transform="translate(356.508625 301.58) rotate(-90) scale(0.08 -0.08)">
       <use xlink:href="#DejaVuSans-33"/>
       <use xlink:href="#DejaVuSans-30" transform="translate(63.623047 0)"/>
      </g>
     </g>
    </g>
    <g id="xtick_43">
     <g id="text_43">
      <!-- 44 -->
      <g transform="translate(364.320625 301.58) rotate(-90) scale(0.08 -0.08)">
       <use xlink:href="#DejaVuSans-34"/>
       <use xlink:href="#DejaVuSans-34" transform="translate(63.623047 0)"/>
      </g>
     </g>
    </g>
    <g id="xtick_44">
     <g id="text_44">
      <!-- 33 -->
      <g transform="translate(372.132625 301.58) rotate(-90) scale(0.08 -0.08)">
       <use xlink:href="#DejaVuSans-33"/>
       <use xlink:href="#DejaVuSans-33" transform="translate(63.623047 0)"/>
      </g>
     </g>
    </g>
    <g id="xtick_45">
     <g id="text_45">
      <!-- 31 -->
      <g transform="translate(379.944625 301.58) rotate(-90) scale(0.08 -0.08)">
       <use xlink:href="#DejaVuSans-33"/>
       <use xlink:href="#DejaVuSans-31" transform="translate(63.623047 0)"/>
      </g>
     </g>
    </g>
    <g id="xtick_46">
     <g id="text_46">
      <!-- 34 -->
      <g transform="translate(387.756625 301.58) rotate(-90) scale(0.08 -0.08)">
       <use xlink:href="#DejaVuSans-33"/>
       <use xlink:href="#DejaVuSans-34" transform="translate(63.623047 0)"/>
      </g>
     </g>
    </g>
    <g id="xtick_47">
     <g id="text_47">
      <!-- 43 -->
      <g transform="translate(395.568625 301.58) rotate(-90) scale(0.08 -0.08)">
       <use xlink:href="#DejaVuSans-34"/>
       <use xlink:href="#DejaVuSans-33" transform="translate(63.623047 0)"/>
      </g>
     </g>
    </g>
    <g id="xtick_48">
     <g id="text_48">
      <!-- 46 -->
      <g transform="translate(403.380625 301.58) rotate(-90) scale(0.08 -0.08)">
       <use xlink:href="#DejaVuSans-34"/>
       <use xlink:href="#DejaVuSans-36" transform="translate(63.623047 0)"/>
      </g>
     </g>
    </g>
    <g id="xtick_49">
     <g id="text_49">
      <!-- 26 -->
      <g transform="translate(411.192625 301.58) rotate(-90) scale(0.08 -0.08)">
       <use xlink:href="#DejaVuSans-32"/>
       <use xlink:href="#DejaVuSans-36" transform="translate(63.623047 0)"/>
      </g>
     </g>
    </g>
    <g id="xtick_50">
     <g id="text_50">
      <!-- 39 -->
      <g transform="translate(419.004625 301.58) rotate(-90) scale(0.08 -0.08)">
       <use xlink:href="#DejaVuSans-33"/>
       <use xlink:href="#DejaVuSans-39" transform="translate(63.623047 0)"/>
      </g>
     </g>
    </g>
   </g>
   <g id="matplotlib.axis_2">
    <g id="ytick_1">
     <g id="line2d_1">
      <defs>
       <path id="mbe67739835" d="M 0 0 
L -3.5 0 
" style="stroke: #000000; stroke-width: 0.8"/>
      </defs>
      <g>
       <use xlink:href="#mbe67739835" x="30.103125" y="284.4" style="stroke: #000000; stroke-width: 0.8"/>
      </g>
     </g>
     <g id="text_51">
      <!-- 0.0 -->
      <g transform="translate(7.2 288.199219) scale(0.1 -0.1)">
       <defs>
        <path id="DejaVuSans-2e" d="M 684 794 
L 1344 794 
L 1344 0 
L 684 0 
L 684 794 
z
" transform="scale(0.015625)"/>
       </defs>
       <use xlink:href="#DejaVuSans-30"/>
       <use xlink:href="#DejaVuSans-2e" transform="translate(63.623047 0)"/>
       <use xlink:href="#DejaVuSans-30" transform="translate(95.410156 0)"/>
      </g>
     </g>
    </g>
    <g id="ytick_2">
     <g id="line2d_2">
      <g>
       <use xlink:href="#mbe67739835" x="30.103125" y="232.359548" style="stroke: #000000; stroke-width: 0.8"/>
      </g>
     </g>
     <g id="text_52">
      <!-- 0.5 -->
      <g transform="translate(7.2 236.158767) scale(0.1 -0.1)">
       <use xlink:href="#DejaVuSans-30"/>
       <use xlink:href="#DejaVuSans-2e" transform="translate(63.623047 0)"/>
       <use xlink:href="#DejaVuSans-35" transform="translate(95.410156 0)"/>
      </g>
     </g>
    </g>
    <g id="ytick_3">
     <g id="line2d_3">
      <g>
       <use xlink:href="#mbe67739835" x="30.103125" y="180.319096" style="stroke: #000000; stroke-width: 0.8"/>
      </g>
     </g>
     <g id="text_53">
      <!-- 1.0 -->
      <g transform="translate(7.2 184.118314) scale(0.1 -0.1)">
       <use xlink:href="#DejaVuSans-31"/>
       <use xlink:href="#DejaVuSans-2e" transform="translate(63.623047 0)"/>
       <use xlink:href="#DejaVuSans-30" transform="translate(95.410156 0)"/>
      </g>
     </g>
    </g>
    <g id="ytick_4">
     <g id="line2d_4">
      <g>
       <use xlink:href="#mbe67739835" x="30.103125" y="128.278643" style="stroke: #000000; stroke-width: 0.8"/>
      </g>
     </g>
     <g id="text_54">
      <!-- 1.5 -->
      <g transform="translate(7.2 132.077862) scale(0.1 -0.1)">
       <use xlink:href="#DejaVuSans-31"/>
       <use xlink:href="#DejaVuSans-2e" transform="translate(63.623047 0)"/>
       <use xlink:href="#DejaVuSans-35" transform="translate(95.410156 0)"/>
      </g>
     </g>
    </g>
    <g id="ytick_5">
     <g id="line2d_5">
      <g>
       <use xlink:href="#mbe67739835" x="30.103125" y="76.238191" style="stroke: #000000; stroke-width: 0.8"/>
      </g>
     </g>
     <g id="text_55">
      <!-- 2.0 -->
      <g transform="translate(7.2 80.03741) scale(0.1 -0.1)">
       <use xlink:href="#DejaVuSans-32"/>
       <use xlink:href="#DejaVuSans-2e" transform="translate(63.623047 0)"/>
       <use xlink:href="#DejaVuSans-30" transform="translate(95.410156 0)"/>
      </g>
     </g>
    </g>
    <g id="ytick_6">
     <g id="line2d_6">
      <g>
       <use xlink:href="#mbe67739835" x="30.103125" y="24.197739" style="stroke: #000000; stroke-width: 0.8"/>
      </g>
     </g>
     <g id="text_56">
      <!-- 2.5 -->
      <g transform="translate(7.2 27.996958) scale(0.1 -0.1)">
       <use xlink:href="#DejaVuSans-32"/>
       <use xlink:href="#DejaVuSans-2e" transform="translate(63.623047 0)"/>
       <use xlink:href="#DejaVuSans-35" transform="translate(95.410156 0)"/>
      </g>
     </g>
    </g>
   </g>
   <g id="LineCollection_1">
    <path d="M 34.009125 284.4 
L 34.009125 159.356618 
L 41.821125 159.356618 
L 41.821125 284.4 
" clip-path="url(#p4c1163e924)" style="fill: none; stroke: #ff7f0e; stroke-width: 1.5"/>
    <path d="M 49.633125 284.4 
L 49.633125 258.865635 
L 57.445125 258.865635 
L 57.445125 284.4 
" clip-path="url(#p4c1163e924)" style="fill: none; stroke: #ff7f0e; stroke-width: 1.5"/>
    <path d="M 65.257125 284.4 
L 65.257125 253.909281 
L 73.069125 253.909281 
L 73.069125 284.4 
" clip-path="url(#p4c1163e924)" style="fill: none; stroke: #ff7f0e; stroke-width: 1.5"/>
    <path d="M 53.539125 258.865635 
L 53.539125 206.020363 
L 69.163125 206.020363 
L 69.163125 253.909281 
" clip-path="url(#p4c1163e924)" style="fill: none; stroke: #ff7f0e; stroke-width: 1.5"/>
    <path d="M 96.505125 284.4 
L 96.505125 271.431913 
L 104.317125 271.431913 
L 104.317125 284.4 
" clip-path="url(#p4c1163e924)" style="fill: none; stroke: #ff7f0e; stroke-width: 1.5"/>
    <path d="M 112.129125 284.4 
L 112.129125 265.200299 
L 119.941125 265.200299 
L 119.941125 284.4 
" clip-path="url(#p4c1163e924)" style="fill: none; stroke: #ff7f0e; stroke-width: 1.5"/>
    <path d="M 100.411125 271.431913 
L 100.411125 263.318152 
L 116.035125 263.318152 
L 116.035125 265.200299 
" clip-path="url(#p4c1163e924)" style="fill: none; stroke: #ff7f0e; stroke-width: 1.5"/>
    <path d="M 88.693125 284.4 
L 88.693125 246.044175 
L 108.223125 246.044175 
L 108.223125 263.318152 
" clip-path="url(#p4c1163e924)" style="fill: none; stroke: #ff7f0e; stroke-width: 1.5"/>
    <path d="M 127.753125 284.4 
L 127.753125 236.385325 
L 135.565125 236.385325 
L 135.565125 284.4 
" clip-path="url(#p4c1163e924)" style="fill: none; stroke: #ff7f0e; stroke-width: 1.5"/>
    <path d="M 98.458125 246.044175 
L 98.458125 228.351285 
L 131.659125 228.351285 
L 131.659125 236.385325 
" clip-path="url(#p4c1163e924)" style="fill: none; stroke: #ff7f0e; stroke-width: 1.5"/>
    <path d="M 143.377125 284.4 
L 143.377125 261.65718 
L 151.189125 261.65718 
L 151.189125 284.4 
" clip-path="url(#p4c1163e924)" style="fill: none; stroke: #ff7f0e; stroke-width: 1.5"/>
    <path d="M 166.813125 284.4 
L 166.813125 260.801217 
L 174.625125 260.801217 
L 174.625125 284.4 
" clip-path="url(#p4c1163e924)" style="fill: none; stroke: #ff7f0e; stroke-width: 1.5"/>
    <path d="M 182.437125 284.4 
L 182.437125 273.757606 
L 190.249125 273.757606 
L 190.249125 284.4 
" clip-path="url(#p4c1163e924)" style="fill: none; stroke: #ff7f0e; stroke-width: 1.5"/>
    <path d="M 198.061125 284.4 
L 198.061125 272.099949 
L 205.873125 272.099949 
L 205.873125 284.4 
" clip-path="url(#p4c1163e924)" style="fill: none; stroke: #ff7f0e; stroke-width: 1.5"/>
    <path d="M 186.343125 273.757606 
L 186.343125 267.802607 
L 201.967125 267.802607 
L 201.967125 272.099949 
" clip-path="url(#p4c1163e924)" style="fill: none; stroke: #ff7f0e; stroke-width: 1.5"/>
    <path d="M 213.685125 284.4 
L 213.685125 262.170633 
L 221.497125 262.170633 
L 221.497125 284.4 
" clip-path="url(#p4c1163e924)" style="fill: none; stroke: #ff7f0e; stroke-width: 1.5"/>
    <path d="M 194.155125 267.802607 
L 194.155125 257.488329 
L 217.591125 257.488329 
L 217.591125 262.170633 
" clip-path="url(#p4c1163e924)" style="fill: none; stroke: #ff7f0e; stroke-width: 1.5"/>
    <path d="M 170.719125 260.801217 
L 170.719125 243.921033 
L 205.873125 243.921033 
L 205.873125 257.488329 
" clip-path="url(#p4c1163e924)" style="fill: none; stroke: #ff7f0e; stroke-width: 1.5"/>
    <path d="M 159.001125 284.4 
L 159.001125 233.04626 
L 188.296125 233.04626 
L 188.296125 243.921033 
" clip-path="url(#p4c1163e924)" style="fill: none; stroke: #ff7f0e; stroke-width: 1.5"/>
    <path d="M 147.283125 261.65718 
L 147.283125 219.736014 
L 173.648625 219.736014 
L 173.648625 233.04626 
" clip-path="url(#p4c1163e924)" style="fill: none; stroke: #ff7f0e; stroke-width: 1.5"/>
    <path d="M 115.058625 228.351285 
L 115.058625 194.826155 
L 160.465875 194.826155 
L 160.465875 219.736014 
" clip-path="url(#p4c1163e924)" style="fill: none; stroke: #ff7f0e; stroke-width: 1.5"/>
    <path d="M 80.881125 284.4 
L 80.881125 176.154578 
L 137.76225 176.154578 
L 137.76225 194.826155 
" clip-path="url(#p4c1163e924)" style="fill: none; stroke: #ff7f0e; stroke-width: 1.5"/>
    <path d="M 61.351125 206.020363 
L 61.351125 149.930112 
L 109.321688 149.930112 
L 109.321688 176.154578 
" clip-path="url(#p4c1163e924)" style="fill: none; stroke: #ff7f0e; stroke-width: 1.5"/>
    <path d="M 37.915125 159.356618 
L 37.915125 64.713888 
L 85.336406 64.713888 
L 85.336406 149.930112 
" clip-path="url(#p4c1163e924)" style="fill: none; stroke: #ff7f0e; stroke-width: 1.5"/>
   </g>
   <g id="LineCollection_2">
    <path d="M 237.121125 284.4 
L 237.121125 257.564859 
L 244.933125 257.564859 
L 244.933125 284.4 
" clip-path="url(#p4c1163e924)" style="fill: none; stroke: #2ca02c; stroke-width: 1.5"/>
    <path d="M 260.557125 284.4 
L 260.557125 281.132656 
L 268.369125 281.132656 
L 268.369125 284.4 
" clip-path="url(#p4c1163e924)" style="fill: none; stroke: #2ca02c; stroke-width: 1.5"/>
    <path d="M 276.181125 284.4 
L 276.181125 276.187765 
L 283.993125 276.187765 
L 283.993125 284.4 
" clip-path="url(#p4c1163e924)" style="fill: none; stroke: #2ca02c; stroke-width: 1.5"/>
    <path d="M 264.463125 281.132656 
L 264.463125 272.350202 
L 280.087125 272.350202 
L 280.087125 276.187765 
" clip-path="url(#p4c1163e924)" style="fill: none; stroke: #2ca02c; stroke-width: 1.5"/>
    <path d="M 252.745125 284.4 
L 252.745125 267.688356 
L 272.275125 267.688356 
L 272.275125 272.350202 
" clip-path="url(#p4c1163e924)" style="fill: none; stroke: #2ca02c; stroke-width: 1.5"/>
    <path d="M 291.805125 284.4 
L 291.805125 263.849692 
L 299.617125 263.849692 
L 299.617125 284.4 
" clip-path="url(#p4c1163e924)" style="fill: none; stroke: #2ca02c; stroke-width: 1.5"/>
    <path d="M 262.510125 267.688356 
L 262.510125 254.364027 
L 295.711125 254.364027 
L 295.711125 263.849692 
" clip-path="url(#p4c1163e924)" style="fill: none; stroke: #2ca02c; stroke-width: 1.5"/>
    <path d="M 241.027125 257.564859 
L 241.027125 246.699839 
L 279.110625 246.699839 
L 279.110625 254.364027 
" clip-path="url(#p4c1163e924)" style="fill: none; stroke: #2ca02c; stroke-width: 1.5"/>
    <path d="M 307.429125 284.4 
L 307.429125 261.313249 
L 315.241125 261.313249 
L 315.241125 284.4 
" clip-path="url(#p4c1163e924)" style="fill: none; stroke: #2ca02c; stroke-width: 1.5"/>
    <path d="M 338.677125 284.4 
L 338.677125 283.856272 
L 346.489125 283.856272 
L 346.489125 284.4 
" clip-path="url(#p4c1163e924)" style="fill: none; stroke: #2ca02c; stroke-width: 1.5"/>
    <path d="M 354.301125 284.4 
L 354.301125 272.004108 
L 362.113125 272.004108 
L 362.113125 284.4 
" clip-path="url(#p4c1163e924)" style="fill: none; stroke: #2ca02c; stroke-width: 1.5"/>
    <path d="M 342.583125 283.856272 
L 342.583125 269.96627 
L 358.207125 269.96627 
L 358.207125 272.004108 
" clip-path="url(#p4c1163e924)" style="fill: none; stroke: #2ca02c; stroke-width: 1.5"/>
    <path d="M 330.865125 284.4 
L 330.865125 258.056979 
L 350.395125 258.056979 
L 350.395125 269.96627 
" clip-path="url(#p4c1163e924)" style="fill: none; stroke: #2ca02c; stroke-width: 1.5"/>
    <path d="M 323.053125 284.4 
L 323.053125 246.638604 
L 340.630125 246.638604 
L 340.630125 258.056979 
" clip-path="url(#p4c1163e924)" style="fill: none; stroke: #2ca02c; stroke-width: 1.5"/>
    <path d="M 311.335125 261.313249 
L 311.335125 237.785126 
L 331.841625 237.785126 
L 331.841625 246.638604 
" clip-path="url(#p4c1163e924)" style="fill: none; stroke: #2ca02c; stroke-width: 1.5"/>
    <path d="M 260.068875 246.699839 
L 260.068875 220.886484 
L 321.588375 220.886484 
L 321.588375 237.785126 
" clip-path="url(#p4c1163e924)" style="fill: none; stroke: #2ca02c; stroke-width: 1.5"/>
    <path d="M 385.549125 284.4 
L 385.549125 273.062701 
L 393.361125 273.062701 
L 393.361125 284.4 
" clip-path="url(#p4c1163e924)" style="fill: none; stroke: #2ca02c; stroke-width: 1.5"/>
    <path d="M 377.737125 284.4 
L 377.737125 250.944501 
L 389.455125 250.944501 
L 389.455125 273.062701 
" clip-path="url(#p4c1163e924)" style="fill: none; stroke: #2ca02c; stroke-width: 1.5"/>
    <path d="M 369.925125 284.4 
L 369.925125 231.172008 
L 383.596125 231.172008 
L 383.596125 250.944501 
" clip-path="url(#p4c1163e924)" style="fill: none; stroke: #2ca02c; stroke-width: 1.5"/>
    <path d="M 408.985125 284.4 
L 408.985125 250.776504 
L 416.797125 250.776504 
L 416.797125 284.4 
" clip-path="url(#p4c1163e924)" style="fill: none; stroke: #2ca02c; stroke-width: 1.5"/>
    <path d="M 401.173125 284.4 
L 401.173125 213.400248 
L 412.891125 213.400248 
L 412.891125 250.776504 
" clip-path="url(#p4c1163e924)" style="fill: none; stroke: #2ca02c; stroke-width: 1.5"/>
    <path d="M 376.760625 231.172008 
L 376.760625 187.339072 
L 407.032125 187.339072 
L 407.032125 213.400248 
" clip-path="url(#p4c1163e924)" style="fill: none; stroke: #2ca02c; stroke-width: 1.5"/>
    <path d="M 290.828625 220.886484 
L 290.828625 145.334124 
L 391.896375 145.334124 
L 391.896375 187.339072 
" clip-path="url(#p4c1163e924)" style="fill: none; stroke: #2ca02c; stroke-width: 1.5"/>
    <path d="M 229.309125 284.4 
L 229.309125 58.327578 
L 341.3625 58.327578 
L 341.3625 145.334124 
" clip-path="url(#p4c1163e924)" style="fill: none; stroke: #2ca02c; stroke-width: 1.5"/>
   </g>
   <g id="LineCollection_3">
    <path d="M 61.625766 64.713888 
L 61.625766 20.4 
L 285.335813 20.4 
L 285.335813 58.327578 
" clip-path="url(#p4c1163e924)" style="fill: none; stroke: #1f77b4; stroke-width: 1.5"/>
   </g>
   <g id="patch_3">
    <path d="M 30.103125 284.4 
L 30.103125 7.2 
" style="fill: none; stroke: #000000; stroke-width: 0.8; stroke-linejoin: miter; stroke-linecap: square"/>
   </g>
   <g id="patch_4">
    <path d="M 420.703125 284.4 
L 420.703125 7.2 
" style="fill: none; stroke: #000000; stroke-width: 0.8; stroke-linejoin: miter; stroke-linecap: square"/>
   </g>
   <g id="patch_5">
    <path d="M 30.103125 284.4 
L 420.703125 284.4 
" style="fill: none; stroke: #000000; stroke-width: 0.8; stroke-linejoin: miter; stroke-linecap: square"/>
   </g>
   <g id="patch_6">
    <path d="M 30.103125 7.2 
L 420.703125 7.2 
" style="fill: none; stroke: #000000; stroke-width: 0.8; stroke-linejoin: miter; stroke-linecap: square"/>
   </g>
  </g>
 </g>
 <defs>
  <clipPath id="p4c1163e924">
   <rect x="30.103125" y="7.2" width="390.6" height="277.2"/>
  </clipPath>
 </defs>
</svg>
