<?xml version="1.0" encoding="utf-8" standalone="no"?>
<!DOCTYPE svg PUBLIC "-//W3C//DTD SVG 1.1//EN"
  "http://www.w3.org/Graphics/SVG/1.1/DTD/svg11.dtd">
<svg xmlns:xlink="http://www.w3.org/1999/xlink" width="427.903125pt" height="308.78pt" viewBox="0 0 427.903125 308.78" xmlns="http://www.w3.org/2000/svg" version="1.1">
 <metadata>
  <rdf:RDF xmlns:dc="http://purl.org/dc/elements/1.1/" xmlns:cc="http://creativecommons.org/ns#" xmlns:rdf="http://www.w3.org/1999/02/22-rdf-syntax-ns#">
   <cc:Work>
    <dc:type rdf:resource="http://purl.org/dc/dcmitype/StillImage"/>
    <dc:date>2025-03-25T15:53:40.725805</dc:date>
    <dc:format>image/svg+xml</dc:format>
    <dc:creator>
     <cc:Agent>
      <dc:title>Matplotlib v3.10.0, https://matplotlib.org/</dc:title>
     </cc:Agent>
    </dc:creator>
   </cc:Work>
  </rdf:RDF>
 </metadata>
 <defs>
  <style type="text/css">*{stroke-linejoin: round; stroke-linecap: butt}</style>
 </defs>
 <g id="figure_1">
  <g id="patch_1">
   <path d="M 0 308.78 
L 427.903125 308.78 
L 427.903125 0 
L 0 0 
z
" style="fill: #ffffff"/>
  </g>
  <g id="axes_1">
   <g id="patch_2">
    <path d="M 30.103125 284.4 
L 420.703125 284.4 
L 420.703125 7.2 
L 30.103125 7.2 
z
" style="fill: #ffffff"/>
   </g>
   <g id="matplotlib.axis_1">
    <g id="xtick_1">
     <g id="text_1">
      <!-- 45 -->
      <g transform="translate(36.216625 301.58) rotate(-90) scale(0.08 -0.08)">
       <defs>
        <path id="DejaVuSans-34" d="M 2419 4116 
L 825 1625 
L 2419 1625 
L 2419 4116 
z
M 2253 4666 
L 3047 4666 
L 3047 1625 
L 3713 1625 
L 3713 1100 
L 3047 1100 
L 3047 0 
L 2419 0 
L 2419 1100 
L 313 1100 
L 313 1709 
L 2253 4666 
z
" transform="scale(0.015625)"/>
        <path id="DejaVuSans-35" d="M 691 4666 
L 3169 4666 
L 3169 4134 
L 1269 4134 
L 1269 2991 
Q 1406 3038 1543 3061 
Q 1681 3084 1819 3084 
Q 2600 3084 3056 2656 
Q 3513 2228 3513 1497 
Q 3513 744 3044 326 
Q 2575 -91 1722 -91 
Q 1428 -91 1123 -41 
Q 819 9 494 109 
L 494 744 
Q 775 591 1075 516 
Q 1375 441 1709 441 
Q 2250 441 2565 725 
Q 2881 1009 2881 1497 
Q 2881 1984 2565 2268 
Q 2250 2553 1709 2553 
Q 1456 2553 1204 2497 
Q 953 2441 691 2322 
L 691 4666 
z
" transform="scale(0.015625)"/>
       </defs>
       <use xlink:href="#DejaVuSans-34"/>
       <use xlink:href="#DejaVuSans-35" transform="translate(63.623047 0)"/>
      </g>
     </g>
    </g>
    <g id="xtick_2">
     <g id="text_2">
      <!-- 25 -->
      <g transform="translate(44.028625 301.58) rotate(-90) scale(0.08 -0.08)">
       <defs>
        <path id="DejaVuSans-32" d="M 1228 531 
L 3431 531 
L 3431 0 
L 469 0 
L 469 531 
Q 828 903 1448 1529 
Q 2069 2156 2228 2338 
Q 2531 2678 2651 2914 
Q 2772 3150 2772 3378 
Q 2772 3750 2511 3984 
Q 2250 4219 1831 4219 
Q 1534 4219 1204 4116 
Q 875 4013 500 3803 
L 500 4441 
Q 881 4594 1212 4672 
Q 1544 4750 1819 4750 
Q 2544 4750 2975 4387 
Q 3406 4025 3406 3419 
Q 3406 3131 3298 2873 
Q 3191 2616 2906 2266 
Q 2828 2175 2409 1742 
Q 1991 1309 1228 531 
z
" transform="scale(0.015625)"/>
       </defs>
       <use xlink:href="#DejaVuSans-32"/>
       <use xlink:href="#DejaVuSans-35" transform="translate(63.623047 0)"/>
      </g>
     </g>
    </g>
    <g id="xtick_3">
     <g id="text_3">
      <!-- 40 -->
      <g transform="translate(51.840625 301.58) rotate(-90) scale(0.08 -0.08)">
       <defs>
        <path id="DejaVuSans-30" d="M 2034 4250 
Q 1547 4250 1301 3770 
Q 1056 3291 1056 2328 
Q 1056 1369 1301 889 
Q 1547 409 2034 409 
Q 2525 409 2770 889 
Q 3016 1369 3016 2328 
Q 3016 3291 2770 3770 
Q 2525 4250 2034 4250 
z
M 2034 4750 
Q 2819 4750 3233 4129 
Q 3647 3509 3647 2328 
Q 3647 1150 3233 529 
Q 2819 -91 2034 -91 
Q 1250 -91 836 529 
Q 422 1150 422 2328 
Q 422 3509 836 4129 
Q 1250 4750 2034 4750 
z
" transform="scale(0.015625)"/>
       </defs>
       <use xlink:href="#DejaVuSans-34"/>
       <use xlink:href="#DejaVuSans-30" transform="translate(63.623047 0)"/>
      </g>
     </g>
    </g>
    <g id="xtick_4">
     <g id="text_4">
      <!-- 38 -->
      <g transform="translate(59.652625 301.58) rotate(-90) scale(0.08 -0.08)">
       <defs>
        <path id="DejaVuSans-33" d="M 2597 2516 
Q 3050 2419 3304 2112 
Q 3559 1806 3559 1356 
Q 3559 666 3084 287 
Q 2609 -91 1734 -91 
Q 1441 -91 1130 -33 
Q 819 25 488 141 
L 488 750 
Q 750 597 1062 519 
Q 1375 441 1716 441 
Q 2309 441 2620 675 
Q 2931 909 2931 1356 
Q 2931 1769 2642 2001 
Q 2353 2234 1838 2234 
L 1294 2234 
L 1294 2753 
L 1863 2753 
Q 2328 2753 2575 2939 
Q 2822 3125 2822 3475 
Q 2822 3834 2567 4026 
Q 2313 4219 1838 4219 
Q 1578 4219 1281 4162 
Q 984 4106 628 3988 
L 628 4550 
Q 988 4650 1302 4700 
Q 1616 4750 1894 4750 
Q 2613 4750 3031 4423 
Q 3450 4097 3450 3541 
Q 3450 3153 3228 2886 
Q 3006 2619 2597 2516 
z
" transform="scale(0.015625)"/>
        <path id="DejaVuSans-38" d="M 2034 2216 
Q 1584 2216 1326 1975 
Q 1069 1734 1069 1313 
Q 1069 891 1326 650 
Q 1584 409 2034 409 
Q 2484 409 2743 651 
Q 3003 894 3003 1313 
Q 3003 1734 2745 1975 
Q 2488 2216 2034 2216 
z
M 1403 2484 
Q 997 2584 770 2862 
Q 544 3141 544 3541 
Q 544 4100 942 4425 
Q 1341 4750 2034 4750 
Q 2731 4750 3128 4425 
Q 3525 4100 3525 3541 
Q 3525 3141 3298 2862 
Q 3072 2584 2669 2484 
Q 3125 2378 3379 2068 
Q 3634 1759 3634 1313 
Q 3634 634 3220 271 
Q 2806 -91 2034 -91 
Q 1263 -91 848 271 
Q 434 634 434 1313 
Q 434 1759 690 2068 
Q 947 2378 1403 2484 
z
M 1172 3481 
Q 1172 3119 1398 2916 
Q 1625 2713 2034 2713 
Q 2441 2713 2670 2916 
Q 2900 3119 2900 3481 
Q 2900 3844 2670 4047 
Q 2441 4250 2034 4250 
Q 1625 4250 1398 4047 
Q 1172 3844 1172 3481 
z
" transform="scale(0.015625)"/>
       </defs>
       <use xlink:href="#DejaVuSans-33"/>
       <use xlink:href="#DejaVuSans-38" transform="translate(63.623047 0)"/>
      </g>
     </g>
    </g>
    <g id="xtick_5">
     <g id="text_5">
      <!-- 41 -->
      <g transform="translate(67.464625 301.58) rotate(-90) scale(0.08 -0.08)">
       <defs>
        <path id="DejaVuSans-31" d="M 794 531 
L 1825 531 
L 1825 4091 
L 703 3866 
L 703 4441 
L 1819 4666 
L 2450 4666 
L 2450 531 
L 3481 531 
L 3481 0 
L 794 0 
L 794 531 
z
" transform="scale(0.015625)"/>
       </defs>
       <use xlink:href="#DejaVuSans-34"/>
       <use xlink:href="#DejaVuSans-31" transform="translate(63.623047 0)"/>
      </g>
     </g>
    </g>
    <g id="xtick_6">
     <g id="text_6">
      <!-- 49 -->
      <g transform="translate(75.276625 301.58) rotate(-90) scale(0.08 -0.08)">
       <defs>
        <path id="DejaVuSans-39" d="M 703 97 
L 703 672 
Q 941 559 1184 500 
Q 1428 441 1663 441 
Q 2288 441 2617 861 
Q 2947 1281 2994 2138 
Q 2813 1869 2534 1725 
Q 2256 1581 1919 1581 
Q 1219 1581 811 2004 
Q 403 2428 403 3163 
Q 403 3881 828 4315 
Q 1253 4750 1959 4750 
Q 2769 4750 3195 4129 
Q 3622 3509 3622 2328 
Q 3622 1225 3098 567 
Q 2575 -91 1691 -91 
Q 1453 -91 1209 -44 
Q 966 3 703 97 
z
M 1959 2075 
Q 2384 2075 2632 2365 
Q 2881 2656 2881 3163 
Q 2881 3666 2632 3958 
Q 2384 4250 1959 4250 
Q 1534 4250 1286 3958 
Q 1038 3666 1038 3163 
Q 1038 2656 1286 2365 
Q 1534 2075 1959 2075 
z
" transform="scale(0.015625)"/>
       </defs>
       <use xlink:href="#DejaVuSans-34"/>
       <use xlink:href="#DejaVuSans-39" transform="translate(63.623047 0)"/>
      </g>
     </g>
    </g>
    <g id="xtick_7">
     <g id="text_7">
      <!-- 28 -->
      <g transform="translate(83.088625 301.58) rotate(-90) scale(0.08 -0.08)">
       <use xlink:href="#DejaVuSans-32"/>
       <use xlink:href="#DejaVuSans-38" transform="translate(63.623047 0)"/>
      </g>
     </g>
    </g>
    <g id="xtick_8">
     <g id="text_8">
      <!-- 29 -->
      <g transform="translate(90.900625 301.58) rotate(-90) scale(0.08 -0.08)">
       <use xlink:href="#DejaVuSans-32"/>
       <use xlink:href="#DejaVuSans-39" transform="translate(63.623047 0)"/>
      </g>
     </g>
    </g>
    <g id="xtick_9">
     <g id="text_9">
      <!-- 27 -->
      <g transform="translate(98.712625 301.58) rotate(-90) scale(0.08 -0.08)">
       <defs>
        <path id="DejaVuSans-37" d="M 525 4666 
L 3525 4666 
L 3525 4397 
L 1831 0 
L 1172 0 
L 2766 4134 
L 525 4134 
L 525 4666 
z
" transform="scale(0.015625)"/>
       </defs>
       <use xlink:href="#DejaVuSans-32"/>
       <use xlink:href="#DejaVuSans-37" transform="translate(63.623047 0)"/>
      </g>
     </g>
    </g>
    <g id="xtick_10">
     <g id="text_10">
      <!-- 36 -->
      <g transform="translate(106.524625 301.58) rotate(-90) scale(0.08 -0.08)">
       <defs>
        <path id="DejaVuSans-36" d="M 2113 2584 
Q 1688 2584 1439 2293 
Q 1191 2003 1191 1497 
Q 1191 994 1439 701 
Q 1688 409 2113 409 
Q 2538 409 2786 701 
Q 3034 994 3034 1497 
Q 3034 2003 2786 2293 
Q 2538 2584 2113 2584 
z
M 3366 4563 
L 3366 3988 
Q 3128 4100 2886 4159 
Q 2644 4219 2406 4219 
Q 1781 4219 1451 3797 
Q 1122 3375 1075 2522 
Q 1259 2794 1537 2939 
Q 1816 3084 2150 3084 
Q 2853 3084 3261 2657 
Q 3669 2231 3669 1497 
Q 3669 778 3244 343 
Q 2819 -91 2113 -91 
Q 1303 -91 875 529 
Q 447 1150 447 2328 
Q 447 3434 972 4092 
Q 1497 4750 2381 4750 
Q 2619 4750 2861 4703 
Q 3103 4656 3366 4563 
z
" transform="scale(0.015625)"/>
       </defs>
       <use xlink:href="#DejaVuSans-33"/>
       <use xlink:href="#DejaVuSans-36" transform="translate(63.623047 0)"/>
      </g>
     </g>
    </g>
    <g id="xtick_11">
     <g id="text_11">
      <!-- 37 -->
      <g transform="translate(114.336625 301.58) rotate(-90) scale(0.08 -0.08)">
       <use xlink:href="#DejaVuSans-33"/>
       <use xlink:href="#DejaVuSans-37" transform="translate(63.623047 0)"/>
      </g>
     </g>
    </g>
    <g id="xtick_12">
     <g id="text_12">
      <!-- 47 -->
      <g transform="translate(122.148625 301.58) rotate(-90) scale(0.08 -0.08)">
       <use xlink:href="#DejaVuSans-34"/>
       <use xlink:href="#DejaVuSans-37" transform="translate(63.623047 0)"/>
      </g>
     </g>
    </g>
    <g id="xtick_13">
     <g id="text_13">
      <!-- 48 -->
      <g transform="translate(129.960625 301.58) rotate(-90) scale(0.08 -0.08)">
       <use xlink:href="#DejaVuSans-34"/>
       <use xlink:href="#DejaVuSans-38" transform="translate(63.623047 0)"/>
      </g>
     </g>
    </g>
    <g id="xtick_14">
     <g id="text_14">
      <!-- 32 -->
      <g transform="translate(137.772625 301.58) rotate(-90) scale(0.08 -0.08)">
       <use xlink:href="#DejaVuSans-33"/>
       <use xlink:href="#DejaVuSans-32" transform="translate(63.623047 0)"/>
      </g>
     </g>
    </g>
    <g id="xtick_15">
     <g id="text_15">
      <!-- 44 -->
      <g transform="translate(145.584625 301.58) rotate(-90) scale(0.08 -0.08)">
       <use xlink:href="#DejaVuSans-34"/>
       <use xlink:href="#DejaVuSans-34" transform="translate(63.623047 0)"/>
      </g>
     </g>
    </g>
    <g id="xtick_16">
     <g id="text_16">
      <!-- 30 -->
      <g transform="translate(153.396625 301.58) rotate(-90) scale(0.08 -0.08)">
       <use xlink:href="#DejaVuSans-33"/>
       <use xlink:href="#DejaVuSans-30" transform="translate(63.623047 0)"/>
      </g>
     </g>
    </g>
    <g id="xtick_17">
     <g id="text_17">
      <!-- 35 -->
      <g transform="translate(161.208625 301.58) rotate(-90) scale(0.08 -0.08)">
       <use xlink:href="#DejaVuSans-33"/>
       <use xlink:href="#DejaVuSans-35" transform="translate(63.623047 0)"/>
      </g>
     </g>
    </g>
    <g id="xtick_18">
     <g id="text_18">
      <!-- 42 -->
      <g transform="translate(169.020625 301.58) rotate(-90) scale(0.08 -0.08)">
       <use xlink:href="#DejaVuSans-34"/>
       <use xlink:href="#DejaVuSans-32" transform="translate(63.623047 0)"/>
      </g>
     </g>
    </g>
    <g id="xtick_19">
     <g id="text_19">
      <!-- 26 -->
      <g transform="translate(176.832625 301.58) rotate(-90) scale(0.08 -0.08)">
       <use xlink:href="#DejaVuSans-32"/>
       <use xlink:href="#DejaVuSans-36" transform="translate(63.623047 0)"/>
      </g>
     </g>
    </g>
    <g id="xtick_20">
     <g id="text_20">
      <!-- 39 -->
      <g transform="translate(184.644625 301.58) rotate(-90) scale(0.08 -0.08)">
       <use xlink:href="#DejaVuSans-33"/>
       <use xlink:href="#DejaVuSans-39" transform="translate(63.623047 0)"/>
      </g>
     </g>
    </g>
    <g id="xtick_21">
     <g id="text_21">
      <!-- 33 -->
      <g transform="translate(192.456625 301.58) rotate(-90) scale(0.08 -0.08)">
       <use xlink:href="#DejaVuSans-33"/>
       <use xlink:href="#DejaVuSans-33" transform="translate(63.623047 0)"/>
      </g>
     </g>
    </g>
    <g id="xtick_22">
     <g id="text_22">
      <!-- 31 -->
      <g transform="translate(200.268625 301.58) rotate(-90) scale(0.08 -0.08)">
       <use xlink:href="#DejaVuSans-33"/>
       <use xlink:href="#DejaVuSans-31" transform="translate(63.623047 0)"/>
      </g>
     </g>
    </g>
    <g id="xtick_23">
     <g id="text_23">
      <!-- 34 -->
      <g transform="translate(208.080625 301.58) rotate(-90) scale(0.08 -0.08)">
       <use xlink:href="#DejaVuSans-33"/>
       <use xlink:href="#DejaVuSans-34" transform="translate(63.623047 0)"/>
      </g>
     </g>
    </g>
    <g id="xtick_24">
     <g id="text_24">
      <!-- 43 -->
      <g transform="translate(215.892625 301.58) rotate(-90) scale(0.08 -0.08)">
       <use xlink:href="#DejaVuSans-34"/>
       <use xlink:href="#DejaVuSans-33" transform="translate(63.623047 0)"/>
      </g>
     </g>
    </g>
    <g id="xtick_25">
     <g id="text_25">
      <!-- 6 -->
      <g transform="translate(223.704625 296.49) rotate(-90) scale(0.08 -0.08)">
       <use xlink:href="#DejaVuSans-36"/>
      </g>
     </g>
    </g>
    <g id="xtick_26">
     <g id="text_26">
      <!-- 46 -->
      <g transform="translate(231.516625 301.58) rotate(-90) scale(0.08 -0.08)">
       <use xlink:href="#DejaVuSans-34"/>
       <use xlink:href="#DejaVuSans-36" transform="translate(63.623047 0)"/>
      </g>
     </g>
    </g>
    <g id="xtick_27">
     <g id="text_27">
      <!-- 8 -->
      <g transform="translate(239.328625 296.49) rotate(-90) scale(0.08 -0.08)">
       <use xlink:href="#DejaVuSans-38"/>
      </g>
     </g>
    </g>
    <g id="xtick_28">
     <g id="text_28">
      <!-- 18 -->
      <g transform="translate(247.140625 301.58) rotate(-90) scale(0.08 -0.08)">
       <use xlink:href="#DejaVuSans-31"/>
       <use xlink:href="#DejaVuSans-38" transform="translate(63.623047 0)"/>
      </g>
     </g>
    </g>
    <g id="xtick_29">
     <g id="text_29">
      <!-- 5 -->
      <g transform="translate(254.952625 296.49) rotate(-90) scale(0.08 -0.08)">
       <use xlink:href="#DejaVuSans-35"/>
      </g>
     </g>
    </g>
    <g id="xtick_30">
     <g id="text_30">
      <!-- 11 -->
      <g transform="translate(262.764625 301.58) rotate(-90) scale(0.08 -0.08)">
       <use xlink:href="#DejaVuSans-31"/>
       <use xlink:href="#DejaVuSans-31" transform="translate(63.623047 0)"/>
      </g>
     </g>
    </g>
    <g id="xtick_31">
     <g id="text_31">
      <!-- 7 -->
      <g transform="translate(270.576625 296.49) rotate(-90) scale(0.08 -0.08)">
       <use xlink:href="#DejaVuSans-37"/>
      </g>
     </g>
    </g>
    <g id="xtick_32">
     <g id="text_32">
      <!-- 9 -->
      <g transform="translate(278.388625 296.49) rotate(-90) scale(0.08 -0.08)">
       <use xlink:href="#DejaVuSans-39"/>
      </g>
     </g>
    </g>
    <g id="xtick_33">
     <g id="text_33">
      <!-- 1 -->
      <g transform="translate(286.200625 296.49) rotate(-90) scale(0.08 -0.08)">
       <use xlink:href="#DejaVuSans-31"/>
      </g>
     </g>
    </g>
    <g id="xtick_34">
     <g id="text_34">
      <!-- 17 -->
      <g transform="translate(294.012625 301.58) rotate(-90) scale(0.08 -0.08)">
       <use xlink:href="#DejaVuSans-31"/>
       <use xlink:href="#DejaVuSans-37" transform="translate(63.623047 0)"/>
      </g>
     </g>
    </g>
    <g id="xtick_35">
     <g id="text_35">
      <!-- 10 -->
      <g transform="translate(301.824625 301.58) rotate(-90) scale(0.08 -0.08)">
       <use xlink:href="#DejaVuSans-31"/>
       <use xlink:href="#DejaVuSans-30" transform="translate(63.623047 0)"/>
      </g>
     </g>
    </g>
    <g id="xtick_36">
     <g id="text_36">
      <!-- 20 -->
      <g transform="translate(309.636625 301.58) rotate(-90) scale(0.08 -0.08)">
       <use xlink:href="#DejaVuSans-32"/>
       <use xlink:href="#DejaVuSans-30" transform="translate(63.623047 0)"/>
      </g>
     </g>
    </g>
    <g id="xtick_37">
     <g id="text_37">
      <!-- 16 -->
      <g transform="translate(317.448625 301.58) rotate(-90) scale(0.08 -0.08)">
       <use xlink:href="#DejaVuSans-31"/>
       <use xlink:href="#DejaVuSans-36" transform="translate(63.623047 0)"/>
      </g>
     </g>
    </g>
    <g id="xtick_38">
     <g id="text_38">
      <!-- 2 -->
      <g transform="translate(325.260625 296.49) rotate(-90) scale(0.08 -0.08)">
       <use xlink:href="#DejaVuSans-32"/>
      </g>
     </g>
    </g>
    <g id="xtick_39">
     <g id="text_39">
      <!-- 12 -->
      <g transform="translate(333.072625 301.58) rotate(-90) scale(0.08 -0.08)">
       <use xlink:href="#DejaVuSans-31"/>
       <use xlink:href="#DejaVuSans-32" transform="translate(63.623047 0)"/>
      </g>
     </g>
    </g>
    <g id="xtick_40">
     <g id="text_40">
      <!-- 15 -->
      <g transform="translate(340.884625 301.58) rotate(-90) scale(0.08 -0.08)">
       <use xlink:href="#DejaVuSans-31"/>
       <use xlink:href="#DejaVuSans-35" transform="translate(63.623047 0)"/>
      </g>
     </g>
    </g>
    <g id="xtick_41">
     <g id="text_41">
      <!-- 13 -->
      <g transform="translate(348.696625 301.58) rotate(-90) scale(0.08 -0.08)">
       <use xlink:href="#DejaVuSans-31"/>
       <use xlink:href="#DejaVuSans-33" transform="translate(63.623047 0)"/>
      </g>
     </g>
    </g>
    <g id="xtick_42">
     <g id="text_42">
      <!-- 23 -->
      <g transform="translate(356.508625 301.58) rotate(-90) scale(0.08 -0.08)">
       <use xlink:href="#DejaVuSans-32"/>
       <use xlink:href="#DejaVuSans-33" transform="translate(63.623047 0)"/>
      </g>
     </g>
    </g>
    <g id="xtick_43">
     <g id="text_43">
      <!-- 21 -->
      <g transform="translate(364.320625 301.58) rotate(-90) scale(0.08 -0.08)">
       <use xlink:href="#DejaVuSans-32"/>
       <use xlink:href="#DejaVuSans-31" transform="translate(63.623047 0)"/>
      </g>
     </g>
    </g>
    <g id="xtick_44">
     <g id="text_44">
      <!-- 22 -->
      <g transform="translate(372.132625 301.58) rotate(-90) scale(0.08 -0.08)">
       <use xlink:href="#DejaVuSans-32"/>
       <use xlink:href="#DejaVuSans-32" transform="translate(63.623047 0)"/>
      </g>
     </g>
    </g>
    <g id="xtick_45">
     <g id="text_45">
      <!-- 4 -->
      <g transform="translate(379.944625 296.49) rotate(-90) scale(0.08 -0.08)">
       <use xlink:href="#DejaVuSans-34"/>
      </g>
     </g>
    </g>
    <g id="xtick_46">
     <g id="text_46">
      <!-- 19 -->
      <g transform="translate(387.756625 301.58) rotate(-90) scale(0.08 -0.08)">
       <use xlink:href="#DejaVuSans-31"/>
       <use xlink:href="#DejaVuSans-39" transform="translate(63.623047 0)"/>
      </g>
     </g>
    </g>
    <g id="xtick_47">
     <g id="text_47">
      <!-- 3 -->
      <g transform="translate(395.568625 296.49) rotate(-90) scale(0.08 -0.08)">
       <use xlink:href="#DejaVuSans-33"/>
      </g>
     </g>
    </g>
    <g id="xtick_48">
     <g id="text_48">
      <!-- 24 -->
      <g transform="translate(403.380625 301.58) rotate(-90) scale(0.08 -0.08)">
       <use xlink:href="#DejaVuSans-32"/>
       <use xlink:href="#DejaVuSans-34" transform="translate(63.623047 0)"/>
      </g>
     </g>
    </g>
    <g id="xtick_49">
     <g id="text_49">
      <!-- 0 -->
      <g transform="translate(411.192625 296.49) rotate(-90) scale(0.08 -0.08)">
       <use xlink:href="#DejaVuSans-30"/>
      </g>
     </g>
    </g>
    <g id="xtick_50">
     <g id="text_50">
      <!-- 14 -->
      <g transform="translate(419.004625 301.58) rotate(-90) scale(0.08 -0.08)">
       <use xlink:href="#DejaVuSans-31"/>
       <use xlink:href="#DejaVuSans-34" transform="translate(63.623047 0)"/>
      </g>
     </g>
    </g>
   </g>
   <g id="matplotlib.axis_2">
    <g id="ytick_1">
     <g id="line2d_1">
      <defs>
       <path id="mcd85d790d1" d="M 0 0 
L -3.5 0 
" style="stroke: #000000; stroke-width: 0.8"/>
      </defs>
      <g>
       <use xlink:href="#mcd85d790d1" x="30.103125" y="284.4" style="stroke: #000000; stroke-width: 0.8"/>
      </g>
     </g>
     <g id="text_51">
      <!-- 0.0 -->
      <g transform="translate(7.2 288.199219) scale(0.1 -0.1)">
       <defs>
        <path id="DejaVuSans-2e" d="M 684 794 
L 1344 794 
L 1344 0 
L 684 0 
L 684 794 
z
" transform="scale(0.015625)"/>
       </defs>
       <use xlink:href="#DejaVuSans-30"/>
       <use xlink:href="#DejaVuSans-2e" transform="translate(63.623047 0)"/>
       <use xlink:href="#DejaVuSans-30" transform="translate(95.410156 0)"/>
      </g>
     </g>
    </g>
    <g id="ytick_2">
     <g id="line2d_2">
      <g>
       <use xlink:href="#mcd85d790d1" x="30.103125" y="242.540002" style="stroke: #000000; stroke-width: 0.8"/>
      </g>
     </g>
     <g id="text_52">
      <!-- 0.5 -->
      <g transform="translate(7.2 246.33922) scale(0.1 -0.1)">
       <use xlink:href="#DejaVuSans-30"/>
       <use xlink:href="#DejaVuSans-2e" transform="translate(63.623047 0)"/>
       <use xlink:href="#DejaVuSans-35" transform="translate(95.410156 0)"/>
      </g>
     </g>
    </g>
    <g id="ytick_3">
     <g id="line2d_3">
      <g>
       <use xlink:href="#mcd85d790d1" x="30.103125" y="200.680003" style="stroke: #000000; stroke-width: 0.8"/>
      </g>
     </g>
     <g id="text_53">
      <!-- 1.0 -->
      <g transform="translate(7.2 204.479222) scale(0.1 -0.1)">
       <use xlink:href="#DejaVuSans-31"/>
       <use xlink:href="#DejaVuSans-2e" transform="translate(63.623047 0)"/>
       <use xlink:href="#DejaVuSans-30" transform="translate(95.410156 0)"/>
      </g>
     </g>
    </g>
    <g id="ytick_4">
     <g id="line2d_4">
      <g>
       <use xlink:href="#mcd85d790d1" x="30.103125" y="158.820005" style="stroke: #000000; stroke-width: 0.8"/>
      </g>
     </g>
     <g id="text_54">
      <!-- 1.5 -->
      <g transform="translate(7.2 162.619223) scale(0.1 -0.1)">
       <use xlink:href="#DejaVuSans-31"/>
       <use xlink:href="#DejaVuSans-2e" transform="translate(63.623047 0)"/>
       <use xlink:href="#DejaVuSans-35" transform="translate(95.410156 0)"/>
      </g>
     </g>
    </g>
    <g id="ytick_5">
     <g id="line2d_5">
      <g>
       <use xlink:href="#mcd85d790d1" x="30.103125" y="116.960006" style="stroke: #000000; stroke-width: 0.8"/>
      </g>
     </g>
     <g id="text_55">
      <!-- 2.0 -->
      <g transform="translate(7.2 120.759225) scale(0.1 -0.1)">
       <use xlink:href="#DejaVuSans-32"/>
       <use xlink:href="#DejaVuSans-2e" transform="translate(63.623047 0)"/>
       <use xlink:href="#DejaVuSans-30" transform="translate(95.410156 0)"/>
      </g>
     </g>
    </g>
    <g id="ytick_6">
     <g id="line2d_6">
      <g>
       <use xlink:href="#mcd85d790d1" x="30.103125" y="75.100008" style="stroke: #000000; stroke-width: 0.8"/>
      </g>
     </g>
     <g id="text_56">
      <!-- 2.5 -->
      <g transform="translate(7.2 78.899226) scale(0.1 -0.1)">
       <use xlink:href="#DejaVuSans-32"/>
       <use xlink:href="#DejaVuSans-2e" transform="translate(63.623047 0)"/>
       <use xlink:href="#DejaVuSans-35" transform="translate(95.410156 0)"/>
      </g>
     </g>
    </g>
    <g id="ytick_7">
     <g id="line2d_7">
      <g>
       <use xlink:href="#mcd85d790d1" x="30.103125" y="33.240009" style="stroke: #000000; stroke-width: 0.8"/>
      </g>
     </g>
     <g id="text_57">
      <!-- 3.0 -->
      <g transform="translate(7.2 37.039228) scale(0.1 -0.1)">
       <use xlink:href="#DejaVuSans-33"/>
       <use xlink:href="#DejaVuSans-2e" transform="translate(63.623047 0)"/>
       <use xlink:href="#DejaVuSans-30" transform="translate(95.410156 0)"/>
      </g>
     </g>
    </g>
   </g>
   <g id="LineCollection_1">
    <path d="M 41.821125 284.4 
L 41.821125 253.881946 
L 49.633125 253.881946 
L 49.633125 284.4 
" clip-path="url(#p970b947994)" style="fill: none; stroke: #ff7f0e; stroke-width: 1.5"/>
    <path d="M 65.257125 284.4 
L 65.257125 280.843447 
L 73.069125 280.843447 
L 73.069125 284.4 
" clip-path="url(#p970b947994)" style="fill: none; stroke: #ff7f0e; stroke-width: 1.5"/>
    <path d="M 80.881125 284.4 
L 80.881125 277.658682 
L 88.693125 277.658682 
L 88.693125 284.4 
" clip-path="url(#p970b947994)" style="fill: none; stroke: #ff7f0e; stroke-width: 1.5"/>
    <path d="M 69.163125 280.843447 
L 69.163125 271.86339 
L 84.787125 271.86339 
L 84.787125 277.658682 
" clip-path="url(#p970b947994)" style="fill: none; stroke: #ff7f0e; stroke-width: 1.5"/>
    <path d="M 57.445125 284.4 
L 57.445125 267.096423 
L 76.975125 267.096423 
L 76.975125 271.86339 
" clip-path="url(#p970b947994)" style="fill: none; stroke: #ff7f0e; stroke-width: 1.5"/>
    <path d="M 96.505125 284.4 
L 96.505125 261.029222 
L 104.317125 261.029222 
L 104.317125 284.4 
" clip-path="url(#p970b947994)" style="fill: none; stroke: #ff7f0e; stroke-width: 1.5"/>
    <path d="M 67.210125 267.096423 
L 67.210125 253.093578 
L 100.411125 253.093578 
L 100.411125 261.029222 
" clip-path="url(#p970b947994)" style="fill: none; stroke: #ff7f0e; stroke-width: 1.5"/>
    <path d="M 45.727125 253.881946 
L 45.727125 246.681579 
L 83.810625 246.681579 
L 83.810625 253.093578 
" clip-path="url(#p970b947994)" style="fill: none; stroke: #ff7f0e; stroke-width: 1.5"/>
    <path d="M 112.129125 284.4 
L 112.129125 259.644622 
L 119.941125 259.644622 
L 119.941125 284.4 
" clip-path="url(#p970b947994)" style="fill: none; stroke: #ff7f0e; stroke-width: 1.5"/>
    <path d="M 159.001125 284.4 
L 159.001125 283.878089 
L 166.813125 283.878089 
L 166.813125 284.4 
" clip-path="url(#p970b947994)" style="fill: none; stroke: #ff7f0e; stroke-width: 1.5"/>
    <path d="M 151.189125 284.4 
L 151.189125 271.713721 
L 162.907125 271.713721 
L 162.907125 283.878089 
" clip-path="url(#p970b947994)" style="fill: none; stroke: #ff7f0e; stroke-width: 1.5"/>
    <path d="M 143.377125 284.4 
L 143.377125 268.440374 
L 157.048125 268.440374 
L 157.048125 271.713721 
" clip-path="url(#p970b947994)" style="fill: none; stroke: #ff7f0e; stroke-width: 1.5"/>
    <path d="M 135.565125 284.4 
L 135.565125 259.915944 
L 150.212625 259.915944 
L 150.212625 268.440374 
" clip-path="url(#p970b947994)" style="fill: none; stroke: #ff7f0e; stroke-width: 1.5"/>
    <path d="M 127.753125 284.4 
L 127.753125 245.076239 
L 142.888875 245.076239 
L 142.888875 259.915944 
" clip-path="url(#p970b947994)" style="fill: none; stroke: #ff7f0e; stroke-width: 1.5"/>
    <path d="M 116.035125 259.644622 
L 116.035125 237.648922 
L 135.321 237.648922 
L 135.321 245.076239 
" clip-path="url(#p970b947994)" style="fill: none; stroke: #ff7f0e; stroke-width: 1.5"/>
    <path d="M 64.768875 246.681579 
L 64.768875 219.867313 
L 125.678063 219.867313 
L 125.678063 237.648922 
" clip-path="url(#p970b947994)" style="fill: none; stroke: #ff7f0e; stroke-width: 1.5"/>
    <path d="M 174.625125 284.4 
L 174.625125 246.253414 
L 182.437125 246.253414 
L 182.437125 284.4 
" clip-path="url(#p970b947994)" style="fill: none; stroke: #ff7f0e; stroke-width: 1.5"/>
    <path d="M 205.873125 284.4 
L 205.873125 271.673697 
L 213.685125 271.673697 
L 213.685125 284.4 
" clip-path="url(#p970b947994)" style="fill: none; stroke: #ff7f0e; stroke-width: 1.5"/>
    <path d="M 198.061125 284.4 
L 198.061125 254.99427 
L 209.779125 254.99427 
L 209.779125 271.673697 
" clip-path="url(#p970b947994)" style="fill: none; stroke: #ff7f0e; stroke-width: 1.5"/>
    <path d="M 190.249125 284.4 
L 190.249125 239.030343 
L 203.920125 239.030343 
L 203.920125 254.99427 
" clip-path="url(#p970b947994)" style="fill: none; stroke: #ff7f0e; stroke-width: 1.5"/>
    <path d="M 178.531125 246.253414 
L 178.531125 205.447452 
L 197.084625 205.447452 
L 197.084625 239.030343 
" clip-path="url(#p970b947994)" style="fill: none; stroke: #ff7f0e; stroke-width: 1.5"/>
    <path d="M 95.223469 219.867313 
L 95.223469 148.691877 
L 187.807875 148.691877 
L 187.807875 205.447452 
" clip-path="url(#p970b947994)" style="fill: none; stroke: #ff7f0e; stroke-width: 1.5"/>
   </g>
   <g id="LineCollection_2">
    <path d="M 221.497125 284.4 
L 221.497125 188.599217 
L 229.309125 188.599217 
L 229.309125 284.4 
" clip-path="url(#p970b947994)" style="fill: none; stroke: #2ca02c; stroke-width: 1.5"/>
   </g>
   <g id="LineCollection_3">
    <path d="M 252.745125 284.4 
L 252.745125 264.639818 
L 260.557125 264.639818 
L 260.557125 284.4 
" clip-path="url(#p970b947994)" style="fill: none; stroke: #d62728; stroke-width: 1.5"/>
    <path d="M 268.369125 284.4 
L 268.369125 274.398691 
L 276.181125 274.398691 
L 276.181125 284.4 
" clip-path="url(#p970b947994)" style="fill: none; stroke: #d62728; stroke-width: 1.5"/>
    <path d="M 283.993125 284.4 
L 283.993125 272.61802 
L 291.805125 272.61802 
L 291.805125 284.4 
" clip-path="url(#p970b947994)" style="fill: none; stroke: #d62728; stroke-width: 1.5"/>
    <path d="M 272.275125 274.398691 
L 272.275125 266.438576 
L 287.899125 266.438576 
L 287.899125 272.61802 
" clip-path="url(#p970b947994)" style="fill: none; stroke: #d62728; stroke-width: 1.5"/>
    <path d="M 299.617125 284.4 
L 299.617125 259.113716 
L 307.429125 259.113716 
L 307.429125 284.4 
" clip-path="url(#p970b947994)" style="fill: none; stroke: #d62728; stroke-width: 1.5"/>
    <path d="M 280.087125 266.438576 
L 280.087125 257.16852 
L 303.523125 257.16852 
L 303.523125 259.113716 
" clip-path="url(#p970b947994)" style="fill: none; stroke: #d62728; stroke-width: 1.5"/>
    <path d="M 256.651125 264.639818 
L 256.651125 244.345041 
L 291.805125 244.345041 
L 291.805125 257.16852 
" clip-path="url(#p970b947994)" style="fill: none; stroke: #d62728; stroke-width: 1.5"/>
    <path d="M 244.933125 284.4 
L 244.933125 234.246663 
L 274.228125 234.246663 
L 274.228125 244.345041 
" clip-path="url(#p970b947994)" style="fill: none; stroke: #d62728; stroke-width: 1.5"/>
    <path d="M 323.053125 284.4 
L 323.053125 259.69049 
L 330.865125 259.69049 
L 330.865125 284.4 
" clip-path="url(#p970b947994)" style="fill: none; stroke: #d62728; stroke-width: 1.5"/>
    <path d="M 315.241125 284.4 
L 315.241125 233.757593 
L 326.959125 233.757593 
L 326.959125 259.69049 
" clip-path="url(#p970b947994)" style="fill: none; stroke: #d62728; stroke-width: 1.5"/>
    <path d="M 259.580625 234.246663 
L 259.580625 218.984401 
L 321.100125 218.984401 
L 321.100125 233.757593 
" clip-path="url(#p970b947994)" style="fill: none; stroke: #d62728; stroke-width: 1.5"/>
    <path d="M 237.121125 284.4 
L 237.121125 182.863788 
L 290.340375 182.863788 
L 290.340375 218.984401 
" clip-path="url(#p970b947994)" style="fill: none; stroke: #d62728; stroke-width: 1.5"/>
    <path d="M 362.113125 284.4 
L 362.113125 270.557858 
L 369.925125 270.557858 
L 369.925125 284.4 
" clip-path="url(#p970b947994)" style="fill: none; stroke: #d62728; stroke-width: 1.5"/>
    <path d="M 377.737125 284.4 
L 377.737125 268.684662 
L 385.549125 268.684662 
L 385.549125 284.4 
" clip-path="url(#p970b947994)" style="fill: none; stroke: #d62728; stroke-width: 1.5"/>
    <path d="M 366.019125 270.557858 
L 366.019125 261.884361 
L 381.643125 261.884361 
L 381.643125 268.684662 
" clip-path="url(#p970b947994)" style="fill: none; stroke: #d62728; stroke-width: 1.5"/>
    <path d="M 354.301125 284.4 
L 354.301125 242.046467 
L 373.831125 242.046467 
L 373.831125 261.884361 
" clip-path="url(#p970b947994)" style="fill: none; stroke: #d62728; stroke-width: 1.5"/>
    <path d="M 346.489125 284.4 
L 346.489125 228.928309 
L 364.066125 228.928309 
L 364.066125 242.046467 
" clip-path="url(#p970b947994)" style="fill: none; stroke: #d62728; stroke-width: 1.5"/>
    <path d="M 393.361125 284.4 
L 393.361125 260.732378 
L 401.173125 260.732378 
L 401.173125 284.4 
" clip-path="url(#p970b947994)" style="fill: none; stroke: #d62728; stroke-width: 1.5"/>
    <path d="M 408.985125 284.4 
L 408.985125 257.79535 
L 416.797125 257.79535 
L 416.797125 284.4 
" clip-path="url(#p970b947994)" style="fill: none; stroke: #d62728; stroke-width: 1.5"/>
    <path d="M 397.267125 260.732378 
L 397.267125 209.748815 
L 412.891125 209.748815 
L 412.891125 257.79535 
" clip-path="url(#p970b947994)" style="fill: none; stroke: #d62728; stroke-width: 1.5"/>
    <path d="M 355.277625 228.928309 
L 355.277625 195.669582 
L 405.079125 195.669582 
L 405.079125 209.748815 
" clip-path="url(#p970b947994)" style="fill: none; stroke: #d62728; stroke-width: 1.5"/>
    <path d="M 338.677125 284.4 
L 338.677125 165.322676 
L 380.178375 165.322676 
L 380.178375 195.669582 
" clip-path="url(#p970b947994)" style="fill: none; stroke: #d62728; stroke-width: 1.5"/>
    <path d="M 263.73075 182.863788 
L 263.73075 154.415552 
L 359.42775 154.415552 
L 359.42775 165.322676 
" clip-path="url(#p970b947994)" style="fill: none; stroke: #d62728; stroke-width: 1.5"/>
   </g>
   <g id="LineCollection_4">
    <path d="M 34.009125 284.4 
L 34.009125 39.450483 
L 141.515672 39.450483 
L 141.515672 148.691877 
" clip-path="url(#p970b947994)" style="fill: none; stroke: #1f77b4; stroke-width: 1.5"/>
    <path d="M 225.403125 188.599217 
L 225.403125 26.37662 
L 311.57925 26.37662 
L 311.57925 154.415552 
" clip-path="url(#p970b947994)" style="fill: none; stroke: #1f77b4; stroke-width: 1.5"/>
    <path d="M 87.762398 39.450483 
L 87.762398 20.4 
L 268.491188 20.4 
L 268.491188 26.37662 
" clip-path="url(#p970b947994)" style="fill: none; stroke: #1f77b4; stroke-width: 1.5"/>
   </g>
   <g id="patch_3">
    <path d="M 30.103125 284.4 
L 30.103125 7.2 
" style="fill: none; stroke: #000000; stroke-width: 0.8; stroke-linejoin: miter; stroke-linecap: square"/>
   </g>
   <g id="patch_4">
    <path d="M 420.703125 284.4 
L 420.703125 7.2 
" style="fill: none; stroke: #000000; stroke-width: 0.8; stroke-linejoin: miter; stroke-linecap: square"/>
   </g>
   <g id="patch_5">
    <path d="M 30.103125 284.4 
L 420.703125 284.4 
" style="fill: none; stroke: #000000; stroke-width: 0.8; stroke-linejoin: miter; stroke-linecap: square"/>
   </g>
   <g id="patch_6">
    <path d="M 30.103125 7.2 
L 420.703125 7.2 
" style="fill: none; stroke: #000000; stroke-width: 0.8; stroke-linejoin: miter; stroke-linecap: square"/>
   </g>
  </g>
 </g>
 <defs>
  <clipPath id="p970b947994">
   <rect x="30.103125" y="7.2" width="390.6" height="277.2"/>
  </clipPath>
 </defs>
</svg>
