<?xml version="1.0" encoding="utf-8" standalone="no"?>
<!DOCTYPE svg PUBLIC "-//W3C//DTD SVG 1.1//EN"
  "http://www.w3.org/Graphics/SVG/1.1/DTD/svg11.dtd">
<svg xmlns:xlink="http://www.w3.org/1999/xlink" width="424.725pt" height="308.278125pt" viewBox="0 0 424.725 308.278125" xmlns="http://www.w3.org/2000/svg" version="1.1">
 <metadata>
  <rdf:RDF xmlns:dc="http://purl.org/dc/elements/1.1/" xmlns:cc="http://creativecommons.org/ns#" xmlns:rdf="http://www.w3.org/1999/02/22-rdf-syntax-ns#">
   <cc:Work>
    <dc:type rdf:resource="http://purl.org/dc/dcmitype/StillImage"/>
    <dc:date>2025-05-08T14:41:07.499673</dc:date>
    <dc:format>image/svg+xml</dc:format>
    <dc:creator>
     <cc:Agent>
      <dc:title>Matplotlib v3.10.0, https://matplotlib.org/</dc:title>
     </cc:Agent>
    </dc:creator>
   </cc:Work>
  </rdf:RDF>
 </metadata>
 <defs>
  <style type="text/css">*{stroke-linejoin: round; stroke-linecap: butt}</style>
 </defs>
 <g id="figure_1">
  <g id="patch_1">
   <path d="M 0 308.278125 
L 424.725 308.278125 
L 424.725 0 
L 0 0 
z
" style="fill: #ffffff"/>
  </g>
  <g id="axes_1">
   <g id="patch_2">
    <path d="M 26.925 284.4 
L 417.525 284.4 
L 417.525 7.2 
L 26.925 7.2 
z
" style="fill: #ffffff"/>
   </g>
   <g id="patch_3">
    <path d="M 44.679545 284.4 
L 50.315909 284.4 
L 50.315909 252.72 
L 44.679545 252.72 
z
" clip-path="url(#p162b6ac518)" style="fill: #1f77b4"/>
   </g>
   <g id="patch_4">
    <path d="M 51.725 284.4 
L 57.361364 284.4 
L 57.361364 242.16 
L 51.725 242.16 
z
" clip-path="url(#p162b6ac518)" style="fill: #1f77b4"/>
   </g>
   <g id="patch_5">
    <path d="M 58.770455 284.4 
L 64.406818 284.4 
L 64.406818 268.56 
L 58.770455 268.56 
z
" clip-path="url(#p162b6ac518)" style="fill: #1f77b4"/>
   </g>
   <g id="patch_6">
    <path d="M 65.815909 284.4 
L 71.452273 284.4 
L 71.452273 157.68 
L 65.815909 157.68 
z
" clip-path="url(#p162b6ac518)" style="fill: #1f77b4"/>
   </g>
   <g id="patch_7">
    <path d="M 72.861364 284.4 
L 78.497727 284.4 
L 78.497727 284.4 
L 72.861364 284.4 
z
" clip-path="url(#p162b6ac518)" style="fill: #1f77b4"/>
   </g>
   <g id="patch_8">
    <path d="M 79.906818 284.4 
L 85.543182 284.4 
L 85.543182 210.48 
L 79.906818 210.48 
z
" clip-path="url(#p162b6ac518)" style="fill: #1f77b4"/>
   </g>
   <g id="patch_9">
    <path d="M 86.952273 284.4 
L 92.588636 284.4 
L 92.588636 205.2 
L 86.952273 205.2 
z
" clip-path="url(#p162b6ac518)" style="fill: #1f77b4"/>
   </g>
   <g id="patch_10">
    <path d="M 93.997727 284.4 
L 99.634091 284.4 
L 99.634091 162.96 
L 93.997727 162.96 
z
" clip-path="url(#p162b6ac518)" style="fill: #1f77b4"/>
   </g>
   <g id="patch_11">
    <path d="M 101.043182 284.4 
L 106.679545 284.4 
L 106.679545 173.52 
L 101.043182 173.52 
z
" clip-path="url(#p162b6ac518)" style="fill: #1f77b4"/>
   </g>
   <g id="patch_12">
    <path d="M 108.088636 284.4 
L 113.725 284.4 
L 113.725 168.24 
L 108.088636 168.24 
z
" clip-path="url(#p162b6ac518)" style="fill: #1f77b4"/>
   </g>
   <g id="patch_13">
    <path d="M 115.134091 284.4 
L 120.770455 284.4 
L 120.770455 263.28 
L 115.134091 263.28 
z
" clip-path="url(#p162b6ac518)" style="fill: #1f77b4"/>
   </g>
   <g id="patch_14">
    <path d="M 122.179545 284.4 
L 127.815909 284.4 
L 127.815909 184.08 
L 122.179545 184.08 
z
" clip-path="url(#p162b6ac518)" style="fill: #1f77b4"/>
   </g>
   <g id="patch_15">
    <path d="M 129.225 284.4 
L 134.861364 284.4 
L 134.861364 215.76 
L 129.225 215.76 
z
" clip-path="url(#p162b6ac518)" style="fill: #1f77b4"/>
   </g>
   <g id="patch_16">
    <path d="M 136.270455 284.4 
L 141.906818 284.4 
L 141.906818 199.92 
L 136.270455 199.92 
z
" clip-path="url(#p162b6ac518)" style="fill: #1f77b4"/>
   </g>
   <g id="patch_17">
    <path d="M 143.315909 284.4 
L 148.952273 284.4 
L 148.952273 273.84 
L 143.315909 273.84 
z
" clip-path="url(#p162b6ac518)" style="fill: #1f77b4"/>
   </g>
   <g id="patch_18">
    <path d="M 150.361364 284.4 
L 155.997727 284.4 
L 155.997727 221.04 
L 150.361364 221.04 
z
" clip-path="url(#p162b6ac518)" style="fill: #1f77b4"/>
   </g>
   <g id="patch_19">
    <path d="M 157.406818 284.4 
L 163.043182 284.4 
L 163.043182 189.36 
L 157.406818 189.36 
z
" clip-path="url(#p162b6ac518)" style="fill: #1f77b4"/>
   </g>
   <g id="patch_20">
    <path d="M 164.452273 284.4 
L 170.088636 284.4 
L 170.088636 258 
L 164.452273 258 
z
" clip-path="url(#p162b6ac518)" style="fill: #1f77b4"/>
   </g>
   <g id="patch_21">
    <path d="M 171.497727 284.4 
L 177.134091 284.4 
L 177.134091 226.32 
L 171.497727 226.32 
z
" clip-path="url(#p162b6ac518)" style="fill: #1f77b4"/>
   </g>
   <g id="patch_22">
    <path d="M 178.543182 284.4 
L 184.179545 284.4 
L 184.179545 247.44 
L 178.543182 247.44 
z
" clip-path="url(#p162b6ac518)" style="fill: #1f77b4"/>
   </g>
   <g id="patch_23">
    <path d="M 185.588636 284.4 
L 191.225 284.4 
L 191.225 236.88 
L 185.588636 236.88 
z
" clip-path="url(#p162b6ac518)" style="fill: #1f77b4"/>
   </g>
   <g id="patch_24">
    <path d="M 192.634091 284.4 
L 198.270455 284.4 
L 198.270455 279.12 
L 192.634091 279.12 
z
" clip-path="url(#p162b6ac518)" style="fill: #1f77b4"/>
   </g>
   <g id="patch_25">
    <path d="M 199.679545 284.4 
L 205.315909 284.4 
L 205.315909 194.64 
L 199.679545 194.64 
z
" clip-path="url(#p162b6ac518)" style="fill: #1f77b4"/>
   </g>
   <g id="patch_26">
    <path d="M 206.725 284.4 
L 212.361364 284.4 
L 212.361364 231.6 
L 206.725 231.6 
z
" clip-path="url(#p162b6ac518)" style="fill: #1f77b4"/>
   </g>
   <g id="patch_27">
    <path d="M 213.770455 284.4 
L 219.406818 284.4 
L 219.406818 178.8 
L 213.770455 178.8 
z
" clip-path="url(#p162b6ac518)" style="fill: #1f77b4"/>
   </g>
   <g id="patch_28">
    <path d="M 220.815909 284.4 
L 226.452273 284.4 
L 226.452273 46.8 
L 220.815909 46.8 
z
" clip-path="url(#p162b6ac518)" style="fill: #1f77b4"/>
   </g>
   <g id="patch_29">
    <path d="M 227.861364 284.4 
L 233.497727 284.4 
L 233.497727 152.4 
L 227.861364 152.4 
z
" clip-path="url(#p162b6ac518)" style="fill: #1f77b4"/>
   </g>
   <g id="patch_30">
    <path d="M 234.906818 284.4 
L 240.543182 284.4 
L 240.543182 73.2 
L 234.906818 73.2 
z
" clip-path="url(#p162b6ac518)" style="fill: #1f77b4"/>
   </g>
   <g id="patch_31">
    <path d="M 241.952273 284.4 
L 247.588636 284.4 
L 247.588636 83.76 
L 241.952273 83.76 
z
" clip-path="url(#p162b6ac518)" style="fill: #1f77b4"/>
   </g>
   <g id="patch_32">
    <path d="M 248.997727 284.4 
L 254.634091 284.4 
L 254.634091 67.92 
L 248.997727 67.92 
z
" clip-path="url(#p162b6ac518)" style="fill: #1f77b4"/>
   </g>
   <g id="patch_33">
    <path d="M 256.043182 284.4 
L 261.679545 284.4 
L 261.679545 25.68 
L 256.043182 25.68 
z
" clip-path="url(#p162b6ac518)" style="fill: #1f77b4"/>
   </g>
   <g id="patch_34">
    <path d="M 263.088636 284.4 
L 268.725 284.4 
L 268.725 136.56 
L 263.088636 136.56 
z
" clip-path="url(#p162b6ac518)" style="fill: #1f77b4"/>
   </g>
   <g id="patch_35">
    <path d="M 270.134091 284.4 
L 275.770455 284.4 
L 275.770455 131.28 
L 270.134091 131.28 
z
" clip-path="url(#p162b6ac518)" style="fill: #1f77b4"/>
   </g>
   <g id="patch_36">
    <path d="M 277.179545 284.4 
L 282.815909 284.4 
L 282.815909 141.84 
L 277.179545 141.84 
z
" clip-path="url(#p162b6ac518)" style="fill: #1f77b4"/>
   </g>
   <g id="patch_37">
    <path d="M 284.225 284.4 
L 289.861364 284.4 
L 289.861364 94.32 
L 284.225 94.32 
z
" clip-path="url(#p162b6ac518)" style="fill: #1f77b4"/>
   </g>
   <g id="patch_38">
    <path d="M 291.270455 284.4 
L 296.906818 284.4 
L 296.906818 89.04 
L 291.270455 89.04 
z
" clip-path="url(#p162b6ac518)" style="fill: #1f77b4"/>
   </g>
   <g id="patch_39">
    <path d="M 298.315909 284.4 
L 303.952273 284.4 
L 303.952273 36.24 
L 298.315909 36.24 
z
" clip-path="url(#p162b6ac518)" style="fill: #1f77b4"/>
   </g>
   <g id="patch_40">
    <path d="M 305.361364 284.4 
L 310.997727 284.4 
L 310.997727 30.96 
L 305.361364 30.96 
z
" clip-path="url(#p162b6ac518)" style="fill: #1f77b4"/>
   </g>
   <g id="patch_41">
    <path d="M 312.406818 284.4 
L 318.043182 284.4 
L 318.043182 115.44 
L 312.406818 115.44 
z
" clip-path="url(#p162b6ac518)" style="fill: #1f77b4"/>
   </g>
   <g id="patch_42">
    <path d="M 319.452273 284.4 
L 325.088636 284.4 
L 325.088636 99.6 
L 319.452273 99.6 
z
" clip-path="url(#p162b6ac518)" style="fill: #1f77b4"/>
   </g>
   <g id="patch_43">
    <path d="M 326.497727 284.4 
L 332.134091 284.4 
L 332.134091 62.64 
L 326.497727 62.64 
z
" clip-path="url(#p162b6ac518)" style="fill: #1f77b4"/>
   </g>
   <g id="patch_44">
    <path d="M 333.543182 284.4 
L 339.179545 284.4 
L 339.179545 126 
L 333.543182 126 
z
" clip-path="url(#p162b6ac518)" style="fill: #1f77b4"/>
   </g>
   <g id="patch_45">
    <path d="M 340.588636 284.4 
L 346.225 284.4 
L 346.225 52.08 
L 340.588636 52.08 
z
" clip-path="url(#p162b6ac518)" style="fill: #1f77b4"/>
   </g>
   <g id="patch_46">
    <path d="M 347.634091 284.4 
L 353.270455 284.4 
L 353.270455 110.16 
L 347.634091 110.16 
z
" clip-path="url(#p162b6ac518)" style="fill: #1f77b4"/>
   </g>
   <g id="patch_47">
    <path d="M 354.679545 284.4 
L 360.315909 284.4 
L 360.315909 120.72 
L 354.679545 120.72 
z
" clip-path="url(#p162b6ac518)" style="fill: #1f77b4"/>
   </g>
   <g id="patch_48">
    <path d="M 361.725 284.4 
L 367.361364 284.4 
L 367.361364 104.88 
L 361.725 104.88 
z
" clip-path="url(#p162b6ac518)" style="fill: #1f77b4"/>
   </g>
   <g id="patch_49">
    <path d="M 368.770455 284.4 
L 374.406818 284.4 
L 374.406818 57.36 
L 368.770455 57.36 
z
" clip-path="url(#p162b6ac518)" style="fill: #1f77b4"/>
   </g>
   <g id="patch_50">
    <path d="M 375.815909 284.4 
L 381.452273 284.4 
L 381.452273 41.52 
L 375.815909 41.52 
z
" clip-path="url(#p162b6ac518)" style="fill: #1f77b4"/>
   </g>
   <g id="patch_51">
    <path d="M 382.861364 284.4 
L 388.497727 284.4 
L 388.497727 147.12 
L 382.861364 147.12 
z
" clip-path="url(#p162b6ac518)" style="fill: #1f77b4"/>
   </g>
   <g id="patch_52">
    <path d="M 389.906818 284.4 
L 395.543182 284.4 
L 395.543182 78.48 
L 389.906818 78.48 
z
" clip-path="url(#p162b6ac518)" style="fill: #1f77b4"/>
   </g>
   <g id="matplotlib.axis_1">
    <g id="xtick_1">
     <g id="line2d_1">
      <defs>
       <path id="m611f6efdb8" d="M 0 0 
L 0 3.5 
" style="stroke: #000000; stroke-width: 0.8"/>
      </defs>
      <g>
       <use xlink:href="#m611f6efdb8" x="47.497727" y="284.4" style="stroke: #000000; stroke-width: 0.8"/>
      </g>
     </g>
     <g id="text_1">
      <!-- 0 -->
      <g transform="translate(44.316477 298.998438) scale(0.1 -0.1)">
       <defs>
        <path id="DejaVuSans-30" d="M 2034 4250 
Q 1547 4250 1301 3770 
Q 1056 3291 1056 2328 
Q 1056 1369 1301 889 
Q 1547 409 2034 409 
Q 2525 409 2770 889 
Q 3016 1369 3016 2328 
Q 3016 3291 2770 3770 
Q 2525 4250 2034 4250 
z
M 2034 4750 
Q 2819 4750 3233 4129 
Q 3647 3509 3647 2328 
Q 3647 1150 3233 529 
Q 2819 -91 2034 -91 
Q 1250 -91 836 529 
Q 422 1150 422 2328 
Q 422 3509 836 4129 
Q 1250 4750 2034 4750 
z
" transform="scale(0.015625)"/>
       </defs>
       <use xlink:href="#DejaVuSans-30"/>
      </g>
     </g>
    </g>
    <g id="xtick_2">
     <g id="line2d_2">
      <g>
       <use xlink:href="#m611f6efdb8" x="117.952273" y="284.4" style="stroke: #000000; stroke-width: 0.8"/>
      </g>
     </g>
     <g id="text_2">
      <!-- 10 -->
      <g transform="translate(111.589773 298.998438) scale(0.1 -0.1)">
       <defs>
        <path id="DejaVuSans-31" d="M 794 531 
L 1825 531 
L 1825 4091 
L 703 3866 
L 703 4441 
L 1819 4666 
L 2450 4666 
L 2450 531 
L 3481 531 
L 3481 0 
L 794 0 
L 794 531 
z
" transform="scale(0.015625)"/>
       </defs>
       <use xlink:href="#DejaVuSans-31"/>
       <use xlink:href="#DejaVuSans-30" transform="translate(63.623047 0)"/>
      </g>
     </g>
    </g>
    <g id="xtick_3">
     <g id="line2d_3">
      <g>
       <use xlink:href="#m611f6efdb8" x="188.406818" y="284.4" style="stroke: #000000; stroke-width: 0.8"/>
      </g>
     </g>
     <g id="text_3">
      <!-- 20 -->
      <g transform="translate(182.044318 298.998438) scale(0.1 -0.1)">
       <defs>
        <path id="DejaVuSans-32" d="M 1228 531 
L 3431 531 
L 3431 0 
L 469 0 
L 469 531 
Q 828 903 1448 1529 
Q 2069 2156 2228 2338 
Q 2531 2678 2651 2914 
Q 2772 3150 2772 3378 
Q 2772 3750 2511 3984 
Q 2250 4219 1831 4219 
Q 1534 4219 1204 4116 
Q 875 4013 500 3803 
L 500 4441 
Q 881 4594 1212 4672 
Q 1544 4750 1819 4750 
Q 2544 4750 2975 4387 
Q 3406 4025 3406 3419 
Q 3406 3131 3298 2873 
Q 3191 2616 2906 2266 
Q 2828 2175 2409 1742 
Q 1991 1309 1228 531 
z
" transform="scale(0.015625)"/>
       </defs>
       <use xlink:href="#DejaVuSans-32"/>
       <use xlink:href="#DejaVuSans-30" transform="translate(63.623047 0)"/>
      </g>
     </g>
    </g>
    <g id="xtick_4">
     <g id="line2d_4">
      <g>
       <use xlink:href="#m611f6efdb8" x="258.861364" y="284.4" style="stroke: #000000; stroke-width: 0.8"/>
      </g>
     </g>
     <g id="text_4">
      <!-- 30 -->
      <g transform="translate(252.498864 298.998438) scale(0.1 -0.1)">
       <defs>
        <path id="DejaVuSans-33" d="M 2597 2516 
Q 3050 2419 3304 2112 
Q 3559 1806 3559 1356 
Q 3559 666 3084 287 
Q 2609 -91 1734 -91 
Q 1441 -91 1130 -33 
Q 819 25 488 141 
L 488 750 
Q 750 597 1062 519 
Q 1375 441 1716 441 
Q 2309 441 2620 675 
Q 2931 909 2931 1356 
Q 2931 1769 2642 2001 
Q 2353 2234 1838 2234 
L 1294 2234 
L 1294 2753 
L 1863 2753 
Q 2328 2753 2575 2939 
Q 2822 3125 2822 3475 
Q 2822 3834 2567 4026 
Q 2313 4219 1838 4219 
Q 1578 4219 1281 4162 
Q 984 4106 628 3988 
L 628 4550 
Q 988 4650 1302 4700 
Q 1616 4750 1894 4750 
Q 2613 4750 3031 4423 
Q 3450 4097 3450 3541 
Q 3450 3153 3228 2886 
Q 3006 2619 2597 2516 
z
" transform="scale(0.015625)"/>
       </defs>
       <use xlink:href="#DejaVuSans-33"/>
       <use xlink:href="#DejaVuSans-30" transform="translate(63.623047 0)"/>
      </g>
     </g>
    </g>
    <g id="xtick_5">
     <g id="line2d_5">
      <g>
       <use xlink:href="#m611f6efdb8" x="329.315909" y="284.4" style="stroke: #000000; stroke-width: 0.8"/>
      </g>
     </g>
     <g id="text_5">
      <!-- 40 -->
      <g transform="translate(322.953409 298.998438) scale(0.1 -0.1)">
       <defs>
        <path id="DejaVuSans-34" d="M 2419 4116 
L 825 1625 
L 2419 1625 
L 2419 4116 
z
M 2253 4666 
L 3047 4666 
L 3047 1625 
L 3713 1625 
L 3713 1100 
L 3047 1100 
L 3047 0 
L 2419 0 
L 2419 1100 
L 313 1100 
L 313 1709 
L 2253 4666 
z
" transform="scale(0.015625)"/>
       </defs>
       <use xlink:href="#DejaVuSans-34"/>
       <use xlink:href="#DejaVuSans-30" transform="translate(63.623047 0)"/>
      </g>
     </g>
    </g>
    <g id="xtick_6">
     <g id="line2d_6">
      <g>
       <use xlink:href="#m611f6efdb8" x="399.770455" y="284.4" style="stroke: #000000; stroke-width: 0.8"/>
      </g>
     </g>
     <g id="text_6">
      <!-- 50 -->
      <g transform="translate(393.407955 298.998438) scale(0.1 -0.1)">
       <defs>
        <path id="DejaVuSans-35" d="M 691 4666 
L 3169 4666 
L 3169 4134 
L 1269 4134 
L 1269 2991 
Q 1406 3038 1543 3061 
Q 1681 3084 1819 3084 
Q 2600 3084 3056 2656 
Q 3513 2228 3513 1497 
Q 3513 744 3044 326 
Q 2575 -91 1722 -91 
Q 1428 -91 1123 -41 
Q 819 9 494 109 
L 494 744 
Q 775 591 1075 516 
Q 1375 441 1709 441 
Q 2250 441 2565 725 
Q 2881 1009 2881 1497 
Q 2881 1984 2565 2268 
Q 2250 2553 1709 2553 
Q 1456 2553 1204 2497 
Q 953 2441 691 2322 
L 691 4666 
z
" transform="scale(0.015625)"/>
       </defs>
       <use xlink:href="#DejaVuSans-35"/>
       <use xlink:href="#DejaVuSans-30" transform="translate(63.623047 0)"/>
      </g>
     </g>
    </g>
   </g>
   <g id="matplotlib.axis_2">
    <g id="ytick_1">
     <g id="line2d_7">
      <defs>
       <path id="md96297987c" d="M 0 0 
L -3.5 0 
" style="stroke: #000000; stroke-width: 0.8"/>
      </defs>
      <g>
       <use xlink:href="#md96297987c" x="26.925" y="284.4" style="stroke: #000000; stroke-width: 0.8"/>
      </g>
     </g>
     <g id="text_7">
      <!-- 0 -->
      <g transform="translate(13.5625 288.199219) scale(0.1 -0.1)">
       <use xlink:href="#DejaVuSans-30"/>
      </g>
     </g>
    </g>
    <g id="ytick_2">
     <g id="line2d_8">
      <g>
       <use xlink:href="#md96297987c" x="26.925" y="231.6" style="stroke: #000000; stroke-width: 0.8"/>
      </g>
     </g>
     <g id="text_8">
      <!-- 10 -->
      <g transform="translate(7.2 235.399219) scale(0.1 -0.1)">
       <use xlink:href="#DejaVuSans-31"/>
       <use xlink:href="#DejaVuSans-30" transform="translate(63.623047 0)"/>
      </g>
     </g>
    </g>
    <g id="ytick_3">
     <g id="line2d_9">
      <g>
       <use xlink:href="#md96297987c" x="26.925" y="178.8" style="stroke: #000000; stroke-width: 0.8"/>
      </g>
     </g>
     <g id="text_9">
      <!-- 20 -->
      <g transform="translate(7.2 182.599219) scale(0.1 -0.1)">
       <use xlink:href="#DejaVuSans-32"/>
       <use xlink:href="#DejaVuSans-30" transform="translate(63.623047 0)"/>
      </g>
     </g>
    </g>
    <g id="ytick_4">
     <g id="line2d_10">
      <g>
       <use xlink:href="#md96297987c" x="26.925" y="126" style="stroke: #000000; stroke-width: 0.8"/>
      </g>
     </g>
     <g id="text_10">
      <!-- 30 -->
      <g transform="translate(7.2 129.799219) scale(0.1 -0.1)">
       <use xlink:href="#DejaVuSans-33"/>
       <use xlink:href="#DejaVuSans-30" transform="translate(63.623047 0)"/>
      </g>
     </g>
    </g>
    <g id="ytick_5">
     <g id="line2d_11">
      <g>
       <use xlink:href="#md96297987c" x="26.925" y="73.2" style="stroke: #000000; stroke-width: 0.8"/>
      </g>
     </g>
     <g id="text_11">
      <!-- 40 -->
      <g transform="translate(7.2 76.999219) scale(0.1 -0.1)">
       <use xlink:href="#DejaVuSans-34"/>
       <use xlink:href="#DejaVuSans-30" transform="translate(63.623047 0)"/>
      </g>
     </g>
    </g>
    <g id="ytick_6">
     <g id="line2d_12">
      <g>
       <use xlink:href="#md96297987c" x="26.925" y="20.4" style="stroke: #000000; stroke-width: 0.8"/>
      </g>
     </g>
     <g id="text_12">
      <!-- 50 -->
      <g transform="translate(7.2 24.199219) scale(0.1 -0.1)">
       <use xlink:href="#DejaVuSans-35"/>
       <use xlink:href="#DejaVuSans-30" transform="translate(63.623047 0)"/>
      </g>
     </g>
    </g>
   </g>
   <g id="line2d_13">
    <path d="M 47.497727 152.4 
L 399.770455 152.4 
" clip-path="url(#p162b6ac518)" style="fill: none; stroke-dasharray: 2,3.3; stroke-dashoffset: 0; stroke: #ff0000; stroke-width: 2"/>
   </g>
   <g id="line2d_14">
    <path d="M 227.156818 284.4 
L 227.156818 20.4 
" clip-path="url(#p162b6ac518)" style="fill: none; stroke-dasharray: 2,3.3; stroke-dashoffset: 0; stroke: #ff0000; stroke-width: 2"/>
   </g>
   <g id="patch_53">
    <path d="M 26.925 284.4 
L 26.925 7.2 
" style="fill: none; stroke: #000000; stroke-width: 0.8; stroke-linejoin: miter; stroke-linecap: square"/>
   </g>
   <g id="patch_54">
    <path d="M 417.525 284.4 
L 417.525 7.2 
" style="fill: none; stroke: #000000; stroke-width: 0.8; stroke-linejoin: miter; stroke-linecap: square"/>
   </g>
   <g id="patch_55">
    <path d="M 26.925 284.4 
L 417.525 284.4 
" style="fill: none; stroke: #000000; stroke-width: 0.8; stroke-linejoin: miter; stroke-linecap: square"/>
   </g>
   <g id="patch_56">
    <path d="M 26.925 7.2 
L 417.525 7.2 
" style="fill: none; stroke: #000000; stroke-width: 0.8; stroke-linejoin: miter; stroke-linecap: square"/>
   </g>
  </g>
 </g>
 <defs>
  <clipPath id="p162b6ac518">
   <rect x="26.925" y="7.2" width="390.6" height="277.2"/>
  </clipPath>
 </defs>
</svg>
