<?xml version="1.0" encoding="utf-8" standalone="no"?>
<!DOCTYPE svg PUBLIC "-//W3C//DTD SVG 1.1//EN"
  "http://www.w3.org/Graphics/SVG/1.1/DTD/svg11.dtd">
<svg xmlns:xlink="http://www.w3.org/1999/xlink" width="427.903125pt" height="155.359973pt" viewBox="0 0 427.903125 155.359973" xmlns="http://www.w3.org/2000/svg" version="1.1">
 <metadata>
  <rdf:RDF xmlns:dc="http://purl.org/dc/elements/1.1/" xmlns:cc="http://creativecommons.org/ns#" xmlns:rdf="http://www.w3.org/1999/02/22-rdf-syntax-ns#">
   <cc:Work>
    <dc:type rdf:resource="http://purl.org/dc/dcmitype/StillImage"/>
    <dc:date>2025-06-16T14:35:49.391147</dc:date>
    <dc:format>image/svg+xml</dc:format>
    <dc:creator>
     <cc:Agent>
      <dc:title>Matplotlib v3.10.0, https://matplotlib.org/</dc:title>
     </cc:Agent>
    </dc:creator>
   </cc:Work>
  </rdf:RDF>
 </metadata>
 <defs>
  <style type="text/css">*{stroke-linejoin: round; stroke-linecap: butt}</style>
 </defs>
 <g id="figure_1">
  <g id="patch_1">
   <path d="M 0 155.359973 
L 427.903125 155.359973 
L 427.903125 0 
L 0 0 
z
" style="fill: #ffffff"/>
  </g>
  <g id="axes_1">
   <g id="patch_2">
    <path d="M 30.103125 131.481848 
L 420.703125 131.481848 
L 420.703125 7.2 
L 30.103125 7.2 
z
" style="fill: #ffffff"/>
   </g>
   <g id="patch_3">
    <path d="M 48.301534 131.481848 
L 51.852443 131.481848 
L 51.852443 32.480848 
L 48.301534 32.480848 
z
" clip-path="url(#pb0dcd8f7c1)" style="fill: #bfbf00"/>
   </g>
   <g id="patch_4">
    <path d="M 52.74017 131.481848 
L 56.29108 131.481848 
L 56.29108 46.094071 
L 52.74017 46.094071 
z
" clip-path="url(#pb0dcd8f7c1)" style="fill: #bfbf00"/>
   </g>
   <g id="patch_5">
    <path d="M 57.178807 131.481848 
L 60.729716 131.481848 
L 60.729716 41.116576 
L 57.178807 41.116576 
z
" clip-path="url(#pb0dcd8f7c1)" style="fill: #bfbf00"/>
   </g>
   <g id="patch_6">
    <path d="M 61.617443 131.481848 
L 65.168352 131.481848 
L 65.168352 56.218882 
L 61.617443 56.218882 
z
" clip-path="url(#pb0dcd8f7c1)" style="fill: #bfbf00"/>
   </g>
   <g id="patch_7">
    <path d="M 66.05608 131.481848 
L 69.606989 131.481848 
L 69.606989 38.635685 
L 66.05608 38.635685 
z
" clip-path="url(#pb0dcd8f7c1)" style="fill: #bfbf00"/>
   </g>
   <g id="patch_8">
    <path d="M 70.494716 131.481848 
L 74.045625 131.481848 
L 74.045625 47.341208 
L 70.494716 47.341208 
z
" clip-path="url(#pb0dcd8f7c1)" style="fill: #bfbf00"/>
   </g>
   <g id="patch_9">
    <path d="M 74.933352 131.481848 
L 78.484261 131.481848 
L 78.484261 50.738992 
L 74.933352 50.738992 
z
" clip-path="url(#pb0dcd8f7c1)" style="fill: #bfbf00"/>
   </g>
   <g id="patch_10">
    <path d="M 79.371989 131.481848 
L 82.922898 131.481848 
L 82.922898 68.378912 
L 79.371989 68.378912 
z
" clip-path="url(#pb0dcd8f7c1)" style="fill: #bfbf00"/>
   </g>
   <g id="patch_11">
    <path d="M 83.810625 131.481848 
L 87.361534 131.481848 
L 87.361534 70.34533 
L 83.810625 70.34533 
z
" clip-path="url(#pb0dcd8f7c1)" style="fill: #bfbf00"/>
   </g>
   <g id="patch_12">
    <path d="M 88.249261 131.481848 
L 91.80017 131.481848 
L 91.80017 56.362875 
L 88.249261 56.362875 
z
" clip-path="url(#pb0dcd8f7c1)" style="fill: #bfbf00"/>
   </g>
   <g id="patch_13">
    <path d="M 92.687898 131.481848 
L 96.238807 131.481848 
L 96.238807 53.177194 
L 92.687898 53.177194 
z
" clip-path="url(#pb0dcd8f7c1)" style="fill: #bfbf00"/>
   </g>
   <g id="patch_14">
    <path d="M 97.126534 131.481848 
L 100.677443 131.481848 
L 100.677443 62.251448 
L 97.126534 62.251448 
z
" clip-path="url(#pb0dcd8f7c1)" style="fill: #bfbf00"/>
   </g>
   <g id="patch_15">
    <path d="M 101.56517 131.481848 
L 105.11608 131.481848 
L 105.11608 60.14072 
L 101.56517 60.14072 
z
" clip-path="url(#pb0dcd8f7c1)" style="fill: #bfbf00"/>
   </g>
   <g id="patch_16">
    <path d="M 106.003807 131.481848 
L 109.554716 131.481848 
L 109.554716 58.678319 
L 106.003807 58.678319 
z
" clip-path="url(#pb0dcd8f7c1)" style="fill: #bfbf00"/>
   </g>
   <g id="patch_17">
    <path d="M 110.442443 131.481848 
L 113.993352 131.481848 
L 113.993352 89.230662 
L 110.442443 89.230662 
z
" clip-path="url(#pb0dcd8f7c1)" style="fill: #bfbf00"/>
   </g>
   <g id="patch_18">
    <path d="M 114.88108 131.481848 
L 118.431989 131.481848 
L 118.431989 58.540838 
L 114.88108 58.540838 
z
" clip-path="url(#pb0dcd8f7c1)" style="fill: #bfbf00"/>
   </g>
   <g id="patch_19">
    <path d="M 119.319716 131.481848 
L 122.870625 131.481848 
L 122.870625 62.998857 
L 119.319716 62.998857 
z
" clip-path="url(#pb0dcd8f7c1)" style="fill: #bfbf00"/>
   </g>
   <g id="patch_20">
    <path d="M 123.758352 131.481848 
L 127.309261 131.481848 
L 127.309261 40.183373 
L 123.758352 40.183373 
z
" clip-path="url(#pb0dcd8f7c1)" style="fill: #bfbf00"/>
   </g>
   <g id="patch_21">
    <path d="M 128.196989 131.481848 
L 131.747898 131.481848 
L 131.747898 73.500667 
L 128.196989 73.500667 
z
" clip-path="url(#pb0dcd8f7c1)" style="fill: #bfbf00"/>
   </g>
   <g id="patch_22">
    <path d="M 132.635625 131.481848 
L 136.186534 131.481848 
L 136.186534 60.901075 
L 132.635625 60.901075 
z
" clip-path="url(#pb0dcd8f7c1)" style="fill: #bfbf00"/>
   </g>
   <g id="patch_23">
    <path d="M 137.074261 131.481848 
L 140.62517 131.481848 
L 140.62517 46.872875 
L 137.074261 46.872875 
z
" clip-path="url(#pb0dcd8f7c1)" style="fill: #bfbf00"/>
   </g>
   <g id="patch_24">
    <path d="M 141.512898 131.481848 
L 145.063807 131.481848 
L 145.063807 52.267597 
L 141.512898 52.267597 
z
" clip-path="url(#pb0dcd8f7c1)" style="fill: #bfbf00"/>
   </g>
   <g id="patch_25">
    <path d="M 145.951534 131.481848 
L 149.502443 131.481848 
L 149.502443 94.053557 
L 145.951534 94.053557 
z
" clip-path="url(#pb0dcd8f7c1)" style="fill: #bfbf00"/>
   </g>
   <g id="patch_26">
    <path d="M 150.39017 131.481848 
L 153.94108 131.481848 
L 153.94108 55.850052 
L 150.39017 55.850052 
z
" clip-path="url(#pb0dcd8f7c1)" style="fill: #bfbf00"/>
   </g>
   <g id="patch_27">
    <path d="M 154.828807 131.481848 
L 158.379716 131.481848 
L 158.379716 42.2793 
L 154.828807 42.2793 
z
" clip-path="url(#pb0dcd8f7c1)" style="fill: #bfbf00"/>
   </g>
   <g id="patch_28">
    <path d="M 159.267443 131.481848 
L 162.818352 131.481848 
L 162.818352 102.560543 
L 159.267443 102.560543 
z
" clip-path="url(#pb0dcd8f7c1)" style="fill: #bfbf00"/>
   </g>
   <g id="patch_29">
    <path d="M 163.70608 131.481848 
L 167.256989 131.481848 
L 167.256989 54.329547 
L 163.70608 54.329547 
z
" clip-path="url(#pb0dcd8f7c1)" style="fill: #bfbf00"/>
   </g>
   <g id="patch_30">
    <path d="M 168.144716 131.481848 
L 171.695625 131.481848 
L 171.695625 43.589728 
L 168.144716 43.589728 
z
" clip-path="url(#pb0dcd8f7c1)" style="fill: #bfbf00"/>
   </g>
   <g id="patch_31">
    <path d="M 172.583352 131.481848 
L 176.134261 131.481848 
L 176.134261 66.35194 
L 172.583352 66.35194 
z
" clip-path="url(#pb0dcd8f7c1)" style="fill: #bfbf00"/>
   </g>
   <g id="patch_32">
    <path d="M 177.021989 131.481848 
L 180.572898 131.481848 
L 180.572898 97.939953 
L 177.021989 97.939953 
z
" clip-path="url(#pb0dcd8f7c1)" style="fill: #bfbf00"/>
   </g>
   <g id="patch_33">
    <path d="M 181.460625 131.481848 
L 185.011534 131.481848 
L 185.011534 69.056899 
L 181.460625 69.056899 
z
" clip-path="url(#pb0dcd8f7c1)" style="fill: #bfbf00"/>
   </g>
   <g id="patch_34">
    <path d="M 185.899261 131.481848 
L 189.45017 131.481848 
L 189.45017 52.993523 
L 185.899261 52.993523 
z
" clip-path="url(#pb0dcd8f7c1)" style="fill: #bfbf00"/>
   </g>
   <g id="patch_35">
    <path d="M 190.337898 131.481848 
L 193.888807 131.481848 
L 193.888807 56.120055 
L 190.337898 56.120055 
z
" clip-path="url(#pb0dcd8f7c1)" style="fill: #bfbf00"/>
   </g>
   <g id="patch_36">
    <path d="M 194.776534 131.481848 
L 198.327443 131.481848 
L 198.327443 74.418332 
L 194.776534 74.418332 
z
" clip-path="url(#pb0dcd8f7c1)" style="fill: #bfbf00"/>
   </g>
   <g id="patch_37">
    <path d="M 199.21517 131.481848 
L 202.76608 131.481848 
L 202.76608 43.84263 
L 199.21517 43.84263 
z
" clip-path="url(#pb0dcd8f7c1)" style="fill: #bfbf00"/>
   </g>
   <g id="patch_38">
    <path d="M 203.653807 131.481848 
L 207.204716 131.481848 
L 207.204716 60.370248 
L 203.653807 60.370248 
z
" clip-path="url(#pb0dcd8f7c1)" style="fill: #bfbf00"/>
   </g>
   <g id="patch_39">
    <path d="M 208.092443 131.481848 
L 211.643352 131.481848 
L 211.643352 44.092208 
L 208.092443 44.092208 
z
" clip-path="url(#pb0dcd8f7c1)" style="fill: #bfbf00"/>
   </g>
   <g id="patch_40">
    <path d="M 212.53108 131.481848 
L 216.081989 131.481848 
L 216.081989 44.045695 
L 212.53108 44.045695 
z
" clip-path="url(#pb0dcd8f7c1)" style="fill: #bfbf00"/>
   </g>
   <g id="patch_41">
    <path d="M 216.969716 131.481848 
L 220.520625 131.481848 
L 220.520625 43.296134 
L 216.969716 43.296134 
z
" clip-path="url(#pb0dcd8f7c1)" style="fill: #bfbf00"/>
   </g>
   <g id="patch_42">
    <path d="M 221.408352 131.481848 
L 224.959261 131.481848 
L 224.959261 90.157657 
L 221.408352 90.157657 
z
" clip-path="url(#pb0dcd8f7c1)" style="fill: #bfbf00"/>
   </g>
   <g id="patch_43">
    <path d="M 225.846989 131.481848 
L 229.397898 131.481848 
L 229.397898 100.565575 
L 225.846989 100.565575 
z
" clip-path="url(#pb0dcd8f7c1)" style="fill: #bfbf00"/>
   </g>
   <g id="patch_44">
    <path d="M 230.285625 131.481848 
L 233.836534 131.481848 
L 233.836534 80.039943 
L 230.285625 80.039943 
z
" clip-path="url(#pb0dcd8f7c1)" style="fill: #bfbf00"/>
   </g>
   <g id="patch_45">
    <path d="M 234.724261 131.481848 
L 238.27517 131.481848 
L 238.27517 94.577011 
L 234.724261 94.577011 
z
" clip-path="url(#pb0dcd8f7c1)" style="fill: #bfbf00"/>
   </g>
   <g id="patch_46">
    <path d="M 239.162898 131.481848 
L 242.713807 131.481848 
L 242.713807 90.992964 
L 239.162898 90.992964 
z
" clip-path="url(#pb0dcd8f7c1)" style="fill: #bfbf00"/>
   </g>
   <g id="patch_47">
    <path d="M 243.601534 131.481848 
L 247.152443 131.481848 
L 247.152443 84.388017 
L 243.601534 84.388017 
z
" clip-path="url(#pb0dcd8f7c1)" style="fill: #bfbf00"/>
   </g>
   <g id="patch_48">
    <path d="M 248.04017 131.481848 
L 251.59108 131.481848 
L 251.59108 70.67633 
L 248.04017 70.67633 
z
" clip-path="url(#pb0dcd8f7c1)" style="fill: #bfbf00"/>
   </g>
   <g id="patch_49">
    <path d="M 252.478807 131.481848 
L 256.029716 131.481848 
L 256.029716 95.517774 
L 252.478807 95.517774 
z
" clip-path="url(#pb0dcd8f7c1)" style="fill: #bfbf00"/>
   </g>
   <g id="patch_50">
    <path d="M 256.917443 131.481848 
L 260.468352 131.481848 
L 260.468352 73.808916 
L 256.917443 73.808916 
z
" clip-path="url(#pb0dcd8f7c1)" style="fill: #bfbf00"/>
   </g>
   <g id="patch_51">
    <path d="M 261.35608 131.481848 
L 264.906989 131.481848 
L 264.906989 81.967012 
L 261.35608 81.967012 
z
" clip-path="url(#pb0dcd8f7c1)" style="fill: #bfbf00"/>
   </g>
   <g id="patch_52">
    <path d="M 265.794716 131.481848 
L 269.345625 131.481848 
L 269.345625 98.878846 
L 265.794716 98.878846 
z
" clip-path="url(#pb0dcd8f7c1)" style="fill: #bfbf00"/>
   </g>
   <g id="patch_53">
    <path d="M 270.233352 131.481848 
L 273.784261 131.481848 
L 273.784261 66.827174 
L 270.233352 66.827174 
z
" clip-path="url(#pb0dcd8f7c1)" style="fill: #bfbf00"/>
   </g>
   <g id="patch_54">
    <path d="M 274.671989 131.481848 
L 278.222898 131.481848 
L 278.222898 83.982198 
L 274.671989 83.982198 
z
" clip-path="url(#pb0dcd8f7c1)" style="fill: #bfbf00"/>
   </g>
   <g id="patch_55">
    <path d="M 279.110625 131.481848 
L 282.661534 131.481848 
L 282.661534 97.409204 
L 279.110625 97.409204 
z
" clip-path="url(#pb0dcd8f7c1)" style="fill: #bfbf00"/>
   </g>
   <g id="patch_56">
    <path d="M 283.549261 131.481848 
L 287.10017 131.481848 
L 287.10017 57.053435 
L 283.549261 57.053435 
z
" clip-path="url(#pb0dcd8f7c1)" style="fill: #bfbf00"/>
   </g>
   <g id="patch_57">
    <path d="M 287.987898 131.481848 
L 291.538807 131.481848 
L 291.538807 98.204383 
L 287.987898 98.204383 
z
" clip-path="url(#pb0dcd8f7c1)" style="fill: #bfbf00"/>
   </g>
   <g id="patch_58">
    <path d="M 292.426534 131.481848 
L 295.977443 131.481848 
L 295.977443 73.101251 
L 292.426534 73.101251 
z
" clip-path="url(#pb0dcd8f7c1)" style="fill: #bfbf00"/>
   </g>
   <g id="patch_59">
    <path d="M 296.86517 131.481848 
L 300.41608 131.481848 
L 300.41608 90.035439 
L 296.86517 90.035439 
z
" clip-path="url(#pb0dcd8f7c1)" style="fill: #bfbf00"/>
   </g>
   <g id="patch_60">
    <path d="M 301.303807 131.481848 
L 304.854716 131.481848 
L 304.854716 91.364066 
L 301.303807 91.364066 
z
" clip-path="url(#pb0dcd8f7c1)" style="fill: #bfbf00"/>
   </g>
   <g id="patch_61">
    <path d="M 305.742443 131.481848 
L 309.293352 131.481848 
L 309.293352 100.749394 
L 305.742443 100.749394 
z
" clip-path="url(#pb0dcd8f7c1)" style="fill: #bfbf00"/>
   </g>
   <g id="patch_62">
    <path d="M 310.18108 131.481848 
L 313.731989 131.481848 
L 313.731989 97.807756 
L 310.18108 97.807756 
z
" clip-path="url(#pb0dcd8f7c1)" style="fill: #bfbf00"/>
   </g>
   <g id="patch_63">
    <path d="M 314.619716 131.481848 
L 318.170625 131.481848 
L 318.170625 105.297784 
L 314.619716 105.297784 
z
" clip-path="url(#pb0dcd8f7c1)" style="fill: #bfbf00"/>
   </g>
   <g id="patch_64">
    <path d="M 319.058352 131.481848 
L 322.609261 131.481848 
L 322.609261 92.78566 
L 319.058352 92.78566 
z
" clip-path="url(#pb0dcd8f7c1)" style="fill: #bfbf00"/>
   </g>
   <g id="patch_65">
    <path d="M 323.496989 131.481848 
L 327.047898 131.481848 
L 327.047898 105.124666 
L 323.496989 105.124666 
z
" clip-path="url(#pb0dcd8f7c1)" style="fill: #bfbf00"/>
   </g>
   <g id="patch_66">
    <path d="M 327.935625 131.481848 
L 331.486534 131.481848 
L 331.486534 99.796281 
L 327.935625 99.796281 
z
" clip-path="url(#pb0dcd8f7c1)" style="fill: #bfbf00"/>
   </g>
   <g id="patch_67">
    <path d="M 332.374261 131.481848 
L 335.92517 131.481848 
L 335.92517 69.639644 
L 332.374261 69.639644 
z
" clip-path="url(#pb0dcd8f7c1)" style="fill: #bfbf00"/>
   </g>
   <g id="patch_68">
    <path d="M 336.812898 131.481848 
L 340.363807 131.481848 
L 340.363807 96.651562 
L 336.812898 96.651562 
z
" clip-path="url(#pb0dcd8f7c1)" style="fill: #bfbf00"/>
   </g>
   <g id="patch_69">
    <path d="M 341.251534 131.481848 
L 344.802443 131.481848 
L 344.802443 82.676088 
L 341.251534 82.676088 
z
" clip-path="url(#pb0dcd8f7c1)" style="fill: #bfbf00"/>
   </g>
   <g id="patch_70">
    <path d="M 345.69017 131.481848 
L 349.24108 131.481848 
L 349.24108 61.700832 
L 345.69017 61.700832 
z
" clip-path="url(#pb0dcd8f7c1)" style="fill: #bfbf00"/>
   </g>
   <g id="patch_71">
    <path d="M 350.128807 131.481848 
L 353.679716 131.481848 
L 353.679716 91.144478 
L 350.128807 91.144478 
z
" clip-path="url(#pb0dcd8f7c1)" style="fill: #bfbf00"/>
   </g>
   <g id="patch_72">
    <path d="M 354.567443 131.481848 
L 358.118352 131.481848 
L 358.118352 82.337073 
L 354.567443 82.337073 
z
" clip-path="url(#pb0dcd8f7c1)" style="fill: #bfbf00"/>
   </g>
   <g id="patch_73">
    <path d="M 359.00608 131.481848 
L 362.556989 131.481848 
L 362.556989 56.615826 
L 359.00608 56.615826 
z
" clip-path="url(#pb0dcd8f7c1)" style="fill: #bfbf00"/>
   </g>
   <g id="patch_74">
    <path d="M 363.444716 131.481848 
L 366.995625 131.481848 
L 366.995625 102.119687 
L 363.444716 102.119687 
z
" clip-path="url(#pb0dcd8f7c1)" style="fill: #bfbf00"/>
   </g>
   <g id="patch_75">
    <path d="M 367.883352 131.481848 
L 371.434261 131.481848 
L 371.434261 82.937159 
L 367.883352 82.937159 
z
" clip-path="url(#pb0dcd8f7c1)" style="fill: #bfbf00"/>
   </g>
   <g id="patch_76">
    <path d="M 372.321989 131.481848 
L 375.872898 131.481848 
L 375.872898 100.153886 
L 372.321989 100.153886 
z
" clip-path="url(#pb0dcd8f7c1)" style="fill: #bfbf00"/>
   </g>
   <g id="patch_77">
    <path d="M 376.760625 131.481848 
L 380.311534 131.481848 
L 380.311534 84.355017 
L 376.760625 84.355017 
z
" clip-path="url(#pb0dcd8f7c1)" style="fill: #bfbf00"/>
   </g>
   <g id="patch_78">
    <path d="M 381.199261 131.481848 
L 384.75017 131.481848 
L 384.75017 89.368048 
L 381.199261 89.368048 
z
" clip-path="url(#pb0dcd8f7c1)" style="fill: #bfbf00"/>
   </g>
   <g id="patch_79">
    <path d="M 385.637898 131.481848 
L 389.188807 131.481848 
L 389.188807 89.024035 
L 385.637898 89.024035 
z
" clip-path="url(#pb0dcd8f7c1)" style="fill: #bfbf00"/>
   </g>
   <g id="patch_80">
    <path d="M 390.076534 131.481848 
L 393.627443 131.481848 
L 393.627443 94.055147 
L 390.076534 94.055147 
z
" clip-path="url(#pb0dcd8f7c1)" style="fill: #bfbf00"/>
   </g>
   <g id="patch_81">
    <path d="M 394.51517 131.481848 
L 398.06608 131.481848 
L 398.06608 97.496725 
L 394.51517 97.496725 
z
" clip-path="url(#pb0dcd8f7c1)" style="fill: #bfbf00"/>
   </g>
   <g id="patch_82">
    <path d="M 398.953807 131.481848 
L 402.504716 131.481848 
L 402.504716 91.307417 
L 398.953807 91.307417 
z
" clip-path="url(#pb0dcd8f7c1)" style="fill: #bfbf00"/>
   </g>
   <g id="patch_83">
    <path d="M 48.301534 32.480848 
L 51.852443 32.480848 
L 51.852443 13.118197 
L 48.301534 13.118197 
z
" clip-path="url(#pb0dcd8f7c1)" style="fill: #0000ff"/>
   </g>
   <g id="patch_84">
    <path d="M 52.74017 46.094071 
L 56.29108 46.094071 
L 56.29108 13.118211 
L 52.74017 13.118211 
z
" clip-path="url(#pb0dcd8f7c1)" style="fill: #0000ff"/>
   </g>
   <g id="patch_85">
    <path d="M 57.178807 41.116576 
L 60.729716 41.116576 
L 60.729716 13.118211 
L 57.178807 13.118211 
z
" clip-path="url(#pb0dcd8f7c1)" style="fill: #0000ff"/>
   </g>
   <g id="patch_86">
    <path d="M 61.617443 56.218882 
L 65.168352 56.218882 
L 65.168352 13.118211 
L 61.617443 13.118211 
z
" clip-path="url(#pb0dcd8f7c1)" style="fill: #0000ff"/>
   </g>
   <g id="patch_87">
    <path d="M 66.05608 38.635685 
L 69.606989 38.635685 
L 69.606989 13.118219 
L 66.05608 13.118219 
z
" clip-path="url(#pb0dcd8f7c1)" style="fill: #0000ff"/>
   </g>
   <g id="patch_88">
    <path d="M 70.494716 47.341208 
L 74.045625 47.341208 
L 74.045625 13.118211 
L 70.494716 13.118211 
z
" clip-path="url(#pb0dcd8f7c1)" style="fill: #0000ff"/>
   </g>
   <g id="patch_89">
    <path d="M 74.933352 50.738992 
L 78.484261 50.738992 
L 78.484261 13.118211 
L 74.933352 13.118211 
z
" clip-path="url(#pb0dcd8f7c1)" style="fill: #0000ff"/>
   </g>
   <g id="patch_90">
    <path d="M 79.371989 68.378912 
L 82.922898 68.378912 
L 82.922898 13.118211 
L 79.371989 13.118211 
z
" clip-path="url(#pb0dcd8f7c1)" style="fill: #0000ff"/>
   </g>
   <g id="patch_91">
    <path d="M 83.810625 70.34533 
L 87.361534 70.34533 
L 87.361534 13.118183 
L 83.810625 13.118183 
z
" clip-path="url(#pb0dcd8f7c1)" style="fill: #0000ff"/>
   </g>
   <g id="patch_92">
    <path d="M 88.249261 56.362875 
L 91.80017 56.362875 
L 91.80017 13.118197 
L 88.249261 13.118197 
z
" clip-path="url(#pb0dcd8f7c1)" style="fill: #0000ff"/>
   </g>
   <g id="patch_93">
    <path d="M 92.687898 53.177194 
L 96.238807 53.177194 
L 96.238807 13.118211 
L 92.687898 13.118211 
z
" clip-path="url(#pb0dcd8f7c1)" style="fill: #0000ff"/>
   </g>
   <g id="patch_94">
    <path d="M 97.126534 62.251448 
L 100.677443 62.251448 
L 100.677443 13.118211 
L 97.126534 13.118211 
z
" clip-path="url(#pb0dcd8f7c1)" style="fill: #0000ff"/>
   </g>
   <g id="patch_95">
    <path d="M 101.56517 60.14072 
L 105.11608 60.14072 
L 105.11608 13.118219 
L 101.56517 13.118219 
z
" clip-path="url(#pb0dcd8f7c1)" style="fill: #0000ff"/>
   </g>
   <g id="patch_96">
    <path d="M 106.003807 58.678319 
L 109.554716 58.678319 
L 109.554716 13.118211 
L 106.003807 13.118211 
z
" clip-path="url(#pb0dcd8f7c1)" style="fill: #0000ff"/>
   </g>
   <g id="patch_97">
    <path d="M 110.442443 89.230662 
L 113.993352 89.230662 
L 113.993352 13.118211 
L 110.442443 13.118211 
z
" clip-path="url(#pb0dcd8f7c1)" style="fill: #0000ff"/>
   </g>
   <g id="patch_98">
    <path d="M 114.88108 58.540838 
L 118.431989 58.540838 
L 118.431989 13.118211 
L 114.88108 13.118211 
z
" clip-path="url(#pb0dcd8f7c1)" style="fill: #0000ff"/>
   </g>
   <g id="patch_99">
    <path d="M 119.319716 62.998857 
L 122.870625 62.998857 
L 122.870625 13.118226 
L 119.319716 13.118226 
z
" clip-path="url(#pb0dcd8f7c1)" style="fill: #0000ff"/>
   </g>
   <g id="patch_100">
    <path d="M 123.758352 40.183373 
L 127.309261 40.183373 
L 127.309261 13.118219 
L 123.758352 13.118219 
z
" clip-path="url(#pb0dcd8f7c1)" style="fill: #0000ff"/>
   </g>
   <g id="patch_101">
    <path d="M 128.196989 73.500667 
L 131.747898 73.500667 
L 131.747898 13.118211 
L 128.196989 13.118211 
z
" clip-path="url(#pb0dcd8f7c1)" style="fill: #0000ff"/>
   </g>
   <g id="patch_102">
    <path d="M 132.635625 60.901075 
L 136.186534 60.901075 
L 136.186534 13.118211 
L 132.635625 13.118211 
z
" clip-path="url(#pb0dcd8f7c1)" style="fill: #0000ff"/>
   </g>
   <g id="patch_103">
    <path d="M 137.074261 46.872875 
L 140.62517 46.872875 
L 140.62517 13.118219 
L 137.074261 13.118219 
z
" clip-path="url(#pb0dcd8f7c1)" style="fill: #0000ff"/>
   </g>
   <g id="patch_104">
    <path d="M 141.512898 52.267597 
L 145.063807 52.267597 
L 145.063807 13.118211 
L 141.512898 13.118211 
z
" clip-path="url(#pb0dcd8f7c1)" style="fill: #0000ff"/>
   </g>
   <g id="patch_105">
    <path d="M 145.951534 94.053557 
L 149.502443 94.053557 
L 149.502443 13.118211 
L 145.951534 13.118211 
z
" clip-path="url(#pb0dcd8f7c1)" style="fill: #0000ff"/>
   </g>
   <g id="patch_106">
    <path d="M 150.39017 55.850052 
L 153.94108 55.850052 
L 153.94108 13.118211 
L 150.39017 13.118211 
z
" clip-path="url(#pb0dcd8f7c1)" style="fill: #0000ff"/>
   </g>
   <g id="patch_107">
    <path d="M 154.828807 42.2793 
L 158.379716 42.2793 
L 158.379716 13.118226 
L 154.828807 13.118226 
z
" clip-path="url(#pb0dcd8f7c1)" style="fill: #0000ff"/>
   </g>
   <g id="patch_108">
    <path d="M 159.267443 102.560543 
L 162.818352 102.560543 
L 162.818352 13.118211 
L 159.267443 13.118211 
z
" clip-path="url(#pb0dcd8f7c1)" style="fill: #0000ff"/>
   </g>
   <g id="patch_109">
    <path d="M 163.70608 54.329547 
L 167.256989 54.329547 
L 167.256989 13.118211 
L 163.70608 13.118211 
z
" clip-path="url(#pb0dcd8f7c1)" style="fill: #0000ff"/>
   </g>
   <g id="patch_110">
    <path d="M 168.144716 43.589728 
L 171.695625 43.589728 
L 171.695625 13.118211 
L 168.144716 13.118211 
z
" clip-path="url(#pb0dcd8f7c1)" style="fill: #0000ff"/>
   </g>
   <g id="patch_111">
    <path d="M 172.583352 66.35194 
L 176.134261 66.35194 
L 176.134261 13.118211 
L 172.583352 13.118211 
z
" clip-path="url(#pb0dcd8f7c1)" style="fill: #0000ff"/>
   </g>
   <g id="patch_112">
    <path d="M 177.021989 97.939953 
L 180.572898 97.939953 
L 180.572898 13.118211 
L 177.021989 13.118211 
z
" clip-path="url(#pb0dcd8f7c1)" style="fill: #0000ff"/>
   </g>
   <g id="patch_113">
    <path d="M 181.460625 69.056899 
L 185.011534 69.056899 
L 185.011534 13.118211 
L 181.460625 13.118211 
z
" clip-path="url(#pb0dcd8f7c1)" style="fill: #0000ff"/>
   </g>
   <g id="patch_114">
    <path d="M 185.899261 52.993523 
L 189.45017 52.993523 
L 189.45017 13.118197 
L 185.899261 13.118197 
z
" clip-path="url(#pb0dcd8f7c1)" style="fill: #0000ff"/>
   </g>
   <g id="patch_115">
    <path d="M 190.337898 56.120055 
L 193.888807 56.120055 
L 193.888807 13.118211 
L 190.337898 13.118211 
z
" clip-path="url(#pb0dcd8f7c1)" style="fill: #0000ff"/>
   </g>
   <g id="patch_116">
    <path d="M 194.776534 74.418332 
L 198.327443 74.418332 
L 198.327443 13.118211 
L 194.776534 13.118211 
z
" clip-path="url(#pb0dcd8f7c1)" style="fill: #0000ff"/>
   </g>
   <g id="patch_117">
    <path d="M 199.21517 43.84263 
L 202.76608 43.84263 
L 202.76608 13.118219 
L 199.21517 13.118219 
z
" clip-path="url(#pb0dcd8f7c1)" style="fill: #0000ff"/>
   </g>
   <g id="patch_118">
    <path d="M 203.653807 60.370248 
L 207.204716 60.370248 
L 207.204716 13.118219 
L 203.653807 13.118219 
z
" clip-path="url(#pb0dcd8f7c1)" style="fill: #0000ff"/>
   </g>
   <g id="patch_119">
    <path d="M 208.092443 44.092208 
L 211.643352 44.092208 
L 211.643352 13.118219 
L 208.092443 13.118219 
z
" clip-path="url(#pb0dcd8f7c1)" style="fill: #0000ff"/>
   </g>
   <g id="patch_120">
    <path d="M 212.53108 44.045695 
L 216.081989 44.045695 
L 216.081989 13.118211 
L 212.53108 13.118211 
z
" clip-path="url(#pb0dcd8f7c1)" style="fill: #0000ff"/>
   </g>
   <g id="patch_121">
    <path d="M 216.969716 43.296134 
L 220.520625 43.296134 
L 220.520625 13.118233 
L 216.969716 13.118233 
z
" clip-path="url(#pb0dcd8f7c1)" style="fill: #0000ff"/>
   </g>
   <g id="patch_122">
    <path d="M 221.408352 90.157657 
L 224.959261 90.157657 
L 224.959261 13.118211 
L 221.408352 13.118211 
z
" clip-path="url(#pb0dcd8f7c1)" style="fill: #0000ff"/>
   </g>
   <g id="patch_123">
    <path d="M 225.846989 100.565575 
L 229.397898 100.565575 
L 229.397898 13.118211 
L 225.846989 13.118211 
z
" clip-path="url(#pb0dcd8f7c1)" style="fill: #0000ff"/>
   </g>
   <g id="patch_124">
    <path d="M 230.285625 80.039943 
L 233.836534 80.039943 
L 233.836534 13.118211 
L 230.285625 13.118211 
z
" clip-path="url(#pb0dcd8f7c1)" style="fill: #0000ff"/>
   </g>
   <g id="patch_125">
    <path d="M 234.724261 94.577011 
L 238.27517 94.577011 
L 238.27517 13.118211 
L 234.724261 13.118211 
z
" clip-path="url(#pb0dcd8f7c1)" style="fill: #0000ff"/>
   </g>
   <g id="patch_126">
    <path d="M 239.162898 90.992964 
L 242.713807 90.992964 
L 242.713807 13.118197 
L 239.162898 13.118197 
z
" clip-path="url(#pb0dcd8f7c1)" style="fill: #0000ff"/>
   </g>
   <g id="patch_127">
    <path d="M 243.601534 84.388017 
L 247.152443 84.388017 
L 247.152443 13.118226 
L 243.601534 13.118226 
z
" clip-path="url(#pb0dcd8f7c1)" style="fill: #0000ff"/>
   </g>
   <g id="patch_128">
    <path d="M 248.04017 70.67633 
L 251.59108 70.67633 
L 251.59108 13.118211 
L 248.04017 13.118211 
z
" clip-path="url(#pb0dcd8f7c1)" style="fill: #0000ff"/>
   </g>
   <g id="patch_129">
    <path d="M 252.478807 95.517774 
L 256.029716 95.517774 
L 256.029716 13.118211 
L 252.478807 13.118211 
z
" clip-path="url(#pb0dcd8f7c1)" style="fill: #0000ff"/>
   </g>
   <g id="patch_130">
    <path d="M 256.917443 73.808916 
L 260.468352 73.808916 
L 260.468352 13.118211 
L 256.917443 13.118211 
z
" clip-path="url(#pb0dcd8f7c1)" style="fill: #0000ff"/>
   </g>
   <g id="patch_131">
    <path d="M 261.35608 81.967012 
L 264.906989 81.967012 
L 264.906989 13.118219 
L 261.35608 13.118219 
z
" clip-path="url(#pb0dcd8f7c1)" style="fill: #0000ff"/>
   </g>
   <g id="patch_132">
    <path d="M 265.794716 98.878846 
L 269.345625 98.878846 
L 269.345625 13.118211 
L 265.794716 13.118211 
z
" clip-path="url(#pb0dcd8f7c1)" style="fill: #0000ff"/>
   </g>
   <g id="patch_133">
    <path d="M 270.233352 66.827174 
L 273.784261 66.827174 
L 273.784261 13.118211 
L 270.233352 13.118211 
z
" clip-path="url(#pb0dcd8f7c1)" style="fill: #0000ff"/>
   </g>
   <g id="patch_134">
    <path d="M 274.671989 83.982198 
L 278.222898 83.982198 
L 278.222898 13.118226 
L 274.671989 13.118226 
z
" clip-path="url(#pb0dcd8f7c1)" style="fill: #0000ff"/>
   </g>
   <g id="patch_135">
    <path d="M 279.110625 97.409204 
L 282.661534 97.409204 
L 282.661534 13.118211 
L 279.110625 13.118211 
z
" clip-path="url(#pb0dcd8f7c1)" style="fill: #0000ff"/>
   </g>
   <g id="patch_136">
    <path d="M 283.549261 57.053435 
L 287.10017 57.053435 
L 287.10017 13.118211 
L 283.549261 13.118211 
z
" clip-path="url(#pb0dcd8f7c1)" style="fill: #0000ff"/>
   </g>
   <g id="patch_137">
    <path d="M 287.987898 98.204383 
L 291.538807 98.204383 
L 291.538807 13.118197 
L 287.987898 13.118197 
z
" clip-path="url(#pb0dcd8f7c1)" style="fill: #0000ff"/>
   </g>
   <g id="patch_138">
    <path d="M 292.426534 73.101251 
L 295.977443 73.101251 
L 295.977443 13.118226 
L 292.426534 13.118226 
z
" clip-path="url(#pb0dcd8f7c1)" style="fill: #0000ff"/>
   </g>
   <g id="patch_139">
    <path d="M 296.86517 90.035439 
L 300.41608 90.035439 
L 300.41608 13.118211 
L 296.86517 13.118211 
z
" clip-path="url(#pb0dcd8f7c1)" style="fill: #0000ff"/>
   </g>
   <g id="patch_140">
    <path d="M 301.303807 91.364066 
L 304.854716 91.364066 
L 304.854716 13.118226 
L 301.303807 13.118226 
z
" clip-path="url(#pb0dcd8f7c1)" style="fill: #0000ff"/>
   </g>
   <g id="patch_141">
    <path d="M 305.742443 100.749394 
L 309.293352 100.749394 
L 309.293352 13.118211 
L 305.742443 13.118211 
z
" clip-path="url(#pb0dcd8f7c1)" style="fill: #0000ff"/>
   </g>
   <g id="patch_142">
    <path d="M 310.18108 97.807756 
L 313.731989 97.807756 
L 313.731989 13.118211 
L 310.18108 13.118211 
z
" clip-path="url(#pb0dcd8f7c1)" style="fill: #0000ff"/>
   </g>
   <g id="patch_143">
    <path d="M 314.619716 105.297784 
L 318.170625 105.297784 
L 318.170625 13.118197 
L 314.619716 13.118197 
z
" clip-path="url(#pb0dcd8f7c1)" style="fill: #0000ff"/>
   </g>
   <g id="patch_144">
    <path d="M 319.058352 92.78566 
L 322.609261 92.78566 
L 322.609261 13.118211 
L 319.058352 13.118211 
z
" clip-path="url(#pb0dcd8f7c1)" style="fill: #0000ff"/>
   </g>
   <g id="patch_145">
    <path d="M 323.496989 105.124666 
L 327.047898 105.124666 
L 327.047898 13.118211 
L 323.496989 13.118211 
z
" clip-path="url(#pb0dcd8f7c1)" style="fill: #0000ff"/>
   </g>
   <g id="patch_146">
    <path d="M 327.935625 99.796281 
L 331.486534 99.796281 
L 331.486534 13.118211 
L 327.935625 13.118211 
z
" clip-path="url(#pb0dcd8f7c1)" style="fill: #0000ff"/>
   </g>
   <g id="patch_147">
    <path d="M 332.374261 69.639644 
L 335.92517 69.639644 
L 335.92517 13.118211 
L 332.374261 13.118211 
z
" clip-path="url(#pb0dcd8f7c1)" style="fill: #0000ff"/>
   </g>
   <g id="patch_148">
    <path d="M 336.812898 96.651562 
L 340.363807 96.651562 
L 340.363807 13.118219 
L 336.812898 13.118219 
z
" clip-path="url(#pb0dcd8f7c1)" style="fill: #0000ff"/>
   </g>
   <g id="patch_149">
    <path d="M 341.251534 82.676088 
L 344.802443 82.676088 
L 344.802443 13.118211 
L 341.251534 13.118211 
z
" clip-path="url(#pb0dcd8f7c1)" style="fill: #0000ff"/>
   </g>
   <g id="patch_150">
    <path d="M 345.69017 61.700832 
L 349.24108 61.700832 
L 349.24108 13.118211 
L 345.69017 13.118211 
z
" clip-path="url(#pb0dcd8f7c1)" style="fill: #0000ff"/>
   </g>
   <g id="patch_151">
    <path d="M 350.128807 91.144478 
L 353.679716 91.144478 
L 353.679716 13.118197 
L 350.128807 13.118197 
z
" clip-path="url(#pb0dcd8f7c1)" style="fill: #0000ff"/>
   </g>
   <g id="patch_152">
    <path d="M 354.567443 82.337073 
L 358.118352 82.337073 
L 358.118352 13.118226 
L 354.567443 13.118226 
z
" clip-path="url(#pb0dcd8f7c1)" style="fill: #0000ff"/>
   </g>
   <g id="patch_153">
    <path d="M 359.00608 56.615826 
L 362.556989 56.615826 
L 362.556989 13.118211 
L 359.00608 13.118211 
z
" clip-path="url(#pb0dcd8f7c1)" style="fill: #0000ff"/>
   </g>
   <g id="patch_154">
    <path d="M 363.444716 102.119687 
L 366.995625 102.119687 
L 366.995625 13.118211 
L 363.444716 13.118211 
z
" clip-path="url(#pb0dcd8f7c1)" style="fill: #0000ff"/>
   </g>
   <g id="patch_155">
    <path d="M 367.883352 82.937159 
L 371.434261 82.937159 
L 371.434261 13.118211 
L 367.883352 13.118211 
z
" clip-path="url(#pb0dcd8f7c1)" style="fill: #0000ff"/>
   </g>
   <g id="patch_156">
    <path d="M 372.321989 100.153886 
L 375.872898 100.153886 
L 375.872898 13.118219 
L 372.321989 13.118219 
z
" clip-path="url(#pb0dcd8f7c1)" style="fill: #0000ff"/>
   </g>
   <g id="patch_157">
    <path d="M 376.760625 84.355017 
L 380.311534 84.355017 
L 380.311534 13.118211 
L 376.760625 13.118211 
z
" clip-path="url(#pb0dcd8f7c1)" style="fill: #0000ff"/>
   </g>
   <g id="patch_158">
    <path d="M 381.199261 89.368048 
L 384.75017 89.368048 
L 384.75017 13.118211 
L 381.199261 13.118211 
z
" clip-path="url(#pb0dcd8f7c1)" style="fill: #0000ff"/>
   </g>
   <g id="patch_159">
    <path d="M 385.637898 89.024035 
L 389.188807 89.024035 
L 389.188807 13.118211 
L 385.637898 13.118211 
z
" clip-path="url(#pb0dcd8f7c1)" style="fill: #0000ff"/>
   </g>
   <g id="patch_160">
    <path d="M 390.076534 94.055147 
L 393.627443 94.055147 
L 393.627443 13.118211 
L 390.076534 13.118211 
z
" clip-path="url(#pb0dcd8f7c1)" style="fill: #0000ff"/>
   </g>
   <g id="patch_161">
    <path d="M 394.51517 97.496725 
L 398.06608 97.496725 
L 398.06608 13.118219 
L 394.51517 13.118219 
z
" clip-path="url(#pb0dcd8f7c1)" style="fill: #0000ff"/>
   </g>
   <g id="patch_162">
    <path d="M 398.953807 91.307417 
L 402.504716 91.307417 
L 402.504716 13.118211 
L 398.953807 13.118211 
z
" clip-path="url(#pb0dcd8f7c1)" style="fill: #0000ff"/>
   </g>
   <g id="matplotlib.axis_1">
    <g id="xtick_1">
     <g id="line2d_1">
      <defs>
       <path id="m169ff42736" d="M 0 0 
L 0 3.5 
" style="stroke: #000000; stroke-width: 0.8"/>
      </defs>
      <g>
       <use xlink:href="#m169ff42736" x="50.076989" y="131.481848" style="stroke: #000000; stroke-width: 0.8"/>
      </g>
     </g>
     <g id="text_1">
      <!-- 0 -->
      <g transform="translate(46.895739 146.080285) scale(0.1 -0.1)">
       <defs>
        <path id="DejaVuSans-30" d="M 2034 4250 
Q 1547 4250 1301 3770 
Q 1056 3291 1056 2328 
Q 1056 1369 1301 889 
Q 1547 409 2034 409 
Q 2525 409 2770 889 
Q 3016 1369 3016 2328 
Q 3016 3291 2770 3770 
Q 2525 4250 2034 4250 
z
M 2034 4750 
Q 2819 4750 3233 4129 
Q 3647 3509 3647 2328 
Q 3647 1150 3233 529 
Q 2819 -91 2034 -91 
Q 1250 -91 836 529 
Q 422 1150 422 2328 
Q 422 3509 836 4129 
Q 1250 4750 2034 4750 
z
" transform="scale(0.015625)"/>
       </defs>
       <use xlink:href="#DejaVuSans-30"/>
      </g>
     </g>
    </g>
    <g id="xtick_2">
     <g id="line2d_2">
      <g>
       <use xlink:href="#m169ff42736" x="94.463352" y="131.481848" style="stroke: #000000; stroke-width: 0.8"/>
      </g>
     </g>
     <g id="text_2">
      <!-- 10 -->
      <g transform="translate(88.100852 146.080285) scale(0.1 -0.1)">
       <defs>
        <path id="DejaVuSans-31" d="M 794 531 
L 1825 531 
L 1825 4091 
L 703 3866 
L 703 4441 
L 1819 4666 
L 2450 4666 
L 2450 531 
L 3481 531 
L 3481 0 
L 794 0 
L 794 531 
z
" transform="scale(0.015625)"/>
       </defs>
       <use xlink:href="#DejaVuSans-31"/>
       <use xlink:href="#DejaVuSans-30" transform="translate(63.623047 0)"/>
      </g>
     </g>
    </g>
    <g id="xtick_3">
     <g id="line2d_3">
      <g>
       <use xlink:href="#m169ff42736" x="138.849716" y="131.481848" style="stroke: #000000; stroke-width: 0.8"/>
      </g>
     </g>
     <g id="text_3">
      <!-- 20 -->
      <g transform="translate(132.487216 146.080285) scale(0.1 -0.1)">
       <defs>
        <path id="DejaVuSans-32" d="M 1228 531 
L 3431 531 
L 3431 0 
L 469 0 
L 469 531 
Q 828 903 1448 1529 
Q 2069 2156 2228 2338 
Q 2531 2678 2651 2914 
Q 2772 3150 2772 3378 
Q 2772 3750 2511 3984 
Q 2250 4219 1831 4219 
Q 1534 4219 1204 4116 
Q 875 4013 500 3803 
L 500 4441 
Q 881 4594 1212 4672 
Q 1544 4750 1819 4750 
Q 2544 4750 2975 4387 
Q 3406 4025 3406 3419 
Q 3406 3131 3298 2873 
Q 3191 2616 2906 2266 
Q 2828 2175 2409 1742 
Q 1991 1309 1228 531 
z
" transform="scale(0.015625)"/>
       </defs>
       <use xlink:href="#DejaVuSans-32"/>
       <use xlink:href="#DejaVuSans-30" transform="translate(63.623047 0)"/>
      </g>
     </g>
    </g>
    <g id="xtick_4">
     <g id="line2d_4">
      <g>
       <use xlink:href="#m169ff42736" x="183.23608" y="131.481848" style="stroke: #000000; stroke-width: 0.8"/>
      </g>
     </g>
     <g id="text_4">
      <!-- 30 -->
      <g transform="translate(176.87358 146.080285) scale(0.1 -0.1)">
       <defs>
        <path id="DejaVuSans-33" d="M 2597 2516 
Q 3050 2419 3304 2112 
Q 3559 1806 3559 1356 
Q 3559 666 3084 287 
Q 2609 -91 1734 -91 
Q 1441 -91 1130 -33 
Q 819 25 488 141 
L 488 750 
Q 750 597 1062 519 
Q 1375 441 1716 441 
Q 2309 441 2620 675 
Q 2931 909 2931 1356 
Q 2931 1769 2642 2001 
Q 2353 2234 1838 2234 
L 1294 2234 
L 1294 2753 
L 1863 2753 
Q 2328 2753 2575 2939 
Q 2822 3125 2822 3475 
Q 2822 3834 2567 4026 
Q 2313 4219 1838 4219 
Q 1578 4219 1281 4162 
Q 984 4106 628 3988 
L 628 4550 
Q 988 4650 1302 4700 
Q 1616 4750 1894 4750 
Q 2613 4750 3031 4423 
Q 3450 4097 3450 3541 
Q 3450 3153 3228 2886 
Q 3006 2619 2597 2516 
z
" transform="scale(0.015625)"/>
       </defs>
       <use xlink:href="#DejaVuSans-33"/>
       <use xlink:href="#DejaVuSans-30" transform="translate(63.623047 0)"/>
      </g>
     </g>
    </g>
    <g id="xtick_5">
     <g id="line2d_5">
      <g>
       <use xlink:href="#m169ff42736" x="227.622443" y="131.481848" style="stroke: #000000; stroke-width: 0.8"/>
      </g>
     </g>
     <g id="text_5">
      <!-- 40 -->
      <g transform="translate(221.259943 146.080285) scale(0.1 -0.1)">
       <defs>
        <path id="DejaVuSans-34" d="M 2419 4116 
L 825 1625 
L 2419 1625 
L 2419 4116 
z
M 2253 4666 
L 3047 4666 
L 3047 1625 
L 3713 1625 
L 3713 1100 
L 3047 1100 
L 3047 0 
L 2419 0 
L 2419 1100 
L 313 1100 
L 313 1709 
L 2253 4666 
z
" transform="scale(0.015625)"/>
       </defs>
       <use xlink:href="#DejaVuSans-34"/>
       <use xlink:href="#DejaVuSans-30" transform="translate(63.623047 0)"/>
      </g>
     </g>
    </g>
    <g id="xtick_6">
     <g id="line2d_6">
      <g>
       <use xlink:href="#m169ff42736" x="272.008807" y="131.481848" style="stroke: #000000; stroke-width: 0.8"/>
      </g>
     </g>
     <g id="text_6">
      <!-- 50 -->
      <g transform="translate(265.646307 146.080285) scale(0.1 -0.1)">
       <defs>
        <path id="DejaVuSans-35" d="M 691 4666 
L 3169 4666 
L 3169 4134 
L 1269 4134 
L 1269 2991 
Q 1406 3038 1543 3061 
Q 1681 3084 1819 3084 
Q 2600 3084 3056 2656 
Q 3513 2228 3513 1497 
Q 3513 744 3044 326 
Q 2575 -91 1722 -91 
Q 1428 -91 1123 -41 
Q 819 9 494 109 
L 494 744 
Q 775 591 1075 516 
Q 1375 441 1709 441 
Q 2250 441 2565 725 
Q 2881 1009 2881 1497 
Q 2881 1984 2565 2268 
Q 2250 2553 1709 2553 
Q 1456 2553 1204 2497 
Q 953 2441 691 2322 
L 691 4666 
z
" transform="scale(0.015625)"/>
       </defs>
       <use xlink:href="#DejaVuSans-35"/>
       <use xlink:href="#DejaVuSans-30" transform="translate(63.623047 0)"/>
      </g>
     </g>
    </g>
    <g id="xtick_7">
     <g id="line2d_7">
      <g>
       <use xlink:href="#m169ff42736" x="316.39517" y="131.481848" style="stroke: #000000; stroke-width: 0.8"/>
      </g>
     </g>
     <g id="text_7">
      <!-- 60 -->
      <g transform="translate(310.03267 146.080285) scale(0.1 -0.1)">
       <defs>
        <path id="DejaVuSans-36" d="M 2113 2584 
Q 1688 2584 1439 2293 
Q 1191 2003 1191 1497 
Q 1191 994 1439 701 
Q 1688 409 2113 409 
Q 2538 409 2786 701 
Q 3034 994 3034 1497 
Q 3034 2003 2786 2293 
Q 2538 2584 2113 2584 
z
M 3366 4563 
L 3366 3988 
Q 3128 4100 2886 4159 
Q 2644 4219 2406 4219 
Q 1781 4219 1451 3797 
Q 1122 3375 1075 2522 
Q 1259 2794 1537 2939 
Q 1816 3084 2150 3084 
Q 2853 3084 3261 2657 
Q 3669 2231 3669 1497 
Q 3669 778 3244 343 
Q 2819 -91 2113 -91 
Q 1303 -91 875 529 
Q 447 1150 447 2328 
Q 447 3434 972 4092 
Q 1497 4750 2381 4750 
Q 2619 4750 2861 4703 
Q 3103 4656 3366 4563 
z
" transform="scale(0.015625)"/>
       </defs>
       <use xlink:href="#DejaVuSans-36"/>
       <use xlink:href="#DejaVuSans-30" transform="translate(63.623047 0)"/>
      </g>
     </g>
    </g>
    <g id="xtick_8">
     <g id="line2d_8">
      <g>
       <use xlink:href="#m169ff42736" x="360.781534" y="131.481848" style="stroke: #000000; stroke-width: 0.8"/>
      </g>
     </g>
     <g id="text_8">
      <!-- 70 -->
      <g transform="translate(354.419034 146.080285) scale(0.1 -0.1)">
       <defs>
        <path id="DejaVuSans-37" d="M 525 4666 
L 3525 4666 
L 3525 4397 
L 1831 0 
L 1172 0 
L 2766 4134 
L 525 4134 
L 525 4666 
z
" transform="scale(0.015625)"/>
       </defs>
       <use xlink:href="#DejaVuSans-37"/>
       <use xlink:href="#DejaVuSans-30" transform="translate(63.623047 0)"/>
      </g>
     </g>
    </g>
    <g id="xtick_9">
     <g id="line2d_9">
      <g>
       <use xlink:href="#m169ff42736" x="405.167898" y="131.481848" style="stroke: #000000; stroke-width: 0.8"/>
      </g>
     </g>
     <g id="text_9">
      <!-- 80 -->
      <g transform="translate(398.805398 146.080285) scale(0.1 -0.1)">
       <defs>
        <path id="DejaVuSans-38" d="M 2034 2216 
Q 1584 2216 1326 1975 
Q 1069 1734 1069 1313 
Q 1069 891 1326 650 
Q 1584 409 2034 409 
Q 2484 409 2743 651 
Q 3003 894 3003 1313 
Q 3003 1734 2745 1975 
Q 2488 2216 2034 2216 
z
M 1403 2484 
Q 997 2584 770 2862 
Q 544 3141 544 3541 
Q 544 4100 942 4425 
Q 1341 4750 2034 4750 
Q 2731 4750 3128 4425 
Q 3525 4100 3525 3541 
Q 3525 3141 3298 2862 
Q 3072 2584 2669 2484 
Q 3125 2378 3379 2068 
Q 3634 1759 3634 1313 
Q 3634 634 3220 271 
Q 2806 -91 2034 -91 
Q 1263 -91 848 271 
Q 434 634 434 1313 
Q 434 1759 690 2068 
Q 947 2378 1403 2484 
z
M 1172 3481 
Q 1172 3119 1398 2916 
Q 1625 2713 2034 2713 
Q 2441 2713 2670 2916 
Q 2900 3119 2900 3481 
Q 2900 3844 2670 4047 
Q 2441 4250 2034 4250 
Q 1625 4250 1398 4047 
Q 1172 3844 1172 3481 
z
" transform="scale(0.015625)"/>
       </defs>
       <use xlink:href="#DejaVuSans-38"/>
       <use xlink:href="#DejaVuSans-30" transform="translate(63.623047 0)"/>
      </g>
     </g>
    </g>
   </g>
   <g id="matplotlib.axis_2">
    <g id="ytick_1">
     <g id="line2d_10">
      <defs>
       <path id="m5d511a9a1e" d="M 0 0 
L -3.5 0 
" style="stroke: #000000; stroke-width: 0.8"/>
      </defs>
      <g>
       <use xlink:href="#m5d511a9a1e" x="30.103125" y="131.481848" style="stroke: #000000; stroke-width: 0.8"/>
      </g>
     </g>
     <g id="text_10">
      <!-- 0.0 -->
      <g transform="translate(7.2 135.281067) scale(0.1 -0.1)">
       <defs>
        <path id="DejaVuSans-2e" d="M 684 794 
L 1344 794 
L 1344 0 
L 684 0 
L 684 794 
z
" transform="scale(0.015625)"/>
       </defs>
       <use xlink:href="#DejaVuSans-30"/>
       <use xlink:href="#DejaVuSans-2e" transform="translate(63.623047 0)"/>
       <use xlink:href="#DejaVuSans-30" transform="translate(95.410156 0)"/>
      </g>
     </g>
    </g>
    <g id="ytick_2">
     <g id="line2d_11">
      <g>
       <use xlink:href="#m5d511a9a1e" x="30.103125" y="107.809121" style="stroke: #000000; stroke-width: 0.8"/>
      </g>
     </g>
     <g id="text_11">
      <!-- 0.2 -->
      <g transform="translate(7.2 111.608339) scale(0.1 -0.1)">
       <use xlink:href="#DejaVuSans-30"/>
       <use xlink:href="#DejaVuSans-2e" transform="translate(63.623047 0)"/>
       <use xlink:href="#DejaVuSans-32" transform="translate(95.410156 0)"/>
      </g>
     </g>
    </g>
    <g id="ytick_3">
     <g id="line2d_12">
      <g>
       <use xlink:href="#m5d511a9a1e" x="30.103125" y="84.136393" style="stroke: #000000; stroke-width: 0.8"/>
      </g>
     </g>
     <g id="text_12">
      <!-- 0.4 -->
      <g transform="translate(7.2 87.935612) scale(0.1 -0.1)">
       <use xlink:href="#DejaVuSans-30"/>
       <use xlink:href="#DejaVuSans-2e" transform="translate(63.623047 0)"/>
       <use xlink:href="#DejaVuSans-34" transform="translate(95.410156 0)"/>
      </g>
     </g>
    </g>
    <g id="ytick_4">
     <g id="line2d_13">
      <g>
       <use xlink:href="#m5d511a9a1e" x="30.103125" y="60.463666" style="stroke: #000000; stroke-width: 0.8"/>
      </g>
     </g>
     <g id="text_13">
      <!-- 0.6 -->
      <g transform="translate(7.2 64.262885) scale(0.1 -0.1)">
       <use xlink:href="#DejaVuSans-30"/>
       <use xlink:href="#DejaVuSans-2e" transform="translate(63.623047 0)"/>
       <use xlink:href="#DejaVuSans-36" transform="translate(95.410156 0)"/>
      </g>
     </g>
    </g>
    <g id="ytick_5">
     <g id="line2d_14">
      <g>
       <use xlink:href="#m5d511a9a1e" x="30.103125" y="36.790939" style="stroke: #000000; stroke-width: 0.8"/>
      </g>
     </g>
     <g id="text_14">
      <!-- 0.8 -->
      <g transform="translate(7.2 40.590157) scale(0.1 -0.1)">
       <use xlink:href="#DejaVuSans-30"/>
       <use xlink:href="#DejaVuSans-2e" transform="translate(63.623047 0)"/>
       <use xlink:href="#DejaVuSans-38" transform="translate(95.410156 0)"/>
      </g>
     </g>
    </g>
    <g id="ytick_6">
     <g id="line2d_15">
      <g>
       <use xlink:href="#m5d511a9a1e" x="30.103125" y="13.118211" style="stroke: #000000; stroke-width: 0.8"/>
      </g>
     </g>
     <g id="text_15">
      <!-- 1.0 -->
      <g transform="translate(7.2 16.91743) scale(0.1 -0.1)">
       <use xlink:href="#DejaVuSans-31"/>
       <use xlink:href="#DejaVuSans-2e" transform="translate(63.623047 0)"/>
       <use xlink:href="#DejaVuSans-30" transform="translate(95.410156 0)"/>
      </g>
     </g>
    </g>
   </g>
   <g id="line2d_16">
    <path d="M 47.85767 72.30003 
L 402.94858 72.30003 
" clip-path="url(#pb0dcd8f7c1)" style="fill: none; stroke: #ff0000; stroke-linecap: square"/>
   </g>
   <g id="patch_163">
    <path d="M 30.103125 131.481848 
L 30.103125 7.2 
" style="fill: none; stroke: #000000; stroke-width: 0.8; stroke-linejoin: miter; stroke-linecap: square"/>
   </g>
   <g id="patch_164">
    <path d="M 420.703125 131.481848 
L 420.703125 7.2 
" style="fill: none; stroke: #000000; stroke-width: 0.8; stroke-linejoin: miter; stroke-linecap: square"/>
   </g>
   <g id="patch_165">
    <path d="M 30.103125 131.481848 
L 420.703125 131.481848 
" style="fill: none; stroke: #000000; stroke-width: 0.8; stroke-linejoin: miter; stroke-linecap: square"/>
   </g>
   <g id="patch_166">
    <path d="M 30.103125 7.2 
L 420.703125 7.2 
" style="fill: none; stroke: #000000; stroke-width: 0.8; stroke-linejoin: miter; stroke-linecap: square"/>
   </g>
   <g id="legend_1">
    <g id="patch_167">
     <path d="M 348.735937 44.55625 
L 413.703125 44.55625 
Q 415.703125 44.55625 415.703125 42.55625 
L 415.703125 14.2 
Q 415.703125 12.2 413.703125 12.2 
L 348.735937 12.2 
Q 346.735937 12.2 346.735937 14.2 
L 346.735937 42.55625 
Q 346.735937 44.55625 348.735937 44.55625 
z
" style="fill: #ffffff; opacity: 0.8; stroke: #cccccc; stroke-linejoin: miter"/>
    </g>
    <g id="patch_168">
     <path d="M 350.735937 23.798437 
L 370.735937 23.798437 
L 370.735937 16.798437 
L 350.735937 16.798437 
z
" style="fill: #bfbf00"/>
    </g>
    <g id="text_16">
     <!-- p(dog) -->
     <g transform="translate(378.735937 23.798437) scale(0.1 -0.1)">
      <defs>
       <path id="DejaVuSans-70" d="M 1159 525 
L 1159 -1331 
L 581 -1331 
L 581 3500 
L 1159 3500 
L 1159 2969 
Q 1341 3281 1617 3432 
Q 1894 3584 2278 3584 
Q 2916 3584 3314 3078 
Q 3713 2572 3713 1747 
Q 3713 922 3314 415 
Q 2916 -91 2278 -91 
Q 1894 -91 1617 61 
Q 1341 213 1159 525 
z
M 3116 1747 
Q 3116 2381 2855 2742 
Q 2594 3103 2138 3103 
Q 1681 3103 1420 2742 
Q 1159 2381 1159 1747 
Q 1159 1113 1420 752 
Q 1681 391 2138 391 
Q 2594 391 2855 752 
Q 3116 1113 3116 1747 
z
" transform="scale(0.015625)"/>
       <path id="DejaVuSans-28" d="M 1984 4856 
Q 1566 4138 1362 3434 
Q 1159 2731 1159 2009 
Q 1159 1288 1364 580 
Q 1569 -128 1984 -844 
L 1484 -844 
Q 1016 -109 783 600 
Q 550 1309 550 2009 
Q 550 2706 781 3412 
Q 1013 4119 1484 4856 
L 1984 4856 
z
" transform="scale(0.015625)"/>
       <path id="DejaVuSans-64" d="M 2906 2969 
L 2906 4863 
L 3481 4863 
L 3481 0 
L 2906 0 
L 2906 525 
Q 2725 213 2448 61 
Q 2172 -91 1784 -91 
Q 1150 -91 751 415 
Q 353 922 353 1747 
Q 353 2572 751 3078 
Q 1150 3584 1784 3584 
Q 2172 3584 2448 3432 
Q 2725 3281 2906 2969 
z
M 947 1747 
Q 947 1113 1208 752 
Q 1469 391 1925 391 
Q 2381 391 2643 752 
Q 2906 1113 2906 1747 
Q 2906 2381 2643 2742 
Q 2381 3103 1925 3103 
Q 1469 3103 1208 2742 
Q 947 2381 947 1747 
z
" transform="scale(0.015625)"/>
       <path id="DejaVuSans-6f" d="M 1959 3097 
Q 1497 3097 1228 2736 
Q 959 2375 959 1747 
Q 959 1119 1226 758 
Q 1494 397 1959 397 
Q 2419 397 2687 759 
Q 2956 1122 2956 1747 
Q 2956 2369 2687 2733 
Q 2419 3097 1959 3097 
z
M 1959 3584 
Q 2709 3584 3137 3096 
Q 3566 2609 3566 1747 
Q 3566 888 3137 398 
Q 2709 -91 1959 -91 
Q 1206 -91 779 398 
Q 353 888 353 1747 
Q 353 2609 779 3096 
Q 1206 3584 1959 3584 
z
" transform="scale(0.015625)"/>
       <path id="DejaVuSans-67" d="M 2906 1791 
Q 2906 2416 2648 2759 
Q 2391 3103 1925 3103 
Q 1463 3103 1205 2759 
Q 947 2416 947 1791 
Q 947 1169 1205 825 
Q 1463 481 1925 481 
Q 2391 481 2648 825 
Q 2906 1169 2906 1791 
z
M 3481 434 
Q 3481 -459 3084 -895 
Q 2688 -1331 1869 -1331 
Q 1566 -1331 1297 -1286 
Q 1028 -1241 775 -1147 
L 775 -588 
Q 1028 -725 1275 -790 
Q 1522 -856 1778 -856 
Q 2344 -856 2625 -561 
Q 2906 -266 2906 331 
L 2906 616 
Q 2728 306 2450 153 
Q 2172 0 1784 0 
Q 1141 0 747 490 
Q 353 981 353 1791 
Q 353 2603 747 3093 
Q 1141 3584 1784 3584 
Q 2172 3584 2450 3431 
Q 2728 3278 2906 2969 
L 2906 3500 
L 3481 3500 
L 3481 434 
z
" transform="scale(0.015625)"/>
       <path id="DejaVuSans-29" d="M 513 4856 
L 1013 4856 
Q 1481 4119 1714 3412 
Q 1947 2706 1947 2009 
Q 1947 1309 1714 600 
Q 1481 -109 1013 -844 
L 513 -844 
Q 928 -128 1133 580 
Q 1338 1288 1338 2009 
Q 1338 2731 1133 3434 
Q 928 4138 513 4856 
z
" transform="scale(0.015625)"/>
      </defs>
      <use xlink:href="#DejaVuSans-70"/>
      <use xlink:href="#DejaVuSans-28" transform="translate(63.476562 0)"/>
      <use xlink:href="#DejaVuSans-64" transform="translate(102.490234 0)"/>
      <use xlink:href="#DejaVuSans-6f" transform="translate(165.966797 0)"/>
      <use xlink:href="#DejaVuSans-67" transform="translate(227.148438 0)"/>
      <use xlink:href="#DejaVuSans-29" transform="translate(290.625 0)"/>
     </g>
    </g>
    <g id="patch_169">
     <path d="M 350.735937 38.476562 
L 370.735937 38.476562 
L 370.735937 31.476562 
L 350.735937 31.476562 
z
" style="fill: #0000ff"/>
    </g>
    <g id="text_17">
     <!-- p(cat) -->
     <g transform="translate(378.735937 38.476562) scale(0.1 -0.1)">
      <defs>
       <path id="DejaVuSans-63" d="M 3122 3366 
L 3122 2828 
Q 2878 2963 2633 3030 
Q 2388 3097 2138 3097 
Q 1578 3097 1268 2742 
Q 959 2388 959 1747 
Q 959 1106 1268 751 
Q 1578 397 2138 397 
Q 2388 397 2633 464 
Q 2878 531 3122 666 
L 3122 134 
Q 2881 22 2623 -34 
Q 2366 -91 2075 -91 
Q 1284 -91 818 406 
Q 353 903 353 1747 
Q 353 2603 823 3093 
Q 1294 3584 2113 3584 
Q 2378 3584 2631 3529 
Q 2884 3475 3122 3366 
z
" transform="scale(0.015625)"/>
       <path id="DejaVuSans-61" d="M 2194 1759 
Q 1497 1759 1228 1600 
Q 959 1441 959 1056 
Q 959 750 1161 570 
Q 1363 391 1709 391 
Q 2188 391 2477 730 
Q 2766 1069 2766 1631 
L 2766 1759 
L 2194 1759 
z
M 3341 1997 
L 3341 0 
L 2766 0 
L 2766 531 
Q 2569 213 2275 61 
Q 1981 -91 1556 -91 
Q 1019 -91 701 211 
Q 384 513 384 1019 
Q 384 1609 779 1909 
Q 1175 2209 1959 2209 
L 2766 2209 
L 2766 2266 
Q 2766 2663 2505 2880 
Q 2244 3097 1772 3097 
Q 1472 3097 1187 3025 
Q 903 2953 641 2809 
L 641 3341 
Q 956 3463 1253 3523 
Q 1550 3584 1831 3584 
Q 2591 3584 2966 3190 
Q 3341 2797 3341 1997 
z
" transform="scale(0.015625)"/>
       <path id="DejaVuSans-74" d="M 1172 4494 
L 1172 3500 
L 2356 3500 
L 2356 3053 
L 1172 3053 
L 1172 1153 
Q 1172 725 1289 603 
Q 1406 481 1766 481 
L 2356 481 
L 2356 0 
L 1766 0 
Q 1100 0 847 248 
Q 594 497 594 1153 
L 594 3053 
L 172 3053 
L 172 3500 
L 594 3500 
L 594 4494 
L 1172 4494 
z
" transform="scale(0.015625)"/>
      </defs>
      <use xlink:href="#DejaVuSans-70"/>
      <use xlink:href="#DejaVuSans-28" transform="translate(63.476562 0)"/>
      <use xlink:href="#DejaVuSans-63" transform="translate(102.490234 0)"/>
      <use xlink:href="#DejaVuSans-61" transform="translate(157.470703 0)"/>
      <use xlink:href="#DejaVuSans-74" transform="translate(218.75 0)"/>
      <use xlink:href="#DejaVuSans-29" transform="translate(257.958984 0)"/>
     </g>
    </g>
   </g>
  </g>
 </g>
 <defs>
  <clipPath id="pb0dcd8f7c1">
   <rect x="30.103125" y="7.2" width="390.6" height="124.281848"/>
  </clipPath>
 </defs>
</svg>
