<?xml version="1.0" encoding="utf-8" standalone="no"?>
<!DOCTYPE svg PUBLIC "-//W3C//DTD SVG 1.1//EN"
  "http://www.w3.org/Graphics/SVG/1.1/DTD/svg11.dtd">
<svg xmlns:xlink="http://www.w3.org/1999/xlink" width="424.725pt" height="308.278125pt" viewBox="0 0 424.725 308.278125" xmlns="http://www.w3.org/2000/svg" version="1.1">
 <metadata>
  <rdf:RDF xmlns:dc="http://purl.org/dc/elements/1.1/" xmlns:cc="http://creativecommons.org/ns#" xmlns:rdf="http://www.w3.org/1999/02/22-rdf-syntax-ns#">
   <cc:Work>
    <dc:type rdf:resource="http://purl.org/dc/dcmitype/StillImage"/>
    <dc:date>2025-02-27T12:03:40.199303</dc:date>
    <dc:format>image/svg+xml</dc:format>
    <dc:creator>
     <cc:Agent>
      <dc:title>Matplotlib v3.10.0, https://matplotlib.org/</dc:title>
     </cc:Agent>
    </dc:creator>
   </cc:Work>
  </rdf:RDF>
 </metadata>
 <defs>
  <style type="text/css">*{stroke-linejoin: round; stroke-linecap: butt}</style>
 </defs>
 <g id="figure_1">
  <g id="patch_1">
   <path d="M 0 308.278125 
L 424.725 308.278125 
L 424.725 0 
L 0 0 
z
" style="fill: #ffffff"/>
  </g>
  <g id="axes_1">
   <g id="patch_2">
    <path d="M 26.925 284.4 
L 417.525 284.4 
L 417.525 7.2 
L 26.925 7.2 
z
" style="fill: #ffffff"/>
   </g>
   <g id="PathCollection_1">
    <defs>
     <path id="m8c8888b37e" d="M 0 3 
C 0.795609 3 1.55874 2.683901 2.12132 2.12132 
C 2.683901 1.55874 3 0.795609 3 0 
C 3 -0.795609 2.683901 -1.55874 2.12132 -2.12132 
C 1.55874 -2.683901 0.795609 -3 0 -3 
C -0.795609 -3 -1.55874 -2.683901 -2.12132 -2.12132 
C -2.683901 -1.55874 -3 -0.795609 -3 0 
C -3 0.795609 -2.683901 1.55874 -2.12132 2.12132 
C -1.55874 2.683901 -0.795609 3 0 3 
z
" style="stroke: #1f77b4"/>
    </defs>
    <g clip-path="url(#p7267b3e92b)">
     <use xlink:href="#m8c8888b37e" x="264.726264" y="208.630474" style="fill: #1f77b4; stroke: #1f77b4"/>
     <use xlink:href="#m8c8888b37e" x="355.78288" y="135.937608" style="fill: #1f77b4; stroke: #1f77b4"/>
     <use xlink:href="#m8c8888b37e" x="357.420092" y="101.753007" style="fill: #1f77b4; stroke: #1f77b4"/>
     <use xlink:href="#m8c8888b37e" x="367.91895" y="129.456278" style="fill: #1f77b4; stroke: #1f77b4"/>
     <use xlink:href="#m8c8888b37e" x="69.785656" y="254.135365" style="fill: #1f77b4; stroke: #1f77b4"/>
     <use xlink:href="#m8c8888b37e" x="365.334983" y="123.506582" style="fill: #1f77b4; stroke: #1f77b4"/>
     <use xlink:href="#m8c8888b37e" x="293.865323" y="177.24644" style="fill: #1f77b4; stroke: #1f77b4"/>
     <use xlink:href="#m8c8888b37e" x="65.745282" y="174.90209" style="fill: #1f77b4; stroke: #1f77b4"/>
     <use xlink:href="#m8c8888b37e" x="323.191759" y="140.034338" style="fill: #1f77b4; stroke: #1f77b4"/>
     <use xlink:href="#m8c8888b37e" x="139.542645" y="248.466629" style="fill: #1f77b4; stroke: #1f77b4"/>
     <use xlink:href="#m8c8888b37e" x="293.438887" y="232.987475" style="fill: #1f77b4; stroke: #1f77b4"/>
     <use xlink:href="#m8c8888b37e" x="264.629839" y="218.027011" style="fill: #1f77b4; stroke: #1f77b4"/>
     <use xlink:href="#m8c8888b37e" x="369.816331" y="81.065023" style="fill: #1f77b4; stroke: #1f77b4"/>
     <use xlink:href="#m8c8888b37e" x="264.910987" y="242.468474" style="fill: #1f77b4; stroke: #1f77b4"/>
     <use xlink:href="#m8c8888b37e" x="159.443222" y="265.514711" style="fill: #1f77b4; stroke: #1f77b4"/>
     <use xlink:href="#m8c8888b37e" x="81.463528" y="172.329827" style="fill: #1f77b4; stroke: #1f77b4"/>
     <use xlink:href="#m8c8888b37e" x="220.718463" y="232.296856" style="fill: #1f77b4; stroke: #1f77b4"/>
     <use xlink:href="#m8c8888b37e" x="188.586282" y="233.982154" style="fill: #1f77b4; stroke: #1f77b4"/>
     <use xlink:href="#m8c8888b37e" x="53.511607" y="218.548783" style="fill: #1f77b4; stroke: #1f77b4"/>
     <use xlink:href="#m8c8888b37e" x="81.584508" y="221.014467" style="fill: #1f77b4; stroke: #1f77b4"/>
     <use xlink:href="#m8c8888b37e" x="398.137522" y="41.824649" style="fill: #1f77b4; stroke: #1f77b4"/>
     <use xlink:href="#m8c8888b37e" x="138.983691" y="211.541245" style="fill: #1f77b4; stroke: #1f77b4"/>
     <use xlink:href="#m8c8888b37e" x="254.517982" y="196.107215" style="fill: #1f77b4; stroke: #1f77b4"/>
     <use xlink:href="#m8c8888b37e" x="48.822353" y="223.298833" style="fill: #1f77b4; stroke: #1f77b4"/>
     <use xlink:href="#m8c8888b37e" x="367.164577" y="92.060533" style="fill: #1f77b4; stroke: #1f77b4"/>
     <use xlink:href="#m8c8888b37e" x="103.79026" y="243.793618" style="fill: #1f77b4; stroke: #1f77b4"/>
     <use xlink:href="#m8c8888b37e" x="215.352514" y="233.323022" style="fill: #1f77b4; stroke: #1f77b4"/>
     <use xlink:href="#m8c8888b37e" x="111.162853" y="202.42691" style="fill: #1f77b4; stroke: #1f77b4"/>
     <use xlink:href="#m8c8888b37e" x="110.005866" y="226.917822" style="fill: #1f77b4; stroke: #1f77b4"/>
     <use xlink:href="#m8c8888b37e" x="87.461441" y="227.295659" style="fill: #1f77b4; stroke: #1f77b4"/>
     <use xlink:href="#m8c8888b37e" x="52.322357" y="222.530248" style="fill: #1f77b4; stroke: #1f77b4"/>
     <use xlink:href="#m8c8888b37e" x="177.124054" y="225.39757" style="fill: #1f77b4; stroke: #1f77b4"/>
     <use xlink:href="#m8c8888b37e" x="134.953481" y="225.808321" style="fill: #1f77b4; stroke: #1f77b4"/>
     <use xlink:href="#m8c8888b37e" x="82.065424" y="242.682585" style="fill: #1f77b4; stroke: #1f77b4"/>
     <use xlink:href="#m8c8888b37e" x="317.180981" y="139.079644" style="fill: #1f77b4; stroke: #1f77b4"/>
     <use xlink:href="#m8c8888b37e" x="101.505628" y="231.676741" style="fill: #1f77b4; stroke: #1f77b4"/>
     <use xlink:href="#m8c8888b37e" x="294.490062" y="131.527767" style="fill: #1f77b4; stroke: #1f77b4"/>
     <use xlink:href="#m8c8888b37e" x="384.512501" y="57.13956" style="fill: #1f77b4; stroke: #1f77b4"/>
     <use xlink:href="#m8c8888b37e" x="254.852462" y="271.8" style="fill: #1f77b4; stroke: #1f77b4"/>
     <use xlink:href="#m8c8888b37e" x="336.181049" y="114.018518" style="fill: #1f77b4; stroke: #1f77b4"/>
     <use xlink:href="#m8c8888b37e" x="113.434582" y="250.471491" style="fill: #1f77b4; stroke: #1f77b4"/>
     <use xlink:href="#m8c8888b37e" x="260.357004" y="245.202179" style="fill: #1f77b4; stroke: #1f77b4"/>
     <use xlink:href="#m8c8888b37e" x="121.086205" y="222.771056" style="fill: #1f77b4; stroke: #1f77b4"/>
     <use xlink:href="#m8c8888b37e" x="374.822895" y="61.589729" style="fill: #1f77b4; stroke: #1f77b4"/>
     <use xlink:href="#m8c8888b37e" x="375.78656" y="75.777299" style="fill: #1f77b4; stroke: #1f77b4"/>
     <use xlink:href="#m8c8888b37e" x="188.732518" y="247.228042" style="fill: #1f77b4; stroke: #1f77b4"/>
     <use xlink:href="#m8c8888b37e" x="185.210665" y="254.360626" style="fill: #1f77b4; stroke: #1f77b4"/>
     <use xlink:href="#m8c8888b37e" x="52.816422" y="176.140898" style="fill: #1f77b4; stroke: #1f77b4"/>
     <use xlink:href="#m8c8888b37e" x="95.08265" y="224.819151" style="fill: #1f77b4; stroke: #1f77b4"/>
     <use xlink:href="#m8c8888b37e" x="192.314701" y="246.336614" style="fill: #1f77b4; stroke: #1f77b4"/>
     <use xlink:href="#m8c8888b37e" x="353.976056" y="115.615966" style="fill: #1f77b4; stroke: #1f77b4"/>
     <use xlink:href="#m8c8888b37e" x="61.80907" y="206.982295" style="fill: #1f77b4; stroke: #1f77b4"/>
     <use xlink:href="#m8c8888b37e" x="348.891885" y="130.643077" style="fill: #1f77b4; stroke: #1f77b4"/>
     <use xlink:href="#m8c8888b37e" x="247.405792" y="232.526049" style="fill: #1f77b4; stroke: #1f77b4"/>
     <use xlink:href="#m8c8888b37e" x="69.514452" y="251.546868" style="fill: #1f77b4; stroke: #1f77b4"/>
     <use xlink:href="#m8c8888b37e" x="162.117707" y="226.876367" style="fill: #1f77b4; stroke: #1f77b4"/>
     <use xlink:href="#m8c8888b37e" x="355.032585" y="93.009012" style="fill: #1f77b4; stroke: #1f77b4"/>
     <use xlink:href="#m8c8888b37e" x="272.033145" y="180.635059" style="fill: #1f77b4; stroke: #1f77b4"/>
     <use xlink:href="#m8c8888b37e" x="399.770455" y="71.765348" style="fill: #1f77b4; stroke: #1f77b4"/>
     <use xlink:href="#m8c8888b37e" x="178.129452" y="261.418799" style="fill: #1f77b4; stroke: #1f77b4"/>
     <use xlink:href="#m8c8888b37e" x="342.646208" y="99.621506" style="fill: #1f77b4; stroke: #1f77b4"/>
     <use xlink:href="#m8c8888b37e" x="276.189654" y="177.318675" style="fill: #1f77b4; stroke: #1f77b4"/>
     <use xlink:href="#m8c8888b37e" x="336.922697" y="144.37115" style="fill: #1f77b4; stroke: #1f77b4"/>
     <use xlink:href="#m8c8888b37e" x="371.891839" y="65.066677" style="fill: #1f77b4; stroke: #1f77b4"/>
     <use xlink:href="#m8c8888b37e" x="311.964093" y="137.0334" style="fill: #1f77b4; stroke: #1f77b4"/>
     <use xlink:href="#m8c8888b37e" x="254.977443" y="244.046976" style="fill: #1f77b4; stroke: #1f77b4"/>
     <use xlink:href="#m8c8888b37e" x="391.398" y="41.311248" style="fill: #1f77b4; stroke: #1f77b4"/>
     <use xlink:href="#m8c8888b37e" x="291.726284" y="214.765114" style="fill: #1f77b4; stroke: #1f77b4"/>
     <use xlink:href="#m8c8888b37e" x="387.225354" y="19.8" style="fill: #1f77b4; stroke: #1f77b4"/>
     <use xlink:href="#m8c8888b37e" x="56.983504" y="181.621791" style="fill: #1f77b4; stroke: #1f77b4"/>
     <use xlink:href="#m8c8888b37e" x="113.015001" y="216.702613" style="fill: #1f77b4; stroke: #1f77b4"/>
     <use xlink:href="#m8c8888b37e" x="387.092974" y="67.256488" style="fill: #1f77b4; stroke: #1f77b4"/>
     <use xlink:href="#m8c8888b37e" x="270.436906" y="191.239375" style="fill: #1f77b4; stroke: #1f77b4"/>
     <use xlink:href="#m8c8888b37e" x="245.111895" y="216.221664" style="fill: #1f77b4; stroke: #1f77b4"/>
     <use xlink:href="#m8c8888b37e" x="184.836345" y="253.392279" style="fill: #1f77b4; stroke: #1f77b4"/>
     <use xlink:href="#m8c8888b37e" x="175.438198" y="226.344195" style="fill: #1f77b4; stroke: #1f77b4"/>
     <use xlink:href="#m8c8888b37e" x="367.088297" y="111.538567" style="fill: #1f77b4; stroke: #1f77b4"/>
     <use xlink:href="#m8c8888b37e" x="336.927345" y="131.951042" style="fill: #1f77b4; stroke: #1f77b4"/>
     <use xlink:href="#m8c8888b37e" x="337.287941" y="115.626373" style="fill: #1f77b4; stroke: #1f77b4"/>
     <use xlink:href="#m8c8888b37e" x="88.876899" y="235.251012" style="fill: #1f77b4; stroke: #1f77b4"/>
     <use xlink:href="#m8c8888b37e" x="354.605204" y="119.586907" style="fill: #1f77b4; stroke: #1f77b4"/>
     <use xlink:href="#m8c8888b37e" x="394.689201" y="51.932843" style="fill: #1f77b4; stroke: #1f77b4"/>
     <use xlink:href="#m8c8888b37e" x="296.195255" y="194.744103" style="fill: #1f77b4; stroke: #1f77b4"/>
     <use xlink:href="#m8c8888b37e" x="241.257772" y="176.607345" style="fill: #1f77b4; stroke: #1f77b4"/>
     <use xlink:href="#m8c8888b37e" x="102.138569" y="250.745549" style="fill: #1f77b4; stroke: #1f77b4"/>
     <use xlink:href="#m8c8888b37e" x="135.323508" y="232.596752" style="fill: #1f77b4; stroke: #1f77b4"/>
     <use xlink:href="#m8c8888b37e" x="233.716123" y="226.590905" style="fill: #1f77b4; stroke: #1f77b4"/>
     <use xlink:href="#m8c8888b37e" x="233.403329" y="232.775008" style="fill: #1f77b4; stroke: #1f77b4"/>
     <use xlink:href="#m8c8888b37e" x="368.222261" y="84.054443" style="fill: #1f77b4; stroke: #1f77b4"/>
     <use xlink:href="#m8c8888b37e" x="325.138448" y="156.395103" style="fill: #1f77b4; stroke: #1f77b4"/>
     <use xlink:href="#m8c8888b37e" x="95.360109" y="251.636412" style="fill: #1f77b4; stroke: #1f77b4"/>
     <use xlink:href="#m8c8888b37e" x="391.768251" y="24.765603" style="fill: #1f77b4; stroke: #1f77b4"/>
     <use xlink:href="#m8c8888b37e" x="258.074505" y="177.598852" style="fill: #1f77b4; stroke: #1f77b4"/>
     <use xlink:href="#m8c8888b37e" x="180.733452" y="246.301877" style="fill: #1f77b4; stroke: #1f77b4"/>
     <use xlink:href="#m8c8888b37e" x="223.480406" y="247.004469" style="fill: #1f77b4; stroke: #1f77b4"/>
     <use xlink:href="#m8c8888b37e" x="241.095099" y="247.113655" style="fill: #1f77b4; stroke: #1f77b4"/>
     <use xlink:href="#m8c8888b37e" x="163.137072" y="265.154188" style="fill: #1f77b4; stroke: #1f77b4"/>
     <use xlink:href="#m8c8888b37e" x="44.679545" y="175.951525" style="fill: #1f77b4; stroke: #1f77b4"/>
     <use xlink:href="#m8c8888b37e" x="346.219241" y="121.153215" style="fill: #1f77b4; stroke: #1f77b4"/>
     <use xlink:href="#m8c8888b37e" x="355.250712" y="120.961211" style="fill: #1f77b4; stroke: #1f77b4"/>
    </g>
   </g>
   <g id="matplotlib.axis_1">
    <g id="xtick_1">
     <g id="line2d_1">
      <defs>
       <path id="m817e7d4a2e" d="M 0 0 
L 0 3.5 
" style="stroke: #000000; stroke-width: 0.8"/>
      </defs>
      <g>
       <use xlink:href="#m817e7d4a2e" x="43.839496" y="284.4" style="stroke: #000000; stroke-width: 0.8"/>
      </g>
     </g>
     <g id="text_1">
      <!-- −3 -->
      <g transform="translate(36.468402 298.998438) scale(0.1 -0.1)">
       <defs>
        <path id="DejaVuSans-2212" d="M 678 2272 
L 4684 2272 
L 4684 1741 
L 678 1741 
L 678 2272 
z
" transform="scale(0.015625)"/>
        <path id="DejaVuSans-33" d="M 2597 2516 
Q 3050 2419 3304 2112 
Q 3559 1806 3559 1356 
Q 3559 666 3084 287 
Q 2609 -91 1734 -91 
Q 1441 -91 1130 -33 
Q 819 25 488 141 
L 488 750 
Q 750 597 1062 519 
Q 1375 441 1716 441 
Q 2309 441 2620 675 
Q 2931 909 2931 1356 
Q 2931 1769 2642 2001 
Q 2353 2234 1838 2234 
L 1294 2234 
L 1294 2753 
L 1863 2753 
Q 2328 2753 2575 2939 
Q 2822 3125 2822 3475 
Q 2822 3834 2567 4026 
Q 2313 4219 1838 4219 
Q 1578 4219 1281 4162 
Q 984 4106 628 3988 
L 628 4550 
Q 988 4650 1302 4700 
Q 1616 4750 1894 4750 
Q 2613 4750 3031 4423 
Q 3450 4097 3450 3541 
Q 3450 3153 3228 2886 
Q 3006 2619 2597 2516 
z
" transform="scale(0.015625)"/>
       </defs>
       <use xlink:href="#DejaVuSans-2212"/>
       <use xlink:href="#DejaVuSans-33" transform="translate(83.789062 0)"/>
      </g>
     </g>
    </g>
    <g id="xtick_2">
     <g id="line2d_2">
      <g>
       <use xlink:href="#m817e7d4a2e" x="103.448583" y="284.4" style="stroke: #000000; stroke-width: 0.8"/>
      </g>
     </g>
     <g id="text_2">
      <!-- −2 -->
      <g transform="translate(96.077489 298.998438) scale(0.1 -0.1)">
       <defs>
        <path id="DejaVuSans-32" d="M 1228 531 
L 3431 531 
L 3431 0 
L 469 0 
L 469 531 
Q 828 903 1448 1529 
Q 2069 2156 2228 2338 
Q 2531 2678 2651 2914 
Q 2772 3150 2772 3378 
Q 2772 3750 2511 3984 
Q 2250 4219 1831 4219 
Q 1534 4219 1204 4116 
Q 875 4013 500 3803 
L 500 4441 
Q 881 4594 1212 4672 
Q 1544 4750 1819 4750 
Q 2544 4750 2975 4387 
Q 3406 4025 3406 3419 
Q 3406 3131 3298 2873 
Q 3191 2616 2906 2266 
Q 2828 2175 2409 1742 
Q 1991 1309 1228 531 
z
" transform="scale(0.015625)"/>
       </defs>
       <use xlink:href="#DejaVuSans-2212"/>
       <use xlink:href="#DejaVuSans-32" transform="translate(83.789062 0)"/>
      </g>
     </g>
    </g>
    <g id="xtick_3">
     <g id="line2d_3">
      <g>
       <use xlink:href="#m817e7d4a2e" x="163.05767" y="284.4" style="stroke: #000000; stroke-width: 0.8"/>
      </g>
     </g>
     <g id="text_3">
      <!-- −1 -->
      <g transform="translate(155.686577 298.998438) scale(0.1 -0.1)">
       <defs>
        <path id="DejaVuSans-31" d="M 794 531 
L 1825 531 
L 1825 4091 
L 703 3866 
L 703 4441 
L 1819 4666 
L 2450 4666 
L 2450 531 
L 3481 531 
L 3481 0 
L 794 0 
L 794 531 
z
" transform="scale(0.015625)"/>
       </defs>
       <use xlink:href="#DejaVuSans-2212"/>
       <use xlink:href="#DejaVuSans-31" transform="translate(83.789062 0)"/>
      </g>
     </g>
    </g>
    <g id="xtick_4">
     <g id="line2d_4">
      <g>
       <use xlink:href="#m817e7d4a2e" x="222.666758" y="284.4" style="stroke: #000000; stroke-width: 0.8"/>
      </g>
     </g>
     <g id="text_4">
      <!-- 0 -->
      <g transform="translate(219.485508 298.998438) scale(0.1 -0.1)">
       <defs>
        <path id="DejaVuSans-30" d="M 2034 4250 
Q 1547 4250 1301 3770 
Q 1056 3291 1056 2328 
Q 1056 1369 1301 889 
Q 1547 409 2034 409 
Q 2525 409 2770 889 
Q 3016 1369 3016 2328 
Q 3016 3291 2770 3770 
Q 2525 4250 2034 4250 
z
M 2034 4750 
Q 2819 4750 3233 4129 
Q 3647 3509 3647 2328 
Q 3647 1150 3233 529 
Q 2819 -91 2034 -91 
Q 1250 -91 836 529 
Q 422 1150 422 2328 
Q 422 3509 836 4129 
Q 1250 4750 2034 4750 
z
" transform="scale(0.015625)"/>
       </defs>
       <use xlink:href="#DejaVuSans-30"/>
      </g>
     </g>
    </g>
    <g id="xtick_5">
     <g id="line2d_5">
      <g>
       <use xlink:href="#m817e7d4a2e" x="282.275845" y="284.4" style="stroke: #000000; stroke-width: 0.8"/>
      </g>
     </g>
     <g id="text_5">
      <!-- 1 -->
      <g transform="translate(279.094595 298.998438) scale(0.1 -0.1)">
       <use xlink:href="#DejaVuSans-31"/>
      </g>
     </g>
    </g>
    <g id="xtick_6">
     <g id="line2d_6">
      <g>
       <use xlink:href="#m817e7d4a2e" x="341.884933" y="284.4" style="stroke: #000000; stroke-width: 0.8"/>
      </g>
     </g>
     <g id="text_6">
      <!-- 2 -->
      <g transform="translate(338.703683 298.998438) scale(0.1 -0.1)">
       <use xlink:href="#DejaVuSans-32"/>
      </g>
     </g>
    </g>
    <g id="xtick_7">
     <g id="line2d_7">
      <g>
       <use xlink:href="#m817e7d4a2e" x="401.49402" y="284.4" style="stroke: #000000; stroke-width: 0.8"/>
      </g>
     </g>
     <g id="text_7">
      <!-- 3 -->
      <g transform="translate(398.31277 298.998438) scale(0.1 -0.1)">
       <use xlink:href="#DejaVuSans-33"/>
      </g>
     </g>
    </g>
   </g>
   <g id="matplotlib.axis_2">
    <g id="ytick_1">
     <g id="line2d_8">
      <defs>
       <path id="m7482150a37" d="M 0 0 
L -3.5 0 
" style="stroke: #000000; stroke-width: 0.8"/>
      </defs>
      <g>
       <use xlink:href="#m7482150a37" x="26.925" y="279.953573" style="stroke: #000000; stroke-width: 0.8"/>
      </g>
     </g>
     <g id="text_8">
      <!-- 0 -->
      <g transform="translate(13.5625 283.752792) scale(0.1 -0.1)">
       <use xlink:href="#DejaVuSans-30"/>
      </g>
     </g>
    </g>
    <g id="ytick_2">
     <g id="line2d_9">
      <g>
       <use xlink:href="#m7482150a37" x="26.925" y="230.215098" style="stroke: #000000; stroke-width: 0.8"/>
      </g>
     </g>
     <g id="text_9">
      <!-- 2 -->
      <g transform="translate(13.5625 234.014316) scale(0.1 -0.1)">
       <use xlink:href="#DejaVuSans-32"/>
      </g>
     </g>
    </g>
    <g id="ytick_3">
     <g id="line2d_10">
      <g>
       <use xlink:href="#m7482150a37" x="26.925" y="180.476622" style="stroke: #000000; stroke-width: 0.8"/>
      </g>
     </g>
     <g id="text_10">
      <!-- 4 -->
      <g transform="translate(13.5625 184.275841) scale(0.1 -0.1)">
       <defs>
        <path id="DejaVuSans-34" d="M 2419 4116 
L 825 1625 
L 2419 1625 
L 2419 4116 
z
M 2253 4666 
L 3047 4666 
L 3047 1625 
L 3713 1625 
L 3713 1100 
L 3047 1100 
L 3047 0 
L 2419 0 
L 2419 1100 
L 313 1100 
L 313 1709 
L 2253 4666 
z
" transform="scale(0.015625)"/>
       </defs>
       <use xlink:href="#DejaVuSans-34"/>
      </g>
     </g>
    </g>
    <g id="ytick_4">
     <g id="line2d_11">
      <g>
       <use xlink:href="#m7482150a37" x="26.925" y="130.738147" style="stroke: #000000; stroke-width: 0.8"/>
      </g>
     </g>
     <g id="text_11">
      <!-- 6 -->
      <g transform="translate(13.5625 134.537366) scale(0.1 -0.1)">
       <defs>
        <path id="DejaVuSans-36" d="M 2113 2584 
Q 1688 2584 1439 2293 
Q 1191 2003 1191 1497 
Q 1191 994 1439 701 
Q 1688 409 2113 409 
Q 2538 409 2786 701 
Q 3034 994 3034 1497 
Q 3034 2003 2786 2293 
Q 2538 2584 2113 2584 
z
M 3366 4563 
L 3366 3988 
Q 3128 4100 2886 4159 
Q 2644 4219 2406 4219 
Q 1781 4219 1451 3797 
Q 1122 3375 1075 2522 
Q 1259 2794 1537 2939 
Q 1816 3084 2150 3084 
Q 2853 3084 3261 2657 
Q 3669 2231 3669 1497 
Q 3669 778 3244 343 
Q 2819 -91 2113 -91 
Q 1303 -91 875 529 
Q 447 1150 447 2328 
Q 447 3434 972 4092 
Q 1497 4750 2381 4750 
Q 2619 4750 2861 4703 
Q 3103 4656 3366 4563 
z
" transform="scale(0.015625)"/>
       </defs>
       <use xlink:href="#DejaVuSans-36"/>
      </g>
     </g>
    </g>
    <g id="ytick_5">
     <g id="line2d_12">
      <g>
       <use xlink:href="#m7482150a37" x="26.925" y="80.999672" style="stroke: #000000; stroke-width: 0.8"/>
      </g>
     </g>
     <g id="text_12">
      <!-- 8 -->
      <g transform="translate(13.5625 84.798891) scale(0.1 -0.1)">
       <defs>
        <path id="DejaVuSans-38" d="M 2034 2216 
Q 1584 2216 1326 1975 
Q 1069 1734 1069 1313 
Q 1069 891 1326 650 
Q 1584 409 2034 409 
Q 2484 409 2743 651 
Q 3003 894 3003 1313 
Q 3003 1734 2745 1975 
Q 2488 2216 2034 2216 
z
M 1403 2484 
Q 997 2584 770 2862 
Q 544 3141 544 3541 
Q 544 4100 942 4425 
Q 1341 4750 2034 4750 
Q 2731 4750 3128 4425 
Q 3525 4100 3525 3541 
Q 3525 3141 3298 2862 
Q 3072 2584 2669 2484 
Q 3125 2378 3379 2068 
Q 3634 1759 3634 1313 
Q 3634 634 3220 271 
Q 2806 -91 2034 -91 
Q 1263 -91 848 271 
Q 434 634 434 1313 
Q 434 1759 690 2068 
Q 947 2378 1403 2484 
z
M 1172 3481 
Q 1172 3119 1398 2916 
Q 1625 2713 2034 2713 
Q 2441 2713 2670 2916 
Q 2900 3119 2900 3481 
Q 2900 3844 2670 4047 
Q 2441 4250 2034 4250 
Q 1625 4250 1398 4047 
Q 1172 3844 1172 3481 
z
" transform="scale(0.015625)"/>
       </defs>
       <use xlink:href="#DejaVuSans-38"/>
      </g>
     </g>
    </g>
    <g id="ytick_6">
     <g id="line2d_13">
      <g>
       <use xlink:href="#m7482150a37" x="26.925" y="31.261196" style="stroke: #000000; stroke-width: 0.8"/>
      </g>
     </g>
     <g id="text_13">
      <!-- 10 -->
      <g transform="translate(7.2 35.060415) scale(0.1 -0.1)">
       <use xlink:href="#DejaVuSans-31"/>
       <use xlink:href="#DejaVuSans-30" transform="translate(63.623047 0)"/>
      </g>
     </g>
    </g>
   </g>
   <g id="patch_3">
    <path d="M 26.925 284.4 
L 26.925 7.2 
" style="fill: none; stroke: #000000; stroke-width: 0.8; stroke-linejoin: miter; stroke-linecap: square"/>
   </g>
   <g id="patch_4">
    <path d="M 417.525 284.4 
L 417.525 7.2 
" style="fill: none; stroke: #000000; stroke-width: 0.8; stroke-linejoin: miter; stroke-linecap: square"/>
   </g>
   <g id="patch_5">
    <path d="M 26.925 284.4 
L 417.525 284.4 
" style="fill: none; stroke: #000000; stroke-width: 0.8; stroke-linejoin: miter; stroke-linecap: square"/>
   </g>
   <g id="patch_6">
    <path d="M 26.925 7.2 
L 417.525 7.2 
" style="fill: none; stroke: #000000; stroke-width: 0.8; stroke-linejoin: miter; stroke-linecap: square"/>
   </g>
  </g>
 </g>
 <defs>
  <clipPath id="p7267b3e92b">
   <rect x="26.925" y="7.2" width="390.6" height="277.2"/>
  </clipPath>
 </defs>
</svg>
