<?xml version="1.0" encoding="utf-8" standalone="no"?>
<!DOCTYPE svg PUBLIC "-//W3C//DTD SVG 1.1//EN"
  "http://www.w3.org/Graphics/SVG/1.1/DTD/svg11.dtd">
<svg xmlns:xlink="http://www.w3.org/1999/xlink" width="444.234375pt" height="312.077344pt" viewBox="0 0 444.234375 312.077344" xmlns="http://www.w3.org/2000/svg" version="1.1">
 <metadata>
  <rdf:RDF xmlns:dc="http://purl.org/dc/elements/1.1/" xmlns:cc="http://creativecommons.org/ns#" xmlns:rdf="http://www.w3.org/1999/02/22-rdf-syntax-ns#">
   <cc:Work>
    <dc:type rdf:resource="http://purl.org/dc/dcmitype/StillImage"/>
    <dc:date>2025-04-29T12:24:44.430978</dc:date>
    <dc:format>image/svg+xml</dc:format>
    <dc:creator>
     <cc:Agent>
      <dc:title>Matplotlib v3.10.0, https://matplotlib.org/</dc:title>
     </cc:Agent>
    </dc:creator>
   </cc:Work>
  </rdf:RDF>
 </metadata>
 <defs>
  <style type="text/css">*{stroke-linejoin: round; stroke-linecap: butt}</style>
 </defs>
 <g id="figure_1">
  <g id="patch_1">
   <path d="M 0 312.077344 
L 444.234375 312.077344 
L 444.234375 0 
L 0 0 
z
" style="fill: #ffffff"/>
  </g>
  <g id="axes_1">
   <g id="patch_2">
    <path d="M 38.482813 288.199219 
L 429.082813 288.199219 
L 429.082813 10.999219 
L 38.482813 10.999219 
z
" style="fill: #ffffff"/>
   </g>
   <g id="PathCollection_1">
    <defs>
     <path id="m514effa41e" d="M 0 3 
C 0.795609 3 1.55874 2.683901 2.12132 2.12132 
C 2.683901 1.55874 3 0.795609 3 0 
C 3 -0.795609 2.683901 -1.55874 2.12132 -2.12132 
C 1.55874 -2.683901 0.795609 -3 0 -3 
C -0.795609 -3 -1.55874 -2.683901 -2.12132 -2.12132 
C -2.683901 -1.55874 -3 -0.795609 -3 0 
C -3 0.795609 -2.683901 1.55874 -2.12132 2.12132 
C -1.55874 2.683901 -0.795609 3 0 3 
z
" style="stroke: #1f77b4"/>
    </defs>
    <g clip-path="url(#p449406c8a2)">
     <use xlink:href="#m514effa41e" x="94.646313" y="57.453425" style="fill: #1f77b4; stroke: #1f77b4"/>
     <use xlink:href="#m514effa41e" x="176.243317" y="240.798809" style="fill: #1f77b4; stroke: #1f77b4"/>
     <use xlink:href="#m514effa41e" x="232.009677" y="171.610935" style="fill: #1f77b4; stroke: #1f77b4"/>
     <use xlink:href="#m514effa41e" x="79.835364" y="240.720671" style="fill: #1f77b4; stroke: #1f77b4"/>
     <use xlink:href="#m514effa41e" x="227.126147" y="221.616767" style="fill: #1f77b4; stroke: #1f77b4"/>
     <use xlink:href="#m514effa41e" x="131.250571" y="236.924909" style="fill: #1f77b4; stroke: #1f77b4"/>
     <use xlink:href="#m514effa41e" x="78.753032" y="179.014098" style="fill: #1f77b4; stroke: #1f77b4"/>
     <use xlink:href="#m514effa41e" x="153.955298" y="240.41006" style="fill: #1f77b4; stroke: #1f77b4"/>
     <use xlink:href="#m514effa41e" x="134.371032" y="125.256044" style="fill: #1f77b4; stroke: #1f77b4"/>
     <use xlink:href="#m514effa41e" x="141.334744" y="51.325423" style="fill: #1f77b4; stroke: #1f77b4"/>
     <use xlink:href="#m514effa41e" x="199.694167" y="259.301249" style="fill: #1f77b4; stroke: #1f77b4"/>
     <use xlink:href="#m514effa41e" x="117.669009" y="169.202844" style="fill: #1f77b4; stroke: #1f77b4"/>
     <use xlink:href="#m514effa41e" x="94.399491" y="188.706317" style="fill: #1f77b4; stroke: #1f77b4"/>
     <use xlink:href="#m514effa41e" x="133.989172" y="43.40049" style="fill: #1f77b4; stroke: #1f77b4"/>
     <use xlink:href="#m514effa41e" x="199.3535" y="180.10295" style="fill: #1f77b4; stroke: #1f77b4"/>
     <use xlink:href="#m514effa41e" x="124.090574" y="206.012012" style="fill: #1f77b4; stroke: #1f77b4"/>
     <use xlink:href="#m514effa41e" x="117.921524" y="40.380847" style="fill: #1f77b4; stroke: #1f77b4"/>
     <use xlink:href="#m514effa41e" x="179.605076" y="264.556652" style="fill: #1f77b4; stroke: #1f77b4"/>
     <use xlink:href="#m514effa41e" x="103.82753" y="158.134016" style="fill: #1f77b4; stroke: #1f77b4"/>
     <use xlink:href="#m514effa41e" x="137.143194" y="131.887591" style="fill: #1f77b4; stroke: #1f77b4"/>
     <use xlink:href="#m514effa41e" x="202.295572" y="188.569084" style="fill: #1f77b4; stroke: #1f77b4"/>
     <use xlink:href="#m514effa41e" x="157.172228" y="59.281514" style="fill: #1f77b4; stroke: #1f77b4"/>
     <use xlink:href="#m514effa41e" x="221.08181" y="188.71632" style="fill: #1f77b4; stroke: #1f77b4"/>
     <use xlink:href="#m514effa41e" x="147.768748" y="129.348934" style="fill: #1f77b4; stroke: #1f77b4"/>
     <use xlink:href="#m514effa41e" x="79.220283" y="247.951028" style="fill: #1f77b4; stroke: #1f77b4"/>
     <use xlink:href="#m514effa41e" x="221.10808" y="250.572589" style="fill: #1f77b4; stroke: #1f77b4"/>
     <use xlink:href="#m514effa41e" x="142.617753" y="107.144331" style="fill: #1f77b4; stroke: #1f77b4"/>
     <use xlink:href="#m514effa41e" x="92.629048" y="113.807345" style="fill: #1f77b4; stroke: #1f77b4"/>
     <use xlink:href="#m514effa41e" x="135.189401" y="60.986643" style="fill: #1f77b4; stroke: #1f77b4"/>
     <use xlink:href="#m514effa41e" x="130.31412" y="104.634265" style="fill: #1f77b4; stroke: #1f77b4"/>
     <use xlink:href="#m514effa41e" x="76.496159" y="96.961684" style="fill: #1f77b4; stroke: #1f77b4"/>
     <use xlink:href="#m514effa41e" x="218.542949" y="52.859433" style="fill: #1f77b4; stroke: #1f77b4"/>
     <use xlink:href="#m514effa41e" x="94.541879" y="257.613526" style="fill: #1f77b4; stroke: #1f77b4"/>
     <use xlink:href="#m514effa41e" x="78.456921" y="46.006254" style="fill: #1f77b4; stroke: #1f77b4"/>
     <use xlink:href="#m514effa41e" x="154.57601" y="175.495813" style="fill: #1f77b4; stroke: #1f77b4"/>
     <use xlink:href="#m514effa41e" x="136.232326" y="64.063378" style="fill: #1f77b4; stroke: #1f77b4"/>
     <use xlink:href="#m514effa41e" x="78.835453" y="122.271309" style="fill: #1f77b4; stroke: #1f77b4"/>
     <use xlink:href="#m514effa41e" x="173.869805" y="256.972315" style="fill: #1f77b4; stroke: #1f77b4"/>
     <use xlink:href="#m514effa41e" x="109.92502" y="202.2338" style="fill: #1f77b4; stroke: #1f77b4"/>
     <use xlink:href="#m514effa41e" x="167.65158" y="210.059757" style="fill: #1f77b4; stroke: #1f77b4"/>
     <use xlink:href="#m514effa41e" x="174.154467" y="111.30595" style="fill: #1f77b4; stroke: #1f77b4"/>
     <use xlink:href="#m514effa41e" x="150.948077" y="112.674431" style="fill: #1f77b4; stroke: #1f77b4"/>
     <use xlink:href="#m514effa41e" x="231.650925" y="47.107416" style="fill: #1f77b4; stroke: #1f77b4"/>
     <use xlink:href="#m514effa41e" x="169.819595" y="70.010393" style="fill: #1f77b4; stroke: #1f77b4"/>
    </g>
   </g>
   <g id="PathCollection_2">
    <defs>
     <path id="mefdedc0380" d="M 0 3 
C 0.795609 3 1.55874 2.683901 2.12132 2.12132 
C 2.683901 1.55874 3 0.795609 3 0 
C 3 -0.795609 2.683901 -1.55874 2.12132 -2.12132 
C 1.55874 -2.683901 0.795609 -3 0 -3 
C -0.795609 -3 -1.55874 -2.683901 -2.12132 -2.12132 
C -2.683901 -1.55874 -3 -0.795609 -3 0 
C -3 0.795609 -2.683901 1.55874 -2.12132 2.12132 
C -1.55874 2.683901 -0.795609 3 0 3 
z
" style="stroke: #ff7f0e"/>
    </defs>
    <g clip-path="url(#p449406c8a2)">
     <use xlink:href="#mefdedc0380" x="272.061007" y="63.622886" style="fill: #ff7f0e; stroke: #ff7f0e"/>
     <use xlink:href="#mefdedc0380" x="356.4213" y="55.784507" style="fill: #ff7f0e; stroke: #ff7f0e"/>
     <use xlink:href="#mefdedc0380" x="298.580352" y="250.950826" style="fill: #ff7f0e; stroke: #ff7f0e"/>
     <use xlink:href="#mefdedc0380" x="325.270227" y="203.286978" style="fill: #ff7f0e; stroke: #ff7f0e"/>
     <use xlink:href="#mefdedc0380" x="298.192254" y="122.496328" style="fill: #ff7f0e; stroke: #ff7f0e"/>
     <use xlink:href="#mefdedc0380" x="367.70307" y="122.314741" style="fill: #ff7f0e; stroke: #ff7f0e"/>
     <use xlink:href="#mefdedc0380" x="393.478077" y="203.647993" style="fill: #ff7f0e; stroke: #ff7f0e"/>
     <use xlink:href="#mefdedc0380" x="262.770489" y="261.880917" style="fill: #ff7f0e; stroke: #ff7f0e"/>
     <use xlink:href="#mefdedc0380" x="365.289719" y="226.378538" style="fill: #ff7f0e; stroke: #ff7f0e"/>
     <use xlink:href="#mefdedc0380" x="319.799841" y="227.854124" style="fill: #ff7f0e; stroke: #ff7f0e"/>
     <use xlink:href="#mefdedc0380" x="299.148924" y="45.067152" style="fill: #ff7f0e; stroke: #ff7f0e"/>
     <use xlink:href="#mefdedc0380" x="263.074898" y="76.283213" style="fill: #ff7f0e; stroke: #ff7f0e"/>
     <use xlink:href="#mefdedc0380" x="373.136553" y="171.516485" style="fill: #ff7f0e; stroke: #ff7f0e"/>
     <use xlink:href="#mefdedc0380" x="353.286898" y="253.493126" style="fill: #ff7f0e; stroke: #ff7f0e"/>
     <use xlink:href="#mefdedc0380" x="348.659813" y="133.620903" style="fill: #ff7f0e; stroke: #ff7f0e"/>
     <use xlink:href="#mefdedc0380" x="354.24844" y="117.714719" style="fill: #ff7f0e; stroke: #ff7f0e"/>
     <use xlink:href="#mefdedc0380" x="394.964202" y="178.364736" style="fill: #ff7f0e; stroke: #ff7f0e"/>
     <use xlink:href="#mefdedc0380" x="342.975646" y="115.030135" style="fill: #ff7f0e; stroke: #ff7f0e"/>
     <use xlink:href="#mefdedc0380" x="337.766701" y="53.218518" style="fill: #ff7f0e; stroke: #ff7f0e"/>
     <use xlink:href="#mefdedc0380" x="315.051972" y="128.730565" style="fill: #ff7f0e; stroke: #ff7f0e"/>
     <use xlink:href="#mefdedc0380" x="387.344463" y="104.99542" style="fill: #ff7f0e; stroke: #ff7f0e"/>
     <use xlink:href="#mefdedc0380" x="383.546954" y="256.609837" style="fill: #ff7f0e; stroke: #ff7f0e"/>
     <use xlink:href="#mefdedc0380" x="277.25824" y="135.102473" style="fill: #ff7f0e; stroke: #ff7f0e"/>
     <use xlink:href="#mefdedc0380" x="365.220296" y="75.801199" style="fill: #ff7f0e; stroke: #ff7f0e"/>
     <use xlink:href="#mefdedc0380" x="338.099108" y="236.0107" style="fill: #ff7f0e; stroke: #ff7f0e"/>
     <use xlink:href="#mefdedc0380" x="353.859482" y="38.494279" style="fill: #ff7f0e; stroke: #ff7f0e"/>
     <use xlink:href="#mefdedc0380" x="300.700813" y="137.591754" style="fill: #ff7f0e; stroke: #ff7f0e"/>
     <use xlink:href="#mefdedc0380" x="243.838797" y="142.664739" style="fill: #ff7f0e; stroke: #ff7f0e"/>
     <use xlink:href="#mefdedc0380" x="366.252313" y="83.415349" style="fill: #ff7f0e; stroke: #ff7f0e"/>
     <use xlink:href="#mefdedc0380" x="266.007267" y="176.682879" style="fill: #ff7f0e; stroke: #ff7f0e"/>
     <use xlink:href="#mefdedc0380" x="234.523311" y="137.69682" style="fill: #ff7f0e; stroke: #ff7f0e"/>
     <use xlink:href="#mefdedc0380" x="346.22745" y="63.966601" style="fill: #ff7f0e; stroke: #ff7f0e"/>
     <use xlink:href="#mefdedc0380" x="331.605214" y="138.517626" style="fill: #ff7f0e; stroke: #ff7f0e"/>
     <use xlink:href="#mefdedc0380" x="282.197344" y="166.340113" style="fill: #ff7f0e; stroke: #ff7f0e"/>
     <use xlink:href="#mefdedc0380" x="390.635313" y="171.946217" style="fill: #ff7f0e; stroke: #ff7f0e"/>
     <use xlink:href="#mefdedc0380" x="383.735603" y="48.177249" style="fill: #ff7f0e; stroke: #ff7f0e"/>
     <use xlink:href="#mefdedc0380" x="343.335403" y="129.726519" style="fill: #ff7f0e; stroke: #ff7f0e"/>
     <use xlink:href="#mefdedc0380" x="384.78085" y="106.013183" style="fill: #ff7f0e; stroke: #ff7f0e"/>
     <use xlink:href="#mefdedc0380" x="344.695557" y="150.221792" style="fill: #ff7f0e; stroke: #ff7f0e"/>
     <use xlink:href="#mefdedc0380" x="303.189196" y="217.394883" style="fill: #ff7f0e; stroke: #ff7f0e"/>
     <use xlink:href="#mefdedc0380" x="247.878017" y="113.0989" style="fill: #ff7f0e; stroke: #ff7f0e"/>
     <use xlink:href="#mefdedc0380" x="245.898417" y="170.832496" style="fill: #ff7f0e; stroke: #ff7f0e"/>
     <use xlink:href="#mefdedc0380" x="337.422437" y="107.791025" style="fill: #ff7f0e; stroke: #ff7f0e"/>
     <use xlink:href="#mefdedc0380" x="338.422198" y="191.185544" style="fill: #ff7f0e; stroke: #ff7f0e"/>
     <use xlink:href="#mefdedc0380" x="293.250713" y="37.844863" style="fill: #ff7f0e; stroke: #ff7f0e"/>
     <use xlink:href="#mefdedc0380" x="262.799053" y="201.201616" style="fill: #ff7f0e; stroke: #ff7f0e"/>
     <use xlink:href="#mefdedc0380" x="315.122096" y="91.274253" style="fill: #ff7f0e; stroke: #ff7f0e"/>
     <use xlink:href="#mefdedc0380" x="287.260672" y="93.872472" style="fill: #ff7f0e; stroke: #ff7f0e"/>
     <use xlink:href="#mefdedc0380" x="352.201866" y="174.876195" style="fill: #ff7f0e; stroke: #ff7f0e"/>
     <use xlink:href="#mefdedc0380" x="256.858812" y="114.05494" style="fill: #ff7f0e; stroke: #ff7f0e"/>
     <use xlink:href="#mefdedc0380" x="272.512628" y="43.539226" style="fill: #ff7f0e; stroke: #ff7f0e"/>
     <use xlink:href="#mefdedc0380" x="342.499831" y="210.280859" style="fill: #ff7f0e; stroke: #ff7f0e"/>
     <use xlink:href="#mefdedc0380" x="280.993185" y="249.08731" style="fill: #ff7f0e; stroke: #ff7f0e"/>
     <use xlink:href="#mefdedc0380" x="311.491813" y="249.11571" style="fill: #ff7f0e; stroke: #ff7f0e"/>
     <use xlink:href="#mefdedc0380" x="297.744691" y="163.962038" style="fill: #ff7f0e; stroke: #ff7f0e"/>
     <use xlink:href="#mefdedc0380" x="277.637431" y="238.736701" style="fill: #ff7f0e; stroke: #ff7f0e"/>
    </g>
   </g>
   <g id="matplotlib.axis_1">
    <g id="xtick_1">
     <g id="line2d_1">
      <defs>
       <path id="m91c19d3a81" d="M 0 0 
L 0 3.5 
" style="stroke: #000000; stroke-width: 0.8"/>
      </defs>
      <g>
       <use xlink:href="#m91c19d3a81" x="38.482812" y="288.199219" style="stroke: #000000; stroke-width: 0.8"/>
      </g>
     </g>
     <g id="text_1">
      <!-- −0.6 -->
      <g transform="translate(26.341406 302.797656) scale(0.1 -0.1)">
       <defs>
        <path id="DejaVuSans-2212" d="M 678 2272 
L 4684 2272 
L 4684 1741 
L 678 1741 
L 678 2272 
z
" transform="scale(0.015625)"/>
        <path id="DejaVuSans-30" d="M 2034 4250 
Q 1547 4250 1301 3770 
Q 1056 3291 1056 2328 
Q 1056 1369 1301 889 
Q 1547 409 2034 409 
Q 2525 409 2770 889 
Q 3016 1369 3016 2328 
Q 3016 3291 2770 3770 
Q 2525 4250 2034 4250 
z
M 2034 4750 
Q 2819 4750 3233 4129 
Q 3647 3509 3647 2328 
Q 3647 1150 3233 529 
Q 2819 -91 2034 -91 
Q 1250 -91 836 529 
Q 422 1150 422 2328 
Q 422 3509 836 4129 
Q 1250 4750 2034 4750 
z
" transform="scale(0.015625)"/>
        <path id="DejaVuSans-2e" d="M 684 794 
L 1344 794 
L 1344 0 
L 684 0 
L 684 794 
z
" transform="scale(0.015625)"/>
        <path id="DejaVuSans-36" d="M 2113 2584 
Q 1688 2584 1439 2293 
Q 1191 2003 1191 1497 
Q 1191 994 1439 701 
Q 1688 409 2113 409 
Q 2538 409 2786 701 
Q 3034 994 3034 1497 
Q 3034 2003 2786 2293 
Q 2538 2584 2113 2584 
z
M 3366 4563 
L 3366 3988 
Q 3128 4100 2886 4159 
Q 2644 4219 2406 4219 
Q 1781 4219 1451 3797 
Q 1122 3375 1075 2522 
Q 1259 2794 1537 2939 
Q 1816 3084 2150 3084 
Q 2853 3084 3261 2657 
Q 3669 2231 3669 1497 
Q 3669 778 3244 343 
Q 2819 -91 2113 -91 
Q 1303 -91 875 529 
Q 447 1150 447 2328 
Q 447 3434 972 4092 
Q 1497 4750 2381 4750 
Q 2619 4750 2861 4703 
Q 3103 4656 3366 4563 
z
" transform="scale(0.015625)"/>
       </defs>
       <use xlink:href="#DejaVuSans-2212"/>
       <use xlink:href="#DejaVuSans-30" transform="translate(83.789062 0)"/>
       <use xlink:href="#DejaVuSans-2e" transform="translate(147.412109 0)"/>
       <use xlink:href="#DejaVuSans-36" transform="translate(179.199219 0)"/>
      </g>
     </g>
    </g>
    <g id="xtick_2">
     <g id="line2d_2">
      <g>
       <use xlink:href="#m91c19d3a81" x="103.582812" y="288.199219" style="stroke: #000000; stroke-width: 0.8"/>
      </g>
     </g>
     <g id="text_2">
      <!-- −0.4 -->
      <g transform="translate(91.441406 302.797656) scale(0.1 -0.1)">
       <defs>
        <path id="DejaVuSans-34" d="M 2419 4116 
L 825 1625 
L 2419 1625 
L 2419 4116 
z
M 2253 4666 
L 3047 4666 
L 3047 1625 
L 3713 1625 
L 3713 1100 
L 3047 1100 
L 3047 0 
L 2419 0 
L 2419 1100 
L 313 1100 
L 313 1709 
L 2253 4666 
z
" transform="scale(0.015625)"/>
       </defs>
       <use xlink:href="#DejaVuSans-2212"/>
       <use xlink:href="#DejaVuSans-30" transform="translate(83.789062 0)"/>
       <use xlink:href="#DejaVuSans-2e" transform="translate(147.412109 0)"/>
       <use xlink:href="#DejaVuSans-34" transform="translate(179.199219 0)"/>
      </g>
     </g>
    </g>
    <g id="xtick_3">
     <g id="line2d_3">
      <g>
       <use xlink:href="#m91c19d3a81" x="168.682812" y="288.199219" style="stroke: #000000; stroke-width: 0.8"/>
      </g>
     </g>
     <g id="text_3">
      <!-- −0.2 -->
      <g transform="translate(156.541406 302.797656) scale(0.1 -0.1)">
       <defs>
        <path id="DejaVuSans-32" d="M 1228 531 
L 3431 531 
L 3431 0 
L 469 0 
L 469 531 
Q 828 903 1448 1529 
Q 2069 2156 2228 2338 
Q 2531 2678 2651 2914 
Q 2772 3150 2772 3378 
Q 2772 3750 2511 3984 
Q 2250 4219 1831 4219 
Q 1534 4219 1204 4116 
Q 875 4013 500 3803 
L 500 4441 
Q 881 4594 1212 4672 
Q 1544 4750 1819 4750 
Q 2544 4750 2975 4387 
Q 3406 4025 3406 3419 
Q 3406 3131 3298 2873 
Q 3191 2616 2906 2266 
Q 2828 2175 2409 1742 
Q 1991 1309 1228 531 
z
" transform="scale(0.015625)"/>
       </defs>
       <use xlink:href="#DejaVuSans-2212"/>
       <use xlink:href="#DejaVuSans-30" transform="translate(83.789062 0)"/>
       <use xlink:href="#DejaVuSans-2e" transform="translate(147.412109 0)"/>
       <use xlink:href="#DejaVuSans-32" transform="translate(179.199219 0)"/>
      </g>
     </g>
    </g>
    <g id="xtick_4">
     <g id="line2d_4">
      <g>
       <use xlink:href="#m91c19d3a81" x="233.782813" y="288.199219" style="stroke: #000000; stroke-width: 0.8"/>
      </g>
     </g>
     <g id="text_4">
      <!-- 0.0 -->
      <g transform="translate(225.83125 302.797656) scale(0.1 -0.1)">
       <use xlink:href="#DejaVuSans-30"/>
       <use xlink:href="#DejaVuSans-2e" transform="translate(63.623047 0)"/>
       <use xlink:href="#DejaVuSans-30" transform="translate(95.410156 0)"/>
      </g>
     </g>
    </g>
    <g id="xtick_5">
     <g id="line2d_5">
      <g>
       <use xlink:href="#m91c19d3a81" x="298.882812" y="288.199219" style="stroke: #000000; stroke-width: 0.8"/>
      </g>
     </g>
     <g id="text_5">
      <!-- 0.2 -->
      <g transform="translate(290.93125 302.797656) scale(0.1 -0.1)">
       <use xlink:href="#DejaVuSans-30"/>
       <use xlink:href="#DejaVuSans-2e" transform="translate(63.623047 0)"/>
       <use xlink:href="#DejaVuSans-32" transform="translate(95.410156 0)"/>
      </g>
     </g>
    </g>
    <g id="xtick_6">
     <g id="line2d_6">
      <g>
       <use xlink:href="#m91c19d3a81" x="363.982813" y="288.199219" style="stroke: #000000; stroke-width: 0.8"/>
      </g>
     </g>
     <g id="text_6">
      <!-- 0.4 -->
      <g transform="translate(356.03125 302.797656) scale(0.1 -0.1)">
       <use xlink:href="#DejaVuSans-30"/>
       <use xlink:href="#DejaVuSans-2e" transform="translate(63.623047 0)"/>
       <use xlink:href="#DejaVuSans-34" transform="translate(95.410156 0)"/>
      </g>
     </g>
    </g>
    <g id="xtick_7">
     <g id="line2d_7">
      <g>
       <use xlink:href="#m91c19d3a81" x="429.082813" y="288.199219" style="stroke: #000000; stroke-width: 0.8"/>
      </g>
     </g>
     <g id="text_7">
      <!-- 0.6 -->
      <g transform="translate(421.13125 302.797656) scale(0.1 -0.1)">
       <use xlink:href="#DejaVuSans-30"/>
       <use xlink:href="#DejaVuSans-2e" transform="translate(63.623047 0)"/>
       <use xlink:href="#DejaVuSans-36" transform="translate(95.410156 0)"/>
      </g>
     </g>
    </g>
   </g>
   <g id="matplotlib.axis_2">
    <g id="ytick_1">
     <g id="line2d_8">
      <defs>
       <path id="m260ade37d3" d="M 0 0 
L -3.5 0 
" style="stroke: #000000; stroke-width: 0.8"/>
      </defs>
      <g>
       <use xlink:href="#m260ade37d3" x="38.482813" y="288.199219" style="stroke: #000000; stroke-width: 0.8"/>
      </g>
     </g>
     <g id="text_8">
      <!-- −0.6 -->
      <g transform="translate(7.2 291.998438) scale(0.1 -0.1)">
       <use xlink:href="#DejaVuSans-2212"/>
       <use xlink:href="#DejaVuSans-30" transform="translate(83.789062 0)"/>
       <use xlink:href="#DejaVuSans-2e" transform="translate(147.412109 0)"/>
       <use xlink:href="#DejaVuSans-36" transform="translate(179.199219 0)"/>
      </g>
     </g>
    </g>
    <g id="ytick_2">
     <g id="line2d_9">
      <g>
       <use xlink:href="#m260ade37d3" x="38.482813" y="241.999219" style="stroke: #000000; stroke-width: 0.8"/>
      </g>
     </g>
     <g id="text_9">
      <!-- −0.4 -->
      <g transform="translate(7.2 245.798438) scale(0.1 -0.1)">
       <use xlink:href="#DejaVuSans-2212"/>
       <use xlink:href="#DejaVuSans-30" transform="translate(83.789062 0)"/>
       <use xlink:href="#DejaVuSans-2e" transform="translate(147.412109 0)"/>
       <use xlink:href="#DejaVuSans-34" transform="translate(179.199219 0)"/>
      </g>
     </g>
    </g>
    <g id="ytick_3">
     <g id="line2d_10">
      <g>
       <use xlink:href="#m260ade37d3" x="38.482813" y="195.799219" style="stroke: #000000; stroke-width: 0.8"/>
      </g>
     </g>
     <g id="text_10">
      <!-- −0.2 -->
      <g transform="translate(7.2 199.598438) scale(0.1 -0.1)">
       <use xlink:href="#DejaVuSans-2212"/>
       <use xlink:href="#DejaVuSans-30" transform="translate(83.789062 0)"/>
       <use xlink:href="#DejaVuSans-2e" transform="translate(147.412109 0)"/>
       <use xlink:href="#DejaVuSans-32" transform="translate(179.199219 0)"/>
      </g>
     </g>
    </g>
    <g id="ytick_4">
     <g id="line2d_11">
      <g>
       <use xlink:href="#m260ade37d3" x="38.482813" y="149.599219" style="stroke: #000000; stroke-width: 0.8"/>
      </g>
     </g>
     <g id="text_11">
      <!-- 0.0 -->
      <g transform="translate(15.579688 153.398438) scale(0.1 -0.1)">
       <use xlink:href="#DejaVuSans-30"/>
       <use xlink:href="#DejaVuSans-2e" transform="translate(63.623047 0)"/>
       <use xlink:href="#DejaVuSans-30" transform="translate(95.410156 0)"/>
      </g>
     </g>
    </g>
    <g id="ytick_5">
     <g id="line2d_12">
      <g>
       <use xlink:href="#m260ade37d3" x="38.482813" y="103.399219" style="stroke: #000000; stroke-width: 0.8"/>
      </g>
     </g>
     <g id="text_12">
      <!-- 0.2 -->
      <g transform="translate(15.579688 107.198438) scale(0.1 -0.1)">
       <use xlink:href="#DejaVuSans-30"/>
       <use xlink:href="#DejaVuSans-2e" transform="translate(63.623047 0)"/>
       <use xlink:href="#DejaVuSans-32" transform="translate(95.410156 0)"/>
      </g>
     </g>
    </g>
    <g id="ytick_6">
     <g id="line2d_13">
      <g>
       <use xlink:href="#m260ade37d3" x="38.482813" y="57.199219" style="stroke: #000000; stroke-width: 0.8"/>
      </g>
     </g>
     <g id="text_13">
      <!-- 0.4 -->
      <g transform="translate(15.579688 60.998438) scale(0.1 -0.1)">
       <use xlink:href="#DejaVuSans-30"/>
       <use xlink:href="#DejaVuSans-2e" transform="translate(63.623047 0)"/>
       <use xlink:href="#DejaVuSans-34" transform="translate(95.410156 0)"/>
      </g>
     </g>
    </g>
    <g id="ytick_7">
     <g id="line2d_14">
      <g>
       <use xlink:href="#m260ade37d3" x="38.482813" y="10.999219" style="stroke: #000000; stroke-width: 0.8"/>
      </g>
     </g>
     <g id="text_14">
      <!-- 0.6 -->
      <g transform="translate(15.579688 14.798438) scale(0.1 -0.1)">
       <use xlink:href="#DejaVuSans-30"/>
       <use xlink:href="#DejaVuSans-2e" transform="translate(63.623047 0)"/>
       <use xlink:href="#DejaVuSans-36" transform="translate(95.410156 0)"/>
      </g>
     </g>
    </g>
   </g>
   <g id="QuadContourSet_1">
    <path d="M 233.06281 -1 
L 233.06281 313.077344 
L 233.06281 313.077344 
" clip-path="url(#p449406c8a2)" style="fill: none; stroke: #440154; stroke-width: 1.5"/>
   </g>
   <g id="patch_3">
    <path d="M 38.482813 288.199219 
L 38.482813 10.999219 
" style="fill: none; stroke: #000000; stroke-width: 0.8; stroke-linejoin: miter; stroke-linecap: square"/>
   </g>
   <g id="patch_4">
    <path d="M 429.082813 288.199219 
L 429.082813 10.999219 
" style="fill: none; stroke: #000000; stroke-width: 0.8; stroke-linejoin: miter; stroke-linecap: square"/>
   </g>
   <g id="patch_5">
    <path d="M 38.482812 288.199219 
L 429.082813 288.199219 
" style="fill: none; stroke: #000000; stroke-width: 0.8; stroke-linejoin: miter; stroke-linecap: square"/>
   </g>
   <g id="patch_6">
    <path d="M 38.482812 10.999219 
L 429.082813 10.999219 
" style="fill: none; stroke: #000000; stroke-width: 0.8; stroke-linejoin: miter; stroke-linecap: square"/>
   </g>
  </g>
 </g>
 <defs>
  <clipPath id="p449406c8a2">
   <rect x="38.482813" y="10.999219" width="390.6" height="277.2"/>
  </clipPath>
 </defs>
</svg>
