<?xml version="1.0" encoding="utf-8" standalone="no"?>
<!DOCTYPE svg PUBLIC "-//W3C//DTD SVG 1.1//EN"
  "http://www.w3.org/Graphics/SVG/1.1/DTD/svg11.dtd">
<svg xmlns:xlink="http://www.w3.org/1999/xlink" width="467.45625pt" height="325.755469pt" viewBox="0 0 467.45625 325.755469" xmlns="http://www.w3.org/2000/svg" version="1.1">
 <metadata>
  <rdf:RDF xmlns:dc="http://purl.org/dc/elements/1.1/" xmlns:cc="http://creativecommons.org/ns#" xmlns:rdf="http://www.w3.org/1999/02/22-rdf-syntax-ns#">
   <cc:Work>
    <dc:type rdf:resource="http://purl.org/dc/dcmitype/StillImage"/>
    <dc:date>2025-03-25T15:54:12.197244</dc:date>
    <dc:format>image/svg+xml</dc:format>
    <dc:creator>
     <cc:Agent>
      <dc:title>Matplotlib v3.10.0, https://matplotlib.org/</dc:title>
     </cc:Agent>
    </dc:creator>
   </cc:Work>
  </rdf:RDF>
 </metadata>
 <defs>
  <style type="text/css">*{stroke-linejoin: round; stroke-linecap: butt}</style>
 </defs>
 <g id="figure_1">
  <g id="patch_1">
   <path d="M 0 325.755469 
L 467.45625 325.755469 
L 467.45625 0 
L 0 0 
z
" style="fill: #ffffff"/>
  </g>
  <g id="axes_1">
   <g id="patch_2">
    <path d="M 58.523438 288.199219 
L 449.123438 288.199219 
L 449.123438 10.999219 
L 58.523438 10.999219 
z
" style="fill: #ffffff"/>
   </g>
   <g id="PathCollection_1">
    <defs>
     <path id="m8cbc7a0019" d="M 0 3 
C 0.795609 3 1.55874 2.683901 2.12132 2.12132 
C 2.683901 1.55874 3 0.795609 3 0 
C 3 -0.795609 2.683901 -1.55874 2.12132 -2.12132 
C 1.55874 -2.683901 0.795609 -3 0 -3 
C -0.795609 -3 -1.55874 -2.683901 -2.12132 -2.12132 
C -2.683901 -1.55874 -3 -0.795609 -3 0 
C -3 0.795609 -2.683901 1.55874 -2.12132 2.12132 
C -1.55874 2.683901 -0.795609 3 0 3 
z
" style="stroke: #1f77b4"/>
    </defs>
    <g clip-path="url(#pf7037eef1c)">
     <use xlink:href="#m8cbc7a0019" x="217.072698" y="227.625081" style="fill: #1f77b4; stroke: #1f77b4"/>
     <use xlink:href="#m8cbc7a0019" x="205.348809" y="177.237418" style="fill: #1f77b4; stroke: #1f77b4"/>
     <use xlink:href="#m8cbc7a0019" x="251.632731" y="84.850287" style="fill: #1f77b4; stroke: #1f77b4"/>
     <use xlink:href="#m8cbc7a0019" x="133.110934" y="178.934351" style="fill: #1f77b4; stroke: #1f77b4"/>
     <use xlink:href="#m8cbc7a0019" x="171.049066" y="153.660932" style="fill: #1f77b4; stroke: #1f77b4"/>
     <use xlink:href="#m8cbc7a0019" x="160.455646" y="171.472817" style="fill: #1f77b4; stroke: #1f77b4"/>
     <use xlink:href="#m8cbc7a0019" x="206.682177" y="195.166984" style="fill: #1f77b4; stroke: #1f77b4"/>
     <use xlink:href="#m8cbc7a0019" x="189.927477" y="236.986999" style="fill: #1f77b4; stroke: #1f77b4"/>
     <use xlink:href="#m8cbc7a0019" x="150.39897" y="177.404188" style="fill: #1f77b4; stroke: #1f77b4"/>
     <use xlink:href="#m8cbc7a0019" x="251.226685" y="152.020454" style="fill: #1f77b4; stroke: #1f77b4"/>
     <use xlink:href="#m8cbc7a0019" x="193.915282" y="173.501533" style="fill: #1f77b4; stroke: #1f77b4"/>
     <use xlink:href="#m8cbc7a0019" x="167.705892" y="118.23224" style="fill: #1f77b4; stroke: #1f77b4"/>
     <use xlink:href="#m8cbc7a0019" x="185.194681" y="160.25291" style="fill: #1f77b4; stroke: #1f77b4"/>
     <use xlink:href="#m8cbc7a0019" x="177.598873" y="124.272651" style="fill: #1f77b4; stroke: #1f77b4"/>
     <use xlink:href="#m8cbc7a0019" x="177.736316" y="271.661795" style="fill: #1f77b4; stroke: #1f77b4"/>
     <use xlink:href="#m8cbc7a0019" x="146.026971" y="149.980909" style="fill: #1f77b4; stroke: #1f77b4"/>
     <use xlink:href="#m8cbc7a0019" x="178.702574" y="217.064095" style="fill: #1f77b4; stroke: #1f77b4"/>
     <use xlink:href="#m8cbc7a0019" x="209.641402" y="232.11076" style="fill: #1f77b4; stroke: #1f77b4"/>
     <use xlink:href="#m8cbc7a0019" x="181.613276" y="169.155523" style="fill: #1f77b4; stroke: #1f77b4"/>
     <use xlink:href="#m8cbc7a0019" x="222.522513" y="211.298686" style="fill: #1f77b4; stroke: #1f77b4"/>
     <use xlink:href="#m8cbc7a0019" x="243.376786" y="147.982727" style="fill: #1f77b4; stroke: #1f77b4"/>
     <use xlink:href="#m8cbc7a0019" x="181.566111" y="204.067158" style="fill: #1f77b4; stroke: #1f77b4"/>
     <use xlink:href="#m8cbc7a0019" x="237.016995" y="149.357815" style="fill: #1f77b4; stroke: #1f77b4"/>
     <use xlink:href="#m8cbc7a0019" x="192.836761" y="207.99327" style="fill: #1f77b4; stroke: #1f77b4"/>
     <use xlink:href="#m8cbc7a0019" x="161.892222" y="255.249474" style="fill: #1f77b4; stroke: #1f77b4"/>
     <use xlink:href="#m8cbc7a0019" x="199.652925" y="169.477401" style="fill: #1f77b4; stroke: #1f77b4"/>
     <use xlink:href="#m8cbc7a0019" x="173.245582" y="143.506576" style="fill: #1f77b4; stroke: #1f77b4"/>
     <use xlink:href="#m8cbc7a0019" x="178.528051" y="148.735247" style="fill: #1f77b4; stroke: #1f77b4"/>
     <use xlink:href="#m8cbc7a0019" x="201.788295" y="231.50343" style="fill: #1f77b4; stroke: #1f77b4"/>
     <use xlink:href="#m8cbc7a0019" x="147.298669" y="187.538374" style="fill: #1f77b4; stroke: #1f77b4"/>
     <use xlink:href="#m8cbc7a0019" x="195.635695" y="213.32417" style="fill: #1f77b4; stroke: #1f77b4"/>
     <use xlink:href="#m8cbc7a0019" x="206.026018" y="204.926332" style="fill: #1f77b4; stroke: #1f77b4"/>
     <use xlink:href="#m8cbc7a0019" x="174.069995" y="193.722821" style="fill: #1f77b4; stroke: #1f77b4"/>
     <use xlink:href="#m8cbc7a0019" x="237.066267" y="186.373361" style="fill: #1f77b4; stroke: #1f77b4"/>
     <use xlink:href="#m8cbc7a0019" x="239.274094" y="164.622839" style="fill: #1f77b4; stroke: #1f77b4"/>
     <use xlink:href="#m8cbc7a0019" x="170.323865" y="202.852555" style="fill: #1f77b4; stroke: #1f77b4"/>
     <use xlink:href="#m8cbc7a0019" x="110.257725" y="135.818096" style="fill: #1f77b4; stroke: #1f77b4"/>
     <use xlink:href="#m8cbc7a0019" x="161.656449" y="186.772568" style="fill: #1f77b4; stroke: #1f77b4"/>
     <use xlink:href="#m8cbc7a0019" x="157.748274" y="214.126728" style="fill: #1f77b4; stroke: #1f77b4"/>
     <use xlink:href="#m8cbc7a0019" x="147.369089" y="191.021105" style="fill: #1f77b4; stroke: #1f77b4"/>
     <use xlink:href="#m8cbc7a0019" x="132.649297" y="188.926606" style="fill: #1f77b4; stroke: #1f77b4"/>
     <use xlink:href="#m8cbc7a0019" x="159.285321" y="111.054578" style="fill: #1f77b4; stroke: #1f77b4"/>
     <use xlink:href="#m8cbc7a0019" x="271.48384" y="176.832751" style="fill: #1f77b4; stroke: #1f77b4"/>
     <use xlink:href="#m8cbc7a0019" x="165.071587" y="154.16679" style="fill: #1f77b4; stroke: #1f77b4"/>
     <use xlink:href="#m8cbc7a0019" x="89.140986" y="160.605481" style="fill: #1f77b4; stroke: #1f77b4"/>
     <use xlink:href="#m8cbc7a0019" x="88.295689" y="96.904175" style="fill: #1f77b4; stroke: #1f77b4"/>
     <use xlink:href="#m8cbc7a0019" x="166.605894" y="194.939889" style="fill: #1f77b4; stroke: #1f77b4"/>
     <use xlink:href="#m8cbc7a0019" x="218.78305" y="114.573232" style="fill: #1f77b4; stroke: #1f77b4"/>
     <use xlink:href="#m8cbc7a0019" x="200.700434" y="140.775039" style="fill: #1f77b4; stroke: #1f77b4"/>
     <use xlink:href="#m8cbc7a0019" x="241.796045" y="132.741757" style="fill: #1f77b4; stroke: #1f77b4"/>
     <use xlink:href="#m8cbc7a0019" x="208.737925" y="199.313513" style="fill: #1f77b4; stroke: #1f77b4"/>
     <use xlink:href="#m8cbc7a0019" x="327.25086" y="188.888941" style="fill: #1f77b4; stroke: #1f77b4"/>
     <use xlink:href="#m8cbc7a0019" x="301.101724" y="103.067208" style="fill: #1f77b4; stroke: #1f77b4"/>
     <use xlink:href="#m8cbc7a0019" x="168.664483" y="115.628671" style="fill: #1f77b4; stroke: #1f77b4"/>
     <use xlink:href="#m8cbc7a0019" x="252.863614" y="82.946757" style="fill: #1f77b4; stroke: #1f77b4"/>
     <use xlink:href="#m8cbc7a0019" x="160.008048" y="91.661412" style="fill: #1f77b4; stroke: #1f77b4"/>
     <use xlink:href="#m8cbc7a0019" x="229.835453" y="106.180524" style="fill: #1f77b4; stroke: #1f77b4"/>
     <use xlink:href="#m8cbc7a0019" x="172.042925" y="201.453114" style="fill: #1f77b4; stroke: #1f77b4"/>
     <use xlink:href="#m8cbc7a0019" x="271.202085" y="148.082781" style="fill: #1f77b4; stroke: #1f77b4"/>
     <use xlink:href="#m8cbc7a0019" x="214.257788" y="140.260386" style="fill: #1f77b4; stroke: #1f77b4"/>
     <use xlink:href="#m8cbc7a0019" x="185.375069" y="211.556762" style="fill: #1f77b4; stroke: #1f77b4"/>
     <use xlink:href="#m8cbc7a0019" x="140.644487" y="170.377611" style="fill: #1f77b4; stroke: #1f77b4"/>
     <use xlink:href="#m8cbc7a0019" x="279.290702" y="163.157144" style="fill: #1f77b4; stroke: #1f77b4"/>
     <use xlink:href="#m8cbc7a0019" x="189.947233" y="142.506696" style="fill: #1f77b4; stroke: #1f77b4"/>
     <use xlink:href="#m8cbc7a0019" x="208.373086" y="279.70906" style="fill: #1f77b4; stroke: #1f77b4"/>
     <use xlink:href="#m8cbc7a0019" x="301.866712" y="222.602874" style="fill: #1f77b4; stroke: #1f77b4"/>
     <use xlink:href="#m8cbc7a0019" x="197.984433" y="77.22164" style="fill: #1f77b4; stroke: #1f77b4"/>
     <use xlink:href="#m8cbc7a0019" x="193.298347" y="133.336745" style="fill: #1f77b4; stroke: #1f77b4"/>
     <use xlink:href="#m8cbc7a0019" x="246.165333" y="194.530603" style="fill: #1f77b4; stroke: #1f77b4"/>
     <use xlink:href="#m8cbc7a0019" x="248.266807" y="82.007293" style="fill: #1f77b4; stroke: #1f77b4"/>
     <use xlink:href="#m8cbc7a0019" x="249.539848" y="175.054305" style="fill: #1f77b4; stroke: #1f77b4"/>
     <use xlink:href="#m8cbc7a0019" x="212.296188" y="90.467511" style="fill: #1f77b4; stroke: #1f77b4"/>
     <use xlink:href="#m8cbc7a0019" x="179.06869" y="193.878687" style="fill: #1f77b4; stroke: #1f77b4"/>
     <use xlink:href="#m8cbc7a0019" x="282.200167" y="146.79807" style="fill: #1f77b4; stroke: #1f77b4"/>
     <use xlink:href="#m8cbc7a0019" x="197.980286" y="126.577308" style="fill: #1f77b4; stroke: #1f77b4"/>
     <use xlink:href="#m8cbc7a0019" x="201.043522" y="176.983174" style="fill: #1f77b4; stroke: #1f77b4"/>
     <use xlink:href="#m8cbc7a0019" x="221.779754" y="163.63649" style="fill: #1f77b4; stroke: #1f77b4"/>
     <use xlink:href="#m8cbc7a0019" x="217.461768" y="209.510389" style="fill: #1f77b4; stroke: #1f77b4"/>
     <use xlink:href="#m8cbc7a0019" x="167.088575" y="206.593599" style="fill: #1f77b4; stroke: #1f77b4"/>
     <use xlink:href="#m8cbc7a0019" x="306.867246" y="230.531716" style="fill: #1f77b4; stroke: #1f77b4"/>
    </g>
   </g>
   <g id="PathCollection_2">
    <defs>
     <path id="m2c193ee837" d="M 0 3 
C 0.795609 3 1.55874 2.683901 2.12132 2.12132 
C 2.683901 1.55874 3 0.795609 3 0 
C 3 -0.795609 2.683901 -1.55874 2.12132 -2.12132 
C 1.55874 -2.683901 0.795609 -3 0 -3 
C -0.795609 -3 -1.55874 -2.683901 -2.12132 -2.12132 
C -2.683901 -1.55874 -3 -0.795609 -3 0 
C -3 0.795609 -2.683901 1.55874 -2.12132 2.12132 
C -1.55874 2.683901 -0.795609 3 0 3 
z
" style="stroke: #ff7f0e"/>
    </defs>
    <g clip-path="url(#pf7037eef1c)">
     <use xlink:href="#m2c193ee837" x="330.540615" y="60.947738" style="fill: #ff7f0e; stroke: #ff7f0e"/>
     <use xlink:href="#m2c193ee837" x="324.828302" y="161.925461" style="fill: #ff7f0e; stroke: #ff7f0e"/>
     <use xlink:href="#m2c193ee837" x="384.817431" y="241.226051" style="fill: #ff7f0e; stroke: #ff7f0e"/>
     <use xlink:href="#m2c193ee837" x="375.429297" y="198.425719" style="fill: #ff7f0e; stroke: #ff7f0e"/>
     <use xlink:href="#m2c193ee837" x="260.21802" y="57.742941" style="fill: #ff7f0e; stroke: #ff7f0e"/>
     <use xlink:href="#m2c193ee837" x="126.361888" y="119.595976" style="fill: #ff7f0e; stroke: #ff7f0e"/>
     <use xlink:href="#m2c193ee837" x="258.792592" y="125.368613" style="fill: #ff7f0e; stroke: #ff7f0e"/>
     <use xlink:href="#m2c193ee837" x="227.143344" y="104.554075" style="fill: #ff7f0e; stroke: #ff7f0e"/>
     <use xlink:href="#m2c193ee837" x="205.592537" y="120.183335" style="fill: #ff7f0e; stroke: #ff7f0e"/>
     <use xlink:href="#m2c193ee837" x="224.841888" y="104.125772" style="fill: #ff7f0e; stroke: #ff7f0e"/>
     <use xlink:href="#m2c193ee837" x="248.698086" y="106.593696" style="fill: #ff7f0e; stroke: #ff7f0e"/>
     <use xlink:href="#m2c193ee837" x="295.602866" y="172.235368" style="fill: #ff7f0e; stroke: #ff7f0e"/>
     <use xlink:href="#m2c193ee837" x="342.095209" y="138.432336" style="fill: #ff7f0e; stroke: #ff7f0e"/>
     <use xlink:href="#m2c193ee837" x="248.560855" y="106.170134" style="fill: #ff7f0e; stroke: #ff7f0e"/>
     <use xlink:href="#m2c193ee837" x="333.788045" y="136.252129" style="fill: #ff7f0e; stroke: #ff7f0e"/>
     <use xlink:href="#m2c193ee837" x="288.412005" y="89.861972" style="fill: #ff7f0e; stroke: #ff7f0e"/>
     <use xlink:href="#m2c193ee837" x="305.272216" y="156.136035" style="fill: #ff7f0e; stroke: #ff7f0e"/>
     <use xlink:href="#m2c193ee837" x="194.643919" y="108.168751" style="fill: #ff7f0e; stroke: #ff7f0e"/>
     <use xlink:href="#m2c193ee837" x="317.371412" y="172.452741" style="fill: #ff7f0e; stroke: #ff7f0e"/>
     <use xlink:href="#m2c193ee837" x="337.614972" y="145.741773" style="fill: #ff7f0e; stroke: #ff7f0e"/>
     <use xlink:href="#m2c193ee837" x="305.636219" y="128.950413" style="fill: #ff7f0e; stroke: #ff7f0e"/>
     <use xlink:href="#m2c193ee837" x="207.492181" y="86.609857" style="fill: #ff7f0e; stroke: #ff7f0e"/>
     <use xlink:href="#m2c193ee837" x="265.495752" y="115.117189" style="fill: #ff7f0e; stroke: #ff7f0e"/>
     <use xlink:href="#m2c193ee837" x="306.170166" y="89.532048" style="fill: #ff7f0e; stroke: #ff7f0e"/>
     <use xlink:href="#m2c193ee837" x="376.628931" y="158.161325" style="fill: #ff7f0e; stroke: #ff7f0e"/>
     <use xlink:href="#m2c193ee837" x="196.572354" y="44.968194" style="fill: #ff7f0e; stroke: #ff7f0e"/>
     <use xlink:href="#m2c193ee837" x="262.897256" y="76.632076" style="fill: #ff7f0e; stroke: #ff7f0e"/>
     <use xlink:href="#m2c193ee837" x="355.953709" y="132.257536" style="fill: #ff7f0e; stroke: #ff7f0e"/>
     <use xlink:href="#m2c193ee837" x="232.761869" y="114.628629" style="fill: #ff7f0e; stroke: #ff7f0e"/>
     <use xlink:href="#m2c193ee837" x="266.58246" y="75.304921" style="fill: #ff7f0e; stroke: #ff7f0e"/>
     <use xlink:href="#m2c193ee837" x="153.685078" y="118.235998" style="fill: #ff7f0e; stroke: #ff7f0e"/>
     <use xlink:href="#m2c193ee837" x="305.637135" y="26.022887" style="fill: #ff7f0e; stroke: #ff7f0e"/>
     <use xlink:href="#m2c193ee837" x="221.447992" y="106.745651" style="fill: #ff7f0e; stroke: #ff7f0e"/>
     <use xlink:href="#m2c193ee837" x="438.883074" y="183.485975" style="fill: #ff7f0e; stroke: #ff7f0e"/>
     <use xlink:href="#m2c193ee837" x="314.006598" y="170.945586" style="fill: #ff7f0e; stroke: #ff7f0e"/>
     <use xlink:href="#m2c193ee837" x="347.959563" y="129.409846" style="fill: #ff7f0e; stroke: #ff7f0e"/>
     <use xlink:href="#m2c193ee837" x="388.204664" y="201.809492" style="fill: #ff7f0e; stroke: #ff7f0e"/>
     <use xlink:href="#m2c193ee837" x="242.61536" y="110.172306" style="fill: #ff7f0e; stroke: #ff7f0e"/>
     <use xlink:href="#m2c193ee837" x="256.133476" y="119.259736" style="fill: #ff7f0e; stroke: #ff7f0e"/>
     <use xlink:href="#m2c193ee837" x="310.164689" y="147.90957" style="fill: #ff7f0e; stroke: #ff7f0e"/>
     <use xlink:href="#m2c193ee837" x="311.689765" y="136.371445" style="fill: #ff7f0e; stroke: #ff7f0e"/>
     <use xlink:href="#m2c193ee837" x="306.604011" y="77.284894" style="fill: #ff7f0e; stroke: #ff7f0e"/>
     <use xlink:href="#m2c193ee837" x="351.151204" y="174.685163" style="fill: #ff7f0e; stroke: #ff7f0e"/>
     <use xlink:href="#m2c193ee837" x="326.367605" y="149.773355" style="fill: #ff7f0e; stroke: #ff7f0e"/>
     <use xlink:href="#m2c193ee837" x="319.489669" y="172.120407" style="fill: #ff7f0e; stroke: #ff7f0e"/>
     <use xlink:href="#m2c193ee837" x="273.041369" y="116.126715" style="fill: #ff7f0e; stroke: #ff7f0e"/>
     <use xlink:href="#m2c193ee837" x="267.634005" y="148.522485" style="fill: #ff7f0e; stroke: #ff7f0e"/>
     <use xlink:href="#m2c193ee837" x="323.54848" y="193.460099" style="fill: #ff7f0e; stroke: #ff7f0e"/>
     <use xlink:href="#m2c193ee837" x="283.33852" y="190.672694" style="fill: #ff7f0e; stroke: #ff7f0e"/>
     <use xlink:href="#m2c193ee837" x="258.186381" y="161.283027" style="fill: #ff7f0e; stroke: #ff7f0e"/>
     <use xlink:href="#m2c193ee837" x="271.183428" y="66.752637" style="fill: #ff7f0e; stroke: #ff7f0e"/>
     <use xlink:href="#m2c193ee837" x="218.112806" y="108.219983" style="fill: #ff7f0e; stroke: #ff7f0e"/>
     <use xlink:href="#m2c193ee837" x="333.916654" y="106.462616" style="fill: #ff7f0e; stroke: #ff7f0e"/>
     <use xlink:href="#m2c193ee837" x="252.902886" y="151.002949" style="fill: #ff7f0e; stroke: #ff7f0e"/>
     <use xlink:href="#m2c193ee837" x="209.279225" y="97.731751" style="fill: #ff7f0e; stroke: #ff7f0e"/>
     <use xlink:href="#m2c193ee837" x="243.836637" y="119.155588" style="fill: #ff7f0e; stroke: #ff7f0e"/>
     <use xlink:href="#m2c193ee837" x="324.535573" y="145.574212" style="fill: #ff7f0e; stroke: #ff7f0e"/>
     <use xlink:href="#m2c193ee837" x="284.685814" y="132.684202" style="fill: #ff7f0e; stroke: #ff7f0e"/>
     <use xlink:href="#m2c193ee837" x="315.526506" y="104.776631" style="fill: #ff7f0e; stroke: #ff7f0e"/>
     <use xlink:href="#m2c193ee837" x="331.138639" y="111.275544" style="fill: #ff7f0e; stroke: #ff7f0e"/>
     <use xlink:href="#m2c193ee837" x="329.677293" y="117.274647" style="fill: #ff7f0e; stroke: #ff7f0e"/>
     <use xlink:href="#m2c193ee837" x="255.234468" y="84.501582" style="fill: #ff7f0e; stroke: #ff7f0e"/>
     <use xlink:href="#m2c193ee837" x="323.060698" y="104.132064" style="fill: #ff7f0e; stroke: #ff7f0e"/>
     <use xlink:href="#m2c193ee837" x="370.030769" y="137.376509" style="fill: #ff7f0e; stroke: #ff7f0e"/>
     <use xlink:href="#m2c193ee837" x="227.926782" y="120.677569" style="fill: #ff7f0e; stroke: #ff7f0e"/>
     <use xlink:href="#m2c193ee837" x="260.471401" y="80.794772" style="fill: #ff7f0e; stroke: #ff7f0e"/>
     <use xlink:href="#m2c193ee837" x="341.640705" y="169.994093" style="fill: #ff7f0e; stroke: #ff7f0e"/>
     <use xlink:href="#m2c193ee837" x="213.54685" y="166.794605" style="fill: #ff7f0e; stroke: #ff7f0e"/>
     <use xlink:href="#m2c193ee837" x="321.02633" y="130.855875" style="fill: #ff7f0e; stroke: #ff7f0e"/>
     <use xlink:href="#m2c193ee837" x="250.824153" y="108.952077" style="fill: #ff7f0e; stroke: #ff7f0e"/>
     <use xlink:href="#m2c193ee837" x="176.830913" y="149.320339" style="fill: #ff7f0e; stroke: #ff7f0e"/>
     <use xlink:href="#m2c193ee837" x="279.010656" y="92.314274" style="fill: #ff7f0e; stroke: #ff7f0e"/>
     <use xlink:href="#m2c193ee837" x="260.220875" y="112.935156" style="fill: #ff7f0e; stroke: #ff7f0e"/>
     <use xlink:href="#m2c193ee837" x="253.81383" y="118.618794" style="fill: #ff7f0e; stroke: #ff7f0e"/>
     <use xlink:href="#m2c193ee837" x="302.358324" y="139.094503" style="fill: #ff7f0e; stroke: #ff7f0e"/>
     <use xlink:href="#m2c193ee837" x="300.715492" y="120.951783" style="fill: #ff7f0e; stroke: #ff7f0e"/>
     <use xlink:href="#m2c193ee837" x="322.197192" y="141.993382" style="fill: #ff7f0e; stroke: #ff7f0e"/>
     <use xlink:href="#m2c193ee837" x="300.455485" y="110.685525" style="fill: #ff7f0e; stroke: #ff7f0e"/>
     <use xlink:href="#m2c193ee837" x="314.999885" y="126.260168" style="fill: #ff7f0e; stroke: #ff7f0e"/>
     <use xlink:href="#m2c193ee837" x="263.464839" y="96.818807" style="fill: #ff7f0e; stroke: #ff7f0e"/>
    </g>
   </g>
   <g id="matplotlib.axis_1">
    <g id="xtick_1">
     <g id="line2d_1">
      <defs>
       <path id="med1f37b2b6" d="M 0 0 
L 0 3.5 
" style="stroke: #000000; stroke-width: 0.8"/>
      </defs>
      <g>
       <use xlink:href="#med1f37b2b6" x="58.523438" y="288.199219" style="stroke: #000000; stroke-width: 0.8"/>
      </g>
     </g>
     <g id="text_1">
      <!-- −0.15 -->
      <g transform="translate(43.200781 302.797656) scale(0.1 -0.1)">
       <defs>
        <path id="DejaVuSans-2212" d="M 678 2272 
L 4684 2272 
L 4684 1741 
L 678 1741 
L 678 2272 
z
" transform="scale(0.015625)"/>
        <path id="DejaVuSans-30" d="M 2034 4250 
Q 1547 4250 1301 3770 
Q 1056 3291 1056 2328 
Q 1056 1369 1301 889 
Q 1547 409 2034 409 
Q 2525 409 2770 889 
Q 3016 1369 3016 2328 
Q 3016 3291 2770 3770 
Q 2525 4250 2034 4250 
z
M 2034 4750 
Q 2819 4750 3233 4129 
Q 3647 3509 3647 2328 
Q 3647 1150 3233 529 
Q 2819 -91 2034 -91 
Q 1250 -91 836 529 
Q 422 1150 422 2328 
Q 422 3509 836 4129 
Q 1250 4750 2034 4750 
z
" transform="scale(0.015625)"/>
        <path id="DejaVuSans-2e" d="M 684 794 
L 1344 794 
L 1344 0 
L 684 0 
L 684 794 
z
" transform="scale(0.015625)"/>
        <path id="DejaVuSans-31" d="M 794 531 
L 1825 531 
L 1825 4091 
L 703 3866 
L 703 4441 
L 1819 4666 
L 2450 4666 
L 2450 531 
L 3481 531 
L 3481 0 
L 794 0 
L 794 531 
z
" transform="scale(0.015625)"/>
        <path id="DejaVuSans-35" d="M 691 4666 
L 3169 4666 
L 3169 4134 
L 1269 4134 
L 1269 2991 
Q 1406 3038 1543 3061 
Q 1681 3084 1819 3084 
Q 2600 3084 3056 2656 
Q 3513 2228 3513 1497 
Q 3513 744 3044 326 
Q 2575 -91 1722 -91 
Q 1428 -91 1123 -41 
Q 819 9 494 109 
L 494 744 
Q 775 591 1075 516 
Q 1375 441 1709 441 
Q 2250 441 2565 725 
Q 2881 1009 2881 1497 
Q 2881 1984 2565 2268 
Q 2250 2553 1709 2553 
Q 1456 2553 1204 2497 
Q 953 2441 691 2322 
L 691 4666 
z
" transform="scale(0.015625)"/>
       </defs>
       <use xlink:href="#DejaVuSans-2212"/>
       <use xlink:href="#DejaVuSans-30" transform="translate(83.789062 0)"/>
       <use xlink:href="#DejaVuSans-2e" transform="translate(147.412109 0)"/>
       <use xlink:href="#DejaVuSans-31" transform="translate(179.199219 0)"/>
       <use xlink:href="#DejaVuSans-35" transform="translate(242.822266 0)"/>
      </g>
     </g>
    </g>
    <g id="xtick_2">
     <g id="line2d_2">
      <g>
       <use xlink:href="#med1f37b2b6" x="107.348438" y="288.199219" style="stroke: #000000; stroke-width: 0.8"/>
      </g>
     </g>
     <g id="text_2">
      <!-- −0.10 -->
      <g transform="translate(92.025781 302.797656) scale(0.1 -0.1)">
       <use xlink:href="#DejaVuSans-2212"/>
       <use xlink:href="#DejaVuSans-30" transform="translate(83.789062 0)"/>
       <use xlink:href="#DejaVuSans-2e" transform="translate(147.412109 0)"/>
       <use xlink:href="#DejaVuSans-31" transform="translate(179.199219 0)"/>
       <use xlink:href="#DejaVuSans-30" transform="translate(242.822266 0)"/>
      </g>
     </g>
    </g>
    <g id="xtick_3">
     <g id="line2d_3">
      <g>
       <use xlink:href="#med1f37b2b6" x="156.173438" y="288.199219" style="stroke: #000000; stroke-width: 0.8"/>
      </g>
     </g>
     <g id="text_3">
      <!-- −0.05 -->
      <g transform="translate(140.850781 302.797656) scale(0.1 -0.1)">
       <use xlink:href="#DejaVuSans-2212"/>
       <use xlink:href="#DejaVuSans-30" transform="translate(83.789062 0)"/>
       <use xlink:href="#DejaVuSans-2e" transform="translate(147.412109 0)"/>
       <use xlink:href="#DejaVuSans-30" transform="translate(179.199219 0)"/>
       <use xlink:href="#DejaVuSans-35" transform="translate(242.822266 0)"/>
      </g>
     </g>
    </g>
    <g id="xtick_4">
     <g id="line2d_4">
      <g>
       <use xlink:href="#med1f37b2b6" x="204.998438" y="288.199219" style="stroke: #000000; stroke-width: 0.8"/>
      </g>
     </g>
     <g id="text_4">
      <!-- 0.00 -->
      <g transform="translate(193.865625 302.797656) scale(0.1 -0.1)">
       <use xlink:href="#DejaVuSans-30"/>
       <use xlink:href="#DejaVuSans-2e" transform="translate(63.623047 0)"/>
       <use xlink:href="#DejaVuSans-30" transform="translate(95.410156 0)"/>
       <use xlink:href="#DejaVuSans-30" transform="translate(159.033203 0)"/>
      </g>
     </g>
    </g>
    <g id="xtick_5">
     <g id="line2d_5">
      <g>
       <use xlink:href="#med1f37b2b6" x="253.823438" y="288.199219" style="stroke: #000000; stroke-width: 0.8"/>
      </g>
     </g>
     <g id="text_5">
      <!-- 0.05 -->
      <g transform="translate(242.690625 302.797656) scale(0.1 -0.1)">
       <use xlink:href="#DejaVuSans-30"/>
       <use xlink:href="#DejaVuSans-2e" transform="translate(63.623047 0)"/>
       <use xlink:href="#DejaVuSans-30" transform="translate(95.410156 0)"/>
       <use xlink:href="#DejaVuSans-35" transform="translate(159.033203 0)"/>
      </g>
     </g>
    </g>
    <g id="xtick_6">
     <g id="line2d_6">
      <g>
       <use xlink:href="#med1f37b2b6" x="302.648438" y="288.199219" style="stroke: #000000; stroke-width: 0.8"/>
      </g>
     </g>
     <g id="text_6">
      <!-- 0.10 -->
      <g transform="translate(291.515625 302.797656) scale(0.1 -0.1)">
       <use xlink:href="#DejaVuSans-30"/>
       <use xlink:href="#DejaVuSans-2e" transform="translate(63.623047 0)"/>
       <use xlink:href="#DejaVuSans-31" transform="translate(95.410156 0)"/>
       <use xlink:href="#DejaVuSans-30" transform="translate(159.033203 0)"/>
      </g>
     </g>
    </g>
    <g id="xtick_7">
     <g id="line2d_7">
      <g>
       <use xlink:href="#med1f37b2b6" x="351.473438" y="288.199219" style="stroke: #000000; stroke-width: 0.8"/>
      </g>
     </g>
     <g id="text_7">
      <!-- 0.15 -->
      <g transform="translate(340.340625 302.797656) scale(0.1 -0.1)">
       <use xlink:href="#DejaVuSans-30"/>
       <use xlink:href="#DejaVuSans-2e" transform="translate(63.623047 0)"/>
       <use xlink:href="#DejaVuSans-31" transform="translate(95.410156 0)"/>
       <use xlink:href="#DejaVuSans-35" transform="translate(159.033203 0)"/>
      </g>
     </g>
    </g>
    <g id="xtick_8">
     <g id="line2d_8">
      <g>
       <use xlink:href="#med1f37b2b6" x="400.298438" y="288.199219" style="stroke: #000000; stroke-width: 0.8"/>
      </g>
     </g>
     <g id="text_8">
      <!-- 0.20 -->
      <g transform="translate(389.165625 302.797656) scale(0.1 -0.1)">
       <defs>
        <path id="DejaVuSans-32" d="M 1228 531 
L 3431 531 
L 3431 0 
L 469 0 
L 469 531 
Q 828 903 1448 1529 
Q 2069 2156 2228 2338 
Q 2531 2678 2651 2914 
Q 2772 3150 2772 3378 
Q 2772 3750 2511 3984 
Q 2250 4219 1831 4219 
Q 1534 4219 1204 4116 
Q 875 4013 500 3803 
L 500 4441 
Q 881 4594 1212 4672 
Q 1544 4750 1819 4750 
Q 2544 4750 2975 4387 
Q 3406 4025 3406 3419 
Q 3406 3131 3298 2873 
Q 3191 2616 2906 2266 
Q 2828 2175 2409 1742 
Q 1991 1309 1228 531 
z
" transform="scale(0.015625)"/>
       </defs>
       <use xlink:href="#DejaVuSans-30"/>
       <use xlink:href="#DejaVuSans-2e" transform="translate(63.623047 0)"/>
       <use xlink:href="#DejaVuSans-32" transform="translate(95.410156 0)"/>
       <use xlink:href="#DejaVuSans-30" transform="translate(159.033203 0)"/>
      </g>
     </g>
    </g>
    <g id="xtick_9">
     <g id="line2d_9">
      <g>
       <use xlink:href="#med1f37b2b6" x="449.123438" y="288.199219" style="stroke: #000000; stroke-width: 0.8"/>
      </g>
     </g>
     <g id="text_9">
      <!-- 0.25 -->
      <g transform="translate(437.990625 302.797656) scale(0.1 -0.1)">
       <use xlink:href="#DejaVuSans-30"/>
       <use xlink:href="#DejaVuSans-2e" transform="translate(63.623047 0)"/>
       <use xlink:href="#DejaVuSans-32" transform="translate(95.410156 0)"/>
       <use xlink:href="#DejaVuSans-35" transform="translate(159.033203 0)"/>
      </g>
     </g>
    </g>
    <g id="text_10">
     <!-- $PC_2$ -->
     <g transform="translate(244.923438 316.475781) scale(0.1 -0.1)">
      <defs>
       <path id="DejaVuSans-Oblique-50" d="M 1081 4666 
L 2541 4666 
Q 3178 4666 3512 4369 
Q 3847 4072 3847 3500 
Q 3847 2731 3353 2303 
Q 2859 1875 1966 1875 
L 1172 1875 
L 806 0 
L 172 0 
L 1081 4666 
z
M 1613 4147 
L 1275 2394 
L 2069 2394 
Q 2606 2394 2893 2669 
Q 3181 2944 3181 3456 
Q 3181 3784 2986 3965 
Q 2791 4147 2438 4147 
L 1613 4147 
z
" transform="scale(0.015625)"/>
       <path id="DejaVuSans-Oblique-43" d="M 4447 4306 
L 4319 3641 
Q 4019 3944 3683 4091 
Q 3347 4238 2956 4238 
Q 2422 4238 2017 3981 
Q 1613 3725 1319 3200 
Q 1131 2863 1032 2486 
Q 934 2109 934 1728 
Q 934 1091 1264 756 
Q 1594 422 2222 422 
Q 2656 422 3056 561 
Q 3456 700 3834 978 
L 3688 231 
Q 3316 72 2936 -9 
Q 2556 -91 2175 -91 
Q 1278 -91 773 396 
Q 269 884 269 1753 
Q 269 2309 461 2846 
Q 653 3384 1013 3828 
Q 1394 4300 1883 4525 
Q 2372 4750 3022 4750 
Q 3422 4750 3780 4639 
Q 4138 4528 4447 4306 
z
" transform="scale(0.015625)"/>
      </defs>
      <use xlink:href="#DejaVuSans-Oblique-50" transform="translate(0 0.78125)"/>
      <use xlink:href="#DejaVuSans-Oblique-43" transform="translate(60.302734 0.78125)"/>
      <use xlink:href="#DejaVuSans-32" transform="translate(130.126953 -15.625) scale(0.7)"/>
     </g>
    </g>
   </g>
   <g id="matplotlib.axis_2">
    <g id="ytick_1">
     <g id="line2d_10">
      <defs>
       <path id="m3571c21718" d="M 0 0 
L -3.5 0 
" style="stroke: #000000; stroke-width: 0.8"/>
      </defs>
      <g>
       <use xlink:href="#m3571c21718" x="58.523438" y="288.199219" style="stroke: #000000; stroke-width: 0.8"/>
      </g>
     </g>
     <g id="text_11">
      <!-- −0.25 -->
      <g transform="translate(20.878125 291.998438) scale(0.1 -0.1)">
       <use xlink:href="#DejaVuSans-2212"/>
       <use xlink:href="#DejaVuSans-30" transform="translate(83.789062 0)"/>
       <use xlink:href="#DejaVuSans-2e" transform="translate(147.412109 0)"/>
       <use xlink:href="#DejaVuSans-32" transform="translate(179.199219 0)"/>
       <use xlink:href="#DejaVuSans-35" transform="translate(242.822266 0)"/>
      </g>
     </g>
    </g>
    <g id="ytick_2">
     <g id="line2d_11">
      <g>
       <use xlink:href="#m3571c21718" x="58.523438" y="257.399219" style="stroke: #000000; stroke-width: 0.8"/>
      </g>
     </g>
     <g id="text_12">
      <!-- −0.20 -->
      <g transform="translate(20.878125 261.198438) scale(0.1 -0.1)">
       <use xlink:href="#DejaVuSans-2212"/>
       <use xlink:href="#DejaVuSans-30" transform="translate(83.789062 0)"/>
       <use xlink:href="#DejaVuSans-2e" transform="translate(147.412109 0)"/>
       <use xlink:href="#DejaVuSans-32" transform="translate(179.199219 0)"/>
       <use xlink:href="#DejaVuSans-30" transform="translate(242.822266 0)"/>
      </g>
     </g>
    </g>
    <g id="ytick_3">
     <g id="line2d_12">
      <g>
       <use xlink:href="#m3571c21718" x="58.523438" y="226.599219" style="stroke: #000000; stroke-width: 0.8"/>
      </g>
     </g>
     <g id="text_13">
      <!-- −0.15 -->
      <g transform="translate(20.878125 230.398438) scale(0.1 -0.1)">
       <use xlink:href="#DejaVuSans-2212"/>
       <use xlink:href="#DejaVuSans-30" transform="translate(83.789062 0)"/>
       <use xlink:href="#DejaVuSans-2e" transform="translate(147.412109 0)"/>
       <use xlink:href="#DejaVuSans-31" transform="translate(179.199219 0)"/>
       <use xlink:href="#DejaVuSans-35" transform="translate(242.822266 0)"/>
      </g>
     </g>
    </g>
    <g id="ytick_4">
     <g id="line2d_13">
      <g>
       <use xlink:href="#m3571c21718" x="58.523438" y="195.799219" style="stroke: #000000; stroke-width: 0.8"/>
      </g>
     </g>
     <g id="text_14">
      <!-- −0.10 -->
      <g transform="translate(20.878125 199.598437) scale(0.1 -0.1)">
       <use xlink:href="#DejaVuSans-2212"/>
       <use xlink:href="#DejaVuSans-30" transform="translate(83.789062 0)"/>
       <use xlink:href="#DejaVuSans-2e" transform="translate(147.412109 0)"/>
       <use xlink:href="#DejaVuSans-31" transform="translate(179.199219 0)"/>
       <use xlink:href="#DejaVuSans-30" transform="translate(242.822266 0)"/>
      </g>
     </g>
    </g>
    <g id="ytick_5">
     <g id="line2d_14">
      <g>
       <use xlink:href="#m3571c21718" x="58.523438" y="164.999219" style="stroke: #000000; stroke-width: 0.8"/>
      </g>
     </g>
     <g id="text_15">
      <!-- −0.05 -->
      <g transform="translate(20.878125 168.798438) scale(0.1 -0.1)">
       <use xlink:href="#DejaVuSans-2212"/>
       <use xlink:href="#DejaVuSans-30" transform="translate(83.789062 0)"/>
       <use xlink:href="#DejaVuSans-2e" transform="translate(147.412109 0)"/>
       <use xlink:href="#DejaVuSans-30" transform="translate(179.199219 0)"/>
       <use xlink:href="#DejaVuSans-35" transform="translate(242.822266 0)"/>
      </g>
     </g>
    </g>
    <g id="ytick_6">
     <g id="line2d_15">
      <g>
       <use xlink:href="#m3571c21718" x="58.523438" y="134.199219" style="stroke: #000000; stroke-width: 0.8"/>
      </g>
     </g>
     <g id="text_16">
      <!-- 0.00 -->
      <g transform="translate(29.257813 137.998437) scale(0.1 -0.1)">
       <use xlink:href="#DejaVuSans-30"/>
       <use xlink:href="#DejaVuSans-2e" transform="translate(63.623047 0)"/>
       <use xlink:href="#DejaVuSans-30" transform="translate(95.410156 0)"/>
       <use xlink:href="#DejaVuSans-30" transform="translate(159.033203 0)"/>
      </g>
     </g>
    </g>
    <g id="ytick_7">
     <g id="line2d_16">
      <g>
       <use xlink:href="#m3571c21718" x="58.523438" y="103.399219" style="stroke: #000000; stroke-width: 0.8"/>
      </g>
     </g>
     <g id="text_17">
      <!-- 0.05 -->
      <g transform="translate(29.257813 107.198437) scale(0.1 -0.1)">
       <use xlink:href="#DejaVuSans-30"/>
       <use xlink:href="#DejaVuSans-2e" transform="translate(63.623047 0)"/>
       <use xlink:href="#DejaVuSans-30" transform="translate(95.410156 0)"/>
       <use xlink:href="#DejaVuSans-35" transform="translate(159.033203 0)"/>
      </g>
     </g>
    </g>
    <g id="ytick_8">
     <g id="line2d_17">
      <g>
       <use xlink:href="#m3571c21718" x="58.523438" y="72.599219" style="stroke: #000000; stroke-width: 0.8"/>
      </g>
     </g>
     <g id="text_18">
      <!-- 0.10 -->
      <g transform="translate(29.257813 76.398437) scale(0.1 -0.1)">
       <use xlink:href="#DejaVuSans-30"/>
       <use xlink:href="#DejaVuSans-2e" transform="translate(63.623047 0)"/>
       <use xlink:href="#DejaVuSans-31" transform="translate(95.410156 0)"/>
       <use xlink:href="#DejaVuSans-30" transform="translate(159.033203 0)"/>
      </g>
     </g>
    </g>
    <g id="ytick_9">
     <g id="line2d_18">
      <g>
       <use xlink:href="#m3571c21718" x="58.523438" y="41.799219" style="stroke: #000000; stroke-width: 0.8"/>
      </g>
     </g>
     <g id="text_19">
      <!-- 0.15 -->
      <g transform="translate(29.257813 45.598437) scale(0.1 -0.1)">
       <use xlink:href="#DejaVuSans-30"/>
       <use xlink:href="#DejaVuSans-2e" transform="translate(63.623047 0)"/>
       <use xlink:href="#DejaVuSans-31" transform="translate(95.410156 0)"/>
       <use xlink:href="#DejaVuSans-35" transform="translate(159.033203 0)"/>
      </g>
     </g>
    </g>
    <g id="ytick_10">
     <g id="line2d_19">
      <g>
       <use xlink:href="#m3571c21718" x="58.523438" y="10.999219" style="stroke: #000000; stroke-width: 0.8"/>
      </g>
     </g>
     <g id="text_20">
      <!-- 0.20 -->
      <g transform="translate(29.257813 14.798437) scale(0.1 -0.1)">
       <use xlink:href="#DejaVuSans-30"/>
       <use xlink:href="#DejaVuSans-2e" transform="translate(63.623047 0)"/>
       <use xlink:href="#DejaVuSans-32" transform="translate(95.410156 0)"/>
       <use xlink:href="#DejaVuSans-30" transform="translate(159.033203 0)"/>
      </g>
     </g>
    </g>
    <g id="text_21">
     <!-- $PC_4$ -->
     <g transform="translate(14.798438 158.499219) rotate(-90) scale(0.1 -0.1)">
      <defs>
       <path id="DejaVuSans-34" d="M 2419 4116 
L 825 1625 
L 2419 1625 
L 2419 4116 
z
M 2253 4666 
L 3047 4666 
L 3047 1625 
L 3713 1625 
L 3713 1100 
L 3047 1100 
L 3047 0 
L 2419 0 
L 2419 1100 
L 313 1100 
L 313 1709 
L 2253 4666 
z
" transform="scale(0.015625)"/>
      </defs>
      <use xlink:href="#DejaVuSans-Oblique-50" transform="translate(0 0.78125)"/>
      <use xlink:href="#DejaVuSans-Oblique-43" transform="translate(60.302734 0.78125)"/>
      <use xlink:href="#DejaVuSans-34" transform="translate(130.126953 -15.625) scale(0.7)"/>
     </g>
    </g>
   </g>
   <g id="QuadContourSet_1">
    <path d="M 342.742107 326.755469 
L 342.526718 326.617307 
L 342.526718 326.617307 
L 342.526718 325.138929 
L 341.374348 324.39974 
L 341.374348 324.39974 
L 341.374348 322.182173 
L 340.221979 321.442984 
L 340.221979 321.442984 
L 340.221979 319.964606 
L 339.069609 319.225417 
L 339.069609 319.225417 
L 339.069609 317.00785 
L 337.917239 316.268661 
L 337.917239 316.268661 
L 337.917239 314.051094 
L 336.764869 313.311904 
L 336.764869 313.311904 
L 336.764869 311.833526 
L 335.612499 311.094337 
L 335.612499 311.094337 
L 335.612499 308.87677 
L 334.460129 308.137581 
L 334.460129 308.137581 
L 334.460129 306.659203 
L 333.307759 305.920014 
L 333.307759 305.920014 
L 333.307759 303.702447 
L 332.155389 302.963258 
L 332.155389 302.963258 
L 332.155389 301.48488 
L 331.003019 300.745691 
L 331.003019 300.745691 
L 331.003019 298.528124 
L 329.85065 297.788934 
L 329.85065 297.788934 
L 329.85065 296.310556 
L 328.69828 295.571367 
L 328.69828 295.571367 
L 328.69828 293.3538 
L 327.54591 292.614611 
L 327.54591 292.614611 
L 327.54591 291.136233 
L 326.39354 290.397044 
L 326.39354 290.397044 
L 326.39354 288.179477 
L 325.24117 287.440288 
L 325.24117 287.440288 
L 325.24117 285.96191 
L 324.0888 285.222721 
L 324.0888 285.222721 
L 324.0888 283.005153 
L 322.93643 282.265964 
L 322.93643 282.265964 
L 322.93643 280.787586 
L 321.78406 280.048397 
L 321.78406 280.048397 
L 321.78406 277.83083 
L 320.631691 277.091641 
L 320.631691 277.091641 
L 320.631691 275.613263 
L 319.479321 274.874074 
L 319.479321 274.874074 
L 319.479321 273.395696 
L 318.326951 272.656507 
L 318.326951 272.656507 
L 318.326951 270.43894 
L 317.174581 269.699751 
L 317.174581 268.221373 
L 316.022211 267.482183 
L 316.022211 267.482183 
L 316.022211 266.003805 
L 314.869841 265.264616 
L 314.869841 265.264616 
L 314.869841 263.047049 
L 313.717471 262.30786 
L 313.717471 262.30786 
L 313.717471 260.829482 
L 312.565101 260.090293 
L 312.565101 260.090293 
L 312.565101 258.611915 
L 311.412732 257.872726 
L 311.412732 257.872726 
L 311.412732 256.394348 
L 310.260362 255.655159 
L 310.260362 255.655159 
L 310.260362 253.437592 
L 309.107992 252.698403 
L 309.107992 252.698403 
L 309.107992 251.220024 
L 307.955622 250.480835 
L 307.955622 250.480835 
L 307.955622 249.002457 
L 306.803252 248.263268 
L 306.803252 248.263268 
L 306.803252 246.78489 
L 305.650882 246.045701 
L 305.650882 246.045701 
L 305.650882 243.828134 
L 304.498512 243.088945 
L 304.498512 243.088945 
L 304.498512 241.610567 
L 303.346142 240.871378 
L 303.346142 240.871378 
L 303.346142 239.393 
L 302.193773 238.653811 
L 302.193773 238.653811 
L 302.193773 237.175432 
L 301.041403 236.436243 
L 301.041403 236.436243 
L 301.041403 234.957865 
L 299.889033 234.218676 
L 299.889033 234.218676 
L 299.889033 232.740298 
L 298.736663 232.001109 
L 298.736663 232.001109 
L 298.736663 230.522731 
L 297.584293 229.783542 
L 297.584293 229.783542 
L 297.584293 228.305164 
L 296.431923 227.565975 
L 296.431923 227.565975 
L 296.431923 226.087597 
L 295.279553 225.348408 
L 295.279553 225.348408 
L 295.279553 223.87003 
L 294.127183 223.130841 
L 294.127183 223.130841 
L 294.127183 221.652462 
L 292.974814 220.913273 
L 292.974814 220.913273 
L 292.974814 219.434895 
L 291.822444 218.695706 
L 291.822444 218.695706 
L 291.822444 217.217328 
L 290.670074 216.478139 
L 290.670074 216.478139 
L 290.670074 214.999761 
L 289.517704 214.260572 
L 289.517704 214.260572 
L 289.517704 212.782194 
L 288.365334 212.043005 
L 288.365334 212.043005 
L 288.365334 210.564627 
L 287.212964 209.825438 
L 287.212964 209.825438 
L 287.212964 209.086249 
L 286.060594 208.34706 
L 286.060594 208.34706 
L 286.060594 206.868682 
L 284.908224 206.129492 
L 284.908224 206.129492 
L 284.908224 204.651114 
L 283.755855 203.911925 
L 283.755855 203.911925 
L 283.755855 202.433547 
L 282.603485 201.694358 
L 282.603485 201.694358 
L 282.603485 200.21598 
L 281.451115 199.476791 
L 281.451115 199.476791 
L 281.451115 198.737602 
L 280.298745 197.998413 
L 280.298745 197.998413 
L 280.298745 196.520035 
L 279.146375 195.780846 
L 279.146375 195.780846 
L 279.146375 194.302468 
L 277.994005 193.563279 
L 277.994005 193.563279 
L 277.994005 192.82409 
L 276.841635 192.084901 
L 276.841635 192.084901 
L 276.841635 190.606522 
L 275.689265 189.867333 
L 275.689265 189.867333 
L 275.689265 189.128144 
L 274.536895 188.388955 
L 274.536895 188.388955 
L 274.536895 186.910577 
L 273.384526 186.171388 
L 273.384526 186.171388 
L 273.384526 184.69301 
L 272.232156 183.953821 
L 272.232156 183.953821 
L 272.232156 183.214632 
L 271.079786 182.475443 
L 271.079786 182.475443 
L 271.079786 180.997065 
L 269.927416 180.257876 
L 269.927416 180.257876 
L 269.927416 179.518687 
L 268.775046 178.779498 
L 268.775046 178.779498 
L 268.775046 177.30112 
L 267.622676 176.561931 
L 267.622676 176.561931 
L 267.622676 175.822741 
L 266.470306 175.083552 
L 266.470306 175.083552 
L 266.470306 174.344363 
L 265.317936 173.605174 
L 265.317936 173.605174 
L 265.317936 172.126796 
L 264.165567 171.387607 
L 264.165567 171.387607 
L 264.165567 170.648418 
L 263.013197 169.909229 
L 263.013197 169.909229 
L 263.013197 169.17004 
L 261.860827 168.430851 
L 261.860827 168.430851 
L 261.860827 166.952473 
L 260.708457 166.213284 
L 260.708457 166.213284 
L 260.708457 165.474095 
L 259.556087 164.734906 
L 259.556087 164.734906 
L 259.556087 163.995717 
L 258.403717 163.256528 
L 258.403717 163.256528 
L 258.403717 162.517339 
L 257.251347 161.77815 
L 257.251347 161.77815 
L 257.251347 161.03896 
L 256.098977 160.299771 
L 256.098977 160.299771 
L 256.098977 158.821393 
L 254.946608 158.082204 
L 254.946608 158.082204 
L 254.946608 157.343015 
L 253.794238 156.603826 
L 253.794238 156.603826 
L 253.794238 155.864637 
L 252.641868 155.125448 
L 252.641868 155.125448 
L 252.641868 154.386259 
L 251.489498 153.64707 
L 251.489498 153.64707 
L 251.489498 152.907881 
L 250.337128 152.168692 
L 250.337128 152.168692 
L 250.337128 151.429503 
L 249.184758 150.690314 
L 249.184758 150.690314 
L 249.184758 149.951125 
L 248.032388 149.211936 
L 248.032388 149.211936 
L 248.032388 148.472747 
L 246.880018 147.733558 
L 246.880018 147.733558 
L 246.880018 146.994369 
L 245.727649 146.25518 
L 245.727649 145.51599 
L 244.575279 144.776801 
L 244.575279 144.776801 
L 244.575279 144.037612 
L 243.422909 143.298423 
L 243.422909 143.298423 
L 243.422909 142.559234 
L 241.118169 141.080856 
L 241.118169 141.080856 
L 241.118169 140.341667 
L 239.965799 139.602478 
L 239.965799 139.602478 
L 239.965799 138.863289 
L 238.813429 138.1241 
L 238.813429 138.1241 
L 238.813429 137.384911 
L 237.661059 136.645722 
L 237.661059 136.645722 
L 237.661059 135.906533 
L 235.35632 134.428155 
L 235.35632 134.428155 
L 235.35632 133.688966 
L 234.20395 132.949777 
L 234.20395 132.949777 
L 234.20395 132.210588 
L 231.89921 130.73221 
L 231.89921 130.73221 
L 231.89921 129.99302 
L 229.59447 128.514642 
L 229.59447 128.514642 
L 229.59447 127.775453 
L 227.289731 126.297075 
L 227.289731 126.297075 
L 227.289731 125.557886 
L 224.984991 124.079508 
L 224.984991 124.079508 
L 224.984991 123.340319 
L 222.680251 121.861941 
L 222.680251 121.861941 
L 222.680251 121.122752 
L 220.375511 119.644374 
L 220.375511 119.644374 
L 220.375511 118.905185 
L 216.918402 116.687618 
L 216.918402 116.687618 
L 216.918402 115.948429 
L 212.308922 112.991672 
L 212.308922 112.991672 
L 212.308922 112.252483 
L 203.089963 106.338971 
L 203.089963 106.338971 
L 203.089963 105.599782 
L 195.023374 100.425459 
L 193.871004 100.425459 
L 193.871004 100.425459 
L 185.804415 95.251135 
L 184.652045 95.251135 
L 184.652045 95.251135 
L 181.194935 93.033568 
L 180.042566 93.033568 
L 180.042566 93.033568 
L 176.585456 90.816001 
L 175.433086 90.816001 
L 175.433086 90.816001 
L 173.128346 89.337623 
L 171.975976 89.337623 
L 171.975976 89.337623 
L 170.823607 88.598434 
L 169.671237 88.598434 
L 169.671237 88.598434 
L 167.366497 87.120056 
L 166.214127 87.120056 
L 166.214127 87.120056 
L 165.061757 86.380867 
L 163.909387 86.380867 
L 163.909387 86.380867 
L 161.604648 84.902489 
L 160.452278 84.902489 
L 160.452278 84.902489 
L 159.299908 84.163299 
L 158.147538 84.163299 
L 158.147538 84.163299 
L 156.995168 83.42411 
L 155.842798 83.42411 
L 155.842798 83.42411 
L 154.690428 82.684921 
L 153.538058 82.684921 
L 153.538058 82.684921 
L 152.385688 81.945732 
L 150.080949 81.945732 
L 150.080949 81.945732 
L 148.928579 81.206543 
L 147.776209 81.206543 
L 147.776209 81.206543 
L 146.623839 80.467354 
L 145.471469 80.467354 
L 145.471469 80.467354 
L 144.319099 79.728165 
L 142.01436 79.728165 
L 142.01436 79.728165 
L 140.86199 78.988976 
L 138.55725 78.988976 
L 138.55725 78.988976 
L 137.40488 78.249787 
L 135.10014 78.249787 
L 135.10014 78.249787 
L 133.94777 77.510598 
L 131.643031 77.510598 
L 131.643031 77.510598 
L 130.490661 76.771409 
L 128.185921 76.771409 
L 128.185921 76.771409 
L 127.033551 76.03222 
L 123.576442 76.03222 
L 123.576442 76.03222 
L 122.424072 75.293031 
L 120.119332 75.293031 
L 120.119332 75.293031 
L 118.966962 74.553842 
L 114.357483 74.553842 
L 114.357483 74.553842 
L 113.205113 73.814653 
L 109.748003 73.814653 
L 109.748003 73.814653 
L 108.595633 73.075464 
L 102.833784 73.075464 
L 102.833784 73.075464 
L 101.681414 72.336275 
L 95.919565 72.336275 
L 95.919565 72.336275 
L 94.767195 71.597086 
L 86.700605 71.597086 
L 86.700605 71.597086 
L 85.548236 70.857897 
L 75.176907 70.857897 
L 75.176907 70.857897 
L 74.024537 70.118708 
L 53.281879 70.118708 
L 53.281879 70.118708 
L 52.129509 69.379518 
L 22.167892 69.379518 
L 21.015522 70.118708 
L 21.015522 70.118708 
L -1 70.118708 
L -1 70.118708 
" clip-path="url(#pf7037eef1c)" style="fill: none; stroke: #440154; stroke-width: 1.5"/>
   </g>
   <g id="patch_3">
    <path d="M 58.523438 288.199219 
L 58.523438 10.999219 
" style="fill: none; stroke: #000000; stroke-width: 0.8; stroke-linejoin: miter; stroke-linecap: square"/>
   </g>
   <g id="patch_4">
    <path d="M 449.123438 288.199219 
L 449.123438 10.999219 
" style="fill: none; stroke: #000000; stroke-width: 0.8; stroke-linejoin: miter; stroke-linecap: square"/>
   </g>
   <g id="patch_5">
    <path d="M 58.523438 288.199219 
L 449.123438 288.199219 
" style="fill: none; stroke: #000000; stroke-width: 0.8; stroke-linejoin: miter; stroke-linecap: square"/>
   </g>
   <g id="patch_6">
    <path d="M 58.523438 10.999219 
L 449.123438 10.999219 
" style="fill: none; stroke: #000000; stroke-width: 0.8; stroke-linejoin: miter; stroke-linecap: square"/>
   </g>
   <g id="legend_1">
    <g id="patch_7">
     <path d="M 386.098438 48.355469 
L 442.123438 48.355469 
Q 444.123438 48.355469 444.123438 46.355469 
L 444.123438 17.999219 
Q 444.123438 15.999219 442.123438 15.999219 
L 386.098438 15.999219 
Q 384.098438 15.999219 384.098438 17.999219 
L 384.098438 46.355469 
Q 384.098438 48.355469 386.098438 48.355469 
z
" style="fill: #ffffff; opacity: 0.8; stroke: #cccccc; stroke-linejoin: miter"/>
    </g>
    <g id="PathCollection_3">
     <g>
      <use xlink:href="#m8cbc7a0019" x="398.098438" y="24.972656" style="fill: #1f77b4; stroke: #1f77b4"/>
     </g>
    </g>
    <g id="text_22">
     <!-- dogs -->
     <g transform="translate(416.098438 27.597656) scale(0.1 -0.1)">
      <defs>
       <path id="DejaVuSans-64" d="M 2906 2969 
L 2906 4863 
L 3481 4863 
L 3481 0 
L 2906 0 
L 2906 525 
Q 2725 213 2448 61 
Q 2172 -91 1784 -91 
Q 1150 -91 751 415 
Q 353 922 353 1747 
Q 353 2572 751 3078 
Q 1150 3584 1784 3584 
Q 2172 3584 2448 3432 
Q 2725 3281 2906 2969 
z
M 947 1747 
Q 947 1113 1208 752 
Q 1469 391 1925 391 
Q 2381 391 2643 752 
Q 2906 1113 2906 1747 
Q 2906 2381 2643 2742 
Q 2381 3103 1925 3103 
Q 1469 3103 1208 2742 
Q 947 2381 947 1747 
z
" transform="scale(0.015625)"/>
       <path id="DejaVuSans-6f" d="M 1959 3097 
Q 1497 3097 1228 2736 
Q 959 2375 959 1747 
Q 959 1119 1226 758 
Q 1494 397 1959 397 
Q 2419 397 2687 759 
Q 2956 1122 2956 1747 
Q 2956 2369 2687 2733 
Q 2419 3097 1959 3097 
z
M 1959 3584 
Q 2709 3584 3137 3096 
Q 3566 2609 3566 1747 
Q 3566 888 3137 398 
Q 2709 -91 1959 -91 
Q 1206 -91 779 398 
Q 353 888 353 1747 
Q 353 2609 779 3096 
Q 1206 3584 1959 3584 
z
" transform="scale(0.015625)"/>
       <path id="DejaVuSans-67" d="M 2906 1791 
Q 2906 2416 2648 2759 
Q 2391 3103 1925 3103 
Q 1463 3103 1205 2759 
Q 947 2416 947 1791 
Q 947 1169 1205 825 
Q 1463 481 1925 481 
Q 2391 481 2648 825 
Q 2906 1169 2906 1791 
z
M 3481 434 
Q 3481 -459 3084 -895 
Q 2688 -1331 1869 -1331 
Q 1566 -1331 1297 -1286 
Q 1028 -1241 775 -1147 
L 775 -588 
Q 1028 -725 1275 -790 
Q 1522 -856 1778 -856 
Q 2344 -856 2625 -561 
Q 2906 -266 2906 331 
L 2906 616 
Q 2728 306 2450 153 
Q 2172 0 1784 0 
Q 1141 0 747 490 
Q 353 981 353 1791 
Q 353 2603 747 3093 
Q 1141 3584 1784 3584 
Q 2172 3584 2450 3431 
Q 2728 3278 2906 2969 
L 2906 3500 
L 3481 3500 
L 3481 434 
z
" transform="scale(0.015625)"/>
       <path id="DejaVuSans-73" d="M 2834 3397 
L 2834 2853 
Q 2591 2978 2328 3040 
Q 2066 3103 1784 3103 
Q 1356 3103 1142 2972 
Q 928 2841 928 2578 
Q 928 2378 1081 2264 
Q 1234 2150 1697 2047 
L 1894 2003 
Q 2506 1872 2764 1633 
Q 3022 1394 3022 966 
Q 3022 478 2636 193 
Q 2250 -91 1575 -91 
Q 1294 -91 989 -36 
Q 684 19 347 128 
L 347 722 
Q 666 556 975 473 
Q 1284 391 1588 391 
Q 1994 391 2212 530 
Q 2431 669 2431 922 
Q 2431 1156 2273 1281 
Q 2116 1406 1581 1522 
L 1381 1569 
Q 847 1681 609 1914 
Q 372 2147 372 2553 
Q 372 3047 722 3315 
Q 1072 3584 1716 3584 
Q 2034 3584 2315 3537 
Q 2597 3491 2834 3397 
z
" transform="scale(0.015625)"/>
      </defs>
      <use xlink:href="#DejaVuSans-64"/>
      <use xlink:href="#DejaVuSans-6f" transform="translate(63.476562 0)"/>
      <use xlink:href="#DejaVuSans-67" transform="translate(124.658203 0)"/>
      <use xlink:href="#DejaVuSans-73" transform="translate(188.134766 0)"/>
     </g>
    </g>
    <g id="PathCollection_4">
     <g>
      <use xlink:href="#m2c193ee837" x="398.098438" y="39.650781" style="fill: #ff7f0e; stroke: #ff7f0e"/>
     </g>
    </g>
    <g id="text_23">
     <!-- cats -->
     <g transform="translate(416.098438 42.275781) scale(0.1 -0.1)">
      <defs>
       <path id="DejaVuSans-63" d="M 3122 3366 
L 3122 2828 
Q 2878 2963 2633 3030 
Q 2388 3097 2138 3097 
Q 1578 3097 1268 2742 
Q 959 2388 959 1747 
Q 959 1106 1268 751 
Q 1578 397 2138 397 
Q 2388 397 2633 464 
Q 2878 531 3122 666 
L 3122 134 
Q 2881 22 2623 -34 
Q 2366 -91 2075 -91 
Q 1284 -91 818 406 
Q 353 903 353 1747 
Q 353 2603 823 3093 
Q 1294 3584 2113 3584 
Q 2378 3584 2631 3529 
Q 2884 3475 3122 3366 
z
" transform="scale(0.015625)"/>
       <path id="DejaVuSans-61" d="M 2194 1759 
Q 1497 1759 1228 1600 
Q 959 1441 959 1056 
Q 959 750 1161 570 
Q 1363 391 1709 391 
Q 2188 391 2477 730 
Q 2766 1069 2766 1631 
L 2766 1759 
L 2194 1759 
z
M 3341 1997 
L 3341 0 
L 2766 0 
L 2766 531 
Q 2569 213 2275 61 
Q 1981 -91 1556 -91 
Q 1019 -91 701 211 
Q 384 513 384 1019 
Q 384 1609 779 1909 
Q 1175 2209 1959 2209 
L 2766 2209 
L 2766 2266 
Q 2766 2663 2505 2880 
Q 2244 3097 1772 3097 
Q 1472 3097 1187 3025 
Q 903 2953 641 2809 
L 641 3341 
Q 956 3463 1253 3523 
Q 1550 3584 1831 3584 
Q 2591 3584 2966 3190 
Q 3341 2797 3341 1997 
z
" transform="scale(0.015625)"/>
       <path id="DejaVuSans-74" d="M 1172 4494 
L 1172 3500 
L 2356 3500 
L 2356 3053 
L 1172 3053 
L 1172 1153 
Q 1172 725 1289 603 
Q 1406 481 1766 481 
L 2356 481 
L 2356 0 
L 1766 0 
Q 1100 0 847 248 
Q 594 497 594 1153 
L 594 3053 
L 172 3053 
L 172 3500 
L 594 3500 
L 594 4494 
L 1172 4494 
z
" transform="scale(0.015625)"/>
      </defs>
      <use xlink:href="#DejaVuSans-63"/>
      <use xlink:href="#DejaVuSans-61" transform="translate(54.980469 0)"/>
      <use xlink:href="#DejaVuSans-74" transform="translate(116.259766 0)"/>
      <use xlink:href="#DejaVuSans-73" transform="translate(155.46875 0)"/>
     </g>
    </g>
   </g>
  </g>
 </g>
 <defs>
  <clipPath id="pf7037eef1c">
   <rect x="58.523438" y="10.999219" width="390.6" height="277.2"/>
  </clipPath>
 </defs>
</svg>
