<?xml version="1.0" encoding="utf-8" standalone="no"?>
<!DOCTYPE svg PUBLIC "-//W3C//DTD SVG 1.1//EN"
  "http://www.w3.org/Graphics/SVG/1.1/DTD/svg11.dtd">
<svg xmlns:xlink="http://www.w3.org/1999/xlink" width="436.282812pt" height="308.278125pt" viewBox="0 0 436.282812 308.278125" xmlns="http://www.w3.org/2000/svg" version="1.1">
 <metadata>
  <rdf:RDF xmlns:dc="http://purl.org/dc/elements/1.1/" xmlns:cc="http://creativecommons.org/ns#" xmlns:rdf="http://www.w3.org/1999/02/22-rdf-syntax-ns#">
   <cc:Work>
    <dc:type rdf:resource="http://purl.org/dc/dcmitype/StillImage"/>
    <dc:date>2025-05-09T15:00:48.504030</dc:date>
    <dc:format>image/svg+xml</dc:format>
    <dc:creator>
     <cc:Agent>
      <dc:title>Matplotlib v3.10.0, https://matplotlib.org/</dc:title>
     </cc:Agent>
    </dc:creator>
   </cc:Work>
  </rdf:RDF>
 </metadata>
 <defs>
  <style type="text/css">*{stroke-linejoin: round; stroke-linecap: butt}</style>
 </defs>
 <g id="figure_1">
  <g id="patch_1">
   <path d="M 0 308.278125 
L 436.282812 308.278125 
L 436.282812 0 
L 0 0 
z
" style="fill: #ffffff"/>
  </g>
  <g id="axes_1">
   <g id="patch_2">
    <path d="M 38.482813 284.4 
L 429.082813 284.4 
L 429.082813 7.2 
L 38.482813 7.2 
z
" style="fill: #ffffff"/>
   </g>
   <g id="PathCollection_1">
    <defs>
     <path id="me9070e9935" d="M 0 3 
C 0.795609 3 1.55874 2.683901 2.12132 2.12132 
C 2.683901 1.55874 3 0.795609 3 0 
C 3 -0.795609 2.683901 -1.55874 2.12132 -2.12132 
C 1.55874 -2.683901 0.795609 -3 0 -3 
C -0.795609 -3 -1.55874 -2.683901 -2.12132 -2.12132 
C -2.683901 -1.55874 -3 -0.795609 -3 0 
C -3 0.795609 -2.683901 1.55874 -2.12132 2.12132 
C -1.55874 2.683901 -0.795609 3 0 3 
z
" style="stroke: #1f77b4"/>
    </defs>
    <g clip-path="url(#p2e90c18e91)">
     <use xlink:href="#me9070e9935" x="69.197153" y="45.054978" style="fill: #1f77b4; stroke: #1f77b4"/>
     <use xlink:href="#me9070e9935" x="160.624577" y="246.444373" style="fill: #1f77b4; stroke: #1f77b4"/>
     <use xlink:href="#me9070e9935" x="220.988363" y="170.922764" style="fill: #1f77b4; stroke: #1f77b4"/>
     <use xlink:href="#me9070e9935" x="54.963403" y="245.829219" style="fill: #1f77b4; stroke: #1f77b4"/>
     <use xlink:href="#me9070e9935" x="216.181495" y="225.700884" style="fill: #1f77b4; stroke: #1f77b4"/>
     <use xlink:href="#me9070e9935" x="111.271585" y="241.95157" style="fill: #1f77b4; stroke: #1f77b4"/>
     <use xlink:href="#me9070e9935" x="53.104258" y="178.194658" style="fill: #1f77b4; stroke: #1f77b4"/>
     <use xlink:href="#me9070e9935" x="136.193316" y="245.895899" style="fill: #1f77b4; stroke: #1f77b4"/>
     <use xlink:href="#me9070e9935" x="113.473715" y="119.582869" style="fill: #1f77b4; stroke: #1f77b4"/>
     <use xlink:href="#me9070e9935" x="120.299491" y="38.5953" style="fill: #1f77b4; stroke: #1f77b4"/>
     <use xlink:href="#me9070e9935" x="186.527808" y="266.851314" style="fill: #1f77b4; stroke: #1f77b4"/>
     <use xlink:href="#me9070e9935" x="95.648045" y="167.655553" style="fill: #1f77b4; stroke: #1f77b4"/>
     <use xlink:href="#me9070e9935" x="70.358022" y="188.902988" style="fill: #1f77b4; stroke: #1f77b4"/>
     <use xlink:href="#me9070e9935" x="112.162532" y="29.869458" style="fill: #1f77b4; stroke: #1f77b4"/>
     <use xlink:href="#me9070e9935" x="185.290749" y="180.050403" style="fill: #1f77b4; stroke: #1f77b4"/>
     <use xlink:href="#me9070e9935" x="103.087315" y="208.032605" style="fill: #1f77b4; stroke: #1f77b4"/>
     <use xlink:href="#me9070e9935" x="94.519924" y="26.471766" style="fill: #1f77b4; stroke: #1f77b4"/>
     <use xlink:href="#me9070e9935" x="164.568059" y="272.500745" style="fill: #1f77b4; stroke: #1f77b4"/>
     <use xlink:href="#me9070e9935" x="80.357473" y="155.448415" style="fill: #1f77b4; stroke: #1f77b4"/>
     <use xlink:href="#me9070e9935" x="116.584244" y="126.86608" style="fill: #1f77b4; stroke: #1f77b4"/>
     <use xlink:href="#me9070e9935" x="188.607502" y="189.3452" style="fill: #1f77b4; stroke: #1f77b4"/>
     <use xlink:href="#me9070e9935" x="137.743679" y="47.401932" style="fill: #1f77b4; stroke: #1f77b4"/>
     <use xlink:href="#me9070e9935" x="209.198281" y="189.60975" style="fill: #1f77b4; stroke: #1f77b4"/>
     <use xlink:href="#me9070e9935" x="128.201859" y="124.142145" style="fill: #1f77b4; stroke: #1f77b4"/>
     <use xlink:href="#me9070e9935" x="54.368143" y="253.750102" style="fill: #1f77b4; stroke: #1f77b4"/>
     <use xlink:href="#me9070e9935" x="209.901645" y="257.402571" style="fill: #1f77b4; stroke: #1f77b4"/>
     <use xlink:href="#me9070e9935" x="122.314365" y="99.778252" style="fill: #1f77b4; stroke: #1f77b4"/>
     <use xlink:href="#me9070e9935" x="67.600856" y="106.806161" style="fill: #1f77b4; stroke: #1f77b4"/>
     <use xlink:href="#me9070e9935" x="113.669734" y="49.149964" style="fill: #1f77b4; stroke: #1f77b4"/>
     <use xlink:href="#me9070e9935" x="108.802566" y="96.959715" style="fill: #1f77b4; stroke: #1f77b4"/>
     <use xlink:href="#me9070e9935" x="49.735968" y="88.255196" style="fill: #1f77b4; stroke: #1f77b4"/>
     <use xlink:href="#me9070e9935" x="204.934174" y="40.700594" style="fill: #1f77b4; stroke: #1f77b4"/>
     <use xlink:href="#me9070e9935" x="71.265543" y="264.424073" style="fill: #1f77b4; stroke: #1f77b4"/>
     <use xlink:href="#me9070e9935" x="51.329211" y="32.420291" style="fill: #1f77b4; stroke: #1f77b4"/>
     <use xlink:href="#me9070e9935" x="136.165675" y="174.755175" style="fill: #1f77b4; stroke: #1f77b4"/>
     <use xlink:href="#me9070e9935" x="114.846302" y="52.527705" style="fill: #1f77b4; stroke: #1f77b4"/>
     <use xlink:href="#me9070e9935" x="52.575781" y="116.006659" style="fill: #1f77b4; stroke: #1f77b4"/>
     <use xlink:href="#me9070e9935" x="158.199658" y="264.157031" style="fill: #1f77b4; stroke: #1f77b4"/>
     <use xlink:href="#me9070e9935" x="87.521075" y="203.81399" style="fill: #1f77b4; stroke: #1f77b4"/>
     <use xlink:href="#me9070e9935" x="150.873058" y="212.708074" style="fill: #1f77b4; stroke: #1f77b4"/>
     <use xlink:href="#me9070e9935" x="156.923074" y="104.512481" style="fill: #1f77b4; stroke: #1f77b4"/>
     <use xlink:href="#me9070e9935" x="131.504467" y="105.884836" style="fill: #1f77b4; stroke: #1f77b4"/>
     <use xlink:href="#me9070e9935" x="219.237408" y="34.468546" style="fill: #1f77b4; stroke: #1f77b4"/>
     <use xlink:href="#me9070e9935" x="151.721831" y="59.229938" style="fill: #1f77b4; stroke: #1f77b4"/>
    </g>
   </g>
   <g id="PathCollection_2">
    <defs>
     <path id="m1e89ef53f5" d="M 0 3 
C 0.795609 3 1.55874 2.683901 2.12132 2.12132 
C 2.683901 1.55874 3 0.795609 3 0 
C 3 -0.795609 2.683901 -1.55874 2.12132 -2.12132 
C 1.55874 -2.683901 0.795609 -3 0 -3 
C -0.795609 -3 -1.55874 -2.683901 -2.12132 -2.12132 
C -2.683901 -1.55874 -3 -0.795609 -3 0 
C -3 0.795609 -2.683901 1.55874 -2.12132 2.12132 
C -1.55874 2.683901 -0.795609 3 0 3 
z
" style="stroke: #ff7f0e"/>
    </defs>
    <g clip-path="url(#p2e90c18e91)">
     <use xlink:href="#m1e89ef53f5" x="263.705796" y="52.790974" style="fill: #ff7f0e; stroke: #ff7f0e"/>
     <use xlink:href="#m1e89ef53f5" x="356.076751" y="44.663683" style="fill: #ff7f0e; stroke: #ff7f0e"/>
     <use xlink:href="#m1e89ef53f5" x="294.813134" y="258.242622" style="fill: #ff7f0e; stroke: #ff7f0e"/>
     <use xlink:href="#m1e89ef53f5" x="323.544666" y="206.15102" style="fill: #ff7f0e; stroke: #ff7f0e"/>
     <use xlink:href="#m1e89ef53f5" x="292.98693" y="117.458084" style="fill: #ff7f0e; stroke: #ff7f0e"/>
     <use xlink:href="#m1e89ef53f5" x="369.166789" y="117.640856" style="fill: #ff7f0e; stroke: #ff7f0e"/>
     <use xlink:href="#m1e89ef53f5" x="398.302429" y="206.921311" style="fill: #ff7f0e; stroke: #ff7f0e"/>
     <use xlink:href="#m1e89ef53f5" x="255.685761" y="270.025001" style="fill: #ff7f0e; stroke: #ff7f0e"/>
     <use xlink:href="#m1e89ef53f5" x="367.656694" y="231.678506" style="fill: #ff7f0e; stroke: #ff7f0e"/>
     <use xlink:href="#m1e89ef53f5" x="317.817199" y="233.045854" style="fill: #ff7f0e; stroke: #ff7f0e"/>
     <use xlink:href="#m1e89ef53f5" x="293.191008" y="32.603206" style="fill: #ff7f0e; stroke: #ff7f0e"/>
     <use xlink:href="#m1e89ef53f5" x="253.995348" y="66.616969" style="fill: #ff7f0e; stroke: #ff7f0e"/>
     <use xlink:href="#m1e89ef53f5" x="375.658298" y="171.594385" style="fill: #ff7f0e; stroke: #ff7f0e"/>
     <use xlink:href="#m1e89ef53f5" x="354.797648" y="261.329383" style="fill: #ff7f0e; stroke: #ff7f0e"/>
     <use xlink:href="#m1e89ef53f5" x="348.419231" y="129.927488" style="fill: #ff7f0e; stroke: #ff7f0e"/>
     <use xlink:href="#m1e89ef53f5" x="354.370738" y="112.525467" style="fill: #ff7f0e; stroke: #ff7f0e"/>
     <use xlink:href="#m1e89ef53f5" x="399.655453" y="179.219758" style="fill: #ff7f0e; stroke: #ff7f0e"/>
     <use xlink:href="#m1e89ef53f5" x="341.986806" y="109.521325" style="fill: #ff7f0e; stroke: #ff7f0e"/>
     <use xlink:href="#m1e89ef53f5" x="335.603866" y="41.748974" style="fill: #ff7f0e; stroke: #ff7f0e"/>
     <use xlink:href="#m1e89ef53f5" x="311.532679" y="124.383229" style="fill: #ff7f0e; stroke: #ff7f0e"/>
     <use xlink:href="#m1e89ef53f5" x="390.50431" y="98.767262" style="fill: #ff7f0e; stroke: #ff7f0e"/>
     <use xlink:href="#m1e89ef53f5" x="387.995782" y="264.91141" style="fill: #ff7f0e; stroke: #ff7f0e"/>
     <use xlink:href="#m1e89ef53f5" x="270.181333" y="131.159074" style="fill: #ff7f0e; stroke: #ff7f0e"/>
     <use xlink:href="#m1e89ef53f5" x="365.938487" y="66.649726" style="fill: #ff7f0e; stroke: #ff7f0e"/>
     <use xlink:href="#m1e89ef53f5" x="337.961616" y="242.085733" style="fill: #ff7f0e; stroke: #ff7f0e"/>
     <use xlink:href="#m1e89ef53f5" x="353.080513" y="25.700024" style="fill: #ff7f0e; stroke: #ff7f0e"/>
     <use xlink:href="#m1e89ef53f5" x="295.900861" y="134.016011" style="fill: #ff7f0e; stroke: #ff7f0e"/>
     <use xlink:href="#m1e89ef53f5" x="233.637063" y="139.263544" style="fill: #ff7f0e; stroke: #ff7f0e"/>
     <use xlink:href="#m1e89ef53f5" x="367.152583" y="75.000282" style="fill: #ff7f0e; stroke: #ff7f0e"/>
     <use xlink:href="#m1e89ef53f5" x="258.304048" y="176.668198" style="fill: #ff7f0e; stroke: #ff7f0e"/>
     <use xlink:href="#m1e89ef53f5" x="223.373382" y="133.767683" style="fill: #ff7f0e; stroke: #ff7f0e"/>
     <use xlink:href="#m1e89ef53f5" x="344.993816" y="53.575032" style="fill: #ff7f0e; stroke: #ff7f0e"/>
     <use xlink:href="#m1e89ef53f5" x="329.781285" y="135.200482" style="fill: #ff7f0e; stroke: #ff7f0e"/>
     <use xlink:href="#m1e89ef53f5" x="275.935111" y="165.42175" style="fill: #ff7f0e; stroke: #ff7f0e"/>
     <use xlink:href="#m1e89ef53f5" x="394.841119" y="172.16147" style="fill: #ff7f0e; stroke: #ff7f0e"/>
     <use xlink:href="#m1e89ef53f5" x="385.929473" y="36.476372" style="fill: #ff7f0e; stroke: #ff7f0e"/>
     <use xlink:href="#m1e89ef53f5" x="342.541361" y="125.630111" style="fill: #ff7f0e; stroke: #ff7f0e"/>
     <use xlink:href="#m1e89ef53f5" x="387.705764" y="99.86862" style="fill: #ff7f0e; stroke: #ff7f0e"/>
     <use xlink:href="#m1e89ef53f5" x="344.255562" y="148.099808" style="fill: #ff7f0e; stroke: #ff7f0e"/>
     <use xlink:href="#m1e89ef53f5" x="299.49835" y="221.491595" style="fill: #ff7f0e; stroke: #ff7f0e"/>
     <use xlink:href="#m1e89ef53f5" x="237.7415" y="106.882426" style="fill: #ff7f0e; stroke: #ff7f0e"/>
     <use xlink:href="#m1e89ef53f5" x="236.20153" y="170.145901" style="fill: #ff7f0e; stroke: #ff7f0e"/>
     <use xlink:href="#m1e89ef53f5" x="335.821704" y="101.556969" style="fill: #ff7f0e; stroke: #ff7f0e"/>
     <use xlink:href="#m1e89ef53f5" x="337.826873" y="192.960436" style="fill: #ff7f0e; stroke: #ff7f0e"/>
     <use xlink:href="#m1e89ef53f5" x="286.647977" y="24.655391" style="fill: #ff7f0e; stroke: #ff7f0e"/>
     <use xlink:href="#m1e89ef53f5" x="255.055329" y="203.522403" style="fill: #ff7f0e; stroke: #ff7f0e"/>
     <use xlink:href="#m1e89ef53f5" x="311.201054" y="83.332582" style="fill: #ff7f0e; stroke: #ff7f0e"/>
     <use xlink:href="#m1e89ef53f5" x="280.694075" y="86.027127" style="fill: #ff7f0e; stroke: #ff7f0e"/>
     <use xlink:href="#m1e89ef53f5" x="352.751127" y="175.161547" style="fill: #ff7f0e; stroke: #ff7f0e"/>
     <use xlink:href="#m1e89ef53f5" x="247.594618" y="107.979545" style="fill: #ff7f0e; stroke: #ff7f0e"/>
     <use xlink:href="#m1e89ef53f5" x="263.981736" y="30.782345" style="fill: #ff7f0e; stroke: #ff7f0e"/>
     <use xlink:href="#m1e89ef53f5" x="342.504085" y="213.910744" style="fill: #ff7f0e; stroke: #ff7f0e"/>
     <use xlink:href="#m1e89ef53f5" x="275.517787" y="256.103665" style="fill: #ff7f0e; stroke: #ff7f0e"/>
     <use xlink:href="#m1e89ef53f5" x="308.943709" y="256.302304" style="fill: #ff7f0e; stroke: #ff7f0e"/>
     <use xlink:href="#m1e89ef53f5" x="292.948618" y="162.900843" style="fill: #ff7f0e; stroke: #ff7f0e"/>
     <use xlink:href="#m1e89ef53f5" x="271.7271" y="244.741267" style="fill: #ff7f0e; stroke: #ff7f0e"/>
    </g>
   </g>
   <g id="matplotlib.axis_1">
    <g id="xtick_1">
     <g id="line2d_1">
      <defs>
       <path id="m2da0ff372a" d="M 0 0 
L 0 3.5 
" style="stroke: #000000; stroke-width: 0.8"/>
      </defs>
      <g>
       <use xlink:href="#m2da0ff372a" x="72.821274" y="284.4" style="stroke: #000000; stroke-width: 0.8"/>
      </g>
     </g>
     <g id="text_1">
      <!-- −1.5 -->
      <g transform="translate(60.679868 298.998438) scale(0.1 -0.1)">
       <defs>
        <path id="DejaVuSans-2212" d="M 678 2272 
L 4684 2272 
L 4684 1741 
L 678 1741 
L 678 2272 
z
" transform="scale(0.015625)"/>
        <path id="DejaVuSans-31" d="M 794 531 
L 1825 531 
L 1825 4091 
L 703 3866 
L 703 4441 
L 1819 4666 
L 2450 4666 
L 2450 531 
L 3481 531 
L 3481 0 
L 794 0 
L 794 531 
z
" transform="scale(0.015625)"/>
        <path id="DejaVuSans-2e" d="M 684 794 
L 1344 794 
L 1344 0 
L 684 0 
L 684 794 
z
" transform="scale(0.015625)"/>
        <path id="DejaVuSans-35" d="M 691 4666 
L 3169 4666 
L 3169 4134 
L 1269 4134 
L 1269 2991 
Q 1406 3038 1543 3061 
Q 1681 3084 1819 3084 
Q 2600 3084 3056 2656 
Q 3513 2228 3513 1497 
Q 3513 744 3044 326 
Q 2575 -91 1722 -91 
Q 1428 -91 1123 -41 
Q 819 9 494 109 
L 494 744 
Q 775 591 1075 516 
Q 1375 441 1709 441 
Q 2250 441 2565 725 
Q 2881 1009 2881 1497 
Q 2881 1984 2565 2268 
Q 2250 2553 1709 2553 
Q 1456 2553 1204 2497 
Q 953 2441 691 2322 
L 691 4666 
z
" transform="scale(0.015625)"/>
       </defs>
       <use xlink:href="#DejaVuSans-2212"/>
       <use xlink:href="#DejaVuSans-31" transform="translate(83.789062 0)"/>
       <use xlink:href="#DejaVuSans-2e" transform="translate(147.412109 0)"/>
       <use xlink:href="#DejaVuSans-35" transform="translate(179.199219 0)"/>
      </g>
     </g>
    </g>
    <g id="xtick_2">
     <g id="line2d_2">
      <g>
       <use xlink:href="#m2da0ff372a" x="126.47512" y="284.4" style="stroke: #000000; stroke-width: 0.8"/>
      </g>
     </g>
     <g id="text_2">
      <!-- −1.0 -->
      <g transform="translate(114.333714 298.998438) scale(0.1 -0.1)">
       <defs>
        <path id="DejaVuSans-30" d="M 2034 4250 
Q 1547 4250 1301 3770 
Q 1056 3291 1056 2328 
Q 1056 1369 1301 889 
Q 1547 409 2034 409 
Q 2525 409 2770 889 
Q 3016 1369 3016 2328 
Q 3016 3291 2770 3770 
Q 2525 4250 2034 4250 
z
M 2034 4750 
Q 2819 4750 3233 4129 
Q 3647 3509 3647 2328 
Q 3647 1150 3233 529 
Q 2819 -91 2034 -91 
Q 1250 -91 836 529 
Q 422 1150 422 2328 
Q 422 3509 836 4129 
Q 1250 4750 2034 4750 
z
" transform="scale(0.015625)"/>
       </defs>
       <use xlink:href="#DejaVuSans-2212"/>
       <use xlink:href="#DejaVuSans-31" transform="translate(83.789062 0)"/>
       <use xlink:href="#DejaVuSans-2e" transform="translate(147.412109 0)"/>
       <use xlink:href="#DejaVuSans-30" transform="translate(179.199219 0)"/>
      </g>
     </g>
    </g>
    <g id="xtick_3">
     <g id="line2d_3">
      <g>
       <use xlink:href="#m2da0ff372a" x="180.128966" y="284.4" style="stroke: #000000; stroke-width: 0.8"/>
      </g>
     </g>
     <g id="text_3">
      <!-- −0.5 -->
      <g transform="translate(167.98756 298.998438) scale(0.1 -0.1)">
       <use xlink:href="#DejaVuSans-2212"/>
       <use xlink:href="#DejaVuSans-30" transform="translate(83.789062 0)"/>
       <use xlink:href="#DejaVuSans-2e" transform="translate(147.412109 0)"/>
       <use xlink:href="#DejaVuSans-35" transform="translate(179.199219 0)"/>
      </g>
     </g>
    </g>
    <g id="xtick_4">
     <g id="line2d_4">
      <g>
       <use xlink:href="#m2da0ff372a" x="233.782812" y="284.4" style="stroke: #000000; stroke-width: 0.8"/>
      </g>
     </g>
     <g id="text_4">
      <!-- 0.0 -->
      <g transform="translate(225.83125 298.998438) scale(0.1 -0.1)">
       <use xlink:href="#DejaVuSans-30"/>
       <use xlink:href="#DejaVuSans-2e" transform="translate(63.623047 0)"/>
       <use xlink:href="#DejaVuSans-30" transform="translate(95.410156 0)"/>
      </g>
     </g>
    </g>
    <g id="xtick_5">
     <g id="line2d_5">
      <g>
       <use xlink:href="#m2da0ff372a" x="287.436659" y="284.4" style="stroke: #000000; stroke-width: 0.8"/>
      </g>
     </g>
     <g id="text_5">
      <!-- 0.5 -->
      <g transform="translate(279.485096 298.998438) scale(0.1 -0.1)">
       <use xlink:href="#DejaVuSans-30"/>
       <use xlink:href="#DejaVuSans-2e" transform="translate(63.623047 0)"/>
       <use xlink:href="#DejaVuSans-35" transform="translate(95.410156 0)"/>
      </g>
     </g>
    </g>
    <g id="xtick_6">
     <g id="line2d_6">
      <g>
       <use xlink:href="#m2da0ff372a" x="341.090505" y="284.4" style="stroke: #000000; stroke-width: 0.8"/>
      </g>
     </g>
     <g id="text_6">
      <!-- 1.0 -->
      <g transform="translate(333.138942 298.998438) scale(0.1 -0.1)">
       <use xlink:href="#DejaVuSans-31"/>
       <use xlink:href="#DejaVuSans-2e" transform="translate(63.623047 0)"/>
       <use xlink:href="#DejaVuSans-30" transform="translate(95.410156 0)"/>
      </g>
     </g>
    </g>
    <g id="xtick_7">
     <g id="line2d_7">
      <g>
       <use xlink:href="#m2da0ff372a" x="394.744351" y="284.4" style="stroke: #000000; stroke-width: 0.8"/>
      </g>
     </g>
     <g id="text_7">
      <!-- 1.5 -->
      <g transform="translate(386.792788 298.998438) scale(0.1 -0.1)">
       <use xlink:href="#DejaVuSans-31"/>
       <use xlink:href="#DejaVuSans-2e" transform="translate(63.623047 0)"/>
       <use xlink:href="#DejaVuSans-35" transform="translate(95.410156 0)"/>
      </g>
     </g>
    </g>
   </g>
   <g id="matplotlib.axis_2">
    <g id="ytick_1">
     <g id="line2d_8">
      <defs>
       <path id="m187d940f56" d="M 0 0 
L -3.5 0 
" style="stroke: #000000; stroke-width: 0.8"/>
      </defs>
      <g>
       <use xlink:href="#m187d940f56" x="38.482813" y="260.030769" style="stroke: #000000; stroke-width: 0.8"/>
      </g>
     </g>
     <g id="text_8">
      <!-- −1.5 -->
      <g transform="translate(7.2 263.829988) scale(0.1 -0.1)">
       <use xlink:href="#DejaVuSans-2212"/>
       <use xlink:href="#DejaVuSans-31" transform="translate(83.789062 0)"/>
       <use xlink:href="#DejaVuSans-2e" transform="translate(147.412109 0)"/>
       <use xlink:href="#DejaVuSans-35" transform="translate(179.199219 0)"/>
      </g>
     </g>
    </g>
    <g id="ytick_2">
     <g id="line2d_9">
      <g>
       <use xlink:href="#m187d940f56" x="38.482813" y="221.953846" style="stroke: #000000; stroke-width: 0.8"/>
      </g>
     </g>
     <g id="text_9">
      <!-- −1.0 -->
      <g transform="translate(7.2 225.753065) scale(0.1 -0.1)">
       <use xlink:href="#DejaVuSans-2212"/>
       <use xlink:href="#DejaVuSans-31" transform="translate(83.789062 0)"/>
       <use xlink:href="#DejaVuSans-2e" transform="translate(147.412109 0)"/>
       <use xlink:href="#DejaVuSans-30" transform="translate(179.199219 0)"/>
      </g>
     </g>
    </g>
    <g id="ytick_3">
     <g id="line2d_10">
      <g>
       <use xlink:href="#m187d940f56" x="38.482813" y="183.876923" style="stroke: #000000; stroke-width: 0.8"/>
      </g>
     </g>
     <g id="text_10">
      <!-- −0.5 -->
      <g transform="translate(7.2 187.676142) scale(0.1 -0.1)">
       <use xlink:href="#DejaVuSans-2212"/>
       <use xlink:href="#DejaVuSans-30" transform="translate(83.789062 0)"/>
       <use xlink:href="#DejaVuSans-2e" transform="translate(147.412109 0)"/>
       <use xlink:href="#DejaVuSans-35" transform="translate(179.199219 0)"/>
      </g>
     </g>
    </g>
    <g id="ytick_4">
     <g id="line2d_11">
      <g>
       <use xlink:href="#m187d940f56" x="38.482813" y="145.8" style="stroke: #000000; stroke-width: 0.8"/>
      </g>
     </g>
     <g id="text_11">
      <!-- 0.0 -->
      <g transform="translate(15.579688 149.599219) scale(0.1 -0.1)">
       <use xlink:href="#DejaVuSans-30"/>
       <use xlink:href="#DejaVuSans-2e" transform="translate(63.623047 0)"/>
       <use xlink:href="#DejaVuSans-30" transform="translate(95.410156 0)"/>
      </g>
     </g>
    </g>
    <g id="ytick_5">
     <g id="line2d_12">
      <g>
       <use xlink:href="#m187d940f56" x="38.482813" y="107.723077" style="stroke: #000000; stroke-width: 0.8"/>
      </g>
     </g>
     <g id="text_12">
      <!-- 0.5 -->
      <g transform="translate(15.579688 111.522296) scale(0.1 -0.1)">
       <use xlink:href="#DejaVuSans-30"/>
       <use xlink:href="#DejaVuSans-2e" transform="translate(63.623047 0)"/>
       <use xlink:href="#DejaVuSans-35" transform="translate(95.410156 0)"/>
      </g>
     </g>
    </g>
    <g id="ytick_6">
     <g id="line2d_13">
      <g>
       <use xlink:href="#m187d940f56" x="38.482813" y="69.646154" style="stroke: #000000; stroke-width: 0.8"/>
      </g>
     </g>
     <g id="text_13">
      <!-- 1.0 -->
      <g transform="translate(15.579688 73.445373) scale(0.1 -0.1)">
       <use xlink:href="#DejaVuSans-31"/>
       <use xlink:href="#DejaVuSans-2e" transform="translate(63.623047 0)"/>
       <use xlink:href="#DejaVuSans-30" transform="translate(95.410156 0)"/>
      </g>
     </g>
    </g>
    <g id="ytick_7">
     <g id="line2d_14">
      <g>
       <use xlink:href="#m187d940f56" x="38.482813" y="31.569231" style="stroke: #000000; stroke-width: 0.8"/>
      </g>
     </g>
     <g id="text_14">
      <!-- 1.5 -->
      <g transform="translate(15.579688 35.36845) scale(0.1 -0.1)">
       <use xlink:href="#DejaVuSans-31"/>
       <use xlink:href="#DejaVuSans-2e" transform="translate(63.623047 0)"/>
       <use xlink:href="#DejaVuSans-35" transform="translate(95.410156 0)"/>
      </g>
     </g>
    </g>
   </g>
   <g id="QuadContourSet_1">
    <path d="M 222.012828 -1 
L 222.012828 309.278125 
L 222.012828 309.278125 
" clip-path="url(#p2e90c18e91)" style="fill: none; stroke: #440154; stroke-width: 1.5"/>
   </g>
   <g id="patch_3">
    <path d="M 38.482813 284.4 
L 38.482813 7.2 
" style="fill: none; stroke: #000000; stroke-width: 0.8; stroke-linejoin: miter; stroke-linecap: square"/>
   </g>
   <g id="patch_4">
    <path d="M 429.082813 284.4 
L 429.082813 7.2 
" style="fill: none; stroke: #000000; stroke-width: 0.8; stroke-linejoin: miter; stroke-linecap: square"/>
   </g>
   <g id="patch_5">
    <path d="M 38.482812 284.4 
L 429.082812 284.4 
" style="fill: none; stroke: #000000; stroke-width: 0.8; stroke-linejoin: miter; stroke-linecap: square"/>
   </g>
   <g id="patch_6">
    <path d="M 38.482812 7.2 
L 429.082812 7.2 
" style="fill: none; stroke: #000000; stroke-width: 0.8; stroke-linejoin: miter; stroke-linecap: square"/>
   </g>
  </g>
 </g>
 <defs>
  <clipPath id="p2e90c18e91">
   <rect x="38.482813" y="7.2" width="390.6" height="277.2"/>
  </clipPath>
 </defs>
</svg>
