<?xml version="1.0" encoding="utf-8" standalone="no"?>
<!DOCTYPE svg PUBLIC "-//W3C//DTD SVG 1.1//EN"
  "http://www.w3.org/Graphics/SVG/1.1/DTD/svg11.dtd">
<svg xmlns:xlink="http://www.w3.org/1999/xlink" width="436.282812pt" height="308.278125pt" viewBox="0 0 436.282812 308.278125" xmlns="http://www.w3.org/2000/svg" version="1.1">
 <metadata>
  <rdf:RDF xmlns:dc="http://purl.org/dc/elements/1.1/" xmlns:cc="http://creativecommons.org/ns#" xmlns:rdf="http://www.w3.org/1999/02/22-rdf-syntax-ns#">
   <cc:Work>
    <dc:type rdf:resource="http://purl.org/dc/dcmitype/StillImage"/>
    <dc:date>2025-05-14T14:04:18.904428</dc:date>
    <dc:format>image/svg+xml</dc:format>
    <dc:creator>
     <cc:Agent>
      <dc:title>Matplotlib v3.10.0, https://matplotlib.org/</dc:title>
     </cc:Agent>
    </dc:creator>
   </cc:Work>
  </rdf:RDF>
 </metadata>
 <defs>
  <style type="text/css">*{stroke-linejoin: round; stroke-linecap: butt}</style>
 </defs>
 <g id="figure_1">
  <g id="patch_1">
   <path d="M 0 308.278125 
L 436.282812 308.278125 
L 436.282812 0 
L 0 0 
z
" style="fill: #ffffff"/>
  </g>
  <g id="axes_1">
   <g id="patch_2">
    <path d="M 38.482813 284.4 
L 429.082813 284.4 
L 429.082813 7.2 
L 38.482813 7.2 
z
" style="fill: #ffffff"/>
   </g>
   <g id="PathCollection_1">
    <defs>
     <path id="mff15790c1c" d="M 0 3 
C 0.795609 3 1.55874 2.683901 2.12132 2.12132 
C 2.683901 1.55874 3 0.795609 3 0 
C 3 -0.795609 2.683901 -1.55874 2.12132 -2.12132 
C 1.55874 -2.683901 0.795609 -3 0 -3 
C -0.795609 -3 -1.55874 -2.683901 -2.12132 -2.12132 
C -2.683901 -1.55874 -3 -0.795609 -3 0 
C -3 0.795609 -2.683901 1.55874 -2.12132 2.12132 
C -1.55874 2.683901 -0.795609 3 0 3 
z
" style="stroke: #1f77b4"/>
    </defs>
    <g clip-path="url(#p34c05d7bd8)">
     <use xlink:href="#mff15790c1c" x="228.524936" y="37.817539" style="fill: #1f77b4; stroke: #1f77b4"/>
     <use xlink:href="#mff15790c1c" x="128.538165" y="174.290808" style="fill: #1f77b4; stroke: #1f77b4"/>
     <use xlink:href="#mff15790c1c" x="215.234188" y="157.539874" style="fill: #1f77b4; stroke: #1f77b4"/>
     <use xlink:href="#mff15790c1c" x="74.063875" y="135.543232" style="fill: #1f77b4; stroke: #1f77b4"/>
     <use xlink:href="#mff15790c1c" x="172.611889" y="183.866931" style="fill: #1f77b4; stroke: #1f77b4"/>
     <use xlink:href="#mff15790c1c" x="106.174319" y="154.036874" style="fill: #1f77b4; stroke: #1f77b4"/>
     <use xlink:href="#mff15790c1c" x="122.638061" y="100.202216" style="fill: #1f77b4; stroke: #1f77b4"/>
     <use xlink:href="#mff15790c1c" x="116.240031" y="165.12328" style="fill: #1f77b4; stroke: #1f77b4"/>
     <use xlink:href="#mff15790c1c" x="196.951015" y="92.120146" style="fill: #1f77b4; stroke: #1f77b4"/>
     <use xlink:href="#mff15790c1c" x="259.820546" y="53.094283" style="fill: #1f77b4; stroke: #1f77b4"/>
     <use xlink:href="#mff15790c1c" x="127.055634" y="194.171811" style="fill: #1f77b4; stroke: #1f77b4"/>
     <use xlink:href="#mff15790c1c" x="152.472834" y="110.275114" style="fill: #1f77b4; stroke: #1f77b4"/>
     <use xlink:href="#mff15790c1c" x="123.763345" y="111.9663" style="fill: #1f77b4; stroke: #1f77b4"/>
     <use xlink:href="#mff15790c1c" x="261.982244" y="45.662353" style="fill: #1f77b4; stroke: #1f77b4"/>
     <use xlink:href="#mff15790c1c" x="189.992062" y="149.233725" style="fill: #1f77b4; stroke: #1f77b4"/>
     <use xlink:href="#mff15790c1c" x="126.764751" y="133.675488" style="fill: #1f77b4; stroke: #1f77b4"/>
     <use xlink:href="#mff15790c1c" x="255.299974" y="37.503761" style="fill: #1f77b4; stroke: #1f77b4"/>
     <use xlink:href="#mff15790c1c" x="111.502435" y="189.079866" style="fill: #1f77b4; stroke: #1f77b4"/>
     <use xlink:href="#mff15790c1c" x="153.465898" y="98.45692" style="fill: #1f77b4; stroke: #1f77b4"/>
     <use xlink:href="#mff15790c1c" x="193.233166" y="96.984412" style="fill: #1f77b4; stroke: #1f77b4"/>
     <use xlink:href="#mff15790c1c" x="184.907975" y="155.204" style="fill: #1f77b4; stroke: #1f77b4"/>
     <use xlink:href="#mff15790c1c" x="262.437762" y="63.952952" style="fill: #1f77b4; stroke: #1f77b4"/>
     <use xlink:href="#mff15790c1c" x="195.417713" y="162.829104" style="fill: #1f77b4; stroke: #1f77b4"/>
     <use xlink:href="#mff15790c1c" x="201.267456" y="99.814004" style="fill: #1f77b4; stroke: #1f77b4"/>
     <use xlink:href="#mff15790c1c" x="67.9526" y="139.386412" style="fill: #1f77b4; stroke: #1f77b4"/>
     <use xlink:href="#mff15790c1c" x="146.126806" y="197.83084" style="fill: #1f77b4; stroke: #1f77b4"/>
     <use xlink:href="#mff15790c1c" x="216.052951" y="85.185295" style="fill: #1f77b4; stroke: #1f77b4"/>
     <use xlink:href="#mff15790c1c" x="182.463966" y="68.886291" style="fill: #1f77b4; stroke: #1f77b4"/>
     <use xlink:href="#mff15790c1c" x="248.643235" y="56.092421" style="fill: #1f77b4; stroke: #1f77b4"/>
     <use xlink:href="#mff15790c1c" x="211.093744" y="78.826042" style="fill: #1f77b4; stroke: #1f77b4"/>
     <use xlink:href="#mff15790c1c" x="186.765539" y="52.880331" style="fill: #1f77b4; stroke: #1f77b4"/>
     <use xlink:href="#mff15790c1c" x="302.273339" y="84.957606" style="fill: #1f77b4; stroke: #1f77b4"/>
     <use xlink:href="#mff15790c1c" x="68.917805" y="151.003266" style="fill: #1f77b4; stroke: #1f77b4"/>
     <use xlink:href="#mff15790c1c" x="228.491399" y="24.842742" style="fill: #1f77b4; stroke: #1f77b4"/>
     <use xlink:href="#mff15790c1c" x="168.334447" y="128.651424" style="fill: #1f77b4; stroke: #1f77b4"/>
     <use xlink:href="#mff15790c1c" x="246.78073" y="58.251571" style="fill: #1f77b4; stroke: #1f77b4"/>
     <use xlink:href="#mff15790c1c" x="167.914487" y="68.136736" style="fill: #1f77b4; stroke: #1f77b4"/>
     <use xlink:href="#mff15790c1c" x="114.303567" y="182.487069" style="fill: #1f77b4; stroke: #1f77b4"/>
     <use xlink:href="#mff15790c1c" x="121.763124" y="125.851388" style="fill: #1f77b4; stroke: #1f77b4"/>
     <use xlink:href="#mff15790c1c" x="148.18011" y="153.452986" style="fill: #1f77b4; stroke: #1f77b4"/>
     <use xlink:href="#mff15790c1c" x="230.575575" y="100.200008" style="fill: #1f77b4; stroke: #1f77b4"/>
     <use xlink:href="#mff15790c1c" x="216.357239" y="91.657836" style="fill: #1f77b4; stroke: #1f77b4"/>
     <use xlink:href="#mff15790c1c" x="314.273275" y="86.966026" style="fill: #1f77b4; stroke: #1f77b4"/>
     <use xlink:href="#mff15790c1c" x="261.04018" y="75.099461" style="fill: #1f77b4; stroke: #1f77b4"/>
    </g>
   </g>
   <g id="PathCollection_2">
    <defs>
     <path id="m42076c17cd" d="M 0 3 
C 0.795609 3 1.55874 2.683901 2.12132 2.12132 
C 2.683901 1.55874 3 0.795609 3 0 
C 3 -0.795609 2.683901 -1.55874 2.12132 -2.12132 
C 1.55874 -2.683901 0.795609 -3 0 -3 
C -0.795609 -3 -1.55874 -2.683901 -2.12132 -2.12132 
C -2.683901 -1.55874 -3 -0.795609 -3 0 
C -3 0.795609 -2.683901 1.55874 -2.12132 2.12132 
C -1.55874 2.683901 -0.795609 3 0 3 
z
" style="stroke: #ff7f0e"/>
    </defs>
    <g clip-path="url(#p34c05d7bd8)">
     <use xlink:href="#m42076c17cd" x="323.968152" y="112.531383" style="fill: #ff7f0e; stroke: #ff7f0e"/>
     <use xlink:href="#m42076c17cd" x="377.93753" y="141.964117" style="fill: #ff7f0e; stroke: #ff7f0e"/>
     <use xlink:href="#m42076c17cd" x="189.650248" y="229.14637" style="fill: #ff7f0e; stroke: #ff7f0e"/>
     <use xlink:href="#m42076c17cd" x="242.741279" y="212.898387" style="fill: #ff7f0e; stroke: #ff7f0e"/>
     <use xlink:href="#m42076c17cd" x="291.822069" y="156.325729" style="fill: #ff7f0e; stroke: #ff7f0e"/>
     <use xlink:href="#m42076c17cd" x="331.288068" y="184.128415" style="fill: #ff7f0e; stroke: #ff7f0e"/>
     <use xlink:href="#m42076c17cd" x="281.0377" y="240.484934" style="fill: #ff7f0e; stroke: #ff7f0e"/>
     <use xlink:href="#m42076c17cd" x="160.680731" y="220.953344" style="fill: #ff7f0e; stroke: #ff7f0e"/>
     <use xlink:href="#m42076c17cd" x="246.973389" y="242.026938" style="fill: #ff7f0e; stroke: #ff7f0e"/>
     <use xlink:href="#m42076c17cd" x="220.064236" y="224.599555" style="fill: #ff7f0e; stroke: #ff7f0e"/>
     <use xlink:href="#m42076c17cd" x="354.082209" y="112.909231" style="fill: #ff7f0e; stroke: #ff7f0e"/>
     <use xlink:href="#m42076c17cd" x="308.793267" y="116.085634" style="fill: #ff7f0e; stroke: #ff7f0e"/>
     <use xlink:href="#m42076c17cd" x="295.142891" y="214.142419" style="fill: #ff7f0e; stroke: #ff7f0e"/>
     <use xlink:href="#m42076c17cd" x="218.570471" y="252.546683" style="fill: #ff7f0e; stroke: #ff7f0e"/>
     <use xlink:href="#m42076c17cd" x="311.503408" y="182.879151" style="fill: #ff7f0e; stroke: #ff7f0e"/>
     <use xlink:href="#m42076c17cd" x="327.343666" y="176.124832" style="fill: #ff7f0e; stroke: #ff7f0e"/>
     <use xlink:href="#m42076c17cd" x="302.031718" y="226.779176" style="fill: #ff7f0e; stroke: #ff7f0e"/>
     <use xlink:href="#m42076c17cd" x="323.106699" y="170.080692" style="fill: #ff7f0e; stroke: #ff7f0e"/>
     <use xlink:href="#m42076c17cd" x="369.43025" y="133.023608" style="fill: #ff7f0e; stroke: #ff7f0e"/>
     <use xlink:href="#m42076c17cd" x="296.390041" y="166.62075" style="fill: #ff7f0e; stroke: #ff7f0e"/>
     <use xlink:href="#m42076c17cd" x="356.204186" y="182.216246" style="fill: #ff7f0e; stroke: #ff7f0e"/>
     <use xlink:href="#m42076c17cd" x="233.203807" y="266.457787" style="fill: #ff7f0e; stroke: #ff7f0e"/>
     <use xlink:href="#m42076c17cd" x="269.931616" y="155.052794" style="fill: #ff7f0e; stroke: #ff7f0e"/>
     <use xlink:href="#m42076c17cd" x="366.959645" y="156.819662" style="fill: #ff7f0e; stroke: #ff7f0e"/>
     <use xlink:href="#m42076c17cd" x="223.914239" y="236.559928" style="fill: #ff7f0e; stroke: #ff7f0e"/>
     <use xlink:href="#m42076c17cd" x="390.270425" y="131.154835" style="fill: #ff7f0e; stroke: #ff7f0e"/>
     <use xlink:href="#m42076c17cd" x="281.208527" y="165.872063" style="fill: #ff7f0e; stroke: #ff7f0e"/>
     <use xlink:href="#m42076c17cd" x="244.998825" y="145.914283" style="fill: #ff7f0e; stroke: #ff7f0e"/>
     <use xlink:href="#m42076c17cd" x="361.474185" y="161.541183" style="fill: #ff7f0e; stroke: #ff7f0e"/>
     <use xlink:href="#m42076c17cd" x="230.423272" y="174.057473" style="fill: #ff7f0e; stroke: #ff7f0e"/>
     <use xlink:href="#m42076c17cd" x="243.68913" y="139.364263" style="fill: #ff7f0e; stroke: #ff7f0e"/>
     <use xlink:href="#m42076c17cd" x="365.649052" y="142.500245" style="fill: #ff7f0e; stroke: #ff7f0e"/>
     <use xlink:href="#m42076c17cd" x="297.952681" y="178.802516" style="fill: #ff7f0e; stroke: #ff7f0e"/>
     <use xlink:href="#m42076c17cd" x="247.826004" y="174.706295" style="fill: #ff7f0e; stroke: #ff7f0e"/>
     <use xlink:href="#m42076c17cd" x="304.699145" y="221.410462" style="fill: #ff7f0e; stroke: #ff7f0e"/>
     <use xlink:href="#m42076c17cd" x="399.452595" y="148.626243" style="fill: #ff7f0e; stroke: #ff7f0e"/>
     <use xlink:href="#m42076c17cd" x="311.595689" y="178.538648" style="fill: #ff7f0e; stroke: #ff7f0e"/>
     <use xlink:href="#m42076c17cd" x="353.942727" y="181.762807" style="fill: #ff7f0e; stroke: #ff7f0e"/>
     <use xlink:href="#m42076c17cd" x="296.028281" y="190.678565" style="fill: #ff7f0e; stroke: #ff7f0e"/>
     <use xlink:href="#m42076c17cd" x="219.00492" y="212.014501" style="fill: #ff7f0e; stroke: #ff7f0e"/>
     <use xlink:href="#m42076c17cd" x="270.850748" y="130.81088" style="fill: #ff7f0e; stroke: #ff7f0e"/>
     <use xlink:href="#m42076c17cd" x="223.711341" y="162.675216" style="fill: #ff7f0e; stroke: #ff7f0e"/>
     <use xlink:href="#m42076c17cd" x="325.73564" y="163.756274" style="fill: #ff7f0e; stroke: #ff7f0e"/>
     <use xlink:href="#m42076c17cd" x="259.827237" y="211.332696" style="fill: #ff7f0e; stroke: #ff7f0e"/>
     <use xlink:href="#m42076c17cd" x="356.502579" y="106.455827" style="fill: #ff7f0e; stroke: #ff7f0e"/>
     <use xlink:href="#m42076c17cd" x="209.064493" y="186.639415" style="fill: #ff7f0e; stroke: #ff7f0e"/>
     <use xlink:href="#m42076c17cd" x="326.286218" y="145.460412" style="fill: #ff7f0e; stroke: #ff7f0e"/>
     <use xlink:href="#m42076c17cd" x="308.45437" y="135.745102" style="fill: #ff7f0e; stroke: #ff7f0e"/>
     <use xlink:href="#m42076c17cd" x="280.622411" y="207.63864" style="fill: #ff7f0e; stroke: #ff7f0e"/>
     <use xlink:href="#m42076c17cd" x="275.168992" y="134.957076" style="fill: #ff7f0e; stroke: #ff7f0e"/>
     <use xlink:href="#m42076c17cd" x="340.232357" y="101.351654" style="fill: #ff7f0e; stroke: #ff7f0e"/>
     <use xlink:href="#m42076c17cd" x="246.912977" y="223.77162" style="fill: #ff7f0e; stroke: #ff7f0e"/>
     <use xlink:href="#m42076c17cd" x="181.186857" y="221.031764" style="fill: #ff7f0e; stroke: #ff7f0e"/>
     <use xlink:href="#m42076c17cd" x="198.416849" y="233.291631" style="fill: #ff7f0e; stroke: #ff7f0e"/>
     <use xlink:href="#m42076c17cd" x="258.51648" y="179.602601" style="fill: #ff7f0e; stroke: #ff7f0e"/>
     <use xlink:href="#m42076c17cd" x="187.539049" y="213.829394" style="fill: #ff7f0e; stroke: #ff7f0e"/>
    </g>
   </g>
   <g id="matplotlib.axis_1">
    <g id="xtick_1">
     <g id="line2d_1">
      <defs>
       <path id="m3f91a04f4b" d="M 0 0 
L 0 3.5 
" style="stroke: #000000; stroke-width: 0.8"/>
      </defs>
      <g>
       <use xlink:href="#m3f91a04f4b" x="77.542812" y="284.4" style="stroke: #000000; stroke-width: 0.8"/>
      </g>
     </g>
     <g id="text_1">
      <!-- −0.6 -->
      <g transform="translate(65.401406 298.998438) scale(0.1 -0.1)">
       <defs>
        <path id="DejaVuSans-2212" d="M 678 2272 
L 4684 2272 
L 4684 1741 
L 678 1741 
L 678 2272 
z
" transform="scale(0.015625)"/>
        <path id="DejaVuSans-30" d="M 2034 4250 
Q 1547 4250 1301 3770 
Q 1056 3291 1056 2328 
Q 1056 1369 1301 889 
Q 1547 409 2034 409 
Q 2525 409 2770 889 
Q 3016 1369 3016 2328 
Q 3016 3291 2770 3770 
Q 2525 4250 2034 4250 
z
M 2034 4750 
Q 2819 4750 3233 4129 
Q 3647 3509 3647 2328 
Q 3647 1150 3233 529 
Q 2819 -91 2034 -91 
Q 1250 -91 836 529 
Q 422 1150 422 2328 
Q 422 3509 836 4129 
Q 1250 4750 2034 4750 
z
" transform="scale(0.015625)"/>
        <path id="DejaVuSans-2e" d="M 684 794 
L 1344 794 
L 1344 0 
L 684 0 
L 684 794 
z
" transform="scale(0.015625)"/>
        <path id="DejaVuSans-36" d="M 2113 2584 
Q 1688 2584 1439 2293 
Q 1191 2003 1191 1497 
Q 1191 994 1439 701 
Q 1688 409 2113 409 
Q 2538 409 2786 701 
Q 3034 994 3034 1497 
Q 3034 2003 2786 2293 
Q 2538 2584 2113 2584 
z
M 3366 4563 
L 3366 3988 
Q 3128 4100 2886 4159 
Q 2644 4219 2406 4219 
Q 1781 4219 1451 3797 
Q 1122 3375 1075 2522 
Q 1259 2794 1537 2939 
Q 1816 3084 2150 3084 
Q 2853 3084 3261 2657 
Q 3669 2231 3669 1497 
Q 3669 778 3244 343 
Q 2819 -91 2113 -91 
Q 1303 -91 875 529 
Q 447 1150 447 2328 
Q 447 3434 972 4092 
Q 1497 4750 2381 4750 
Q 2619 4750 2861 4703 
Q 3103 4656 3366 4563 
z
" transform="scale(0.015625)"/>
       </defs>
       <use xlink:href="#DejaVuSans-2212"/>
       <use xlink:href="#DejaVuSans-30" transform="translate(83.789062 0)"/>
       <use xlink:href="#DejaVuSans-2e" transform="translate(147.412109 0)"/>
       <use xlink:href="#DejaVuSans-36" transform="translate(179.199219 0)"/>
      </g>
     </g>
    </g>
    <g id="xtick_2">
     <g id="line2d_2">
      <g>
       <use xlink:href="#m3f91a04f4b" x="129.622813" y="284.4" style="stroke: #000000; stroke-width: 0.8"/>
      </g>
     </g>
     <g id="text_2">
      <!-- −0.4 -->
      <g transform="translate(117.481406 298.998438) scale(0.1 -0.1)">
       <defs>
        <path id="DejaVuSans-34" d="M 2419 4116 
L 825 1625 
L 2419 1625 
L 2419 4116 
z
M 2253 4666 
L 3047 4666 
L 3047 1625 
L 3713 1625 
L 3713 1100 
L 3047 1100 
L 3047 0 
L 2419 0 
L 2419 1100 
L 313 1100 
L 313 1709 
L 2253 4666 
z
" transform="scale(0.015625)"/>
       </defs>
       <use xlink:href="#DejaVuSans-2212"/>
       <use xlink:href="#DejaVuSans-30" transform="translate(83.789062 0)"/>
       <use xlink:href="#DejaVuSans-2e" transform="translate(147.412109 0)"/>
       <use xlink:href="#DejaVuSans-34" transform="translate(179.199219 0)"/>
      </g>
     </g>
    </g>
    <g id="xtick_3">
     <g id="line2d_3">
      <g>
       <use xlink:href="#m3f91a04f4b" x="181.702813" y="284.4" style="stroke: #000000; stroke-width: 0.8"/>
      </g>
     </g>
     <g id="text_3">
      <!-- −0.2 -->
      <g transform="translate(169.561406 298.998438) scale(0.1 -0.1)">
       <defs>
        <path id="DejaVuSans-32" d="M 1228 531 
L 3431 531 
L 3431 0 
L 469 0 
L 469 531 
Q 828 903 1448 1529 
Q 2069 2156 2228 2338 
Q 2531 2678 2651 2914 
Q 2772 3150 2772 3378 
Q 2772 3750 2511 3984 
Q 2250 4219 1831 4219 
Q 1534 4219 1204 4116 
Q 875 4013 500 3803 
L 500 4441 
Q 881 4594 1212 4672 
Q 1544 4750 1819 4750 
Q 2544 4750 2975 4387 
Q 3406 4025 3406 3419 
Q 3406 3131 3298 2873 
Q 3191 2616 2906 2266 
Q 2828 2175 2409 1742 
Q 1991 1309 1228 531 
z
" transform="scale(0.015625)"/>
       </defs>
       <use xlink:href="#DejaVuSans-2212"/>
       <use xlink:href="#DejaVuSans-30" transform="translate(83.789062 0)"/>
       <use xlink:href="#DejaVuSans-2e" transform="translate(147.412109 0)"/>
       <use xlink:href="#DejaVuSans-32" transform="translate(179.199219 0)"/>
      </g>
     </g>
    </g>
    <g id="xtick_4">
     <g id="line2d_4">
      <g>
       <use xlink:href="#m3f91a04f4b" x="233.782813" y="284.4" style="stroke: #000000; stroke-width: 0.8"/>
      </g>
     </g>
     <g id="text_4">
      <!-- 0.0 -->
      <g transform="translate(225.83125 298.998438) scale(0.1 -0.1)">
       <use xlink:href="#DejaVuSans-30"/>
       <use xlink:href="#DejaVuSans-2e" transform="translate(63.623047 0)"/>
       <use xlink:href="#DejaVuSans-30" transform="translate(95.410156 0)"/>
      </g>
     </g>
    </g>
    <g id="xtick_5">
     <g id="line2d_5">
      <g>
       <use xlink:href="#m3f91a04f4b" x="285.862813" y="284.4" style="stroke: #000000; stroke-width: 0.8"/>
      </g>
     </g>
     <g id="text_5">
      <!-- 0.2 -->
      <g transform="translate(277.91125 298.998438) scale(0.1 -0.1)">
       <use xlink:href="#DejaVuSans-30"/>
       <use xlink:href="#DejaVuSans-2e" transform="translate(63.623047 0)"/>
       <use xlink:href="#DejaVuSans-32" transform="translate(95.410156 0)"/>
      </g>
     </g>
    </g>
    <g id="xtick_6">
     <g id="line2d_6">
      <g>
       <use xlink:href="#m3f91a04f4b" x="337.942813" y="284.4" style="stroke: #000000; stroke-width: 0.8"/>
      </g>
     </g>
     <g id="text_6">
      <!-- 0.4 -->
      <g transform="translate(329.99125 298.998438) scale(0.1 -0.1)">
       <use xlink:href="#DejaVuSans-30"/>
       <use xlink:href="#DejaVuSans-2e" transform="translate(63.623047 0)"/>
       <use xlink:href="#DejaVuSans-34" transform="translate(95.410156 0)"/>
      </g>
     </g>
    </g>
    <g id="xtick_7">
     <g id="line2d_7">
      <g>
       <use xlink:href="#m3f91a04f4b" x="390.022812" y="284.4" style="stroke: #000000; stroke-width: 0.8"/>
      </g>
     </g>
     <g id="text_7">
      <!-- 0.6 -->
      <g transform="translate(382.07125 298.998438) scale(0.1 -0.1)">
       <use xlink:href="#DejaVuSans-30"/>
       <use xlink:href="#DejaVuSans-2e" transform="translate(63.623047 0)"/>
       <use xlink:href="#DejaVuSans-36" transform="translate(95.410156 0)"/>
      </g>
     </g>
    </g>
   </g>
   <g id="matplotlib.axis_2">
    <g id="ytick_1">
     <g id="line2d_8">
      <defs>
       <path id="m3a8283fd71" d="M 0 0 
L -3.5 0 
" style="stroke: #000000; stroke-width: 0.8"/>
      </defs>
      <g>
       <use xlink:href="#m3a8283fd71" x="38.482813" y="256.68" style="stroke: #000000; stroke-width: 0.8"/>
      </g>
     </g>
     <g id="text_8">
      <!-- −0.6 -->
      <g transform="translate(7.2 260.479219) scale(0.1 -0.1)">
       <use xlink:href="#DejaVuSans-2212"/>
       <use xlink:href="#DejaVuSans-30" transform="translate(83.789062 0)"/>
       <use xlink:href="#DejaVuSans-2e" transform="translate(147.412109 0)"/>
       <use xlink:href="#DejaVuSans-36" transform="translate(179.199219 0)"/>
      </g>
     </g>
    </g>
    <g id="ytick_2">
     <g id="line2d_9">
      <g>
       <use xlink:href="#m3a8283fd71" x="38.482813" y="219.72" style="stroke: #000000; stroke-width: 0.8"/>
      </g>
     </g>
     <g id="text_9">
      <!-- −0.4 -->
      <g transform="translate(7.2 223.519219) scale(0.1 -0.1)">
       <use xlink:href="#DejaVuSans-2212"/>
       <use xlink:href="#DejaVuSans-30" transform="translate(83.789062 0)"/>
       <use xlink:href="#DejaVuSans-2e" transform="translate(147.412109 0)"/>
       <use xlink:href="#DejaVuSans-34" transform="translate(179.199219 0)"/>
      </g>
     </g>
    </g>
    <g id="ytick_3">
     <g id="line2d_10">
      <g>
       <use xlink:href="#m3a8283fd71" x="38.482813" y="182.76" style="stroke: #000000; stroke-width: 0.8"/>
      </g>
     </g>
     <g id="text_10">
      <!-- −0.2 -->
      <g transform="translate(7.2 186.559219) scale(0.1 -0.1)">
       <use xlink:href="#DejaVuSans-2212"/>
       <use xlink:href="#DejaVuSans-30" transform="translate(83.789062 0)"/>
       <use xlink:href="#DejaVuSans-2e" transform="translate(147.412109 0)"/>
       <use xlink:href="#DejaVuSans-32" transform="translate(179.199219 0)"/>
      </g>
     </g>
    </g>
    <g id="ytick_4">
     <g id="line2d_11">
      <g>
       <use xlink:href="#m3a8283fd71" x="38.482813" y="145.8" style="stroke: #000000; stroke-width: 0.8"/>
      </g>
     </g>
     <g id="text_11">
      <!-- 0.0 -->
      <g transform="translate(15.579688 149.599219) scale(0.1 -0.1)">
       <use xlink:href="#DejaVuSans-30"/>
       <use xlink:href="#DejaVuSans-2e" transform="translate(63.623047 0)"/>
       <use xlink:href="#DejaVuSans-30" transform="translate(95.410156 0)"/>
      </g>
     </g>
    </g>
    <g id="ytick_5">
     <g id="line2d_12">
      <g>
       <use xlink:href="#m3a8283fd71" x="38.482813" y="108.84" style="stroke: #000000; stroke-width: 0.8"/>
      </g>
     </g>
     <g id="text_12">
      <!-- 0.2 -->
      <g transform="translate(15.579688 112.639219) scale(0.1 -0.1)">
       <use xlink:href="#DejaVuSans-30"/>
       <use xlink:href="#DejaVuSans-2e" transform="translate(63.623047 0)"/>
       <use xlink:href="#DejaVuSans-32" transform="translate(95.410156 0)"/>
      </g>
     </g>
    </g>
    <g id="ytick_6">
     <g id="line2d_13">
      <g>
       <use xlink:href="#m3a8283fd71" x="38.482813" y="71.88" style="stroke: #000000; stroke-width: 0.8"/>
      </g>
     </g>
     <g id="text_13">
      <!-- 0.4 -->
      <g transform="translate(15.579688 75.679219) scale(0.1 -0.1)">
       <use xlink:href="#DejaVuSans-30"/>
       <use xlink:href="#DejaVuSans-2e" transform="translate(63.623047 0)"/>
       <use xlink:href="#DejaVuSans-34" transform="translate(95.410156 0)"/>
      </g>
     </g>
    </g>
    <g id="ytick_7">
     <g id="line2d_14">
      <g>
       <use xlink:href="#m3a8283fd71" x="38.482813" y="34.92" style="stroke: #000000; stroke-width: 0.8"/>
      </g>
     </g>
     <g id="text_14">
      <!-- 0.6 -->
      <g transform="translate(15.579688 38.719219) scale(0.1 -0.1)">
       <use xlink:href="#DejaVuSans-30"/>
       <use xlink:href="#DejaVuSans-2e" transform="translate(63.623047 0)"/>
       <use xlink:href="#DejaVuSans-36" transform="translate(95.410156 0)"/>
      </g>
     </g>
    </g>
   </g>
   <g id="QuadContourSet_1">
    <path d="M -1 187.99808 
L 217.287615 187.99808 
L 217.287615 187.99808 
L 217.287615 205.732183 
L 217.287615 205.732183 
L -1 205.732183 
M 437.282812 100.550605 
L 217.713978 100.550605 
L 217.287615 100.856365 
L 217.287615 185.246237 
L 217.287615 185.246237 
L -1 185.246237 
L -1 185.246237 
" clip-path="url(#p34c05d7bd8)" style="fill: none; stroke: #440154; stroke-width: 1.5"/>
   </g>
   <g id="patch_3">
    <path d="M 38.482813 284.4 
L 38.482813 7.2 
" style="fill: none; stroke: #000000; stroke-width: 0.8; stroke-linejoin: miter; stroke-linecap: square"/>
   </g>
   <g id="patch_4">
    <path d="M 429.082813 284.4 
L 429.082813 7.2 
" style="fill: none; stroke: #000000; stroke-width: 0.8; stroke-linejoin: miter; stroke-linecap: square"/>
   </g>
   <g id="patch_5">
    <path d="M 38.482813 284.4 
L 429.082812 284.4 
" style="fill: none; stroke: #000000; stroke-width: 0.8; stroke-linejoin: miter; stroke-linecap: square"/>
   </g>
   <g id="patch_6">
    <path d="M 38.482813 7.2 
L 429.082812 7.2 
" style="fill: none; stroke: #000000; stroke-width: 0.8; stroke-linejoin: miter; stroke-linecap: square"/>
   </g>
  </g>
 </g>
 <defs>
  <clipPath id="p34c05d7bd8">
   <rect x="38.482813" y="7.2" width="390.6" height="277.2"/>
  </clipPath>
 </defs>
</svg>
