<?xml version="1.0" encoding="utf-8" standalone="no"?>
<!DOCTYPE svg PUBLIC "-//W3C//DTD SVG 1.1//EN"
  "http://www.w3.org/Graphics/SVG/1.1/DTD/svg11.dtd">
<svg xmlns:xlink="http://www.w3.org/1999/xlink" width="447.946875pt" height="177.46636pt" viewBox="0 0 447.946875 177.46636" xmlns="http://www.w3.org/2000/svg" version="1.1">
 <metadata>
  <rdf:RDF xmlns:dc="http://purl.org/dc/elements/1.1/" xmlns:cc="http://creativecommons.org/ns#" xmlns:rdf="http://www.w3.org/1999/02/22-rdf-syntax-ns#">
   <cc:Work>
    <dc:type rdf:resource="http://purl.org/dc/dcmitype/StillImage"/>
    <dc:date>2025-07-09T06:16:19.177520</dc:date>
    <dc:format>image/svg+xml</dc:format>
    <dc:creator>
     <cc:Agent>
      <dc:title>Matplotlib v3.10.0, https://matplotlib.org/</dc:title>
     </cc:Agent>
    </dc:creator>
   </cc:Work>
  </rdf:RDF>
 </metadata>
 <defs>
  <style type="text/css">*{stroke-linejoin: round; stroke-linecap: butt}</style>
 </defs>
 <g id="figure_1">
  <g id="patch_1">
   <path d="M 0 177.46636 
L 447.946875 177.46636 
L 447.946875 -0 
L 0 -0 
z
" style="fill: #ffffff"/>
  </g>
  <g id="axes_1">
   <g id="patch_2">
    <path d="M 40.603125 139.91011 
L 431.203125 139.91011 
L 431.203125 10.999219 
L 40.603125 10.999219 
z
" style="fill: #ffffff"/>
   </g>
   <g id="patch_3">
    <path d="M 42.923521 268.821001 
L 46.017382 268.821001 
L 46.017382 39.646083 
L 42.923521 39.646083 
z
" clip-path="url(#p7dc56dc39a)" style="fill: #1f77b4"/>
   </g>
   <g id="patch_4">
    <path d="M 46.790848 268.821001 
L 49.884709 268.821001 
L 49.884709 61.131232 
L 46.790848 61.131232 
z
" clip-path="url(#p7dc56dc39a)" style="fill: #1f77b4"/>
   </g>
   <g id="patch_5">
    <path d="M 50.658175 268.821001 
L 53.752036 268.821001 
L 53.752036 53.969516 
L 50.658175 53.969516 
z
" clip-path="url(#p7dc56dc39a)" style="fill: #1f77b4"/>
   </g>
   <g id="patch_6">
    <path d="M 54.525501 268.821001 
L 57.619363 268.821001 
L 57.619363 25.322651 
L 54.525501 25.322651 
z
" clip-path="url(#p7dc56dc39a)" style="fill: #1f77b4"/>
   </g>
   <g id="patch_7">
    <path d="M 58.392828 268.821001 
L 61.486689 268.821001 
L 61.486689 53.969516 
L 58.392828 53.969516 
z
" clip-path="url(#p7dc56dc39a)" style="fill: #1f77b4"/>
   </g>
   <g id="patch_8">
    <path d="M 62.260155 268.821001 
L 65.354016 268.821001 
L 65.354016 46.8078 
L 62.260155 46.8078 
z
" clip-path="url(#p7dc56dc39a)" style="fill: #1f77b4"/>
   </g>
   <g id="patch_9">
    <path d="M 66.127481 268.821001 
L 69.221343 268.821001 
L 69.221343 39.646083 
L 66.127481 39.646083 
z
" clip-path="url(#p7dc56dc39a)" style="fill: #1f77b4"/>
   </g>
   <g id="patch_10">
    <path d="M 69.994808 268.821001 
L 73.08867 268.821001 
L 73.08867 25.322651 
L 69.994808 25.322651 
z
" clip-path="url(#p7dc56dc39a)" style="fill: #1f77b4"/>
   </g>
   <g id="patch_11">
    <path d="M 73.862135 268.821001 
L 76.955996 268.821001 
L 76.955996 32.484367 
L 73.862135 32.484367 
z
" clip-path="url(#p7dc56dc39a)" style="fill: #1f77b4"/>
   </g>
   <g id="patch_12">
    <path d="M 77.729462 268.821001 
L 80.823323 268.821001 
L 80.823323 32.484367 
L 77.729462 32.484367 
z
" clip-path="url(#p7dc56dc39a)" style="fill: #1f77b4"/>
   </g>
   <g id="patch_13">
    <path d="M 81.596788 268.821001 
L 84.69065 268.821001 
L 84.69065 39.646083 
L 81.596788 39.646083 
z
" clip-path="url(#p7dc56dc39a)" style="fill: #1f77b4"/>
   </g>
   <g id="patch_14">
    <path d="M 85.464115 268.821001 
L 88.557976 268.821001 
L 88.557976 53.969516 
L 85.464115 53.969516 
z
" clip-path="url(#p7dc56dc39a)" style="fill: #1f77b4"/>
   </g>
   <g id="patch_15">
    <path d="M 89.331442 268.821001 
L 92.425303 268.821001 
L 92.425303 32.484367 
L 89.331442 32.484367 
z
" clip-path="url(#p7dc56dc39a)" style="fill: #1f77b4"/>
   </g>
   <g id="patch_16">
    <path d="M 93.198769 268.821001 
L 96.29263 268.821001 
L 96.29263 53.969516 
L 93.198769 53.969516 
z
" clip-path="url(#p7dc56dc39a)" style="fill: #1f77b4"/>
   </g>
   <g id="patch_17">
    <path d="M 97.066095 268.821001 
L 100.159957 268.821001 
L 100.159957 39.646083 
L 97.066095 39.646083 
z
" clip-path="url(#p7dc56dc39a)" style="fill: #1f77b4"/>
   </g>
   <g id="patch_18">
    <path d="M 100.933422 268.821001 
L 104.027283 268.821001 
L 104.027283 53.969516 
L 100.933422 53.969516 
z
" clip-path="url(#p7dc56dc39a)" style="fill: #1f77b4"/>
   </g>
   <g id="patch_19">
    <path d="M 104.800749 268.821001 
L 107.89461 268.821001 
L 107.89461 46.8078 
L 104.800749 46.8078 
z
" clip-path="url(#p7dc56dc39a)" style="fill: #1f77b4"/>
   </g>
   <g id="patch_20">
    <path d="M 108.668075 268.821001 
L 111.761937 268.821001 
L 111.761937 46.8078 
L 108.668075 46.8078 
z
" clip-path="url(#p7dc56dc39a)" style="fill: #1f77b4"/>
   </g>
   <g id="patch_21">
    <path d="M 112.535402 268.821001 
L 115.629264 268.821001 
L 115.629264 46.8078 
L 112.535402 46.8078 
z
" clip-path="url(#p7dc56dc39a)" style="fill: #1f77b4"/>
   </g>
   <g id="patch_22">
    <path d="M 116.402729 268.821001 
L 119.49659 268.821001 
L 119.49659 82.61638 
L 116.402729 82.61638 
z
" clip-path="url(#p7dc56dc39a)" style="fill: #1f77b4"/>
   </g>
   <g id="patch_23">
    <path d="M 120.270056 268.821001 
L 123.363917 268.821001 
L 123.363917 61.131232 
L 120.270056 61.131232 
z
" clip-path="url(#p7dc56dc39a)" style="fill: #1f77b4"/>
   </g>
   <g id="patch_24">
    <path d="M 124.137382 268.821001 
L 127.231244 268.821001 
L 127.231244 25.322651 
L 124.137382 25.322651 
z
" clip-path="url(#p7dc56dc39a)" style="fill: #1f77b4"/>
   </g>
   <g id="patch_25">
    <path d="M 128.004709 268.821001 
L 131.098571 268.821001 
L 131.098571 53.969516 
L 128.004709 53.969516 
z
" clip-path="url(#p7dc56dc39a)" style="fill: #1f77b4"/>
   </g>
   <g id="patch_26">
    <path d="M 131.872036 268.821001 
L 134.965897 268.821001 
L 134.965897 39.646083 
L 131.872036 39.646083 
z
" clip-path="url(#p7dc56dc39a)" style="fill: #1f77b4"/>
   </g>
   <g id="patch_27">
    <path d="M 135.739363 268.821001 
L 138.833224 268.821001 
L 138.833224 53.969516 
L 135.739363 53.969516 
z
" clip-path="url(#p7dc56dc39a)" style="fill: #1f77b4"/>
   </g>
   <g id="patch_28">
    <path d="M 139.606689 268.821001 
L 142.700551 268.821001 
L 142.700551 53.969516 
L 139.606689 53.969516 
z
" clip-path="url(#p7dc56dc39a)" style="fill: #1f77b4"/>
   </g>
   <g id="patch_29">
    <path d="M 143.474016 268.821001 
L 146.567877 268.821001 
L 146.567877 10.999219 
L 143.474016 10.999219 
z
" clip-path="url(#p7dc56dc39a)" style="fill: #1f77b4"/>
   </g>
   <g id="patch_30">
    <path d="M 147.341343 268.821001 
L 150.435204 268.821001 
L 150.435204 53.969516 
L 147.341343 53.969516 
z
" clip-path="url(#p7dc56dc39a)" style="fill: #1f77b4"/>
   </g>
   <g id="patch_31">
    <path d="M 151.20867 268.821001 
L 154.302531 268.821001 
L 154.302531 53.969516 
L 151.20867 53.969516 
z
" clip-path="url(#p7dc56dc39a)" style="fill: #1f77b4"/>
   </g>
   <g id="patch_32">
    <path d="M 155.075996 268.821001 
L 158.169858 268.821001 
L 158.169858 61.131232 
L 155.075996 61.131232 
z
" clip-path="url(#p7dc56dc39a)" style="fill: #1f77b4"/>
   </g>
   <g id="patch_33">
    <path d="M 158.943323 268.821001 
L 162.037184 268.821001 
L 162.037184 68.292948 
L 158.943323 68.292948 
z
" clip-path="url(#p7dc56dc39a)" style="fill: #1f77b4"/>
   </g>
   <g id="patch_34">
    <path d="M 162.81065 268.821001 
L 165.904511 268.821001 
L 165.904511 53.969516 
L 162.81065 53.969516 
z
" clip-path="url(#p7dc56dc39a)" style="fill: #1f77b4"/>
   </g>
   <g id="patch_35">
    <path d="M 166.677976 268.821001 
L 169.771838 268.821001 
L 169.771838 46.8078 
L 166.677976 46.8078 
z
" clip-path="url(#p7dc56dc39a)" style="fill: #1f77b4"/>
   </g>
   <g id="patch_36">
    <path d="M 170.545303 268.821001 
L 173.639165 268.821001 
L 173.639165 61.131232 
L 170.545303 61.131232 
z
" clip-path="url(#p7dc56dc39a)" style="fill: #1f77b4"/>
   </g>
   <g id="patch_37">
    <path d="M 174.41263 268.821001 
L 177.506491 268.821001 
L 177.506491 61.131232 
L 174.41263 61.131232 
z
" clip-path="url(#p7dc56dc39a)" style="fill: #1f77b4"/>
   </g>
   <g id="patch_38">
    <path d="M 178.279957 268.821001 
L 181.373818 268.821001 
L 181.373818 39.646083 
L 178.279957 39.646083 
z
" clip-path="url(#p7dc56dc39a)" style="fill: #1f77b4"/>
   </g>
   <g id="patch_39">
    <path d="M 182.147283 268.821001 
L 185.241145 268.821001 
L 185.241145 53.969516 
L 182.147283 53.969516 
z
" clip-path="url(#p7dc56dc39a)" style="fill: #1f77b4"/>
   </g>
   <g id="patch_40">
    <path d="M 186.01461 268.821001 
L 189.108472 268.821001 
L 189.108472 82.61638 
L 186.01461 82.61638 
z
" clip-path="url(#p7dc56dc39a)" style="fill: #1f77b4"/>
   </g>
   <g id="patch_41">
    <path d="M 189.881937 268.821001 
L 192.975798 268.821001 
L 192.975798 25.322651 
L 189.881937 25.322651 
z
" clip-path="url(#p7dc56dc39a)" style="fill: #1f77b4"/>
   </g>
   <g id="patch_42">
    <path d="M 193.749264 268.821001 
L 196.843125 268.821001 
L 196.843125 39.646083 
L 193.749264 39.646083 
z
" clip-path="url(#p7dc56dc39a)" style="fill: #1f77b4"/>
   </g>
   <g id="patch_43">
    <path d="M 197.61659 268.821001 
L 200.710452 268.821001 
L 200.710452 68.292948 
L 197.61659 68.292948 
z
" clip-path="url(#p7dc56dc39a)" style="fill: #1f77b4"/>
   </g>
   <g id="patch_44">
    <path d="M 201.483917 268.821001 
L 204.577778 268.821001 
L 204.577778 46.8078 
L 201.483917 46.8078 
z
" clip-path="url(#p7dc56dc39a)" style="fill: #1f77b4"/>
   </g>
   <g id="patch_45">
    <path d="M 205.351244 268.821001 
L 208.445105 268.821001 
L 208.445105 61.131232 
L 205.351244 61.131232 
z
" clip-path="url(#p7dc56dc39a)" style="fill: #1f77b4"/>
   </g>
   <g id="patch_46">
    <path d="M 209.218571 268.821001 
L 212.312432 268.821001 
L 212.312432 61.131232 
L 209.218571 61.131232 
z
" clip-path="url(#p7dc56dc39a)" style="fill: #1f77b4"/>
   </g>
   <g id="patch_47">
    <path d="M 213.085897 268.821001 
L 216.179759 268.821001 
L 216.179759 32.484367 
L 213.085897 32.484367 
z
" clip-path="url(#p7dc56dc39a)" style="fill: #1f77b4"/>
   </g>
   <g id="patch_48">
    <path d="M 216.953224 268.821001 
L 220.047085 268.821001 
L 220.047085 82.61638 
L 216.953224 82.61638 
z
" clip-path="url(#p7dc56dc39a)" style="fill: #1f77b4"/>
   </g>
   <g id="patch_49">
    <path d="M 220.820551 268.821001 
L 223.914412 268.821001 
L 223.914412 46.8078 
L 220.820551 46.8078 
z
" clip-path="url(#p7dc56dc39a)" style="fill: #1f77b4"/>
   </g>
   <g id="patch_50">
    <path d="M 224.687877 268.821001 
L 227.781739 268.821001 
L 227.781739 61.131232 
L 224.687877 61.131232 
z
" clip-path="url(#p7dc56dc39a)" style="fill: #1f77b4"/>
   </g>
   <g id="patch_51">
    <path d="M 228.555204 268.821001 
L 231.649066 268.821001 
L 231.649066 53.969516 
L 228.555204 53.969516 
z
" clip-path="url(#p7dc56dc39a)" style="fill: #1f77b4"/>
   </g>
   <g id="patch_52">
    <path d="M 232.422531 268.821001 
L 235.516392 268.821001 
L 235.516392 61.131232 
L 232.422531 61.131232 
z
" clip-path="url(#p7dc56dc39a)" style="fill: #1f77b4"/>
   </g>
   <g id="patch_53">
    <path d="M 236.289858 268.821001 
L 239.383719 268.821001 
L 239.383719 68.292948 
L 236.289858 68.292948 
z
" clip-path="url(#p7dc56dc39a)" style="fill: #1f77b4"/>
   </g>
   <g id="patch_54">
    <path d="M 240.157184 268.821001 
L 243.251046 268.821001 
L 243.251046 39.646083 
L 240.157184 39.646083 
z
" clip-path="url(#p7dc56dc39a)" style="fill: #1f77b4"/>
   </g>
   <g id="patch_55">
    <path d="M 244.024511 268.821001 
L 247.118373 268.821001 
L 247.118373 39.646083 
L 244.024511 39.646083 
z
" clip-path="url(#p7dc56dc39a)" style="fill: #1f77b4"/>
   </g>
   <g id="patch_56">
    <path d="M 247.891838 268.821001 
L 250.985699 268.821001 
L 250.985699 53.969516 
L 247.891838 53.969516 
z
" clip-path="url(#p7dc56dc39a)" style="fill: #1f77b4"/>
   </g>
   <g id="patch_57">
    <path d="M 251.759165 268.821001 
L 254.853026 268.821001 
L 254.853026 68.292948 
L 251.759165 68.292948 
z
" clip-path="url(#p7dc56dc39a)" style="fill: #1f77b4"/>
   </g>
   <g id="patch_58">
    <path d="M 255.626491 268.821001 
L 258.720353 268.821001 
L 258.720353 68.292948 
L 255.626491 68.292948 
z
" clip-path="url(#p7dc56dc39a)" style="fill: #1f77b4"/>
   </g>
   <g id="patch_59">
    <path d="M 259.493818 268.821001 
L 262.587679 268.821001 
L 262.587679 25.322651 
L 259.493818 25.322651 
z
" clip-path="url(#p7dc56dc39a)" style="fill: #1f77b4"/>
   </g>
   <g id="patch_60">
    <path d="M 263.361145 268.821001 
L 266.455006 268.821001 
L 266.455006 39.646083 
L 263.361145 39.646083 
z
" clip-path="url(#p7dc56dc39a)" style="fill: #1f77b4"/>
   </g>
   <g id="patch_61">
    <path d="M 267.228472 268.821001 
L 270.322333 268.821001 
L 270.322333 53.969516 
L 267.228472 53.969516 
z
" clip-path="url(#p7dc56dc39a)" style="fill: #1f77b4"/>
   </g>
   <g id="patch_62">
    <path d="M 271.095798 268.821001 
L 274.18966 268.821001 
L 274.18966 68.292948 
L 271.095798 68.292948 
z
" clip-path="url(#p7dc56dc39a)" style="fill: #1f77b4"/>
   </g>
   <g id="patch_63">
    <path d="M 274.963125 268.821001 
L 278.056986 268.821001 
L 278.056986 25.322651 
L 274.963125 25.322651 
z
" clip-path="url(#p7dc56dc39a)" style="fill: #1f77b4"/>
   </g>
   <g id="patch_64">
    <path d="M 278.830452 268.821001 
L 281.924313 268.821001 
L 281.924313 46.8078 
L 278.830452 46.8078 
z
" clip-path="url(#p7dc56dc39a)" style="fill: #1f77b4"/>
   </g>
   <g id="patch_65">
    <path d="M 282.697778 268.821001 
L 285.79164 268.821001 
L 285.79164 39.646083 
L 282.697778 39.646083 
z
" clip-path="url(#p7dc56dc39a)" style="fill: #1f77b4"/>
   </g>
   <g id="patch_66">
    <path d="M 286.565105 268.821001 
L 289.658967 268.821001 
L 289.658967 25.322651 
L 286.565105 25.322651 
z
" clip-path="url(#p7dc56dc39a)" style="fill: #1f77b4"/>
   </g>
   <g id="patch_67">
    <path d="M 290.432432 268.821001 
L 293.526293 268.821001 
L 293.526293 32.484367 
L 290.432432 32.484367 
z
" clip-path="url(#p7dc56dc39a)" style="fill: #1f77b4"/>
   </g>
   <g id="patch_68">
    <path d="M 294.299759 268.821001 
L 297.39362 268.821001 
L 297.39362 39.646083 
L 294.299759 39.646083 
z
" clip-path="url(#p7dc56dc39a)" style="fill: #1f77b4"/>
   </g>
   <g id="patch_69">
    <path d="M 298.167085 268.821001 
L 301.260947 268.821001 
L 301.260947 61.131232 
L 298.167085 61.131232 
z
" clip-path="url(#p7dc56dc39a)" style="fill: #1f77b4"/>
   </g>
   <g id="patch_70">
    <path d="M 302.034412 268.821001 
L 305.128274 268.821001 
L 305.128274 61.131232 
L 302.034412 61.131232 
z
" clip-path="url(#p7dc56dc39a)" style="fill: #1f77b4"/>
   </g>
   <g id="patch_71">
    <path d="M 305.901739 268.821001 
L 308.9956 268.821001 
L 308.9956 53.969516 
L 305.901739 53.969516 
z
" clip-path="url(#p7dc56dc39a)" style="fill: #1f77b4"/>
   </g>
   <g id="patch_72">
    <path d="M 309.769066 268.821001 
L 312.862927 268.821001 
L 312.862927 53.969516 
L 309.769066 53.969516 
z
" clip-path="url(#p7dc56dc39a)" style="fill: #1f77b4"/>
   </g>
   <g id="patch_73">
    <path d="M 313.636392 268.821001 
L 316.730254 268.821001 
L 316.730254 25.322651 
L 313.636392 25.322651 
z
" clip-path="url(#p7dc56dc39a)" style="fill: #1f77b4"/>
   </g>
   <g id="patch_74">
    <path d="M 317.503719 268.821001 
L 320.59758 268.821001 
L 320.59758 25.322651 
L 317.503719 25.322651 
z
" clip-path="url(#p7dc56dc39a)" style="fill: #1f77b4"/>
   </g>
   <g id="patch_75">
    <path d="M 321.371046 268.821001 
L 324.464907 268.821001 
L 324.464907 61.131232 
L 321.371046 61.131232 
z
" clip-path="url(#p7dc56dc39a)" style="fill: #1f77b4"/>
   </g>
   <g id="patch_76">
    <path d="M 325.238373 268.821001 
L 328.332234 268.821001 
L 328.332234 53.969516 
L 325.238373 53.969516 
z
" clip-path="url(#p7dc56dc39a)" style="fill: #1f77b4"/>
   </g>
   <g id="patch_77">
    <path d="M 329.105699 268.821001 
L 332.199561 268.821001 
L 332.199561 53.969516 
L 329.105699 53.969516 
z
" clip-path="url(#p7dc56dc39a)" style="fill: #1f77b4"/>
   </g>
   <g id="patch_78">
    <path d="M 332.973026 268.821001 
L 336.066887 268.821001 
L 336.066887 18.160935 
L 332.973026 18.160935 
z
" clip-path="url(#p7dc56dc39a)" style="fill: #1f77b4"/>
   </g>
   <g id="patch_79">
    <path d="M 336.840353 268.821001 
L 339.934214 268.821001 
L 339.934214 61.131232 
L 336.840353 61.131232 
z
" clip-path="url(#p7dc56dc39a)" style="fill: #1f77b4"/>
   </g>
   <g id="patch_80">
    <path d="M 340.707679 268.821001 
L 343.801541 268.821001 
L 343.801541 46.8078 
L 340.707679 46.8078 
z
" clip-path="url(#p7dc56dc39a)" style="fill: #1f77b4"/>
   </g>
   <g id="patch_81">
    <path d="M 344.575006 268.821001 
L 347.668868 268.821001 
L 347.668868 46.8078 
L 344.575006 46.8078 
z
" clip-path="url(#p7dc56dc39a)" style="fill: #1f77b4"/>
   </g>
   <g id="patch_82">
    <path d="M 348.442333 268.821001 
L 351.536194 268.821001 
L 351.536194 46.8078 
L 348.442333 46.8078 
z
" clip-path="url(#p7dc56dc39a)" style="fill: #1f77b4"/>
   </g>
   <g id="patch_83">
    <path d="M 352.30966 268.821001 
L 355.403521 268.821001 
L 355.403521 32.484367 
L 352.30966 32.484367 
z
" clip-path="url(#p7dc56dc39a)" style="fill: #1f77b4"/>
   </g>
   <g id="patch_84">
    <path d="M 356.176986 268.821001 
L 359.270848 268.821001 
L 359.270848 39.646083 
L 356.176986 39.646083 
z
" clip-path="url(#p7dc56dc39a)" style="fill: #1f77b4"/>
   </g>
   <g id="patch_85">
    <path d="M 360.044313 268.821001 
L 363.138175 268.821001 
L 363.138175 39.646083 
L 360.044313 39.646083 
z
" clip-path="url(#p7dc56dc39a)" style="fill: #1f77b4"/>
   </g>
   <g id="patch_86">
    <path d="M 363.91164 268.821001 
L 367.005501 268.821001 
L 367.005501 75.454664 
L 363.91164 75.454664 
z
" clip-path="url(#p7dc56dc39a)" style="fill: #1f77b4"/>
   </g>
   <g id="patch_87">
    <path d="M 367.778967 268.821001 
L 370.872828 268.821001 
L 370.872828 75.454664 
L 367.778967 75.454664 
z
" clip-path="url(#p7dc56dc39a)" style="fill: #1f77b4"/>
   </g>
   <g id="patch_88">
    <path d="M 371.646293 268.821001 
L 374.740155 268.821001 
L 374.740155 32.484367 
L 371.646293 32.484367 
z
" clip-path="url(#p7dc56dc39a)" style="fill: #1f77b4"/>
   </g>
   <g id="patch_89">
    <path d="M 375.51362 268.821001 
L 378.607481 268.821001 
L 378.607481 25.322651 
L 375.51362 25.322651 
z
" clip-path="url(#p7dc56dc39a)" style="fill: #1f77b4"/>
   </g>
   <g id="patch_90">
    <path d="M 379.380947 268.821001 
L 382.474808 268.821001 
L 382.474808 53.969516 
L 379.380947 53.969516 
z
" clip-path="url(#p7dc56dc39a)" style="fill: #1f77b4"/>
   </g>
   <g id="patch_91">
    <path d="M 383.248274 268.821001 
L 386.342135 268.821001 
L 386.342135 39.646083 
L 383.248274 39.646083 
z
" clip-path="url(#p7dc56dc39a)" style="fill: #1f77b4"/>
   </g>
   <g id="patch_92">
    <path d="M 387.1156 268.821001 
L 390.209462 268.821001 
L 390.209462 53.969516 
L 387.1156 53.969516 
z
" clip-path="url(#p7dc56dc39a)" style="fill: #1f77b4"/>
   </g>
   <g id="patch_93">
    <path d="M 390.982927 268.821001 
L 394.076788 268.821001 
L 394.076788 39.646083 
L 390.982927 39.646083 
z
" clip-path="url(#p7dc56dc39a)" style="fill: #1f77b4"/>
   </g>
   <g id="patch_94">
    <path d="M 394.850254 268.821001 
L 397.944115 268.821001 
L 397.944115 39.646083 
L 394.850254 39.646083 
z
" clip-path="url(#p7dc56dc39a)" style="fill: #1f77b4"/>
   </g>
   <g id="patch_95">
    <path d="M 398.71758 268.821001 
L 401.811442 268.821001 
L 401.811442 53.969516 
L 398.71758 53.969516 
z
" clip-path="url(#p7dc56dc39a)" style="fill: #1f77b4"/>
   </g>
   <g id="patch_96">
    <path d="M 402.584907 268.821001 
L 405.678769 268.821001 
L 405.678769 68.292948 
L 402.584907 68.292948 
z
" clip-path="url(#p7dc56dc39a)" style="fill: #1f77b4"/>
   </g>
   <g id="patch_97">
    <path d="M 406.452234 268.821001 
L 409.546095 268.821001 
L 409.546095 39.646083 
L 406.452234 39.646083 
z
" clip-path="url(#p7dc56dc39a)" style="fill: #1f77b4"/>
   </g>
   <g id="patch_98">
    <path d="M 410.319561 268.821001 
L 413.413422 268.821001 
L 413.413422 39.646083 
L 410.319561 39.646083 
z
" clip-path="url(#p7dc56dc39a)" style="fill: #1f77b4"/>
   </g>
   <g id="patch_99">
    <path d="M 414.186887 268.821001 
L 417.280749 268.821001 
L 417.280749 32.484367 
L 414.186887 32.484367 
z
" clip-path="url(#p7dc56dc39a)" style="fill: #1f77b4"/>
   </g>
   <g id="patch_100">
    <path d="M 418.054214 268.821001 
L 421.148075 268.821001 
L 421.148075 25.322651 
L 418.054214 25.322651 
z
" clip-path="url(#p7dc56dc39a)" style="fill: #1f77b4"/>
   </g>
   <g id="patch_101">
    <path d="M 421.921541 268.821001 
L 425.015402 268.821001 
L 425.015402 75.454664 
L 421.921541 75.454664 
z
" clip-path="url(#p7dc56dc39a)" style="fill: #1f77b4"/>
   </g>
   <g id="patch_102">
    <path d="M 425.788868 268.821001 
L 428.882729 268.821001 
L 428.882729 25.322651 
L 425.788868 25.322651 
z
" clip-path="url(#p7dc56dc39a)" style="fill: #1f77b4"/>
   </g>
   <g id="matplotlib.axis_1">
    <g id="xtick_1">
     <g id="line2d_1">
      <defs>
       <path id="m44efee14c3" d="M 0 0 
L 0 3.5 
" style="stroke: #000000; stroke-width: 0.8"/>
      </defs>
      <g>
       <use xlink:href="#m44efee14c3" x="44.470452" y="139.91011" style="stroke: #000000; stroke-width: 0.8"/>
      </g>
     </g>
     <g id="text_1">
      <!-- 0 -->
      <g transform="translate(41.289202 154.508547) scale(0.1 -0.1)">
       <defs>
        <path id="DejaVuSans-30" d="M 2034 4250 
Q 1547 4250 1301 3770 
Q 1056 3291 1056 2328 
Q 1056 1369 1301 889 
Q 1547 409 2034 409 
Q 2525 409 2770 889 
Q 3016 1369 3016 2328 
Q 3016 3291 2770 3770 
Q 2525 4250 2034 4250 
z
M 2034 4750 
Q 2819 4750 3233 4129 
Q 3647 3509 3647 2328 
Q 3647 1150 3233 529 
Q 2819 -91 2034 -91 
Q 1250 -91 836 529 
Q 422 1150 422 2328 
Q 422 3509 836 4129 
Q 1250 4750 2034 4750 
z
" transform="scale(0.015625)"/>
       </defs>
       <use xlink:href="#DejaVuSans-30"/>
      </g>
     </g>
    </g>
    <g id="xtick_2">
     <g id="line2d_2">
      <g>
       <use xlink:href="#m44efee14c3" x="121.816986" y="139.91011" style="stroke: #000000; stroke-width: 0.8"/>
      </g>
     </g>
     <g id="text_2">
      <!-- 20 -->
      <g transform="translate(115.454486 154.508547) scale(0.1 -0.1)">
       <defs>
        <path id="DejaVuSans-32" d="M 1228 531 
L 3431 531 
L 3431 0 
L 469 0 
L 469 531 
Q 828 903 1448 1529 
Q 2069 2156 2228 2338 
Q 2531 2678 2651 2914 
Q 2772 3150 2772 3378 
Q 2772 3750 2511 3984 
Q 2250 4219 1831 4219 
Q 1534 4219 1204 4116 
Q 875 4013 500 3803 
L 500 4441 
Q 881 4594 1212 4672 
Q 1544 4750 1819 4750 
Q 2544 4750 2975 4387 
Q 3406 4025 3406 3419 
Q 3406 3131 3298 2873 
Q 3191 2616 2906 2266 
Q 2828 2175 2409 1742 
Q 1991 1309 1228 531 
z
" transform="scale(0.015625)"/>
       </defs>
       <use xlink:href="#DejaVuSans-32"/>
       <use xlink:href="#DejaVuSans-30" transform="translate(63.623047 0)"/>
      </g>
     </g>
    </g>
    <g id="xtick_3">
     <g id="line2d_3">
      <g>
       <use xlink:href="#m44efee14c3" x="199.163521" y="139.91011" style="stroke: #000000; stroke-width: 0.8"/>
      </g>
     </g>
     <g id="text_3">
      <!-- 40 -->
      <g transform="translate(192.801021 154.508547) scale(0.1 -0.1)">
       <defs>
        <path id="DejaVuSans-34" d="M 2419 4116 
L 825 1625 
L 2419 1625 
L 2419 4116 
z
M 2253 4666 
L 3047 4666 
L 3047 1625 
L 3713 1625 
L 3713 1100 
L 3047 1100 
L 3047 0 
L 2419 0 
L 2419 1100 
L 313 1100 
L 313 1709 
L 2253 4666 
z
" transform="scale(0.015625)"/>
       </defs>
       <use xlink:href="#DejaVuSans-34"/>
       <use xlink:href="#DejaVuSans-30" transform="translate(63.623047 0)"/>
      </g>
     </g>
    </g>
    <g id="xtick_4">
     <g id="line2d_4">
      <g>
       <use xlink:href="#m44efee14c3" x="276.510056" y="139.91011" style="stroke: #000000; stroke-width: 0.8"/>
      </g>
     </g>
     <g id="text_4">
      <!-- 60 -->
      <g transform="translate(270.147556 154.508547) scale(0.1 -0.1)">
       <defs>
        <path id="DejaVuSans-36" d="M 2113 2584 
Q 1688 2584 1439 2293 
Q 1191 2003 1191 1497 
Q 1191 994 1439 701 
Q 1688 409 2113 409 
Q 2538 409 2786 701 
Q 3034 994 3034 1497 
Q 3034 2003 2786 2293 
Q 2538 2584 2113 2584 
z
M 3366 4563 
L 3366 3988 
Q 3128 4100 2886 4159 
Q 2644 4219 2406 4219 
Q 1781 4219 1451 3797 
Q 1122 3375 1075 2522 
Q 1259 2794 1537 2939 
Q 1816 3084 2150 3084 
Q 2853 3084 3261 2657 
Q 3669 2231 3669 1497 
Q 3669 778 3244 343 
Q 2819 -91 2113 -91 
Q 1303 -91 875 529 
Q 447 1150 447 2328 
Q 447 3434 972 4092 
Q 1497 4750 2381 4750 
Q 2619 4750 2861 4703 
Q 3103 4656 3366 4563 
z
" transform="scale(0.015625)"/>
       </defs>
       <use xlink:href="#DejaVuSans-36"/>
       <use xlink:href="#DejaVuSans-30" transform="translate(63.623047 0)"/>
      </g>
     </g>
    </g>
    <g id="xtick_5">
     <g id="line2d_5">
      <g>
       <use xlink:href="#m44efee14c3" x="353.85659" y="139.91011" style="stroke: #000000; stroke-width: 0.8"/>
      </g>
     </g>
     <g id="text_5">
      <!-- 80 -->
      <g transform="translate(347.49409 154.508547) scale(0.1 -0.1)">
       <defs>
        <path id="DejaVuSans-38" d="M 2034 2216 
Q 1584 2216 1326 1975 
Q 1069 1734 1069 1313 
Q 1069 891 1326 650 
Q 1584 409 2034 409 
Q 2484 409 2743 651 
Q 3003 894 3003 1313 
Q 3003 1734 2745 1975 
Q 2488 2216 2034 2216 
z
M 1403 2484 
Q 997 2584 770 2862 
Q 544 3141 544 3541 
Q 544 4100 942 4425 
Q 1341 4750 2034 4750 
Q 2731 4750 3128 4425 
Q 3525 4100 3525 3541 
Q 3525 3141 3298 2862 
Q 3072 2584 2669 2484 
Q 3125 2378 3379 2068 
Q 3634 1759 3634 1313 
Q 3634 634 3220 271 
Q 2806 -91 2034 -91 
Q 1263 -91 848 271 
Q 434 634 434 1313 
Q 434 1759 690 2068 
Q 947 2378 1403 2484 
z
M 1172 3481 
Q 1172 3119 1398 2916 
Q 1625 2713 2034 2713 
Q 2441 2713 2670 2916 
Q 2900 3119 2900 3481 
Q 2900 3844 2670 4047 
Q 2441 4250 2034 4250 
Q 1625 4250 1398 4047 
Q 1172 3844 1172 3481 
z
" transform="scale(0.015625)"/>
       </defs>
       <use xlink:href="#DejaVuSans-38"/>
       <use xlink:href="#DejaVuSans-30" transform="translate(63.623047 0)"/>
      </g>
     </g>
    </g>
    <g id="xtick_6">
     <g id="line2d_6">
      <g>
       <use xlink:href="#m44efee14c3" x="431.203125" y="139.91011" style="stroke: #000000; stroke-width: 0.8"/>
      </g>
     </g>
     <g id="text_6">
      <!-- 100 -->
      <g transform="translate(421.659375 154.508547) scale(0.1 -0.1)">
       <defs>
        <path id="DejaVuSans-31" d="M 794 531 
L 1825 531 
L 1825 4091 
L 703 3866 
L 703 4441 
L 1819 4666 
L 2450 4666 
L 2450 531 
L 3481 531 
L 3481 0 
L 794 0 
L 794 531 
z
" transform="scale(0.015625)"/>
       </defs>
       <use xlink:href="#DejaVuSans-31"/>
       <use xlink:href="#DejaVuSans-30" transform="translate(63.623047 0)"/>
       <use xlink:href="#DejaVuSans-30" transform="translate(127.246094 0)"/>
      </g>
     </g>
    </g>
    <g id="text_7">
     <!-- trial number -->
     <g transform="translate(204.942188 168.186672) scale(0.1 -0.1)">
      <defs>
       <path id="DejaVuSans-74" d="M 1172 4494 
L 1172 3500 
L 2356 3500 
L 2356 3053 
L 1172 3053 
L 1172 1153 
Q 1172 725 1289 603 
Q 1406 481 1766 481 
L 2356 481 
L 2356 0 
L 1766 0 
Q 1100 0 847 248 
Q 594 497 594 1153 
L 594 3053 
L 172 3053 
L 172 3500 
L 594 3500 
L 594 4494 
L 1172 4494 
z
" transform="scale(0.015625)"/>
       <path id="DejaVuSans-72" d="M 2631 2963 
Q 2534 3019 2420 3045 
Q 2306 3072 2169 3072 
Q 1681 3072 1420 2755 
Q 1159 2438 1159 1844 
L 1159 0 
L 581 0 
L 581 3500 
L 1159 3500 
L 1159 2956 
Q 1341 3275 1631 3429 
Q 1922 3584 2338 3584 
Q 2397 3584 2469 3576 
Q 2541 3569 2628 3553 
L 2631 2963 
z
" transform="scale(0.015625)"/>
       <path id="DejaVuSans-69" d="M 603 3500 
L 1178 3500 
L 1178 0 
L 603 0 
L 603 3500 
z
M 603 4863 
L 1178 4863 
L 1178 4134 
L 603 4134 
L 603 4863 
z
" transform="scale(0.015625)"/>
       <path id="DejaVuSans-61" d="M 2194 1759 
Q 1497 1759 1228 1600 
Q 959 1441 959 1056 
Q 959 750 1161 570 
Q 1363 391 1709 391 
Q 2188 391 2477 730 
Q 2766 1069 2766 1631 
L 2766 1759 
L 2194 1759 
z
M 3341 1997 
L 3341 0 
L 2766 0 
L 2766 531 
Q 2569 213 2275 61 
Q 1981 -91 1556 -91 
Q 1019 -91 701 211 
Q 384 513 384 1019 
Q 384 1609 779 1909 
Q 1175 2209 1959 2209 
L 2766 2209 
L 2766 2266 
Q 2766 2663 2505 2880 
Q 2244 3097 1772 3097 
Q 1472 3097 1187 3025 
Q 903 2953 641 2809 
L 641 3341 
Q 956 3463 1253 3523 
Q 1550 3584 1831 3584 
Q 2591 3584 2966 3190 
Q 3341 2797 3341 1997 
z
" transform="scale(0.015625)"/>
       <path id="DejaVuSans-6c" d="M 603 4863 
L 1178 4863 
L 1178 0 
L 603 0 
L 603 4863 
z
" transform="scale(0.015625)"/>
       <path id="DejaVuSans-20" transform="scale(0.015625)"/>
       <path id="DejaVuSans-6e" d="M 3513 2113 
L 3513 0 
L 2938 0 
L 2938 2094 
Q 2938 2591 2744 2837 
Q 2550 3084 2163 3084 
Q 1697 3084 1428 2787 
Q 1159 2491 1159 1978 
L 1159 0 
L 581 0 
L 581 3500 
L 1159 3500 
L 1159 2956 
Q 1366 3272 1645 3428 
Q 1925 3584 2291 3584 
Q 2894 3584 3203 3211 
Q 3513 2838 3513 2113 
z
" transform="scale(0.015625)"/>
       <path id="DejaVuSans-75" d="M 544 1381 
L 544 3500 
L 1119 3500 
L 1119 1403 
Q 1119 906 1312 657 
Q 1506 409 1894 409 
Q 2359 409 2629 706 
Q 2900 1003 2900 1516 
L 2900 3500 
L 3475 3500 
L 3475 0 
L 2900 0 
L 2900 538 
Q 2691 219 2414 64 
Q 2138 -91 1772 -91 
Q 1169 -91 856 284 
Q 544 659 544 1381 
z
M 1991 3584 
L 1991 3584 
z
" transform="scale(0.015625)"/>
       <path id="DejaVuSans-6d" d="M 3328 2828 
Q 3544 3216 3844 3400 
Q 4144 3584 4550 3584 
Q 5097 3584 5394 3201 
Q 5691 2819 5691 2113 
L 5691 0 
L 5113 0 
L 5113 2094 
Q 5113 2597 4934 2840 
Q 4756 3084 4391 3084 
Q 3944 3084 3684 2787 
Q 3425 2491 3425 1978 
L 3425 0 
L 2847 0 
L 2847 2094 
Q 2847 2600 2669 2842 
Q 2491 3084 2119 3084 
Q 1678 3084 1418 2786 
Q 1159 2488 1159 1978 
L 1159 0 
L 581 0 
L 581 3500 
L 1159 3500 
L 1159 2956 
Q 1356 3278 1631 3431 
Q 1906 3584 2284 3584 
Q 2666 3584 2933 3390 
Q 3200 3197 3328 2828 
z
" transform="scale(0.015625)"/>
       <path id="DejaVuSans-62" d="M 3116 1747 
Q 3116 2381 2855 2742 
Q 2594 3103 2138 3103 
Q 1681 3103 1420 2742 
Q 1159 2381 1159 1747 
Q 1159 1113 1420 752 
Q 1681 391 2138 391 
Q 2594 391 2855 752 
Q 3116 1113 3116 1747 
z
M 1159 2969 
Q 1341 3281 1617 3432 
Q 1894 3584 2278 3584 
Q 2916 3584 3314 3078 
Q 3713 2572 3713 1747 
Q 3713 922 3314 415 
Q 2916 -91 2278 -91 
Q 1894 -91 1617 61 
Q 1341 213 1159 525 
L 1159 0 
L 581 0 
L 581 4863 
L 1159 4863 
L 1159 2969 
z
" transform="scale(0.015625)"/>
       <path id="DejaVuSans-65" d="M 3597 1894 
L 3597 1613 
L 953 1613 
Q 991 1019 1311 708 
Q 1631 397 2203 397 
Q 2534 397 2845 478 
Q 3156 559 3463 722 
L 3463 178 
Q 3153 47 2828 -22 
Q 2503 -91 2169 -91 
Q 1331 -91 842 396 
Q 353 884 353 1716 
Q 353 2575 817 3079 
Q 1281 3584 2069 3584 
Q 2775 3584 3186 3129 
Q 3597 2675 3597 1894 
z
M 3022 2063 
Q 3016 2534 2758 2815 
Q 2500 3097 2075 3097 
Q 1594 3097 1305 2825 
Q 1016 2553 972 2059 
L 3022 2063 
z
" transform="scale(0.015625)"/>
      </defs>
      <use xlink:href="#DejaVuSans-74"/>
      <use xlink:href="#DejaVuSans-72" transform="translate(39.208984 0)"/>
      <use xlink:href="#DejaVuSans-69" transform="translate(80.322266 0)"/>
      <use xlink:href="#DejaVuSans-61" transform="translate(108.105469 0)"/>
      <use xlink:href="#DejaVuSans-6c" transform="translate(169.384766 0)"/>
      <use xlink:href="#DejaVuSans-20" transform="translate(197.167969 0)"/>
      <use xlink:href="#DejaVuSans-6e" transform="translate(228.955078 0)"/>
      <use xlink:href="#DejaVuSans-75" transform="translate(292.333984 0)"/>
      <use xlink:href="#DejaVuSans-6d" transform="translate(355.712891 0)"/>
      <use xlink:href="#DejaVuSans-62" transform="translate(453.125 0)"/>
      <use xlink:href="#DejaVuSans-65" transform="translate(516.601562 0)"/>
      <use xlink:href="#DejaVuSans-72" transform="translate(578.125 0)"/>
     </g>
    </g>
   </g>
   <g id="matplotlib.axis_2">
    <g id="ytick_1">
     <g id="line2d_7">
      <defs>
       <path id="m0ae577e6bd" d="M 0 0 
L -3.5 0 
" style="stroke: #000000; stroke-width: 0.8"/>
      </defs>
      <g>
       <use xlink:href="#m0ae577e6bd" x="40.603125" y="125.586677" style="stroke: #000000; stroke-width: 0.8"/>
      </g>
     </g>
     <g id="text_8">
      <!-- 50 -->
      <g transform="translate(20.878125 129.385896) scale(0.1 -0.1)">
       <defs>
        <path id="DejaVuSans-35" d="M 691 4666 
L 3169 4666 
L 3169 4134 
L 1269 4134 
L 1269 2991 
Q 1406 3038 1543 3061 
Q 1681 3084 1819 3084 
Q 2600 3084 3056 2656 
Q 3513 2228 3513 1497 
Q 3513 744 3044 326 
Q 2575 -91 1722 -91 
Q 1428 -91 1123 -41 
Q 819 9 494 109 
L 494 744 
Q 775 591 1075 516 
Q 1375 441 1709 441 
Q 2250 441 2565 725 
Q 2881 1009 2881 1497 
Q 2881 1984 2565 2268 
Q 2250 2553 1709 2553 
Q 1456 2553 1204 2497 
Q 953 2441 691 2322 
L 691 4666 
z
" transform="scale(0.015625)"/>
       </defs>
       <use xlink:href="#DejaVuSans-35"/>
       <use xlink:href="#DejaVuSans-30" transform="translate(63.623047 0)"/>
      </g>
     </g>
    </g>
    <g id="ytick_2">
     <g id="line2d_8">
      <g>
       <use xlink:href="#m0ae577e6bd" x="40.603125" y="96.939813" style="stroke: #000000; stroke-width: 0.8"/>
      </g>
     </g>
     <g id="text_9">
      <!-- 60 -->
      <g transform="translate(20.878125 100.739032) scale(0.1 -0.1)">
       <use xlink:href="#DejaVuSans-36"/>
       <use xlink:href="#DejaVuSans-30" transform="translate(63.623047 0)"/>
      </g>
     </g>
    </g>
    <g id="ytick_3">
     <g id="line2d_9">
      <g>
       <use xlink:href="#m0ae577e6bd" x="40.603125" y="68.292948" style="stroke: #000000; stroke-width: 0.8"/>
      </g>
     </g>
     <g id="text_10">
      <!-- 70 -->
      <g transform="translate(20.878125 72.092167) scale(0.1 -0.1)">
       <defs>
        <path id="DejaVuSans-37" d="M 525 4666 
L 3525 4666 
L 3525 4397 
L 1831 0 
L 1172 0 
L 2766 4134 
L 525 4134 
L 525 4666 
z
" transform="scale(0.015625)"/>
       </defs>
       <use xlink:href="#DejaVuSans-37"/>
       <use xlink:href="#DejaVuSans-30" transform="translate(63.623047 0)"/>
      </g>
     </g>
    </g>
    <g id="ytick_4">
     <g id="line2d_10">
      <g>
       <use xlink:href="#m0ae577e6bd" x="40.603125" y="39.646083" style="stroke: #000000; stroke-width: 0.8"/>
      </g>
     </g>
     <g id="text_11">
      <!-- 80 -->
      <g transform="translate(20.878125 43.445302) scale(0.1 -0.1)">
       <use xlink:href="#DejaVuSans-38"/>
       <use xlink:href="#DejaVuSans-30" transform="translate(63.623047 0)"/>
      </g>
     </g>
    </g>
    <g id="ytick_5">
     <g id="line2d_11">
      <g>
       <use xlink:href="#m0ae577e6bd" x="40.603125" y="10.999219" style="stroke: #000000; stroke-width: 0.8"/>
      </g>
     </g>
     <g id="text_12">
      <!-- 90 -->
      <g transform="translate(20.878125 14.798438) scale(0.1 -0.1)">
       <defs>
        <path id="DejaVuSans-39" d="M 703 97 
L 703 672 
Q 941 559 1184 500 
Q 1428 441 1663 441 
Q 2288 441 2617 861 
Q 2947 1281 2994 2138 
Q 2813 1869 2534 1725 
Q 2256 1581 1919 1581 
Q 1219 1581 811 2004 
Q 403 2428 403 3163 
Q 403 3881 828 4315 
Q 1253 4750 1959 4750 
Q 2769 4750 3195 4129 
Q 3622 3509 3622 2328 
Q 3622 1225 3098 567 
Q 2575 -91 1691 -91 
Q 1453 -91 1209 -44 
Q 966 3 703 97 
z
M 1959 2075 
Q 2384 2075 2632 2365 
Q 2881 2656 2881 3163 
Q 2881 3666 2632 3958 
Q 2384 4250 1959 4250 
Q 1534 4250 1286 3958 
Q 1038 3666 1038 3163 
Q 1038 2656 1286 2365 
Q 1534 2075 1959 2075 
z
" transform="scale(0.015625)"/>
       </defs>
       <use xlink:href="#DejaVuSans-39"/>
       <use xlink:href="#DejaVuSans-30" transform="translate(63.623047 0)"/>
      </g>
     </g>
    </g>
    <g id="text_13">
     <!-- accuracy -->
     <g transform="translate(14.798438 98.014039) rotate(-90) scale(0.1 -0.1)">
      <defs>
       <path id="DejaVuSans-63" d="M 3122 3366 
L 3122 2828 
Q 2878 2963 2633 3030 
Q 2388 3097 2138 3097 
Q 1578 3097 1268 2742 
Q 959 2388 959 1747 
Q 959 1106 1268 751 
Q 1578 397 2138 397 
Q 2388 397 2633 464 
Q 2878 531 3122 666 
L 3122 134 
Q 2881 22 2623 -34 
Q 2366 -91 2075 -91 
Q 1284 -91 818 406 
Q 353 903 353 1747 
Q 353 2603 823 3093 
Q 1294 3584 2113 3584 
Q 2378 3584 2631 3529 
Q 2884 3475 3122 3366 
z
" transform="scale(0.015625)"/>
       <path id="DejaVuSans-79" d="M 2059 -325 
Q 1816 -950 1584 -1140 
Q 1353 -1331 966 -1331 
L 506 -1331 
L 506 -850 
L 844 -850 
Q 1081 -850 1212 -737 
Q 1344 -625 1503 -206 
L 1606 56 
L 191 3500 
L 800 3500 
L 1894 763 
L 2988 3500 
L 3597 3500 
L 2059 -325 
z
" transform="scale(0.015625)"/>
      </defs>
      <use xlink:href="#DejaVuSans-61"/>
      <use xlink:href="#DejaVuSans-63" transform="translate(61.279297 0)"/>
      <use xlink:href="#DejaVuSans-63" transform="translate(116.259766 0)"/>
      <use xlink:href="#DejaVuSans-75" transform="translate(171.240234 0)"/>
      <use xlink:href="#DejaVuSans-72" transform="translate(234.619141 0)"/>
      <use xlink:href="#DejaVuSans-61" transform="translate(275.732422 0)"/>
      <use xlink:href="#DejaVuSans-63" transform="translate(337.011719 0)"/>
      <use xlink:href="#DejaVuSans-79" transform="translate(391.992188 0)"/>
     </g>
    </g>
   </g>
   <g id="line2d_12">
    <path d="M 44.470452 47.953674 
L 431.203125 47.953674 
" clip-path="url(#p7dc56dc39a)" style="fill: none; stroke-dasharray: 9.6,2.4,1.5,2.4; stroke-dashoffset: 0; stroke: #ff0000; stroke-width: 1.5"/>
   </g>
   <g id="line2d_13">
    <path d="M 44.470452 125.586677 
L 431.203125 125.586677 
" clip-path="url(#p7dc56dc39a)" style="fill: none; stroke-dasharray: 9.6,2.4,1.5,2.4; stroke-dashoffset: 0; stroke: #bfbf00; stroke-width: 1.5"/>
   </g>
   <g id="patch_103">
    <path d="M 40.603125 139.91011 
L 40.603125 10.999219 
" style="fill: none; stroke: #000000; stroke-width: 0.8; stroke-linejoin: miter; stroke-linecap: square"/>
   </g>
   <g id="patch_104">
    <path d="M 431.203125 139.91011 
L 431.203125 10.999219 
" style="fill: none; stroke: #000000; stroke-width: 0.8; stroke-linejoin: miter; stroke-linecap: square"/>
   </g>
   <g id="patch_105">
    <path d="M 40.603125 139.91011 
L 431.203125 139.91011 
" style="fill: none; stroke: #000000; stroke-width: 0.8; stroke-linejoin: miter; stroke-linecap: square"/>
   </g>
   <g id="patch_106">
    <path d="M 40.603125 10.999219 
L 431.203125 10.999219 
" style="fill: none; stroke: #000000; stroke-width: 0.8; stroke-linejoin: miter; stroke-linecap: square"/>
   </g>
   <g id="legend_1">
    <g id="patch_107">
     <path d="M 338.634375 134.91011 
L 424.203125 134.91011 
Q 426.203125 134.91011 426.203125 132.91011 
L 426.203125 104.55386 
Q 426.203125 102.55386 424.203125 102.55386 
L 338.634375 102.55386 
Q 336.634375 102.55386 336.634375 104.55386 
L 336.634375 132.91011 
Q 336.634375 134.91011 338.634375 134.91011 
z
" style="fill: #ffffff; opacity: 0.8; stroke: #cccccc; stroke-linejoin: miter"/>
    </g>
    <g id="line2d_14">
     <path d="M 340.634375 110.652297 
L 350.634375 110.652297 
L 360.634375 110.652297 
" style="fill: none; stroke-dasharray: 9.6,2.4,1.5,2.4; stroke-dashoffset: 0; stroke: #ff0000; stroke-width: 1.5"/>
    </g>
    <g id="text_14">
     <!-- mean -->
     <g transform="translate(368.634375 114.152297) scale(0.1 -0.1)">
      <use xlink:href="#DejaVuSans-6d"/>
      <use xlink:href="#DejaVuSans-65" transform="translate(97.412109 0)"/>
      <use xlink:href="#DejaVuSans-61" transform="translate(158.935547 0)"/>
      <use xlink:href="#DejaVuSans-6e" transform="translate(220.214844 0)"/>
     </g>
    </g>
    <g id="line2d_15">
     <path d="M 340.634375 125.330422 
L 350.634375 125.330422 
L 360.634375 125.330422 
" style="fill: none; stroke-dasharray: 9.6,2.4,1.5,2.4; stroke-dashoffset: 0; stroke: #bfbf00; stroke-width: 1.5"/>
    </g>
    <g id="text_15">
     <!-- "coin toss" -->
     <g transform="translate(368.634375 128.830422) scale(0.1 -0.1)">
      <defs>
       <path id="DejaVuSans-22" d="M 1147 4666 
L 1147 2931 
L 616 2931 
L 616 4666 
L 1147 4666 
z
M 2328 4666 
L 2328 2931 
L 1797 2931 
L 1797 4666 
L 2328 4666 
z
" transform="scale(0.015625)"/>
       <path id="DejaVuSans-6f" d="M 1959 3097 
Q 1497 3097 1228 2736 
Q 959 2375 959 1747 
Q 959 1119 1226 758 
Q 1494 397 1959 397 
Q 2419 397 2687 759 
Q 2956 1122 2956 1747 
Q 2956 2369 2687 2733 
Q 2419 3097 1959 3097 
z
M 1959 3584 
Q 2709 3584 3137 3096 
Q 3566 2609 3566 1747 
Q 3566 888 3137 398 
Q 2709 -91 1959 -91 
Q 1206 -91 779 398 
Q 353 888 353 1747 
Q 353 2609 779 3096 
Q 1206 3584 1959 3584 
z
" transform="scale(0.015625)"/>
       <path id="DejaVuSans-73" d="M 2834 3397 
L 2834 2853 
Q 2591 2978 2328 3040 
Q 2066 3103 1784 3103 
Q 1356 3103 1142 2972 
Q 928 2841 928 2578 
Q 928 2378 1081 2264 
Q 1234 2150 1697 2047 
L 1894 2003 
Q 2506 1872 2764 1633 
Q 3022 1394 3022 966 
Q 3022 478 2636 193 
Q 2250 -91 1575 -91 
Q 1294 -91 989 -36 
Q 684 19 347 128 
L 347 722 
Q 666 556 975 473 
Q 1284 391 1588 391 
Q 1994 391 2212 530 
Q 2431 669 2431 922 
Q 2431 1156 2273 1281 
Q 2116 1406 1581 1522 
L 1381 1569 
Q 847 1681 609 1914 
Q 372 2147 372 2553 
Q 372 3047 722 3315 
Q 1072 3584 1716 3584 
Q 2034 3584 2315 3537 
Q 2597 3491 2834 3397 
z
" transform="scale(0.015625)"/>
      </defs>
      <use xlink:href="#DejaVuSans-22"/>
      <use xlink:href="#DejaVuSans-63" transform="translate(45.996094 0)"/>
      <use xlink:href="#DejaVuSans-6f" transform="translate(100.976562 0)"/>
      <use xlink:href="#DejaVuSans-69" transform="translate(162.158203 0)"/>
      <use xlink:href="#DejaVuSans-6e" transform="translate(189.941406 0)"/>
      <use xlink:href="#DejaVuSans-20" transform="translate(253.320312 0)"/>
      <use xlink:href="#DejaVuSans-74" transform="translate(285.107422 0)"/>
      <use xlink:href="#DejaVuSans-6f" transform="translate(324.316406 0)"/>
      <use xlink:href="#DejaVuSans-73" transform="translate(385.498047 0)"/>
      <use xlink:href="#DejaVuSans-73" transform="translate(437.597656 0)"/>
      <use xlink:href="#DejaVuSans-22" transform="translate(489.697266 0)"/>
     </g>
    </g>
   </g>
  </g>
 </g>
 <defs>
  <clipPath id="p7dc56dc39a">
   <rect x="40.603125" y="10.999219" width="390.6" height="128.910891"/>
  </clipPath>
 </defs>
</svg>
