<?xml version="1.0" encoding="utf-8" standalone="no"?>
<!DOCTYPE svg PUBLIC "-//W3C//DTD SVG 1.1//EN"
  "http://www.w3.org/Graphics/SVG/1.1/DTD/svg11.dtd">
<svg xmlns:xlink="http://www.w3.org/1999/xlink" width="441.58125pt" height="321.95625pt" viewBox="0 0 441.58125 321.95625" xmlns="http://www.w3.org/2000/svg" version="1.1">
 <metadata>
  <rdf:RDF xmlns:dc="http://purl.org/dc/elements/1.1/" xmlns:cc="http://creativecommons.org/ns#" xmlns:rdf="http://www.w3.org/1999/02/22-rdf-syntax-ns#">
   <cc:Work>
    <dc:type rdf:resource="http://purl.org/dc/dcmitype/StillImage"/>
    <dc:date>2025-03-31T13:43:30.659142</dc:date>
    <dc:format>image/svg+xml</dc:format>
    <dc:creator>
     <cc:Agent>
      <dc:title>Matplotlib v3.10.0, https://matplotlib.org/</dc:title>
     </cc:Agent>
    </dc:creator>
   </cc:Work>
  </rdf:RDF>
 </metadata>
 <defs>
  <style type="text/css">*{stroke-linejoin: round; stroke-linecap: butt}</style>
 </defs>
 <g id="figure_1">
  <g id="patch_1">
   <path d="M 0 321.95625 
L 441.58125 321.95625 
L 441.58125 0 
L 0 0 
z
" style="fill: #ffffff"/>
  </g>
  <g id="axes_1">
   <g id="patch_2">
    <path d="M 43.78125 284.4 
L 434.38125 284.4 
L 434.38125 7.2 
L 43.78125 7.2 
z
" style="fill: #ffffff"/>
   </g>
   <g id="PathCollection_1">
    <defs>
     <path id="m4f9b2f3d43" d="M 0 3 
C 0.795609 3 1.55874 2.683901 2.12132 2.12132 
C 2.683901 1.55874 3 0.795609 3 0 
C 3 -0.795609 2.683901 -1.55874 2.12132 -2.12132 
C 1.55874 -2.683901 0.795609 -3 0 -3 
C -0.795609 -3 -1.55874 -2.683901 -2.12132 -2.12132 
C -2.683901 -1.55874 -3 -0.795609 -3 0 
C -3 0.795609 -2.683901 1.55874 -2.12132 2.12132 
C -1.55874 2.683901 -0.795609 3 0 3 
z
" style="stroke: #1f77b4"/>
    </defs>
    <g clip-path="url(#pa2df511a1b)">
     <use xlink:href="#m4f9b2f3d43" x="94.00125" y="263.076923" style="fill: #1f77b4; stroke: #1f77b4"/>
     <use xlink:href="#m4f9b2f3d43" x="94.00125" y="263.076923" style="fill: #1f77b4; stroke: #1f77b4"/>
     <use xlink:href="#m4f9b2f3d43" x="88.42125" y="263.076923" style="fill: #1f77b4; stroke: #1f77b4"/>
     <use xlink:href="#m4f9b2f3d43" x="99.58125" y="263.076923" style="fill: #1f77b4; stroke: #1f77b4"/>
     <use xlink:href="#m4f9b2f3d43" x="94.00125" y="263.076923" style="fill: #1f77b4; stroke: #1f77b4"/>
     <use xlink:href="#m4f9b2f3d43" x="110.74125" y="241.753846" style="fill: #1f77b4; stroke: #1f77b4"/>
     <use xlink:href="#m4f9b2f3d43" x="94.00125" y="252.415385" style="fill: #1f77b4; stroke: #1f77b4"/>
     <use xlink:href="#m4f9b2f3d43" x="99.58125" y="263.076923" style="fill: #1f77b4; stroke: #1f77b4"/>
     <use xlink:href="#m4f9b2f3d43" x="94.00125" y="263.076923" style="fill: #1f77b4; stroke: #1f77b4"/>
     <use xlink:href="#m4f9b2f3d43" x="99.58125" y="273.738462" style="fill: #1f77b4; stroke: #1f77b4"/>
     <use xlink:href="#m4f9b2f3d43" x="99.58125" y="263.076923" style="fill: #1f77b4; stroke: #1f77b4"/>
     <use xlink:href="#m4f9b2f3d43" x="105.16125" y="263.076923" style="fill: #1f77b4; stroke: #1f77b4"/>
     <use xlink:href="#m4f9b2f3d43" x="94.00125" y="273.738462" style="fill: #1f77b4; stroke: #1f77b4"/>
     <use xlink:href="#m4f9b2f3d43" x="77.26125" y="273.738462" style="fill: #1f77b4; stroke: #1f77b4"/>
     <use xlink:href="#m4f9b2f3d43" x="82.84125" y="263.076923" style="fill: #1f77b4; stroke: #1f77b4"/>
     <use xlink:href="#m4f9b2f3d43" x="99.58125" y="241.753846" style="fill: #1f77b4; stroke: #1f77b4"/>
     <use xlink:href="#m4f9b2f3d43" x="88.42125" y="241.753846" style="fill: #1f77b4; stroke: #1f77b4"/>
     <use xlink:href="#m4f9b2f3d43" x="94.00125" y="252.415385" style="fill: #1f77b4; stroke: #1f77b4"/>
     <use xlink:href="#m4f9b2f3d43" x="110.74125" y="252.415385" style="fill: #1f77b4; stroke: #1f77b4"/>
     <use xlink:href="#m4f9b2f3d43" x="99.58125" y="252.415385" style="fill: #1f77b4; stroke: #1f77b4"/>
     <use xlink:href="#m4f9b2f3d43" x="110.74125" y="263.076923" style="fill: #1f77b4; stroke: #1f77b4"/>
     <use xlink:href="#m4f9b2f3d43" x="99.58125" y="241.753846" style="fill: #1f77b4; stroke: #1f77b4"/>
     <use xlink:href="#m4f9b2f3d43" x="71.68125" y="263.076923" style="fill: #1f77b4; stroke: #1f77b4"/>
     <use xlink:href="#m4f9b2f3d43" x="110.74125" y="231.092308" style="fill: #1f77b4; stroke: #1f77b4"/>
     <use xlink:href="#m4f9b2f3d43" x="121.90125" y="263.076923" style="fill: #1f77b4; stroke: #1f77b4"/>
     <use xlink:href="#m4f9b2f3d43" x="105.16125" y="263.076923" style="fill: #1f77b4; stroke: #1f77b4"/>
     <use xlink:href="#m4f9b2f3d43" x="105.16125" y="241.753846" style="fill: #1f77b4; stroke: #1f77b4"/>
     <use xlink:href="#m4f9b2f3d43" x="99.58125" y="263.076923" style="fill: #1f77b4; stroke: #1f77b4"/>
     <use xlink:href="#m4f9b2f3d43" x="94.00125" y="263.076923" style="fill: #1f77b4; stroke: #1f77b4"/>
     <use xlink:href="#m4f9b2f3d43" x="105.16125" y="263.076923" style="fill: #1f77b4; stroke: #1f77b4"/>
     <use xlink:href="#m4f9b2f3d43" x="105.16125" y="263.076923" style="fill: #1f77b4; stroke: #1f77b4"/>
     <use xlink:href="#m4f9b2f3d43" x="99.58125" y="241.753846" style="fill: #1f77b4; stroke: #1f77b4"/>
     <use xlink:href="#m4f9b2f3d43" x="99.58125" y="273.738462" style="fill: #1f77b4; stroke: #1f77b4"/>
     <use xlink:href="#m4f9b2f3d43" x="94.00125" y="263.076923" style="fill: #1f77b4; stroke: #1f77b4"/>
     <use xlink:href="#m4f9b2f3d43" x="99.58125" y="263.076923" style="fill: #1f77b4; stroke: #1f77b4"/>
     <use xlink:href="#m4f9b2f3d43" x="82.84125" y="263.076923" style="fill: #1f77b4; stroke: #1f77b4"/>
     <use xlink:href="#m4f9b2f3d43" x="88.42125" y="263.076923" style="fill: #1f77b4; stroke: #1f77b4"/>
     <use xlink:href="#m4f9b2f3d43" x="94.00125" y="273.738462" style="fill: #1f77b4; stroke: #1f77b4"/>
     <use xlink:href="#m4f9b2f3d43" x="88.42125" y="263.076923" style="fill: #1f77b4; stroke: #1f77b4"/>
     <use xlink:href="#m4f9b2f3d43" x="99.58125" y="263.076923" style="fill: #1f77b4; stroke: #1f77b4"/>
     <use xlink:href="#m4f9b2f3d43" x="88.42125" y="252.415385" style="fill: #1f77b4; stroke: #1f77b4"/>
     <use xlink:href="#m4f9b2f3d43" x="88.42125" y="252.415385" style="fill: #1f77b4; stroke: #1f77b4"/>
     <use xlink:href="#m4f9b2f3d43" x="88.42125" y="263.076923" style="fill: #1f77b4; stroke: #1f77b4"/>
     <use xlink:href="#m4f9b2f3d43" x="105.16125" y="220.430769" style="fill: #1f77b4; stroke: #1f77b4"/>
     <use xlink:href="#m4f9b2f3d43" x="121.90125" y="241.753846" style="fill: #1f77b4; stroke: #1f77b4"/>
     <use xlink:href="#m4f9b2f3d43" x="94.00125" y="252.415385" style="fill: #1f77b4; stroke: #1f77b4"/>
     <use xlink:href="#m4f9b2f3d43" x="105.16125" y="263.076923" style="fill: #1f77b4; stroke: #1f77b4"/>
     <use xlink:href="#m4f9b2f3d43" x="94.00125" y="263.076923" style="fill: #1f77b4; stroke: #1f77b4"/>
     <use xlink:href="#m4f9b2f3d43" x="99.58125" y="263.076923" style="fill: #1f77b4; stroke: #1f77b4"/>
     <use xlink:href="#m4f9b2f3d43" x="94.00125" y="263.076923" style="fill: #1f77b4; stroke: #1f77b4"/>
    </g>
   </g>
   <g id="PathCollection_2">
    <defs>
     <path id="maf0ef9bb1e" d="M 0 3 
C 0.795609 3 1.55874 2.683901 2.12132 2.12132 
C 2.683901 1.55874 3 0.795609 3 0 
C 3 -0.795609 2.683901 -1.55874 2.12132 -2.12132 
C 1.55874 -2.683901 0.795609 -3 0 -3 
C -0.795609 -3 -1.55874 -2.683901 -2.12132 -2.12132 
C -2.683901 -1.55874 -3 -0.795609 -3 0 
C -3 0.795609 -2.683901 1.55874 -2.12132 2.12132 
C -1.55874 2.683901 -0.795609 3 0 3 
z
" style="stroke: #ff7f0e"/>
    </defs>
    <g clip-path="url(#pa2df511a1b)">
     <use xlink:href="#maf0ef9bb1e" x="278.14125" y="135.138462" style="fill: #ff7f0e; stroke: #ff7f0e"/>
     <use xlink:href="#maf0ef9bb1e" x="266.98125" y="124.476923" style="fill: #ff7f0e; stroke: #ff7f0e"/>
     <use xlink:href="#maf0ef9bb1e" x="289.30125" y="124.476923" style="fill: #ff7f0e; stroke: #ff7f0e"/>
     <use xlink:href="#maf0ef9bb1e" x="239.08125" y="145.8" style="fill: #ff7f0e; stroke: #ff7f0e"/>
     <use xlink:href="#maf0ef9bb1e" x="272.56125" y="124.476923" style="fill: #ff7f0e; stroke: #ff7f0e"/>
     <use xlink:href="#maf0ef9bb1e" x="266.98125" y="145.8" style="fill: #ff7f0e; stroke: #ff7f0e"/>
     <use xlink:href="#maf0ef9bb1e" x="278.14125" y="113.815385" style="fill: #ff7f0e; stroke: #ff7f0e"/>
     <use xlink:href="#maf0ef9bb1e" x="200.02125" y="177.784615" style="fill: #ff7f0e; stroke: #ff7f0e"/>
     <use xlink:href="#maf0ef9bb1e" x="272.56125" y="145.8" style="fill: #ff7f0e; stroke: #ff7f0e"/>
     <use xlink:href="#maf0ef9bb1e" x="233.50125" y="135.138462" style="fill: #ff7f0e; stroke: #ff7f0e"/>
     <use xlink:href="#maf0ef9bb1e" x="211.18125" y="177.784615" style="fill: #ff7f0e; stroke: #ff7f0e"/>
     <use xlink:href="#maf0ef9bb1e" x="250.24125" y="124.476923" style="fill: #ff7f0e; stroke: #ff7f0e"/>
     <use xlink:href="#maf0ef9bb1e" x="239.08125" y="177.784615" style="fill: #ff7f0e; stroke: #ff7f0e"/>
     <use xlink:href="#maf0ef9bb1e" x="278.14125" y="135.138462" style="fill: #ff7f0e; stroke: #ff7f0e"/>
     <use xlink:href="#maf0ef9bb1e" x="216.76125" y="145.8" style="fill: #ff7f0e; stroke: #ff7f0e"/>
     <use xlink:href="#maf0ef9bb1e" x="261.40125" y="135.138462" style="fill: #ff7f0e; stroke: #ff7f0e"/>
     <use xlink:href="#maf0ef9bb1e" x="266.98125" y="124.476923" style="fill: #ff7f0e; stroke: #ff7f0e"/>
     <use xlink:href="#maf0ef9bb1e" x="244.66125" y="177.784615" style="fill: #ff7f0e; stroke: #ff7f0e"/>
     <use xlink:href="#maf0ef9bb1e" x="266.98125" y="124.476923" style="fill: #ff7f0e; stroke: #ff7f0e"/>
     <use xlink:href="#maf0ef9bb1e" x="233.50125" y="167.123077" style="fill: #ff7f0e; stroke: #ff7f0e"/>
     <use xlink:href="#maf0ef9bb1e" x="283.72125" y="92.492308" style="fill: #ff7f0e; stroke: #ff7f0e"/>
     <use xlink:href="#maf0ef9bb1e" x="239.08125" y="145.8" style="fill: #ff7f0e; stroke: #ff7f0e"/>
     <use xlink:href="#maf0ef9bb1e" x="289.30125" y="124.476923" style="fill: #ff7f0e; stroke: #ff7f0e"/>
     <use xlink:href="#maf0ef9bb1e" x="278.14125" y="156.461538" style="fill: #ff7f0e; stroke: #ff7f0e"/>
     <use xlink:href="#maf0ef9bb1e" x="255.82125" y="145.8" style="fill: #ff7f0e; stroke: #ff7f0e"/>
     <use xlink:href="#maf0ef9bb1e" x="261.40125" y="135.138462" style="fill: #ff7f0e; stroke: #ff7f0e"/>
     <use xlink:href="#maf0ef9bb1e" x="283.72125" y="135.138462" style="fill: #ff7f0e; stroke: #ff7f0e"/>
     <use xlink:href="#maf0ef9bb1e" x="294.88125" y="103.153846" style="fill: #ff7f0e; stroke: #ff7f0e"/>
     <use xlink:href="#maf0ef9bb1e" x="266.98125" y="124.476923" style="fill: #ff7f0e; stroke: #ff7f0e"/>
     <use xlink:href="#maf0ef9bb1e" x="211.18125" y="177.784615" style="fill: #ff7f0e; stroke: #ff7f0e"/>
     <use xlink:href="#maf0ef9bb1e" x="227.92125" y="167.123077" style="fill: #ff7f0e; stroke: #ff7f0e"/>
     <use xlink:href="#maf0ef9bb1e" x="222.34125" y="177.784615" style="fill: #ff7f0e; stroke: #ff7f0e"/>
     <use xlink:href="#maf0ef9bb1e" x="233.50125" y="156.461538" style="fill: #ff7f0e; stroke: #ff7f0e"/>
     <use xlink:href="#maf0ef9bb1e" x="300.46125" y="113.815385" style="fill: #ff7f0e; stroke: #ff7f0e"/>
     <use xlink:href="#maf0ef9bb1e" x="266.98125" y="124.476923" style="fill: #ff7f0e; stroke: #ff7f0e"/>
     <use xlink:href="#maf0ef9bb1e" x="266.98125" y="113.815385" style="fill: #ff7f0e; stroke: #ff7f0e"/>
     <use xlink:href="#maf0ef9bb1e" x="278.14125" y="124.476923" style="fill: #ff7f0e; stroke: #ff7f0e"/>
     <use xlink:href="#maf0ef9bb1e" x="261.40125" y="145.8" style="fill: #ff7f0e; stroke: #ff7f0e"/>
     <use xlink:href="#maf0ef9bb1e" x="244.66125" y="145.8" style="fill: #ff7f0e; stroke: #ff7f0e"/>
     <use xlink:href="#maf0ef9bb1e" x="239.08125" y="145.8" style="fill: #ff7f0e; stroke: #ff7f0e"/>
     <use xlink:href="#maf0ef9bb1e" x="261.40125" y="156.461538" style="fill: #ff7f0e; stroke: #ff7f0e"/>
     <use xlink:href="#maf0ef9bb1e" x="272.56125" y="135.138462" style="fill: #ff7f0e; stroke: #ff7f0e"/>
     <use xlink:href="#maf0ef9bb1e" x="239.08125" y="156.461538" style="fill: #ff7f0e; stroke: #ff7f0e"/>
     <use xlink:href="#maf0ef9bb1e" x="200.02125" y="177.784615" style="fill: #ff7f0e; stroke: #ff7f0e"/>
     <use xlink:href="#maf0ef9bb1e" x="250.24125" y="145.8" style="fill: #ff7f0e; stroke: #ff7f0e"/>
     <use xlink:href="#maf0ef9bb1e" x="250.24125" y="156.461538" style="fill: #ff7f0e; stroke: #ff7f0e"/>
     <use xlink:href="#maf0ef9bb1e" x="250.24125" y="145.8" style="fill: #ff7f0e; stroke: #ff7f0e"/>
     <use xlink:href="#maf0ef9bb1e" x="255.82125" y="145.8" style="fill: #ff7f0e; stroke: #ff7f0e"/>
     <use xlink:href="#maf0ef9bb1e" x="183.28125" y="167.123077" style="fill: #ff7f0e; stroke: #ff7f0e"/>
     <use xlink:href="#maf0ef9bb1e" x="244.66125" y="145.8" style="fill: #ff7f0e; stroke: #ff7f0e"/>
    </g>
   </g>
   <g id="PathCollection_3">
    <defs>
     <path id="m963cc0c1a0" d="M 0 3 
C 0.795609 3 1.55874 2.683901 2.12132 2.12132 
C 2.683901 1.55874 3 0.795609 3 0 
C 3 -0.795609 2.683901 -1.55874 2.12132 -2.12132 
C 1.55874 -2.683901 0.795609 -3 0 -3 
C -0.795609 -3 -1.55874 -2.683901 -2.12132 -2.12132 
C -2.683901 -1.55874 -3 -0.795609 -3 0 
C -3 0.795609 -2.683901 1.55874 -2.12132 2.12132 
C -1.55874 2.683901 -0.795609 3 0 3 
z
" style="stroke: #2ca02c"/>
    </defs>
    <g clip-path="url(#pa2df511a1b)">
     <use xlink:href="#m963cc0c1a0" x="350.68125" y="17.861538" style="fill: #2ca02c; stroke: #2ca02c"/>
     <use xlink:href="#m963cc0c1a0" x="300.46125" y="81.830769" style="fill: #2ca02c; stroke: #2ca02c"/>
     <use xlink:href="#m963cc0c1a0" x="345.10125" y="60.507692" style="fill: #2ca02c; stroke: #2ca02c"/>
     <use xlink:href="#m963cc0c1a0" x="328.36125" y="92.492308" style="fill: #2ca02c; stroke: #2ca02c"/>
     <use xlink:href="#m963cc0c1a0" x="339.52125" y="49.846154" style="fill: #2ca02c; stroke: #2ca02c"/>
     <use xlink:href="#m963cc0c1a0" x="384.16125" y="60.507692" style="fill: #2ca02c; stroke: #2ca02c"/>
     <use xlink:href="#m963cc0c1a0" x="266.98125" y="103.153846" style="fill: #2ca02c; stroke: #2ca02c"/>
     <use xlink:href="#m963cc0c1a0" x="367.42125" y="92.492308" style="fill: #2ca02c; stroke: #2ca02c"/>
     <use xlink:href="#m963cc0c1a0" x="339.52125" y="92.492308" style="fill: #2ca02c; stroke: #2ca02c"/>
     <use xlink:href="#m963cc0c1a0" x="356.26125" y="17.861538" style="fill: #2ca02c; stroke: #2ca02c"/>
     <use xlink:href="#m963cc0c1a0" x="300.46125" y="71.169231" style="fill: #2ca02c; stroke: #2ca02c"/>
     <use xlink:href="#m963cc0c1a0" x="311.62125" y="81.830769" style="fill: #2ca02c; stroke: #2ca02c"/>
     <use xlink:href="#m963cc0c1a0" x="322.78125" y="60.507692" style="fill: #2ca02c; stroke: #2ca02c"/>
     <use xlink:href="#m963cc0c1a0" x="294.88125" y="71.169231" style="fill: #2ca02c; stroke: #2ca02c"/>
     <use xlink:href="#m963cc0c1a0" x="300.46125" y="28.523077" style="fill: #2ca02c; stroke: #2ca02c"/>
     <use xlink:href="#m963cc0c1a0" x="311.62125" y="39.184615" style="fill: #2ca02c; stroke: #2ca02c"/>
     <use xlink:href="#m963cc0c1a0" x="322.78125" y="92.492308" style="fill: #2ca02c; stroke: #2ca02c"/>
     <use xlink:href="#m963cc0c1a0" x="389.74125" y="49.846154" style="fill: #2ca02c; stroke: #2ca02c"/>
     <use xlink:href="#m963cc0c1a0" x="400.90125" y="39.184615" style="fill: #2ca02c; stroke: #2ca02c"/>
     <use xlink:href="#m963cc0c1a0" x="294.88125" y="124.476923" style="fill: #2ca02c; stroke: #2ca02c"/>
     <use xlink:href="#m963cc0c1a0" x="333.94125" y="39.184615" style="fill: #2ca02c; stroke: #2ca02c"/>
     <use xlink:href="#m963cc0c1a0" x="289.30125" y="71.169231" style="fill: #2ca02c; stroke: #2ca02c"/>
     <use xlink:href="#m963cc0c1a0" x="389.74125" y="71.169231" style="fill: #2ca02c; stroke: #2ca02c"/>
     <use xlink:href="#m963cc0c1a0" x="289.30125" y="92.492308" style="fill: #2ca02c; stroke: #2ca02c"/>
     <use xlink:href="#m963cc0c1a0" x="333.94125" y="60.507692" style="fill: #2ca02c; stroke: #2ca02c"/>
     <use xlink:href="#m963cc0c1a0" x="350.68125" y="92.492308" style="fill: #2ca02c; stroke: #2ca02c"/>
     <use xlink:href="#m963cc0c1a0" x="283.72125" y="92.492308" style="fill: #2ca02c; stroke: #2ca02c"/>
     <use xlink:href="#m963cc0c1a0" x="289.30125" y="92.492308" style="fill: #2ca02c; stroke: #2ca02c"/>
     <use xlink:href="#m963cc0c1a0" x="328.36125" y="60.507692" style="fill: #2ca02c; stroke: #2ca02c"/>
     <use xlink:href="#m963cc0c1a0" x="339.52125" y="113.815385" style="fill: #2ca02c; stroke: #2ca02c"/>
     <use xlink:href="#m963cc0c1a0" x="356.26125" y="81.830769" style="fill: #2ca02c; stroke: #2ca02c"/>
     <use xlink:href="#m963cc0c1a0" x="373.00125" y="71.169231" style="fill: #2ca02c; stroke: #2ca02c"/>
     <use xlink:href="#m963cc0c1a0" x="328.36125" y="49.846154" style="fill: #2ca02c; stroke: #2ca02c"/>
     <use xlink:href="#m963cc0c1a0" x="300.46125" y="124.476923" style="fill: #2ca02c; stroke: #2ca02c"/>
     <use xlink:href="#m963cc0c1a0" x="328.36125" y="135.138462" style="fill: #2ca02c; stroke: #2ca02c"/>
     <use xlink:href="#m963cc0c1a0" x="356.26125" y="39.184615" style="fill: #2ca02c; stroke: #2ca02c"/>
     <use xlink:href="#m963cc0c1a0" x="328.36125" y="28.523077" style="fill: #2ca02c; stroke: #2ca02c"/>
     <use xlink:href="#m963cc0c1a0" x="322.78125" y="92.492308" style="fill: #2ca02c; stroke: #2ca02c"/>
     <use xlink:href="#m963cc0c1a0" x="283.72125" y="92.492308" style="fill: #2ca02c; stroke: #2ca02c"/>
     <use xlink:href="#m963cc0c1a0" x="317.20125" y="60.507692" style="fill: #2ca02c; stroke: #2ca02c"/>
     <use xlink:href="#m963cc0c1a0" x="328.36125" y="28.523077" style="fill: #2ca02c; stroke: #2ca02c"/>
     <use xlink:href="#m963cc0c1a0" x="300.46125" y="39.184615" style="fill: #2ca02c; stroke: #2ca02c"/>
     <use xlink:href="#m963cc0c1a0" x="300.46125" y="81.830769" style="fill: #2ca02c; stroke: #2ca02c"/>
     <use xlink:href="#m963cc0c1a0" x="345.10125" y="39.184615" style="fill: #2ca02c; stroke: #2ca02c"/>
     <use xlink:href="#m963cc0c1a0" x="333.94125" y="17.861538" style="fill: #2ca02c; stroke: #2ca02c"/>
     <use xlink:href="#m963cc0c1a0" x="306.04125" y="39.184615" style="fill: #2ca02c; stroke: #2ca02c"/>
     <use xlink:href="#m963cc0c1a0" x="294.88125" y="81.830769" style="fill: #2ca02c; stroke: #2ca02c"/>
     <use xlink:href="#m963cc0c1a0" x="306.04125" y="71.169231" style="fill: #2ca02c; stroke: #2ca02c"/>
     <use xlink:href="#m963cc0c1a0" x="317.20125" y="39.184615" style="fill: #2ca02c; stroke: #2ca02c"/>
     <use xlink:href="#m963cc0c1a0" x="300.46125" y="92.492308" style="fill: #2ca02c; stroke: #2ca02c"/>
    </g>
   </g>
   <g id="matplotlib.axis_1">
    <g id="xtick_1">
     <g id="line2d_1">
      <defs>
       <path id="mbc1e5ab089" d="M 0 0 
L 0 3.5 
" style="stroke: #000000; stroke-width: 0.8"/>
      </defs>
      <g>
       <use xlink:href="#mbc1e5ab089" x="71.68125" y="284.4" style="stroke: #000000; stroke-width: 0.8"/>
      </g>
     </g>
     <g id="text_1">
      <!-- 1 -->
      <g transform="translate(68.5 298.998438) scale(0.1 -0.1)">
       <defs>
        <path id="DejaVuSans-31" d="M 794 531 
L 1825 531 
L 1825 4091 
L 703 3866 
L 703 4441 
L 1819 4666 
L 2450 4666 
L 2450 531 
L 3481 531 
L 3481 0 
L 794 0 
L 794 531 
z
" transform="scale(0.015625)"/>
       </defs>
       <use xlink:href="#DejaVuSans-31"/>
      </g>
     </g>
    </g>
    <g id="xtick_2">
     <g id="line2d_2">
      <g>
       <use xlink:href="#mbc1e5ab089" x="127.48125" y="284.4" style="stroke: #000000; stroke-width: 0.8"/>
      </g>
     </g>
     <g id="text_2">
      <!-- 2 -->
      <g transform="translate(124.3 298.998438) scale(0.1 -0.1)">
       <defs>
        <path id="DejaVuSans-32" d="M 1228 531 
L 3431 531 
L 3431 0 
L 469 0 
L 469 531 
Q 828 903 1448 1529 
Q 2069 2156 2228 2338 
Q 2531 2678 2651 2914 
Q 2772 3150 2772 3378 
Q 2772 3750 2511 3984 
Q 2250 4219 1831 4219 
Q 1534 4219 1204 4116 
Q 875 4013 500 3803 
L 500 4441 
Q 881 4594 1212 4672 
Q 1544 4750 1819 4750 
Q 2544 4750 2975 4387 
Q 3406 4025 3406 3419 
Q 3406 3131 3298 2873 
Q 3191 2616 2906 2266 
Q 2828 2175 2409 1742 
Q 1991 1309 1228 531 
z
" transform="scale(0.015625)"/>
       </defs>
       <use xlink:href="#DejaVuSans-32"/>
      </g>
     </g>
    </g>
    <g id="xtick_3">
     <g id="line2d_3">
      <g>
       <use xlink:href="#mbc1e5ab089" x="183.28125" y="284.4" style="stroke: #000000; stroke-width: 0.8"/>
      </g>
     </g>
     <g id="text_3">
      <!-- 3 -->
      <g transform="translate(180.1 298.998438) scale(0.1 -0.1)">
       <defs>
        <path id="DejaVuSans-33" d="M 2597 2516 
Q 3050 2419 3304 2112 
Q 3559 1806 3559 1356 
Q 3559 666 3084 287 
Q 2609 -91 1734 -91 
Q 1441 -91 1130 -33 
Q 819 25 488 141 
L 488 750 
Q 750 597 1062 519 
Q 1375 441 1716 441 
Q 2309 441 2620 675 
Q 2931 909 2931 1356 
Q 2931 1769 2642 2001 
Q 2353 2234 1838 2234 
L 1294 2234 
L 1294 2753 
L 1863 2753 
Q 2328 2753 2575 2939 
Q 2822 3125 2822 3475 
Q 2822 3834 2567 4026 
Q 2313 4219 1838 4219 
Q 1578 4219 1281 4162 
Q 984 4106 628 3988 
L 628 4550 
Q 988 4650 1302 4700 
Q 1616 4750 1894 4750 
Q 2613 4750 3031 4423 
Q 3450 4097 3450 3541 
Q 3450 3153 3228 2886 
Q 3006 2619 2597 2516 
z
" transform="scale(0.015625)"/>
       </defs>
       <use xlink:href="#DejaVuSans-33"/>
      </g>
     </g>
    </g>
    <g id="xtick_4">
     <g id="line2d_4">
      <g>
       <use xlink:href="#mbc1e5ab089" x="239.08125" y="284.4" style="stroke: #000000; stroke-width: 0.8"/>
      </g>
     </g>
     <g id="text_4">
      <!-- 4 -->
      <g transform="translate(235.9 298.998438) scale(0.1 -0.1)">
       <defs>
        <path id="DejaVuSans-34" d="M 2419 4116 
L 825 1625 
L 2419 1625 
L 2419 4116 
z
M 2253 4666 
L 3047 4666 
L 3047 1625 
L 3713 1625 
L 3713 1100 
L 3047 1100 
L 3047 0 
L 2419 0 
L 2419 1100 
L 313 1100 
L 313 1709 
L 2253 4666 
z
" transform="scale(0.015625)"/>
       </defs>
       <use xlink:href="#DejaVuSans-34"/>
      </g>
     </g>
    </g>
    <g id="xtick_5">
     <g id="line2d_5">
      <g>
       <use xlink:href="#mbc1e5ab089" x="294.88125" y="284.4" style="stroke: #000000; stroke-width: 0.8"/>
      </g>
     </g>
     <g id="text_5">
      <!-- 5 -->
      <g transform="translate(291.7 298.998438) scale(0.1 -0.1)">
       <defs>
        <path id="DejaVuSans-35" d="M 691 4666 
L 3169 4666 
L 3169 4134 
L 1269 4134 
L 1269 2991 
Q 1406 3038 1543 3061 
Q 1681 3084 1819 3084 
Q 2600 3084 3056 2656 
Q 3513 2228 3513 1497 
Q 3513 744 3044 326 
Q 2575 -91 1722 -91 
Q 1428 -91 1123 -41 
Q 819 9 494 109 
L 494 744 
Q 775 591 1075 516 
Q 1375 441 1709 441 
Q 2250 441 2565 725 
Q 2881 1009 2881 1497 
Q 2881 1984 2565 2268 
Q 2250 2553 1709 2553 
Q 1456 2553 1204 2497 
Q 953 2441 691 2322 
L 691 4666 
z
" transform="scale(0.015625)"/>
       </defs>
       <use xlink:href="#DejaVuSans-35"/>
      </g>
     </g>
    </g>
    <g id="xtick_6">
     <g id="line2d_6">
      <g>
       <use xlink:href="#mbc1e5ab089" x="350.68125" y="284.4" style="stroke: #000000; stroke-width: 0.8"/>
      </g>
     </g>
     <g id="text_6">
      <!-- 6 -->
      <g transform="translate(347.5 298.998438) scale(0.1 -0.1)">
       <defs>
        <path id="DejaVuSans-36" d="M 2113 2584 
Q 1688 2584 1439 2293 
Q 1191 2003 1191 1497 
Q 1191 994 1439 701 
Q 1688 409 2113 409 
Q 2538 409 2786 701 
Q 3034 994 3034 1497 
Q 3034 2003 2786 2293 
Q 2538 2584 2113 2584 
z
M 3366 4563 
L 3366 3988 
Q 3128 4100 2886 4159 
Q 2644 4219 2406 4219 
Q 1781 4219 1451 3797 
Q 1122 3375 1075 2522 
Q 1259 2794 1537 2939 
Q 1816 3084 2150 3084 
Q 2853 3084 3261 2657 
Q 3669 2231 3669 1497 
Q 3669 778 3244 343 
Q 2819 -91 2113 -91 
Q 1303 -91 875 529 
Q 447 1150 447 2328 
Q 447 3434 972 4092 
Q 1497 4750 2381 4750 
Q 2619 4750 2861 4703 
Q 3103 4656 3366 4563 
z
" transform="scale(0.015625)"/>
       </defs>
       <use xlink:href="#DejaVuSans-36"/>
      </g>
     </g>
    </g>
    <g id="xtick_7">
     <g id="line2d_7">
      <g>
       <use xlink:href="#mbc1e5ab089" x="406.48125" y="284.4" style="stroke: #000000; stroke-width: 0.8"/>
      </g>
     </g>
     <g id="text_7">
      <!-- 7 -->
      <g transform="translate(403.3 298.998438) scale(0.1 -0.1)">
       <defs>
        <path id="DejaVuSans-37" d="M 525 4666 
L 3525 4666 
L 3525 4397 
L 1831 0 
L 1172 0 
L 2766 4134 
L 525 4134 
L 525 4666 
z
" transform="scale(0.015625)"/>
       </defs>
       <use xlink:href="#DejaVuSans-37"/>
      </g>
     </g>
    </g>
    <g id="text_8">
     <!-- petal length (cm) -->
     <g transform="translate(195.780469 312.676562) scale(0.1 -0.1)">
      <defs>
       <path id="DejaVuSans-70" d="M 1159 525 
L 1159 -1331 
L 581 -1331 
L 581 3500 
L 1159 3500 
L 1159 2969 
Q 1341 3281 1617 3432 
Q 1894 3584 2278 3584 
Q 2916 3584 3314 3078 
Q 3713 2572 3713 1747 
Q 3713 922 3314 415 
Q 2916 -91 2278 -91 
Q 1894 -91 1617 61 
Q 1341 213 1159 525 
z
M 3116 1747 
Q 3116 2381 2855 2742 
Q 2594 3103 2138 3103 
Q 1681 3103 1420 2742 
Q 1159 2381 1159 1747 
Q 1159 1113 1420 752 
Q 1681 391 2138 391 
Q 2594 391 2855 752 
Q 3116 1113 3116 1747 
z
" transform="scale(0.015625)"/>
       <path id="DejaVuSans-65" d="M 3597 1894 
L 3597 1613 
L 953 1613 
Q 991 1019 1311 708 
Q 1631 397 2203 397 
Q 2534 397 2845 478 
Q 3156 559 3463 722 
L 3463 178 
Q 3153 47 2828 -22 
Q 2503 -91 2169 -91 
Q 1331 -91 842 396 
Q 353 884 353 1716 
Q 353 2575 817 3079 
Q 1281 3584 2069 3584 
Q 2775 3584 3186 3129 
Q 3597 2675 3597 1894 
z
M 3022 2063 
Q 3016 2534 2758 2815 
Q 2500 3097 2075 3097 
Q 1594 3097 1305 2825 
Q 1016 2553 972 2059 
L 3022 2063 
z
" transform="scale(0.015625)"/>
       <path id="DejaVuSans-74" d="M 1172 4494 
L 1172 3500 
L 2356 3500 
L 2356 3053 
L 1172 3053 
L 1172 1153 
Q 1172 725 1289 603 
Q 1406 481 1766 481 
L 2356 481 
L 2356 0 
L 1766 0 
Q 1100 0 847 248 
Q 594 497 594 1153 
L 594 3053 
L 172 3053 
L 172 3500 
L 594 3500 
L 594 4494 
L 1172 4494 
z
" transform="scale(0.015625)"/>
       <path id="DejaVuSans-61" d="M 2194 1759 
Q 1497 1759 1228 1600 
Q 959 1441 959 1056 
Q 959 750 1161 570 
Q 1363 391 1709 391 
Q 2188 391 2477 730 
Q 2766 1069 2766 1631 
L 2766 1759 
L 2194 1759 
z
M 3341 1997 
L 3341 0 
L 2766 0 
L 2766 531 
Q 2569 213 2275 61 
Q 1981 -91 1556 -91 
Q 1019 -91 701 211 
Q 384 513 384 1019 
Q 384 1609 779 1909 
Q 1175 2209 1959 2209 
L 2766 2209 
L 2766 2266 
Q 2766 2663 2505 2880 
Q 2244 3097 1772 3097 
Q 1472 3097 1187 3025 
Q 903 2953 641 2809 
L 641 3341 
Q 956 3463 1253 3523 
Q 1550 3584 1831 3584 
Q 2591 3584 2966 3190 
Q 3341 2797 3341 1997 
z
" transform="scale(0.015625)"/>
       <path id="DejaVuSans-6c" d="M 603 4863 
L 1178 4863 
L 1178 0 
L 603 0 
L 603 4863 
z
" transform="scale(0.015625)"/>
       <path id="DejaVuSans-20" transform="scale(0.015625)"/>
       <path id="DejaVuSans-6e" d="M 3513 2113 
L 3513 0 
L 2938 0 
L 2938 2094 
Q 2938 2591 2744 2837 
Q 2550 3084 2163 3084 
Q 1697 3084 1428 2787 
Q 1159 2491 1159 1978 
L 1159 0 
L 581 0 
L 581 3500 
L 1159 3500 
L 1159 2956 
Q 1366 3272 1645 3428 
Q 1925 3584 2291 3584 
Q 2894 3584 3203 3211 
Q 3513 2838 3513 2113 
z
" transform="scale(0.015625)"/>
       <path id="DejaVuSans-67" d="M 2906 1791 
Q 2906 2416 2648 2759 
Q 2391 3103 1925 3103 
Q 1463 3103 1205 2759 
Q 947 2416 947 1791 
Q 947 1169 1205 825 
Q 1463 481 1925 481 
Q 2391 481 2648 825 
Q 2906 1169 2906 1791 
z
M 3481 434 
Q 3481 -459 3084 -895 
Q 2688 -1331 1869 -1331 
Q 1566 -1331 1297 -1286 
Q 1028 -1241 775 -1147 
L 775 -588 
Q 1028 -725 1275 -790 
Q 1522 -856 1778 -856 
Q 2344 -856 2625 -561 
Q 2906 -266 2906 331 
L 2906 616 
Q 2728 306 2450 153 
Q 2172 0 1784 0 
Q 1141 0 747 490 
Q 353 981 353 1791 
Q 353 2603 747 3093 
Q 1141 3584 1784 3584 
Q 2172 3584 2450 3431 
Q 2728 3278 2906 2969 
L 2906 3500 
L 3481 3500 
L 3481 434 
z
" transform="scale(0.015625)"/>
       <path id="DejaVuSans-68" d="M 3513 2113 
L 3513 0 
L 2938 0 
L 2938 2094 
Q 2938 2591 2744 2837 
Q 2550 3084 2163 3084 
Q 1697 3084 1428 2787 
Q 1159 2491 1159 1978 
L 1159 0 
L 581 0 
L 581 4863 
L 1159 4863 
L 1159 2956 
Q 1366 3272 1645 3428 
Q 1925 3584 2291 3584 
Q 2894 3584 3203 3211 
Q 3513 2838 3513 2113 
z
" transform="scale(0.015625)"/>
       <path id="DejaVuSans-28" d="M 1984 4856 
Q 1566 4138 1362 3434 
Q 1159 2731 1159 2009 
Q 1159 1288 1364 580 
Q 1569 -128 1984 -844 
L 1484 -844 
Q 1016 -109 783 600 
Q 550 1309 550 2009 
Q 550 2706 781 3412 
Q 1013 4119 1484 4856 
L 1984 4856 
z
" transform="scale(0.015625)"/>
       <path id="DejaVuSans-63" d="M 3122 3366 
L 3122 2828 
Q 2878 2963 2633 3030 
Q 2388 3097 2138 3097 
Q 1578 3097 1268 2742 
Q 959 2388 959 1747 
Q 959 1106 1268 751 
Q 1578 397 2138 397 
Q 2388 397 2633 464 
Q 2878 531 3122 666 
L 3122 134 
Q 2881 22 2623 -34 
Q 2366 -91 2075 -91 
Q 1284 -91 818 406 
Q 353 903 353 1747 
Q 353 2603 823 3093 
Q 1294 3584 2113 3584 
Q 2378 3584 2631 3529 
Q 2884 3475 3122 3366 
z
" transform="scale(0.015625)"/>
       <path id="DejaVuSans-6d" d="M 3328 2828 
Q 3544 3216 3844 3400 
Q 4144 3584 4550 3584 
Q 5097 3584 5394 3201 
Q 5691 2819 5691 2113 
L 5691 0 
L 5113 0 
L 5113 2094 
Q 5113 2597 4934 2840 
Q 4756 3084 4391 3084 
Q 3944 3084 3684 2787 
Q 3425 2491 3425 1978 
L 3425 0 
L 2847 0 
L 2847 2094 
Q 2847 2600 2669 2842 
Q 2491 3084 2119 3084 
Q 1678 3084 1418 2786 
Q 1159 2488 1159 1978 
L 1159 0 
L 581 0 
L 581 3500 
L 1159 3500 
L 1159 2956 
Q 1356 3278 1631 3431 
Q 1906 3584 2284 3584 
Q 2666 3584 2933 3390 
Q 3200 3197 3328 2828 
z
" transform="scale(0.015625)"/>
       <path id="DejaVuSans-29" d="M 513 4856 
L 1013 4856 
Q 1481 4119 1714 3412 
Q 1947 2706 1947 2009 
Q 1947 1309 1714 600 
Q 1481 -109 1013 -844 
L 513 -844 
Q 928 -128 1133 580 
Q 1338 1288 1338 2009 
Q 1338 2731 1133 3434 
Q 928 4138 513 4856 
z
" transform="scale(0.015625)"/>
      </defs>
      <use xlink:href="#DejaVuSans-70"/>
      <use xlink:href="#DejaVuSans-65" transform="translate(63.476562 0)"/>
      <use xlink:href="#DejaVuSans-74" transform="translate(125 0)"/>
      <use xlink:href="#DejaVuSans-61" transform="translate(164.208984 0)"/>
      <use xlink:href="#DejaVuSans-6c" transform="translate(225.488281 0)"/>
      <use xlink:href="#DejaVuSans-20" transform="translate(253.271484 0)"/>
      <use xlink:href="#DejaVuSans-6c" transform="translate(285.058594 0)"/>
      <use xlink:href="#DejaVuSans-65" transform="translate(312.841797 0)"/>
      <use xlink:href="#DejaVuSans-6e" transform="translate(374.365234 0)"/>
      <use xlink:href="#DejaVuSans-67" transform="translate(437.744141 0)"/>
      <use xlink:href="#DejaVuSans-74" transform="translate(501.220703 0)"/>
      <use xlink:href="#DejaVuSans-68" transform="translate(540.429688 0)"/>
      <use xlink:href="#DejaVuSans-20" transform="translate(603.808594 0)"/>
      <use xlink:href="#DejaVuSans-28" transform="translate(635.595703 0)"/>
      <use xlink:href="#DejaVuSans-63" transform="translate(674.609375 0)"/>
      <use xlink:href="#DejaVuSans-6d" transform="translate(729.589844 0)"/>
      <use xlink:href="#DejaVuSans-29" transform="translate(827.001953 0)"/>
     </g>
    </g>
   </g>
   <g id="matplotlib.axis_2">
    <g id="ytick_1">
     <g id="line2d_8">
      <defs>
       <path id="m93c324b66f" d="M 0 0 
L -3.5 0 
" style="stroke: #000000; stroke-width: 0.8"/>
      </defs>
      <g>
       <use xlink:href="#m93c324b66f" x="43.78125" y="284.4" style="stroke: #000000; stroke-width: 0.8"/>
      </g>
     </g>
     <g id="text_9">
      <!-- 0.0 -->
      <g transform="translate(20.878125 288.199219) scale(0.1 -0.1)">
       <defs>
        <path id="DejaVuSans-30" d="M 2034 4250 
Q 1547 4250 1301 3770 
Q 1056 3291 1056 2328 
Q 1056 1369 1301 889 
Q 1547 409 2034 409 
Q 2525 409 2770 889 
Q 3016 1369 3016 2328 
Q 3016 3291 2770 3770 
Q 2525 4250 2034 4250 
z
M 2034 4750 
Q 2819 4750 3233 4129 
Q 3647 3509 3647 2328 
Q 3647 1150 3233 529 
Q 2819 -91 2034 -91 
Q 1250 -91 836 529 
Q 422 1150 422 2328 
Q 422 3509 836 4129 
Q 1250 4750 2034 4750 
z
" transform="scale(0.015625)"/>
        <path id="DejaVuSans-2e" d="M 684 794 
L 1344 794 
L 1344 0 
L 684 0 
L 684 794 
z
" transform="scale(0.015625)"/>
       </defs>
       <use xlink:href="#DejaVuSans-30"/>
       <use xlink:href="#DejaVuSans-2e" transform="translate(63.623047 0)"/>
       <use xlink:href="#DejaVuSans-30" transform="translate(95.410156 0)"/>
      </g>
     </g>
    </g>
    <g id="ytick_2">
     <g id="line2d_9">
      <g>
       <use xlink:href="#m93c324b66f" x="43.78125" y="231.092308" style="stroke: #000000; stroke-width: 0.8"/>
      </g>
     </g>
     <g id="text_10">
      <!-- 0.5 -->
      <g transform="translate(20.878125 234.891526) scale(0.1 -0.1)">
       <use xlink:href="#DejaVuSans-30"/>
       <use xlink:href="#DejaVuSans-2e" transform="translate(63.623047 0)"/>
       <use xlink:href="#DejaVuSans-35" transform="translate(95.410156 0)"/>
      </g>
     </g>
    </g>
    <g id="ytick_3">
     <g id="line2d_10">
      <g>
       <use xlink:href="#m93c324b66f" x="43.78125" y="177.784615" style="stroke: #000000; stroke-width: 0.8"/>
      </g>
     </g>
     <g id="text_11">
      <!-- 1.0 -->
      <g transform="translate(20.878125 181.583834) scale(0.1 -0.1)">
       <use xlink:href="#DejaVuSans-31"/>
       <use xlink:href="#DejaVuSans-2e" transform="translate(63.623047 0)"/>
       <use xlink:href="#DejaVuSans-30" transform="translate(95.410156 0)"/>
      </g>
     </g>
    </g>
    <g id="ytick_4">
     <g id="line2d_11">
      <g>
       <use xlink:href="#m93c324b66f" x="43.78125" y="124.476923" style="stroke: #000000; stroke-width: 0.8"/>
      </g>
     </g>
     <g id="text_12">
      <!-- 1.5 -->
      <g transform="translate(20.878125 128.276142) scale(0.1 -0.1)">
       <use xlink:href="#DejaVuSans-31"/>
       <use xlink:href="#DejaVuSans-2e" transform="translate(63.623047 0)"/>
       <use xlink:href="#DejaVuSans-35" transform="translate(95.410156 0)"/>
      </g>
     </g>
    </g>
    <g id="ytick_5">
     <g id="line2d_12">
      <g>
       <use xlink:href="#m93c324b66f" x="43.78125" y="71.169231" style="stroke: #000000; stroke-width: 0.8"/>
      </g>
     </g>
     <g id="text_13">
      <!-- 2.0 -->
      <g transform="translate(20.878125 74.96845) scale(0.1 -0.1)">
       <use xlink:href="#DejaVuSans-32"/>
       <use xlink:href="#DejaVuSans-2e" transform="translate(63.623047 0)"/>
       <use xlink:href="#DejaVuSans-30" transform="translate(95.410156 0)"/>
      </g>
     </g>
    </g>
    <g id="ytick_6">
     <g id="line2d_13">
      <g>
       <use xlink:href="#m93c324b66f" x="43.78125" y="17.861538" style="stroke: #000000; stroke-width: 0.8"/>
      </g>
     </g>
     <g id="text_14">
      <!-- 2.5 -->
      <g transform="translate(20.878125 21.660757) scale(0.1 -0.1)">
       <use xlink:href="#DejaVuSans-32"/>
       <use xlink:href="#DejaVuSans-2e" transform="translate(63.623047 0)"/>
       <use xlink:href="#DejaVuSans-35" transform="translate(95.410156 0)"/>
      </g>
     </g>
    </g>
    <g id="text_15">
     <!-- petal width (cm) -->
     <g transform="translate(14.798438 186.944531) rotate(-90) scale(0.1 -0.1)">
      <defs>
       <path id="DejaVuSans-77" d="M 269 3500 
L 844 3500 
L 1563 769 
L 2278 3500 
L 2956 3500 
L 3675 769 
L 4391 3500 
L 4966 3500 
L 4050 0 
L 3372 0 
L 2619 2869 
L 1863 0 
L 1184 0 
L 269 3500 
z
" transform="scale(0.015625)"/>
       <path id="DejaVuSans-69" d="M 603 3500 
L 1178 3500 
L 1178 0 
L 603 0 
L 603 3500 
z
M 603 4863 
L 1178 4863 
L 1178 4134 
L 603 4134 
L 603 4863 
z
" transform="scale(0.015625)"/>
       <path id="DejaVuSans-64" d="M 2906 2969 
L 2906 4863 
L 3481 4863 
L 3481 0 
L 2906 0 
L 2906 525 
Q 2725 213 2448 61 
Q 2172 -91 1784 -91 
Q 1150 -91 751 415 
Q 353 922 353 1747 
Q 353 2572 751 3078 
Q 1150 3584 1784 3584 
Q 2172 3584 2448 3432 
Q 2725 3281 2906 2969 
z
M 947 1747 
Q 947 1113 1208 752 
Q 1469 391 1925 391 
Q 2381 391 2643 752 
Q 2906 1113 2906 1747 
Q 2906 2381 2643 2742 
Q 2381 3103 1925 3103 
Q 1469 3103 1208 2742 
Q 947 2381 947 1747 
z
" transform="scale(0.015625)"/>
      </defs>
      <use xlink:href="#DejaVuSans-70"/>
      <use xlink:href="#DejaVuSans-65" transform="translate(63.476562 0)"/>
      <use xlink:href="#DejaVuSans-74" transform="translate(125 0)"/>
      <use xlink:href="#DejaVuSans-61" transform="translate(164.208984 0)"/>
      <use xlink:href="#DejaVuSans-6c" transform="translate(225.488281 0)"/>
      <use xlink:href="#DejaVuSans-20" transform="translate(253.271484 0)"/>
      <use xlink:href="#DejaVuSans-77" transform="translate(285.058594 0)"/>
      <use xlink:href="#DejaVuSans-69" transform="translate(366.845703 0)"/>
      <use xlink:href="#DejaVuSans-64" transform="translate(394.628906 0)"/>
      <use xlink:href="#DejaVuSans-74" transform="translate(458.105469 0)"/>
      <use xlink:href="#DejaVuSans-68" transform="translate(497.314453 0)"/>
      <use xlink:href="#DejaVuSans-20" transform="translate(560.693359 0)"/>
      <use xlink:href="#DejaVuSans-28" transform="translate(592.480469 0)"/>
      <use xlink:href="#DejaVuSans-63" transform="translate(631.494141 0)"/>
      <use xlink:href="#DejaVuSans-6d" transform="translate(686.474609 0)"/>
      <use xlink:href="#DejaVuSans-29" transform="translate(783.886719 0)"/>
     </g>
    </g>
   </g>
   <g id="line2d_14">
    <path d="M 152.591249 284.4 
L 152.591249 7.2 
" clip-path="url(#pa2df511a1b)" style="fill: none; stroke-dasharray: 12.8,3.2,2,3.2; stroke-dashoffset: 0; stroke: #ff7f0e; stroke-width: 2"/>
   </g>
   <g id="line2d_15">
    <path d="M 152.591249 97.823077 
L 434.38125 97.823077 
" clip-path="url(#pa2df511a1b)" style="fill: none; stroke-dasharray: 2,3.3; stroke-dashoffset: 0; stroke: #2ca02c; stroke-width: 2"/>
   </g>
   <g id="line2d_16">
    <path d="M 292.09125 284.4 
L 292.09125 97.823077 
" clip-path="url(#pa2df511a1b)" style="fill: none; stroke-dasharray: 7.4,3.2; stroke-dashoffset: 0; stroke: #d62728; stroke-width: 2"/>
   </g>
   <g id="patch_3">
    <path d="M 43.78125 284.4 
L 43.78125 7.2 
" style="fill: none; stroke: #000000; stroke-width: 0.8; stroke-linejoin: miter; stroke-linecap: square"/>
   </g>
   <g id="patch_4">
    <path d="M 434.38125 284.4 
L 434.38125 7.2 
" style="fill: none; stroke: #000000; stroke-width: 0.8; stroke-linejoin: miter; stroke-linecap: square"/>
   </g>
   <g id="patch_5">
    <path d="M 43.78125 284.4 
L 434.38125 284.4 
" style="fill: none; stroke: #000000; stroke-width: 0.8; stroke-linejoin: miter; stroke-linecap: square"/>
   </g>
   <g id="patch_6">
    <path d="M 43.78125 7.2 
L 434.38125 7.2 
" style="fill: none; stroke: #000000; stroke-width: 0.8; stroke-linejoin: miter; stroke-linecap: square"/>
   </g>
   <g id="legend_1">
    <g id="patch_7">
     <path d="M 50.78125 103.26875 
L 131.576562 103.26875 
Q 133.576562 103.26875 133.576562 101.26875 
L 133.576562 14.2 
Q 133.576562 12.2 131.576562 12.2 
L 50.78125 12.2 
Q 48.78125 12.2 48.78125 14.2 
L 48.78125 101.26875 
Q 48.78125 103.26875 50.78125 103.26875 
z
" style="fill: #ffffff; opacity: 0.8; stroke: #cccccc; stroke-linejoin: miter"/>
    </g>
    <g id="PathCollection_4">
     <g>
      <use xlink:href="#m4f9b2f3d43" x="62.78125" y="21.173437" style="fill: #1f77b4; stroke: #1f77b4"/>
     </g>
    </g>
    <g id="text_16">
     <!-- setosa -->
     <g transform="translate(80.78125 23.798437) scale(0.1 -0.1)">
      <defs>
       <path id="DejaVuSans-73" d="M 2834 3397 
L 2834 2853 
Q 2591 2978 2328 3040 
Q 2066 3103 1784 3103 
Q 1356 3103 1142 2972 
Q 928 2841 928 2578 
Q 928 2378 1081 2264 
Q 1234 2150 1697 2047 
L 1894 2003 
Q 2506 1872 2764 1633 
Q 3022 1394 3022 966 
Q 3022 478 2636 193 
Q 2250 -91 1575 -91 
Q 1294 -91 989 -36 
Q 684 19 347 128 
L 347 722 
Q 666 556 975 473 
Q 1284 391 1588 391 
Q 1994 391 2212 530 
Q 2431 669 2431 922 
Q 2431 1156 2273 1281 
Q 2116 1406 1581 1522 
L 1381 1569 
Q 847 1681 609 1914 
Q 372 2147 372 2553 
Q 372 3047 722 3315 
Q 1072 3584 1716 3584 
Q 2034 3584 2315 3537 
Q 2597 3491 2834 3397 
z
" transform="scale(0.015625)"/>
       <path id="DejaVuSans-6f" d="M 1959 3097 
Q 1497 3097 1228 2736 
Q 959 2375 959 1747 
Q 959 1119 1226 758 
Q 1494 397 1959 397 
Q 2419 397 2687 759 
Q 2956 1122 2956 1747 
Q 2956 2369 2687 2733 
Q 2419 3097 1959 3097 
z
M 1959 3584 
Q 2709 3584 3137 3096 
Q 3566 2609 3566 1747 
Q 3566 888 3137 398 
Q 2709 -91 1959 -91 
Q 1206 -91 779 398 
Q 353 888 353 1747 
Q 353 2609 779 3096 
Q 1206 3584 1959 3584 
z
" transform="scale(0.015625)"/>
      </defs>
      <use xlink:href="#DejaVuSans-73"/>
      <use xlink:href="#DejaVuSans-65" transform="translate(52.099609 0)"/>
      <use xlink:href="#DejaVuSans-74" transform="translate(113.623047 0)"/>
      <use xlink:href="#DejaVuSans-6f" transform="translate(152.832031 0)"/>
      <use xlink:href="#DejaVuSans-73" transform="translate(214.013672 0)"/>
      <use xlink:href="#DejaVuSans-61" transform="translate(266.113281 0)"/>
     </g>
    </g>
    <g id="PathCollection_5">
     <g>
      <use xlink:href="#maf0ef9bb1e" x="62.78125" y="35.851562" style="fill: #ff7f0e; stroke: #ff7f0e"/>
     </g>
    </g>
    <g id="text_17">
     <!-- versicolor -->
     <g transform="translate(80.78125 38.476562) scale(0.1 -0.1)">
      <defs>
       <path id="DejaVuSans-76" d="M 191 3500 
L 800 3500 
L 1894 563 
L 2988 3500 
L 3597 3500 
L 2284 0 
L 1503 0 
L 191 3500 
z
" transform="scale(0.015625)"/>
       <path id="DejaVuSans-72" d="M 2631 2963 
Q 2534 3019 2420 3045 
Q 2306 3072 2169 3072 
Q 1681 3072 1420 2755 
Q 1159 2438 1159 1844 
L 1159 0 
L 581 0 
L 581 3500 
L 1159 3500 
L 1159 2956 
Q 1341 3275 1631 3429 
Q 1922 3584 2338 3584 
Q 2397 3584 2469 3576 
Q 2541 3569 2628 3553 
L 2631 2963 
z
" transform="scale(0.015625)"/>
      </defs>
      <use xlink:href="#DejaVuSans-76"/>
      <use xlink:href="#DejaVuSans-65" transform="translate(59.179688 0)"/>
      <use xlink:href="#DejaVuSans-72" transform="translate(120.703125 0)"/>
      <use xlink:href="#DejaVuSans-73" transform="translate(161.816406 0)"/>
      <use xlink:href="#DejaVuSans-69" transform="translate(213.916016 0)"/>
      <use xlink:href="#DejaVuSans-63" transform="translate(241.699219 0)"/>
      <use xlink:href="#DejaVuSans-6f" transform="translate(296.679688 0)"/>
      <use xlink:href="#DejaVuSans-6c" transform="translate(357.861328 0)"/>
      <use xlink:href="#DejaVuSans-6f" transform="translate(385.644531 0)"/>
      <use xlink:href="#DejaVuSans-72" transform="translate(446.826172 0)"/>
     </g>
    </g>
    <g id="PathCollection_6">
     <g>
      <use xlink:href="#m963cc0c1a0" x="62.78125" y="50.529687" style="fill: #2ca02c; stroke: #2ca02c"/>
     </g>
    </g>
    <g id="text_18">
     <!-- virginica -->
     <g transform="translate(80.78125 53.154687) scale(0.1 -0.1)">
      <use xlink:href="#DejaVuSans-76"/>
      <use xlink:href="#DejaVuSans-69" transform="translate(59.179688 0)"/>
      <use xlink:href="#DejaVuSans-72" transform="translate(86.962891 0)"/>
      <use xlink:href="#DejaVuSans-67" transform="translate(126.326172 0)"/>
      <use xlink:href="#DejaVuSans-69" transform="translate(189.802734 0)"/>
      <use xlink:href="#DejaVuSans-6e" transform="translate(217.585938 0)"/>
      <use xlink:href="#DejaVuSans-69" transform="translate(280.964844 0)"/>
      <use xlink:href="#DejaVuSans-63" transform="translate(308.748047 0)"/>
      <use xlink:href="#DejaVuSans-61" transform="translate(363.728516 0)"/>
     </g>
    </g>
    <g id="line2d_17">
     <path d="M 52.78125 64.332812 
L 62.78125 64.332812 
L 72.78125 64.332812 
" style="fill: none; stroke-dasharray: 12.8,3.2,2,3.2; stroke-dashoffset: 0; stroke: #ff7f0e; stroke-width: 2"/>
    </g>
    <g id="text_19">
     <!-- split 1 -->
     <g transform="translate(80.78125 67.832812) scale(0.1 -0.1)">
      <use xlink:href="#DejaVuSans-73"/>
      <use xlink:href="#DejaVuSans-70" transform="translate(52.099609 0)"/>
      <use xlink:href="#DejaVuSans-6c" transform="translate(115.576172 0)"/>
      <use xlink:href="#DejaVuSans-69" transform="translate(143.359375 0)"/>
      <use xlink:href="#DejaVuSans-74" transform="translate(171.142578 0)"/>
      <use xlink:href="#DejaVuSans-20" transform="translate(210.351562 0)"/>
      <use xlink:href="#DejaVuSans-31" transform="translate(242.138672 0)"/>
     </g>
    </g>
    <g id="line2d_18">
     <path d="M 52.78125 79.010937 
L 62.78125 79.010937 
L 72.78125 79.010937 
" style="fill: none; stroke-dasharray: 2,3.3; stroke-dashoffset: 0; stroke: #2ca02c; stroke-width: 2"/>
    </g>
    <g id="text_20">
     <!-- split 2 -->
     <g transform="translate(80.78125 82.510937) scale(0.1 -0.1)">
      <use xlink:href="#DejaVuSans-73"/>
      <use xlink:href="#DejaVuSans-70" transform="translate(52.099609 0)"/>
      <use xlink:href="#DejaVuSans-6c" transform="translate(115.576172 0)"/>
      <use xlink:href="#DejaVuSans-69" transform="translate(143.359375 0)"/>
      <use xlink:href="#DejaVuSans-74" transform="translate(171.142578 0)"/>
      <use xlink:href="#DejaVuSans-20" transform="translate(210.351562 0)"/>
      <use xlink:href="#DejaVuSans-32" transform="translate(242.138672 0)"/>
     </g>
    </g>
    <g id="line2d_19">
     <path d="M 52.78125 93.689062 
L 62.78125 93.689062 
L 72.78125 93.689062 
" style="fill: none; stroke-dasharray: 7.4,3.2; stroke-dashoffset: 0; stroke: #d62728; stroke-width: 2"/>
    </g>
    <g id="text_21">
     <!-- (split 3) -->
     <g transform="translate(80.78125 97.189062) scale(0.1 -0.1)">
      <use xlink:href="#DejaVuSans-28"/>
      <use xlink:href="#DejaVuSans-73" transform="translate(39.013672 0)"/>
      <use xlink:href="#DejaVuSans-70" transform="translate(91.113281 0)"/>
      <use xlink:href="#DejaVuSans-6c" transform="translate(154.589844 0)"/>
      <use xlink:href="#DejaVuSans-69" transform="translate(182.373047 0)"/>
      <use xlink:href="#DejaVuSans-74" transform="translate(210.15625 0)"/>
      <use xlink:href="#DejaVuSans-20" transform="translate(249.365234 0)"/>
      <use xlink:href="#DejaVuSans-33" transform="translate(281.152344 0)"/>
      <use xlink:href="#DejaVuSans-29" transform="translate(344.775391 0)"/>
     </g>
    </g>
   </g>
  </g>
 </g>
 <defs>
  <clipPath id="pa2df511a1b">
   <rect x="43.78125" y="7.2" width="390.6" height="277.2"/>
  </clipPath>
 </defs>
</svg>
