<?xml version="1.0" encoding="utf-8" standalone="no"?>
<!DOCTYPE svg PUBLIC "-//W3C//DTD SVG 1.1//EN"
  "http://www.w3.org/Graphics/SVG/1.1/DTD/svg11.dtd">
<svg xmlns:xlink="http://www.w3.org/1999/xlink" width="442.645312pt" height="308.278125pt" viewBox="0 0 442.645312 308.278125" xmlns="http://www.w3.org/2000/svg" version="1.1">
 <metadata>
  <rdf:RDF xmlns:dc="http://purl.org/dc/elements/1.1/" xmlns:cc="http://creativecommons.org/ns#" xmlns:rdf="http://www.w3.org/1999/02/22-rdf-syntax-ns#">
   <cc:Work>
    <dc:type rdf:resource="http://purl.org/dc/dcmitype/StillImage"/>
    <dc:date>2025-05-09T15:00:46.593310</dc:date>
    <dc:format>image/svg+xml</dc:format>
    <dc:creator>
     <cc:Agent>
      <dc:title>Matplotlib v3.10.0, https://matplotlib.org/</dc:title>
     </cc:Agent>
    </dc:creator>
   </cc:Work>
  </rdf:RDF>
 </metadata>
 <defs>
  <style type="text/css">*{stroke-linejoin: round; stroke-linecap: butt}</style>
 </defs>
 <g id="figure_1">
  <g id="patch_1">
   <path d="M 0 308.278125 
L 442.645312 308.278125 
L 442.645312 0 
L 0 0 
z
" style="fill: #ffffff"/>
  </g>
  <g id="axes_1">
   <g id="patch_2">
    <path d="M 44.845313 284.4 
L 435.445312 284.4 
L 435.445312 7.2 
L 44.845313 7.2 
z
" style="fill: #ffffff"/>
   </g>
   <g id="PathCollection_1">
    <defs>
     <path id="m55737f93d8" d="M 0 3 
C 0.795609 3 1.55874 2.683901 2.12132 2.12132 
C 2.683901 1.55874 3 0.795609 3 0 
C 3 -0.795609 2.683901 -1.55874 2.12132 -2.12132 
C 1.55874 -2.683901 0.795609 -3 0 -3 
C -0.795609 -3 -1.55874 -2.683901 -2.12132 -2.12132 
C -2.683901 -1.55874 -3 -0.795609 -3 0 
C -3 0.795609 -2.683901 1.55874 -2.12132 2.12132 
C -1.55874 2.683901 -0.795609 3 0 3 
z
" style="stroke: #1f77b4"/>
    </defs>
    <g clip-path="url(#pbff206f386)">
     <use xlink:href="#m55737f93d8" x="62.599858" y="271.8" style="fill: #1f77b4; stroke: #1f77b4"/>
     <use xlink:href="#m55737f93d8" x="98.108949" y="271.8" style="fill: #1f77b4; stroke: #1f77b4"/>
     <use xlink:href="#m55737f93d8" x="133.61804" y="271.8" style="fill: #1f77b4; stroke: #1f77b4"/>
     <use xlink:href="#m55737f93d8" x="169.127131" y="271.8" style="fill: #1f77b4; stroke: #1f77b4"/>
     <use xlink:href="#m55737f93d8" x="204.636222" y="271.8" style="fill: #1f77b4; stroke: #1f77b4"/>
     <use xlink:href="#m55737f93d8" x="240.145313" y="271.8" style="fill: #1f77b4; stroke: #1f77b4"/>
     <use xlink:href="#m55737f93d8" x="275.654403" y="271.8" style="fill: #1f77b4; stroke: #1f77b4"/>
     <use xlink:href="#m55737f93d8" x="311.163494" y="271.8" style="fill: #1f77b4; stroke: #1f77b4"/>
     <use xlink:href="#m55737f93d8" x="346.672585" y="271.8" style="fill: #1f77b4; stroke: #1f77b4"/>
     <use xlink:href="#m55737f93d8" x="382.181676" y="271.8" style="fill: #1f77b4; stroke: #1f77b4"/>
     <use xlink:href="#m55737f93d8" x="417.690767" y="271.8" style="fill: #1f77b4; stroke: #1f77b4"/>
     <use xlink:href="#m55737f93d8" x="62.599858" y="246.6" style="fill: #1f77b4; stroke: #1f77b4"/>
     <use xlink:href="#m55737f93d8" x="98.108949" y="246.6" style="fill: #1f77b4; stroke: #1f77b4"/>
     <use xlink:href="#m55737f93d8" x="133.61804" y="246.6" style="fill: #1f77b4; stroke: #1f77b4"/>
     <use xlink:href="#m55737f93d8" x="169.127131" y="246.6" style="fill: #1f77b4; stroke: #1f77b4"/>
     <use xlink:href="#m55737f93d8" x="204.636222" y="246.6" style="fill: #1f77b4; stroke: #1f77b4"/>
     <use xlink:href="#m55737f93d8" x="240.145313" y="246.6" style="fill: #1f77b4; stroke: #1f77b4"/>
     <use xlink:href="#m55737f93d8" x="275.654403" y="246.6" style="fill: #1f77b4; stroke: #1f77b4"/>
     <use xlink:href="#m55737f93d8" x="311.163494" y="246.6" style="fill: #1f77b4; stroke: #1f77b4"/>
     <use xlink:href="#m55737f93d8" x="346.672585" y="246.6" style="fill: #1f77b4; stroke: #1f77b4"/>
     <use xlink:href="#m55737f93d8" x="382.181676" y="246.6" style="fill: #1f77b4; stroke: #1f77b4"/>
     <use xlink:href="#m55737f93d8" x="417.690767" y="246.6" style="fill: #1f77b4; stroke: #1f77b4"/>
     <use xlink:href="#m55737f93d8" x="62.599858" y="221.4" style="fill: #1f77b4; stroke: #1f77b4"/>
     <use xlink:href="#m55737f93d8" x="98.108949" y="221.4" style="fill: #1f77b4; stroke: #1f77b4"/>
     <use xlink:href="#m55737f93d8" x="133.61804" y="221.4" style="fill: #1f77b4; stroke: #1f77b4"/>
     <use xlink:href="#m55737f93d8" x="169.127131" y="221.4" style="fill: #1f77b4; stroke: #1f77b4"/>
     <use xlink:href="#m55737f93d8" x="204.636222" y="221.4" style="fill: #1f77b4; stroke: #1f77b4"/>
     <use xlink:href="#m55737f93d8" x="240.145313" y="221.4" style="fill: #1f77b4; stroke: #1f77b4"/>
     <use xlink:href="#m55737f93d8" x="275.654403" y="221.4" style="fill: #1f77b4; stroke: #1f77b4"/>
     <use xlink:href="#m55737f93d8" x="311.163494" y="221.4" style="fill: #1f77b4; stroke: #1f77b4"/>
     <use xlink:href="#m55737f93d8" x="346.672585" y="221.4" style="fill: #1f77b4; stroke: #1f77b4"/>
     <use xlink:href="#m55737f93d8" x="382.181676" y="221.4" style="fill: #1f77b4; stroke: #1f77b4"/>
     <use xlink:href="#m55737f93d8" x="417.690767" y="221.4" style="fill: #1f77b4; stroke: #1f77b4"/>
     <use xlink:href="#m55737f93d8" x="62.599858" y="196.2" style="fill: #1f77b4; stroke: #1f77b4"/>
     <use xlink:href="#m55737f93d8" x="98.108949" y="196.2" style="fill: #1f77b4; stroke: #1f77b4"/>
     <use xlink:href="#m55737f93d8" x="133.61804" y="196.2" style="fill: #1f77b4; stroke: #1f77b4"/>
     <use xlink:href="#m55737f93d8" x="169.127131" y="196.2" style="fill: #1f77b4; stroke: #1f77b4"/>
     <use xlink:href="#m55737f93d8" x="311.163494" y="196.2" style="fill: #1f77b4; stroke: #1f77b4"/>
     <use xlink:href="#m55737f93d8" x="346.672585" y="196.2" style="fill: #1f77b4; stroke: #1f77b4"/>
     <use xlink:href="#m55737f93d8" x="382.181676" y="196.2" style="fill: #1f77b4; stroke: #1f77b4"/>
     <use xlink:href="#m55737f93d8" x="417.690767" y="196.2" style="fill: #1f77b4; stroke: #1f77b4"/>
     <use xlink:href="#m55737f93d8" x="62.599858" y="171" style="fill: #1f77b4; stroke: #1f77b4"/>
     <use xlink:href="#m55737f93d8" x="98.108949" y="171" style="fill: #1f77b4; stroke: #1f77b4"/>
     <use xlink:href="#m55737f93d8" x="133.61804" y="171" style="fill: #1f77b4; stroke: #1f77b4"/>
     <use xlink:href="#m55737f93d8" x="346.672585" y="171" style="fill: #1f77b4; stroke: #1f77b4"/>
     <use xlink:href="#m55737f93d8" x="382.181676" y="171" style="fill: #1f77b4; stroke: #1f77b4"/>
     <use xlink:href="#m55737f93d8" x="417.690767" y="171" style="fill: #1f77b4; stroke: #1f77b4"/>
     <use xlink:href="#m55737f93d8" x="62.599858" y="145.8" style="fill: #1f77b4; stroke: #1f77b4"/>
     <use xlink:href="#m55737f93d8" x="98.108949" y="145.8" style="fill: #1f77b4; stroke: #1f77b4"/>
     <use xlink:href="#m55737f93d8" x="133.61804" y="145.8" style="fill: #1f77b4; stroke: #1f77b4"/>
     <use xlink:href="#m55737f93d8" x="346.672585" y="145.8" style="fill: #1f77b4; stroke: #1f77b4"/>
     <use xlink:href="#m55737f93d8" x="382.181676" y="145.8" style="fill: #1f77b4; stroke: #1f77b4"/>
     <use xlink:href="#m55737f93d8" x="417.690767" y="145.8" style="fill: #1f77b4; stroke: #1f77b4"/>
     <use xlink:href="#m55737f93d8" x="62.599858" y="120.6" style="fill: #1f77b4; stroke: #1f77b4"/>
     <use xlink:href="#m55737f93d8" x="98.108949" y="120.6" style="fill: #1f77b4; stroke: #1f77b4"/>
     <use xlink:href="#m55737f93d8" x="133.61804" y="120.6" style="fill: #1f77b4; stroke: #1f77b4"/>
     <use xlink:href="#m55737f93d8" x="346.672585" y="120.6" style="fill: #1f77b4; stroke: #1f77b4"/>
     <use xlink:href="#m55737f93d8" x="382.181676" y="120.6" style="fill: #1f77b4; stroke: #1f77b4"/>
     <use xlink:href="#m55737f93d8" x="417.690767" y="120.6" style="fill: #1f77b4; stroke: #1f77b4"/>
     <use xlink:href="#m55737f93d8" x="62.599858" y="95.4" style="fill: #1f77b4; stroke: #1f77b4"/>
     <use xlink:href="#m55737f93d8" x="98.108949" y="95.4" style="fill: #1f77b4; stroke: #1f77b4"/>
     <use xlink:href="#m55737f93d8" x="133.61804" y="95.4" style="fill: #1f77b4; stroke: #1f77b4"/>
     <use xlink:href="#m55737f93d8" x="169.127131" y="95.4" style="fill: #1f77b4; stroke: #1f77b4"/>
     <use xlink:href="#m55737f93d8" x="311.163494" y="95.4" style="fill: #1f77b4; stroke: #1f77b4"/>
     <use xlink:href="#m55737f93d8" x="346.672585" y="95.4" style="fill: #1f77b4; stroke: #1f77b4"/>
     <use xlink:href="#m55737f93d8" x="382.181676" y="95.4" style="fill: #1f77b4; stroke: #1f77b4"/>
     <use xlink:href="#m55737f93d8" x="417.690767" y="95.4" style="fill: #1f77b4; stroke: #1f77b4"/>
     <use xlink:href="#m55737f93d8" x="62.599858" y="70.2" style="fill: #1f77b4; stroke: #1f77b4"/>
     <use xlink:href="#m55737f93d8" x="98.108949" y="70.2" style="fill: #1f77b4; stroke: #1f77b4"/>
     <use xlink:href="#m55737f93d8" x="133.61804" y="70.2" style="fill: #1f77b4; stroke: #1f77b4"/>
     <use xlink:href="#m55737f93d8" x="169.127131" y="70.2" style="fill: #1f77b4; stroke: #1f77b4"/>
     <use xlink:href="#m55737f93d8" x="204.636222" y="70.2" style="fill: #1f77b4; stroke: #1f77b4"/>
     <use xlink:href="#m55737f93d8" x="240.145313" y="70.2" style="fill: #1f77b4; stroke: #1f77b4"/>
     <use xlink:href="#m55737f93d8" x="275.654403" y="70.2" style="fill: #1f77b4; stroke: #1f77b4"/>
     <use xlink:href="#m55737f93d8" x="311.163494" y="70.2" style="fill: #1f77b4; stroke: #1f77b4"/>
     <use xlink:href="#m55737f93d8" x="346.672585" y="70.2" style="fill: #1f77b4; stroke: #1f77b4"/>
     <use xlink:href="#m55737f93d8" x="382.181676" y="70.2" style="fill: #1f77b4; stroke: #1f77b4"/>
     <use xlink:href="#m55737f93d8" x="417.690767" y="70.2" style="fill: #1f77b4; stroke: #1f77b4"/>
     <use xlink:href="#m55737f93d8" x="62.599858" y="45" style="fill: #1f77b4; stroke: #1f77b4"/>
     <use xlink:href="#m55737f93d8" x="98.108949" y="45" style="fill: #1f77b4; stroke: #1f77b4"/>
     <use xlink:href="#m55737f93d8" x="133.61804" y="45" style="fill: #1f77b4; stroke: #1f77b4"/>
     <use xlink:href="#m55737f93d8" x="169.127131" y="45" style="fill: #1f77b4; stroke: #1f77b4"/>
     <use xlink:href="#m55737f93d8" x="204.636222" y="45" style="fill: #1f77b4; stroke: #1f77b4"/>
     <use xlink:href="#m55737f93d8" x="240.145313" y="45" style="fill: #1f77b4; stroke: #1f77b4"/>
     <use xlink:href="#m55737f93d8" x="275.654403" y="45" style="fill: #1f77b4; stroke: #1f77b4"/>
     <use xlink:href="#m55737f93d8" x="311.163494" y="45" style="fill: #1f77b4; stroke: #1f77b4"/>
     <use xlink:href="#m55737f93d8" x="346.672585" y="45" style="fill: #1f77b4; stroke: #1f77b4"/>
     <use xlink:href="#m55737f93d8" x="382.181676" y="45" style="fill: #1f77b4; stroke: #1f77b4"/>
     <use xlink:href="#m55737f93d8" x="417.690767" y="45" style="fill: #1f77b4; stroke: #1f77b4"/>
     <use xlink:href="#m55737f93d8" x="62.599858" y="19.8" style="fill: #1f77b4; stroke: #1f77b4"/>
     <use xlink:href="#m55737f93d8" x="98.108949" y="19.8" style="fill: #1f77b4; stroke: #1f77b4"/>
     <use xlink:href="#m55737f93d8" x="133.61804" y="19.8" style="fill: #1f77b4; stroke: #1f77b4"/>
     <use xlink:href="#m55737f93d8" x="169.127131" y="19.8" style="fill: #1f77b4; stroke: #1f77b4"/>
     <use xlink:href="#m55737f93d8" x="204.636222" y="19.8" style="fill: #1f77b4; stroke: #1f77b4"/>
     <use xlink:href="#m55737f93d8" x="240.145313" y="19.8" style="fill: #1f77b4; stroke: #1f77b4"/>
     <use xlink:href="#m55737f93d8" x="275.654403" y="19.8" style="fill: #1f77b4; stroke: #1f77b4"/>
     <use xlink:href="#m55737f93d8" x="311.163494" y="19.8" style="fill: #1f77b4; stroke: #1f77b4"/>
     <use xlink:href="#m55737f93d8" x="346.672585" y="19.8" style="fill: #1f77b4; stroke: #1f77b4"/>
     <use xlink:href="#m55737f93d8" x="382.181676" y="19.8" style="fill: #1f77b4; stroke: #1f77b4"/>
     <use xlink:href="#m55737f93d8" x="417.690767" y="19.8" style="fill: #1f77b4; stroke: #1f77b4"/>
    </g>
   </g>
   <g id="PathCollection_2">
    <defs>
     <path id="m9bac6e1ca7" d="M 0 3 
C 0.795609 3 1.55874 2.683901 2.12132 2.12132 
C 2.683901 1.55874 3 0.795609 3 0 
C 3 -0.795609 2.683901 -1.55874 2.12132 -2.12132 
C 1.55874 -2.683901 0.795609 -3 0 -3 
C -0.795609 -3 -1.55874 -2.683901 -2.12132 -2.12132 
C -2.683901 -1.55874 -3 -0.795609 -3 0 
C -3 0.795609 -2.683901 1.55874 -2.12132 2.12132 
C -1.55874 2.683901 -0.795609 3 0 3 
z
" style="stroke: #ff7f0e"/>
    </defs>
    <g clip-path="url(#pbff206f386)">
     <use xlink:href="#m9bac6e1ca7" x="204.636222" y="196.2" style="fill: #ff7f0e; stroke: #ff7f0e"/>
     <use xlink:href="#m9bac6e1ca7" x="240.145313" y="196.2" style="fill: #ff7f0e; stroke: #ff7f0e"/>
     <use xlink:href="#m9bac6e1ca7" x="275.654403" y="196.2" style="fill: #ff7f0e; stroke: #ff7f0e"/>
     <use xlink:href="#m9bac6e1ca7" x="169.127131" y="171" style="fill: #ff7f0e; stroke: #ff7f0e"/>
     <use xlink:href="#m9bac6e1ca7" x="204.636222" y="171" style="fill: #ff7f0e; stroke: #ff7f0e"/>
     <use xlink:href="#m9bac6e1ca7" x="240.145313" y="171" style="fill: #ff7f0e; stroke: #ff7f0e"/>
     <use xlink:href="#m9bac6e1ca7" x="275.654403" y="171" style="fill: #ff7f0e; stroke: #ff7f0e"/>
     <use xlink:href="#m9bac6e1ca7" x="311.163494" y="171" style="fill: #ff7f0e; stroke: #ff7f0e"/>
     <use xlink:href="#m9bac6e1ca7" x="169.127131" y="145.8" style="fill: #ff7f0e; stroke: #ff7f0e"/>
     <use xlink:href="#m9bac6e1ca7" x="204.636222" y="145.8" style="fill: #ff7f0e; stroke: #ff7f0e"/>
     <use xlink:href="#m9bac6e1ca7" x="240.145313" y="145.8" style="fill: #ff7f0e; stroke: #ff7f0e"/>
     <use xlink:href="#m9bac6e1ca7" x="275.654403" y="145.8" style="fill: #ff7f0e; stroke: #ff7f0e"/>
     <use xlink:href="#m9bac6e1ca7" x="311.163494" y="145.8" style="fill: #ff7f0e; stroke: #ff7f0e"/>
     <use xlink:href="#m9bac6e1ca7" x="169.127131" y="120.6" style="fill: #ff7f0e; stroke: #ff7f0e"/>
     <use xlink:href="#m9bac6e1ca7" x="204.636222" y="120.6" style="fill: #ff7f0e; stroke: #ff7f0e"/>
     <use xlink:href="#m9bac6e1ca7" x="240.145313" y="120.6" style="fill: #ff7f0e; stroke: #ff7f0e"/>
     <use xlink:href="#m9bac6e1ca7" x="275.654403" y="120.6" style="fill: #ff7f0e; stroke: #ff7f0e"/>
     <use xlink:href="#m9bac6e1ca7" x="311.163494" y="120.6" style="fill: #ff7f0e; stroke: #ff7f0e"/>
     <use xlink:href="#m9bac6e1ca7" x="204.636222" y="95.4" style="fill: #ff7f0e; stroke: #ff7f0e"/>
     <use xlink:href="#m9bac6e1ca7" x="240.145313" y="95.4" style="fill: #ff7f0e; stroke: #ff7f0e"/>
     <use xlink:href="#m9bac6e1ca7" x="275.654403" y="95.4" style="fill: #ff7f0e; stroke: #ff7f0e"/>
    </g>
   </g>
   <g id="matplotlib.axis_1">
    <g id="xtick_1">
     <g id="line2d_1">
      <defs>
       <path id="m13f5a21fa7" d="M 0 0 
L 0 3.5 
" style="stroke: #000000; stroke-width: 0.8"/>
      </defs>
      <g>
       <use xlink:href="#m13f5a21fa7" x="62.599858" y="284.4" style="stroke: #000000; stroke-width: 0.8"/>
      </g>
     </g>
     <g id="text_1">
      <!-- −1.00 -->
      <g transform="translate(47.277202 298.998438) scale(0.1 -0.1)">
       <defs>
        <path id="DejaVuSans-2212" d="M 678 2272 
L 4684 2272 
L 4684 1741 
L 678 1741 
L 678 2272 
z
" transform="scale(0.015625)"/>
        <path id="DejaVuSans-31" d="M 794 531 
L 1825 531 
L 1825 4091 
L 703 3866 
L 703 4441 
L 1819 4666 
L 2450 4666 
L 2450 531 
L 3481 531 
L 3481 0 
L 794 0 
L 794 531 
z
" transform="scale(0.015625)"/>
        <path id="DejaVuSans-2e" d="M 684 794 
L 1344 794 
L 1344 0 
L 684 0 
L 684 794 
z
" transform="scale(0.015625)"/>
        <path id="DejaVuSans-30" d="M 2034 4250 
Q 1547 4250 1301 3770 
Q 1056 3291 1056 2328 
Q 1056 1369 1301 889 
Q 1547 409 2034 409 
Q 2525 409 2770 889 
Q 3016 1369 3016 2328 
Q 3016 3291 2770 3770 
Q 2525 4250 2034 4250 
z
M 2034 4750 
Q 2819 4750 3233 4129 
Q 3647 3509 3647 2328 
Q 3647 1150 3233 529 
Q 2819 -91 2034 -91 
Q 1250 -91 836 529 
Q 422 1150 422 2328 
Q 422 3509 836 4129 
Q 1250 4750 2034 4750 
z
" transform="scale(0.015625)"/>
       </defs>
       <use xlink:href="#DejaVuSans-2212"/>
       <use xlink:href="#DejaVuSans-31" transform="translate(83.789062 0)"/>
       <use xlink:href="#DejaVuSans-2e" transform="translate(147.412109 0)"/>
       <use xlink:href="#DejaVuSans-30" transform="translate(179.199219 0)"/>
       <use xlink:href="#DejaVuSans-30" transform="translate(242.822266 0)"/>
      </g>
     </g>
    </g>
    <g id="xtick_2">
     <g id="line2d_2">
      <g>
       <use xlink:href="#m13f5a21fa7" x="106.986222" y="284.4" style="stroke: #000000; stroke-width: 0.8"/>
      </g>
     </g>
     <g id="text_2">
      <!-- −0.75 -->
      <g transform="translate(91.663565 298.998438) scale(0.1 -0.1)">
       <defs>
        <path id="DejaVuSans-37" d="M 525 4666 
L 3525 4666 
L 3525 4397 
L 1831 0 
L 1172 0 
L 2766 4134 
L 525 4134 
L 525 4666 
z
" transform="scale(0.015625)"/>
        <path id="DejaVuSans-35" d="M 691 4666 
L 3169 4666 
L 3169 4134 
L 1269 4134 
L 1269 2991 
Q 1406 3038 1543 3061 
Q 1681 3084 1819 3084 
Q 2600 3084 3056 2656 
Q 3513 2228 3513 1497 
Q 3513 744 3044 326 
Q 2575 -91 1722 -91 
Q 1428 -91 1123 -41 
Q 819 9 494 109 
L 494 744 
Q 775 591 1075 516 
Q 1375 441 1709 441 
Q 2250 441 2565 725 
Q 2881 1009 2881 1497 
Q 2881 1984 2565 2268 
Q 2250 2553 1709 2553 
Q 1456 2553 1204 2497 
Q 953 2441 691 2322 
L 691 4666 
z
" transform="scale(0.015625)"/>
       </defs>
       <use xlink:href="#DejaVuSans-2212"/>
       <use xlink:href="#DejaVuSans-30" transform="translate(83.789062 0)"/>
       <use xlink:href="#DejaVuSans-2e" transform="translate(147.412109 0)"/>
       <use xlink:href="#DejaVuSans-37" transform="translate(179.199219 0)"/>
       <use xlink:href="#DejaVuSans-35" transform="translate(242.822266 0)"/>
      </g>
     </g>
    </g>
    <g id="xtick_3">
     <g id="line2d_3">
      <g>
       <use xlink:href="#m13f5a21fa7" x="151.372585" y="284.4" style="stroke: #000000; stroke-width: 0.8"/>
      </g>
     </g>
     <g id="text_3">
      <!-- −0.50 -->
      <g transform="translate(136.049929 298.998438) scale(0.1 -0.1)">
       <use xlink:href="#DejaVuSans-2212"/>
       <use xlink:href="#DejaVuSans-30" transform="translate(83.789062 0)"/>
       <use xlink:href="#DejaVuSans-2e" transform="translate(147.412109 0)"/>
       <use xlink:href="#DejaVuSans-35" transform="translate(179.199219 0)"/>
       <use xlink:href="#DejaVuSans-30" transform="translate(242.822266 0)"/>
      </g>
     </g>
    </g>
    <g id="xtick_4">
     <g id="line2d_4">
      <g>
       <use xlink:href="#m13f5a21fa7" x="195.758949" y="284.4" style="stroke: #000000; stroke-width: 0.8"/>
      </g>
     </g>
     <g id="text_4">
      <!-- −0.25 -->
      <g transform="translate(180.436293 298.998438) scale(0.1 -0.1)">
       <defs>
        <path id="DejaVuSans-32" d="M 1228 531 
L 3431 531 
L 3431 0 
L 469 0 
L 469 531 
Q 828 903 1448 1529 
Q 2069 2156 2228 2338 
Q 2531 2678 2651 2914 
Q 2772 3150 2772 3378 
Q 2772 3750 2511 3984 
Q 2250 4219 1831 4219 
Q 1534 4219 1204 4116 
Q 875 4013 500 3803 
L 500 4441 
Q 881 4594 1212 4672 
Q 1544 4750 1819 4750 
Q 2544 4750 2975 4387 
Q 3406 4025 3406 3419 
Q 3406 3131 3298 2873 
Q 3191 2616 2906 2266 
Q 2828 2175 2409 1742 
Q 1991 1309 1228 531 
z
" transform="scale(0.015625)"/>
       </defs>
       <use xlink:href="#DejaVuSans-2212"/>
       <use xlink:href="#DejaVuSans-30" transform="translate(83.789062 0)"/>
       <use xlink:href="#DejaVuSans-2e" transform="translate(147.412109 0)"/>
       <use xlink:href="#DejaVuSans-32" transform="translate(179.199219 0)"/>
       <use xlink:href="#DejaVuSans-35" transform="translate(242.822266 0)"/>
      </g>
     </g>
    </g>
    <g id="xtick_5">
     <g id="line2d_5">
      <g>
       <use xlink:href="#m13f5a21fa7" x="240.145313" y="284.4" style="stroke: #000000; stroke-width: 0.8"/>
      </g>
     </g>
     <g id="text_5">
      <!-- 0.00 -->
      <g transform="translate(229.0125 298.998438) scale(0.1 -0.1)">
       <use xlink:href="#DejaVuSans-30"/>
       <use xlink:href="#DejaVuSans-2e" transform="translate(63.623047 0)"/>
       <use xlink:href="#DejaVuSans-30" transform="translate(95.410156 0)"/>
       <use xlink:href="#DejaVuSans-30" transform="translate(159.033203 0)"/>
      </g>
     </g>
    </g>
    <g id="xtick_6">
     <g id="line2d_6">
      <g>
       <use xlink:href="#m13f5a21fa7" x="284.531676" y="284.4" style="stroke: #000000; stroke-width: 0.8"/>
      </g>
     </g>
     <g id="text_6">
      <!-- 0.25 -->
      <g transform="translate(273.398864 298.998438) scale(0.1 -0.1)">
       <use xlink:href="#DejaVuSans-30"/>
       <use xlink:href="#DejaVuSans-2e" transform="translate(63.623047 0)"/>
       <use xlink:href="#DejaVuSans-32" transform="translate(95.410156 0)"/>
       <use xlink:href="#DejaVuSans-35" transform="translate(159.033203 0)"/>
      </g>
     </g>
    </g>
    <g id="xtick_7">
     <g id="line2d_7">
      <g>
       <use xlink:href="#m13f5a21fa7" x="328.91804" y="284.4" style="stroke: #000000; stroke-width: 0.8"/>
      </g>
     </g>
     <g id="text_7">
      <!-- 0.50 -->
      <g transform="translate(317.785227 298.998438) scale(0.1 -0.1)">
       <use xlink:href="#DejaVuSans-30"/>
       <use xlink:href="#DejaVuSans-2e" transform="translate(63.623047 0)"/>
       <use xlink:href="#DejaVuSans-35" transform="translate(95.410156 0)"/>
       <use xlink:href="#DejaVuSans-30" transform="translate(159.033203 0)"/>
      </g>
     </g>
    </g>
    <g id="xtick_8">
     <g id="line2d_8">
      <g>
       <use xlink:href="#m13f5a21fa7" x="373.304403" y="284.4" style="stroke: #000000; stroke-width: 0.8"/>
      </g>
     </g>
     <g id="text_8">
      <!-- 0.75 -->
      <g transform="translate(362.171591 298.998438) scale(0.1 -0.1)">
       <use xlink:href="#DejaVuSans-30"/>
       <use xlink:href="#DejaVuSans-2e" transform="translate(63.623047 0)"/>
       <use xlink:href="#DejaVuSans-37" transform="translate(95.410156 0)"/>
       <use xlink:href="#DejaVuSans-35" transform="translate(159.033203 0)"/>
      </g>
     </g>
    </g>
    <g id="xtick_9">
     <g id="line2d_9">
      <g>
       <use xlink:href="#m13f5a21fa7" x="417.690767" y="284.4" style="stroke: #000000; stroke-width: 0.8"/>
      </g>
     </g>
     <g id="text_9">
      <!-- 1.00 -->
      <g transform="translate(406.557955 298.998438) scale(0.1 -0.1)">
       <use xlink:href="#DejaVuSans-31"/>
       <use xlink:href="#DejaVuSans-2e" transform="translate(63.623047 0)"/>
       <use xlink:href="#DejaVuSans-30" transform="translate(95.410156 0)"/>
       <use xlink:href="#DejaVuSans-30" transform="translate(159.033203 0)"/>
      </g>
     </g>
    </g>
   </g>
   <g id="matplotlib.axis_2">
    <g id="ytick_1">
     <g id="line2d_10">
      <defs>
       <path id="mfb75cef528" d="M 0 0 
L -3.5 0 
" style="stroke: #000000; stroke-width: 0.8"/>
      </defs>
      <g>
       <use xlink:href="#mfb75cef528" x="44.845313" y="271.8" style="stroke: #000000; stroke-width: 0.8"/>
      </g>
     </g>
     <g id="text_10">
      <!-- −1.00 -->
      <g transform="translate(7.2 275.599219) scale(0.1 -0.1)">
       <use xlink:href="#DejaVuSans-2212"/>
       <use xlink:href="#DejaVuSans-31" transform="translate(83.789062 0)"/>
       <use xlink:href="#DejaVuSans-2e" transform="translate(147.412109 0)"/>
       <use xlink:href="#DejaVuSans-30" transform="translate(179.199219 0)"/>
       <use xlink:href="#DejaVuSans-30" transform="translate(242.822266 0)"/>
      </g>
     </g>
    </g>
    <g id="ytick_2">
     <g id="line2d_11">
      <g>
       <use xlink:href="#mfb75cef528" x="44.845313" y="240.3" style="stroke: #000000; stroke-width: 0.8"/>
      </g>
     </g>
     <g id="text_11">
      <!-- −0.75 -->
      <g transform="translate(7.2 244.099219) scale(0.1 -0.1)">
       <use xlink:href="#DejaVuSans-2212"/>
       <use xlink:href="#DejaVuSans-30" transform="translate(83.789062 0)"/>
       <use xlink:href="#DejaVuSans-2e" transform="translate(147.412109 0)"/>
       <use xlink:href="#DejaVuSans-37" transform="translate(179.199219 0)"/>
       <use xlink:href="#DejaVuSans-35" transform="translate(242.822266 0)"/>
      </g>
     </g>
    </g>
    <g id="ytick_3">
     <g id="line2d_12">
      <g>
       <use xlink:href="#mfb75cef528" x="44.845313" y="208.8" style="stroke: #000000; stroke-width: 0.8"/>
      </g>
     </g>
     <g id="text_12">
      <!-- −0.50 -->
      <g transform="translate(7.2 212.599219) scale(0.1 -0.1)">
       <use xlink:href="#DejaVuSans-2212"/>
       <use xlink:href="#DejaVuSans-30" transform="translate(83.789062 0)"/>
       <use xlink:href="#DejaVuSans-2e" transform="translate(147.412109 0)"/>
       <use xlink:href="#DejaVuSans-35" transform="translate(179.199219 0)"/>
       <use xlink:href="#DejaVuSans-30" transform="translate(242.822266 0)"/>
      </g>
     </g>
    </g>
    <g id="ytick_4">
     <g id="line2d_13">
      <g>
       <use xlink:href="#mfb75cef528" x="44.845313" y="177.3" style="stroke: #000000; stroke-width: 0.8"/>
      </g>
     </g>
     <g id="text_13">
      <!-- −0.25 -->
      <g transform="translate(7.2 181.099219) scale(0.1 -0.1)">
       <use xlink:href="#DejaVuSans-2212"/>
       <use xlink:href="#DejaVuSans-30" transform="translate(83.789062 0)"/>
       <use xlink:href="#DejaVuSans-2e" transform="translate(147.412109 0)"/>
       <use xlink:href="#DejaVuSans-32" transform="translate(179.199219 0)"/>
       <use xlink:href="#DejaVuSans-35" transform="translate(242.822266 0)"/>
      </g>
     </g>
    </g>
    <g id="ytick_5">
     <g id="line2d_14">
      <g>
       <use xlink:href="#mfb75cef528" x="44.845313" y="145.8" style="stroke: #000000; stroke-width: 0.8"/>
      </g>
     </g>
     <g id="text_14">
      <!-- 0.00 -->
      <g transform="translate(15.579688 149.599219) scale(0.1 -0.1)">
       <use xlink:href="#DejaVuSans-30"/>
       <use xlink:href="#DejaVuSans-2e" transform="translate(63.623047 0)"/>
       <use xlink:href="#DejaVuSans-30" transform="translate(95.410156 0)"/>
       <use xlink:href="#DejaVuSans-30" transform="translate(159.033203 0)"/>
      </g>
     </g>
    </g>
    <g id="ytick_6">
     <g id="line2d_15">
      <g>
       <use xlink:href="#mfb75cef528" x="44.845313" y="114.3" style="stroke: #000000; stroke-width: 0.8"/>
      </g>
     </g>
     <g id="text_15">
      <!-- 0.25 -->
      <g transform="translate(15.579688 118.099219) scale(0.1 -0.1)">
       <use xlink:href="#DejaVuSans-30"/>
       <use xlink:href="#DejaVuSans-2e" transform="translate(63.623047 0)"/>
       <use xlink:href="#DejaVuSans-32" transform="translate(95.410156 0)"/>
       <use xlink:href="#DejaVuSans-35" transform="translate(159.033203 0)"/>
      </g>
     </g>
    </g>
    <g id="ytick_7">
     <g id="line2d_16">
      <g>
       <use xlink:href="#mfb75cef528" x="44.845313" y="82.8" style="stroke: #000000; stroke-width: 0.8"/>
      </g>
     </g>
     <g id="text_16">
      <!-- 0.50 -->
      <g transform="translate(15.579688 86.599219) scale(0.1 -0.1)">
       <use xlink:href="#DejaVuSans-30"/>
       <use xlink:href="#DejaVuSans-2e" transform="translate(63.623047 0)"/>
       <use xlink:href="#DejaVuSans-35" transform="translate(95.410156 0)"/>
       <use xlink:href="#DejaVuSans-30" transform="translate(159.033203 0)"/>
      </g>
     </g>
    </g>
    <g id="ytick_8">
     <g id="line2d_17">
      <g>
       <use xlink:href="#mfb75cef528" x="44.845313" y="51.3" style="stroke: #000000; stroke-width: 0.8"/>
      </g>
     </g>
     <g id="text_17">
      <!-- 0.75 -->
      <g transform="translate(15.579688 55.099219) scale(0.1 -0.1)">
       <use xlink:href="#DejaVuSans-30"/>
       <use xlink:href="#DejaVuSans-2e" transform="translate(63.623047 0)"/>
       <use xlink:href="#DejaVuSans-37" transform="translate(95.410156 0)"/>
       <use xlink:href="#DejaVuSans-35" transform="translate(159.033203 0)"/>
      </g>
     </g>
    </g>
    <g id="ytick_9">
     <g id="line2d_18">
      <g>
       <use xlink:href="#mfb75cef528" x="44.845313" y="19.8" style="stroke: #000000; stroke-width: 0.8"/>
      </g>
     </g>
     <g id="text_18">
      <!-- 1.00 -->
      <g transform="translate(15.579688 23.599219) scale(0.1 -0.1)">
       <use xlink:href="#DejaVuSans-31"/>
       <use xlink:href="#DejaVuSans-2e" transform="translate(63.623047 0)"/>
       <use xlink:href="#DejaVuSans-30" transform="translate(95.410156 0)"/>
       <use xlink:href="#DejaVuSans-30" transform="translate(159.033203 0)"/>
      </g>
     </g>
    </g>
   </g>
   <g id="patch_3">
    <path d="M 44.845313 284.4 
L 44.845313 7.2 
" style="fill: none; stroke: #000000; stroke-width: 0.8; stroke-linejoin: miter; stroke-linecap: square"/>
   </g>
   <g id="patch_4">
    <path d="M 435.445312 284.4 
L 435.445312 7.2 
" style="fill: none; stroke: #000000; stroke-width: 0.8; stroke-linejoin: miter; stroke-linecap: square"/>
   </g>
   <g id="patch_5">
    <path d="M 44.845312 284.4 
L 435.445313 284.4 
" style="fill: none; stroke: #000000; stroke-width: 0.8; stroke-linejoin: miter; stroke-linecap: square"/>
   </g>
   <g id="patch_6">
    <path d="M 44.845312 7.2 
L 435.445313 7.2 
" style="fill: none; stroke: #000000; stroke-width: 0.8; stroke-linejoin: miter; stroke-linecap: square"/>
   </g>
  </g>
 </g>
 <defs>
  <clipPath id="pbff206f386">
   <rect x="44.845313" y="7.2" width="390.6" height="277.2"/>
  </clipPath>
 </defs>
</svg>
