<?xml version="1.0" encoding="utf-8" standalone="no"?>
<!DOCTYPE svg PUBLIC "-//W3C//DTD SVG 1.1//EN"
  "http://www.w3.org/Graphics/SVG/1.1/DTD/svg11.dtd">
<svg xmlns:xlink="http://www.w3.org/1999/xlink" width="427.903125pt" height="145.960478pt" viewBox="0 0 427.903125 145.960478" xmlns="http://www.w3.org/2000/svg" version="1.1">
 <metadata>
  <rdf:RDF xmlns:dc="http://purl.org/dc/elements/1.1/" xmlns:cc="http://creativecommons.org/ns#" xmlns:rdf="http://www.w3.org/1999/02/22-rdf-syntax-ns#">
   <cc:Work>
    <dc:type rdf:resource="http://purl.org/dc/dcmitype/StillImage"/>
    <dc:date>2025-04-24T15:17:31.186948</dc:date>
    <dc:format>image/svg+xml</dc:format>
    <dc:creator>
     <cc:Agent>
      <dc:title>Matplotlib v3.10.0, https://matplotlib.org/</dc:title>
     </cc:Agent>
    </dc:creator>
   </cc:Work>
  </rdf:RDF>
 </metadata>
 <defs>
  <style type="text/css">*{stroke-linejoin: round; stroke-linecap: butt}</style>
 </defs>
 <g id="figure_1">
  <g id="patch_1">
   <path d="M 0 145.960478 
L 427.903125 145.960478 
L 427.903125 0 
L 0 0 
z
" style="fill: #ffffff"/>
  </g>
  <g id="axes_1">
   <g id="patch_2">
    <path d="M 30.103125 122.082353 
L 420.703125 122.082353 
L 420.703125 7.2 
L 30.103125 7.2 
z
" style="fill: #ffffff"/>
   </g>
   <g id="matplotlib.axis_1">
    <g id="xtick_1">
     <g id="line2d_1">
      <defs>
       <path id="m2617758b4b" d="M 0 0 
L 0 3.5 
" style="stroke: #000000; stroke-width: 0.8"/>
      </defs>
      <g>
       <use xlink:href="#m2617758b4b" x="47.85767" y="122.082353" style="stroke: #000000; stroke-width: 0.8"/>
      </g>
     </g>
     <g id="text_1">
      <!-- 0 -->
      <g transform="translate(44.67642 136.68079) scale(0.1 -0.1)">
       <defs>
        <path id="DejaVuSans-30" d="M 2034 4250 
Q 1547 4250 1301 3770 
Q 1056 3291 1056 2328 
Q 1056 1369 1301 889 
Q 1547 409 2034 409 
Q 2525 409 2770 889 
Q 3016 1369 3016 2328 
Q 3016 3291 2770 3770 
Q 2525 4250 2034 4250 
z
M 2034 4750 
Q 2819 4750 3233 4129 
Q 3647 3509 3647 2328 
Q 3647 1150 3233 529 
Q 2819 -91 2034 -91 
Q 1250 -91 836 529 
Q 422 1150 422 2328 
Q 422 3509 836 4129 
Q 1250 4750 2034 4750 
z
" transform="scale(0.015625)"/>
       </defs>
       <use xlink:href="#DejaVuSans-30"/>
      </g>
     </g>
    </g>
    <g id="xtick_2">
     <g id="line2d_2">
      <g>
       <use xlink:href="#m2617758b4b" x="107.536815" y="122.082353" style="stroke: #000000; stroke-width: 0.8"/>
      </g>
     </g>
     <g id="text_2">
      <!-- 20 -->
      <g transform="translate(101.174315 136.68079) scale(0.1 -0.1)">
       <defs>
        <path id="DejaVuSans-32" d="M 1228 531 
L 3431 531 
L 3431 0 
L 469 0 
L 469 531 
Q 828 903 1448 1529 
Q 2069 2156 2228 2338 
Q 2531 2678 2651 2914 
Q 2772 3150 2772 3378 
Q 2772 3750 2511 3984 
Q 2250 4219 1831 4219 
Q 1534 4219 1204 4116 
Q 875 4013 500 3803 
L 500 4441 
Q 881 4594 1212 4672 
Q 1544 4750 1819 4750 
Q 2544 4750 2975 4387 
Q 3406 4025 3406 3419 
Q 3406 3131 3298 2873 
Q 3191 2616 2906 2266 
Q 2828 2175 2409 1742 
Q 1991 1309 1228 531 
z
" transform="scale(0.015625)"/>
       </defs>
       <use xlink:href="#DejaVuSans-32"/>
       <use xlink:href="#DejaVuSans-30" transform="translate(63.623047 0)"/>
      </g>
     </g>
    </g>
    <g id="xtick_3">
     <g id="line2d_3">
      <g>
       <use xlink:href="#m2617758b4b" x="167.215959" y="122.082353" style="stroke: #000000; stroke-width: 0.8"/>
      </g>
     </g>
     <g id="text_3">
      <!-- 40 -->
      <g transform="translate(160.853459 136.68079) scale(0.1 -0.1)">
       <defs>
        <path id="DejaVuSans-34" d="M 2419 4116 
L 825 1625 
L 2419 1625 
L 2419 4116 
z
M 2253 4666 
L 3047 4666 
L 3047 1625 
L 3713 1625 
L 3713 1100 
L 3047 1100 
L 3047 0 
L 2419 0 
L 2419 1100 
L 313 1100 
L 313 1709 
L 2253 4666 
z
" transform="scale(0.015625)"/>
       </defs>
       <use xlink:href="#DejaVuSans-34"/>
       <use xlink:href="#DejaVuSans-30" transform="translate(63.623047 0)"/>
      </g>
     </g>
    </g>
    <g id="xtick_4">
     <g id="line2d_4">
      <g>
       <use xlink:href="#m2617758b4b" x="226.895104" y="122.082353" style="stroke: #000000; stroke-width: 0.8"/>
      </g>
     </g>
     <g id="text_4">
      <!-- 60 -->
      <g transform="translate(220.532604 136.68079) scale(0.1 -0.1)">
       <defs>
        <path id="DejaVuSans-36" d="M 2113 2584 
Q 1688 2584 1439 2293 
Q 1191 2003 1191 1497 
Q 1191 994 1439 701 
Q 1688 409 2113 409 
Q 2538 409 2786 701 
Q 3034 994 3034 1497 
Q 3034 2003 2786 2293 
Q 2538 2584 2113 2584 
z
M 3366 4563 
L 3366 3988 
Q 3128 4100 2886 4159 
Q 2644 4219 2406 4219 
Q 1781 4219 1451 3797 
Q 1122 3375 1075 2522 
Q 1259 2794 1537 2939 
Q 1816 3084 2150 3084 
Q 2853 3084 3261 2657 
Q 3669 2231 3669 1497 
Q 3669 778 3244 343 
Q 2819 -91 2113 -91 
Q 1303 -91 875 529 
Q 447 1150 447 2328 
Q 447 3434 972 4092 
Q 1497 4750 2381 4750 
Q 2619 4750 2861 4703 
Q 3103 4656 3366 4563 
z
" transform="scale(0.015625)"/>
       </defs>
       <use xlink:href="#DejaVuSans-36"/>
       <use xlink:href="#DejaVuSans-30" transform="translate(63.623047 0)"/>
      </g>
     </g>
    </g>
    <g id="xtick_5">
     <g id="line2d_5">
      <g>
       <use xlink:href="#m2617758b4b" x="286.574248" y="122.082353" style="stroke: #000000; stroke-width: 0.8"/>
      </g>
     </g>
     <g id="text_5">
      <!-- 80 -->
      <g transform="translate(280.211748 136.68079) scale(0.1 -0.1)">
       <defs>
        <path id="DejaVuSans-38" d="M 2034 2216 
Q 1584 2216 1326 1975 
Q 1069 1734 1069 1313 
Q 1069 891 1326 650 
Q 1584 409 2034 409 
Q 2484 409 2743 651 
Q 3003 894 3003 1313 
Q 3003 1734 2745 1975 
Q 2488 2216 2034 2216 
z
M 1403 2484 
Q 997 2584 770 2862 
Q 544 3141 544 3541 
Q 544 4100 942 4425 
Q 1341 4750 2034 4750 
Q 2731 4750 3128 4425 
Q 3525 4100 3525 3541 
Q 3525 3141 3298 2862 
Q 3072 2584 2669 2484 
Q 3125 2378 3379 2068 
Q 3634 1759 3634 1313 
Q 3634 634 3220 271 
Q 2806 -91 2034 -91 
Q 1263 -91 848 271 
Q 434 634 434 1313 
Q 434 1759 690 2068 
Q 947 2378 1403 2484 
z
M 1172 3481 
Q 1172 3119 1398 2916 
Q 1625 2713 2034 2713 
Q 2441 2713 2670 2916 
Q 2900 3119 2900 3481 
Q 2900 3844 2670 4047 
Q 2441 4250 2034 4250 
Q 1625 4250 1398 4047 
Q 1172 3844 1172 3481 
z
" transform="scale(0.015625)"/>
       </defs>
       <use xlink:href="#DejaVuSans-38"/>
       <use xlink:href="#DejaVuSans-30" transform="translate(63.623047 0)"/>
      </g>
     </g>
    </g>
    <g id="xtick_6">
     <g id="line2d_6">
      <g>
       <use xlink:href="#m2617758b4b" x="346.253392" y="122.082353" style="stroke: #000000; stroke-width: 0.8"/>
      </g>
     </g>
     <g id="text_6">
      <!-- 100 -->
      <g transform="translate(336.709642 136.68079) scale(0.1 -0.1)">
       <defs>
        <path id="DejaVuSans-31" d="M 794 531 
L 1825 531 
L 1825 4091 
L 703 3866 
L 703 4441 
L 1819 4666 
L 2450 4666 
L 2450 531 
L 3481 531 
L 3481 0 
L 794 0 
L 794 531 
z
" transform="scale(0.015625)"/>
       </defs>
       <use xlink:href="#DejaVuSans-31"/>
       <use xlink:href="#DejaVuSans-30" transform="translate(63.623047 0)"/>
       <use xlink:href="#DejaVuSans-30" transform="translate(127.246094 0)"/>
      </g>
     </g>
    </g>
    <g id="xtick_7">
     <g id="line2d_7">
      <g>
       <use xlink:href="#m2617758b4b" x="405.932537" y="122.082353" style="stroke: #000000; stroke-width: 0.8"/>
      </g>
     </g>
     <g id="text_7">
      <!-- 120 -->
      <g transform="translate(396.388787 136.68079) scale(0.1 -0.1)">
       <use xlink:href="#DejaVuSans-31"/>
       <use xlink:href="#DejaVuSans-32" transform="translate(63.623047 0)"/>
       <use xlink:href="#DejaVuSans-30" transform="translate(127.246094 0)"/>
      </g>
     </g>
    </g>
   </g>
   <g id="matplotlib.axis_2">
    <g id="ytick_1">
     <g id="line2d_8">
      <defs>
       <path id="m306ba855a1" d="M 0 0 
L -3.5 0 
" style="stroke: #000000; stroke-width: 0.8"/>
      </defs>
      <g>
       <use xlink:href="#m306ba855a1" x="30.103125" y="107.908556" style="stroke: #000000; stroke-width: 0.8"/>
      </g>
     </g>
     <g id="text_8">
      <!-- 0.2 -->
      <g transform="translate(7.2 111.707775) scale(0.1 -0.1)">
       <defs>
        <path id="DejaVuSans-2e" d="M 684 794 
L 1344 794 
L 1344 0 
L 684 0 
L 684 794 
z
" transform="scale(0.015625)"/>
       </defs>
       <use xlink:href="#DejaVuSans-30"/>
       <use xlink:href="#DejaVuSans-2e" transform="translate(63.623047 0)"/>
       <use xlink:href="#DejaVuSans-32" transform="translate(95.410156 0)"/>
      </g>
     </g>
    </g>
    <g id="ytick_2">
     <g id="line2d_9">
      <g>
       <use xlink:href="#m306ba855a1" x="30.103125" y="84.036898" style="stroke: #000000; stroke-width: 0.8"/>
      </g>
     </g>
     <g id="text_9">
      <!-- 0.4 -->
      <g transform="translate(7.2 87.836117) scale(0.1 -0.1)">
       <use xlink:href="#DejaVuSans-30"/>
       <use xlink:href="#DejaVuSans-2e" transform="translate(63.623047 0)"/>
       <use xlink:href="#DejaVuSans-34" transform="translate(95.410156 0)"/>
      </g>
     </g>
    </g>
    <g id="ytick_3">
     <g id="line2d_10">
      <g>
       <use xlink:href="#m306ba855a1" x="30.103125" y="60.165241" style="stroke: #000000; stroke-width: 0.8"/>
      </g>
     </g>
     <g id="text_10">
      <!-- 0.6 -->
      <g transform="translate(7.2 63.964459) scale(0.1 -0.1)">
       <use xlink:href="#DejaVuSans-30"/>
       <use xlink:href="#DejaVuSans-2e" transform="translate(63.623047 0)"/>
       <use xlink:href="#DejaVuSans-36" transform="translate(95.410156 0)"/>
      </g>
     </g>
    </g>
    <g id="ytick_4">
     <g id="line2d_11">
      <g>
       <use xlink:href="#m306ba855a1" x="30.103125" y="36.293583" style="stroke: #000000; stroke-width: 0.8"/>
      </g>
     </g>
     <g id="text_11">
      <!-- 0.8 -->
      <g transform="translate(7.2 40.092802) scale(0.1 -0.1)">
       <use xlink:href="#DejaVuSans-30"/>
       <use xlink:href="#DejaVuSans-2e" transform="translate(63.623047 0)"/>
       <use xlink:href="#DejaVuSans-38" transform="translate(95.410156 0)"/>
      </g>
     </g>
    </g>
    <g id="ytick_5">
     <g id="line2d_12">
      <g>
       <use xlink:href="#m306ba855a1" x="30.103125" y="12.421925" style="stroke: #000000; stroke-width: 0.8"/>
      </g>
     </g>
     <g id="text_12">
      <!-- 1.0 -->
      <g transform="translate(7.2 16.221144) scale(0.1 -0.1)">
       <use xlink:href="#DejaVuSans-31"/>
       <use xlink:href="#DejaVuSans-2e" transform="translate(63.623047 0)"/>
       <use xlink:href="#DejaVuSans-30" transform="translate(95.410156 0)"/>
      </g>
     </g>
    </g>
   </g>
   <g id="line2d_13">
    <path d="M 47.85767 70.443316 
L 50.841628 73.758824 
L 53.825585 72.10107 
L 56.809542 67.127807 
L 59.793499 73.758824 
L 62.777457 73.758824 
L 65.761414 77.074332 
L 68.745371 68.785561 
L 71.729328 70.443316 
L 74.713285 70.443316 
L 77.697243 68.785561 
L 80.6812 72.10107 
L 83.665157 70.443316 
L 86.649114 72.10107 
L 89.633072 70.443316 
L 92.617029 70.443316 
L 95.600986 72.10107 
L 98.584943 75.416578 
L 101.5689 70.443316 
L 104.552858 72.10107 
L 107.536815 67.127807 
L 110.520772 68.785561 
L 113.504729 68.785561 
L 116.488686 72.10107 
L 119.472644 72.10107 
L 122.456601 72.10107 
L 125.440558 72.10107 
L 128.424515 68.785561 
L 131.408473 72.10107 
L 134.39243 68.785561 
L 137.376387 62.154545 
L 140.360344 60.496791 
L 143.344301 52.208021 
L 146.328259 35.630481 
L 149.312216 37.288235 
L 152.296173 27.341711 
L 155.28013 25.683957 
L 158.264088 25.683957 
L 161.248045 25.683957 
L 164.232002 22.368449 
L 167.215959 25.683957 
L 170.199916 19.052941 
L 173.183874 20.710695 
L 176.167831 19.052941 
L 179.151788 17.395187 
L 182.135745 20.710695 
L 185.119703 15.737433 
L 188.10366 19.052941 
L 191.087617 19.052941 
L 194.071574 17.395187 
L 197.055531 15.737433 
L 200.039489 15.737433 
L 203.023446 15.737433 
L 206.007403 14.079679 
L 208.99136 15.737433 
L 211.975318 17.395187 
L 214.959275 14.079679 
L 217.943232 14.079679 
L 220.927189 14.079679 
L 223.911146 14.079679 
L 226.895104 14.079679 
L 229.879061 14.079679 
L 232.863018 12.421925 
L 235.846975 14.079679 
L 238.830932 14.079679 
L 241.81489 14.079679 
L 244.798847 14.079679 
L 247.782804 14.079679 
L 250.766761 14.079679 
L 253.750719 12.421925 
L 256.734676 14.079679 
L 259.718633 12.421925 
L 262.70259 14.079679 
L 265.686547 12.421925 
L 268.670505 14.079679 
L 271.654462 14.079679 
L 274.638419 14.079679 
L 277.622376 14.079679 
L 280.606334 14.079679 
L 283.590291 14.079679 
L 286.574248 14.079679 
L 289.558205 14.079679 
L 292.542162 14.079679 
L 295.52612 14.079679 
L 298.510077 14.079679 
L 301.494034 14.079679 
L 304.477991 14.079679 
L 307.461949 14.079679 
L 310.445906 14.079679 
L 313.429863 14.079679 
L 316.41382 14.079679 
L 319.397777 14.079679 
L 322.381735 14.079679 
L 325.365692 14.079679 
L 328.349649 14.079679 
L 331.333606 12.421925 
L 334.317564 14.079679 
L 337.301521 14.079679 
L 340.285478 12.421925 
L 343.269435 14.079679 
L 346.253392 12.421925 
L 349.23735 14.079679 
L 352.221307 14.079679 
L 355.205264 14.079679 
L 358.189221 14.079679 
L 361.173178 14.079679 
L 364.157136 14.079679 
L 367.141093 14.079679 
L 370.12505 14.079679 
L 373.109007 14.079679 
L 376.092965 14.079679 
L 379.076922 14.079679 
L 382.060879 14.079679 
L 385.044836 12.421925 
L 388.028793 14.079679 
L 391.012751 14.079679 
L 393.996708 14.079679 
L 396.980665 14.079679 
L 399.964622 14.079679 
L 402.94858 12.421925 
" clip-path="url(#pdaa1db58ba)" style="fill: none; stroke: #1f77b4; stroke-width: 1.5; stroke-linecap: square"/>
   </g>
   <g id="line2d_14">
    <path d="M 47.85767 48.264623 
L 50.841628 47.531184 
L 53.825585 48.154146 
L 56.809542 49.540961 
L 59.793499 47.971629 
L 62.777457 48.246084 
L 65.761414 47.771215 
L 68.745371 49.517449 
L 71.729328 49.239699 
L 74.713285 49.310817 
L 77.697243 49.768953 
L 80.6812 49.2494 
L 83.665157 49.556968 
L 86.649114 49.456645 
L 89.633072 49.759479 
L 92.617029 49.789165 
L 95.600986 49.753177 
L 98.584943 49.438469 
L 101.5689 50.100374 
L 104.552858 50.007154 
L 107.536815 50.581349 
L 110.520772 50.463362 
L 113.504729 50.531372 
L 116.488686 50.250766 
L 119.472644 50.44556 
L 122.456601 50.575165 
L 125.440558 50.645721 
L 128.424515 50.7966 
L 131.408473 50.669728 
L 134.39243 50.962444 
L 137.376387 51.202483 
L 140.360344 51.053413 
L 143.344301 51.322454 
L 146.328259 51.350771 
L 149.312216 51.646274 
L 152.296173 51.683113 
L 155.28013 51.639364 
L 158.264088 52.16526 
L 161.248045 52.143836 
L 164.232002 52.256253 
L 167.215959 52.489553 
L 170.199916 52.659681 
L 173.183874 52.682264 
L 176.167831 52.746046 
L 179.151788 53.282503 
L 182.135745 53.133541 
L 185.119703 53.380757 
L 188.10366 53.719268 
L 191.087617 53.87615 
L 194.071574 53.910469 
L 197.055531 54.345814 
L 200.039489 54.421409 
L 203.023446 54.781343 
L 206.007403 55.331753 
L 208.99136 55.400502 
L 211.975318 55.624296 
L 214.959275 55.967778 
L 217.943232 56.216556 
L 220.927189 56.424061 
L 223.911146 56.821177 
L 226.895104 57.140214 
L 229.879061 57.311135 
L 232.863018 58.007798 
L 235.846975 58.359349 
L 238.830932 58.769755 
L 241.81489 58.975302 
L 244.798847 59.46231 
L 247.782804 59.838376 
L 250.766761 60.138807 
L 253.750719 60.819002 
L 256.734676 61.212888 
L 259.718633 61.996975 
L 262.70259 62.110551 
L 265.686547 62.602196 
L 268.670505 63.196392 
L 271.654462 63.699072 
L 274.638419 64.184549 
L 277.622376 64.653374 
L 280.606334 65.125668 
L 283.590291 65.691226 
L 286.574248 66.276795 
L 289.558205 66.51871 
L 292.542162 67.486254 
L 295.52612 67.74786 
L 298.510077 68.805289 
L 301.494034 69.528233 
L 304.477991 69.596258 
L 307.461949 70.505508 
L 310.445906 70.886465 
L 313.429863 71.385778 
L 316.41382 72.536658 
L 319.397777 73.610149 
L 322.381735 73.816099 
L 325.365692 74.460425 
L 328.349649 75.112787 
L 331.333606 75.768285 
L 334.317564 76.192928 
L 337.301521 77.082787 
L 340.285478 78.345201 
L 343.269435 78.765587 
L 346.253392 79.82412 
L 349.23735 79.950837 
L 352.221307 80.728641 
L 355.205264 81.017308 
L 358.189221 82.399415 
L 361.173178 82.577466 
L 364.157136 83.446154 
L 367.141093 84.517763 
L 370.12505 84.360884 
L 373.109007 85.542869 
L 376.092965 86.275352 
L 379.076922 86.700727 
L 382.060879 86.974006 
L 385.044836 88.404747 
L 388.028793 88.457404 
L 391.012751 89.416335 
L 393.996708 90.273234 
L 396.980665 90.041655 
L 399.964622 91.179019 
L 402.94858 91.521772 
" clip-path="url(#pdaa1db58ba)" style="fill: none; stroke-dasharray: 1.5,2.475; stroke-dashoffset: 0; stroke: #ff7f0e; stroke-width: 1.5"/>
   </g>
   <g id="line2d_15">
    <path d="M 47.85767 87.020856 
L 50.841628 57.181283 
L 53.825585 72.10107 
L 56.809542 116.860428 
L 59.793499 57.181283 
L 62.777457 57.181283 
L 65.761414 27.341711 
L 68.745371 101.940642 
L 71.729328 87.020856 
L 74.713285 87.020856 
L 77.697243 101.940642 
L 80.6812 72.10107 
L 83.665157 87.020856 
L 86.649114 72.10107 
L 89.633072 87.020856 
L 92.617029 87.020856 
L 95.600986 72.10107 
L 98.584943 42.261497 
L 101.5689 87.020856 
L 104.552858 72.10107 
L 107.536815 116.860428 
L 110.520772 101.940642 
L 113.504729 101.940642 
L 116.488686 72.10107 
L 119.472644 72.10107 
L 122.456601 72.10107 
L 125.440558 72.10107 
L 128.424515 87.020856 
L 131.408473 57.181283 
L 134.39243 72.10107 
L 137.376387 72.10107 
L 140.360344 27.341711 
L 143.344301 57.181283 
L 146.328259 27.341711 
L 149.312216 42.261497 
L 152.296173 42.261497 
L 155.28013 27.341711 
L 158.264088 57.181283 
L 161.248045 27.341711 
L 164.232002 27.341711 
L 167.215959 27.341711 
L 170.199916 27.341711 
L 173.183874 12.421925 
L 176.167831 12.421925 
L 179.151788 42.261497 
L 182.135745 12.421925 
L 185.119703 12.421925 
L 188.10366 12.421925 
L 191.087617 12.421925 
L 194.071574 12.421925 
L 197.055531 12.421925 
L 200.039489 12.421925 
L 203.023446 12.421925 
L 206.007403 27.341711 
L 208.99136 12.421925 
L 211.975318 12.421925 
L 214.959275 12.421925 
L 217.943232 12.421925 
L 220.927189 12.421925 
L 223.911146 12.421925 
L 226.895104 12.421925 
L 229.879061 12.421925 
L 232.863018 27.341711 
L 235.846975 12.421925 
L 238.830932 12.421925 
L 241.81489 12.421925 
L 244.798847 12.421925 
L 247.782804 12.421925 
L 250.766761 12.421925 
L 253.750719 27.341711 
L 256.734676 12.421925 
L 259.718633 27.341711 
L 262.70259 12.421925 
L 265.686547 27.341711 
L 268.670505 12.421925 
L 271.654462 12.421925 
L 274.638419 12.421925 
L 277.622376 12.421925 
L 280.606334 12.421925 
L 283.590291 12.421925 
L 286.574248 12.421925 
L 289.558205 12.421925 
L 292.542162 12.421925 
L 295.52612 12.421925 
L 298.510077 12.421925 
L 301.494034 12.421925 
L 304.477991 12.421925 
L 307.461949 12.421925 
L 310.445906 12.421925 
L 313.429863 12.421925 
L 316.41382 12.421925 
L 319.397777 12.421925 
L 322.381735 12.421925 
L 325.365692 12.421925 
L 328.349649 12.421925 
L 331.333606 27.341711 
L 334.317564 12.421925 
L 337.301521 12.421925 
L 340.285478 27.341711 
L 343.269435 12.421925 
L 346.253392 27.341711 
L 349.23735 12.421925 
L 352.221307 12.421925 
L 355.205264 12.421925 
L 358.189221 12.421925 
L 361.173178 12.421925 
L 364.157136 12.421925 
L 367.141093 12.421925 
L 370.12505 12.421925 
L 373.109007 12.421925 
L 376.092965 12.421925 
L 379.076922 12.421925 
L 382.060879 12.421925 
L 385.044836 12.421925 
L 388.028793 12.421925 
L 391.012751 12.421925 
L 393.996708 12.421925 
L 396.980665 12.421925 
L 399.964622 12.421925 
L 402.94858 12.421925 
" clip-path="url(#pdaa1db58ba)" style="fill: none; stroke-dasharray: 5.55,2.4; stroke-dashoffset: 0; stroke: #2ca02c; stroke-width: 1.5"/>
   </g>
   <g id="line2d_16">
    <path d="M 47.85767 43.666146 
L 50.841628 52.076824 
L 53.825585 48.148189 
L 56.809542 37.385421 
L 59.793499 52.292608 
L 62.777457 51.773399 
L 65.761414 57.004038 
L 68.745371 43.620416 
L 71.729328 46.653843 
L 74.713285 46.97965 
L 77.697243 43.813292 
L 80.6812 49.390689 
L 83.665157 47.206369 
L 86.649114 49.0746 
L 89.633072 47.725315 
L 92.617029 48.243962 
L 95.600986 49.195529 
L 98.584943 53.074449 
L 101.5689 48.49531 
L 104.552858 49.895769 
L 107.536815 45.752296 
L 110.520772 47.168848 
L 113.504729 47.010291 
L 116.488686 50.979229 
L 119.472644 50.190067 
L 122.456601 50.446452 
L 125.440558 50.681708 
L 128.424515 50.045063 
L 131.408473 51.637608 
L 134.39243 51.090959 
L 137.376387 50.07633 
L 140.360344 52.318141 
L 143.344301 51.309332 
L 146.328259 52.108767 
L 149.312216 50.926106 
L 152.296173 51.414261 
L 155.28013 53.631386 
L 158.264088 50.440234 
L 161.248045 52.010661 
L 164.232002 51.607066 
L 167.215959 51.834959 
L 170.199916 52.026355 
L 173.183874 53.674107 
L 176.167831 54.272307 
L 179.151788 51.583347 
L 182.135745 54.636012 
L 185.119703 54.515538 
L 188.10366 53.531949 
L 191.087617 53.313554 
L 194.071574 56.517106 
L 197.055531 54.555961 
L 200.039489 55.777666 
L 203.023446 55.89333 
L 206.007403 52.611258 
L 208.99136 55.150177 
L 211.975318 56.061377 
L 214.959275 56.10994 
L 217.943232 56.779567 
L 220.927189 58.306333 
L 223.911146 57.512903 
L 226.895104 58.117598 
L 229.879061 60.163324 
L 232.863018 57.288276 
L 235.846975 57.359625 
L 238.830932 57.931124 
L 241.81489 59.857857 
L 244.798847 59.55165 
L 247.782804 59.779045 
L 250.766761 61.925503 
L 253.750719 59.583444 
L 256.734676 61.077214 
L 259.718633 58.816393 
L 262.70259 61.961074 
L 265.686547 62.741443 
L 268.670505 62.008278 
L 271.654462 63.583983 
L 274.638419 63.964997 
L 277.622376 64.710029 
L 280.606334 66.189399 
L 283.590291 66.400559 
L 286.574248 66.712529 
L 289.558205 70.818381 
L 292.542162 68.267887 
L 295.52612 71.354167 
L 298.510077 67.897794 
L 301.494034 67.675308 
L 304.477991 72.658419 
L 307.461949 71.59769 
L 310.445906 74.278621 
L 313.429863 75.351095 
L 316.41382 71.373361 
L 319.397777 69.455137 
L 322.381735 74.461786 
L 325.365692 75.333377 
L 328.349649 76.124396 
L 331.333606 76.168014 
L 334.317564 80.603707 
L 337.301521 78.367182 
L 340.285478 74.158631 
L 343.269435 77.259139 
L 346.253392 75.186542 
L 349.23735 80.942568 
L 352.221307 80.386151 
L 355.205264 84.798901 
L 358.189221 79.542842 
L 361.173178 84.875927 
L 364.157136 83.730289 
L 367.141093 80.715035 
L 370.12505 88.940285 
L 373.109007 85.20014 
L 376.092965 85.377251 
L 379.076922 88.463395 
L 382.060879 92.340985 
L 385.044836 86.150552 
L 388.028793 91.745994 
L 391.012751 90.540098 
L 393.996708 88.126476 
L 396.980665 97.225637 
L 399.964622 92.735474 
L 402.94858 95.770587 
" clip-path="url(#pdaa1db58ba)" style="fill: none; stroke-dasharray: 9.6,2.4,1.5,2.4; stroke-dashoffset: 0; stroke: #d62728; stroke-width: 1.5"/>
   </g>
   <g id="patch_3">
    <path d="M 30.103125 122.082353 
L 30.103125 7.2 
" style="fill: none; stroke: #000000; stroke-width: 0.8; stroke-linejoin: miter; stroke-linecap: square"/>
   </g>
   <g id="patch_4">
    <path d="M 420.703125 122.082353 
L 420.703125 7.2 
" style="fill: none; stroke: #000000; stroke-width: 0.8; stroke-linejoin: miter; stroke-linecap: square"/>
   </g>
   <g id="patch_5">
    <path d="M 30.103125 122.082353 
L 420.703125 122.082353 
" style="fill: none; stroke: #000000; stroke-width: 0.8; stroke-linejoin: miter; stroke-linecap: square"/>
   </g>
   <g id="patch_6">
    <path d="M 30.103125 7.2 
L 420.703125 7.2 
" style="fill: none; stroke: #000000; stroke-width: 0.8; stroke-linejoin: miter; stroke-linecap: square"/>
   </g>
   <g id="legend_1">
    <g id="patch_7">
     <path d="M 334.1125 117.082353 
L 413.703125 117.082353 
Q 415.703125 117.082353 415.703125 115.082353 
L 415.703125 56.257353 
Q 415.703125 54.257353 413.703125 54.257353 
L 334.1125 54.257353 
Q 332.1125 54.257353 332.1125 56.257353 
L 332.1125 115.082353 
Q 332.1125 117.082353 334.1125 117.082353 
z
" style="fill: #ffffff; opacity: 0.8; stroke: #cccccc; stroke-linejoin: miter"/>
    </g>
    <g id="line2d_17">
     <path d="M 336.1125 62.35579 
L 346.1125 62.35579 
L 356.1125 62.35579 
" style="fill: none; stroke: #1f77b4; stroke-width: 1.5; stroke-linecap: square"/>
    </g>
    <g id="text_13">
     <!-- train_acc -->
     <g transform="translate(364.1125 65.85579) scale(0.1 -0.1)">
      <defs>
       <path id="DejaVuSans-74" d="M 1172 4494 
L 1172 3500 
L 2356 3500 
L 2356 3053 
L 1172 3053 
L 1172 1153 
Q 1172 725 1289 603 
Q 1406 481 1766 481 
L 2356 481 
L 2356 0 
L 1766 0 
Q 1100 0 847 248 
Q 594 497 594 1153 
L 594 3053 
L 172 3053 
L 172 3500 
L 594 3500 
L 594 4494 
L 1172 4494 
z
" transform="scale(0.015625)"/>
       <path id="DejaVuSans-72" d="M 2631 2963 
Q 2534 3019 2420 3045 
Q 2306 3072 2169 3072 
Q 1681 3072 1420 2755 
Q 1159 2438 1159 1844 
L 1159 0 
L 581 0 
L 581 3500 
L 1159 3500 
L 1159 2956 
Q 1341 3275 1631 3429 
Q 1922 3584 2338 3584 
Q 2397 3584 2469 3576 
Q 2541 3569 2628 3553 
L 2631 2963 
z
" transform="scale(0.015625)"/>
       <path id="DejaVuSans-61" d="M 2194 1759 
Q 1497 1759 1228 1600 
Q 959 1441 959 1056 
Q 959 750 1161 570 
Q 1363 391 1709 391 
Q 2188 391 2477 730 
Q 2766 1069 2766 1631 
L 2766 1759 
L 2194 1759 
z
M 3341 1997 
L 3341 0 
L 2766 0 
L 2766 531 
Q 2569 213 2275 61 
Q 1981 -91 1556 -91 
Q 1019 -91 701 211 
Q 384 513 384 1019 
Q 384 1609 779 1909 
Q 1175 2209 1959 2209 
L 2766 2209 
L 2766 2266 
Q 2766 2663 2505 2880 
Q 2244 3097 1772 3097 
Q 1472 3097 1187 3025 
Q 903 2953 641 2809 
L 641 3341 
Q 956 3463 1253 3523 
Q 1550 3584 1831 3584 
Q 2591 3584 2966 3190 
Q 3341 2797 3341 1997 
z
" transform="scale(0.015625)"/>
       <path id="DejaVuSans-69" d="M 603 3500 
L 1178 3500 
L 1178 0 
L 603 0 
L 603 3500 
z
M 603 4863 
L 1178 4863 
L 1178 4134 
L 603 4134 
L 603 4863 
z
" transform="scale(0.015625)"/>
       <path id="DejaVuSans-6e" d="M 3513 2113 
L 3513 0 
L 2938 0 
L 2938 2094 
Q 2938 2591 2744 2837 
Q 2550 3084 2163 3084 
Q 1697 3084 1428 2787 
Q 1159 2491 1159 1978 
L 1159 0 
L 581 0 
L 581 3500 
L 1159 3500 
L 1159 2956 
Q 1366 3272 1645 3428 
Q 1925 3584 2291 3584 
Q 2894 3584 3203 3211 
Q 3513 2838 3513 2113 
z
" transform="scale(0.015625)"/>
       <path id="DejaVuSans-5f" d="M 3263 -1063 
L 3263 -1509 
L -63 -1509 
L -63 -1063 
L 3263 -1063 
z
" transform="scale(0.015625)"/>
       <path id="DejaVuSans-63" d="M 3122 3366 
L 3122 2828 
Q 2878 2963 2633 3030 
Q 2388 3097 2138 3097 
Q 1578 3097 1268 2742 
Q 959 2388 959 1747 
Q 959 1106 1268 751 
Q 1578 397 2138 397 
Q 2388 397 2633 464 
Q 2878 531 3122 666 
L 3122 134 
Q 2881 22 2623 -34 
Q 2366 -91 2075 -91 
Q 1284 -91 818 406 
Q 353 903 353 1747 
Q 353 2603 823 3093 
Q 1294 3584 2113 3584 
Q 2378 3584 2631 3529 
Q 2884 3475 3122 3366 
z
" transform="scale(0.015625)"/>
      </defs>
      <use xlink:href="#DejaVuSans-74"/>
      <use xlink:href="#DejaVuSans-72" transform="translate(39.208984 0)"/>
      <use xlink:href="#DejaVuSans-61" transform="translate(80.322266 0)"/>
      <use xlink:href="#DejaVuSans-69" transform="translate(141.601562 0)"/>
      <use xlink:href="#DejaVuSans-6e" transform="translate(169.384766 0)"/>
      <use xlink:href="#DejaVuSans-5f" transform="translate(232.763672 0)"/>
      <use xlink:href="#DejaVuSans-61" transform="translate(282.763672 0)"/>
      <use xlink:href="#DejaVuSans-63" transform="translate(344.042969 0)"/>
      <use xlink:href="#DejaVuSans-63" transform="translate(399.023438 0)"/>
     </g>
    </g>
    <g id="line2d_18">
     <path d="M 336.1125 77.31204 
L 346.1125 77.31204 
L 356.1125 77.31204 
" style="fill: none; stroke-dasharray: 1.5,2.475; stroke-dashoffset: 0; stroke: #ff7f0e; stroke-width: 1.5"/>
    </g>
    <g id="text_14">
     <!-- train_loss -->
     <g transform="translate(364.1125 80.81204) scale(0.1 -0.1)">
      <defs>
       <path id="DejaVuSans-6c" d="M 603 4863 
L 1178 4863 
L 1178 0 
L 603 0 
L 603 4863 
z
" transform="scale(0.015625)"/>
       <path id="DejaVuSans-6f" d="M 1959 3097 
Q 1497 3097 1228 2736 
Q 959 2375 959 1747 
Q 959 1119 1226 758 
Q 1494 397 1959 397 
Q 2419 397 2687 759 
Q 2956 1122 2956 1747 
Q 2956 2369 2687 2733 
Q 2419 3097 1959 3097 
z
M 1959 3584 
Q 2709 3584 3137 3096 
Q 3566 2609 3566 1747 
Q 3566 888 3137 398 
Q 2709 -91 1959 -91 
Q 1206 -91 779 398 
Q 353 888 353 1747 
Q 353 2609 779 3096 
Q 1206 3584 1959 3584 
z
" transform="scale(0.015625)"/>
       <path id="DejaVuSans-73" d="M 2834 3397 
L 2834 2853 
Q 2591 2978 2328 3040 
Q 2066 3103 1784 3103 
Q 1356 3103 1142 2972 
Q 928 2841 928 2578 
Q 928 2378 1081 2264 
Q 1234 2150 1697 2047 
L 1894 2003 
Q 2506 1872 2764 1633 
Q 3022 1394 3022 966 
Q 3022 478 2636 193 
Q 2250 -91 1575 -91 
Q 1294 -91 989 -36 
Q 684 19 347 128 
L 347 722 
Q 666 556 975 473 
Q 1284 391 1588 391 
Q 1994 391 2212 530 
Q 2431 669 2431 922 
Q 2431 1156 2273 1281 
Q 2116 1406 1581 1522 
L 1381 1569 
Q 847 1681 609 1914 
Q 372 2147 372 2553 
Q 372 3047 722 3315 
Q 1072 3584 1716 3584 
Q 2034 3584 2315 3537 
Q 2597 3491 2834 3397 
z
" transform="scale(0.015625)"/>
      </defs>
      <use xlink:href="#DejaVuSans-74"/>
      <use xlink:href="#DejaVuSans-72" transform="translate(39.208984 0)"/>
      <use xlink:href="#DejaVuSans-61" transform="translate(80.322266 0)"/>
      <use xlink:href="#DejaVuSans-69" transform="translate(141.601562 0)"/>
      <use xlink:href="#DejaVuSans-6e" transform="translate(169.384766 0)"/>
      <use xlink:href="#DejaVuSans-5f" transform="translate(232.763672 0)"/>
      <use xlink:href="#DejaVuSans-6c" transform="translate(282.763672 0)"/>
      <use xlink:href="#DejaVuSans-6f" transform="translate(310.546875 0)"/>
      <use xlink:href="#DejaVuSans-73" transform="translate(371.728516 0)"/>
      <use xlink:href="#DejaVuSans-73" transform="translate(423.828125 0)"/>
     </g>
    </g>
    <g id="line2d_19">
     <path d="M 336.1125 92.26829 
L 346.1125 92.26829 
L 356.1125 92.26829 
" style="fill: none; stroke-dasharray: 5.55,2.4; stroke-dashoffset: 0; stroke: #2ca02c; stroke-width: 1.5"/>
    </g>
    <g id="text_15">
     <!-- val_acc -->
     <g transform="translate(364.1125 95.76829) scale(0.1 -0.1)">
      <defs>
       <path id="DejaVuSans-76" d="M 191 3500 
L 800 3500 
L 1894 563 
L 2988 3500 
L 3597 3500 
L 2284 0 
L 1503 0 
L 191 3500 
z
" transform="scale(0.015625)"/>
      </defs>
      <use xlink:href="#DejaVuSans-76"/>
      <use xlink:href="#DejaVuSans-61" transform="translate(59.179688 0)"/>
      <use xlink:href="#DejaVuSans-6c" transform="translate(120.458984 0)"/>
      <use xlink:href="#DejaVuSans-5f" transform="translate(148.242188 0)"/>
      <use xlink:href="#DejaVuSans-61" transform="translate(198.242188 0)"/>
      <use xlink:href="#DejaVuSans-63" transform="translate(259.521484 0)"/>
      <use xlink:href="#DejaVuSans-63" transform="translate(314.501953 0)"/>
     </g>
    </g>
    <g id="line2d_20">
     <path d="M 336.1125 107.22454 
L 346.1125 107.22454 
L 356.1125 107.22454 
" style="fill: none; stroke-dasharray: 9.6,2.4,1.5,2.4; stroke-dashoffset: 0; stroke: #d62728; stroke-width: 1.5"/>
    </g>
    <g id="text_16">
     <!-- val_loss -->
     <g transform="translate(364.1125 110.72454) scale(0.1 -0.1)">
      <use xlink:href="#DejaVuSans-76"/>
      <use xlink:href="#DejaVuSans-61" transform="translate(59.179688 0)"/>
      <use xlink:href="#DejaVuSans-6c" transform="translate(120.458984 0)"/>
      <use xlink:href="#DejaVuSans-5f" transform="translate(148.242188 0)"/>
      <use xlink:href="#DejaVuSans-6c" transform="translate(198.242188 0)"/>
      <use xlink:href="#DejaVuSans-6f" transform="translate(226.025391 0)"/>
      <use xlink:href="#DejaVuSans-73" transform="translate(287.207031 0)"/>
      <use xlink:href="#DejaVuSans-73" transform="translate(339.306641 0)"/>
     </g>
    </g>
   </g>
  </g>
 </g>
 <defs>
  <clipPath id="pdaa1db58ba">
   <rect x="30.103125" y="7.2" width="390.6" height="114.882353"/>
  </clipPath>
 </defs>
</svg>
