<?xml version="1.0" encoding="utf-8" standalone="no"?>
<!DOCTYPE svg PUBLIC "-//W3C//DTD SVG 1.1//EN"
  "http://www.w3.org/Graphics/SVG/1.1/DTD/svg11.dtd">
<svg xmlns:xlink="http://www.w3.org/1999/xlink" width="427.903125pt" height="145.460655pt" viewBox="0 0 427.903125 145.460655" xmlns="http://www.w3.org/2000/svg" version="1.1">
 <metadata>
  <rdf:RDF xmlns:dc="http://purl.org/dc/elements/1.1/" xmlns:cc="http://creativecommons.org/ns#" xmlns:rdf="http://www.w3.org/1999/02/22-rdf-syntax-ns#">
   <cc:Work>
    <dc:type rdf:resource="http://purl.org/dc/dcmitype/StillImage"/>
    <dc:date>2025-04-23T08:15:56.430985</dc:date>
    <dc:format>image/svg+xml</dc:format>
    <dc:creator>
     <cc:Agent>
      <dc:title>Matplotlib v3.10.0, https://matplotlib.org/</dc:title>
     </cc:Agent>
    </dc:creator>
   </cc:Work>
  </rdf:RDF>
 </metadata>
 <defs>
  <style type="text/css">*{stroke-linejoin: round; stroke-linecap: butt}</style>
 </defs>
 <g id="figure_1">
  <g id="patch_1">
   <path d="M 0 145.460655 
L 427.903125 145.460655 
L 427.903125 -0 
L 0 -0 
z
" style="fill: #ffffff"/>
  </g>
  <g id="axes_1">
   <g id="patch_2">
    <path d="M 30.103125 121.58253 
L 420.703125 121.58253 
L 420.703125 7.2 
L 30.103125 7.2 
z
" style="fill: #ffffff"/>
   </g>
   <g id="matplotlib.axis_1">
    <g id="xtick_1">
     <g id="line2d_1">
      <defs>
       <path id="mfcce9e9b6b" d="M 0 0 
L 0 3.5 
" style="stroke: #000000; stroke-width: 0.8"/>
      </defs>
      <g>
       <use xlink:href="#mfcce9e9b6b" x="47.85767" y="121.58253" style="stroke: #000000; stroke-width: 0.8"/>
      </g>
     </g>
     <g id="text_1">
      <!-- 0 -->
      <g transform="translate(44.67642 136.180968) scale(0.1 -0.1)">
       <defs>
        <path id="DejaVuSans-30" d="M 2034 4250 
Q 1547 4250 1301 3770 
Q 1056 3291 1056 2328 
Q 1056 1369 1301 889 
Q 1547 409 2034 409 
Q 2525 409 2770 889 
Q 3016 1369 3016 2328 
Q 3016 3291 2770 3770 
Q 2525 4250 2034 4250 
z
M 2034 4750 
Q 2819 4750 3233 4129 
Q 3647 3509 3647 2328 
Q 3647 1150 3233 529 
Q 2819 -91 2034 -91 
Q 1250 -91 836 529 
Q 422 1150 422 2328 
Q 422 3509 836 4129 
Q 1250 4750 2034 4750 
z
" transform="scale(0.015625)"/>
       </defs>
       <use xlink:href="#DejaVuSans-30"/>
      </g>
     </g>
    </g>
    <g id="xtick_2">
     <g id="line2d_2">
      <g>
       <use xlink:href="#mfcce9e9b6b" x="119.161066" y="121.58253" style="stroke: #000000; stroke-width: 0.8"/>
      </g>
     </g>
     <g id="text_2">
      <!-- 50 -->
      <g transform="translate(112.798566 136.180968) scale(0.1 -0.1)">
       <defs>
        <path id="DejaVuSans-35" d="M 691 4666 
L 3169 4666 
L 3169 4134 
L 1269 4134 
L 1269 2991 
Q 1406 3038 1543 3061 
Q 1681 3084 1819 3084 
Q 2600 3084 3056 2656 
Q 3513 2228 3513 1497 
Q 3513 744 3044 326 
Q 2575 -91 1722 -91 
Q 1428 -91 1123 -41 
Q 819 9 494 109 
L 494 744 
Q 775 591 1075 516 
Q 1375 441 1709 441 
Q 2250 441 2565 725 
Q 2881 1009 2881 1497 
Q 2881 1984 2565 2268 
Q 2250 2553 1709 2553 
Q 1456 2553 1204 2497 
Q 953 2441 691 2322 
L 691 4666 
z
" transform="scale(0.015625)"/>
       </defs>
       <use xlink:href="#DejaVuSans-35"/>
       <use xlink:href="#DejaVuSans-30" transform="translate(63.623047 0)"/>
      </g>
     </g>
    </g>
    <g id="xtick_3">
     <g id="line2d_3">
      <g>
       <use xlink:href="#mfcce9e9b6b" x="190.464461" y="121.58253" style="stroke: #000000; stroke-width: 0.8"/>
      </g>
     </g>
     <g id="text_3">
      <!-- 100 -->
      <g transform="translate(180.920711 136.180968) scale(0.1 -0.1)">
       <defs>
        <path id="DejaVuSans-31" d="M 794 531 
L 1825 531 
L 1825 4091 
L 703 3866 
L 703 4441 
L 1819 4666 
L 2450 4666 
L 2450 531 
L 3481 531 
L 3481 0 
L 794 0 
L 794 531 
z
" transform="scale(0.015625)"/>
       </defs>
       <use xlink:href="#DejaVuSans-31"/>
       <use xlink:href="#DejaVuSans-30" transform="translate(63.623047 0)"/>
       <use xlink:href="#DejaVuSans-30" transform="translate(127.246094 0)"/>
      </g>
     </g>
    </g>
    <g id="xtick_4">
     <g id="line2d_4">
      <g>
       <use xlink:href="#mfcce9e9b6b" x="261.767857" y="121.58253" style="stroke: #000000; stroke-width: 0.8"/>
      </g>
     </g>
     <g id="text_4">
      <!-- 150 -->
      <g transform="translate(252.224107 136.180968) scale(0.1 -0.1)">
       <use xlink:href="#DejaVuSans-31"/>
       <use xlink:href="#DejaVuSans-35" transform="translate(63.623047 0)"/>
       <use xlink:href="#DejaVuSans-30" transform="translate(127.246094 0)"/>
      </g>
     </g>
    </g>
    <g id="xtick_5">
     <g id="line2d_5">
      <g>
       <use xlink:href="#mfcce9e9b6b" x="333.071252" y="121.58253" style="stroke: #000000; stroke-width: 0.8"/>
      </g>
     </g>
     <g id="text_5">
      <!-- 200 -->
      <g transform="translate(323.527502 136.180968) scale(0.1 -0.1)">
       <defs>
        <path id="DejaVuSans-32" d="M 1228 531 
L 3431 531 
L 3431 0 
L 469 0 
L 469 531 
Q 828 903 1448 1529 
Q 2069 2156 2228 2338 
Q 2531 2678 2651 2914 
Q 2772 3150 2772 3378 
Q 2772 3750 2511 3984 
Q 2250 4219 1831 4219 
Q 1534 4219 1204 4116 
Q 875 4013 500 3803 
L 500 4441 
Q 881 4594 1212 4672 
Q 1544 4750 1819 4750 
Q 2544 4750 2975 4387 
Q 3406 4025 3406 3419 
Q 3406 3131 3298 2873 
Q 3191 2616 2906 2266 
Q 2828 2175 2409 1742 
Q 1991 1309 1228 531 
z
" transform="scale(0.015625)"/>
       </defs>
       <use xlink:href="#DejaVuSans-32"/>
       <use xlink:href="#DejaVuSans-30" transform="translate(63.623047 0)"/>
       <use xlink:href="#DejaVuSans-30" transform="translate(127.246094 0)"/>
      </g>
     </g>
    </g>
    <g id="xtick_6">
     <g id="line2d_6">
      <g>
       <use xlink:href="#mfcce9e9b6b" x="404.374647" y="121.58253" style="stroke: #000000; stroke-width: 0.8"/>
      </g>
     </g>
     <g id="text_6">
      <!-- 250 -->
      <g transform="translate(394.830897 136.180968) scale(0.1 -0.1)">
       <use xlink:href="#DejaVuSans-32"/>
       <use xlink:href="#DejaVuSans-35" transform="translate(63.623047 0)"/>
       <use xlink:href="#DejaVuSans-30" transform="translate(127.246094 0)"/>
      </g>
     </g>
    </g>
   </g>
   <g id="matplotlib.axis_2">
    <g id="ytick_1">
     <g id="line2d_7">
      <defs>
       <path id="mf0b47b47ff" d="M 0 0 
L -3.5 0 
" style="stroke: #000000; stroke-width: 0.8"/>
      </defs>
      <g>
       <use xlink:href="#mf0b47b47ff" x="30.103125" y="107.4704" style="stroke: #000000; stroke-width: 0.8"/>
      </g>
     </g>
     <g id="text_7">
      <!-- 0.2 -->
      <g transform="translate(7.2 111.269619) scale(0.1 -0.1)">
       <defs>
        <path id="DejaVuSans-2e" d="M 684 794 
L 1344 794 
L 1344 0 
L 684 0 
L 684 794 
z
" transform="scale(0.015625)"/>
       </defs>
       <use xlink:href="#DejaVuSans-30"/>
       <use xlink:href="#DejaVuSans-2e" transform="translate(63.623047 0)"/>
       <use xlink:href="#DejaVuSans-32" transform="translate(95.410156 0)"/>
      </g>
     </g>
    </g>
    <g id="ytick_2">
     <g id="line2d_8">
      <g>
       <use xlink:href="#mf0b47b47ff" x="30.103125" y="83.702601" style="stroke: #000000; stroke-width: 0.8"/>
      </g>
     </g>
     <g id="text_8">
      <!-- 0.4 -->
      <g transform="translate(7.2 87.50182) scale(0.1 -0.1)">
       <defs>
        <path id="DejaVuSans-34" d="M 2419 4116 
L 825 1625 
L 2419 1625 
L 2419 4116 
z
M 2253 4666 
L 3047 4666 
L 3047 1625 
L 3713 1625 
L 3713 1100 
L 3047 1100 
L 3047 0 
L 2419 0 
L 2419 1100 
L 313 1100 
L 313 1709 
L 2253 4666 
z
" transform="scale(0.015625)"/>
       </defs>
       <use xlink:href="#DejaVuSans-30"/>
       <use xlink:href="#DejaVuSans-2e" transform="translate(63.623047 0)"/>
       <use xlink:href="#DejaVuSans-34" transform="translate(95.410156 0)"/>
      </g>
     </g>
    </g>
    <g id="ytick_3">
     <g id="line2d_9">
      <g>
       <use xlink:href="#mf0b47b47ff" x="30.103125" y="59.934803" style="stroke: #000000; stroke-width: 0.8"/>
      </g>
     </g>
     <g id="text_9">
      <!-- 0.6 -->
      <g transform="translate(7.2 63.734022) scale(0.1 -0.1)">
       <defs>
        <path id="DejaVuSans-36" d="M 2113 2584 
Q 1688 2584 1439 2293 
Q 1191 2003 1191 1497 
Q 1191 994 1439 701 
Q 1688 409 2113 409 
Q 2538 409 2786 701 
Q 3034 994 3034 1497 
Q 3034 2003 2786 2293 
Q 2538 2584 2113 2584 
z
M 3366 4563 
L 3366 3988 
Q 3128 4100 2886 4159 
Q 2644 4219 2406 4219 
Q 1781 4219 1451 3797 
Q 1122 3375 1075 2522 
Q 1259 2794 1537 2939 
Q 1816 3084 2150 3084 
Q 2853 3084 3261 2657 
Q 3669 2231 3669 1497 
Q 3669 778 3244 343 
Q 2819 -91 2113 -91 
Q 1303 -91 875 529 
Q 447 1150 447 2328 
Q 447 3434 972 4092 
Q 1497 4750 2381 4750 
Q 2619 4750 2861 4703 
Q 3103 4656 3366 4563 
z
" transform="scale(0.015625)"/>
       </defs>
       <use xlink:href="#DejaVuSans-30"/>
       <use xlink:href="#DejaVuSans-2e" transform="translate(63.623047 0)"/>
       <use xlink:href="#DejaVuSans-36" transform="translate(95.410156 0)"/>
      </g>
     </g>
    </g>
    <g id="ytick_4">
     <g id="line2d_10">
      <g>
       <use xlink:href="#mf0b47b47ff" x="30.103125" y="36.167004" style="stroke: #000000; stroke-width: 0.8"/>
      </g>
     </g>
     <g id="text_10">
      <!-- 0.8 -->
      <g transform="translate(7.2 39.966223) scale(0.1 -0.1)">
       <defs>
        <path id="DejaVuSans-38" d="M 2034 2216 
Q 1584 2216 1326 1975 
Q 1069 1734 1069 1313 
Q 1069 891 1326 650 
Q 1584 409 2034 409 
Q 2484 409 2743 651 
Q 3003 894 3003 1313 
Q 3003 1734 2745 1975 
Q 2488 2216 2034 2216 
z
M 1403 2484 
Q 997 2584 770 2862 
Q 544 3141 544 3541 
Q 544 4100 942 4425 
Q 1341 4750 2034 4750 
Q 2731 4750 3128 4425 
Q 3525 4100 3525 3541 
Q 3525 3141 3298 2862 
Q 3072 2584 2669 2484 
Q 3125 2378 3379 2068 
Q 3634 1759 3634 1313 
Q 3634 634 3220 271 
Q 2806 -91 2034 -91 
Q 1263 -91 848 271 
Q 434 634 434 1313 
Q 434 1759 690 2068 
Q 947 2378 1403 2484 
z
M 1172 3481 
Q 1172 3119 1398 2916 
Q 1625 2713 2034 2713 
Q 2441 2713 2670 2916 
Q 2900 3119 2900 3481 
Q 2900 3844 2670 4047 
Q 2441 4250 2034 4250 
Q 1625 4250 1398 4047 
Q 1172 3844 1172 3481 
z
" transform="scale(0.015625)"/>
       </defs>
       <use xlink:href="#DejaVuSans-30"/>
       <use xlink:href="#DejaVuSans-2e" transform="translate(63.623047 0)"/>
       <use xlink:href="#DejaVuSans-38" transform="translate(95.410156 0)"/>
      </g>
     </g>
    </g>
    <g id="ytick_5">
     <g id="line2d_11">
      <g>
       <use xlink:href="#mf0b47b47ff" x="30.103125" y="12.399206" style="stroke: #000000; stroke-width: 0.8"/>
      </g>
     </g>
     <g id="text_11">
      <!-- 1.0 -->
      <g transform="translate(7.2 16.198425) scale(0.1 -0.1)">
       <use xlink:href="#DejaVuSans-31"/>
       <use xlink:href="#DejaVuSans-2e" transform="translate(63.623047 0)"/>
       <use xlink:href="#DejaVuSans-30" transform="translate(95.410156 0)"/>
      </g>
     </g>
    </g>
   </g>
   <g id="line2d_12">
    <path d="M 47.85767 70.168161 
L 49.283738 73.469244 
L 50.709806 71.818702 
L 52.135874 66.867077 
L 53.561942 73.469244 
L 54.98801 73.469244 
L 56.414078 76.770327 
L 57.840146 68.517619 
L 59.266214 70.168161 
L 60.692282 70.168161 
L 62.11835 68.517619 
L 63.544417 71.818702 
L 64.970485 70.168161 
L 66.396553 71.818702 
L 67.822621 70.168161 
L 69.248689 70.168161 
L 70.674757 71.818702 
L 72.100825 75.119785 
L 73.526893 70.168161 
L 74.952961 71.818702 
L 76.379029 66.867077 
L 77.805097 68.517619 
L 79.231164 68.517619 
L 80.657232 71.818702 
L 84.935436 71.818702 
L 86.361504 70.168161 
L 87.787572 73.469244 
L 90.639708 70.168161 
L 92.065776 73.469244 
L 93.491844 73.469244 
L 96.343979 70.168161 
L 97.770047 70.168161 
L 99.196115 75.119785 
L 100.622183 68.517619 
L 103.474319 71.818702 
L 104.900387 70.168161 
L 106.326455 71.818702 
L 109.17859 71.818702 
L 110.604658 66.867077 
L 112.030726 73.469244 
L 113.456794 75.119785 
L 114.882862 68.517619 
L 116.30893 76.770327 
L 117.734998 73.469244 
L 120.587134 70.168161 
L 122.013202 70.168161 
L 123.43927 66.867077 
L 124.865337 71.818702 
L 126.291405 70.168161 
L 127.717473 73.469244 
L 129.143541 75.119785 
L 130.569609 73.469244 
L 131.995677 70.168161 
L 133.421745 73.469244 
L 137.699949 68.517619 
L 139.126017 70.168161 
L 140.552084 73.469244 
L 141.978152 71.818702 
L 146.256356 71.818702 
L 147.682424 75.119785 
L 149.108492 73.469244 
L 150.53456 70.168161 
L 151.960628 68.517619 
L 153.386696 71.818702 
L 154.812764 70.168161 
L 156.238831 65.216536 
L 157.664899 61.915453 
L 159.090967 65.216536 
L 160.517035 65.216536 
L 161.943103 52.012203 
L 163.369171 55.313286 
L 164.795239 47.060579 
L 166.221307 45.410037 
L 167.647375 38.807871 
L 169.073443 35.506788 
L 170.499511 40.458412 
L 171.925578 38.807871 
L 173.351646 33.856246 
L 174.777714 33.856246 
L 177.62985 30.555163 
L 179.055918 27.25408 
L 180.481986 27.25408 
L 181.908054 23.952997 
L 183.334122 19.001372 
L 184.76019 22.302455 
L 187.612325 19.001372 
L 189.038393 20.651914 
L 190.464461 17.350831 
L 191.890529 20.651914 
L 193.316597 20.651914 
L 194.742665 19.001372 
L 196.168733 19.001372 
L 197.594801 20.651914 
L 199.020869 19.001372 
L 200.446937 20.651914 
L 201.873005 19.001372 
L 203.299072 15.700289 
L 204.72514 17.350831 
L 207.577276 17.350831 
L 209.003344 19.001372 
L 210.429412 17.350831 
L 220.411887 17.350831 
L 221.837955 15.700289 
L 223.264023 17.350831 
L 224.690091 17.350831 
L 226.116159 14.049747 
L 227.542227 17.350831 
L 228.968295 17.350831 
L 230.394363 12.399206 
L 231.820431 14.049747 
L 278.880672 14.049747 
L 280.306739 12.399206 
L 281.732807 14.049747 
L 293.141351 14.049747 
L 294.567419 12.399206 
L 295.993486 14.049747 
L 317.384505 14.049747 
L 318.810573 12.399206 
L 320.236641 12.399206 
L 321.662709 14.049747 
L 324.514845 14.049747 
L 325.940913 12.399206 
L 327.36698 14.049747 
L 333.071252 14.049747 
L 334.49732 12.399206 
L 335.923388 14.049747 
L 340.201592 14.049747 
L 341.62766 12.399206 
L 343.053727 14.049747 
L 351.610135 14.049747 
L 353.036203 12.399206 
L 354.462271 14.049747 
L 374.427221 14.049747 
L 375.853289 12.399206 
L 377.279357 14.049747 
L 385.835765 14.049747 
L 387.261833 12.399206 
L 388.6879 12.399206 
L 390.113968 14.049747 
L 391.540036 12.399206 
L 397.244308 12.399206 
L 398.670376 14.049747 
L 400.096444 12.399206 
L 401.522512 14.049747 
L 402.94858 12.399206 
L 402.94858 12.399206 
" clip-path="url(#p14bcb9c5ac)" style="fill: none; stroke: #1f77b4; stroke-width: 1.5; stroke-linecap: square"/>
   </g>
   <g id="line2d_13">
    <path d="M 47.85767 48.793474 
L 49.283738 48.33284 
L 50.709806 48.591641 
L 52.135874 49.320152 
L 53.561942 48.367839 
L 54.98801 48.428218 
L 56.414078 48.022674 
L 57.840146 49.126472 
L 59.266214 48.919386 
L 60.692282 48.925969 
L 62.11835 49.197559 
L 63.544417 48.759763 
L 64.970485 48.977142 
L 66.396553 48.809178 
L 67.822621 49.016561 
L 69.248689 49.010879 
L 70.674757 48.866447 
L 72.100825 48.476364 
L 73.526893 49.08324 
L 74.952961 48.921002 
L 76.379029 49.495669 
L 77.805097 49.316288 
L 79.231164 49.324233 
L 80.657232 48.953995 
L 86.361504 49.208653 
L 87.787572 48.889378 
L 90.639708 49.289986 
L 92.065776 48.953402 
L 94.917911 49.16614 
L 96.343979 49.355846 
L 97.770047 49.349699 
L 99.196115 48.928021 
L 100.622183 49.584511 
L 103.474319 49.286788 
L 104.900387 49.465401 
L 106.326455 49.341854 
L 109.17859 49.350814 
L 110.604658 49.811501 
L 112.030726 49.269829 
L 113.456794 49.174683 
L 114.882862 49.7154 
L 116.30893 49.131183 
L 119.161066 49.558838 
L 122.013202 49.701115 
L 123.43927 49.991537 
L 124.865337 49.652306 
L 126.291405 49.777036 
L 129.143541 49.508812 
L 130.569609 49.642519 
L 131.995677 49.888288 
L 133.421745 49.716934 
L 136.273881 49.975295 
L 137.699949 50.089348 
L 139.126017 50.030831 
L 140.552084 49.848887 
L 141.978152 49.999729 
L 147.682424 49.987594 
L 149.108492 50.15871 
L 154.812764 50.237879 
L 156.238831 50.230409 
L 157.664899 50.468313 
L 160.517035 50.396158 
L 161.943103 50.521155 
L 166.221307 50.585948 
L 167.647375 50.801279 
L 169.073443 50.809021 
L 170.499511 50.669709 
L 173.351646 50.855413 
L 174.777714 50.858698 
L 177.62985 51.114731 
L 179.055918 51.029126 
L 186.186258 51.199868 
L 187.612325 51.454355 
L 197.594801 51.847019 
L 199.020869 52.066971 
L 200.446937 51.957922 
L 203.299072 52.032237 
L 204.72514 52.276596 
L 211.85548 52.561667 
L 213.281548 52.826598 
L 214.707616 52.659085 
L 217.559752 52.845012 
L 220.411887 53.118373 
L 221.837955 53.298786 
L 224.690091 53.456977 
L 228.968295 53.594119 
L 230.394363 53.909911 
L 231.820431 53.887955 
L 234.672566 54.050436 
L 236.098634 54.112004 
L 237.524702 54.345235 
L 238.95077 54.306532 
L 241.802906 54.824799 
L 243.228974 54.761776 
L 251.785381 55.565027 
L 253.211449 55.57618 
L 256.063585 56.232454 
L 257.489653 56.284704 
L 258.915721 56.005906 
L 260.341789 56.42185 
L 261.767857 56.561991 
L 263.193925 56.509897 
L 264.619992 56.84565 
L 267.472128 57.18963 
L 270.324264 57.618724 
L 273.1764 57.666435 
L 274.602468 58.076146 
L 276.028536 58.017646 
L 277.454604 58.146689 
L 280.306739 58.74807 
L 281.732807 58.678889 
L 283.158875 58.797193 
L 284.584943 59.24731 
L 286.011011 59.190221 
L 287.437079 59.759271 
L 288.863147 59.622371 
L 293.141351 60.123981 
L 294.567419 60.69661 
L 298.845622 60.881609 
L 300.27169 61.041618 
L 301.697758 61.448636 
L 303.123826 61.719149 
L 305.975962 61.838939 
L 308.828098 62.23097 
L 310.254166 62.792006 
L 311.680233 62.799426 
L 314.532369 63.446953 
L 315.958437 63.529665 
L 317.384505 63.326078 
L 318.810573 64.016883 
L 320.236641 64.456927 
L 321.662709 64.405808 
L 323.088777 64.523031 
L 325.940913 65.195276 
L 327.36698 64.850453 
L 328.793048 65.580077 
L 330.219116 65.221871 
L 331.645184 65.74138 
L 333.071252 65.786851 
L 334.49732 66.442226 
L 335.923388 66.3123 
L 337.349456 66.439546 
L 338.775524 66.868223 
L 340.201592 66.786801 
L 341.62766 67.506867 
L 343.053727 67.247674 
L 344.479795 67.785772 
L 347.331931 68.033243 
L 350.184067 68.231154 
L 351.610135 68.583467 
L 353.036203 69.190979 
L 354.462271 69.215829 
L 357.314406 69.513735 
L 358.740474 69.309267 
L 360.166542 69.910623 
L 361.59261 70.329136 
L 363.018678 70.329197 
L 364.444746 70.451982 
L 365.870814 70.286848 
L 367.296882 70.861261 
L 368.72295 71.138024 
L 371.575086 71.408013 
L 373.001153 71.370627 
L 374.427221 71.616817 
L 375.853289 72.639184 
L 377.279357 72.421344 
L 378.705425 72.730953 
L 380.131493 72.859529 
L 381.557561 72.78817 
L 382.983629 73.294881 
L 384.409697 73.236715 
L 385.835765 73.411802 
L 387.261833 73.774496 
L 388.6879 73.446946 
L 390.113968 73.861564 
L 391.540036 73.649484 
L 392.966104 74.893869 
L 394.392172 74.590704 
L 395.81824 74.617257 
L 397.244308 75.032312 
L 398.670376 74.82382 
L 400.096444 75.263534 
L 401.522512 75.168061 
L 402.94858 75.658762 
L 402.94858 75.658762 
" clip-path="url(#p14bcb9c5ac)" style="fill: none; stroke-dasharray: 1.5,2.475; stroke-dashoffset: 0; stroke: #ff7f0e; stroke-width: 1.5"/>
   </g>
   <g id="line2d_14">
    <path d="M 47.85767 86.673576 
L 49.283738 56.963828 
L 50.709806 71.818702 
L 52.135874 116.383324 
L 53.561942 56.963828 
L 54.98801 56.963828 
L 56.414078 27.25408 
L 57.840146 101.52845 
L 59.266214 86.673576 
L 60.692282 86.673576 
L 62.11835 101.52845 
L 63.544417 71.818702 
L 64.970485 86.673576 
L 66.396553 71.818702 
L 67.822621 86.673576 
L 69.248689 86.673576 
L 70.674757 71.818702 
L 72.100825 42.108954 
L 73.526893 86.673576 
L 74.952961 71.818702 
L 76.379029 116.383324 
L 77.805097 101.52845 
L 79.231164 101.52845 
L 80.657232 71.818702 
L 84.935436 71.818702 
L 86.361504 86.673576 
L 87.787572 56.963828 
L 90.639708 86.673576 
L 92.065776 56.963828 
L 93.491844 56.963828 
L 96.343979 86.673576 
L 97.770047 86.673576 
L 99.196115 42.108954 
L 100.622183 101.52845 
L 103.474319 71.818702 
L 104.900387 86.673576 
L 106.326455 71.818702 
L 109.17859 71.818702 
L 110.604658 116.383324 
L 112.030726 56.963828 
L 113.456794 42.108954 
L 114.882862 101.52845 
L 116.30893 27.25408 
L 117.734998 56.963828 
L 120.587134 86.673576 
L 122.013202 86.673576 
L 123.43927 116.383324 
L 124.865337 71.818702 
L 126.291405 86.673576 
L 127.717473 56.963828 
L 129.143541 42.108954 
L 130.569609 56.963828 
L 131.995677 86.673576 
L 133.421745 56.963828 
L 137.699949 101.52845 
L 139.126017 86.673576 
L 140.552084 56.963828 
L 141.978152 71.818702 
L 146.256356 71.818702 
L 147.682424 42.108954 
L 151.960628 86.673576 
L 153.386696 56.963828 
L 154.812764 56.963828 
L 156.238831 42.108954 
L 157.664899 86.673576 
L 160.517035 27.25408 
L 161.943103 71.818702 
L 163.369171 42.108954 
L 164.795239 42.108954 
L 166.221307 27.25408 
L 167.647375 71.818702 
L 169.073443 86.673576 
L 170.499511 12.399206 
L 171.925578 12.399206 
L 173.351646 27.25408 
L 174.777714 12.399206 
L 176.203782 27.25408 
L 177.62985 56.963828 
L 179.055918 12.399206 
L 180.481986 12.399206 
L 181.908054 27.25408 
L 183.334122 27.25408 
L 184.76019 12.399206 
L 186.186258 12.399206 
L 187.612325 27.25408 
L 189.038393 12.399206 
L 190.464461 42.108954 
L 191.890529 12.399206 
L 193.316597 27.25408 
L 196.168733 27.25408 
L 197.594801 12.399206 
L 201.873005 12.399206 
L 203.299072 27.25408 
L 204.72514 12.399206 
L 228.968295 12.399206 
L 230.394363 27.25408 
L 231.820431 12.399206 
L 278.880672 12.399206 
L 280.306739 27.25408 
L 281.732807 12.399206 
L 293.141351 12.399206 
L 294.567419 27.25408 
L 295.993486 12.399206 
L 317.384505 12.399206 
L 318.810573 27.25408 
L 320.236641 27.25408 
L 321.662709 12.399206 
L 324.514845 12.399206 
L 325.940913 27.25408 
L 327.36698 12.399206 
L 333.071252 12.399206 
L 334.49732 27.25408 
L 335.923388 12.399206 
L 340.201592 12.399206 
L 341.62766 27.25408 
L 343.053727 12.399206 
L 351.610135 12.399206 
L 353.036203 27.25408 
L 354.462271 12.399206 
L 374.427221 12.399206 
L 375.853289 27.25408 
L 377.279357 12.399206 
L 402.94858 12.399206 
L 402.94858 12.399206 
" clip-path="url(#p14bcb9c5ac)" style="fill: none; stroke-dasharray: 5.55,2.4; stroke-dashoffset: 0; stroke: #2ca02c; stroke-width: 1.5"/>
   </g>
   <g id="line2d_15">
    <path d="M 47.85767 46.369663 
L 49.283738 50.730248 
L 50.709806 48.561615 
L 52.135874 42.235356 
L 53.561942 50.903493 
L 54.98801 50.661263 
L 56.414078 54.404413 
L 57.840146 44.902297 
L 59.266214 46.84167 
L 60.692282 46.955669 
L 62.11835 44.686283 
L 63.544417 48.79958 
L 64.970485 46.932464 
L 66.396553 48.632541 
L 67.822621 47.05172 
L 69.248689 47.253723 
L 70.674757 48.673312 
L 72.100825 52.399165 
L 73.526893 47.23916 
L 74.952961 48.80728 
L 76.379029 43.854172 
L 77.805097 45.514745 
L 79.231164 45.505296 
L 80.657232 49.126392 
L 82.0833 48.933172 
L 84.935436 49.082121 
L 86.361504 47.59689 
L 87.787572 50.525143 
L 90.639708 47.556473 
L 92.065776 50.718511 
L 93.491844 50.468235 
L 94.917911 49.252972 
L 96.343979 47.799899 
L 97.770047 47.940199 
L 99.196115 52.034053 
L 100.622183 46.40593 
L 102.048251 48.020163 
L 103.474319 49.245265 
L 104.900387 48.020057 
L 106.326455 49.355241 
L 107.752523 49.630713 
L 109.17859 49.627525 
L 110.604658 45.774399 
L 112.030726 50.793559 
L 113.456794 51.925777 
L 114.882862 47.330528 
L 116.30893 52.610695 
L 119.161066 49.514206 
L 120.587134 48.823451 
L 122.013202 48.779138 
L 123.43927 46.228804 
L 124.865337 49.58397 
L 126.291405 48.747936 
L 127.717473 50.606212 
L 129.143541 51.732862 
L 130.569609 50.897855 
L 131.995677 48.922675 
L 133.421745 50.757455 
L 134.847813 50.349072 
L 136.273881 49.055339 
L 137.699949 48.229916 
L 139.126017 49.109335 
L 140.552084 51.019759 
L 141.978152 49.995952 
L 144.830288 50.383886 
L 146.256356 49.894738 
L 147.682424 51.441438 
L 149.108492 50.301393 
L 150.53456 50.241369 
L 151.960628 49.48306 
L 153.386696 50.956767 
L 154.812764 51.106346 
L 156.238831 51.464119 
L 157.664899 49.714686 
L 159.090967 50.751952 
L 160.517035 51.132746 
L 161.943103 50.412028 
L 163.369171 51.008964 
L 164.795239 51.220955 
L 166.221307 51.163891 
L 167.647375 49.674885 
L 169.073443 50.047901 
L 170.499511 51.669274 
L 173.351646 51.037666 
L 174.777714 51.36372 
L 176.203782 50.627462 
L 177.62985 50.143909 
L 179.055918 51.449301 
L 180.481986 51.598037 
L 181.908054 51.981728 
L 183.334122 51.014362 
L 184.76019 51.345161 
L 186.186258 52.581044 
L 187.612325 50.976919 
L 189.038393 50.970523 
L 190.464461 50.471181 
L 191.890529 51.666469 
L 193.316597 50.581951 
L 194.742665 52.072105 
L 196.168733 52.053589 
L 197.594801 51.837419 
L 199.020869 50.524512 
L 200.446937 52.178688 
L 201.873005 52.649356 
L 203.299072 52.927038 
L 204.72514 51.569647 
L 206.151208 51.787857 
L 207.577276 52.697062 
L 209.003344 52.724418 
L 210.429412 53.063761 
L 211.85548 53.034117 
L 213.281548 51.188159 
L 214.707616 53.708424 
L 216.133684 53.214849 
L 217.559752 53.639 
L 218.985819 53.640544 
L 220.411887 53.114591 
L 221.837955 52.281489 
L 223.264023 53.216577 
L 224.690091 52.814958 
L 226.116159 53.198309 
L 227.542227 54.416752 
L 228.968295 54.565262 
L 230.394363 52.815106 
L 231.820431 54.17924 
L 233.246498 54.107366 
L 234.672566 54.905192 
L 236.098634 55.356005 
L 237.524702 54.498381 
L 238.95077 55.849871 
L 241.802906 53.572119 
L 243.228974 55.395835 
L 244.655042 55.163451 
L 246.08111 55.523902 
L 247.507178 55.210924 
L 248.933245 53.945709 
L 250.359313 55.474028 
L 251.785381 55.554665 
L 253.211449 56.875059 
L 254.637517 55.032254 
L 256.063585 53.807166 
L 257.489653 54.873289 
L 258.915721 58.471705 
L 260.341789 56.438703 
L 261.767857 56.623515 
L 263.193925 58.373189 
L 264.619992 56.839218 
L 266.04606 57.347165 
L 268.898196 56.700922 
L 270.324264 56.249868 
L 271.750332 57.754054 
L 273.1764 58.917984 
L 274.602468 56.736495 
L 276.028536 59.154129 
L 277.454604 59.540873 
L 278.880672 58.920201 
L 280.306739 57.453175 
L 281.732807 59.726833 
L 283.158875 60.698513 
L 284.584943 58.431315 
L 286.011011 60.519078 
L 287.437079 57.283302 
L 288.863147 60.422305 
L 290.289215 60.692145 
L 291.715283 61.391209 
L 293.141351 61.4543 
L 294.567419 58.297631 
L 295.993486 59.916072 
L 297.419554 62.200135 
L 298.845622 62.202515 
L 300.27169 62.616551 
L 301.697758 60.908287 
L 303.123826 60.716788 
L 304.549894 61.791248 
L 305.975962 63.472072 
L 307.40203 63.299125 
L 308.828098 63.665667 
L 310.254166 60.92064 
L 311.680233 62.816777 
L 313.106301 61.997544 
L 314.532369 61.34431 
L 315.958437 62.539088 
L 317.384505 66.500625 
L 318.810573 62.181605 
L 320.236641 60.491963 
L 321.662709 63.051363 
L 323.088777 64.236522 
L 324.514845 63.003303 
L 325.940913 62.134423 
L 327.36698 67.056704 
L 328.793048 62.869215 
L 330.219116 68.410807 
L 331.645184 65.929961 
L 333.071252 67.676412 
L 334.49732 63.647888 
L 335.923388 66.900069 
L 337.349456 68.018666 
L 338.775524 66.31985 
L 340.201592 68.99653 
L 341.62766 64.738265 
L 343.053727 68.954753 
L 344.479795 66.531699 
L 345.905863 67.834307 
L 348.757999 69.067597 
L 350.184067 70.895287 
L 351.610135 69.571387 
L 353.036203 66.324865 
L 354.462271 68.207331 
L 355.888339 69.009514 
L 357.314406 69.40133 
L 358.740474 73.285821 
L 360.166542 70.059891 
L 361.59261 68.165192 
L 363.018678 70.151046 
L 364.444746 71.211021 
L 365.870814 74.738231 
L 367.296882 71.615651 
L 368.72295 70.852015 
L 370.149018 71.551312 
L 371.575086 72.501098 
L 373.001153 74.812068 
L 374.427221 74.67786 
L 375.853289 67.176469 
L 377.279357 71.190175 
L 378.705425 70.232831 
L 380.131493 70.948342 
L 381.557561 73.549513 
L 382.983629 70.76552 
L 384.409697 73.224585 
L 385.835765 73.193064 
L 387.261833 72.008178 
L 388.6879 76.849872 
L 390.113968 74.705301 
L 391.540036 78.448801 
L 392.966104 68.962353 
L 394.392172 73.477128 
L 395.81824 74.990668 
L 397.244308 73.105132 
L 398.670376 76.530643 
L 400.096444 74.36672 
L 401.522512 76.872468 
L 402.94858 73.891944 
L 402.94858 73.891944 
" clip-path="url(#p14bcb9c5ac)" style="fill: none; stroke-dasharray: 9.6,2.4,1.5,2.4; stroke-dashoffset: 0; stroke: #d62728; stroke-width: 1.5"/>
   </g>
   <g id="patch_3">
    <path d="M 30.103125 121.58253 
L 30.103125 7.2 
" style="fill: none; stroke: #000000; stroke-width: 0.8; stroke-linejoin: miter; stroke-linecap: square"/>
   </g>
   <g id="patch_4">
    <path d="M 420.703125 121.58253 
L 420.703125 7.2 
" style="fill: none; stroke: #000000; stroke-width: 0.8; stroke-linejoin: miter; stroke-linecap: square"/>
   </g>
   <g id="patch_5">
    <path d="M 30.103125 121.58253 
L 420.703125 121.58253 
" style="fill: none; stroke: #000000; stroke-width: 0.8; stroke-linejoin: miter; stroke-linecap: square"/>
   </g>
   <g id="patch_6">
    <path d="M 30.103125 7.2 
L 420.703125 7.2 
" style="fill: none; stroke: #000000; stroke-width: 0.8; stroke-linejoin: miter; stroke-linecap: square"/>
   </g>
   <g id="legend_1">
    <g id="patch_7">
     <path d="M 334.1125 116.58253 
L 413.703125 116.58253 
Q 415.703125 116.58253 415.703125 114.58253 
L 415.703125 55.75753 
Q 415.703125 53.75753 413.703125 53.75753 
L 334.1125 53.75753 
Q 332.1125 53.75753 332.1125 55.75753 
L 332.1125 114.58253 
Q 332.1125 116.58253 334.1125 116.58253 
z
" style="fill: #ffffff; opacity: 0.8; stroke: #cccccc; stroke-linejoin: miter"/>
    </g>
    <g id="line2d_16">
     <path d="M 336.1125 61.855968 
L 346.1125 61.855968 
L 356.1125 61.855968 
" style="fill: none; stroke: #1f77b4; stroke-width: 1.5; stroke-linecap: square"/>
    </g>
    <g id="text_12">
     <!-- train_acc -->
     <g transform="translate(364.1125 65.355968) scale(0.1 -0.1)">
      <defs>
       <path id="DejaVuSans-74" d="M 1172 4494 
L 1172 3500 
L 2356 3500 
L 2356 3053 
L 1172 3053 
L 1172 1153 
Q 1172 725 1289 603 
Q 1406 481 1766 481 
L 2356 481 
L 2356 0 
L 1766 0 
Q 1100 0 847 248 
Q 594 497 594 1153 
L 594 3053 
L 172 3053 
L 172 3500 
L 594 3500 
L 594 4494 
L 1172 4494 
z
" transform="scale(0.015625)"/>
       <path id="DejaVuSans-72" d="M 2631 2963 
Q 2534 3019 2420 3045 
Q 2306 3072 2169 3072 
Q 1681 3072 1420 2755 
Q 1159 2438 1159 1844 
L 1159 0 
L 581 0 
L 581 3500 
L 1159 3500 
L 1159 2956 
Q 1341 3275 1631 3429 
Q 1922 3584 2338 3584 
Q 2397 3584 2469 3576 
Q 2541 3569 2628 3553 
L 2631 2963 
z
" transform="scale(0.015625)"/>
       <path id="DejaVuSans-61" d="M 2194 1759 
Q 1497 1759 1228 1600 
Q 959 1441 959 1056 
Q 959 750 1161 570 
Q 1363 391 1709 391 
Q 2188 391 2477 730 
Q 2766 1069 2766 1631 
L 2766 1759 
L 2194 1759 
z
M 3341 1997 
L 3341 0 
L 2766 0 
L 2766 531 
Q 2569 213 2275 61 
Q 1981 -91 1556 -91 
Q 1019 -91 701 211 
Q 384 513 384 1019 
Q 384 1609 779 1909 
Q 1175 2209 1959 2209 
L 2766 2209 
L 2766 2266 
Q 2766 2663 2505 2880 
Q 2244 3097 1772 3097 
Q 1472 3097 1187 3025 
Q 903 2953 641 2809 
L 641 3341 
Q 956 3463 1253 3523 
Q 1550 3584 1831 3584 
Q 2591 3584 2966 3190 
Q 3341 2797 3341 1997 
z
" transform="scale(0.015625)"/>
       <path id="DejaVuSans-69" d="M 603 3500 
L 1178 3500 
L 1178 0 
L 603 0 
L 603 3500 
z
M 603 4863 
L 1178 4863 
L 1178 4134 
L 603 4134 
L 603 4863 
z
" transform="scale(0.015625)"/>
       <path id="DejaVuSans-6e" d="M 3513 2113 
L 3513 0 
L 2938 0 
L 2938 2094 
Q 2938 2591 2744 2837 
Q 2550 3084 2163 3084 
Q 1697 3084 1428 2787 
Q 1159 2491 1159 1978 
L 1159 0 
L 581 0 
L 581 3500 
L 1159 3500 
L 1159 2956 
Q 1366 3272 1645 3428 
Q 1925 3584 2291 3584 
Q 2894 3584 3203 3211 
Q 3513 2838 3513 2113 
z
" transform="scale(0.015625)"/>
       <path id="DejaVuSans-5f" d="M 3263 -1063 
L 3263 -1509 
L -63 -1509 
L -63 -1063 
L 3263 -1063 
z
" transform="scale(0.015625)"/>
       <path id="DejaVuSans-63" d="M 3122 3366 
L 3122 2828 
Q 2878 2963 2633 3030 
Q 2388 3097 2138 3097 
Q 1578 3097 1268 2742 
Q 959 2388 959 1747 
Q 959 1106 1268 751 
Q 1578 397 2138 397 
Q 2388 397 2633 464 
Q 2878 531 3122 666 
L 3122 134 
Q 2881 22 2623 -34 
Q 2366 -91 2075 -91 
Q 1284 -91 818 406 
Q 353 903 353 1747 
Q 353 2603 823 3093 
Q 1294 3584 2113 3584 
Q 2378 3584 2631 3529 
Q 2884 3475 3122 3366 
z
" transform="scale(0.015625)"/>
      </defs>
      <use xlink:href="#DejaVuSans-74"/>
      <use xlink:href="#DejaVuSans-72" transform="translate(39.208984 0)"/>
      <use xlink:href="#DejaVuSans-61" transform="translate(80.322266 0)"/>
      <use xlink:href="#DejaVuSans-69" transform="translate(141.601562 0)"/>
      <use xlink:href="#DejaVuSans-6e" transform="translate(169.384766 0)"/>
      <use xlink:href="#DejaVuSans-5f" transform="translate(232.763672 0)"/>
      <use xlink:href="#DejaVuSans-61" transform="translate(282.763672 0)"/>
      <use xlink:href="#DejaVuSans-63" transform="translate(344.042969 0)"/>
      <use xlink:href="#DejaVuSans-63" transform="translate(399.023438 0)"/>
     </g>
    </g>
    <g id="line2d_17">
     <path d="M 336.1125 76.812218 
L 346.1125 76.812218 
L 356.1125 76.812218 
" style="fill: none; stroke-dasharray: 1.5,2.475; stroke-dashoffset: 0; stroke: #ff7f0e; stroke-width: 1.5"/>
    </g>
    <g id="text_13">
     <!-- train_loss -->
     <g transform="translate(364.1125 80.312218) scale(0.1 -0.1)">
      <defs>
       <path id="DejaVuSans-6c" d="M 603 4863 
L 1178 4863 
L 1178 0 
L 603 0 
L 603 4863 
z
" transform="scale(0.015625)"/>
       <path id="DejaVuSans-6f" d="M 1959 3097 
Q 1497 3097 1228 2736 
Q 959 2375 959 1747 
Q 959 1119 1226 758 
Q 1494 397 1959 397 
Q 2419 397 2687 759 
Q 2956 1122 2956 1747 
Q 2956 2369 2687 2733 
Q 2419 3097 1959 3097 
z
M 1959 3584 
Q 2709 3584 3137 3096 
Q 3566 2609 3566 1747 
Q 3566 888 3137 398 
Q 2709 -91 1959 -91 
Q 1206 -91 779 398 
Q 353 888 353 1747 
Q 353 2609 779 3096 
Q 1206 3584 1959 3584 
z
" transform="scale(0.015625)"/>
       <path id="DejaVuSans-73" d="M 2834 3397 
L 2834 2853 
Q 2591 2978 2328 3040 
Q 2066 3103 1784 3103 
Q 1356 3103 1142 2972 
Q 928 2841 928 2578 
Q 928 2378 1081 2264 
Q 1234 2150 1697 2047 
L 1894 2003 
Q 2506 1872 2764 1633 
Q 3022 1394 3022 966 
Q 3022 478 2636 193 
Q 2250 -91 1575 -91 
Q 1294 -91 989 -36 
Q 684 19 347 128 
L 347 722 
Q 666 556 975 473 
Q 1284 391 1588 391 
Q 1994 391 2212 530 
Q 2431 669 2431 922 
Q 2431 1156 2273 1281 
Q 2116 1406 1581 1522 
L 1381 1569 
Q 847 1681 609 1914 
Q 372 2147 372 2553 
Q 372 3047 722 3315 
Q 1072 3584 1716 3584 
Q 2034 3584 2315 3537 
Q 2597 3491 2834 3397 
z
" transform="scale(0.015625)"/>
      </defs>
      <use xlink:href="#DejaVuSans-74"/>
      <use xlink:href="#DejaVuSans-72" transform="translate(39.208984 0)"/>
      <use xlink:href="#DejaVuSans-61" transform="translate(80.322266 0)"/>
      <use xlink:href="#DejaVuSans-69" transform="translate(141.601562 0)"/>
      <use xlink:href="#DejaVuSans-6e" transform="translate(169.384766 0)"/>
      <use xlink:href="#DejaVuSans-5f" transform="translate(232.763672 0)"/>
      <use xlink:href="#DejaVuSans-6c" transform="translate(282.763672 0)"/>
      <use xlink:href="#DejaVuSans-6f" transform="translate(310.546875 0)"/>
      <use xlink:href="#DejaVuSans-73" transform="translate(371.728516 0)"/>
      <use xlink:href="#DejaVuSans-73" transform="translate(423.828125 0)"/>
     </g>
    </g>
    <g id="line2d_18">
     <path d="M 336.1125 91.768468 
L 346.1125 91.768468 
L 356.1125 91.768468 
" style="fill: none; stroke-dasharray: 5.55,2.4; stroke-dashoffset: 0; stroke: #2ca02c; stroke-width: 1.5"/>
    </g>
    <g id="text_14">
     <!-- val_acc -->
     <g transform="translate(364.1125 95.268468) scale(0.1 -0.1)">
      <defs>
       <path id="DejaVuSans-76" d="M 191 3500 
L 800 3500 
L 1894 563 
L 2988 3500 
L 3597 3500 
L 2284 0 
L 1503 0 
L 191 3500 
z
" transform="scale(0.015625)"/>
      </defs>
      <use xlink:href="#DejaVuSans-76"/>
      <use xlink:href="#DejaVuSans-61" transform="translate(59.179688 0)"/>
      <use xlink:href="#DejaVuSans-6c" transform="translate(120.458984 0)"/>
      <use xlink:href="#DejaVuSans-5f" transform="translate(148.242188 0)"/>
      <use xlink:href="#DejaVuSans-61" transform="translate(198.242188 0)"/>
      <use xlink:href="#DejaVuSans-63" transform="translate(259.521484 0)"/>
      <use xlink:href="#DejaVuSans-63" transform="translate(314.501953 0)"/>
     </g>
    </g>
    <g id="line2d_19">
     <path d="M 336.1125 106.724718 
L 346.1125 106.724718 
L 356.1125 106.724718 
" style="fill: none; stroke-dasharray: 9.6,2.4,1.5,2.4; stroke-dashoffset: 0; stroke: #d62728; stroke-width: 1.5"/>
    </g>
    <g id="text_15">
     <!-- val_loss -->
     <g transform="translate(364.1125 110.224718) scale(0.1 -0.1)">
      <use xlink:href="#DejaVuSans-76"/>
      <use xlink:href="#DejaVuSans-61" transform="translate(59.179688 0)"/>
      <use xlink:href="#DejaVuSans-6c" transform="translate(120.458984 0)"/>
      <use xlink:href="#DejaVuSans-5f" transform="translate(148.242188 0)"/>
      <use xlink:href="#DejaVuSans-6c" transform="translate(198.242188 0)"/>
      <use xlink:href="#DejaVuSans-6f" transform="translate(226.025391 0)"/>
      <use xlink:href="#DejaVuSans-73" transform="translate(287.207031 0)"/>
      <use xlink:href="#DejaVuSans-73" transform="translate(339.306641 0)"/>
     </g>
    </g>
   </g>
  </g>
 </g>
 <defs>
  <clipPath id="p14bcb9c5ac">
   <rect x="30.103125" y="7.2" width="390.6" height="114.38253"/>
  </clipPath>
 </defs>
</svg>
