<?xml version="1.0" encoding="utf-8" standalone="no"?>
<!DOCTYPE svg PUBLIC "-//W3C//DTD SVG 1.1//EN"
  "http://www.w3.org/Graphics/SVG/1.1/DTD/svg11.dtd">
<svg xmlns:xlink="http://www.w3.org/1999/xlink" width="427.903125pt" height="162.287427pt" viewBox="0 0 427.903125 162.287427" xmlns="http://www.w3.org/2000/svg" version="1.1">
 <metadata>
  <rdf:RDF xmlns:dc="http://purl.org/dc/elements/1.1/" xmlns:cc="http://creativecommons.org/ns#" xmlns:rdf="http://www.w3.org/1999/02/22-rdf-syntax-ns#">
   <cc:Work>
    <dc:type rdf:resource="http://purl.org/dc/dcmitype/StillImage"/>
    <dc:date>2025-04-03T14:52:33.124074</dc:date>
    <dc:format>image/svg+xml</dc:format>
    <dc:creator>
     <cc:Agent>
      <dc:title>Matplotlib v3.10.0, https://matplotlib.org/</dc:title>
     </cc:Agent>
    </dc:creator>
   </cc:Work>
  </rdf:RDF>
 </metadata>
 <defs>
  <style type="text/css">*{stroke-linejoin: round; stroke-linecap: butt}</style>
 </defs>
 <g id="figure_1">
  <g id="patch_1">
   <path d="M 0 162.287427 
L 427.903125 162.287427 
L 427.903125 0 
L 0 0 
z
" style="fill: #ffffff"/>
  </g>
  <g id="axes_1">
   <g id="patch_2">
    <path d="M 30.103125 138.409302 
L 420.703125 138.409302 
L 420.703125 7.2 
L 30.103125 7.2 
z
" style="fill: #ffffff"/>
   </g>
   <g id="matplotlib.axis_1">
    <g id="xtick_1">
     <g id="line2d_1">
      <defs>
       <path id="ma55c00f5d6" d="M 0 0 
L 0 3.5 
" style="stroke: #000000; stroke-width: 0.8"/>
      </defs>
      <g>
       <use xlink:href="#ma55c00f5d6" x="47.85767" y="138.409302" style="stroke: #000000; stroke-width: 0.8"/>
      </g>
     </g>
     <g id="text_1">
      <!-- 0 -->
      <g transform="translate(44.67642 153.00774) scale(0.1 -0.1)">
       <defs>
        <path id="DejaVuSans-30" d="M 2034 4250 
Q 1547 4250 1301 3770 
Q 1056 3291 1056 2328 
Q 1056 1369 1301 889 
Q 1547 409 2034 409 
Q 2525 409 2770 889 
Q 3016 1369 3016 2328 
Q 3016 3291 2770 3770 
Q 2525 4250 2034 4250 
z
M 2034 4750 
Q 2819 4750 3233 4129 
Q 3647 3509 3647 2328 
Q 3647 1150 3233 529 
Q 2819 -91 2034 -91 
Q 1250 -91 836 529 
Q 422 1150 422 2328 
Q 422 3509 836 4129 
Q 1250 4750 2034 4750 
z
" transform="scale(0.015625)"/>
       </defs>
       <use xlink:href="#DejaVuSans-30"/>
      </g>
     </g>
    </g>
    <g id="xtick_2">
     <g id="line2d_2">
      <g>
       <use xlink:href="#ma55c00f5d6" x="102.910525" y="138.409302" style="stroke: #000000; stroke-width: 0.8"/>
      </g>
     </g>
     <g id="text_2">
      <!-- 20 -->
      <g transform="translate(96.548025 153.00774) scale(0.1 -0.1)">
       <defs>
        <path id="DejaVuSans-32" d="M 1228 531 
L 3431 531 
L 3431 0 
L 469 0 
L 469 531 
Q 828 903 1448 1529 
Q 2069 2156 2228 2338 
Q 2531 2678 2651 2914 
Q 2772 3150 2772 3378 
Q 2772 3750 2511 3984 
Q 2250 4219 1831 4219 
Q 1534 4219 1204 4116 
Q 875 4013 500 3803 
L 500 4441 
Q 881 4594 1212 4672 
Q 1544 4750 1819 4750 
Q 2544 4750 2975 4387 
Q 3406 4025 3406 3419 
Q 3406 3131 3298 2873 
Q 3191 2616 2906 2266 
Q 2828 2175 2409 1742 
Q 1991 1309 1228 531 
z
" transform="scale(0.015625)"/>
       </defs>
       <use xlink:href="#DejaVuSans-32"/>
       <use xlink:href="#DejaVuSans-30" transform="translate(63.623047 0)"/>
      </g>
     </g>
    </g>
    <g id="xtick_3">
     <g id="line2d_3">
      <g>
       <use xlink:href="#ma55c00f5d6" x="157.963379" y="138.409302" style="stroke: #000000; stroke-width: 0.8"/>
      </g>
     </g>
     <g id="text_3">
      <!-- 40 -->
      <g transform="translate(151.600879 153.00774) scale(0.1 -0.1)">
       <defs>
        <path id="DejaVuSans-34" d="M 2419 4116 
L 825 1625 
L 2419 1625 
L 2419 4116 
z
M 2253 4666 
L 3047 4666 
L 3047 1625 
L 3713 1625 
L 3713 1100 
L 3047 1100 
L 3047 0 
L 2419 0 
L 2419 1100 
L 313 1100 
L 313 1709 
L 2253 4666 
z
" transform="scale(0.015625)"/>
       </defs>
       <use xlink:href="#DejaVuSans-34"/>
       <use xlink:href="#DejaVuSans-30" transform="translate(63.623047 0)"/>
      </g>
     </g>
    </g>
    <g id="xtick_4">
     <g id="line2d_4">
      <g>
       <use xlink:href="#ma55c00f5d6" x="213.016233" y="138.409302" style="stroke: #000000; stroke-width: 0.8"/>
      </g>
     </g>
     <g id="text_4">
      <!-- 60 -->
      <g transform="translate(206.653733 153.00774) scale(0.1 -0.1)">
       <defs>
        <path id="DejaVuSans-36" d="M 2113 2584 
Q 1688 2584 1439 2293 
Q 1191 2003 1191 1497 
Q 1191 994 1439 701 
Q 1688 409 2113 409 
Q 2538 409 2786 701 
Q 3034 994 3034 1497 
Q 3034 2003 2786 2293 
Q 2538 2584 2113 2584 
z
M 3366 4563 
L 3366 3988 
Q 3128 4100 2886 4159 
Q 2644 4219 2406 4219 
Q 1781 4219 1451 3797 
Q 1122 3375 1075 2522 
Q 1259 2794 1537 2939 
Q 1816 3084 2150 3084 
Q 2853 3084 3261 2657 
Q 3669 2231 3669 1497 
Q 3669 778 3244 343 
Q 2819 -91 2113 -91 
Q 1303 -91 875 529 
Q 447 1150 447 2328 
Q 447 3434 972 4092 
Q 1497 4750 2381 4750 
Q 2619 4750 2861 4703 
Q 3103 4656 3366 4563 
z
" transform="scale(0.015625)"/>
       </defs>
       <use xlink:href="#DejaVuSans-36"/>
       <use xlink:href="#DejaVuSans-30" transform="translate(63.623047 0)"/>
      </g>
     </g>
    </g>
    <g id="xtick_5">
     <g id="line2d_5">
      <g>
       <use xlink:href="#ma55c00f5d6" x="268.069087" y="138.409302" style="stroke: #000000; stroke-width: 0.8"/>
      </g>
     </g>
     <g id="text_5">
      <!-- 80 -->
      <g transform="translate(261.706587 153.00774) scale(0.1 -0.1)">
       <defs>
        <path id="DejaVuSans-38" d="M 2034 2216 
Q 1584 2216 1326 1975 
Q 1069 1734 1069 1313 
Q 1069 891 1326 650 
Q 1584 409 2034 409 
Q 2484 409 2743 651 
Q 3003 894 3003 1313 
Q 3003 1734 2745 1975 
Q 2488 2216 2034 2216 
z
M 1403 2484 
Q 997 2584 770 2862 
Q 544 3141 544 3541 
Q 544 4100 942 4425 
Q 1341 4750 2034 4750 
Q 2731 4750 3128 4425 
Q 3525 4100 3525 3541 
Q 3525 3141 3298 2862 
Q 3072 2584 2669 2484 
Q 3125 2378 3379 2068 
Q 3634 1759 3634 1313 
Q 3634 634 3220 271 
Q 2806 -91 2034 -91 
Q 1263 -91 848 271 
Q 434 634 434 1313 
Q 434 1759 690 2068 
Q 947 2378 1403 2484 
z
M 1172 3481 
Q 1172 3119 1398 2916 
Q 1625 2713 2034 2713 
Q 2441 2713 2670 2916 
Q 2900 3119 2900 3481 
Q 2900 3844 2670 4047 
Q 2441 4250 2034 4250 
Q 1625 4250 1398 4047 
Q 1172 3844 1172 3481 
z
" transform="scale(0.015625)"/>
       </defs>
       <use xlink:href="#DejaVuSans-38"/>
       <use xlink:href="#DejaVuSans-30" transform="translate(63.623047 0)"/>
      </g>
     </g>
    </g>
    <g id="xtick_6">
     <g id="line2d_6">
      <g>
       <use xlink:href="#ma55c00f5d6" x="323.121941" y="138.409302" style="stroke: #000000; stroke-width: 0.8"/>
      </g>
     </g>
     <g id="text_6">
      <!-- 100 -->
      <g transform="translate(313.578191 153.00774) scale(0.1 -0.1)">
       <defs>
        <path id="DejaVuSans-31" d="M 794 531 
L 1825 531 
L 1825 4091 
L 703 3866 
L 703 4441 
L 1819 4666 
L 2450 4666 
L 2450 531 
L 3481 531 
L 3481 0 
L 794 0 
L 794 531 
z
" transform="scale(0.015625)"/>
       </defs>
       <use xlink:href="#DejaVuSans-31"/>
       <use xlink:href="#DejaVuSans-30" transform="translate(63.623047 0)"/>
       <use xlink:href="#DejaVuSans-30" transform="translate(127.246094 0)"/>
      </g>
     </g>
    </g>
    <g id="xtick_7">
     <g id="line2d_7">
      <g>
       <use xlink:href="#ma55c00f5d6" x="378.174795" y="138.409302" style="stroke: #000000; stroke-width: 0.8"/>
      </g>
     </g>
     <g id="text_7">
      <!-- 120 -->
      <g transform="translate(368.631045 153.00774) scale(0.1 -0.1)">
       <use xlink:href="#DejaVuSans-31"/>
       <use xlink:href="#DejaVuSans-32" transform="translate(63.623047 0)"/>
       <use xlink:href="#DejaVuSans-30" transform="translate(127.246094 0)"/>
      </g>
     </g>
    </g>
   </g>
   <g id="matplotlib.axis_2">
    <g id="ytick_1">
     <g id="line2d_8">
      <defs>
       <path id="maddcff4e23" d="M 0 0 
L -3.5 0 
" style="stroke: #000000; stroke-width: 0.8"/>
      </defs>
      <g>
       <use xlink:href="#maddcff4e23" x="30.103125" y="132.445243" style="stroke: #000000; stroke-width: 0.8"/>
      </g>
     </g>
     <g id="text_8">
      <!-- 0.0 -->
      <g transform="translate(7.2 136.244462) scale(0.1 -0.1)">
       <defs>
        <path id="DejaVuSans-2e" d="M 684 794 
L 1344 794 
L 1344 0 
L 684 0 
L 684 794 
z
" transform="scale(0.015625)"/>
       </defs>
       <use xlink:href="#DejaVuSans-30"/>
       <use xlink:href="#DejaVuSans-2e" transform="translate(63.623047 0)"/>
       <use xlink:href="#DejaVuSans-30" transform="translate(95.410156 0)"/>
      </g>
     </g>
    </g>
    <g id="ytick_2">
     <g id="line2d_9">
      <g>
       <use xlink:href="#maddcff4e23" x="30.103125" y="108.589006" style="stroke: #000000; stroke-width: 0.8"/>
      </g>
     </g>
     <g id="text_9">
      <!-- 0.2 -->
      <g transform="translate(7.2 112.388225) scale(0.1 -0.1)">
       <use xlink:href="#DejaVuSans-30"/>
       <use xlink:href="#DejaVuSans-2e" transform="translate(63.623047 0)"/>
       <use xlink:href="#DejaVuSans-32" transform="translate(95.410156 0)"/>
      </g>
     </g>
    </g>
    <g id="ytick_3">
     <g id="line2d_10">
      <g>
       <use xlink:href="#maddcff4e23" x="30.103125" y="84.73277" style="stroke: #000000; stroke-width: 0.8"/>
      </g>
     </g>
     <g id="text_10">
      <!-- 0.4 -->
      <g transform="translate(7.2 88.531988) scale(0.1 -0.1)">
       <use xlink:href="#DejaVuSans-30"/>
       <use xlink:href="#DejaVuSans-2e" transform="translate(63.623047 0)"/>
       <use xlink:href="#DejaVuSans-34" transform="translate(95.410156 0)"/>
      </g>
     </g>
    </g>
    <g id="ytick_4">
     <g id="line2d_11">
      <g>
       <use xlink:href="#maddcff4e23" x="30.103125" y="60.876533" style="stroke: #000000; stroke-width: 0.8"/>
      </g>
     </g>
     <g id="text_11">
      <!-- 0.6 -->
      <g transform="translate(7.2 64.675752) scale(0.1 -0.1)">
       <use xlink:href="#DejaVuSans-30"/>
       <use xlink:href="#DejaVuSans-2e" transform="translate(63.623047 0)"/>
       <use xlink:href="#DejaVuSans-36" transform="translate(95.410156 0)"/>
      </g>
     </g>
    </g>
    <g id="ytick_5">
     <g id="line2d_12">
      <g>
       <use xlink:href="#maddcff4e23" x="30.103125" y="37.020296" style="stroke: #000000; stroke-width: 0.8"/>
      </g>
     </g>
     <g id="text_12">
      <!-- 0.8 -->
      <g transform="translate(7.2 40.819515) scale(0.1 -0.1)">
       <use xlink:href="#DejaVuSans-30"/>
       <use xlink:href="#DejaVuSans-2e" transform="translate(63.623047 0)"/>
       <use xlink:href="#DejaVuSans-38" transform="translate(95.410156 0)"/>
      </g>
     </g>
    </g>
    <g id="ytick_6">
     <g id="line2d_13">
      <g>
       <use xlink:href="#maddcff4e23" x="30.103125" y="13.164059" style="stroke: #000000; stroke-width: 0.8"/>
      </g>
     </g>
     <g id="text_13">
      <!-- 1.0 -->
      <g transform="translate(7.2 16.963278) scale(0.1 -0.1)">
       <use xlink:href="#DejaVuSans-31"/>
       <use xlink:href="#DejaVuSans-2e" transform="translate(63.623047 0)"/>
       <use xlink:href="#DejaVuSans-30" transform="translate(95.410156 0)"/>
      </g>
     </g>
    </g>
   </g>
   <g id="line2d_14">
    <path d="M 47.85767 71.147968 
L 50.610313 72.804651 
L 53.362956 76.118017 
L 56.115599 74.461334 
L 58.868241 66.177919 
L 61.620884 72.804651 
L 64.373527 71.147968 
L 67.126169 74.461334 
L 69.878812 69.491285 
L 72.631455 72.804651 
L 75.384098 71.147968 
L 78.13674 74.461334 
L 80.889383 71.147968 
L 83.642026 71.147968 
L 86.394668 72.804651 
L 89.147311 72.804651 
L 91.899954 74.461334 
L 94.652596 74.461334 
L 100.157882 71.147968 
L 102.910525 72.804651 
L 105.663167 72.804651 
L 108.41581 76.118017 
L 111.168453 69.491285 
L 113.921095 72.804651 
L 119.426381 76.118017 
L 122.179024 67.834602 
L 124.931666 74.461334 
L 127.684309 72.804651 
L 130.436952 69.491285 
L 133.189594 74.461334 
L 135.942237 72.804651 
L 138.69488 72.804651 
L 141.447522 74.461334 
L 144.200165 71.147968 
L 146.952808 71.147968 
L 149.705451 69.491285 
L 152.458093 61.207869 
L 155.210736 66.177919 
L 157.963379 61.207869 
L 160.716021 54.581137 
L 163.468664 46.297721 
L 166.221307 44.641038 
L 168.97395 41.327672 
L 171.726592 42.984355 
L 174.479235 41.327672 
L 177.231878 36.357623 
L 179.98452 28.074207 
L 182.737163 29.73089 
L 185.489806 29.73089 
L 188.242448 23.104158 
L 190.995091 19.790792 
L 193.747734 23.104158 
L 196.500377 19.790792 
L 199.253019 19.790792 
L 202.005662 21.447475 
L 204.758305 19.790792 
L 210.26359 19.790792 
L 213.016233 16.477425 
L 215.768876 19.790792 
L 218.521518 19.790792 
L 221.274161 18.134109 
L 224.026804 19.790792 
L 226.779446 19.790792 
L 229.532089 16.477425 
L 232.284732 18.134109 
L 235.037374 14.820742 
L 237.790017 16.477425 
L 243.295303 16.477425 
L 246.047945 14.820742 
L 248.800588 14.820742 
L 251.553231 18.134109 
L 254.305873 16.477425 
L 265.316444 16.477425 
L 268.069087 14.820742 
L 276.327015 14.820742 
L 279.079658 16.477425 
L 284.584943 16.477425 
L 287.337586 14.820742 
L 292.842871 14.820742 
L 295.595514 13.164059 
L 298.348157 14.820742 
L 301.100799 13.164059 
L 303.853442 14.820742 
L 309.358728 14.820742 
L 312.11137 13.164059 
L 314.864013 14.820742 
L 317.616656 13.164059 
L 320.369298 13.164059 
L 323.121941 14.820742 
L 325.874584 13.164059 
L 367.164224 13.164059 
L 369.916867 14.820742 
L 372.66951 13.164059 
L 383.680081 13.164059 
L 386.432723 14.820742 
L 389.185366 13.164059 
L 402.94858 13.164059 
L 402.94858 13.164059 
" clip-path="url(#pb7d8a115a4)" style="fill: none; stroke: #1f77b4; stroke-width: 1.5; stroke-linecap: square"/>
   </g>
   <g id="line2d_15">
    <path d="M 47.85767 49.069567 
L 50.610313 48.680966 
L 53.362956 47.997948 
L 56.115599 48.529549 
L 58.868241 50.70278 
L 61.620884 49.186686 
L 64.373527 49.741078 
L 67.126169 49.039741 
L 69.878812 50.347087 
L 72.631455 49.657302 
L 75.384098 50.074672 
L 78.13674 49.479089 
L 80.889383 50.304 
L 83.642026 50.432762 
L 86.394668 50.197193 
L 89.147311 50.257605 
L 91.899954 50.138468 
L 94.652596 50.309053 
L 97.405239 50.604835 
L 100.157882 51.014227 
L 102.910525 50.86992 
L 105.663167 50.958218 
L 108.41581 50.597793 
L 111.168453 51.673527 
L 113.921095 51.275282 
L 119.426381 51.048468 
L 122.179024 52.087329 
L 124.931666 51.461252 
L 127.684309 51.76436 
L 130.436952 52.243686 
L 133.189594 51.811909 
L 135.942237 52.117061 
L 138.69488 52.1408 
L 141.447522 52.017434 
L 144.200165 52.546656 
L 146.952808 52.41588 
L 149.705451 52.407029 
L 152.458093 52.80945 
L 155.210736 52.74383 
L 160.716021 52.923643 
L 163.468664 53.247666 
L 174.479235 53.336094 
L 177.231878 53.692747 
L 179.98452 53.848784 
L 188.242448 53.960158 
L 190.995091 54.456212 
L 196.500377 54.370336 
L 199.253019 54.569966 
L 202.005662 54.625787 
L 204.758305 54.896273 
L 207.510947 54.845113 
L 210.26359 55.366731 
L 218.521518 55.565617 
L 221.274161 55.841266 
L 224.026804 55.676679 
L 229.532089 56.174531 
L 232.284732 56.456478 
L 235.037374 56.427931 
L 240.54266 56.87948 
L 243.295303 56.930365 
L 246.047945 57.347216 
L 248.800588 57.367916 
L 251.553231 57.560143 
L 254.305873 57.524465 
L 262.563802 58.381045 
L 265.316444 58.157653 
L 268.069087 58.61918 
L 270.82173 58.52974 
L 273.574372 58.963889 
L 279.079658 59.346437 
L 281.8323 59.448791 
L 284.584943 59.406357 
L 287.337586 59.901065 
L 292.842871 59.932573 
L 295.595514 60.39281 
L 298.348157 60.376391 
L 301.100799 61.0879 
L 303.853442 60.909009 
L 306.606085 61.349756 
L 309.358728 61.208414 
L 312.11137 62.163604 
L 314.864013 61.456636 
L 317.616656 61.909907 
L 320.369298 62.734281 
L 325.874584 62.377416 
L 328.627226 62.852913 
L 331.379869 62.921141 
L 336.885155 63.64042 
L 339.637797 63.984662 
L 345.143083 64.140334 
L 347.895725 64.513904 
L 350.648368 64.757769 
L 353.401011 64.880872 
L 356.153654 64.848811 
L 358.906296 65.383803 
L 361.658939 65.516157 
L 364.411582 65.475839 
L 369.916867 66.42619 
L 372.66951 66.259934 
L 375.422152 66.708656 
L 378.174795 67.040541 
L 380.927438 67.251992 
L 386.432723 67.450523 
L 389.185366 67.747074 
L 391.938009 67.792663 
L 394.690651 68.555698 
L 400.195937 68.634735 
L 402.94858 68.867833 
L 402.94858 68.867833 
" clip-path="url(#pb7d8a115a4)" style="fill: none; stroke-dasharray: 1.5,2.475; stroke-dashoffset: 0; stroke: #ff7f0e; stroke-width: 1.5"/>
   </g>
   <g id="line2d_16">
    <path d="M 47.85767 87.714799 
L 50.610313 72.804651 
L 53.362956 42.984355 
L 56.115599 57.894503 
L 58.868241 132.445243 
L 61.620884 72.804651 
L 64.373527 87.714799 
L 67.126169 57.894503 
L 69.878812 102.624947 
L 72.631455 72.804651 
L 75.384098 87.714799 
L 78.13674 57.894503 
L 80.889383 87.714799 
L 83.642026 87.714799 
L 86.394668 72.804651 
L 89.147311 72.804651 
L 91.899954 57.894503 
L 94.652596 57.894503 
L 100.157882 87.714799 
L 102.910525 72.804651 
L 105.663167 72.804651 
L 108.41581 42.984355 
L 111.168453 102.624947 
L 113.921095 72.804651 
L 119.426381 42.984355 
L 122.179024 117.535095 
L 124.931666 57.894503 
L 127.684309 72.804651 
L 130.436952 102.624947 
L 133.189594 57.894503 
L 135.942237 72.804651 
L 138.69488 72.804651 
L 141.447522 57.894503 
L 144.200165 87.714799 
L 146.952808 57.894503 
L 149.705451 57.894503 
L 152.458093 87.714799 
L 155.210736 72.804651 
L 157.963379 28.074207 
L 160.716021 57.894503 
L 163.468664 72.804651 
L 166.221307 42.984355 
L 168.97395 42.984355 
L 171.726592 28.074207 
L 177.231878 28.074207 
L 179.98452 57.894503 
L 188.242448 13.164059 
L 190.995091 57.894503 
L 193.747734 13.164059 
L 196.500377 28.074207 
L 199.253019 28.074207 
L 202.005662 13.164059 
L 210.26359 13.164059 
L 213.016233 42.984355 
L 215.768876 13.164059 
L 218.521518 13.164059 
L 221.274161 28.074207 
L 224.026804 13.164059 
L 226.779446 13.164059 
L 229.532089 28.074207 
L 232.284732 13.164059 
L 235.037374 28.074207 
L 237.790017 13.164059 
L 243.295303 13.164059 
L 246.047945 28.074207 
L 248.800588 28.074207 
L 251.553231 13.164059 
L 270.82173 13.164059 
L 273.574372 28.074207 
L 276.327015 13.164059 
L 309.358728 13.164059 
L 312.11137 28.074207 
L 314.864013 13.164059 
L 402.94858 13.164059 
L 402.94858 13.164059 
" clip-path="url(#pb7d8a115a4)" style="fill: none; stroke-dasharray: 5.55,2.4; stroke-dashoffset: 0; stroke: #2ca02c; stroke-width: 1.5"/>
   </g>
   <g id="line2d_17">
    <path d="M 47.85767 44.312627 
L 50.610313 49.014963 
L 53.362956 56.181517 
L 56.115599 53.218282 
L 58.868241 34.557767 
L 61.620884 49.394984 
L 64.373527 45.588707 
L 67.126169 52.814656 
L 69.878812 42.503092 
L 72.631455 49.625239 
L 75.384098 47.041122 
L 78.13674 53.453051 
L 80.889383 47.148684 
L 83.642026 47.142321 
L 86.394668 50.038633 
L 89.147311 50.754368 
L 91.899954 52.879582 
L 94.652596 52.410114 
L 97.405239 50.901674 
L 100.157882 48.463846 
L 102.910525 50.759672 
L 105.663167 50.809141 
L 108.41581 55.244102 
L 111.168453 46.506158 
L 113.921095 50.806788 
L 116.673738 53.228186 
L 119.426381 55.01583 
L 122.179024 46.861758 
L 124.931666 53.394347 
L 127.684309 51.716291 
L 130.436952 48.456289 
L 133.189594 53.008694 
L 135.942237 51.527215 
L 138.69488 52.290813 
L 141.447522 54.260473 
L 144.200165 50.67956 
L 146.952808 52.802762 
L 149.705451 54.152469 
L 152.458093 51.164904 
L 155.210736 53.132674 
L 157.963379 53.235892 
L 160.716021 53.662973 
L 163.468664 51.894354 
L 166.221307 52.59343 
L 168.97395 52.722898 
L 171.726592 53.876335 
L 174.479235 55.279842 
L 177.231878 53.226799 
L 179.98452 53.066432 
L 182.737163 54.048554 
L 185.489806 55.849544 
L 188.242448 55.788414 
L 190.995091 52.397778 
L 193.747734 54.544563 
L 196.500377 55.589115 
L 199.253019 55.462853 
L 202.005662 55.992833 
L 204.758305 55.078879 
L 207.510947 56.877928 
L 210.26359 53.307743 
L 213.016233 54.142822 
L 215.768876 55.78407 
L 218.521518 55.829139 
L 221.274161 55.032993 
L 224.026804 57.797001 
L 226.779446 57.23074 
L 229.532089 56.196434 
L 232.284732 55.315469 
L 235.037374 57.021175 
L 237.790017 56.563728 
L 240.54266 55.722187 
L 243.295303 57.073296 
L 246.047945 55.07637 
L 248.800588 56.794254 
L 251.553231 56.479798 
L 254.305873 58.674737 
L 257.058516 57.768 
L 259.811159 57.701915 
L 262.563802 55.943648 
L 265.316444 59.619184 
L 268.069087 57.488937 
L 270.82173 60.073531 
L 273.574372 57.989844 
L 276.327015 57.65428 
L 279.079658 58.431208 
L 281.8323 58.958152 
L 284.584943 61.401675 
L 287.337586 58.7165 
L 290.090229 60.822411 
L 292.842871 62.312585 
L 295.595514 60.391655 
L 298.348157 62.480296 
L 301.100799 58.267607 
L 303.853442 61.864033 
L 306.606085 59.435398 
L 309.358728 63.281255 
L 312.11137 56.637783 
L 314.864013 64.93988 
L 317.616656 63.149775 
L 320.369298 58.016918 
L 323.121941 61.782798 
L 325.874584 65.074808 
L 328.627226 63.371833 
L 331.379869 64.556873 
L 334.132512 63.193706 
L 336.885155 62.917337 
L 339.637797 61.647962 
L 342.39044 63.102318 
L 345.143083 64.961309 
L 347.895725 64.0254 
L 350.648368 63.683501 
L 353.401011 64.979175 
L 356.153654 67.437721 
L 358.906296 64.896312 
L 361.658939 65.925542 
L 364.411582 68.786789 
L 367.164224 66.548708 
L 369.916867 64.765457 
L 372.66951 68.515369 
L 375.422152 66.410133 
L 378.174795 65.943466 
L 380.927438 66.349679 
L 383.680081 67.888306 
L 386.432723 69.041765 
L 389.185366 68.754795 
L 391.938009 70.430235 
L 394.690651 65.762801 
L 397.443294 67.866309 
L 400.195937 69.529278 
L 402.94858 70.030996 
L 402.94858 70.030996 
" clip-path="url(#pb7d8a115a4)" style="fill: none; stroke-dasharray: 9.6,2.4,1.5,2.4; stroke-dashoffset: 0; stroke: #d62728; stroke-width: 1.5"/>
   </g>
   <g id="patch_3">
    <path d="M 30.103125 138.409302 
L 30.103125 7.2 
" style="fill: none; stroke: #000000; stroke-width: 0.8; stroke-linejoin: miter; stroke-linecap: square"/>
   </g>
   <g id="patch_4">
    <path d="M 420.703125 138.409302 
L 420.703125 7.2 
" style="fill: none; stroke: #000000; stroke-width: 0.8; stroke-linejoin: miter; stroke-linecap: square"/>
   </g>
   <g id="patch_5">
    <path d="M 30.103125 138.409302 
L 420.703125 138.409302 
" style="fill: none; stroke: #000000; stroke-width: 0.8; stroke-linejoin: miter; stroke-linecap: square"/>
   </g>
   <g id="patch_6">
    <path d="M 30.103125 7.2 
L 420.703125 7.2 
" style="fill: none; stroke: #000000; stroke-width: 0.8; stroke-linejoin: miter; stroke-linecap: square"/>
   </g>
   <g id="legend_1">
    <g id="patch_7">
     <path d="M 334.1125 133.409302 
L 413.703125 133.409302 
Q 415.703125 133.409302 415.703125 131.409302 
L 415.703125 72.584302 
Q 415.703125 70.584302 413.703125 70.584302 
L 334.1125 70.584302 
Q 332.1125 70.584302 332.1125 72.584302 
L 332.1125 131.409302 
Q 332.1125 133.409302 334.1125 133.409302 
z
" style="fill: #ffffff; opacity: 0.8; stroke: #cccccc; stroke-linejoin: miter"/>
    </g>
    <g id="line2d_18">
     <path d="M 336.1125 78.68274 
L 346.1125 78.68274 
L 356.1125 78.68274 
" style="fill: none; stroke: #1f77b4; stroke-width: 1.5; stroke-linecap: square"/>
    </g>
    <g id="text_14">
     <!-- train_acc -->
     <g transform="translate(364.1125 82.18274) scale(0.1 -0.1)">
      <defs>
       <path id="DejaVuSans-74" d="M 1172 4494 
L 1172 3500 
L 2356 3500 
L 2356 3053 
L 1172 3053 
L 1172 1153 
Q 1172 725 1289 603 
Q 1406 481 1766 481 
L 2356 481 
L 2356 0 
L 1766 0 
Q 1100 0 847 248 
Q 594 497 594 1153 
L 594 3053 
L 172 3053 
L 172 3500 
L 594 3500 
L 594 4494 
L 1172 4494 
z
" transform="scale(0.015625)"/>
       <path id="DejaVuSans-72" d="M 2631 2963 
Q 2534 3019 2420 3045 
Q 2306 3072 2169 3072 
Q 1681 3072 1420 2755 
Q 1159 2438 1159 1844 
L 1159 0 
L 581 0 
L 581 3500 
L 1159 3500 
L 1159 2956 
Q 1341 3275 1631 3429 
Q 1922 3584 2338 3584 
Q 2397 3584 2469 3576 
Q 2541 3569 2628 3553 
L 2631 2963 
z
" transform="scale(0.015625)"/>
       <path id="DejaVuSans-61" d="M 2194 1759 
Q 1497 1759 1228 1600 
Q 959 1441 959 1056 
Q 959 750 1161 570 
Q 1363 391 1709 391 
Q 2188 391 2477 730 
Q 2766 1069 2766 1631 
L 2766 1759 
L 2194 1759 
z
M 3341 1997 
L 3341 0 
L 2766 0 
L 2766 531 
Q 2569 213 2275 61 
Q 1981 -91 1556 -91 
Q 1019 -91 701 211 
Q 384 513 384 1019 
Q 384 1609 779 1909 
Q 1175 2209 1959 2209 
L 2766 2209 
L 2766 2266 
Q 2766 2663 2505 2880 
Q 2244 3097 1772 3097 
Q 1472 3097 1187 3025 
Q 903 2953 641 2809 
L 641 3341 
Q 956 3463 1253 3523 
Q 1550 3584 1831 3584 
Q 2591 3584 2966 3190 
Q 3341 2797 3341 1997 
z
" transform="scale(0.015625)"/>
       <path id="DejaVuSans-69" d="M 603 3500 
L 1178 3500 
L 1178 0 
L 603 0 
L 603 3500 
z
M 603 4863 
L 1178 4863 
L 1178 4134 
L 603 4134 
L 603 4863 
z
" transform="scale(0.015625)"/>
       <path id="DejaVuSans-6e" d="M 3513 2113 
L 3513 0 
L 2938 0 
L 2938 2094 
Q 2938 2591 2744 2837 
Q 2550 3084 2163 3084 
Q 1697 3084 1428 2787 
Q 1159 2491 1159 1978 
L 1159 0 
L 581 0 
L 581 3500 
L 1159 3500 
L 1159 2956 
Q 1366 3272 1645 3428 
Q 1925 3584 2291 3584 
Q 2894 3584 3203 3211 
Q 3513 2838 3513 2113 
z
" transform="scale(0.015625)"/>
       <path id="DejaVuSans-5f" d="M 3263 -1063 
L 3263 -1509 
L -63 -1509 
L -63 -1063 
L 3263 -1063 
z
" transform="scale(0.015625)"/>
       <path id="DejaVuSans-63" d="M 3122 3366 
L 3122 2828 
Q 2878 2963 2633 3030 
Q 2388 3097 2138 3097 
Q 1578 3097 1268 2742 
Q 959 2388 959 1747 
Q 959 1106 1268 751 
Q 1578 397 2138 397 
Q 2388 397 2633 464 
Q 2878 531 3122 666 
L 3122 134 
Q 2881 22 2623 -34 
Q 2366 -91 2075 -91 
Q 1284 -91 818 406 
Q 353 903 353 1747 
Q 353 2603 823 3093 
Q 1294 3584 2113 3584 
Q 2378 3584 2631 3529 
Q 2884 3475 3122 3366 
z
" transform="scale(0.015625)"/>
      </defs>
      <use xlink:href="#DejaVuSans-74"/>
      <use xlink:href="#DejaVuSans-72" transform="translate(39.208984 0)"/>
      <use xlink:href="#DejaVuSans-61" transform="translate(80.322266 0)"/>
      <use xlink:href="#DejaVuSans-69" transform="translate(141.601562 0)"/>
      <use xlink:href="#DejaVuSans-6e" transform="translate(169.384766 0)"/>
      <use xlink:href="#DejaVuSans-5f" transform="translate(232.763672 0)"/>
      <use xlink:href="#DejaVuSans-61" transform="translate(282.763672 0)"/>
      <use xlink:href="#DejaVuSans-63" transform="translate(344.042969 0)"/>
      <use xlink:href="#DejaVuSans-63" transform="translate(399.023438 0)"/>
     </g>
    </g>
    <g id="line2d_19">
     <path d="M 336.1125 93.63899 
L 346.1125 93.63899 
L 356.1125 93.63899 
" style="fill: none; stroke-dasharray: 1.5,2.475; stroke-dashoffset: 0; stroke: #ff7f0e; stroke-width: 1.5"/>
    </g>
    <g id="text_15">
     <!-- train_loss -->
     <g transform="translate(364.1125 97.13899) scale(0.1 -0.1)">
      <defs>
       <path id="DejaVuSans-6c" d="M 603 4863 
L 1178 4863 
L 1178 0 
L 603 0 
L 603 4863 
z
" transform="scale(0.015625)"/>
       <path id="DejaVuSans-6f" d="M 1959 3097 
Q 1497 3097 1228 2736 
Q 959 2375 959 1747 
Q 959 1119 1226 758 
Q 1494 397 1959 397 
Q 2419 397 2687 759 
Q 2956 1122 2956 1747 
Q 2956 2369 2687 2733 
Q 2419 3097 1959 3097 
z
M 1959 3584 
Q 2709 3584 3137 3096 
Q 3566 2609 3566 1747 
Q 3566 888 3137 398 
Q 2709 -91 1959 -91 
Q 1206 -91 779 398 
Q 353 888 353 1747 
Q 353 2609 779 3096 
Q 1206 3584 1959 3584 
z
" transform="scale(0.015625)"/>
       <path id="DejaVuSans-73" d="M 2834 3397 
L 2834 2853 
Q 2591 2978 2328 3040 
Q 2066 3103 1784 3103 
Q 1356 3103 1142 2972 
Q 928 2841 928 2578 
Q 928 2378 1081 2264 
Q 1234 2150 1697 2047 
L 1894 2003 
Q 2506 1872 2764 1633 
Q 3022 1394 3022 966 
Q 3022 478 2636 193 
Q 2250 -91 1575 -91 
Q 1294 -91 989 -36 
Q 684 19 347 128 
L 347 722 
Q 666 556 975 473 
Q 1284 391 1588 391 
Q 1994 391 2212 530 
Q 2431 669 2431 922 
Q 2431 1156 2273 1281 
Q 2116 1406 1581 1522 
L 1381 1569 
Q 847 1681 609 1914 
Q 372 2147 372 2553 
Q 372 3047 722 3315 
Q 1072 3584 1716 3584 
Q 2034 3584 2315 3537 
Q 2597 3491 2834 3397 
z
" transform="scale(0.015625)"/>
      </defs>
      <use xlink:href="#DejaVuSans-74"/>
      <use xlink:href="#DejaVuSans-72" transform="translate(39.208984 0)"/>
      <use xlink:href="#DejaVuSans-61" transform="translate(80.322266 0)"/>
      <use xlink:href="#DejaVuSans-69" transform="translate(141.601562 0)"/>
      <use xlink:href="#DejaVuSans-6e" transform="translate(169.384766 0)"/>
      <use xlink:href="#DejaVuSans-5f" transform="translate(232.763672 0)"/>
      <use xlink:href="#DejaVuSans-6c" transform="translate(282.763672 0)"/>
      <use xlink:href="#DejaVuSans-6f" transform="translate(310.546875 0)"/>
      <use xlink:href="#DejaVuSans-73" transform="translate(371.728516 0)"/>
      <use xlink:href="#DejaVuSans-73" transform="translate(423.828125 0)"/>
     </g>
    </g>
    <g id="line2d_20">
     <path d="M 336.1125 108.59524 
L 346.1125 108.59524 
L 356.1125 108.59524 
" style="fill: none; stroke-dasharray: 5.55,2.4; stroke-dashoffset: 0; stroke: #2ca02c; stroke-width: 1.5"/>
    </g>
    <g id="text_16">
     <!-- val_acc -->
     <g transform="translate(364.1125 112.09524) scale(0.1 -0.1)">
      <defs>
       <path id="DejaVuSans-76" d="M 191 3500 
L 800 3500 
L 1894 563 
L 2988 3500 
L 3597 3500 
L 2284 0 
L 1503 0 
L 191 3500 
z
" transform="scale(0.015625)"/>
      </defs>
      <use xlink:href="#DejaVuSans-76"/>
      <use xlink:href="#DejaVuSans-61" transform="translate(59.179688 0)"/>
      <use xlink:href="#DejaVuSans-6c" transform="translate(120.458984 0)"/>
      <use xlink:href="#DejaVuSans-5f" transform="translate(148.242188 0)"/>
      <use xlink:href="#DejaVuSans-61" transform="translate(198.242188 0)"/>
      <use xlink:href="#DejaVuSans-63" transform="translate(259.521484 0)"/>
      <use xlink:href="#DejaVuSans-63" transform="translate(314.501953 0)"/>
     </g>
    </g>
    <g id="line2d_21">
     <path d="M 336.1125 123.55149 
L 346.1125 123.55149 
L 356.1125 123.55149 
" style="fill: none; stroke-dasharray: 9.6,2.4,1.5,2.4; stroke-dashoffset: 0; stroke: #d62728; stroke-width: 1.5"/>
    </g>
    <g id="text_17">
     <!-- val_loss -->
     <g transform="translate(364.1125 127.05149) scale(0.1 -0.1)">
      <use xlink:href="#DejaVuSans-76"/>
      <use xlink:href="#DejaVuSans-61" transform="translate(59.179688 0)"/>
      <use xlink:href="#DejaVuSans-6c" transform="translate(120.458984 0)"/>
      <use xlink:href="#DejaVuSans-5f" transform="translate(148.242188 0)"/>
      <use xlink:href="#DejaVuSans-6c" transform="translate(198.242188 0)"/>
      <use xlink:href="#DejaVuSans-6f" transform="translate(226.025391 0)"/>
      <use xlink:href="#DejaVuSans-73" transform="translate(287.207031 0)"/>
      <use xlink:href="#DejaVuSans-73" transform="translate(339.306641 0)"/>
     </g>
    </g>
   </g>
  </g>
 </g>
 <defs>
  <clipPath id="pb7d8a115a4">
   <rect x="30.103125" y="7.2" width="390.6" height="131.209302"/>
  </clipPath>
 </defs>
</svg>
