<?xml version="1.0" encoding="utf-8" standalone="no"?>
<!DOCTYPE svg PUBLIC "-//W3C//DTD SVG 1.1//EN"
  "http://www.w3.org/Graphics/SVG/1.1/DTD/svg11.dtd">
<svg xmlns:xlink="http://www.w3.org/1999/xlink" width="437.132452pt" height="187.949831pt" viewBox="0 0 437.132452 187.949831" xmlns="http://www.w3.org/2000/svg" version="1.1">
 <metadata>
  <rdf:RDF xmlns:dc="http://purl.org/dc/elements/1.1/" xmlns:cc="http://creativecommons.org/ns#" xmlns:rdf="http://www.w3.org/1999/02/22-rdf-syntax-ns#">
   <cc:Work>
    <dc:type rdf:resource="http://purl.org/dc/dcmitype/StillImage"/>
    <dc:date>2025-02-13T14:15:39.429265</dc:date>
    <dc:format>image/svg+xml</dc:format>
    <dc:creator>
     <cc:Agent>
      <dc:title>Matplotlib v3.10.0, https://matplotlib.org/</dc:title>
     </cc:Agent>
    </dc:creator>
   </cc:Work>
  </rdf:RDF>
 </metadata>
 <defs>
  <style type="text/css">*{stroke-linejoin: round; stroke-linecap: butt}</style>
 </defs>
 <g id="figure_1">
  <g id="patch_1">
   <path d="M 0 187.949831 
L 437.132452 187.949831 
L 437.132452 0 
L 0 0 
z
" style="fill: #ffffff"/>
  </g>
  <g id="axes_1">
   <g id="patch_2">
    <path d="M 30.103125 150.393581 
L 420.703125 150.393581 
L 420.703125 7.2 
L 30.103125 7.2 
z
" style="fill: #ffffff"/>
   </g>
   <g id="matplotlib.axis_1">
    <g id="xtick_1">
     <g id="line2d_1">
      <path d="M 80.180048 150.393581 
L 80.180048 7.2 
" clip-path="url(#p50d2e37f31)" style="fill: none; stroke: #b0b0b0; stroke-width: 0.8; stroke-linecap: square"/>
     </g>
     <g id="line2d_2">
      <defs>
       <path id="m74e23e66e9" d="M 0 0 
L 0 3.5 
" style="stroke: #000000; stroke-width: 0.8"/>
      </defs>
      <g>
       <use xlink:href="#m74e23e66e9" x="80.180048" y="150.393581" style="stroke: #000000; stroke-width: 0.8"/>
      </g>
     </g>
     <g id="text_1">
      <!-- −80000 -->
      <g transform="translate(60.083954 164.992018) scale(0.1 -0.1)">
       <defs>
        <path id="DejaVuSans-2212" d="M 678 2272 
L 4684 2272 
L 4684 1741 
L 678 1741 
L 678 2272 
z
" transform="scale(0.015625)"/>
        <path id="DejaVuSans-38" d="M 2034 2216 
Q 1584 2216 1326 1975 
Q 1069 1734 1069 1313 
Q 1069 891 1326 650 
Q 1584 409 2034 409 
Q 2484 409 2743 651 
Q 3003 894 3003 1313 
Q 3003 1734 2745 1975 
Q 2488 2216 2034 2216 
z
M 1403 2484 
Q 997 2584 770 2862 
Q 544 3141 544 3541 
Q 544 4100 942 4425 
Q 1341 4750 2034 4750 
Q 2731 4750 3128 4425 
Q 3525 4100 3525 3541 
Q 3525 3141 3298 2862 
Q 3072 2584 2669 2484 
Q 3125 2378 3379 2068 
Q 3634 1759 3634 1313 
Q 3634 634 3220 271 
Q 2806 -91 2034 -91 
Q 1263 -91 848 271 
Q 434 634 434 1313 
Q 434 1759 690 2068 
Q 947 2378 1403 2484 
z
M 1172 3481 
Q 1172 3119 1398 2916 
Q 1625 2713 2034 2713 
Q 2441 2713 2670 2916 
Q 2900 3119 2900 3481 
Q 2900 3844 2670 4047 
Q 2441 4250 2034 4250 
Q 1625 4250 1398 4047 
Q 1172 3844 1172 3481 
z
" transform="scale(0.015625)"/>
        <path id="DejaVuSans-30" d="M 2034 4250 
Q 1547 4250 1301 3770 
Q 1056 3291 1056 2328 
Q 1056 1369 1301 889 
Q 1547 409 2034 409 
Q 2525 409 2770 889 
Q 3016 1369 3016 2328 
Q 3016 3291 2770 3770 
Q 2525 4250 2034 4250 
z
M 2034 4750 
Q 2819 4750 3233 4129 
Q 3647 3509 3647 2328 
Q 3647 1150 3233 529 
Q 2819 -91 2034 -91 
Q 1250 -91 836 529 
Q 422 1150 422 2328 
Q 422 3509 836 4129 
Q 1250 4750 2034 4750 
z
" transform="scale(0.015625)"/>
       </defs>
       <use xlink:href="#DejaVuSans-2212"/>
       <use xlink:href="#DejaVuSans-38" transform="translate(83.789062 0)"/>
       <use xlink:href="#DejaVuSans-30" transform="translate(147.412109 0)"/>
       <use xlink:href="#DejaVuSans-30" transform="translate(211.035156 0)"/>
       <use xlink:href="#DejaVuSans-30" transform="translate(274.658203 0)"/>
       <use xlink:href="#DejaVuSans-30" transform="translate(338.28125 0)"/>
      </g>
     </g>
    </g>
    <g id="xtick_2">
     <g id="line2d_3">
      <path d="M 146.949279 150.393581 
L 146.949279 7.2 
" clip-path="url(#p50d2e37f31)" style="fill: none; stroke: #b0b0b0; stroke-width: 0.8; stroke-linecap: square"/>
     </g>
     <g id="line2d_4">
      <g>
       <use xlink:href="#m74e23e66e9" x="146.949279" y="150.393581" style="stroke: #000000; stroke-width: 0.8"/>
      </g>
     </g>
     <g id="text_2">
      <!-- −60000 -->
      <g transform="translate(126.853185 164.992018) scale(0.1 -0.1)">
       <defs>
        <path id="DejaVuSans-36" d="M 2113 2584 
Q 1688 2584 1439 2293 
Q 1191 2003 1191 1497 
Q 1191 994 1439 701 
Q 1688 409 2113 409 
Q 2538 409 2786 701 
Q 3034 994 3034 1497 
Q 3034 2003 2786 2293 
Q 2538 2584 2113 2584 
z
M 3366 4563 
L 3366 3988 
Q 3128 4100 2886 4159 
Q 2644 4219 2406 4219 
Q 1781 4219 1451 3797 
Q 1122 3375 1075 2522 
Q 1259 2794 1537 2939 
Q 1816 3084 2150 3084 
Q 2853 3084 3261 2657 
Q 3669 2231 3669 1497 
Q 3669 778 3244 343 
Q 2819 -91 2113 -91 
Q 1303 -91 875 529 
Q 447 1150 447 2328 
Q 447 3434 972 4092 
Q 1497 4750 2381 4750 
Q 2619 4750 2861 4703 
Q 3103 4656 3366 4563 
z
" transform="scale(0.015625)"/>
       </defs>
       <use xlink:href="#DejaVuSans-2212"/>
       <use xlink:href="#DejaVuSans-36" transform="translate(83.789062 0)"/>
       <use xlink:href="#DejaVuSans-30" transform="translate(147.412109 0)"/>
       <use xlink:href="#DejaVuSans-30" transform="translate(211.035156 0)"/>
       <use xlink:href="#DejaVuSans-30" transform="translate(274.658203 0)"/>
       <use xlink:href="#DejaVuSans-30" transform="translate(338.28125 0)"/>
      </g>
     </g>
    </g>
    <g id="xtick_3">
     <g id="line2d_5">
      <path d="M 213.71851 150.393581 
L 213.71851 7.2 
" clip-path="url(#p50d2e37f31)" style="fill: none; stroke: #b0b0b0; stroke-width: 0.8; stroke-linecap: square"/>
     </g>
     <g id="line2d_6">
      <g>
       <use xlink:href="#m74e23e66e9" x="213.71851" y="150.393581" style="stroke: #000000; stroke-width: 0.8"/>
      </g>
     </g>
     <g id="text_3">
      <!-- −40000 -->
      <g transform="translate(193.622416 164.992018) scale(0.1 -0.1)">
       <defs>
        <path id="DejaVuSans-34" d="M 2419 4116 
L 825 1625 
L 2419 1625 
L 2419 4116 
z
M 2253 4666 
L 3047 4666 
L 3047 1625 
L 3713 1625 
L 3713 1100 
L 3047 1100 
L 3047 0 
L 2419 0 
L 2419 1100 
L 313 1100 
L 313 1709 
L 2253 4666 
z
" transform="scale(0.015625)"/>
       </defs>
       <use xlink:href="#DejaVuSans-2212"/>
       <use xlink:href="#DejaVuSans-34" transform="translate(83.789062 0)"/>
       <use xlink:href="#DejaVuSans-30" transform="translate(147.412109 0)"/>
       <use xlink:href="#DejaVuSans-30" transform="translate(211.035156 0)"/>
       <use xlink:href="#DejaVuSans-30" transform="translate(274.658203 0)"/>
       <use xlink:href="#DejaVuSans-30" transform="translate(338.28125 0)"/>
      </g>
     </g>
    </g>
    <g id="xtick_4">
     <g id="line2d_7">
      <path d="M 280.48774 150.393581 
L 280.48774 7.2 
" clip-path="url(#p50d2e37f31)" style="fill: none; stroke: #b0b0b0; stroke-width: 0.8; stroke-linecap: square"/>
     </g>
     <g id="line2d_8">
      <g>
       <use xlink:href="#m74e23e66e9" x="280.48774" y="150.393581" style="stroke: #000000; stroke-width: 0.8"/>
      </g>
     </g>
     <g id="text_4">
      <!-- −20000 -->
      <g transform="translate(260.391647 164.992018) scale(0.1 -0.1)">
       <defs>
        <path id="DejaVuSans-32" d="M 1228 531 
L 3431 531 
L 3431 0 
L 469 0 
L 469 531 
Q 828 903 1448 1529 
Q 2069 2156 2228 2338 
Q 2531 2678 2651 2914 
Q 2772 3150 2772 3378 
Q 2772 3750 2511 3984 
Q 2250 4219 1831 4219 
Q 1534 4219 1204 4116 
Q 875 4013 500 3803 
L 500 4441 
Q 881 4594 1212 4672 
Q 1544 4750 1819 4750 
Q 2544 4750 2975 4387 
Q 3406 4025 3406 3419 
Q 3406 3131 3298 2873 
Q 3191 2616 2906 2266 
Q 2828 2175 2409 1742 
Q 1991 1309 1228 531 
z
" transform="scale(0.015625)"/>
       </defs>
       <use xlink:href="#DejaVuSans-2212"/>
       <use xlink:href="#DejaVuSans-32" transform="translate(83.789062 0)"/>
       <use xlink:href="#DejaVuSans-30" transform="translate(147.412109 0)"/>
       <use xlink:href="#DejaVuSans-30" transform="translate(211.035156 0)"/>
       <use xlink:href="#DejaVuSans-30" transform="translate(274.658203 0)"/>
       <use xlink:href="#DejaVuSans-30" transform="translate(338.28125 0)"/>
      </g>
     </g>
    </g>
    <g id="xtick_5">
     <g id="line2d_9">
      <path d="M 347.256971 150.393581 
L 347.256971 7.2 
" clip-path="url(#p50d2e37f31)" style="fill: none; stroke: #b0b0b0; stroke-width: 0.8; stroke-linecap: square"/>
     </g>
     <g id="line2d_10">
      <g>
       <use xlink:href="#m74e23e66e9" x="347.256971" y="150.393581" style="stroke: #000000; stroke-width: 0.8"/>
      </g>
     </g>
     <g id="text_5">
      <!-- 0 -->
      <g transform="translate(344.075721 164.992018) scale(0.1 -0.1)">
       <use xlink:href="#DejaVuSans-30"/>
      </g>
     </g>
    </g>
    <g id="xtick_6">
     <g id="line2d_11">
      <path d="M 414.026202 150.393581 
L 414.026202 7.2 
" clip-path="url(#p50d2e37f31)" style="fill: none; stroke: #b0b0b0; stroke-width: 0.8; stroke-linecap: square"/>
     </g>
     <g id="line2d_12">
      <g>
       <use xlink:href="#m74e23e66e9" x="414.026202" y="150.393581" style="stroke: #000000; stroke-width: 0.8"/>
      </g>
     </g>
     <g id="text_6">
      <!-- 20000 -->
      <g transform="translate(398.119952 164.992018) scale(0.1 -0.1)">
       <use xlink:href="#DejaVuSans-32"/>
       <use xlink:href="#DejaVuSans-30" transform="translate(63.623047 0)"/>
       <use xlink:href="#DejaVuSans-30" transform="translate(127.246094 0)"/>
       <use xlink:href="#DejaVuSans-30" transform="translate(190.869141 0)"/>
       <use xlink:href="#DejaVuSans-30" transform="translate(254.492188 0)"/>
      </g>
     </g>
    </g>
    <g id="text_7">
     <!-- score -->
     <g transform="translate(211.970313 178.670143) scale(0.1 -0.1)">
      <defs>
       <path id="DejaVuSans-73" d="M 2834 3397 
L 2834 2853 
Q 2591 2978 2328 3040 
Q 2066 3103 1784 3103 
Q 1356 3103 1142 2972 
Q 928 2841 928 2578 
Q 928 2378 1081 2264 
Q 1234 2150 1697 2047 
L 1894 2003 
Q 2506 1872 2764 1633 
Q 3022 1394 3022 966 
Q 3022 478 2636 193 
Q 2250 -91 1575 -91 
Q 1294 -91 989 -36 
Q 684 19 347 128 
L 347 722 
Q 666 556 975 473 
Q 1284 391 1588 391 
Q 1994 391 2212 530 
Q 2431 669 2431 922 
Q 2431 1156 2273 1281 
Q 2116 1406 1581 1522 
L 1381 1569 
Q 847 1681 609 1914 
Q 372 2147 372 2553 
Q 372 3047 722 3315 
Q 1072 3584 1716 3584 
Q 2034 3584 2315 3537 
Q 2597 3491 2834 3397 
z
" transform="scale(0.015625)"/>
       <path id="DejaVuSans-63" d="M 3122 3366 
L 3122 2828 
Q 2878 2963 2633 3030 
Q 2388 3097 2138 3097 
Q 1578 3097 1268 2742 
Q 959 2388 959 1747 
Q 959 1106 1268 751 
Q 1578 397 2138 397 
Q 2388 397 2633 464 
Q 2878 531 3122 666 
L 3122 134 
Q 2881 22 2623 -34 
Q 2366 -91 2075 -91 
Q 1284 -91 818 406 
Q 353 903 353 1747 
Q 353 2603 823 3093 
Q 1294 3584 2113 3584 
Q 2378 3584 2631 3529 
Q 2884 3475 3122 3366 
z
" transform="scale(0.015625)"/>
       <path id="DejaVuSans-6f" d="M 1959 3097 
Q 1497 3097 1228 2736 
Q 959 2375 959 1747 
Q 959 1119 1226 758 
Q 1494 397 1959 397 
Q 2419 397 2687 759 
Q 2956 1122 2956 1747 
Q 2956 2369 2687 2733 
Q 2419 3097 1959 3097 
z
M 1959 3584 
Q 2709 3584 3137 3096 
Q 3566 2609 3566 1747 
Q 3566 888 3137 398 
Q 2709 -91 1959 -91 
Q 1206 -91 779 398 
Q 353 888 353 1747 
Q 353 2609 779 3096 
Q 1206 3584 1959 3584 
z
" transform="scale(0.015625)"/>
       <path id="DejaVuSans-72" d="M 2631 2963 
Q 2534 3019 2420 3045 
Q 2306 3072 2169 3072 
Q 1681 3072 1420 2755 
Q 1159 2438 1159 1844 
L 1159 0 
L 581 0 
L 581 3500 
L 1159 3500 
L 1159 2956 
Q 1341 3275 1631 3429 
Q 1922 3584 2338 3584 
Q 2397 3584 2469 3576 
Q 2541 3569 2628 3553 
L 2631 2963 
z
" transform="scale(0.015625)"/>
       <path id="DejaVuSans-65" d="M 3597 1894 
L 3597 1613 
L 953 1613 
Q 991 1019 1311 708 
Q 1631 397 2203 397 
Q 2534 397 2845 478 
Q 3156 559 3463 722 
L 3463 178 
Q 3153 47 2828 -22 
Q 2503 -91 2169 -91 
Q 1331 -91 842 396 
Q 353 884 353 1716 
Q 353 2575 817 3079 
Q 1281 3584 2069 3584 
Q 2775 3584 3186 3129 
Q 3597 2675 3597 1894 
z
M 3022 2063 
Q 3016 2534 2758 2815 
Q 2500 3097 2075 3097 
Q 1594 3097 1305 2825 
Q 1016 2553 972 2059 
L 3022 2063 
z
" transform="scale(0.015625)"/>
      </defs>
      <use xlink:href="#DejaVuSans-73"/>
      <use xlink:href="#DejaVuSans-63" transform="translate(52.099609 0)"/>
      <use xlink:href="#DejaVuSans-6f" transform="translate(107.080078 0)"/>
      <use xlink:href="#DejaVuSans-72" transform="translate(168.261719 0)"/>
      <use xlink:href="#DejaVuSans-65" transform="translate(207.125 0)"/>
     </g>
    </g>
   </g>
   <g id="matplotlib.axis_2">
    <g id="ytick_1">
     <g id="line2d_13">
      <path d="M 30.103125 143.908799 
L 420.703125 143.908799 
" clip-path="url(#p50d2e37f31)" style="fill: none; stroke: #b0b0b0; stroke-width: 0.8; stroke-linecap: square"/>
     </g>
     <g id="line2d_14">
      <defs>
       <path id="m9bf2755123" d="M 0 0 
L -3.5 0 
" style="stroke: #000000; stroke-width: 0.8"/>
      </defs>
      <g>
       <use xlink:href="#m9bf2755123" x="30.103125" y="143.908799" style="stroke: #000000; stroke-width: 0.8"/>
      </g>
     </g>
     <g id="text_8">
      <!-- 0.0 -->
      <g transform="translate(7.2 147.708018) scale(0.1 -0.1)">
       <defs>
        <path id="DejaVuSans-2e" d="M 684 794 
L 1344 794 
L 1344 0 
L 684 0 
L 684 794 
z
" transform="scale(0.015625)"/>
       </defs>
       <use xlink:href="#DejaVuSans-30"/>
       <use xlink:href="#DejaVuSans-2e" transform="translate(63.623047 0)"/>
       <use xlink:href="#DejaVuSans-30" transform="translate(95.410156 0)"/>
      </g>
     </g>
    </g>
    <g id="ytick_2">
     <g id="line2d_15">
      <path d="M 30.103125 117.868799 
L 420.703125 117.868799 
" clip-path="url(#p50d2e37f31)" style="fill: none; stroke: #b0b0b0; stroke-width: 0.8; stroke-linecap: square"/>
     </g>
     <g id="line2d_16">
      <g>
       <use xlink:href="#m9bf2755123" x="30.103125" y="117.868799" style="stroke: #000000; stroke-width: 0.8"/>
      </g>
     </g>
     <g id="text_9">
      <!-- 0.2 -->
      <g transform="translate(7.2 121.668018) scale(0.1 -0.1)">
       <use xlink:href="#DejaVuSans-30"/>
       <use xlink:href="#DejaVuSans-2e" transform="translate(63.623047 0)"/>
       <use xlink:href="#DejaVuSans-32" transform="translate(95.410156 0)"/>
      </g>
     </g>
    </g>
    <g id="ytick_3">
     <g id="line2d_17">
      <path d="M 30.103125 91.828799 
L 420.703125 91.828799 
" clip-path="url(#p50d2e37f31)" style="fill: none; stroke: #b0b0b0; stroke-width: 0.8; stroke-linecap: square"/>
     </g>
     <g id="line2d_18">
      <g>
       <use xlink:href="#m9bf2755123" x="30.103125" y="91.828799" style="stroke: #000000; stroke-width: 0.8"/>
      </g>
     </g>
     <g id="text_10">
      <!-- 0.4 -->
      <g transform="translate(7.2 95.628018) scale(0.1 -0.1)">
       <use xlink:href="#DejaVuSans-30"/>
       <use xlink:href="#DejaVuSans-2e" transform="translate(63.623047 0)"/>
       <use xlink:href="#DejaVuSans-34" transform="translate(95.410156 0)"/>
      </g>
     </g>
    </g>
    <g id="ytick_4">
     <g id="line2d_19">
      <path d="M 30.103125 65.788799 
L 420.703125 65.788799 
" clip-path="url(#p50d2e37f31)" style="fill: none; stroke: #b0b0b0; stroke-width: 0.8; stroke-linecap: square"/>
     </g>
     <g id="line2d_20">
      <g>
       <use xlink:href="#m9bf2755123" x="30.103125" y="65.788799" style="stroke: #000000; stroke-width: 0.8"/>
      </g>
     </g>
     <g id="text_11">
      <!-- 0.6 -->
      <g transform="translate(7.2 69.588018) scale(0.1 -0.1)">
       <use xlink:href="#DejaVuSans-30"/>
       <use xlink:href="#DejaVuSans-2e" transform="translate(63.623047 0)"/>
       <use xlink:href="#DejaVuSans-36" transform="translate(95.410156 0)"/>
      </g>
     </g>
    </g>
    <g id="ytick_5">
     <g id="line2d_21">
      <path d="M 30.103125 39.748799 
L 420.703125 39.748799 
" clip-path="url(#p50d2e37f31)" style="fill: none; stroke: #b0b0b0; stroke-width: 0.8; stroke-linecap: square"/>
     </g>
     <g id="line2d_22">
      <g>
       <use xlink:href="#m9bf2755123" x="30.103125" y="39.748799" style="stroke: #000000; stroke-width: 0.8"/>
      </g>
     </g>
     <g id="text_12">
      <!-- 0.8 -->
      <g transform="translate(7.2 43.548018) scale(0.1 -0.1)">
       <use xlink:href="#DejaVuSans-30"/>
       <use xlink:href="#DejaVuSans-2e" transform="translate(63.623047 0)"/>
       <use xlink:href="#DejaVuSans-38" transform="translate(95.410156 0)"/>
      </g>
     </g>
    </g>
    <g id="ytick_6">
     <g id="line2d_23">
      <path d="M 30.103125 13.708799 
L 420.703125 13.708799 
" clip-path="url(#p50d2e37f31)" style="fill: none; stroke: #b0b0b0; stroke-width: 0.8; stroke-linecap: square"/>
     </g>
     <g id="line2d_24">
      <g>
       <use xlink:href="#m9bf2755123" x="30.103125" y="13.708799" style="stroke: #000000; stroke-width: 0.8"/>
      </g>
     </g>
     <g id="text_13">
      <!-- 1.0 -->
      <g transform="translate(7.2 17.508018) scale(0.1 -0.1)">
       <defs>
        <path id="DejaVuSans-31" d="M 794 531 
L 1825 531 
L 1825 4091 
L 703 3866 
L 703 4441 
L 1819 4666 
L 2450 4666 
L 2450 531 
L 3481 531 
L 3481 0 
L 794 0 
L 794 531 
z
" transform="scale(0.015625)"/>
       </defs>
       <use xlink:href="#DejaVuSans-31"/>
       <use xlink:href="#DejaVuSans-2e" transform="translate(63.623047 0)"/>
       <use xlink:href="#DejaVuSans-30" transform="translate(95.410156 0)"/>
      </g>
     </g>
    </g>
   </g>
   <g id="line2d_25">
    <path d="M 47.859004 132.145229 
L 222.749315 132.030181 
L 264.227975 131.598244 
L 270.226895 131.421463 
L 274.03145 131.285666 
L 279.472229 131.048834 
L 279.578926 131.044128 
L 281.99854 130.908548 
L 282.11387 130.902292 
L 285.48893 130.689057 
L 294.045489 129.926057 
L 297.298405 129.497492 
L 297.510829 129.470163 
L 298.890776 129.258098 
L 299.00866 129.236302 
L 299.013888 129.238722 
L 300.66301 128.972417 
L 301.312022 128.850684 
L 302.340914 128.642148 
L 302.665842 128.578725 
L 303.629787 128.361018 
L 304.726453 128.120471 
L 304.885954 128.085063 
L 305.702476 127.888043 
L 305.844789 127.853054 
L 306.61857 127.654257 
L 306.806055 127.592339 
L 307.440673 127.413373 
L 308.230948 127.168353 
L 308.654006 127.027987 
L 308.791143 126.9858 
L 309.319533 126.789585 
L 309.82354 126.620698 
L 311.764718 125.813814 
L 311.986807 125.710812 
L 312.326709 125.568984 
L 312.53911 125.462563 
L 313.005813 125.225924 
L 314.749357 124.321351 
L 315.433007 123.954575 
L 315.674449 123.816881 
L 319.667779 120.85937 
L 319.795735 120.731996 
L 319.99039 120.552529 
L 320.427867 120.104027 
L 320.62737 119.899006 
L 320.793193 119.738165 
L 320.916069 119.602784 
L 321.855786 118.602347 
L 322.137768 118.300043 
L 322.283159 118.127778 
L 322.478341 117.912976 
L 322.624221 117.715477 
L 326.247631 112.292068 
L 326.37417 112.075933 
L 326.463895 111.879099 
L 326.574973 111.652347 
L 326.793053 111.262304 
L 326.919975 111.029568 
L 327.044755 110.799716 
L 327.16091 110.579787 
L 327.809246 109.376863 
L 327.976487 109.023665 
L 328.08307 108.797554 
L 329.853114 104.682361 
L 330.014214 104.26675 
L 330.016803 104.269741 
L 331.941236 99.035441 
L 332.196821 98.236455 
L 332.327778 97.813147 
L 332.45617 97.357554 
L 332.456593 97.363389 
L 332.544532 97.063871 
L 332.652976 96.68581 
L 332.781675 96.258284 
L 332.845677 96.042391 
L 333.101987 95.139924 
L 333.256601 94.594571 
L 333.266227 94.596914 
L 333.352611 94.320377 
L 335.89376 84.633908 
L 336.022757 84.107084 
L 336.187632 83.436476 
L 336.41615 82.543294 
L 336.525843 82.07551 
L 336.582446 81.876986 
L 337.081252 79.777377 
L 337.198159 79.249014 
L 337.400671 78.533673 
L 338.910541 71.725076 
L 339.068544 71.052455 
L 339.209417 70.357851 
L 339.452303 69.252067 
L 339.676488 68.148471 
L 339.677186 68.154946 
L 339.749061 67.803132 
L 339.751645 67.8096 
L 341.53454 60.054132 
L 341.589743 59.819473 
L 341.718968 59.25848 
L 341.724305 59.264662 
L 341.743517 59.121228 
L 341.862401 58.618261 
L 341.959249 58.278707 
L 342.216921 57.127004 
L 342.218453 57.133075 
L 342.218517 57.139149 
L 342.323652 56.625421 
L 344.144745 49.447975 
L 344.147801 49.453578 
L 344.195477 49.316433 
L 344.195933 49.322028 
L 344.367401 48.594132 
L 344.371014 48.599671 
L 344.752496 47.209318 
L 344.763139 47.220192 
L 344.779779 47.105353 
L 344.852133 46.885373 
L 345.069653 46.188938 
L 345.609102 44.518305 
L 345.73448 43.969213 
L 345.736104 43.974393 
L 346.465841 42.033253 
L 346.474232 42.038284 
L 346.479227 42.043317 
L 346.515038 41.923436 
L 346.684266 41.344709 
L 346.907279 40.710436 
L 347.128981 40.104261 
L 347.129206 40.109131 
L 347.217112 39.946364 
L 347.328969 39.608016 
L 347.5072 39.106502 
L 347.50861 39.111285 
L 347.510899 39.11607 
L 347.539827 38.946887 
L 347.779553 38.270611 
L 347.909704 37.875562 
L 347.918483 37.889515 
L 348.394312 36.689806 
L 348.538318 36.409674 
L 348.582903 36.307207 
L 348.763957 35.805883 
L 348.784962 35.819222 
L 348.874173 35.79841 
L 348.881213 35.754773 
L 349.00921 35.470572 
L 349.020817 35.474998 
L 349.044819 35.369031 
L 349.401709 34.3819 
L 349.402698 34.386192 
L 349.407585 34.390485 
L 349.431352 34.28094 
L 349.761129 33.320399 
L 349.776327 33.324566 
L 350.368876 31.798483 
L 350.369398 31.802454 
L 350.511633 31.503853 
L 350.595536 31.451542 
L 350.604826 31.426618 
L 350.721563 31.076544 
L 350.723339 31.080419 
L 350.747778 30.933023 
L 350.777538 30.956148 
L 350.901401 30.607222 
L 351.012085 30.316244 
L 351.018709 30.320014 
L 351.191543 30.244497 
L 351.308174 30.039984 
L 351.31937 30.043744 
L 351.358617 29.987553 
L 351.364309 29.965019 
L 351.478264 29.866767 
L 351.543356 29.79821 
L 351.663719 29.595029 
L 351.675125 29.59875 
L 351.685085 29.52207 
L 351.694164 29.502652 
L 351.834157 29.27987 
L 351.845674 29.287234 
L 351.856104 29.294605 
L 351.869543 29.193376 
L 351.987222 29.042846 
L 351.992447 29.050146 
L 352.069112 28.977058 
L 352.217645 28.66928 
L 352.45625 28.39803 
L 352.464163 28.412392 
L 352.569718 28.392288 
L 352.578806 28.339092 
L 352.71601 28.053414 
L 352.721713 28.056975 
L 352.779977 28.035013 
L 352.789551 27.977292 
L 352.885607 27.755407 
L 352.909688 27.780063 
L 353.038075 27.744497 
L 353.175237 27.473272 
L 353.180127 27.480271 
L 353.268546 27.456006 
L 353.278671 27.429799 
L 353.509203 27.125586 
L 353.571555 27.035827 
L 353.724152 26.759386 
L 353.737754 26.769614 
L 353.76825 26.800394 
L 353.792119 26.691218 
L 353.829555 26.72195 
L 353.977399 26.601253 
L 353.983202 26.611502 
L 354.083104 26.555199 
L 354.183497 26.411238 
L 354.224606 26.435115 
L 354.361308 26.376907 
L 354.49045 26.064839 
L 354.535052 26.024053 
L 354.535572 25.995178 
L 354.631529 25.928448 
L 354.660024 25.938516 
L 354.722977 25.907201 
L 354.667575 25.909459 
L 354.735466 25.874676 
L 354.84163 25.669998 
L 354.848101 25.673319 
L 354.852413 25.679966 
L 354.871328 25.555043 
L 354.885613 25.568242 
L 355.005166 25.392478 
L 355.005506 25.395756 
L 355.044318 25.431928 
L 355.075454 25.375071 
L 355.378647 24.895523 
L 355.384948 24.901956 
L 355.475914 24.781637 
L 355.50272 24.800888 
L 355.560922 24.798508 
L 355.566349 24.732424 
L 355.656683 24.628554 
L 355.682319 24.650937 
L 355.704328 24.552435 
L 355.73123 24.568359 
L 355.829121 24.453273 
L 355.83994 24.456441 
L 355.852888 24.472307 
L 355.882652 24.356266 
L 355.886347 24.362579 
L 356.031755 24.026682 
L 356.092524 24.07006 
L 356.110354 23.965083 
L 356.217988 23.81493 
L 356.25421 23.833277 
L 356.255041 23.836341 
L 356.258126 23.76666 
L 356.341458 23.77295 
L 356.431442 23.650766 
L 356.469593 23.672068 
L 356.591501 23.711823 
L 356.477706 23.64438 
L 356.599936 23.677802 
L 356.715987 23.459638 
L 356.729359 23.474812 
L 356.941739 23.412384 
L 357.029292 23.247714 
L 356.982572 23.423374 
L 357.0592 23.271979 
L 357.077057 23.207302 
L 357.139363 23.237658 
L 357.235019 23.071496 
L 357.265648 23.086548 
L 357.441416 23.06018 
L 357.556105 22.877813 
L 357.617757 22.803494 
L 357.73076 22.674667 
L 357.738792 22.683624 
L 357.83482 22.694126 
L 357.760033 22.65218 
L 357.846994 22.656503 
L 357.975391 22.544113 
L 357.980226 22.547097 
L 358.00228 22.468028 
L 358.007015 22.470991 
L 358.135266 22.207842 
L 358.136891 22.213655 
L 358.220152 22.173815 
L 358.150007 22.177817 
L 358.232169 22.137725 
L 358.353412 21.750298 
L 358.371727 21.758678 
L 358.561593 21.757693 
L 358.669968 21.616426 
L 358.678681 21.619219 
L 358.823313 21.599708 
L 358.690743 21.581571 
L 358.825358 21.556089 
L 359.000352 21.315146 
L 359.022222 21.328886 
L 359.195935 21.255937 
L 359.234063 21.087593 
L 359.324891 21.12011 
L 359.44435 21.065003 
L 359.506137 20.998454 
L 359.54575 21.022862 
L 359.82692 20.977603 
L 359.915429 20.862645 
L 359.939527 20.873505 
L 360.183119 20.875312 
L 360.186081 20.827937 
L 360.324238 20.556092 
L 360.388431 20.499623 
L 360.516368 20.205908 
L 360.517751 20.208482 
L 360.61604 20.226621 
L 360.62481 20.179661 
L 360.638477 20.085515 
L 360.741626 20.131929 
L 360.786342 20.152775 
L 360.819283 20.062601 
L 360.832087 20.067773 
L 360.924196 20.0002 
L 361.016777 19.873064 
L 361.061015 19.908799 
L 361.170897 19.95015 
L 361.199851 19.864699 
L 361.276356 19.6969 
L 361.306223 19.719727 
L 361.407371 19.765905 
L 361.435381 19.680252 
L 361.492796 19.532799 
L 361.569225 19.57824 
L 361.591591 19.485398 
L 361.64236 19.515708 
L 361.723177 19.322349 
L 361.751697 19.337207 
L 362.057776 19.458957 
L 362.13629 19.320868 
L 362.167463 19.331072 
L 362.19253 19.282023 
L 362.269464 19.307518 
L 362.321785 19.148744 
L 362.382154 19.181409 
L 362.450061 19.088465 
L 362.556064 18.955847 
L 362.565363 18.960769 
L 362.578927 18.907014 
L 362.641107 18.931546 
L 362.685877 18.82556 
L 362.72343 18.837703 
L 362.89521 18.774217 
L 362.97337 18.663423 
L 363.010781 18.672988 
L 363.135159 18.535726 
L 363.13864 18.538082 
L 363.442235 18.526199 
L 363.442743 18.463476 
L 363.542587 18.499424 
L 363.977385 18.536058 
L 363.984567 18.470555 
L 364.088973 18.495564 
L 364.542394 18.515314 
L 364.619216 18.45752 
L 364.671158 18.475684 
L 364.695581 18.501876 
L 364.725293 18.369041 
L 364.737258 18.376753 
L 364.793913 18.335562 
L 364.867941 18.223564 
L 364.896112 18.231152 
L 365.359647 18.169775 
L 365.481126 18.061526 
L 365.486216 18.066638 
L 365.973332 18.104748 
L 365.978437 18.027472 
L 366.087502 17.900997 
L 366.110421 17.91663 
L 366.320182 17.93016 
L 366.375738 17.857939 
L 366.441968 17.889917 
L 366.450211 17.814205 
L 366.791912 17.936632 
L 366.909033 17.548477 
L 366.950604 17.563981 
L 367.331367 17.581604 
L 367.337532 17.402416 
L 367.435143 17.426144 
L 367.653944 17.391033 
L 367.661875 17.29922 
L 367.768071 17.325466 
L 368.950151 17.562719 
L 368.962584 17.461561 
L 369.064743 17.501032 
L 369.627923 17.573939 
L 369.629617 17.466694 
L 369.722073 17.505369 
L 370.011633 17.507738 
L 370.123698 17.322228 
L 370.139042 17.331959 
L 370.63315 17.4669 
L 370.634113 17.34906 
L 370.733646 17.390232 
L 371.037049 17.381756 
L 371.119051 17.037413 
L 371.167074 17.057167 
L 371.424728 17.135115 
L 371.634729 17.23138 
L 371.693675 16.974003 
L 371.793046 17.015466 
L 372.791571 17.219467 
L 372.816062 17.070771 
L 372.903124 17.139218 
L 373.091417 17.20197 
L 373.09971 17.047261 
L 373.193411 17.07604 
L 373.236608 17.105321 
L 373.338464 16.824416 
L 373.371869 16.852128 
L 373.83243 17.024885 
L 373.967629 16.570338 
L 373.98015 16.574274 
L 375.107407 16.984271 
L 375.112108 16.78439 
L 375.212661 16.813728 
L 375.911284 17.041564 
L 375.914783 16.824697 
L 376.024076 16.889951 
L 376.562264 17.029018 
L 376.576748 16.797485 
L 376.683527 16.825926 
L 376.717477 16.83745 
L 376.821701 16.385808 
L 376.822667 16.390822 
L 377.482223 16.561787 
L 377.627383 16.637633 
L 377.989761 16.788799 
L 378.137618 16.891466 
L 378.898103 17.102638 
L 379.055804 16.816198 
L 379.116597 16.512148 
L 379.191014 16.566848 
L 380.172603 16.86729 
L 380.176968 16.523934 
L 380.278063 16.562498 
L 381.847666 17.047261 
L 382.117325 17.135115 
L 382.709446 17.325466 
L 382.92851 17.455562 
L 383.893436 17.925803 
L 383.925532 17.960228 
L 383.928796 17.444045 
L 384.000686 17.506299 
L 384.39758 17.654254 
L 384.421505 17.105321 
L 384.455352 17.120153 
L 384.818629 17.275922 
L 384.899476 17.359266 
L 385.263198 17.501032 
L 386.007078 17.954451 
L 386.278618 18.097563 
L 386.291331 17.386765 
L 386.362334 17.471805 
L 387.105223 17.855296 
L 387.437038 18.137371 
L 387.503851 17.275922 
L 387.543995 17.300523 
L 388.574895 17.566577 
L 388.735079 17.714953 
L 388.860998 17.875199 
L 388.881585 17.942945 
L 389.549889 18.237495 
L 389.95337 18.531021 
L 390.146594 18.716491 
L 390.15917 17.501032 
L 390.163723 17.538211 
L 390.730212 17.820378 
L 390.795584 17.908799 
L 391.109509 18.198454 
L 391.213217 18.358799 
L 394.308784 19.811924 
L 394.340605 17.842132 
L 394.351047 17.908799 
L 395.325543 18.198454 
L 395.829424 18.531021 
L 395.899508 18.622007 
L 396.339038 18.814681 
L 396.511486 19.023085 
L 397.02164 19.249225 
L 397.055984 19.369669 
L 398.241946 20.060019 
L 398.794965 20.218799 
L 398.879287 20.385722 
L 399.299078 20.561431 
L 399.426115 20.746637 
L 400.471464 20.942132 
L 400.702499 21.367623 
L 401.100697 21.599708 
L 401.121582 21.846299 
L 401.263444 22.108799 
L 401.607335 22.388799 
L 401.725417 22.688109 
L 402.094967 23.008799 
L 403.077074 23.353244 
L 403.913948 24.124799 
L 404.388925 25.030538 
L 404.601096 19.626981 
L 405.291635 20.218799 
L 405.316732 20.561431 
L 407.644698 21.367623 
L 408.568971 22.388799 
L 408.740903 23.008799 
L 409.739161 23.724184 
L 409.943357 24.558799 
L 410.163564 26.728799 
L 410.701858 13.708799 
L 434.376556 13.708799 
L 434.376556 13.708799 
" clip-path="url(#p50d2e37f31)" style="fill: none; stroke: #1f77b4; stroke-width: 1.5; stroke-linecap: square"/>
   </g>
   <g id="line2d_26">
    <path d="M 47.859004 13.708799 
L 245.869236 13.80487 
L 246.085936 13.828888 
L 259.489384 13.924958 
L 259.595636 13.948976 
L 264.655902 14.045047 
L 264.762976 14.069065 
L 275.471536 14.165136 
L 275.615605 14.189153 
L 283.698325 14.285224 
L 283.805135 14.309242 
L 289.525467 14.405313 
L 289.646854 14.453348 
L 293.573026 14.549419 
L 293.683129 14.573437 
L 297.181998 14.669507 
L 297.292978 14.693525 
L 299.827144 14.789596 
L 299.931732 14.837631 
L 303.07124 14.933702 
L 303.182177 14.95772 
L 305.194935 15.053791 
L 305.306145 15.077809 
L 308.222715 15.173879 
L 308.33406 15.197897 
L 309.662375 15.293968 
L 309.773049 15.317986 
L 311.670379 15.414056 
L 311.784522 15.438074 
L 313.352653 15.534145 
L 313.462193 15.558163 
L 313.938794 15.654234 
L 314.050047 15.702269 
L 315.449971 15.79834 
L 315.561669 15.822357 
L 317.487725 15.918428 
L 317.599841 15.990481 
L 318.465874 16.086552 
L 318.580135 16.134588 
L 319.601789 16.230659 
L 319.714429 16.254676 
L 320.327001 16.350747 
L 320.437949 16.374765 
L 320.951834 16.470836 
L 321.063012 16.494853 
L 321.71054 16.590924 
L 321.822142 16.614942 
L 322.689542 16.711013 
L 322.798491 16.759048 
L 323.356006 16.855119 
L 323.467623 16.903154 
L 323.802035 16.999225 
L 323.914874 17.047261 
L 324.581105 17.143331 
L 324.691381 17.167349 
L 324.881284 17.26342 
L 324.995671 17.383509 
L 325.250993 17.479579 
L 325.365512 17.527615 
L 325.773547 17.623686 
L 325.886074 17.695739 
L 326.280574 17.79181 
L 326.39201 17.839845 
L 326.742144 17.935916 
L 326.853671 17.959934 
L 327.183108 18.056004 
L 327.300772 18.176093 
L 327.53857 18.272164 
L 327.65032 18.320199 
L 327.762459 18.344217 
L 328.007701 18.440288 
L 328.11824 18.488323 
L 328.22417 18.584394 
L 328.337394 18.632429 
L 328.588835 18.7285 
L 328.701736 18.848589 
L 328.840434 18.94466 
L 328.952736 19.016713 
L 329.163304 19.112784 
L 329.272477 19.160819 
L 329.610776 19.25689 
L 329.721919 19.328943 
L 330.014214 19.425014 
L 330.131366 19.56912 
L 330.431725 19.665191 
L 330.545772 19.713226 
L 330.85776 19.809297 
L 330.969712 20.001439 
L 331.086234 20.09751 
L 331.197155 20.121527 
L 331.397562 20.217598 
L 331.511964 20.289651 
L 331.709966 20.385722 
L 331.823004 20.457775 
L 331.960767 20.553846 
L 332.076285 20.625899 
L 332.401229 20.72197 
L 332.511496 20.866076 
L 332.638582 20.962147 
L 332.7591 21.130271 
L 333.046513 21.226342 
L 333.163752 21.298395 
L 333.307764 21.394466 
L 333.423284 21.490537 
L 333.593433 21.586608 
L 333.712059 21.706696 
L 334.115925 21.802767 
L 334.230893 21.87482 
L 334.465549 21.970891 
L 334.576953 22.042944 
L 334.836426 22.139015 
L 334.958193 22.283121 
L 335.164395 22.379192 
L 335.273826 22.451245 
L 335.394785 22.547316 
L 335.506772 22.667405 
L 335.623659 22.763475 
L 335.736057 22.835529 
L 335.919064 22.931599 
L 336.032463 23.003652 
L 336.20272 23.099723 
L 336.328094 23.219812 
L 336.393674 23.315883 
L 336.510935 23.411954 
L 336.608056 23.508024 
L 336.720783 23.628113 
L 336.876812 23.724184 
L 336.994586 23.844272 
L 337.194571 23.940343 
L 337.310176 24.012396 
L 337.523172 24.108467 
L 337.634818 24.18052 
L 337.701953 24.276591 
L 337.811473 24.372662 
L 337.964934 24.468733 
L 338.099842 24.660874 
L 338.274944 24.756945 
L 338.389651 24.877034 
L 338.524683 24.973105 
L 338.647561 25.117211 
L 338.721535 25.213282 
L 338.843565 25.381406 
L 338.939913 25.477476 
L 339.052879 25.669618 
L 339.131036 25.765689 
L 339.279211 26.005866 
L 339.420864 26.101937 
L 339.532377 26.294079 
L 339.676488 26.390149 
L 339.790699 26.534256 
L 339.903987 26.630327 
L 340.012565 26.774433 
L 340.10786 26.870504 
L 340.247213 27.01461 
L 340.335907 27.110681 
L 340.445536 27.206752 
L 340.480672 27.302822 
L 340.61414 27.567017 
L 340.786973 27.663088 
L 340.891396 27.759159 
L 340.921243 27.85523 
L 341.037742 27.9513 
L 341.115614 28.047371 
L 341.238272 28.263531 
L 341.406496 28.359602 
L 341.517751 28.551743 
L 341.587277 28.647814 
L 341.699728 28.839956 
L 341.826775 28.936027 
L 341.952979 29.032097 
L 342.049163 29.128168 
L 342.166911 29.344328 
L 342.218453 29.440398 
L 342.328733 29.704593 
L 342.499937 29.94477 
L 342.576154 30.040841 
L 342.76171 30.497178 
L 342.817047 30.593248 
L 342.93543 30.809408 
L 343.009704 30.905479 
L 343.173816 31.193691 
L 344.90361 34.340011 
L 345.011939 34.580188 
L 345.056534 34.676259 
L 345.18845 34.988489 
L 345.393033 35.468843 
L 345.414155 35.564914 
L 345.553414 35.853127 
L 345.634899 35.949198 
L 345.76 36.261428 
L 345.825982 36.357499 
L 346.010957 36.909906 
L 346.19773 37.438296 
L 346.310591 37.726508 
L 346.374584 37.822579 
L 346.827893 38.975429 
L 346.845067 39.0715 
L 347.004638 39.575872 
L 347.129206 40.128279 
L 347.201808 40.22435 
L 347.625053 41.617377 
L 347.656312 41.713448 
L 347.781018 41.953625 
L 347.842956 42.049696 
L 347.976972 42.433979 
L 348.026319 42.53005 
L 348.238023 43.15451 
L 348.481553 44.043165 
L 348.523509 44.139236 
L 348.648174 44.30736 
L 348.693296 44.403431 
L 348.896093 45.099945 
L 349.101788 45.796458 
L 349.277754 46.156724 
L 349.299858 46.252795 
L 351.202997 52.329275 
L 351.31937 52.665523 
L 351.43312 53.073824 
L 351.567869 53.506143 
L 351.626935 53.74632 
L 352.015399 55.019258 
L 352.194235 55.451577 
L 352.240144 55.547648 
L 352.415258 56.460321 
L 356.980922 73.584947 
L 357.131626 74.233426 
L 357.616301 76.082789 
L 357.779692 76.947427 
L 357.946047 77.547869 
L 358.00228 77.64394 
L 358.453088 79.397233 
L 358.506787 79.493304 
L 360.604947 86.842723 
L 360.774042 87.587272 
L 361.321935 89.868954 
L 361.479732 90.565468 
L 361.502993 90.661538 
L 362.041697 92.919203 
L 362.205203 93.495628 
L 362.414872 94.192142 
L 362.449175 94.288213 
L 362.578927 94.816602 
L 362.765194 95.369009 
L 363.335113 97.386497 
L 363.630551 98.347205 
L 363.718179 98.6114 
L 364.031933 99.76425 
L 364.117072 99.932374 
L 364.329573 100.700941 
L 364.751321 101.973879 
L 364.896112 102.526287 
L 365.004488 102.766464 
L 365.283648 103.679137 
L 365.37054 103.991367 
L 365.486216 104.37565 
L 365.556382 104.567792 
L 365.716295 105.144217 
L 365.795937 105.312341 
L 366.209229 106.921527 
L 366.808789 108.866962 
L 366.847638 108.963033 
L 368.123435 113.046043 
L 368.21811 113.238185 
L 368.352175 113.59845 
L 368.469981 113.81461 
L 368.710873 114.270946 
L 368.836268 114.43907 
L 369.354081 115.639956 
L 369.525573 116.072274 
L 369.845115 117.081018 
L 370.084032 117.729496 
L 370.686986 119.002435 
L 370.880779 119.57886 
L 371.068591 119.963143 
L 371.170918 120.275374 
L 371.24282 120.467515 
L 371.461946 120.947869 
L 371.582786 121.236082 
L 372.062015 122.148755 
L 372.171053 122.340897 
L 372.303869 122.821251 
L 372.515729 123.229552 
L 372.733861 123.87803 
L 372.890874 124.286331 
L 373.017675 124.574543 
L 373.210018 124.934809 
L 373.697669 126.255783 
L 373.914563 126.592031 
L 374.115976 127.096403 
L 374.307329 127.384615 
L 374.72354 128.225235 
L 375.393719 129.498174 
L 375.615906 129.810404 
L 375.767425 130.050581 
L 375.927627 130.242723 
L 376.157007 130.651024 
L 376.245764 130.79513 
L 376.733315 131.251467 
L 376.912598 131.395573 
L 377.154968 131.563697 
L 377.38443 131.851909 
L 377.758354 132.668511 
L 377.866262 132.812618 
L 377.99915 133.076812 
L 378.898103 134.037521 
L 379.129688 134.133592 
L 379.253563 134.349751 
L 379.716705 134.78207 
L 379.833163 134.878141 
L 380.036348 135.022247 
L 380.363583 135.40653 
L 381.449482 136.223132 
L 381.6813 136.511345 
L 382.097655 136.77554 
L 382.544948 137.159823 
L 382.864342 137.303929 
L 383.073044 137.520089 
L 383.355284 137.688213 
L 383.466063 137.784283 
L 383.779311 137.952407 
L 383.928796 138.216602 
L 384.279668 138.480797 
L 384.679543 138.672939 
L 386.030118 139.657665 
L 386.080739 139.7057 
L 386.362334 139.873824 
L 387.166417 140.306143 
L 387.543995 140.522302 
L 388.589479 140.786497 
L 388.735079 140.882568 
L 389.041695 141.122745 
L 389.22643 141.17078 
L 389.721454 141.338904 
L 390.730212 141.69917 
L 390.795584 141.747205 
L 392.314366 142.107471 
L 398.241946 142.972108 
L 401.263444 143.212286 
L 406.565016 143.500498 
L 410.039312 143.668622 
L 410.701858 143.69264 
L 420.663704 143.860764 
L 434.376556 143.884781 
L 434.376556 143.884781 
" clip-path="url(#p50d2e37f31)" style="fill: none; stroke-dasharray: 5.55,2.4; stroke-dashoffset: 0; stroke: #ff7f0e; stroke-width: 1.5"/>
   </g>
   <g id="patch_3">
    <path d="M 30.103125 150.393581 
L 30.103125 7.2 
" style="fill: none; stroke: #000000; stroke-width: 0.8; stroke-linejoin: miter; stroke-linecap: square"/>
   </g>
   <g id="patch_4">
    <path d="M 420.703125 150.393581 
L 420.703125 7.2 
" style="fill: none; stroke: #000000; stroke-width: 0.8; stroke-linejoin: miter; stroke-linecap: square"/>
   </g>
   <g id="patch_5">
    <path d="M 30.103125 150.393581 
L 420.703125 150.393581 
" style="fill: none; stroke: #000000; stroke-width: 0.8; stroke-linejoin: miter; stroke-linecap: square"/>
   </g>
   <g id="patch_6">
    <path d="M 30.103125 7.2 
L 420.703125 7.2 
" style="fill: none; stroke: #000000; stroke-width: 0.8; stroke-linejoin: miter; stroke-linecap: square"/>
   </g>
   <g id="legend_1">
    <g id="patch_7">
     <path d="M 37.103125 94.974915 
L 113.717188 94.974915 
Q 115.717188 94.974915 115.717188 92.974915 
L 115.717188 64.618665 
Q 115.717188 62.618665 113.717188 62.618665 
L 37.103125 62.618665 
Q 35.103125 62.618665 35.103125 64.618665 
L 35.103125 92.974915 
Q 35.103125 94.974915 37.103125 94.974915 
z
" style="fill: #ffffff; opacity: 0.8; stroke: #cccccc; stroke-linejoin: miter"/>
    </g>
    <g id="line2d_27">
     <path d="M 39.103125 70.717103 
L 49.103125 70.717103 
L 59.103125 70.717103 
" style="fill: none; stroke: #1f77b4; stroke-width: 1.5; stroke-linecap: square"/>
    </g>
    <g id="text_14">
     <!-- Precision -->
     <g transform="translate(67.103125 74.217103) scale(0.1 -0.1)">
      <defs>
       <path id="DejaVuSans-50" d="M 1259 4147 
L 1259 2394 
L 2053 2394 
Q 2494 2394 2734 2622 
Q 2975 2850 2975 3272 
Q 2975 3691 2734 3919 
Q 2494 4147 2053 4147 
L 1259 4147 
z
M 628 4666 
L 2053 4666 
Q 2838 4666 3239 4311 
Q 3641 3956 3641 3272 
Q 3641 2581 3239 2228 
Q 2838 1875 2053 1875 
L 1259 1875 
L 1259 0 
L 628 0 
L 628 4666 
z
" transform="scale(0.015625)"/>
       <path id="DejaVuSans-69" d="M 603 3500 
L 1178 3500 
L 1178 0 
L 603 0 
L 603 3500 
z
M 603 4863 
L 1178 4863 
L 1178 4134 
L 603 4134 
L 603 4863 
z
" transform="scale(0.015625)"/>
       <path id="DejaVuSans-6e" d="M 3513 2113 
L 3513 0 
L 2938 0 
L 2938 2094 
Q 2938 2591 2744 2837 
Q 2550 3084 2163 3084 
Q 1697 3084 1428 2787 
Q 1159 2491 1159 1978 
L 1159 0 
L 581 0 
L 581 3500 
L 1159 3500 
L 1159 2956 
Q 1366 3272 1645 3428 
Q 1925 3584 2291 3584 
Q 2894 3584 3203 3211 
Q 3513 2838 3513 2113 
z
" transform="scale(0.015625)"/>
      </defs>
      <use xlink:href="#DejaVuSans-50"/>
      <use xlink:href="#DejaVuSans-72" transform="translate(58.552734 0)"/>
      <use xlink:href="#DejaVuSans-65" transform="translate(97.416016 0)"/>
      <use xlink:href="#DejaVuSans-63" transform="translate(158.939453 0)"/>
      <use xlink:href="#DejaVuSans-69" transform="translate(213.919922 0)"/>
      <use xlink:href="#DejaVuSans-73" transform="translate(241.703125 0)"/>
      <use xlink:href="#DejaVuSans-69" transform="translate(293.802734 0)"/>
      <use xlink:href="#DejaVuSans-6f" transform="translate(321.585938 0)"/>
      <use xlink:href="#DejaVuSans-6e" transform="translate(382.767578 0)"/>
     </g>
    </g>
    <g id="line2d_28">
     <path d="M 39.103125 85.395228 
L 49.103125 85.395228 
L 59.103125 85.395228 
" style="fill: none; stroke-dasharray: 5.55,2.4; stroke-dashoffset: 0; stroke: #ff7f0e; stroke-width: 1.5"/>
    </g>
    <g id="text_15">
     <!-- Recall -->
     <g transform="translate(67.103125 88.895228) scale(0.1 -0.1)">
      <defs>
       <path id="DejaVuSans-52" d="M 2841 2188 
Q 3044 2119 3236 1894 
Q 3428 1669 3622 1275 
L 4263 0 
L 3584 0 
L 2988 1197 
Q 2756 1666 2539 1819 
Q 2322 1972 1947 1972 
L 1259 1972 
L 1259 0 
L 628 0 
L 628 4666 
L 2053 4666 
Q 2853 4666 3247 4331 
Q 3641 3997 3641 3322 
Q 3641 2881 3436 2590 
Q 3231 2300 2841 2188 
z
M 1259 4147 
L 1259 2491 
L 2053 2491 
Q 2509 2491 2742 2702 
Q 2975 2913 2975 3322 
Q 2975 3731 2742 3939 
Q 2509 4147 2053 4147 
L 1259 4147 
z
" transform="scale(0.015625)"/>
       <path id="DejaVuSans-61" d="M 2194 1759 
Q 1497 1759 1228 1600 
Q 959 1441 959 1056 
Q 959 750 1161 570 
Q 1363 391 1709 391 
Q 2188 391 2477 730 
Q 2766 1069 2766 1631 
L 2766 1759 
L 2194 1759 
z
M 3341 1997 
L 3341 0 
L 2766 0 
L 2766 531 
Q 2569 213 2275 61 
Q 1981 -91 1556 -91 
Q 1019 -91 701 211 
Q 384 513 384 1019 
Q 384 1609 779 1909 
Q 1175 2209 1959 2209 
L 2766 2209 
L 2766 2266 
Q 2766 2663 2505 2880 
Q 2244 3097 1772 3097 
Q 1472 3097 1187 3025 
Q 903 2953 641 2809 
L 641 3341 
Q 956 3463 1253 3523 
Q 1550 3584 1831 3584 
Q 2591 3584 2966 3190 
Q 3341 2797 3341 1997 
z
" transform="scale(0.015625)"/>
       <path id="DejaVuSans-6c" d="M 603 4863 
L 1178 4863 
L 1178 0 
L 603 0 
L 603 4863 
z
" transform="scale(0.015625)"/>
      </defs>
      <use xlink:href="#DejaVuSans-52"/>
      <use xlink:href="#DejaVuSans-65" transform="translate(64.982422 0)"/>
      <use xlink:href="#DejaVuSans-63" transform="translate(126.505859 0)"/>
      <use xlink:href="#DejaVuSans-61" transform="translate(181.486328 0)"/>
      <use xlink:href="#DejaVuSans-6c" transform="translate(242.765625 0)"/>
      <use xlink:href="#DejaVuSans-6c" transform="translate(270.548828 0)"/>
     </g>
    </g>
   </g>
  </g>
 </g>
 <defs>
  <clipPath id="p50d2e37f31">
   <rect x="30.103125" y="7.2" width="390.6" height="143.193581"/>
  </clipPath>
 </defs>
</svg>
