<?xml version="1.0" encoding="utf-8" standalone="no"?>
<!DOCTYPE svg PUBLIC "-//W3C//DTD SVG 1.1//EN"
  "http://www.w3.org/Graphics/SVG/1.1/DTD/svg11.dtd">
<svg xmlns:xlink="http://www.w3.org/1999/xlink" width="449.532813pt" height="325.755469pt" viewBox="0 0 449.532813 325.755469" xmlns="http://www.w3.org/2000/svg" version="1.1">
 <metadata>
  <rdf:RDF xmlns:dc="http://purl.org/dc/elements/1.1/" xmlns:cc="http://creativecommons.org/ns#" xmlns:rdf="http://www.w3.org/1999/02/22-rdf-syntax-ns#">
   <cc:Work>
    <dc:type rdf:resource="http://purl.org/dc/dcmitype/StillImage"/>
    <dc:date>2025-04-09T12:11:32.406137</dc:date>
    <dc:format>image/svg+xml</dc:format>
    <dc:creator>
     <cc:Agent>
      <dc:title>Matplotlib v3.10.0, https://matplotlib.org/</dc:title>
     </cc:Agent>
    </dc:creator>
   </cc:Work>
  </rdf:RDF>
 </metadata>
 <defs>
  <style type="text/css">*{stroke-linejoin: round; stroke-linecap: butt}</style>
 </defs>
 <g id="figure_1">
  <g id="patch_1">
   <path d="M 0 325.755469 
L 449.532813 325.755469 
L 449.532813 0 
L 0 0 
z
" style="fill: #ffffff"/>
  </g>
  <g id="axes_1">
   <g id="patch_2">
    <path d="M 43.78125 288.199219 
L 434.38125 288.199219 
L 434.38125 10.999219 
L 43.78125 10.999219 
z
" style="fill: #ffffff"/>
   </g>
   <g id="matplotlib.axis_1">
    <g id="xtick_1">
     <g id="line2d_1">
      <path d="M 43.78125 288.199219 
L 43.78125 10.999219 
" clip-path="url(#pb1b6c79556)" style="fill: none; stroke: #b0b0b0; stroke-width: 0.8; stroke-linecap: square"/>
     </g>
     <g id="line2d_2">
      <defs>
       <path id="mb9efc73339" d="M 0 0 
L 0 3.5 
" style="stroke: #000000; stroke-width: 0.8"/>
      </defs>
      <g>
       <use xlink:href="#mb9efc73339" x="43.78125" y="288.199219" style="stroke: #000000; stroke-width: 0.8"/>
      </g>
     </g>
     <g id="text_1">
      <!-- 0.0 -->
      <g transform="translate(35.829688 302.797656) scale(0.1 -0.1)">
       <defs>
        <path id="DejaVuSans-30" d="M 2034 4250 
Q 1547 4250 1301 3770 
Q 1056 3291 1056 2328 
Q 1056 1369 1301 889 
Q 1547 409 2034 409 
Q 2525 409 2770 889 
Q 3016 1369 3016 2328 
Q 3016 3291 2770 3770 
Q 2525 4250 2034 4250 
z
M 2034 4750 
Q 2819 4750 3233 4129 
Q 3647 3509 3647 2328 
Q 3647 1150 3233 529 
Q 2819 -91 2034 -91 
Q 1250 -91 836 529 
Q 422 1150 422 2328 
Q 422 3509 836 4129 
Q 1250 4750 2034 4750 
z
" transform="scale(0.015625)"/>
        <path id="DejaVuSans-2e" d="M 684 794 
L 1344 794 
L 1344 0 
L 684 0 
L 684 794 
z
" transform="scale(0.015625)"/>
       </defs>
       <use xlink:href="#DejaVuSans-30"/>
       <use xlink:href="#DejaVuSans-2e" transform="translate(63.623047 0)"/>
       <use xlink:href="#DejaVuSans-30" transform="translate(95.410156 0)"/>
      </g>
     </g>
    </g>
    <g id="xtick_2">
     <g id="line2d_3">
      <path d="M 121.90125 288.199219 
L 121.90125 10.999219 
" clip-path="url(#pb1b6c79556)" style="fill: none; stroke: #b0b0b0; stroke-width: 0.8; stroke-linecap: square"/>
     </g>
     <g id="line2d_4">
      <g>
       <use xlink:href="#mb9efc73339" x="121.90125" y="288.199219" style="stroke: #000000; stroke-width: 0.8"/>
      </g>
     </g>
     <g id="text_2">
      <!-- 0.2 -->
      <g transform="translate(113.949688 302.797656) scale(0.1 -0.1)">
       <defs>
        <path id="DejaVuSans-32" d="M 1228 531 
L 3431 531 
L 3431 0 
L 469 0 
L 469 531 
Q 828 903 1448 1529 
Q 2069 2156 2228 2338 
Q 2531 2678 2651 2914 
Q 2772 3150 2772 3378 
Q 2772 3750 2511 3984 
Q 2250 4219 1831 4219 
Q 1534 4219 1204 4116 
Q 875 4013 500 3803 
L 500 4441 
Q 881 4594 1212 4672 
Q 1544 4750 1819 4750 
Q 2544 4750 2975 4387 
Q 3406 4025 3406 3419 
Q 3406 3131 3298 2873 
Q 3191 2616 2906 2266 
Q 2828 2175 2409 1742 
Q 1991 1309 1228 531 
z
" transform="scale(0.015625)"/>
       </defs>
       <use xlink:href="#DejaVuSans-30"/>
       <use xlink:href="#DejaVuSans-2e" transform="translate(63.623047 0)"/>
       <use xlink:href="#DejaVuSans-32" transform="translate(95.410156 0)"/>
      </g>
     </g>
    </g>
    <g id="xtick_3">
     <g id="line2d_5">
      <path d="M 200.02125 288.199219 
L 200.02125 10.999219 
" clip-path="url(#pb1b6c79556)" style="fill: none; stroke: #b0b0b0; stroke-width: 0.8; stroke-linecap: square"/>
     </g>
     <g id="line2d_6">
      <g>
       <use xlink:href="#mb9efc73339" x="200.02125" y="288.199219" style="stroke: #000000; stroke-width: 0.8"/>
      </g>
     </g>
     <g id="text_3">
      <!-- 0.4 -->
      <g transform="translate(192.069688 302.797656) scale(0.1 -0.1)">
       <defs>
        <path id="DejaVuSans-34" d="M 2419 4116 
L 825 1625 
L 2419 1625 
L 2419 4116 
z
M 2253 4666 
L 3047 4666 
L 3047 1625 
L 3713 1625 
L 3713 1100 
L 3047 1100 
L 3047 0 
L 2419 0 
L 2419 1100 
L 313 1100 
L 313 1709 
L 2253 4666 
z
" transform="scale(0.015625)"/>
       </defs>
       <use xlink:href="#DejaVuSans-30"/>
       <use xlink:href="#DejaVuSans-2e" transform="translate(63.623047 0)"/>
       <use xlink:href="#DejaVuSans-34" transform="translate(95.410156 0)"/>
      </g>
     </g>
    </g>
    <g id="xtick_4">
     <g id="line2d_7">
      <path d="M 278.14125 288.199219 
L 278.14125 10.999219 
" clip-path="url(#pb1b6c79556)" style="fill: none; stroke: #b0b0b0; stroke-width: 0.8; stroke-linecap: square"/>
     </g>
     <g id="line2d_8">
      <g>
       <use xlink:href="#mb9efc73339" x="278.14125" y="288.199219" style="stroke: #000000; stroke-width: 0.8"/>
      </g>
     </g>
     <g id="text_4">
      <!-- 0.6 -->
      <g transform="translate(270.189688 302.797656) scale(0.1 -0.1)">
       <defs>
        <path id="DejaVuSans-36" d="M 2113 2584 
Q 1688 2584 1439 2293 
Q 1191 2003 1191 1497 
Q 1191 994 1439 701 
Q 1688 409 2113 409 
Q 2538 409 2786 701 
Q 3034 994 3034 1497 
Q 3034 2003 2786 2293 
Q 2538 2584 2113 2584 
z
M 3366 4563 
L 3366 3988 
Q 3128 4100 2886 4159 
Q 2644 4219 2406 4219 
Q 1781 4219 1451 3797 
Q 1122 3375 1075 2522 
Q 1259 2794 1537 2939 
Q 1816 3084 2150 3084 
Q 2853 3084 3261 2657 
Q 3669 2231 3669 1497 
Q 3669 778 3244 343 
Q 2819 -91 2113 -91 
Q 1303 -91 875 529 
Q 447 1150 447 2328 
Q 447 3434 972 4092 
Q 1497 4750 2381 4750 
Q 2619 4750 2861 4703 
Q 3103 4656 3366 4563 
z
" transform="scale(0.015625)"/>
       </defs>
       <use xlink:href="#DejaVuSans-30"/>
       <use xlink:href="#DejaVuSans-2e" transform="translate(63.623047 0)"/>
       <use xlink:href="#DejaVuSans-36" transform="translate(95.410156 0)"/>
      </g>
     </g>
    </g>
    <g id="xtick_5">
     <g id="line2d_9">
      <path d="M 356.26125 288.199219 
L 356.26125 10.999219 
" clip-path="url(#pb1b6c79556)" style="fill: none; stroke: #b0b0b0; stroke-width: 0.8; stroke-linecap: square"/>
     </g>
     <g id="line2d_10">
      <g>
       <use xlink:href="#mb9efc73339" x="356.26125" y="288.199219" style="stroke: #000000; stroke-width: 0.8"/>
      </g>
     </g>
     <g id="text_5">
      <!-- 0.8 -->
      <g transform="translate(348.309687 302.797656) scale(0.1 -0.1)">
       <defs>
        <path id="DejaVuSans-38" d="M 2034 2216 
Q 1584 2216 1326 1975 
Q 1069 1734 1069 1313 
Q 1069 891 1326 650 
Q 1584 409 2034 409 
Q 2484 409 2743 651 
Q 3003 894 3003 1313 
Q 3003 1734 2745 1975 
Q 2488 2216 2034 2216 
z
M 1403 2484 
Q 997 2584 770 2862 
Q 544 3141 544 3541 
Q 544 4100 942 4425 
Q 1341 4750 2034 4750 
Q 2731 4750 3128 4425 
Q 3525 4100 3525 3541 
Q 3525 3141 3298 2862 
Q 3072 2584 2669 2484 
Q 3125 2378 3379 2068 
Q 3634 1759 3634 1313 
Q 3634 634 3220 271 
Q 2806 -91 2034 -91 
Q 1263 -91 848 271 
Q 434 634 434 1313 
Q 434 1759 690 2068 
Q 947 2378 1403 2484 
z
M 1172 3481 
Q 1172 3119 1398 2916 
Q 1625 2713 2034 2713 
Q 2441 2713 2670 2916 
Q 2900 3119 2900 3481 
Q 2900 3844 2670 4047 
Q 2441 4250 2034 4250 
Q 1625 4250 1398 4047 
Q 1172 3844 1172 3481 
z
" transform="scale(0.015625)"/>
       </defs>
       <use xlink:href="#DejaVuSans-30"/>
       <use xlink:href="#DejaVuSans-2e" transform="translate(63.623047 0)"/>
       <use xlink:href="#DejaVuSans-38" transform="translate(95.410156 0)"/>
      </g>
     </g>
    </g>
    <g id="xtick_6">
     <g id="line2d_11">
      <path d="M 434.38125 288.199219 
L 434.38125 10.999219 
" clip-path="url(#pb1b6c79556)" style="fill: none; stroke: #b0b0b0; stroke-width: 0.8; stroke-linecap: square"/>
     </g>
     <g id="line2d_12">
      <g>
       <use xlink:href="#mb9efc73339" x="434.38125" y="288.199219" style="stroke: #000000; stroke-width: 0.8"/>
      </g>
     </g>
     <g id="text_6">
      <!-- 1.0 -->
      <g transform="translate(426.429688 302.797656) scale(0.1 -0.1)">
       <defs>
        <path id="DejaVuSans-31" d="M 794 531 
L 1825 531 
L 1825 4091 
L 703 3866 
L 703 4441 
L 1819 4666 
L 2450 4666 
L 2450 531 
L 3481 531 
L 3481 0 
L 794 0 
L 794 531 
z
" transform="scale(0.015625)"/>
       </defs>
       <use xlink:href="#DejaVuSans-31"/>
       <use xlink:href="#DejaVuSans-2e" transform="translate(63.623047 0)"/>
       <use xlink:href="#DejaVuSans-30" transform="translate(95.410156 0)"/>
      </g>
     </g>
    </g>
    <g id="text_7">
     <!-- recall -->
     <g transform="translate(225.470313 316.475781) scale(0.1 -0.1)">
      <defs>
       <path id="DejaVuSans-72" d="M 2631 2963 
Q 2534 3019 2420 3045 
Q 2306 3072 2169 3072 
Q 1681 3072 1420 2755 
Q 1159 2438 1159 1844 
L 1159 0 
L 581 0 
L 581 3500 
L 1159 3500 
L 1159 2956 
Q 1341 3275 1631 3429 
Q 1922 3584 2338 3584 
Q 2397 3584 2469 3576 
Q 2541 3569 2628 3553 
L 2631 2963 
z
" transform="scale(0.015625)"/>
       <path id="DejaVuSans-65" d="M 3597 1894 
L 3597 1613 
L 953 1613 
Q 991 1019 1311 708 
Q 1631 397 2203 397 
Q 2534 397 2845 478 
Q 3156 559 3463 722 
L 3463 178 
Q 3153 47 2828 -22 
Q 2503 -91 2169 -91 
Q 1331 -91 842 396 
Q 353 884 353 1716 
Q 353 2575 817 3079 
Q 1281 3584 2069 3584 
Q 2775 3584 3186 3129 
Q 3597 2675 3597 1894 
z
M 3022 2063 
Q 3016 2534 2758 2815 
Q 2500 3097 2075 3097 
Q 1594 3097 1305 2825 
Q 1016 2553 972 2059 
L 3022 2063 
z
" transform="scale(0.015625)"/>
       <path id="DejaVuSans-63" d="M 3122 3366 
L 3122 2828 
Q 2878 2963 2633 3030 
Q 2388 3097 2138 3097 
Q 1578 3097 1268 2742 
Q 959 2388 959 1747 
Q 959 1106 1268 751 
Q 1578 397 2138 397 
Q 2388 397 2633 464 
Q 2878 531 3122 666 
L 3122 134 
Q 2881 22 2623 -34 
Q 2366 -91 2075 -91 
Q 1284 -91 818 406 
Q 353 903 353 1747 
Q 353 2603 823 3093 
Q 1294 3584 2113 3584 
Q 2378 3584 2631 3529 
Q 2884 3475 3122 3366 
z
" transform="scale(0.015625)"/>
       <path id="DejaVuSans-61" d="M 2194 1759 
Q 1497 1759 1228 1600 
Q 959 1441 959 1056 
Q 959 750 1161 570 
Q 1363 391 1709 391 
Q 2188 391 2477 730 
Q 2766 1069 2766 1631 
L 2766 1759 
L 2194 1759 
z
M 3341 1997 
L 3341 0 
L 2766 0 
L 2766 531 
Q 2569 213 2275 61 
Q 1981 -91 1556 -91 
Q 1019 -91 701 211 
Q 384 513 384 1019 
Q 384 1609 779 1909 
Q 1175 2209 1959 2209 
L 2766 2209 
L 2766 2266 
Q 2766 2663 2505 2880 
Q 2244 3097 1772 3097 
Q 1472 3097 1187 3025 
Q 903 2953 641 2809 
L 641 3341 
Q 956 3463 1253 3523 
Q 1550 3584 1831 3584 
Q 2591 3584 2966 3190 
Q 3341 2797 3341 1997 
z
" transform="scale(0.015625)"/>
       <path id="DejaVuSans-6c" d="M 603 4863 
L 1178 4863 
L 1178 0 
L 603 0 
L 603 4863 
z
" transform="scale(0.015625)"/>
      </defs>
      <use xlink:href="#DejaVuSans-72"/>
      <use xlink:href="#DejaVuSans-65" transform="translate(38.863281 0)"/>
      <use xlink:href="#DejaVuSans-63" transform="translate(100.386719 0)"/>
      <use xlink:href="#DejaVuSans-61" transform="translate(155.367188 0)"/>
      <use xlink:href="#DejaVuSans-6c" transform="translate(216.646484 0)"/>
      <use xlink:href="#DejaVuSans-6c" transform="translate(244.429688 0)"/>
     </g>
    </g>
   </g>
   <g id="matplotlib.axis_2">
    <g id="ytick_1">
     <g id="line2d_13">
      <path d="M 43.78125 288.199219 
L 434.38125 288.199219 
" clip-path="url(#pb1b6c79556)" style="fill: none; stroke: #b0b0b0; stroke-width: 0.8; stroke-linecap: square"/>
     </g>
     <g id="line2d_14">
      <defs>
       <path id="m3206f9281f" d="M 0 0 
L -3.5 0 
" style="stroke: #000000; stroke-width: 0.8"/>
      </defs>
      <g>
       <use xlink:href="#m3206f9281f" x="43.78125" y="288.199219" style="stroke: #000000; stroke-width: 0.8"/>
      </g>
     </g>
     <g id="text_8">
      <!-- 0.0 -->
      <g transform="translate(20.878125 291.998438) scale(0.1 -0.1)">
       <use xlink:href="#DejaVuSans-30"/>
       <use xlink:href="#DejaVuSans-2e" transform="translate(63.623047 0)"/>
       <use xlink:href="#DejaVuSans-30" transform="translate(95.410156 0)"/>
      </g>
     </g>
    </g>
    <g id="ytick_2">
     <g id="line2d_15">
      <path d="M 43.78125 232.759219 
L 434.38125 232.759219 
" clip-path="url(#pb1b6c79556)" style="fill: none; stroke: #b0b0b0; stroke-width: 0.8; stroke-linecap: square"/>
     </g>
     <g id="line2d_16">
      <g>
       <use xlink:href="#m3206f9281f" x="43.78125" y="232.759219" style="stroke: #000000; stroke-width: 0.8"/>
      </g>
     </g>
     <g id="text_9">
      <!-- 0.2 -->
      <g transform="translate(20.878125 236.558438) scale(0.1 -0.1)">
       <use xlink:href="#DejaVuSans-30"/>
       <use xlink:href="#DejaVuSans-2e" transform="translate(63.623047 0)"/>
       <use xlink:href="#DejaVuSans-32" transform="translate(95.410156 0)"/>
      </g>
     </g>
    </g>
    <g id="ytick_3">
     <g id="line2d_17">
      <path d="M 43.78125 177.319219 
L 434.38125 177.319219 
" clip-path="url(#pb1b6c79556)" style="fill: none; stroke: #b0b0b0; stroke-width: 0.8; stroke-linecap: square"/>
     </g>
     <g id="line2d_18">
      <g>
       <use xlink:href="#m3206f9281f" x="43.78125" y="177.319219" style="stroke: #000000; stroke-width: 0.8"/>
      </g>
     </g>
     <g id="text_10">
      <!-- 0.4 -->
      <g transform="translate(20.878125 181.118437) scale(0.1 -0.1)">
       <use xlink:href="#DejaVuSans-30"/>
       <use xlink:href="#DejaVuSans-2e" transform="translate(63.623047 0)"/>
       <use xlink:href="#DejaVuSans-34" transform="translate(95.410156 0)"/>
      </g>
     </g>
    </g>
    <g id="ytick_4">
     <g id="line2d_19">
      <path d="M 43.78125 121.879219 
L 434.38125 121.879219 
" clip-path="url(#pb1b6c79556)" style="fill: none; stroke: #b0b0b0; stroke-width: 0.8; stroke-linecap: square"/>
     </g>
     <g id="line2d_20">
      <g>
       <use xlink:href="#m3206f9281f" x="43.78125" y="121.879219" style="stroke: #000000; stroke-width: 0.8"/>
      </g>
     </g>
     <g id="text_11">
      <!-- 0.6 -->
      <g transform="translate(20.878125 125.678437) scale(0.1 -0.1)">
       <use xlink:href="#DejaVuSans-30"/>
       <use xlink:href="#DejaVuSans-2e" transform="translate(63.623047 0)"/>
       <use xlink:href="#DejaVuSans-36" transform="translate(95.410156 0)"/>
      </g>
     </g>
    </g>
    <g id="ytick_5">
     <g id="line2d_21">
      <path d="M 43.78125 66.439219 
L 434.38125 66.439219 
" clip-path="url(#pb1b6c79556)" style="fill: none; stroke: #b0b0b0; stroke-width: 0.8; stroke-linecap: square"/>
     </g>
     <g id="line2d_22">
      <g>
       <use xlink:href="#m3206f9281f" x="43.78125" y="66.439219" style="stroke: #000000; stroke-width: 0.8"/>
      </g>
     </g>
     <g id="text_12">
      <!-- 0.8 -->
      <g transform="translate(20.878125 70.238437) scale(0.1 -0.1)">
       <use xlink:href="#DejaVuSans-30"/>
       <use xlink:href="#DejaVuSans-2e" transform="translate(63.623047 0)"/>
       <use xlink:href="#DejaVuSans-38" transform="translate(95.410156 0)"/>
      </g>
     </g>
    </g>
    <g id="ytick_6">
     <g id="line2d_23">
      <path d="M 43.78125 10.999219 
L 434.38125 10.999219 
" clip-path="url(#pb1b6c79556)" style="fill: none; stroke: #b0b0b0; stroke-width: 0.8; stroke-linecap: square"/>
     </g>
     <g id="line2d_24">
      <g>
       <use xlink:href="#m3206f9281f" x="43.78125" y="10.999219" style="stroke: #000000; stroke-width: 0.8"/>
      </g>
     </g>
     <g id="text_13">
      <!-- 1.0 -->
      <g transform="translate(20.878125 14.798438) scale(0.1 -0.1)">
       <use xlink:href="#DejaVuSans-31"/>
       <use xlink:href="#DejaVuSans-2e" transform="translate(63.623047 0)"/>
       <use xlink:href="#DejaVuSans-30" transform="translate(95.410156 0)"/>
      </g>
     </g>
    </g>
    <g id="text_14">
     <!-- precision -->
     <g transform="translate(14.798438 172.153125) rotate(-90) scale(0.1 -0.1)">
      <defs>
       <path id="DejaVuSans-70" d="M 1159 525 
L 1159 -1331 
L 581 -1331 
L 581 3500 
L 1159 3500 
L 1159 2969 
Q 1341 3281 1617 3432 
Q 1894 3584 2278 3584 
Q 2916 3584 3314 3078 
Q 3713 2572 3713 1747 
Q 3713 922 3314 415 
Q 2916 -91 2278 -91 
Q 1894 -91 1617 61 
Q 1341 213 1159 525 
z
M 3116 1747 
Q 3116 2381 2855 2742 
Q 2594 3103 2138 3103 
Q 1681 3103 1420 2742 
Q 1159 2381 1159 1747 
Q 1159 1113 1420 752 
Q 1681 391 2138 391 
Q 2594 391 2855 752 
Q 3116 1113 3116 1747 
z
" transform="scale(0.015625)"/>
       <path id="DejaVuSans-69" d="M 603 3500 
L 1178 3500 
L 1178 0 
L 603 0 
L 603 3500 
z
M 603 4863 
L 1178 4863 
L 1178 4134 
L 603 4134 
L 603 4863 
z
" transform="scale(0.015625)"/>
       <path id="DejaVuSans-73" d="M 2834 3397 
L 2834 2853 
Q 2591 2978 2328 3040 
Q 2066 3103 1784 3103 
Q 1356 3103 1142 2972 
Q 928 2841 928 2578 
Q 928 2378 1081 2264 
Q 1234 2150 1697 2047 
L 1894 2003 
Q 2506 1872 2764 1633 
Q 3022 1394 3022 966 
Q 3022 478 2636 193 
Q 2250 -91 1575 -91 
Q 1294 -91 989 -36 
Q 684 19 347 128 
L 347 722 
Q 666 556 975 473 
Q 1284 391 1588 391 
Q 1994 391 2212 530 
Q 2431 669 2431 922 
Q 2431 1156 2273 1281 
Q 2116 1406 1581 1522 
L 1381 1569 
Q 847 1681 609 1914 
Q 372 2147 372 2553 
Q 372 3047 722 3315 
Q 1072 3584 1716 3584 
Q 2034 3584 2315 3537 
Q 2597 3491 2834 3397 
z
" transform="scale(0.015625)"/>
       <path id="DejaVuSans-6f" d="M 1959 3097 
Q 1497 3097 1228 2736 
Q 959 2375 959 1747 
Q 959 1119 1226 758 
Q 1494 397 1959 397 
Q 2419 397 2687 759 
Q 2956 1122 2956 1747 
Q 2956 2369 2687 2733 
Q 2419 3097 1959 3097 
z
M 1959 3584 
Q 2709 3584 3137 3096 
Q 3566 2609 3566 1747 
Q 3566 888 3137 398 
Q 2709 -91 1959 -91 
Q 1206 -91 779 398 
Q 353 888 353 1747 
Q 353 2609 779 3096 
Q 1206 3584 1959 3584 
z
" transform="scale(0.015625)"/>
       <path id="DejaVuSans-6e" d="M 3513 2113 
L 3513 0 
L 2938 0 
L 2938 2094 
Q 2938 2591 2744 2837 
Q 2550 3084 2163 3084 
Q 1697 3084 1428 2787 
Q 1159 2491 1159 1978 
L 1159 0 
L 581 0 
L 581 3500 
L 1159 3500 
L 1159 2956 
Q 1366 3272 1645 3428 
Q 1925 3584 2291 3584 
Q 2894 3584 3203 3211 
Q 3513 2838 3513 2113 
z
" transform="scale(0.015625)"/>
      </defs>
      <use xlink:href="#DejaVuSans-70"/>
      <use xlink:href="#DejaVuSans-72" transform="translate(63.476562 0)"/>
      <use xlink:href="#DejaVuSans-65" transform="translate(102.339844 0)"/>
      <use xlink:href="#DejaVuSans-63" transform="translate(163.863281 0)"/>
      <use xlink:href="#DejaVuSans-69" transform="translate(218.84375 0)"/>
      <use xlink:href="#DejaVuSans-73" transform="translate(246.626953 0)"/>
      <use xlink:href="#DejaVuSans-69" transform="translate(298.726562 0)"/>
      <use xlink:href="#DejaVuSans-6f" transform="translate(326.509766 0)"/>
      <use xlink:href="#DejaVuSans-6e" transform="translate(387.691406 0)"/>
     </g>
    </g>
   </g>
   <g id="line2d_25">
    <path d="M 434.38125 263.154199 
L 434.309197 263.054047 
L 434.165091 263.051962 
L 434.165091 262.951348 
L 434.093037 262.584828 
L 433.948931 262.55141 
L 433.948931 262.482422 
L 433.876878 262.211569 
L 433.660719 262.189938 
L 433.660719 262.113494 
L 433.588666 262.039608 
L 433.300453 261.970647 
L 433.300453 261.945834 
L 433.2284 261.487875 
L 433.156347 261.492341 
L 433.156347 261.381416 
L 433.084294 261.229946 
L 432.940187 261.220983 
L 432.940187 261.12781 
L 432.868134 260.718908 
L 432.724028 260.688176 
L 432.724028 260.61718 
L 432.651975 260.305562 
L 432.579922 260.31021 
L 432.579922 260.199009 
L 432.507869 260.065161 
L 432.363762 260.034262 
L 432.363762 259.96351 
L 432.291709 259.377004 
L 432.147603 259.378803 
L 432.147603 259.275588 
L 432.07555 258.729288 
L 431.859391 258.648922 
L 431.859391 258.633122 
L 431.787337 258.445347 
L 431.715284 258.450279 
L 431.715284 258.338976 
L 431.643231 257.985446 
L 431.499125 257.951349 
L 431.499125 257.884342 
L 431.427072 257.242581 
L 431.282966 257.214857 
L 431.282966 257.141916 
L 431.210912 256.839325 
L 431.138859 256.844497 
L 431.138859 256.733273 
L 431.066806 256.665885 
L 430.994753 256.671085 
L 430.994753 256.559926 
L 430.9227 256.244797 
L 430.850647 256.250059 
L 430.850647 256.139315 
L 430.778594 255.595667 
L 430.706541 255.601023 
L 430.706541 255.489996 
L 430.634487 254.992614 
L 430.346275 254.906673 
L 430.346275 254.903692 
L 430.274222 253.83987 
L 430.202169 253.845482 
L 430.202169 253.734779 
L 430.130116 253.271563 
L 429.986009 253.235294 
L 429.986009 253.171825 
L 429.913956 252.426093 
L 429.76985 252.328877 
L 429.76985 252.326278 
L 429.697797 251.587382 
L 429.553691 251.516928 
L 429.553691 251.487892 
L 429.481637 251.122394 
L 429.409584 251.128394 
L 429.409584 251.016903 
L 429.337531 249.880037 
L 429.265478 249.886209 
L 429.265478 249.77503 
L 429.193425 249.545861 
L 429.121372 249.55208 
L 429.121372 249.440935 
L 429.049319 248.572751 
L 428.977265 248.579103 
L 428.977265 248.467566 
L 428.905212 248.08024 
L 428.833159 248.08666 
L 428.833159 247.975563 
L 428.761106 247.899926 
L 428.617 247.801795 
L 428.544947 247.45471 
L 428.40084 247.404843 
L 428.40084 247.356424 
L 428.328787 246.700863 
L 428.256734 246.707474 
L 428.256734 246.596609 
L 428.184681 245.94964 
L 428.112628 245.956353 
L 428.112628 245.845028 
L 428.040575 244.331223 
L 427.968522 244.338147 
L 427.968522 244.227232 
L 427.896469 242.862412 
L 427.608256 242.797534 
L 427.608256 242.779379 
L 427.536203 242.783715 
L 427.536203 242.526606 
L 427.46415 242.533769 
L 427.46415 242.423309 
L 427.392097 241.984751 
L 427.320044 241.991985 
L 427.320044 241.88175 
L 427.24799 241.306072 
L 427.103884 241.308789 
L 427.103884 241.21018 
L 427.031831 240.814375 
L 426.959778 240.821761 
L 426.959778 240.710346 
L 426.887725 239.86127 
L 426.815672 239.868776 
L 426.815672 239.757562 
L 426.743619 238.647609 
L 426.671565 238.655266 
L 426.671565 238.545042 
L 426.599512 238.307163 
L 426.455406 238.280285 
L 426.455406 238.212488 
L 426.383353 237.019386 
L 426.3113 237.027245 
L 426.3113 236.916687 
L 426.239247 236.49574 
L 426.09514 236.402374 
L 426.09514 236.40055 
L 426.023087 236.107614 
L 425.951034 236.115588 
L 425.951034 236.00465 
L 425.878981 235.518901 
L 425.734875 235.429083 
L 425.734875 235.423397 
L 425.662822 234.356222 
L 425.590769 234.364408 
L 425.590769 234.25369 
L 425.518715 233.790298 
L 425.446662 233.798552 
L 425.446662 233.687472 
L 425.374609 232.25641 
L 425.230503 232.239152 
L 425.230503 232.162225 
L 425.15845 231.656786 
L 425.014344 231.588705 
L 425.014344 231.562472 
L 424.94229 230.47877 
L 424.870237 230.48741 
L 424.870237 230.375878 
L 424.798184 229.996574 
L 424.654078 229.960777 
L 424.654078 229.902851 
L 424.582025 229.711435 
L 424.509972 229.720167 
L 424.509972 229.610227 
L 424.437919 228.917042 
L 424.365865 228.925864 
L 424.365865 228.81528 
L 424.293812 227.464323 
L 424.221759 227.473304 
L 424.221759 227.362241 
L 424.149706 226.861297 
L 424.077653 226.870346 
L 424.077653 226.759602 
L 424.0056 225.894746 
L 423.861493 225.822715 
L 423.861493 225.801421 
L 423.78944 225.719933 
L 423.573281 225.739457 
L 423.573281 225.637831 
L 423.501228 225.547763 
L 423.429175 225.556965 
L 423.429175 225.446617 
L 423.357122 225.374851 
L 423.285068 225.384074 
L 423.285068 225.273074 
L 423.213015 224.89486 
L 423.068909 224.877712 
L 423.068909 224.803433 
L 422.996856 224.508326 
L 422.924803 224.517647 
L 422.924803 224.406243 
L 422.85275 223.091437 
L 422.780697 223.100906 
L 422.780697 222.990274 
L 422.708643 222.888758 
L 422.63659 222.898251 
L 422.63659 222.786886 
L 422.564537 222.619794 
L 422.420431 222.544286 
L 422.420431 222.529487 
L 422.348378 221.35468 
L 422.276325 221.364336 
L 422.276325 221.253717 
L 422.204272 221.257229 
L 422.204272 221.003871 
L 422.132218 221.013564 
L 422.132218 220.901739 
L 422.060165 220.488801 
L 421.988112 220.498549 
L 421.988112 220.388117 
L 421.916059 219.866014 
L 421.844006 219.875825 
L 421.844006 219.766528 
L 421.771953 219.017906 
L 421.6999 219.027802 
L 421.6999 218.915731 
L 421.627847 218.460359 
L 421.555793 218.470312 
L 421.555793 218.359738 
L 421.48374 217.838847 
L 421.411687 217.848863 
L 421.411687 217.739681 
L 421.339634 217.150109 
L 421.267581 217.160193 
L 421.267581 217.048819 
L 421.195528 216.778973 
L 420.979368 216.742551 
L 420.979368 216.700303 
L 420.907315 216.185281 
L 420.835262 216.195466 
L 420.835262 216.084498 
L 420.763209 215.821217 
L 420.691156 215.831439 
L 420.691156 215.719303 
L 420.619103 215.725913 
L 420.619103 215.544312 
L 420.54705 215.554564 
L 420.54705 215.445176 
L 420.474997 214.821923 
L 420.402943 214.832243 
L 420.402943 214.720625 
L 420.33089 214.057901 
L 420.258837 214.068294 
L 420.258837 213.958099 
L 420.186784 213.793053 
L 420.114731 213.803473 
L 420.114731 213.692446 
L 420.042678 213.197229 
L 419.898572 213.120923 
L 419.898572 213.109234 
L 419.826518 212.865601 
L 419.682412 212.835604 
L 419.682412 212.776647 
L 419.610359 212.228475 
L 419.538306 212.239049 
L 419.538306 212.127125 
L 419.466253 211.711031 
L 419.3942 211.721653 
L 419.3942 211.612214 
L 419.322147 211.116233 
L 419.17804 211.088214 
L 419.17804 211.026407 
L 419.105987 210.614199 
L 418.961881 210.53549 
L 418.961881 210.527131 
L 418.889828 210.491869 
L 418.745721 210.429592 
L 418.745721 210.404428 
L 418.673668 210.410987 
L 418.673668 209.755207 
L 418.529562 209.734149 
L 418.529562 209.665762 
L 418.457509 208.990514 
L 418.385456 209.001395 
L 418.385456 208.892439 
L 418.313403 208.429214 
L 418.24135 208.440144 
L 418.24135 208.329595 
L 418.169296 208.2785 
L 418.02519 208.287091 
L 418.02519 208.189394 
L 417.953137 206.922069 
L 417.881084 206.933132 
L 417.881084 206.822853 
L 417.809031 206.105129 
L 417.592871 206.0823 
L 417.592871 206.030689 
L 417.520818 204.817382 
L 417.376712 204.835029 
L 417.376712 204.728518 
L 417.304659 204.217873 
L 417.232606 204.229166 
L 417.232606 204.121059 
L 417.160553 203.776627 
L 417.0885 203.787957 
L 417.0885 203.678668 
L 417.016446 203.590415 
L 416.944393 203.601764 
L 416.944393 203.491949 
L 416.87234 203.267763 
L 416.800287 203.279141 
L 416.800287 203.168443 
L 416.728234 201.891038 
L 416.656181 201.902521 
L 416.656181 201.793364 
L 416.584128 201.596188 
L 416.440021 201.551183 
L 416.440021 201.509268 
L 416.367968 200.448916 
L 416.295915 200.460514 
L 416.295915 200.352952 
L 416.223862 200.326853 
L 416.151809 200.338464 
L 416.151809 200.23056 
L 416.079756 199.41893 
L 415.93565 199.332109 
L 415.863596 199.189096 
L 415.791543 199.200798 
L 415.791543 199.089973 
L 415.71949 198.968338 
L 415.503331 198.986817 
L 415.503331 198.892106 
L 415.431278 198.64096 
L 415.287171 198.580257 
L 415.287171 198.552151 
L 415.215118 197.952534 
L 415.143065 197.964342 
L 415.143065 197.855928 
L 415.071012 197.043405 
L 414.998959 197.055278 
L 414.998959 196.944625 
L 414.926906 196.204038 
L 414.854853 196.215971 
L 414.854853 196.109166 
L 414.7828 196.043821 
L 414.710746 196.055769 
L 414.710746 195.94855 
L 414.638693 195.172656 
L 414.56664 195.184665 
L 414.56664 195.075364 
L 414.494587 194.629215 
L 414.350481 194.604182 
L 414.350481 194.542695 
L 414.278428 193.873072 
L 414.206375 193.885175 
L 414.206375 193.772688 
L 414.134321 193.351129 
L 413.990215 193.318558 
L 413.990215 193.267965 
L 413.918162 192.540452 
L 413.774056 192.545566 
L 413.774056 192.455491 
L 413.702003 192.118689 
L 413.62995 192.130918 
L 413.62995 192.020525 
L 413.557896 190.540785 
L 413.485843 190.553111 
L 413.485843 190.445734 
L 413.41379 189.992313 
L 413.341737 190.004675 
L 413.341737 189.896045 
L 413.269684 189.478363 
L 413.197631 189.490759 
L 413.197631 189.380946 
L 413.125578 189.090116 
L 412.981471 189.073474 
L 412.981471 189.004247 
L 412.909418 188.557372 
L 412.837365 188.569831 
L 412.837365 188.457849 
L 412.765312 188.351065 
L 412.693259 188.363541 
L 412.693259 188.25105 
L 412.621206 187.768417 
L 412.549153 187.780929 
L 412.549153 187.674199 
L 412.477099 187.164074 
L 412.332993 187.109956 
L 412.332993 187.081119 
L 412.26094 186.934786 
L 412.116834 186.938221 
L 412.116834 186.851314 
L 412.044781 185.861079 
L 411.900674 185.819778 
L 411.900674 185.775352 
L 411.828621 184.725264 
L 411.756568 184.73796 
L 411.756568 184.631994 
L 411.756568 184.449831 
L 411.684515 184.462543 
L 411.612462 184.475258 
L 411.612462 184.36871 
L 411.540409 183.58307 
L 411.468356 183.595832 
L 411.468356 183.487427 
L 411.396303 183.142437 
L 411.324249 183.155225 
L 411.324249 183.045861 
L 411.252196 182.909876 
L 411.180143 182.922681 
L 411.180143 182.812789 
L 411.10809 182.041947 
L 411.036037 182.054797 
L 411.036037 181.943041 
L 410.963984 181.691551 
L 410.891931 181.704422 
L 410.891931 181.591882 
L 410.819878 181.281917 
L 410.747824 181.294812 
L 410.747824 181.189471 
L 410.675771 180.450944 
L 410.603718 180.46388 
L 410.603718 180.356853 
L 410.531665 180.088882 
L 410.387559 180.09823 
L 410.387559 180.007013 
L 410.315506 178.87092 
L 410.243453 178.883936 
L 410.243453 178.773637 
L 410.171399 176.683238 
L 410.099346 176.696347 
L 410.099346 176.590381 
L 410.027293 176.017085 
L 409.95524 176.030224 
L 409.95524 175.922946 
L 409.883187 175.540988 
L 409.811134 175.55415 
L 409.811134 175.445916 
L 409.739081 174.402032 
L 409.594974 174.382446 
L 409.594974 174.317976 
L 409.522921 173.766297 
L 409.450868 173.779536 
L 409.450868 173.667752 
L 409.378815 172.484468 
L 409.306762 172.497754 
L 409.306762 172.392944 
L 409.306762 171.246824 
L 409.234709 171.260152 
L 409.162656 171.273483 
L 409.162656 171.166399 
L 409.090603 170.837716 
L 409.018549 170.851064 
L 409.018549 170.743163 
L 408.946496 170.253656 
L 408.874443 170.267027 
L 408.874443 170.158005 
L 408.80239 170.062161 
L 408.658284 169.979512 
L 408.586231 168.653767 
L 408.514178 168.667197 
L 408.514178 168.555085 
L 408.442124 168.210406 
L 408.298018 168.216775 
L 408.298018 168.124315 
L 408.225965 167.496946 
L 408.153912 167.51042 
L 408.153912 167.406423 
L 408.081859 167.033558 
L 408.009806 167.047049 
L 408.009806 166.942209 
L 408.009806 166.584395 
L 407.937752 166.597899 
L 407.64954 166.57802 
L 407.64954 166.546312 
L 407.577487 165.804571 
L 407.505434 165.81811 
L 407.505434 165.710983 
L 407.433381 165.358899 
L 407.361327 165.372454 
L 407.361327 165.264503 
L 407.289274 164.768151 
L 407.217221 164.781724 
L 407.217221 164.672688 
L 407.145168 164.270176 
L 407.073115 164.283765 
L 407.073115 164.173804 
L 407.001062 163.445607 
L 406.929009 163.459219 
L 406.929009 163.347744 
L 406.856956 162.507614 
L 406.784902 162.521249 
L 406.784902 162.419375 
L 406.712849 161.738174 
L 406.640796 161.751827 
L 406.640796 161.648661 
L 406.568743 161.155527 
L 406.49669 161.169196 
L 406.49669 161.065035 
L 406.424637 160.297899 
L 406.352584 160.311587 
L 406.352584 160.205972 
L 406.280531 159.392236 
L 406.136424 159.383954 
L 406.136424 159.312495 
L 406.136424 158.762004 
L 406.064371 158.775725 
L 405.992318 158.789449 
L 405.992318 158.681197 
L 405.920265 158.610604 
L 405.848212 158.624335 
L 405.848212 158.515763 
L 405.776159 157.89862 
L 405.559999 157.891083 
L 405.559999 157.830054 
L 405.487946 157.267341 
L 405.34384 157.208579 
L 405.34384 157.183904 
L 405.271787 156.64001 
L 405.199734 156.653788 
L 405.199734 156.541686 
L 405.127681 156.30567 
L 405.055627 156.319458 
L 405.055627 156.20674 
L 404.983574 155.9316 
L 404.911521 155.945397 
L 404.911521 155.844603 
L 404.839468 155.59309 
L 404.767415 155.606895 
L 404.767415 155.505544 
L 404.695362 155.227106 
L 404.623309 155.24092 
L 404.623309 155.138968 
L 404.551256 154.111652 
L 404.479202 154.12548 
L 404.479202 154.021768 
L 404.479202 153.956866 
L 404.407149 153.957709 
L 404.335096 153.971543 
L 404.335096 153.867551 
L 404.263043 153.659871 
L 404.19099 153.673712 
L 404.19099 153.569216 
L 404.118937 152.688251 
L 404.046884 152.702103 
L 404.046884 152.596049 
L 403.974831 152.596635 
L 403.974831 151.567115 
L 403.902777 151.580976 
L 403.902777 151.473116 
L 403.830724 150.863466 
L 403.686618 150.782188 
L 403.614565 149.917648 
L 403.542512 149.931526 
L 403.542512 149.820934 
L 403.470459 149.390672 
L 403.326352 149.320905 
L 403.326352 149.30696 
L 403.254299 147.968961 
L 403.182246 147.982851 
L 403.182246 147.883246 
L 403.110193 147.497295 
L 403.03814 147.511189 
L 403.03814 147.410872 
L 402.966087 146.631552 
L 402.677874 146.60008 
L 402.677874 146.585557 
L 402.605821 145.604859 
L 402.533768 145.618764 
L 402.533768 145.515584 
L 402.461715 145.070747 
L 402.389662 145.084654 
L 402.389662 144.980658 
L 402.317609 144.081864 
L 402.245555 144.09577 
L 402.245555 143.990288 
L 402.173502 143.474458 
L 402.101449 143.488364 
L 402.101449 143.381948 
L 402.029396 143.014514 
L 401.957343 143.028422 
L 401.957343 142.921285 
L 401.88529 142.797213 
L 401.813237 142.811125 
L 401.813237 142.703624 
L 401.741184 142.640652 
L 401.66913 142.654568 
L 401.66913 142.546791 
L 401.597077 142.127996 
L 401.525024 142.141912 
L 401.525024 142.033331 
L 401.452971 140.699937 
L 401.308865 140.69612 
L 401.308865 140.616987 
L 401.236812 140.265785 
L 401.164759 140.279692 
L 401.164759 140.168211 
L 401.092705 139.461413 
L 401.020652 139.475314 
L 401.020652 139.362572 
L 400.948599 139.150472 
L 400.876546 139.164374 
L 400.876546 139.067304 
L 400.804493 138.496112 
L 400.73244 138.51001 
L 400.73244 138.412046 
L 400.660387 138.01637 
L 400.588334 138.030266 
L 400.588334 137.931633 
L 400.51628 137.731375 
L 400.372174 137.693152 
L 400.372174 137.660121 
L 400.300121 137.409245 
L 400.156015 137.370704 
L 400.156015 137.337511 
L 400.156015 136.351705 
L 400.083962 136.36559 
L 399.939855 136.326064 
L 399.939855 136.292389 
L 399.867802 135.867138 
L 399.723696 135.861028 
L 399.723696 135.793209 
L 399.651643 135.433006 
L 399.507537 135.358433 
L 399.435484 134.961544 
L 399.36343 134.975428 
L 399.36343 134.872386 
L 399.291377 134.662533 
L 399.147271 134.604072 
L 399.147271 134.586814 
L 399.075218 134.289389 
L 399.003165 134.303273 
L 399.003165 134.199219 
L 398.931112 134.108906 
L 398.859059 134.122792 
L 398.859059 134.018451 
L 398.787005 133.945277 
L 398.642899 133.903333 
L 398.642899 133.868448 
L 398.570846 133.829981 
L 398.498793 133.843874 
L 398.498793 133.739049 
L 398.42674 132.838435 
L 398.354687 132.852311 
L 398.354687 132.746091 
L 398.282634 132.493773 
L 398.138527 132.432583 
L 398.138527 132.414783 
L 398.066474 132.268273 
L 397.994421 132.282148 
L 397.994421 132.175037 
L 397.922368 131.902557 
L 397.850315 131.916428 
L 397.850315 131.808771 
L 397.778262 131.462701 
L 397.634155 131.454348 
L 397.634155 131.382124 
L 397.562102 130.997556 
L 397.490049 131.011417 
L 397.490049 130.902398 
L 397.417996 130.405482 
L 397.345943 130.419332 
L 397.345943 130.309445 
L 397.27389 129.84533 
L 397.201837 129.85917 
L 397.201837 129.748455 
L 397.129783 129.392116 
L 396.985677 129.364105 
L 396.985677 129.308386 
L 396.913624 128.800275 
L 396.769518 128.827924 
L 396.769518 128.715625 
L 396.697465 128.448001 
L 396.553358 128.438042 
L 396.553358 128.36278 
L 396.481305 128.150386 
L 396.409252 128.164206 
L 396.409252 128.069757 
L 396.337199 126.903036 
L 396.193093 126.853842 
L 396.193093 126.834639 
L 396.12104 126.347517 
L 396.048987 126.361292 
L 396.048987 126.264603 
L 395.976933 126.026436 
L 395.90488 126.040205 
L 395.90488 125.943092 
L 395.832827 125.625794 
L 395.760774 125.639555 
L 395.760774 125.541921 
L 395.688721 125.026409 
L 395.616668 125.040154 
L 395.616668 124.941759 
L 395.544615 124.580503 
L 395.472562 124.594237 
L 395.472562 124.495262 
L 395.400508 123.812781 
L 395.256402 123.740255 
L 395.184349 123.31272 
L 395.112296 123.326421 
L 395.112296 123.225802 
L 395.040243 122.957106 
L 394.896137 122.903624 
L 394.896137 122.883394 
L 394.824083 122.593038 
L 394.679977 122.600102 
L 394.679977 122.518806 
L 394.607924 121.81771 
L 394.535871 121.831373 
L 394.535871 121.728752 
L 394.463818 121.123999 
L 394.391765 121.137638 
L 394.391765 121.034118 
L 394.319712 120.77799 
L 394.247658 120.79162 
L 394.247658 120.687627 
L 394.247658 120.54182 
L 394.175605 120.555443 
L 394.103552 120.569069 
L 394.103552 120.464757 
L 394.031499 120.248427 
L 393.959446 120.262046 
L 393.959446 120.157308 
L 393.887393 119.052565 
L 393.81534 119.066137 
L 393.81534 118.959857 
L 393.81534 118.938585 
L 393.743287 118.952154 
L 393.671233 118.965726 
L 393.671233 118.859277 
L 393.59918 118.744925 
L 393.455074 118.686668 
L 393.455074 118.665306 
L 393.383021 118.550581 
L 393.310968 118.564149 
L 393.310968 118.457083 
L 393.238915 118.105595 
L 393.094808 118.089649 
L 393.094808 118.025026 
L 393.022755 117.714712 
L 392.806596 117.75535 
L 392.806596 117.647104 
L 392.734543 117.073712 
L 392.66249 117.087235 
L 392.66249 116.978094 
L 392.590436 116.223671 
L 392.44633 116.206553 
L 392.44633 116.140368 
L 392.374277 115.31104 
L 392.302224 115.32449 
L 392.302224 115.212972 
L 392.230171 114.711552 
L 391.869905 114.733778 
L 391.869905 114.666343 
L 391.797852 114.115745 
L 391.653746 114.051971 
L 391.653746 113.779618 
L 391.581693 113.793014 
L 391.365533 113.742232 
L 391.365533 113.148453 
L 391.29348 113.161827 
L 391.077321 113.11024 
L 391.005268 112.916867 
L 390.861161 112.920615 
L 390.861161 112.851563 
L 390.789108 112.124938 
L 390.717055 112.138277 
L 390.717055 112.045332 
L 390.645002 111.80255 
L 390.572949 111.815877 
L 390.572949 111.722552 
L 390.500896 111.103308 
L 390.428843 111.1166 
L 390.428843 111.022495 
L 390.35679 110.279283 
L 390.212683 110.305786 
L 390.212683 110.210757 
L 390.212683 109.948904 
L 390.14063 109.96214 
L 389.852418 110.015118 
L 389.852418 109.919679 
L 389.780365 109.454167 
L 389.708311 109.46739 
L 389.708311 109.371323 
L 389.636258 109.216168 
L 389.420099 109.159445 
L 389.348046 108.446488 
L 389.20394 108.375565 
L 389.131886 108.266987 
L 388.98778 108.244585 
L 388.98778 108.195803 
L 388.915727 107.891234 
L 388.843674 107.904393 
L 388.843674 107.806394 
L 388.771621 106.8336 
L 388.555461 106.872903 
L 388.555461 106.773696 
L 388.483408 106.588044 
L 388.411355 106.601136 
L 388.411355 106.50159 
L 388.339302 105.83983 
L 388.267249 105.852879 
L 388.267249 105.752468 
L 388.195196 105.337502 
L 388.123143 105.350523 
L 388.123143 105.249516 
L 388.05109 104.806585 
L 387.906983 104.80717 
L 387.906983 104.730926 
L 387.906983 104.425315 
L 387.83493 104.438286 
L 387.690824 104.413193 
L 387.690824 104.36212 
L 387.618771 104.016763 
L 387.474664 104.042673 
L 387.474664 103.940021 
L 387.402611 103.541194 
L 387.258505 103.48963 
L 387.258505 103.463807 
L 387.258505 103.437977 
L 387.186452 103.450904 
L 387.114399 103.463834 
L 387.114399 103.360428 
L 387.114399 103.256906 
L 387.042346 103.269825 
L 386.826186 103.204938 
L 386.826186 103.153061 
L 386.754133 103.165984 
L 386.68208 103.17891 
L 386.68208 103.075054 
L 386.610027 102.801749 
L 386.537974 102.814655 
L 386.537974 102.710345 
L 386.465921 102.383405 
L 386.321814 102.330559 
L 386.321814 102.304339 
L 386.249761 102.107185 
L 386.177708 102.120055 
L 386.177708 102.014851 
L 386.177708 101.962205 
L 386.105655 101.975067 
L 385.961549 101.974463 
L 385.961549 101.895398 
L 385.889496 101.591307 
L 385.817443 101.604154 
L 385.817443 101.498254 
L 385.745389 101.21923 
L 385.673336 101.232055 
L 385.673336 101.125687 
L 385.601283 100.845351 
L 385.457177 100.844259 
L 385.457177 100.764113 
L 385.457177 100.469656 
L 385.385124 100.482435 
L 385.241018 100.427521 
L 385.241018 100.400677 
L 385.241018 100.266343 
L 385.168964 100.279116 
L 385.096911 100.291892 
L 385.096911 100.18427 
L 385.096911 100.157346 
L 385.024858 100.170115 
L 384.952805 100.182889 
L 384.952805 100.075097 
L 384.952805 99.913177 
L 384.880752 99.925933 
L 384.520486 99.881621 
L 384.448433 98.997313 
L 384.232274 99.008117 
L 384.232274 98.926097 
L 384.160221 98.774541 
L 384.016114 98.690257 
L 383.944061 98.483185 
L 383.799955 98.481046 
L 383.799955 98.398464 
L 383.727902 98.245755 
L 383.655849 98.258429 
L 383.655849 98.147998 
L 383.583796 97.884005 
L 383.511743 97.896656 
L 383.511743 97.785757 
L 383.439689 97.7429 
L 383.295583 97.71265 
L 383.295583 97.657074 
L 383.22353 97.614105 
L 383.079424 97.611571 
L 383.079424 97.528053 
L 383.007371 96.785666 
L 382.863264 96.810838 
L 382.863264 96.698455 
L 382.791211 96.542202 
L 382.719158 96.554774 
L 382.719158 96.442042 
L 382.647105 95.888907 
L 382.502999 95.828802 
L 382.430946 95.727657 
L 382.286839 95.752699 
L 382.286839 95.667344 
L 382.286839 95.382281 
L 382.214786 95.394776 
L 381.998627 95.375152 
L 381.998627 95.346573 
L 381.926574 95.273281 
L 381.638361 95.237402 
L 381.566308 95.049159 
L 381.494255 95.061654 
L 381.494255 94.975483 
L 381.422202 94.034914 
L 381.278096 94.059745 
L 381.278096 93.972622 
L 381.206042 93.897827 
L 380.845777 93.872589 
L 380.773724 93.680929 
L 380.701671 93.693336 
L 380.701671 93.605734 
L 380.701671 93.313157 
L 380.629617 93.325535 
L 380.557564 93.337916 
L 380.557564 93.249956 
L 380.485511 92.939104 
L 380.269352 92.887813 
L 380.197299 92.69366 
L 379.837033 92.666732 
L 379.76498 92.531099 
L 379.620874 92.496523 
L 379.620874 92.466875 
L 379.548821 92.182223 
L 379.476767 92.194544 
L 379.476767 92.105262 
L 379.404714 91.580123 
L 379.260608 91.544762 
L 379.260608 91.514793 
L 379.188555 91.136604 
L 379.116502 91.148845 
L 379.116502 91.05851 
L 379.044449 90.375354 
L 378.828289 90.411893 
L 378.828289 90.320803 
L 378.756236 89.815167 
L 378.61213 89.808891 
L 378.61213 89.747763 
L 378.540077 89.453663 
L 378.468024 89.465772 
L 378.468024 89.373709 
L 378.468024 89.343003 
L 378.395971 89.355104 
L 378.323917 89.367209 
L 378.323917 89.275015 
L 378.251864 88.793919 
L 378.107758 88.787126 
L 378.107758 88.725273 
L 378.035705 88.178873 
L 377.963652 88.19088 
L 377.963652 88.097491 
L 377.891599 87.860004 
L 377.819546 87.871986 
L 377.819546 87.778258 
L 377.747492 87.571174 
L 377.531333 87.513004 
L 377.531333 87.356047 
L 377.45928 87.367992 
L 377.315174 87.391895 
L 377.315174 87.297575 
L 377.243121 87.089076 
L 377.171067 87.101006 
L 377.171067 87.006372 
L 377.171067 86.974807 
L 377.099014 86.986729 
L 377.026961 86.998654 
L 377.026961 86.903882 
L 376.954908 86.662615 
L 376.882855 86.674514 
L 376.882855 86.579395 
L 376.810802 86.146167 
L 376.738749 86.15802 
L 376.738749 86.062372 
L 376.666695 85.914588 
L 376.450536 85.918138 
L 376.450536 85.854175 
L 376.378483 85.705913 
L 376.162324 85.677268 
L 376.162324 85.645187 
L 376.09027 85.271219 
L 375.946164 85.262582 
L 375.946164 85.198107 
L 375.874111 85.080809 
L 375.802058 85.092588 
L 375.802058 84.995655 
L 375.730005 84.748462 
L 375.657952 84.760213 
L 375.657952 84.66292 
L 375.585899 84.609745 
L 375.297686 84.591747 
L 375.297686 84.559238 
L 375.225633 84.473384 
L 375.15358 84.485125 
L 375.15358 84.38742 
L 375.081527 84.203444 
L 374.93742 84.194223 
L 374.93742 84.128868 
L 374.865367 83.61618 
L 374.721261 83.606643 
L 374.721261 83.540868 
L 374.649208 83.42084 
L 374.288942 83.413198 
L 374.288942 83.380211 
L 374.216889 83.160638 
L 374.072783 83.117747 
L 374.072783 83.084642 
L 374.00073 82.963742 
L 373.856624 82.887465 
L 373.78457 82.533254 
L 373.712517 82.544844 
L 373.712517 82.444834 
L 373.640464 82.322905 
L 373.496358 82.346054 
L 373.496358 82.245785 
L 373.424305 82.123496 
L 373.352252 82.135055 
L 373.352252 82.034536 
L 373.352252 81.967469 
L 373.280199 81.979014 
L 373.136092 81.9014 
L 373.064039 81.845741 
L 372.991986 81.857283 
L 372.991986 81.756383 
L 372.919933 81.599512 
L 372.703774 81.532879 
L 372.63172 81.273998 
L 372.415561 81.274636 
L 372.415561 81.206881 
L 372.343508 80.708739 
L 372.127349 80.640822 
L 372.127349 80.606713 
L 372.055295 80.618154 
L 371.839136 80.652499 
L 371.839136 80.550058 
L 371.767083 80.458949 
L 371.69503 80.470386 
L 371.69503 80.36772 
L 371.69503 80.333475 
L 371.622977 80.344901 
L 371.334764 80.287785 
L 371.262711 79.955582 
L 371.046552 79.920906 
L 371.046552 79.886446 
L 370.974498 79.587154 
L 370.686286 79.528835 
L 370.614233 79.366932 
L 370.398073 79.366312 
L 370.398073 79.296875 
L 370.32602 78.716077 
L 370.253967 78.727371 
L 370.253967 78.622513 
L 370.181914 78.423743 
L 369.38933 78.477672 
L 369.38933 78.442554 
L 369.317277 78.348414 
L 369.101117 78.311914 
L 369.101117 78.27671 
L 369.101117 78.100511 
L 369.029064 78.111778 
L 368.596745 78.108835 
L 368.596745 78.073508 
L 368.524692 77.730823 
L 368.23648 77.669349 
L 368.164427 77.467304 
L 368.092373 77.47853 
L 368.092373 77.371709 
L 368.02032 77.240315 
L 367.804161 77.166817 
L 367.732108 76.172815 
L 367.515948 76.170005 
L 367.515948 76.097788 
L 367.515948 76.025522 
L 367.443895 76.036602 
L 367.371842 76.047685 
L 367.371842 75.939168 
L 367.299789 75.623984 
L 367.011577 75.559137 
L 366.939523 75.424617 
L 366.723364 75.348371 
L 366.651311 75.213416 
L 366.579258 75.224429 
L 366.579258 75.114799 
L 366.507205 74.906176 
L 366.291045 74.829107 
L 366.218992 74.619673 
L 365.858726 74.637688 
L 365.858726 74.564046 
L 365.786673 74.279896 
L 365.570514 74.275735 
L 365.570514 74.201777 
L 365.570514 74.090744 
L 365.498461 74.101658 
L 365.138195 74.082142 
L 365.138195 74.045053 
L 365.138195 73.896567 
L 365.066142 73.907471 
L 364.345611 73.905075 
L 364.273558 73.580315 
L 364.129451 73.52735 
L 364.129451 73.48995 
L 364.057398 73.351093 
L 363.913292 73.297875 
L 363.841239 73.083495 
L 363.480973 73.100163 
L 363.480973 73.062539 
L 363.40892 72.922748 
L 363.336867 72.933591 
L 363.336867 72.858178 
L 363.264814 72.566798 
L 362.904548 72.545117 
L 362.832495 72.404282 
L 362.760442 72.415079 
L 362.760442 72.339166 
L 362.688389 72.273981 
L 362.47223 72.230291 
L 362.400176 71.859932 
L 362.328123 71.870675 
L 362.328123 71.794274 
L 362.25607 71.690295 
L 361.895805 71.667372 
L 361.823751 71.5631 
L 361.607592 71.556908 
L 361.607592 71.518517 
L 361.535539 71.337058 
L 361.10322 71.324321 
L 361.031167 71.142203 
L 360.742954 71.107746 
L 360.670901 70.692421 
L 360.598848 70.703073 
L 360.598848 70.625424 
L 360.526795 70.480584 
L 360.454742 70.491213 
L 360.454742 70.413377 
L 360.382689 70.307126 
L 360.238583 70.250347 
L 360.166529 70.143826 
L 359.95037 70.097444 
L 359.95037 70.019201 
L 359.878317 70.029789 
L 359.590104 69.993831 
L 359.590104 69.797709 
L 359.518051 69.80828 
L 359.229839 69.811312 
L 359.229839 69.772005 
L 359.157786 69.585813 
L 358.869573 69.549219 
L 358.869573 69.312328 
L 358.79752 69.32286 
L 358.581361 69.275358 
L 358.581361 68.759683 
L 358.509308 68.77015 
L 358.076989 68.793231 
L 358.076989 68.753411 
L 358.076989 68.713577 
L 358.004936 68.724055 
L 357.716723 68.766007 
L 357.716723 68.686242 
L 357.716723 68.366601 
L 357.64467 68.377045 
L 357.572617 68.387493 
L 357.572617 68.307415 
L 357.572617 68.267355 
L 357.500564 68.27779 
L 357.428511 68.288229 
L 357.428511 68.208043 
L 357.356458 68.057905 
L 357.212351 68.038547 
L 357.212351 67.998342 
L 357.140298 67.807482 
L 356.635926 67.880273 
L 356.635926 67.799585 
L 356.635926 67.718838 
L 356.563873 67.72923 
L 356.49182 67.739626 
L 356.49182 67.658797 
L 356.419767 67.547815 
L 355.699236 67.570647 
L 355.699236 67.489489 
L 355.627182 67.499881 
L 355.33897 67.500857 
L 355.33897 67.460213 
L 355.266917 67.226399 
L 355.122811 67.206377 
L 355.122811 67.165596 
L 355.050757 67.053512 
L 354.978704 67.063866 
L 354.978704 66.982146 
L 354.978704 66.941263 
L 354.906651 66.951603 
L 354.762545 66.972296 
L 354.762545 66.890451 
L 354.690492 66.654859 
L 354.546386 66.675483 
L 354.546386 66.593361 
L 354.546386 66.511179 
L 354.474332 66.521474 
L 354.258173 66.552383 
L 354.258173 66.470093 
L 354.258173 66.428925 
L 354.18612 66.439219 
L 353.897907 66.397992 
L 353.897907 66.356749 
L 353.825854 66.367045 
L 353.681748 66.387647 
L 353.681748 66.305081 
L 353.609695 66.232738 
L 353.393536 66.222253 
L 353.393536 66.180878 
L 353.321482 65.901067 
L 353.249429 65.911317 
L 353.249429 65.828281 
L 353.177376 65.672242 
L 352.817111 65.681757 
L 352.817111 65.640102 
L 352.817111 65.473329 
L 352.745057 65.483536 
L 352.312739 65.461294 
L 352.312739 65.419489 
L 352.240686 65.429705 
L 351.88042 65.397113 
L 351.808367 65.071747 
L 351.520154 65.028399 
L 351.520154 64.86 
L 351.448101 64.870162 
L 351.231942 64.816329 
L 351.231942 64.605192 
L 351.159889 64.615328 
L 350.943729 64.603457 
L 350.943729 64.561142 
L 350.871676 64.486589 
L 350.655517 64.432198 
L 350.583464 64.230035 
L 350.079092 64.215718 
L 350.007039 64.01273 
L 349.862932 64.032914 
L 349.862932 63.947533 
L 349.790879 63.658231 
L 349.718826 63.668276 
L 349.718826 63.582578 
L 349.646773 63.12003 
L 349.430614 63.063779 
L 349.35856 62.728333 
L 349.214454 62.661637 
L 349.214454 62.575025 
L 349.142401 62.58493 
L 348.854189 62.581226 
L 348.854189 62.537846 
L 348.854189 62.451036 
L 348.782135 62.460935 
L 348.493923 62.413626 
L 348.493923 62.37013 
L 348.42187 62.380028 
L 348.277764 62.399836 
L 348.277764 62.312755 
L 348.20571 62.148263 
L 347.989551 62.090563 
L 347.917498 61.969288 
L 347.701339 61.955101 
L 347.701339 61.911315 
L 347.701339 61.823691 
L 347.629285 61.833533 
L 347.557232 61.843379 
L 347.557232 61.755661 
L 347.485179 61.677699 
L 347.196967 61.71703 
L 347.196967 61.62911 
L 347.124914 61.462867 
L 346.836701 61.502116 
L 346.836701 61.413924 
L 346.764648 61.202919 
L 346.476435 61.153557 
L 346.476435 61.064988 
L 346.404382 61.074755 
L 345.972064 61.08908 
L 345.972064 61.044705 
L 345.90001 60.96567 
L 345.539745 60.925609 
L 345.467692 60.801805 
L 345.323585 60.73216 
L 345.251532 60.56334 
L 344.675107 60.551785 
L 344.603054 60.157839 
L 344.458948 60.132263 
L 344.458948 60.087288 
L 344.386895 60.006954 
L 344.314842 60.016625 
L 344.314842 59.926524 
L 344.314842 59.746107 
L 344.242788 59.75574 
L 343.666363 59.742506 
L 343.666363 59.651992 
L 343.59431 59.661632 
L 343.161992 59.628867 
L 343.089938 59.502337 
L 343.017885 59.511972 
L 343.017885 59.421079 
L 342.945832 58.929418 
L 342.801726 58.948521 
L 342.801726 58.857113 
L 342.801726 58.811382 
L 342.729673 58.820918 
L 342.585567 58.79423 
L 342.585567 58.74844 
L 342.513513 58.620473 
L 342.44146 58.629988 
L 342.44146 58.538215 
L 342.369407 58.455859 
L 342.081195 58.447867 
L 342.081195 58.401862 
L 342.081195 58.355838 
L 342.009142 58.365325 
L 341.720929 58.311132 
L 341.648876 58.228358 
L 341.28861 58.183383 
L 341.28861 58.044624 
L 341.216557 58.054086 
L 340.568079 58.139416 
L 340.568079 58.046669 
L 340.568079 58.000267 
L 340.496026 58.009745 
L 340.35192 58.028712 
L 340.35192 57.935808 
L 340.279866 57.852288 
L 340.13576 57.824678 
L 340.13576 57.778119 
L 340.063707 57.647762 
L 339.775495 57.592171 
L 339.775495 57.498733 
L 339.703441 57.508155 
L 338.910857 57.518357 
L 338.838804 57.246218 
L 338.766751 57.255629 
L 338.766751 57.161597 
L 338.766751 57.020404 
L 338.694698 57.029781 
L 338.334432 56.982406 
L 338.334432 56.840787 
L 338.262379 56.850148 
L 337.974166 56.793044 
L 337.902113 56.660361 
L 337.83006 56.669706 
L 337.83006 56.574894 
L 337.758007 56.34682 
L 337.541848 56.27958 
L 337.469795 56.098315 
L 337.397741 56.107581 
L 337.397741 56.012168 
L 337.397741 55.868902 
L 337.325688 55.878133 
L 337.181582 55.848786 
L 337.181582 55.800948 
L 337.181582 55.75309 
L 337.109529 55.762308 
L 336.749263 55.712585 
L 336.749263 55.66462 
L 336.67721 55.673837 
L 336.244891 55.633117 
L 336.172838 55.401702 
L 336.028732 55.32366 
L 336.028732 55.178866 
L 335.956679 55.188025 
L 335.884626 55.197187 
L 335.884626 55.100526 
L 335.812573 55.012917 
L 335.596413 54.991907 
L 335.596413 54.943453 
L 335.52436 54.709974 
L 335.308201 54.688663 
L 335.308201 54.640035 
L 335.236148 54.405641 
L 334.803829 54.362377 
L 334.731776 54.273702 
L 334.587669 54.242882 
L 334.587669 54.193948 
L 334.515616 53.761575 
L 334.227404 53.699072 
L 334.227404 53.649848 
L 334.155351 53.658803 
L 333.578926 53.631914 
L 333.578926 53.582552 
L 333.506873 53.591515 
L 333.290713 53.618427 
L 333.290713 53.519573 
L 333.290713 53.470114 
L 333.21866 53.479067 
L 333.074554 53.397953 
L 333.002501 53.307768 
L 332.858394 53.22639 
L 332.786341 53.135963 
L 332.570182 53.162705 
L 332.570182 53.063219 
L 332.498129 52.92271 
L 331.921704 52.894018 
L 331.849651 52.752947 
L 331.417332 52.70605 
L 331.417332 52.605776 
L 331.345279 52.614636 
L 330.768854 52.585134 
L 330.696801 52.342296 
L 330.480641 52.267925 
L 330.408588 52.074679 
L 330.192429 51.999862 
L 330.120376 51.907327 
L 330.048322 51.916104 
L 330.048322 51.814673 
L 329.976269 51.671098 
L 329.688057 51.604338 
L 329.688057 51.553436 
L 329.616004 51.562163 
L 329.399844 51.486423 
L 329.327791 51.137587 
L 328.967526 51.078493 
L 328.895472 50.830597 
L 328.463154 50.779492 
L 328.391101 50.633586 
L 327.958782 50.582005 
L 327.958782 50.530349 
L 327.886729 50.538945 
L 327.670569 50.513038 
L 327.670569 50.4613 
L 327.598516 50.366328 
L 327.526463 50.374905 
L 327.526463 50.271233 
L 327.526463 50.219363 
L 327.45441 50.227915 
L 327.022091 50.175366 
L 327.022091 50.123361 
L 326.950038 50.131911 
L 326.805932 50.096966 
L 326.805932 50.044888 
L 326.733879 49.949186 
L 326.517719 49.974777 
L 326.517719 49.870384 
L 326.445666 49.512739 
L 326.157454 49.44168 
L 326.085401 49.240011 
L 325.869241 49.265269 
L 325.869241 49.160012 
L 325.797188 48.904821 
L 325.364869 48.902201 
L 325.364869 48.849329 
L 325.364869 48.796434 
L 325.292816 48.804789 
L 324.644338 48.774091 
L 324.572285 48.623171 
L 324.284072 48.550185 
L 324.212019 48.238721 
L 324.067913 48.148462 
L 324.067913 48.041535 
L 323.99586 48.049787 
L 323.635594 47.983958 
L 323.563541 47.670146 
L 323.059169 47.619908 
L 323.059169 47.566027 
L 322.987116 47.574219 
L 322.62685 47.507273 
L 322.62685 47.453258 
L 322.554797 47.461441 
L 322.482744 47.469627 
L 322.482744 47.361483 
L 322.482744 47.199084 
L 322.410691 47.207222 
L 322.194532 47.177437 
L 322.194532 47.123189 
L 322.122479 47.022732 
L 322.050425 47.030847 
L 322.050425 46.92214 
L 322.050425 46.867749 
L 321.978372 46.875837 
L 321.762213 46.845664 
L 321.762213 46.791183 
L 321.762213 46.518405 
L 321.69016 46.526434 
L 320.969629 46.497406 
L 320.897575 46.395817 
L 320.177044 46.366333 
L 320.177044 46.311321 
L 320.104991 46.319355 
L 319.312407 46.297621 
L 319.312407 46.242405 
L 319.240353 46.250452 
L 318.663928 46.204253 
L 318.663928 46.09345 
L 318.591875 46.101486 
L 318.375716 46.070133 
L 318.375716 46.014625 
L 318.375716 45.95909 
L 318.303663 45.967109 
L 318.087503 45.879954 
L 318.087503 45.824299 
L 318.01545 45.832299 
L 317.294919 45.800877 
L 317.222866 45.697144 
L 317.07876 45.657212 
L 317.006707 45.553235 
L 316.142069 45.59306 
L 316.070016 45.488653 
L 315.853857 45.512643 
L 315.853857 45.456362 
L 315.853857 45.400054 
L 315.781803 45.408035 
L 315.421538 45.391598 
L 315.349485 45.286687 
L 315.133325 45.254094 
L 315.061272 45.035659 
L 314.340741 45.115146 
L 314.340741 45.058364 
L 314.340741 45.001555 
L 314.268688 45.009502 
L 314.124581 44.968536 
L 314.052528 44.86264 
L 313.836369 44.829437 
L 313.764316 44.666182 
L 313.62021 44.681977 
L 313.62021 44.624841 
L 313.62021 44.567677 
L 313.548156 44.575557 
L 313.476103 44.58344 
L 313.476103 44.526227 
L 313.476103 44.468986 
L 313.40405 44.47685 
L 313.043785 44.516227 
L 313.043785 44.458889 
L 313.043785 44.401525 
L 312.971731 44.409388 
L 312.827625 44.425125 
L 312.827625 44.367699 
L 312.755572 44.260605 
L 312.683519 44.268448 
L 312.683519 44.210917 
L 312.683519 44.153359 
L 312.611466 44.161182 
L 311.890935 44.181902 
L 311.890935 44.12416 
L 311.818881 44.132 
L 311.746828 44.139844 
L 311.746828 44.082051 
L 311.746828 43.908508 
L 311.674775 43.916308 
L 311.170403 43.913016 
L 311.170403 43.796938 
L 311.09835 43.804732 
L 310.954244 43.762215 
L 310.954244 43.6459 
L 310.882191 43.653669 
L 310.666031 43.618752 
L 310.666031 43.560477 
L 310.593978 43.568237 
L 310.089606 43.564262 
L 310.089606 43.388896 
L 310.017553 43.396637 
L 309.801394 43.419884 
L 309.801394 43.361324 
L 309.801394 43.302736 
L 309.729341 43.310468 
L 309.657288 43.318204 
L 309.657288 43.259564 
L 309.585235 43.149902 
L 309.297022 43.121963 
L 309.297022 43.06315 
L 309.224969 43.070846 
L 309.152916 43.078546 
L 309.152916 43.01968 
L 309.080863 42.791573 
L 308.864703 42.755464 
L 308.864703 42.696378 
L 308.79265 42.70401 
L 308.576491 42.72693 
L 308.576491 42.667765 
L 308.504438 42.556961 
L 306.775163 42.681141 
L 306.775163 42.621549 
L 306.703109 42.629226 
L 306.48695 42.592609 
L 306.48695 42.532909 
L 306.414897 42.540575 
L 306.198738 42.503818 
L 306.126684 42.331935 
L 305.550259 42.333105 
L 305.550259 42.273065 
L 305.478206 42.280704 
L 304.18125 42.358532 
L 304.109197 42.245486 
L 303.893037 42.208068 
L 303.893037 41.965951 
L 303.820984 41.973573 
L 303.100453 41.989248 
L 303.100453 41.928471 
L 303.0284 41.936108 
L 302.668134 41.913462 
L 302.596081 41.616158 
L 302.163762 41.600558 
L 302.163762 41.539368 
L 302.091709 41.546948 
L 301.731444 41.523604 
L 301.731444 41.462272 
L 301.659391 41.469848 
L 301.371178 41.50019 
L 301.371178 41.438761 
L 301.299125 41.077044 
L 300.938859 41.052879 
L 300.938859 40.991123 
L 300.866806 40.998619 
L 300.578594 40.966786 
L 300.578594 40.904901 
L 300.506541 40.912389 
L 299.281637 40.978092 
L 299.281637 40.915898 
L 299.209584 40.923426 
L 298.705212 40.976229 
L 298.705212 40.913893 
L 298.705212 40.851526 
L 298.633159 40.859057 
L 298.417 40.881673 
L 298.417 40.819219 
L 298.417 40.756733 
L 298.344947 40.764252 
L 297.840575 40.754358 
L 297.840575 40.691698 
L 297.768522 40.699219 
L 297.696469 40.706743 
L 297.696469 40.644024 
L 297.696469 40.455673 
L 297.624415 40.463146 
L 297.408256 40.422682 
L 297.336203 40.304225 
L 296.831831 40.293336 
L 296.831831 40.230192 
L 296.759778 40.237639 
L 296.399512 40.211671 
L 296.399512 40.148376 
L 296.327459 40.155818 
L 295.967194 40.129671 
L 295.967194 40.066226 
L 295.89514 40.073662 
L 295.678981 40.032458 
L 295.678981 39.968891 
L 295.606928 39.976313 
L 295.390769 39.934946 
L 295.318715 39.814927 
L 294.382025 39.847441 
L 294.382025 39.719425 
L 294.309972 39.726829 
L 294.165865 39.677547 
L 294.093812 39.556616 
L 293.877653 39.578754 
L 293.877653 39.514494 
L 293.877653 39.450201 
L 293.8056 39.457559 
L 293.58944 39.479654 
L 293.58944 39.415268 
L 293.58944 39.35085 
L 293.517387 39.358193 
L 292.868909 39.359852 
L 292.868909 38.841842 
L 292.796856 38.849089 
L 292.148378 38.849428 
L 292.148378 38.78434 
L 292.076325 38.791595 
L 291.28374 38.871646 
L 291.28374 38.806343 
L 291.28374 38.741005 
L 291.211687 38.748275 
L 290.995528 38.770108 
L 290.995528 38.704675 
L 290.995528 38.639208 
L 290.923475 38.646463 
L 290.202943 38.653549 
L 290.202943 38.587844 
L 290.13089 38.59511 
L 289.338306 38.609364 
L 289.338306 38.477411 
L 289.266253 38.484676 
L 288.473668 38.498635 
L 288.473668 38.432384 
L 288.401615 38.439665 
L 287.82519 38.431621 
L 287.82519 38.365158 
L 287.753137 38.372442 
L 287.320818 38.349619 
L 287.320818 38.282974 
L 287.248765 38.290254 
L 286.960553 38.319411 
L 286.960553 38.252652 
L 286.960553 38.185857 
L 286.8885 38.193124 
L 286.528234 38.162592 
L 286.528234 38.09563 
L 286.456181 38.102889 
L 285.73565 38.108515 
L 285.73565 38.041304 
L 285.663596 38.048574 
L 285.015118 38.046766 
L 285.015118 37.979321 
L 284.943065 37.986597 
L 284.438693 37.97003 
L 284.438693 37.902382 
L 284.36664 37.909657 
L 283.934321 37.885591 
L 283.862268 37.757136 
L 283.285843 37.747248 
L 283.285843 37.542853 
L 283.21379 37.550076 
L 282.997631 37.503496 
L 282.925578 37.305627 
L 282.637365 37.265849 
L 282.637365 37.197307 
L 282.565312 37.204465 
L 282.349153 37.157315 
L 282.349153 37.088631 
L 282.277099 37.09577 
L 281.772728 37.077003 
L 281.772728 37.008108 
L 281.700674 37.015245 
L 281.052196 37.010556 
L 281.052196 36.941415 
L 280.980143 36.948558 
L 280.763984 36.97001 
L 280.763984 36.900762 
L 280.691931 36.76926 
L 280.115506 36.756741 
L 280.043453 36.555033 
L 279.539081 36.534846 
L 279.539081 36.464997 
L 279.467028 36.472067 
L 279.322921 36.486219 
L 279.322921 36.416279 
L 279.322921 36.3463 
L 279.250868 36.353347 
L 279.178815 36.360398 
L 279.178815 36.290345 
L 279.178815 36.220254 
L 279.106762 36.227273 
L 278.170071 36.248506 
L 278.170071 36.037138 
L 278.098018 36.044142 
L 277.665699 36.015586 
L 277.665699 35.874149 
L 277.593646 35.881126 
L 276.801062 35.958138 
L 276.801062 35.887144 
L 276.801062 35.816111 
L 276.729009 35.823099 
L 276.440796 35.779929 
L 276.440796 35.566196 
L 276.368743 35.573132 
L 275.936424 35.543377 
L 275.936424 35.471884 
L 275.864371 35.478811 
L 275.432052 35.520455 
L 275.432052 35.448793 
L 275.359999 35.312247 
L 274.927681 35.281813 
L 274.927681 35.209859 
L 274.855627 35.216749 
L 274.279202 35.272008 
L 274.279202 35.199846 
L 274.279202 35.055399 
L 274.207149 35.062268 
L 273.702777 35.038028 
L 273.702777 34.893033 
L 273.630724 34.899878 
L 272.982246 34.961654 
L 272.982246 34.888906 
L 272.982246 34.816115 
L 272.910193 34.822961 
L 272.117609 34.825466 
L 272.117609 34.606032 
L 272.045555 34.612849 
L 270.892705 34.6489 
L 270.892705 34.5753 
L 270.820652 34.582146 
L 270.53244 34.609568 
L 270.53244 34.535828 
L 270.460387 34.395028 
L 269.811909 34.382406 
L 269.811909 34.308299 
L 269.739855 34.315107 
L 269.091377 34.302206 
L 269.019324 34.08567 
L 268.082634 34.099219 
L 268.082634 33.87455 
L 268.01058 33.881294 
L 267.578262 33.846722 
L 267.578262 33.771559 
L 267.506208 33.778291 
L 267.07389 33.743413 
L 267.07389 33.668019 
L 267.001837 33.674737 
L 266.929783 33.68146 
L 266.929783 33.60598 
L 266.85773 33.461552 
L 266.353358 33.432542 
L 266.353358 33.28085 
L 266.281305 33.287486 
L 265.993093 33.314067 
L 265.993093 33.23805 
L 265.993093 33.161987 
L 265.92104 33.168601 
L 265.776933 33.18184 
L 265.776933 33.10567 
L 265.776933 33.029455 
L 265.70488 33.036039 
L 264.624083 33.058678 
L 264.55203 32.604636 
L 263.831499 32.592697 
L 263.831499 32.515498 
L 263.759446 32.521998 
L 263.255074 32.490194 
L 263.255074 32.41273 
L 263.183021 32.419219 
L 262.24633 32.426121 
L 262.174277 32.276831 
L 261.669905 32.244165 
L 261.669905 32.165987 
L 261.597852 32.172454 
L 259.364205 32.295979 
L 259.292152 32.144494 
L 259.00394 32.091455 
L 259.00394 32.012214 
L 258.931886 32.018717 
L 258.571621 31.97187 
L 258.571621 31.892395 
L 258.499568 31.898877 
L 258.283408 31.838734 
L 258.283408 31.75907 
L 258.211355 31.765523 
L 256.337974 31.854391 
L 256.265921 31.700066 
L 255.833602 31.658464 
L 255.833602 31.577765 
L 255.761549 31.584241 
L 254.680752 31.681862 
L 254.680752 31.600737 
L 254.608699 31.444803 
L 254.320486 31.389327 
L 254.320486 31.307877 
L 254.248433 31.31432 
L 253.455849 31.385465 
L 253.455849 31.303677 
L 253.455849 31.221837 
L 253.383796 31.228282 
L 252.375052 31.236683 
L 252.375052 31.072016 
L 252.302999 31.07845 
L 252.086839 31.015265 
L 252.086839 30.932702 
L 252.014786 30.939103 
L 250.501671 30.991327 
L 250.501671 30.908116 
L 250.429617 30.914559 
L 249.56498 30.908611 
L 249.492927 30.74769 
L 248.340077 30.766834 
L 248.268024 30.520346 
L 247.619546 30.493402 
L 247.619546 30.323915 
L 247.547492 30.330271 
L 246.826961 30.308958 
L 246.826961 30.223789 
L 246.754908 30.23014 
L 245.674111 30.240268 
L 245.674111 30.154568 
L 245.602058 30.160934 
L 245.025633 30.126019 
L 245.025633 30.039966 
L 244.95358 30.046317 
L 243.944836 30.049168 
L 243.944836 29.962599 
L 243.872783 29.96896 
L 242.864039 29.971437 
L 242.864039 29.884345 
L 242.791986 29.890717 
L 242.64788 29.81624 
L 242.575827 29.6479 
L 242.359667 29.579314 
L 242.359667 29.491735 
L 242.287614 29.497999 
L 241.27887 29.498095 
L 241.27887 29.409982 
L 241.206817 29.416255 
L 241.134764 29.422532 
L 241.134764 29.334302 
L 241.062711 29.16386 
L 240.558339 29.118726 
L 240.558339 29.03003 
L 240.486286 29.036205 
L 239.621648 29.02151 
L 239.621648 28.932323 
L 239.549595 28.938496 
L 239.477542 28.944673 
L 239.477542 28.855368 
L 239.477542 28.766 
L 239.405489 28.772125 
L 239.261383 28.784386 
L 239.261383 28.694871 
L 239.261383 28.605294 
L 239.18933 28.611373 
L 238.829064 28.552022 
L 238.757011 28.2882 
L 238.612905 28.210041 
L 238.612905 28.119829 
L 238.540852 28.125772 
L 237.315948 28.136627 
L 237.315948 28.04576 
L 237.243895 28.051718 
L 236.018992 28.06218 
L 236.018992 27.970647 
L 235.946939 27.976621 
L 235.442567 27.926716 
L 235.442567 27.834812 
L 235.370514 27.840759 
L 234.794089 27.796242 
L 234.794089 27.703933 
L 234.722036 27.709857 
L 233.641239 27.799219 
L 233.641239 27.706351 
L 233.641239 27.613418 
L 233.569186 27.619347 
L 232.920708 27.579591 
L 232.920708 27.392767 
L 232.848655 27.398645 
L 232.488389 27.334397 
L 232.488389 27.240628 
L 232.416336 27.246468 
L 231.191433 27.251987 
L 231.191433 27.15751 
L 231.119379 27.163362 
L 230.470901 27.121356 
L 230.470901 27.026419 
L 230.398848 27.032249 
L 229.894476 26.977913 
L 229.894476 26.882576 
L 229.822423 26.888375 
L 229.678317 26.804482 
L 229.678317 26.708908 
L 229.606264 26.714654 
L 228.021095 26.745733 
L 228.021095 26.649256 
L 227.949042 26.655033 
L 227.228511 26.61612 
L 227.228511 26.51913 
L 227.156458 26.524886 
L 224.778704 26.619053 
L 224.778704 26.520752 
L 224.706651 26.526587 
L 224.130226 26.474737 
L 224.058173 26.282905 
L 222.905323 26.2763 
L 222.905323 26.176709 
L 222.83327 26.182482 
L 220.671676 26.256955 
L 220.671676 25.954132 
L 220.599623 25.959897 
L 219.879092 26.017795 
L 219.879092 25.916292 
L 219.879092 25.814711 
L 219.807039 25.820451 
L 219.446773 25.747335 
L 219.446773 25.645373 
L 219.37472 25.651065 
L 218.942401 25.583007 
L 218.942401 25.480622 
L 218.870348 25.48627 
L 217.933657 25.457101 
L 217.933657 25.250867 
L 217.861604 25.256463 
L 217.213126 25.203397 
L 217.213126 25.099692 
L 217.141073 25.105254 
L 216.636701 25.040216 
L 216.636701 24.831773 
L 216.564648 24.837254 
L 214.691267 24.875871 
L 214.619213 24.670269 
L 212.601726 24.718651 
L 212.601726 24.611719 
L 212.529673 24.617246 
L 211.665035 24.576362 
L 211.592982 24.366444 
L 211.232717 24.393813 
L 211.232717 24.285741 
L 211.232717 24.177579 
L 211.160663 24.182983 
L 208.350591 24.287255 
L 208.350591 24.1772 
L 208.278538 24.182698 
L 207.84622 24.105328 
L 207.84622 23.994782 
L 207.774166 24.000224 
L 207.197741 23.932888 
L 207.197741 23.821759 
L 207.125688 23.827153 
L 206.69337 23.859615 
L 206.69337 23.74808 
L 206.621316 23.753461 
L 204.747935 23.894993 
L 204.747935 23.782139 
L 204.747935 23.669189 
L 204.675882 23.674603 
L 204.17151 23.712635 
L 204.17151 23.599219 
L 204.099457 23.604624 
L 203.955351 23.615449 
L 203.955351 23.501796 
L 203.883298 23.507169 
L 203.811244 23.512546 
L 203.811244 23.398703 
L 203.739191 23.404038 
L 202.370182 23.50629 
L 202.370182 23.391406 
L 202.298129 23.396787 
L 202.081969 23.412958 
L 202.081969 23.297783 
L 202.009916 23.303135 
L 201.217332 23.362315 
L 201.217332 23.13051 
L 201.145279 23.135821 
L 200.568854 23.178481 
L 200.496801 22.950649 
L 196.605932 23.24149 
L 196.605932 23.122032 
L 196.533879 23.1275 
L 195.957454 23.171423 
L 195.957454 23.051393 
L 195.885401 23.056854 
L 195.741294 23.06779 
L 195.741294 22.947495 
L 195.669241 22.952918 
L 195.236922 22.985564 
L 195.236922 22.864793 
L 195.164869 22.870198 
L 194.516391 22.919072 
L 194.516391 22.797663 
L 194.444338 22.803065 
L 194.372285 22.808472 
L 194.372285 22.686845 
L 194.300232 22.692204 
L 194.156125 22.702936 
L 194.156125 22.581037 
L 194.084072 22.586357 
L 193.147382 22.655966 
L 193.147382 22.533199 
L 193.075329 22.538534 
L 192.931222 22.549219 
L 192.931222 22.426176 
L 192.859169 22.431471 
L 192.570957 22.452701 
L 192.570957 22.32927 
L 192.498904 22.334535 
L 192.42685 22.339805 
L 192.42685 22.216149 
L 192.354797 22.221369 
L 191.346054 22.294956 
L 191.346054 22.170353 
L 191.274 22.17559 
L 191.057841 22.191331 
L 191.057841 22.066386 
L 190.985788 22.071587 
L 190.33731 22.118615 
L 190.33731 21.992986 
L 190.265257 21.99818 
L 189.977044 22.019001 
L 189.977044 21.892969 
L 189.904991 21.898129 
L 189.400619 21.93439 
L 189.400619 21.807778 
L 189.328566 21.81292 
L 189.040353 21.833537 
L 189.040353 21.706515 
L 188.9683 21.711623 
L 187.959557 21.783657 
L 187.959557 21.655634 
L 187.887503 21.660757 
L 187.671344 21.676157 
L 187.671344 21.547774 
L 187.599291 21.552857 
L 187.383132 21.568138 
L 187.383132 21.439393 
L 187.311078 21.444436 
L 186.086175 21.530928 
L 186.014122 21.275902 
L 184.428953 21.387384 
L 184.428953 21.255756 
L 184.3569 21.260818 
L 183.708422 21.306606 
L 183.708422 21.174219 
L 183.636369 21.179268 
L 182.555572 21.255619 
L 182.555572 21.12208 
L 182.483519 21.127147 
L 180.538085 21.265885 
L 180.538085 21.130386 
L 180.466031 21.135532 
L 179.024969 21.239547 
L 179.024969 21.102504 
L 178.952916 21.107693 
L 176.647216 21.276608 
L 176.647216 21.13715 
L 176.575163 21.142449 
L 175.350259 21.233396 
L 175.350259 21.092517 
L 175.278206 21.097846 
L 171.891709 21.354822 
L 171.891709 21.21027 
L 171.819656 21.215804 
L 171.603497 21.232444 
L 171.603497 21.087432 
L 171.531444 21.092914 
L 170.090381 21.203834 
L 170.090381 21.057053 
L 170.018328 21.062585 
L 169.946275 21.068124 
L 169.946275 20.921025 
L 169.874222 20.926491 
L 169.513956 20.953915 
L 169.513956 20.806184 
L 169.441903 20.811608 
L 168.937531 20.849746 
L 168.937531 20.701219 
L 168.865478 20.706612 
L 168.144947 20.760873 
L 168.144947 20.611299 
L 168.072894 20.616678 
L 166.559778 20.731042 
L 166.559778 20.579502 
L 166.487725 20.584933 
L 165.046662 20.694861 
L 165.046662 20.541387 
L 164.974609 20.546865 
L 163.821759 20.635372 
L 163.821759 20.480262 
L 163.749706 20.485762 
L 163.6056 20.49678 
L 163.6056 20.341229 
L 163.533547 20.346661 
L 162.524803 20.423369 
L 162.524803 20.266316 
L 162.45275 20.271754 
L 160.14705 20.449219 
L 160.14705 20.288985 
L 160.074997 20.294548 
L 159.066253 20.373132 
L 159.066253 20.211303 
L 158.9942 20.216873 
L 157.192871 20.358335 
L 157.192871 20.02909 
L 157.120818 20.034643 
L 156.400287 20.090555 
L 156.400287 19.924544 
L 156.328234 19.930074 
L 154.526906 20.070584 
L 154.526906 19.901738 
L 154.454853 19.907347 
L 153.446109 19.986631 
L 153.446109 19.816013 
L 153.374056 19.821625 
L 152.221206 19.912402 
L 152.221206 19.739759 
L 152.149153 19.745387 
L 148.978815 20.000412 
L 148.906762 19.650215 
L 148.258284 19.702225 
L 148.186231 19.348616 
L 148.114178 19.354209 
L 148.114178 19.174018 
L 148.042124 19.1795 
L 144.583574 19.45161 
L 144.583574 19.265238 
L 144.511521 19.270974 
L 144.439468 19.276719 
L 144.439468 19.089837 
L 144.367415 19.095464 
L 142.494034 19.244545 
L 142.494034 18.863049 
L 142.42198 18.86863 
L 141.413237 18.947606 
L 141.413237 18.754455 
L 141.341184 18.760023 
L 140.33244 18.838813 
L 140.33244 18.643341 
L 140.260387 18.648892 
L 135.937199 18.997396 
L 135.937199 18.792836 
L 135.865146 18.798762 
L 131.181693 19.204339 
L 131.181693 18.988971 
L 131.10964 18.995373 
L 128.227515 19.260146 
L 128.227515 19.03733 
L 128.155461 19.043995 
L 126.210027 19.228226 
L 126.210027 18.999898 
L 126.137974 19.006695 
L 124.552805 19.159219 
L 124.552805 18.926082 
L 124.480752 18.932957 
L 122.895583 19.087282 
L 122.895583 18.84913 
L 122.82353 18.856083 
L 122.030946 18.933387 
L 122.030946 18.692325 
L 121.958893 18.699219 
L 118.932661 19.000336 
L 118.932661 18.749452 
L 118.860608 18.756681 
L 116.194642 19.034001 
L 116.194642 18.773687 
L 116.122589 18.781213 
L 115.762324 18.819063 
L 115.762324 18.293956 
L 115.69027 18.301072 
L 115.185899 18.351282 
L 115.185899 18.085944 
L 115.113845 18.09292 
L 111.150923 18.498907 
L 111.150923 18.217969 
L 111.07887 18.225496 
L 111.006817 18.233039 
L 111.006817 17.950943 
L 110.934764 17.958215 
L 105.746939 18.525011 
L 105.746939 18.219604 
L 105.674886 18.22779 
L 103.585345 18.473545 
L 103.585345 18.156965 
L 103.513292 18.165376 
L 101.279645 18.436292 
L 101.279645 18.106911 
L 101.207592 18.1156 
L 100.270901 18.230523 
L 100.270901 17.894741 
L 100.198848 17.903328 
L 99.622423 17.972804 
L 99.622423 17.632468 
L 99.55037 17.640833 
L 96.163873 18.059272 
L 96.163873 17.696668 
L 96.09182 17.70567 
L 95.803607 17.741921 
L 95.803607 17.375944 
L 95.731554 17.384585 
L 95.083076 17.463416 
L 95.083076 17.091526 
L 95.011023 17.099907 
L 88.454189 17.972804 
L 88.454189 17.54725 
L 88.382135 17.557578 
L 84.923585 18.094782 
L 84.923585 17.633065 
L 84.851532 17.644424 
L 82.329673 18.068071 
L 82.329673 17.575131 
L 82.25762 17.587153 
L 81.825301 17.660217 
L 81.825301 17.159219 
L 81.753248 17.170647 
L 81.537088 17.205189 
L 81.537088 16.698658 
L 81.465035 16.709331 
L 76.421316 17.57077 
L 73.395085 18.224811 
L 73.395085 17.583542 
L 73.323032 17.599219 
L 73.250979 17.614971 
L 73.250979 16.96764 
L 73.178926 16.981953 
L 69.864482 17.723747 
L 69.864482 16.992732 
L 69.792429 17.008975 
L 66.405932 17.886175 
L 63.59586 18.835261 
L 61.218107 19.869619 
L 60.857841 20.050647 
L 60.857841 18.951678 
L 60.785788 18.984404 
L 59.92115 19.399219 
L 59.92115 18.230523 
L 59.849097 18.262101 
L 57.83161 19.273846 
L 56.174388 20.343039 
L 56.174388 18.829727 
L 56.102335 18.874219 
L 54.589219 19.941154 
L 54.012794 20.42779 
L 54.012794 18.593739 
L 53.940741 18.646115 
L 52.643785 19.729927 
L 51.490935 20.988408 
L 50.986563 21.660757 
L 50.986563 19.073005 
L 50.91451 19.15216 
L 49.977819 20.343039 
L 49.113181 21.799219 
L 48.320597 23.599219 
L 48.176491 23.992969 
L 48.176491 19.799219 
L 48.104438 19.941154 
L 47.455959 21.459596 
L 46.807481 23.599219 
L 46.231056 26.399219 
L 45.726684 30.11646 
L 45.294366 35.103567 
L 45.294366 23.599219 
L 45.222313 24.199219 
L 44.862047 28.324219 
L 44.573834 34.099219 
L 44.429728 38.719219 
L 44.429728 10.999219 
L 44.357675 10.999219 
L 43.78125 10.999219 
L 43.78125 10.999219 
" clip-path="url(#pb1b6c79556)" style="fill: none; stroke: #1f77b4; stroke-width: 1.5; stroke-linecap: square"/>
   </g>
   <g id="patch_3">
    <path d="M 43.78125 288.199219 
L 43.78125 10.999219 
" style="fill: none; stroke: #000000; stroke-width: 0.8; stroke-linejoin: miter; stroke-linecap: square"/>
   </g>
   <g id="patch_4">
    <path d="M 434.38125 288.199219 
L 434.38125 10.999219 
" style="fill: none; stroke: #000000; stroke-width: 0.8; stroke-linejoin: miter; stroke-linecap: square"/>
   </g>
   <g id="patch_5">
    <path d="M 43.78125 288.199219 
L 434.38125 288.199219 
" style="fill: none; stroke: #000000; stroke-width: 0.8; stroke-linejoin: miter; stroke-linecap: square"/>
   </g>
   <g id="patch_6">
    <path d="M 43.78125 10.999219 
L 434.38125 10.999219 
" style="fill: none; stroke: #000000; stroke-width: 0.8; stroke-linejoin: miter; stroke-linecap: square"/>
   </g>
  </g>
 </g>
 <defs>
  <clipPath id="pb1b6c79556">
   <rect x="43.78125" y="10.999219" width="390.6" height="277.2"/>
  </clipPath>
 </defs>
</svg>
