<?xml version="1.0" encoding="utf-8" standalone="no"?>
<!DOCTYPE svg PUBLIC "-//W3C//DTD SVG 1.1//EN"
  "http://www.w3.org/Graphics/SVG/1.1/DTD/svg11.dtd">
<svg xmlns:xlink="http://www.w3.org/1999/xlink" width="418.423153pt" height="308.278125pt" viewBox="0 0 418.423153 308.278125" xmlns="http://www.w3.org/2000/svg" version="1.1">
 <metadata>
  <rdf:RDF xmlns:dc="http://purl.org/dc/elements/1.1/" xmlns:cc="http://creativecommons.org/ns#" xmlns:rdf="http://www.w3.org/1999/02/22-rdf-syntax-ns#">
   <cc:Work>
    <dc:type rdf:resource="http://purl.org/dc/dcmitype/StillImage"/>
    <dc:date>2025-01-29T15:34:22.850494</dc:date>
    <dc:format>image/svg+xml</dc:format>
    <dc:creator>
     <cc:Agent>
      <dc:title>Matplotlib v3.10.0, https://matplotlib.org/</dc:title>
     </cc:Agent>
    </dc:creator>
   </cc:Work>
  </rdf:RDF>
 </metadata>
 <defs>
  <style type="text/css">*{stroke-linejoin: round; stroke-linecap: butt}</style>
 </defs>
 <g id="figure_1">
  <g id="patch_1">
   <path d="M 0 308.278125 
L 418.423153 308.278125 
L 418.423153 0 
L 0 0 
z
" style="fill: #ffffff"/>
  </g>
  <g id="axes_1">
   <g id="patch_2">
    <path d="M 20.5625 284.4 
L 411.1625 284.4 
L 411.1625 7.2 
L 20.5625 7.2 
z
" style="fill: #ffffff"/>
   </g>
   <g id="PathCollection_1">
    <defs>
     <path id="me75a027616" d="M 0 3 
C 0.795609 3 1.55874 2.683901 2.12132 2.12132 
C 2.683901 1.55874 3 0.795609 3 0 
C 3 -0.795609 2.683901 -1.55874 2.12132 -2.12132 
C 1.55874 -2.683901 0.795609 -3 0 -3 
C -0.795609 -3 -1.55874 -2.683901 -2.12132 -2.12132 
C -2.683901 -1.55874 -3 -0.795609 -3 0 
C -3 0.795609 -2.683901 1.55874 -2.12132 2.12132 
C -1.55874 2.683901 -0.795609 3 0 3 
z
" style="stroke: #808080"/>
    </defs>
    <g clip-path="url(#p36eb9cc987)">
     <use xlink:href="#me75a027616" x="117.226136" y="254.715254" style="fill: #808080; stroke: #808080"/>
     <use xlink:href="#me75a027616" x="97.498864" y="254.715254" style="fill: #808080; stroke: #808080"/>
     <use xlink:href="#me75a027616" x="77.771591" y="258.986441" style="fill: #808080; stroke: #808080"/>
     <use xlink:href="#me75a027616" x="67.907955" y="250.444068" style="fill: #808080; stroke: #808080"/>
     <use xlink:href="#me75a027616" x="107.3625" y="254.715254" style="fill: #808080; stroke: #808080"/>
     <use xlink:href="#me75a027616" x="146.817045" y="241.901695" style="fill: #808080; stroke: #808080"/>
     <use xlink:href="#me75a027616" x="67.907955" y="254.715254" style="fill: #808080; stroke: #808080"/>
     <use xlink:href="#me75a027616" x="107.3625" y="250.444068" style="fill: #808080; stroke: #808080"/>
     <use xlink:href="#me75a027616" x="48.180682" y="254.715254" style="fill: #808080; stroke: #808080"/>
     <use xlink:href="#me75a027616" x="97.498864" y="250.444068" style="fill: #808080; stroke: #808080"/>
     <use xlink:href="#me75a027616" x="146.817045" y="250.444068" style="fill: #808080; stroke: #808080"/>
     <use xlink:href="#me75a027616" x="87.635227" y="246.172881" style="fill: #808080; stroke: #808080"/>
     <use xlink:href="#me75a027616" x="87.635227" y="254.715254" style="fill: #808080; stroke: #808080"/>
     <use xlink:href="#me75a027616" x="38.317045" y="267.528814" style="fill: #808080; stroke: #808080"/>
     <use xlink:href="#me75a027616" x="186.271591" y="263.257627" style="fill: #808080; stroke: #808080"/>
     <use xlink:href="#me75a027616" x="176.407955" y="250.444068" style="fill: #808080; stroke: #808080"/>
     <use xlink:href="#me75a027616" x="146.817045" y="258.986441" style="fill: #808080; stroke: #808080"/>
     <use xlink:href="#me75a027616" x="117.226136" y="254.715254" style="fill: #808080; stroke: #808080"/>
     <use xlink:href="#me75a027616" x="176.407955" y="241.901695" style="fill: #808080; stroke: #808080"/>
     <use xlink:href="#me75a027616" x="117.226136" y="250.444068" style="fill: #808080; stroke: #808080"/>
     <use xlink:href="#me75a027616" x="146.817045" y="241.901695" style="fill: #808080; stroke: #808080"/>
     <use xlink:href="#me75a027616" x="117.226136" y="250.444068" style="fill: #808080; stroke: #808080"/>
     <use xlink:href="#me75a027616" x="67.907955" y="271.8" style="fill: #808080; stroke: #808080"/>
     <use xlink:href="#me75a027616" x="117.226136" y="241.901695" style="fill: #808080; stroke: #808080"/>
     <use xlink:href="#me75a027616" x="87.635227" y="233.359322" style="fill: #808080; stroke: #808080"/>
     <use xlink:href="#me75a027616" x="107.3625" y="246.172881" style="fill: #808080; stroke: #808080"/>
     <use xlink:href="#me75a027616" x="107.3625" y="246.172881" style="fill: #808080; stroke: #808080"/>
     <use xlink:href="#me75a027616" x="127.089773" y="250.444068" style="fill: #808080; stroke: #808080"/>
     <use xlink:href="#me75a027616" x="127.089773" y="254.715254" style="fill: #808080; stroke: #808080"/>
     <use xlink:href="#me75a027616" x="77.771591" y="246.172881" style="fill: #808080; stroke: #808080"/>
     <use xlink:href="#me75a027616" x="87.635227" y="246.172881" style="fill: #808080; stroke: #808080"/>
     <use xlink:href="#me75a027616" x="146.817045" y="250.444068" style="fill: #808080; stroke: #808080"/>
     <use xlink:href="#me75a027616" x="127.089773" y="250.444068" style="fill: #808080; stroke: #808080"/>
     <use xlink:href="#me75a027616" x="156.680682" y="254.715254" style="fill: #808080; stroke: #808080"/>
     <use xlink:href="#me75a027616" x="97.498864" y="250.444068" style="fill: #808080; stroke: #808080"/>
     <use xlink:href="#me75a027616" x="107.3625" y="263.257627" style="fill: #808080; stroke: #808080"/>
     <use xlink:href="#me75a027616" x="156.680682" y="258.986441" style="fill: #808080; stroke: #808080"/>
     <use xlink:href="#me75a027616" x="97.498864" y="254.715254" style="fill: #808080; stroke: #808080"/>
     <use xlink:href="#me75a027616" x="48.180682" y="258.986441" style="fill: #808080; stroke: #808080"/>
     <use xlink:href="#me75a027616" x="117.226136" y="250.444068" style="fill: #808080; stroke: #808080"/>
     <use xlink:href="#me75a027616" x="107.3625" y="258.986441" style="fill: #808080; stroke: #808080"/>
     <use xlink:href="#me75a027616" x="58.044318" y="258.986441" style="fill: #808080; stroke: #808080"/>
     <use xlink:href="#me75a027616" x="48.180682" y="258.986441" style="fill: #808080; stroke: #808080"/>
     <use xlink:href="#me75a027616" x="107.3625" y="246.172881" style="fill: #808080; stroke: #808080"/>
     <use xlink:href="#me75a027616" x="117.226136" y="233.359322" style="fill: #808080; stroke: #808080"/>
     <use xlink:href="#me75a027616" x="87.635227" y="254.715254" style="fill: #808080; stroke: #808080"/>
     <use xlink:href="#me75a027616" x="117.226136" y="246.172881" style="fill: #808080; stroke: #808080"/>
     <use xlink:href="#me75a027616" x="67.907955" y="254.715254" style="fill: #808080; stroke: #808080"/>
     <use xlink:href="#me75a027616" x="136.953409" y="250.444068" style="fill: #808080; stroke: #808080"/>
     <use xlink:href="#me75a027616" x="107.3625" y="254.715254" style="fill: #808080; stroke: #808080"/>
     <use xlink:href="#me75a027616" x="304.635227" y="113.766102" style="fill: #808080; stroke: #808080"/>
     <use xlink:href="#me75a027616" x="245.453409" y="122.308475" style="fill: #808080; stroke: #808080"/>
     <use xlink:href="#me75a027616" x="294.771591" y="105.223729" style="fill: #808080; stroke: #808080"/>
     <use xlink:href="#me75a027616" x="156.680682" y="143.664407" style="fill: #808080; stroke: #808080"/>
     <use xlink:href="#me75a027616" x="255.317045" y="118.037288" style="fill: #808080; stroke: #808080"/>
     <use xlink:href="#me75a027616" x="176.407955" y="122.308475" style="fill: #808080; stroke: #808080"/>
     <use xlink:href="#me75a027616" x="235.589773" y="113.766102" style="fill: #808080; stroke: #808080"/>
     <use xlink:href="#me75a027616" x="97.498864" y="173.562712" style="fill: #808080; stroke: #808080"/>
     <use xlink:href="#me75a027616" x="265.180682" y="118.037288" style="fill: #808080; stroke: #808080"/>
     <use xlink:href="#me75a027616" x="127.089773" y="147.935593" style="fill: #808080; stroke: #808080"/>
     <use xlink:href="#me75a027616" x="107.3625" y="165.020339" style="fill: #808080; stroke: #808080"/>
     <use xlink:href="#me75a027616" x="196.135227" y="135.122034" style="fill: #808080; stroke: #808080"/>
     <use xlink:href="#me75a027616" x="205.998864" y="143.664407" style="fill: #808080; stroke: #808080"/>
     <use xlink:href="#me75a027616" x="215.8625" y="113.766102" style="fill: #808080; stroke: #808080"/>
     <use xlink:href="#me75a027616" x="166.544318" y="160.749153" style="fill: #808080; stroke: #808080"/>
     <use xlink:href="#me75a027616" x="275.044318" y="126.579661" style="fill: #808080; stroke: #808080"/>
     <use xlink:href="#me75a027616" x="166.544318" y="122.308475" style="fill: #808080; stroke: #808080"/>
     <use xlink:href="#me75a027616" x="186.271591" y="139.39322" style="fill: #808080; stroke: #808080"/>
     <use xlink:href="#me75a027616" x="225.726136" y="122.308475" style="fill: #808080; stroke: #808080"/>
     <use xlink:href="#me75a027616" x="166.544318" y="147.935593" style="fill: #808080; stroke: #808080"/>
     <use xlink:href="#me75a027616" x="196.135227" y="109.494915" style="fill: #808080; stroke: #808080"/>
     <use xlink:href="#me75a027616" x="215.8625" y="143.664407" style="fill: #808080; stroke: #808080"/>
     <use xlink:href="#me75a027616" x="235.589773" y="105.223729" style="fill: #808080; stroke: #808080"/>
     <use xlink:href="#me75a027616" x="215.8625" y="113.766102" style="fill: #808080; stroke: #808080"/>
     <use xlink:href="#me75a027616" x="245.453409" y="130.850847" style="fill: #808080; stroke: #808080"/>
     <use xlink:href="#me75a027616" x="265.180682" y="126.579661" style="fill: #808080; stroke: #808080"/>
     <use xlink:href="#me75a027616" x="284.907955" y="109.494915" style="fill: #808080; stroke: #808080"/>
     <use xlink:href="#me75a027616" x="275.044318" y="100.952542" style="fill: #808080; stroke: #808080"/>
     <use xlink:href="#me75a027616" x="205.998864" y="122.308475" style="fill: #808080; stroke: #808080"/>
     <use xlink:href="#me75a027616" x="176.407955" y="165.020339" style="fill: #808080; stroke: #808080"/>
     <use xlink:href="#me75a027616" x="156.680682" y="152.20678" style="fill: #808080; stroke: #808080"/>
     <use xlink:href="#me75a027616" x="156.680682" y="156.477966" style="fill: #808080; stroke: #808080"/>
     <use xlink:href="#me75a027616" x="186.271591" y="147.935593" style="fill: #808080; stroke: #808080"/>
     <use xlink:href="#me75a027616" x="205.998864" y="96.681356" style="fill: #808080; stroke: #808080"/>
     <use xlink:href="#me75a027616" x="146.817045" y="122.308475" style="fill: #808080; stroke: #808080"/>
     <use xlink:href="#me75a027616" x="205.998864" y="122.308475" style="fill: #808080; stroke: #808080"/>
     <use xlink:href="#me75a027616" x="275.044318" y="113.766102" style="fill: #808080; stroke: #808080"/>
     <use xlink:href="#me75a027616" x="235.589773" y="126.579661" style="fill: #808080; stroke: #808080"/>
     <use xlink:href="#me75a027616" x="166.544318" y="139.39322" style="fill: #808080; stroke: #808080"/>
     <use xlink:href="#me75a027616" x="156.680682" y="143.664407" style="fill: #808080; stroke: #808080"/>
     <use xlink:href="#me75a027616" x="156.680682" y="126.579661" style="fill: #808080; stroke: #808080"/>
     <use xlink:href="#me75a027616" x="215.8625" y="118.037288" style="fill: #808080; stroke: #808080"/>
     <use xlink:href="#me75a027616" x="186.271591" y="143.664407" style="fill: #808080; stroke: #808080"/>
     <use xlink:href="#me75a027616" x="107.3625" y="173.562712" style="fill: #808080; stroke: #808080"/>
     <use xlink:href="#me75a027616" x="166.544318" y="135.122034" style="fill: #808080; stroke: #808080"/>
     <use xlink:href="#me75a027616" x="176.407955" y="135.122034" style="fill: #808080; stroke: #808080"/>
     <use xlink:href="#me75a027616" x="176.407955" y="135.122034" style="fill: #808080; stroke: #808080"/>
     <use xlink:href="#me75a027616" x="225.726136" y="130.850847" style="fill: #808080; stroke: #808080"/>
     <use xlink:href="#me75a027616" x="117.226136" y="186.376271" style="fill: #808080; stroke: #808080"/>
     <use xlink:href="#me75a027616" x="176.407955" y="139.39322" style="fill: #808080; stroke: #808080"/>
     <use xlink:href="#me75a027616" x="235.589773" y="58.240678" style="fill: #808080; stroke: #808080"/>
     <use xlink:href="#me75a027616" x="186.271591" y="96.681356" style="fill: #808080; stroke: #808080"/>
     <use xlink:href="#me75a027616" x="314.498864" y="62.511864" style="fill: #808080; stroke: #808080"/>
     <use xlink:href="#me75a027616" x="235.589773" y="75.325424" style="fill: #808080; stroke: #808080"/>
     <use xlink:href="#me75a027616" x="255.317045" y="66.783051" style="fill: #808080; stroke: #808080"/>
     <use xlink:href="#me75a027616" x="363.817045" y="32.613559" style="fill: #808080; stroke: #808080"/>
     <use xlink:href="#me75a027616" x="97.498864" y="122.308475" style="fill: #808080; stroke: #808080"/>
     <use xlink:href="#me75a027616" x="334.226136" y="45.427119" style="fill: #808080; stroke: #808080"/>
     <use xlink:href="#me75a027616" x="275.044318" y="66.783051" style="fill: #808080; stroke: #808080"/>
     <use xlink:href="#me75a027616" x="324.3625" y="53.969492" style="fill: #808080; stroke: #808080"/>
     <use xlink:href="#me75a027616" x="255.317045" y="96.681356" style="fill: #808080; stroke: #808080"/>
     <use xlink:href="#me75a027616" x="245.453409" y="88.138983" style="fill: #808080; stroke: #808080"/>
     <use xlink:href="#me75a027616" x="284.907955" y="79.59661" style="fill: #808080; stroke: #808080"/>
     <use xlink:href="#me75a027616" x="176.407955" y="100.952542" style="fill: #808080; stroke: #808080"/>
     <use xlink:href="#me75a027616" x="186.271591" y="96.681356" style="fill: #808080; stroke: #808080"/>
     <use xlink:href="#me75a027616" x="245.453409" y="88.138983" style="fill: #808080; stroke: #808080"/>
     <use xlink:href="#me75a027616" x="255.317045" y="79.59661" style="fill: #808080; stroke: #808080"/>
     <use xlink:href="#me75a027616" x="373.680682" y="28.342373" style="fill: #808080; stroke: #808080"/>
     <use xlink:href="#me75a027616" x="373.680682" y="19.8" style="fill: #808080; stroke: #808080"/>
     <use xlink:href="#me75a027616" x="205.998864" y="100.952542" style="fill: #808080; stroke: #808080"/>
     <use xlink:href="#me75a027616" x="294.771591" y="71.054237" style="fill: #808080; stroke: #808080"/>
     <use xlink:href="#me75a027616" x="166.544318" y="105.223729" style="fill: #808080; stroke: #808080"/>
     <use xlink:href="#me75a027616" x="373.680682" y="28.342373" style="fill: #808080; stroke: #808080"/>
     <use xlink:href="#me75a027616" x="235.589773" y="105.223729" style="fill: #808080; stroke: #808080"/>
     <use xlink:href="#me75a027616" x="275.044318" y="71.054237" style="fill: #808080; stroke: #808080"/>
     <use xlink:href="#me75a027616" x="324.3625" y="58.240678" style="fill: #808080; stroke: #808080"/>
     <use xlink:href="#me75a027616" x="225.726136" y="109.494915" style="fill: #808080; stroke: #808080"/>
     <use xlink:href="#me75a027616" x="215.8625" y="105.223729" style="fill: #808080; stroke: #808080"/>
     <use xlink:href="#me75a027616" x="245.453409" y="75.325424" style="fill: #808080; stroke: #808080"/>
     <use xlink:href="#me75a027616" x="324.3625" y="66.783051" style="fill: #808080; stroke: #808080"/>
     <use xlink:href="#me75a027616" x="344.089773" y="53.969492" style="fill: #808080; stroke: #808080"/>
     <use xlink:href="#me75a027616" x="393.407955" y="41.155932" style="fill: #808080; stroke: #808080"/>
     <use xlink:href="#me75a027616" x="245.453409" y="75.325424" style="fill: #808080; stroke: #808080"/>
     <use xlink:href="#me75a027616" x="235.589773" y="96.681356" style="fill: #808080; stroke: #808080"/>
     <use xlink:href="#me75a027616" x="215.8625" y="75.325424" style="fill: #808080; stroke: #808080"/>
     <use xlink:href="#me75a027616" x="373.680682" y="53.969492" style="fill: #808080; stroke: #808080"/>
     <use xlink:href="#me75a027616" x="235.589773" y="75.325424" style="fill: #808080; stroke: #808080"/>
     <use xlink:href="#me75a027616" x="245.453409" y="79.59661" style="fill: #808080; stroke: #808080"/>
     <use xlink:href="#me75a027616" x="205.998864" y="109.494915" style="fill: #808080; stroke: #808080"/>
     <use xlink:href="#me75a027616" x="294.771591" y="83.867797" style="fill: #808080; stroke: #808080"/>
     <use xlink:href="#me75a027616" x="275.044318" y="75.325424" style="fill: #808080; stroke: #808080"/>
     <use xlink:href="#me75a027616" x="294.771591" y="96.681356" style="fill: #808080; stroke: #808080"/>
     <use xlink:href="#me75a027616" x="186.271591" y="96.681356" style="fill: #808080; stroke: #808080"/>
     <use xlink:href="#me75a027616" x="284.907955" y="62.511864" style="fill: #808080; stroke: #808080"/>
     <use xlink:href="#me75a027616" x="275.044318" y="71.054237" style="fill: #808080; stroke: #808080"/>
     <use xlink:href="#me75a027616" x="275.044318" y="92.410169" style="fill: #808080; stroke: #808080"/>
     <use xlink:href="#me75a027616" x="235.589773" y="100.952542" style="fill: #808080; stroke: #808080"/>
     <use xlink:href="#me75a027616" x="255.317045" y="92.410169" style="fill: #808080; stroke: #808080"/>
     <use xlink:href="#me75a027616" x="225.726136" y="83.867797" style="fill: #808080; stroke: #808080"/>
     <use xlink:href="#me75a027616" x="196.135227" y="96.681356" style="fill: #808080; stroke: #808080"/>
    </g>
   </g>
   <g id="matplotlib.axis_1">
    <g id="xtick_1">
     <g id="line2d_1">
      <defs>
       <path id="m4f121a43a5" d="M 0 0 
L 0 3.5 
" style="stroke: #000000; stroke-width: 0.8"/>
      </defs>
      <g>
       <use xlink:href="#m4f121a43a5" x="58.044318" y="284.4" style="stroke: #000000; stroke-width: 0.8"/>
      </g>
     </g>
     <g id="text_1">
      <!-- 4.5 -->
      <g transform="translate(50.092756 298.998438) scale(0.1 -0.1)">
       <defs>
        <path id="DejaVuSans-34" d="M 2419 4116 
L 825 1625 
L 2419 1625 
L 2419 4116 
z
M 2253 4666 
L 3047 4666 
L 3047 1625 
L 3713 1625 
L 3713 1100 
L 3047 1100 
L 3047 0 
L 2419 0 
L 2419 1100 
L 313 1100 
L 313 1709 
L 2253 4666 
z
" transform="scale(0.015625)"/>
        <path id="DejaVuSans-2e" d="M 684 794 
L 1344 794 
L 1344 0 
L 684 0 
L 684 794 
z
" transform="scale(0.015625)"/>
        <path id="DejaVuSans-35" d="M 691 4666 
L 3169 4666 
L 3169 4134 
L 1269 4134 
L 1269 2991 
Q 1406 3038 1543 3061 
Q 1681 3084 1819 3084 
Q 2600 3084 3056 2656 
Q 3513 2228 3513 1497 
Q 3513 744 3044 326 
Q 2575 -91 1722 -91 
Q 1428 -91 1123 -41 
Q 819 9 494 109 
L 494 744 
Q 775 591 1075 516 
Q 1375 441 1709 441 
Q 2250 441 2565 725 
Q 2881 1009 2881 1497 
Q 2881 1984 2565 2268 
Q 2250 2553 1709 2553 
Q 1456 2553 1204 2497 
Q 953 2441 691 2322 
L 691 4666 
z
" transform="scale(0.015625)"/>
       </defs>
       <use xlink:href="#DejaVuSans-34"/>
       <use xlink:href="#DejaVuSans-2e" transform="translate(63.623047 0)"/>
       <use xlink:href="#DejaVuSans-35" transform="translate(95.410156 0)"/>
      </g>
     </g>
    </g>
    <g id="xtick_2">
     <g id="line2d_2">
      <g>
       <use xlink:href="#m4f121a43a5" x="107.3625" y="284.4" style="stroke: #000000; stroke-width: 0.8"/>
      </g>
     </g>
     <g id="text_2">
      <!-- 5.0 -->
      <g transform="translate(99.410938 298.998438) scale(0.1 -0.1)">
       <defs>
        <path id="DejaVuSans-30" d="M 2034 4250 
Q 1547 4250 1301 3770 
Q 1056 3291 1056 2328 
Q 1056 1369 1301 889 
Q 1547 409 2034 409 
Q 2525 409 2770 889 
Q 3016 1369 3016 2328 
Q 3016 3291 2770 3770 
Q 2525 4250 2034 4250 
z
M 2034 4750 
Q 2819 4750 3233 4129 
Q 3647 3509 3647 2328 
Q 3647 1150 3233 529 
Q 2819 -91 2034 -91 
Q 1250 -91 836 529 
Q 422 1150 422 2328 
Q 422 3509 836 4129 
Q 1250 4750 2034 4750 
z
" transform="scale(0.015625)"/>
       </defs>
       <use xlink:href="#DejaVuSans-35"/>
       <use xlink:href="#DejaVuSans-2e" transform="translate(63.623047 0)"/>
       <use xlink:href="#DejaVuSans-30" transform="translate(95.410156 0)"/>
      </g>
     </g>
    </g>
    <g id="xtick_3">
     <g id="line2d_3">
      <g>
       <use xlink:href="#m4f121a43a5" x="156.680682" y="284.4" style="stroke: #000000; stroke-width: 0.8"/>
      </g>
     </g>
     <g id="text_3">
      <!-- 5.5 -->
      <g transform="translate(148.729119 298.998438) scale(0.1 -0.1)">
       <use xlink:href="#DejaVuSans-35"/>
       <use xlink:href="#DejaVuSans-2e" transform="translate(63.623047 0)"/>
       <use xlink:href="#DejaVuSans-35" transform="translate(95.410156 0)"/>
      </g>
     </g>
    </g>
    <g id="xtick_4">
     <g id="line2d_4">
      <g>
       <use xlink:href="#m4f121a43a5" x="205.998864" y="284.4" style="stroke: #000000; stroke-width: 0.8"/>
      </g>
     </g>
     <g id="text_4">
      <!-- 6.0 -->
      <g transform="translate(198.047301 298.998438) scale(0.1 -0.1)">
       <defs>
        <path id="DejaVuSans-36" d="M 2113 2584 
Q 1688 2584 1439 2293 
Q 1191 2003 1191 1497 
Q 1191 994 1439 701 
Q 1688 409 2113 409 
Q 2538 409 2786 701 
Q 3034 994 3034 1497 
Q 3034 2003 2786 2293 
Q 2538 2584 2113 2584 
z
M 3366 4563 
L 3366 3988 
Q 3128 4100 2886 4159 
Q 2644 4219 2406 4219 
Q 1781 4219 1451 3797 
Q 1122 3375 1075 2522 
Q 1259 2794 1537 2939 
Q 1816 3084 2150 3084 
Q 2853 3084 3261 2657 
Q 3669 2231 3669 1497 
Q 3669 778 3244 343 
Q 2819 -91 2113 -91 
Q 1303 -91 875 529 
Q 447 1150 447 2328 
Q 447 3434 972 4092 
Q 1497 4750 2381 4750 
Q 2619 4750 2861 4703 
Q 3103 4656 3366 4563 
z
" transform="scale(0.015625)"/>
       </defs>
       <use xlink:href="#DejaVuSans-36"/>
       <use xlink:href="#DejaVuSans-2e" transform="translate(63.623047 0)"/>
       <use xlink:href="#DejaVuSans-30" transform="translate(95.410156 0)"/>
      </g>
     </g>
    </g>
    <g id="xtick_5">
     <g id="line2d_5">
      <g>
       <use xlink:href="#m4f121a43a5" x="255.317045" y="284.4" style="stroke: #000000; stroke-width: 0.8"/>
      </g>
     </g>
     <g id="text_5">
      <!-- 6.5 -->
      <g transform="translate(247.365483 298.998438) scale(0.1 -0.1)">
       <use xlink:href="#DejaVuSans-36"/>
       <use xlink:href="#DejaVuSans-2e" transform="translate(63.623047 0)"/>
       <use xlink:href="#DejaVuSans-35" transform="translate(95.410156 0)"/>
      </g>
     </g>
    </g>
    <g id="xtick_6">
     <g id="line2d_6">
      <g>
       <use xlink:href="#m4f121a43a5" x="304.635227" y="284.4" style="stroke: #000000; stroke-width: 0.8"/>
      </g>
     </g>
     <g id="text_6">
      <!-- 7.0 -->
      <g transform="translate(296.683665 298.998438) scale(0.1 -0.1)">
       <defs>
        <path id="DejaVuSans-37" d="M 525 4666 
L 3525 4666 
L 3525 4397 
L 1831 0 
L 1172 0 
L 2766 4134 
L 525 4134 
L 525 4666 
z
" transform="scale(0.015625)"/>
       </defs>
       <use xlink:href="#DejaVuSans-37"/>
       <use xlink:href="#DejaVuSans-2e" transform="translate(63.623047 0)"/>
       <use xlink:href="#DejaVuSans-30" transform="translate(95.410156 0)"/>
      </g>
     </g>
    </g>
    <g id="xtick_7">
     <g id="line2d_7">
      <g>
       <use xlink:href="#m4f121a43a5" x="353.953409" y="284.4" style="stroke: #000000; stroke-width: 0.8"/>
      </g>
     </g>
     <g id="text_7">
      <!-- 7.5 -->
      <g transform="translate(346.001847 298.998438) scale(0.1 -0.1)">
       <use xlink:href="#DejaVuSans-37"/>
       <use xlink:href="#DejaVuSans-2e" transform="translate(63.623047 0)"/>
       <use xlink:href="#DejaVuSans-35" transform="translate(95.410156 0)"/>
      </g>
     </g>
    </g>
    <g id="xtick_8">
     <g id="line2d_8">
      <g>
       <use xlink:href="#m4f121a43a5" x="403.271591" y="284.4" style="stroke: #000000; stroke-width: 0.8"/>
      </g>
     </g>
     <g id="text_8">
      <!-- 8.0 -->
      <g transform="translate(395.320028 298.998438) scale(0.1 -0.1)">
       <defs>
        <path id="DejaVuSans-38" d="M 2034 2216 
Q 1584 2216 1326 1975 
Q 1069 1734 1069 1313 
Q 1069 891 1326 650 
Q 1584 409 2034 409 
Q 2484 409 2743 651 
Q 3003 894 3003 1313 
Q 3003 1734 2745 1975 
Q 2488 2216 2034 2216 
z
M 1403 2484 
Q 997 2584 770 2862 
Q 544 3141 544 3541 
Q 544 4100 942 4425 
Q 1341 4750 2034 4750 
Q 2731 4750 3128 4425 
Q 3525 4100 3525 3541 
Q 3525 3141 3298 2862 
Q 3072 2584 2669 2484 
Q 3125 2378 3379 2068 
Q 3634 1759 3634 1313 
Q 3634 634 3220 271 
Q 2806 -91 2034 -91 
Q 1263 -91 848 271 
Q 434 634 434 1313 
Q 434 1759 690 2068 
Q 947 2378 1403 2484 
z
M 1172 3481 
Q 1172 3119 1398 2916 
Q 1625 2713 2034 2713 
Q 2441 2713 2670 2916 
Q 2900 3119 2900 3481 
Q 2900 3844 2670 4047 
Q 2441 4250 2034 4250 
Q 1625 4250 1398 4047 
Q 1172 3844 1172 3481 
z
" transform="scale(0.015625)"/>
       </defs>
       <use xlink:href="#DejaVuSans-38"/>
       <use xlink:href="#DejaVuSans-2e" transform="translate(63.623047 0)"/>
       <use xlink:href="#DejaVuSans-30" transform="translate(95.410156 0)"/>
      </g>
     </g>
    </g>
   </g>
   <g id="matplotlib.axis_2">
    <g id="ytick_1">
     <g id="line2d_9">
      <defs>
       <path id="m3f479e33fc" d="M 0 0 
L -3.5 0 
" style="stroke: #000000; stroke-width: 0.8"/>
      </defs>
      <g>
       <use xlink:href="#m3f479e33fc" x="20.5625" y="271.8" style="stroke: #000000; stroke-width: 0.8"/>
      </g>
     </g>
     <g id="text_9">
      <!-- 1 -->
      <g transform="translate(7.2 275.599219) scale(0.1 -0.1)">
       <defs>
        <path id="DejaVuSans-31" d="M 794 531 
L 1825 531 
L 1825 4091 
L 703 3866 
L 703 4441 
L 1819 4666 
L 2450 4666 
L 2450 531 
L 3481 531 
L 3481 0 
L 794 0 
L 794 531 
z
" transform="scale(0.015625)"/>
       </defs>
       <use xlink:href="#DejaVuSans-31"/>
      </g>
     </g>
    </g>
    <g id="ytick_2">
     <g id="line2d_10">
      <g>
       <use xlink:href="#m3f479e33fc" x="20.5625" y="229.088136" style="stroke: #000000; stroke-width: 0.8"/>
      </g>
     </g>
     <g id="text_10">
      <!-- 2 -->
      <g transform="translate(7.2 232.887354) scale(0.1 -0.1)">
       <defs>
        <path id="DejaVuSans-32" d="M 1228 531 
L 3431 531 
L 3431 0 
L 469 0 
L 469 531 
Q 828 903 1448 1529 
Q 2069 2156 2228 2338 
Q 2531 2678 2651 2914 
Q 2772 3150 2772 3378 
Q 2772 3750 2511 3984 
Q 2250 4219 1831 4219 
Q 1534 4219 1204 4116 
Q 875 4013 500 3803 
L 500 4441 
Q 881 4594 1212 4672 
Q 1544 4750 1819 4750 
Q 2544 4750 2975 4387 
Q 3406 4025 3406 3419 
Q 3406 3131 3298 2873 
Q 3191 2616 2906 2266 
Q 2828 2175 2409 1742 
Q 1991 1309 1228 531 
z
" transform="scale(0.015625)"/>
       </defs>
       <use xlink:href="#DejaVuSans-32"/>
      </g>
     </g>
    </g>
    <g id="ytick_3">
     <g id="line2d_11">
      <g>
       <use xlink:href="#m3f479e33fc" x="20.5625" y="186.376271" style="stroke: #000000; stroke-width: 0.8"/>
      </g>
     </g>
     <g id="text_11">
      <!-- 3 -->
      <g transform="translate(7.2 190.17549) scale(0.1 -0.1)">
       <defs>
        <path id="DejaVuSans-33" d="M 2597 2516 
Q 3050 2419 3304 2112 
Q 3559 1806 3559 1356 
Q 3559 666 3084 287 
Q 2609 -91 1734 -91 
Q 1441 -91 1130 -33 
Q 819 25 488 141 
L 488 750 
Q 750 597 1062 519 
Q 1375 441 1716 441 
Q 2309 441 2620 675 
Q 2931 909 2931 1356 
Q 2931 1769 2642 2001 
Q 2353 2234 1838 2234 
L 1294 2234 
L 1294 2753 
L 1863 2753 
Q 2328 2753 2575 2939 
Q 2822 3125 2822 3475 
Q 2822 3834 2567 4026 
Q 2313 4219 1838 4219 
Q 1578 4219 1281 4162 
Q 984 4106 628 3988 
L 628 4550 
Q 988 4650 1302 4700 
Q 1616 4750 1894 4750 
Q 2613 4750 3031 4423 
Q 3450 4097 3450 3541 
Q 3450 3153 3228 2886 
Q 3006 2619 2597 2516 
z
" transform="scale(0.015625)"/>
       </defs>
       <use xlink:href="#DejaVuSans-33"/>
      </g>
     </g>
    </g>
    <g id="ytick_4">
     <g id="line2d_12">
      <g>
       <use xlink:href="#m3f479e33fc" x="20.5625" y="143.664407" style="stroke: #000000; stroke-width: 0.8"/>
      </g>
     </g>
     <g id="text_12">
      <!-- 4 -->
      <g transform="translate(7.2 147.463626) scale(0.1 -0.1)">
       <use xlink:href="#DejaVuSans-34"/>
      </g>
     </g>
    </g>
    <g id="ytick_5">
     <g id="line2d_13">
      <g>
       <use xlink:href="#m3f479e33fc" x="20.5625" y="100.952542" style="stroke: #000000; stroke-width: 0.8"/>
      </g>
     </g>
     <g id="text_13">
      <!-- 5 -->
      <g transform="translate(7.2 104.751761) scale(0.1 -0.1)">
       <use xlink:href="#DejaVuSans-35"/>
      </g>
     </g>
    </g>
    <g id="ytick_6">
     <g id="line2d_14">
      <g>
       <use xlink:href="#m3f479e33fc" x="20.5625" y="58.240678" style="stroke: #000000; stroke-width: 0.8"/>
      </g>
     </g>
     <g id="text_14">
      <!-- 6 -->
      <g transform="translate(7.2 62.039897) scale(0.1 -0.1)">
       <use xlink:href="#DejaVuSans-36"/>
      </g>
     </g>
    </g>
    <g id="ytick_7">
     <g id="line2d_15">
      <g>
       <use xlink:href="#m3f479e33fc" x="20.5625" y="15.528814" style="stroke: #000000; stroke-width: 0.8"/>
      </g>
     </g>
     <g id="text_15">
      <!-- 7 -->
      <g transform="translate(7.2 19.328032) scale(0.1 -0.1)">
       <use xlink:href="#DejaVuSans-37"/>
      </g>
     </g>
    </g>
   </g>
   <g id="patch_3">
    <path d="M 20.5625 284.4 
L 20.5625 7.2 
" style="fill: none; stroke: #000000; stroke-width: 0.8; stroke-linejoin: miter; stroke-linecap: square"/>
   </g>
   <g id="patch_4">
    <path d="M 411.1625 284.4 
L 411.1625 7.2 
" style="fill: none; stroke: #000000; stroke-width: 0.8; stroke-linejoin: miter; stroke-linecap: square"/>
   </g>
   <g id="patch_5">
    <path d="M 20.5625 284.4 
L 411.1625 284.4 
" style="fill: none; stroke: #000000; stroke-width: 0.8; stroke-linejoin: miter; stroke-linecap: square"/>
   </g>
   <g id="patch_6">
    <path d="M 20.5625 7.2 
L 411.1625 7.2 
" style="fill: none; stroke: #000000; stroke-width: 0.8; stroke-linejoin: miter; stroke-linecap: square"/>
   </g>
  </g>
 </g>
 <defs>
  <clipPath id="p36eb9cc987">
   <rect x="20.5625" y="7.2" width="390.6" height="277.2"/>
  </clipPath>
 </defs>
</svg>
