<?xml version="1.0" encoding="utf-8" standalone="no"?>
<!DOCTYPE svg PUBLIC "-//W3C//DTD SVG 1.1//EN"
  "http://www.w3.org/Graphics/SVG/1.1/DTD/svg11.dtd">
<svg xmlns:xlink="http://www.w3.org/1999/xlink" width="449.960938pt" height="321.95625pt" viewBox="0 0 449.960938 321.95625" xmlns="http://www.w3.org/2000/svg" version="1.1">
 <metadata>
  <rdf:RDF xmlns:dc="http://purl.org/dc/elements/1.1/" xmlns:cc="http://creativecommons.org/ns#" xmlns:rdf="http://www.w3.org/1999/02/22-rdf-syntax-ns#">
   <cc:Work>
    <dc:type rdf:resource="http://purl.org/dc/dcmitype/StillImage"/>
    <dc:date>2025-05-05T12:00:04.706084</dc:date>
    <dc:format>image/svg+xml</dc:format>
    <dc:creator>
     <cc:Agent>
      <dc:title>Matplotlib v3.10.0, https://matplotlib.org/</dc:title>
     </cc:Agent>
    </dc:creator>
   </cc:Work>
  </rdf:RDF>
 </metadata>
 <defs>
  <style type="text/css">*{stroke-linejoin: round; stroke-linecap: butt}</style>
 </defs>
 <g id="figure_1">
  <g id="patch_1">
   <path d="M 0 321.95625 
L 449.960938 321.95625 
L 449.960938 0 
L 0 0 
z
" style="fill: #ffffff"/>
  </g>
  <g id="axes_1">
   <g id="patch_2">
    <path d="M 52.160938 284.4 
L 442.760938 284.4 
L 442.760938 7.2 
L 52.160938 7.2 
z
" style="fill: #ffffff"/>
   </g>
   <g id="PathCollection_1">
    <defs>
     <path id="m717344b63d" d="M 0 3 
C 0.795609 3 1.55874 2.683901 2.12132 2.12132 
C 2.683901 1.55874 3 0.795609 3 0 
C 3 -0.795609 2.683901 -1.55874 2.12132 -2.12132 
C 1.55874 -2.683901 0.795609 -3 0 -3 
C -0.795609 -3 -1.55874 -2.683901 -2.12132 -2.12132 
C -2.683901 -1.55874 -3 -0.795609 -3 0 
C -3 0.795609 -2.683901 1.55874 -2.12132 2.12132 
C -1.55874 2.683901 -0.795609 3 0 3 
z
" style="stroke: #1f77b4"/>
    </defs>
    <g clip-path="url(#p2cbb92f5a1)">
     <use xlink:href="#m717344b63d" x="97.216029" y="171.122812" style="fill: #1f77b4; stroke: #1f77b4"/>
     <use xlink:href="#m717344b63d" x="95.697615" y="123.741768" style="fill: #1f77b4; stroke: #1f77b4"/>
     <use xlink:href="#m717344b63d" x="86.852583" y="126.8011" style="fill: #1f77b4; stroke: #1f77b4"/>
     <use xlink:href="#m717344b63d" x="94.11925" y="110.254951" style="fill: #1f77b4; stroke: #1f77b4"/>
     <use xlink:href="#m717344b63d" x="94.960321" y="171.82506" style="fill: #1f77b4; stroke: #1f77b4"/>
     <use xlink:href="#m717344b63d" x="117.615933" y="211.396175" style="fill: #1f77b4; stroke: #1f77b4"/>
     <use xlink:href="#m717344b63d" x="90.315387" y="132.097412" style="fill: #1f77b4; stroke: #1f77b4"/>
     <use xlink:href="#m717344b63d" x="100.14908" y="156.231499" style="fill: #1f77b4; stroke: #1f77b4"/>
     <use xlink:href="#m717344b63d" x="86.984505" y="85.436831" style="fill: #1f77b4; stroke: #1f77b4"/>
     <use xlink:href="#m717344b63d" x="97.791191" y="129.776759" style="fill: #1f77b4; stroke: #1f77b4"/>
     <use xlink:href="#m717344b63d" x="106.17891" y="202.208047" style="fill: #1f77b4; stroke: #1f77b4"/>
     <use xlink:href="#m717344b63d" x="100.826423" y="142.042434" style="fill: #1f77b4; stroke: #1f77b4"/>
     <use xlink:href="#m717344b63d" x="92.057011" y="118.195116" style="fill: #1f77b4; stroke: #1f77b4"/>
     <use xlink:href="#m717344b63d" x="69.915483" y="91.824049" style="fill: #1f77b4; stroke: #1f77b4"/>
     <use xlink:href="#m717344b63d" x="99.207893" y="253.149102" style="fill: #1f77b4; stroke: #1f77b4"/>
     <use xlink:href="#m717344b63d" x="112.295252" y="268.354006" style="fill: #1f77b4; stroke: #1f77b4"/>
     <use xlink:href="#m717344b63d" x="100.28147" y="218.015517" style="fill: #1f77b4; stroke: #1f77b4"/>
     <use xlink:href="#m717344b63d" x="99.028496" y="170.402349" style="fill: #1f77b4; stroke: #1f77b4"/>
     <use xlink:href="#m717344b63d" x="121.715445" y="223.94862" style="fill: #1f77b4; stroke: #1f77b4"/>
     <use xlink:href="#m717344b63d" x="102.079397" y="189.655602" style="fill: #1f77b4; stroke: #1f77b4"/>
     <use xlink:href="#m717344b63d" x="116.128856" y="177.990287" style="fill: #1f77b4; stroke: #1f77b4"/>
     <use xlink:href="#m717344b63d" x="104.319436" y="181.965776" style="fill: #1f77b4; stroke: #1f77b4"/>
     <use xlink:href="#m717344b63d" x="70.313314" y="153.375943" style="fill: #1f77b4; stroke: #1f77b4"/>
     <use xlink:href="#m717344b63d" x="116.509422" y="150.058189" style="fill: #1f77b4; stroke: #1f77b4"/>
     <use xlink:href="#m717344b63d" x="113.82727" y="137.077928" style="fill: #1f77b4; stroke: #1f77b4"/>
     <use xlink:href="#m717344b63d" x="106.192982" y="126.699211" style="fill: #1f77b4; stroke: #1f77b4"/>
     <use xlink:href="#m717344b63d" x="108.10763" y="153.135737" style="fill: #1f77b4; stroke: #1f77b4"/>
     <use xlink:href="#m717344b63d" x="103.377781" y="175.735092" style="fill: #1f77b4; stroke: #1f77b4"/>
     <use xlink:href="#m717344b63d" x="99.471737" y="170.420564" style="fill: #1f77b4; stroke: #1f77b4"/>
     <use xlink:href="#m717344b63d" x="99.85343" y="121.836593" style="fill: #1f77b4; stroke: #1f77b4"/>
     <use xlink:href="#m717344b63d" x="102.109138" y="121.134345" style="fill: #1f77b4; stroke: #1f77b4"/>
     <use xlink:href="#m717344b63d" x="111.08656" y="179.859031" style="fill: #1f77b4; stroke: #1f77b4"/>
     <use xlink:href="#m717344b63d" x="98.999883" y="218.271733" style="fill: #1f77b4; stroke: #1f77b4"/>
     <use xlink:href="#m717344b63d" x="101.535572" y="244.976812" style="fill: #1f77b4; stroke: #1f77b4"/>
     <use xlink:href="#m717344b63d" x="99.603659" y="129.056295" style="fill: #1f77b4; stroke: #1f77b4"/>
     <use xlink:href="#m717344b63d" x="88.003376" y="147.257279" style="fill: #1f77b4; stroke: #1f77b4"/>
     <use xlink:href="#m717344b63d" x="100.194958" y="197.846107" style="fill: #1f77b4; stroke: #1f77b4"/>
     <use xlink:href="#m717344b63d" x="91.319717" y="166.278409" style="fill: #1f77b4; stroke: #1f77b4"/>
     <use xlink:href="#m717344b63d" x="82.223318" y="94.061029" style="fill: #1f77b4; stroke: #1f77b4"/>
     <use xlink:href="#m717344b63d" x="101.977216" y="162.498614" style="fill: #1f77b4; stroke: #1f77b4"/>
     <use xlink:href="#m717344b63d" x="92.866744" y="165.790069" style="fill: #1f77b4; stroke: #1f77b4"/>
     <use xlink:href="#m717344b63d" x="88.856923" y="50.822139" style="fill: #1f77b4; stroke: #1f77b4"/>
     <use xlink:href="#m717344b63d" x="81.368175" y="107.999755" style="fill: #1f77b4; stroke: #1f77b4"/>
     <use xlink:href="#m717344b63d" x="111.304994" y="158.664173" style="fill: #1f77b4; stroke: #1f77b4"/>
     <use xlink:href="#m717344b63d" x="121.226327" y="182.315797" style="fill: #1f77b4; stroke: #1f77b4"/>
     <use xlink:href="#m717344b63d" x="95.681946" y="116.754189" style="fill: #1f77b4; stroke: #1f77b4"/>
     <use xlink:href="#m717344b63d" x="104.600545" y="188.72123" style="fill: #1f77b4; stroke: #1f77b4"/>
     <use xlink:href="#m717344b63d" x="89.358063" y="118.879149" style="fill: #1f77b4; stroke: #1f77b4"/>
     <use xlink:href="#m717344b63d" x="104.350773" y="195.940932" style="fill: #1f77b4; stroke: #1f77b4"/>
     <use xlink:href="#m717344b63d" x="96.243036" y="150.916971" style="fill: #1f77b4; stroke: #1f77b4"/>
    </g>
   </g>
   <g id="PathCollection_2">
    <defs>
     <path id="m530cbe1479" d="M 0 3 
C 0.795609 3 1.55874 2.683901 2.12132 2.12132 
C 2.683901 1.55874 3 0.795609 3 0 
C 3 -0.795609 2.683901 -1.55874 2.12132 -2.12132 
C 1.55874 -2.683901 0.795609 -3 0 -3 
C -0.795609 -3 -1.55874 -2.683901 -2.12132 -2.12132 
C -2.683901 -1.55874 -3 -0.795609 -3 0 
C -3 0.795609 -2.683901 1.55874 -2.12132 2.12132 
C -1.55874 2.683901 -0.795609 3 0 3 
z
" style="stroke: #ff7f0e"/>
    </defs>
    <g clip-path="url(#p2cbb92f5a1)">
     <use xlink:href="#m530cbe1479" x="297.992257" y="206.034772" style="fill: #ff7f0e; stroke: #ff7f0e"/>
     <use xlink:href="#m530cbe1479" x="280.168676" y="171.021291" style="fill: #ff7f0e; stroke: #ff7f0e"/>
     <use xlink:href="#m530cbe1479" x="307.071392" y="188.76816" style="fill: #ff7f0e; stroke: #ff7f0e"/>
     <use xlink:href="#m530cbe1479" x="242.270582" y="61.608095" style="fill: #ff7f0e; stroke: #ff7f0e"/>
     <use xlink:href="#m530cbe1479" x="288.040715" y="147.756118" style="fill: #ff7f0e; stroke: #ff7f0e"/>
     <use xlink:href="#m530cbe1479" x="265.457074" y="100.714963" style="fill: #ff7f0e; stroke: #ff7f0e"/>
     <use xlink:href="#m530cbe1479" x="288.392667" y="167.693405" style="fill: #ff7f0e; stroke: #ff7f0e"/>
     <use xlink:href="#m530cbe1479" x="195.101481" y="44.720008" style="fill: #ff7f0e; stroke: #ff7f0e"/>
     <use xlink:href="#m530cbe1479" x="285.816344" y="162.433523" style="fill: #ff7f0e; stroke: #ff7f0e"/>
     <use xlink:href="#m530cbe1479" x="232.554739" y="71.618575" style="fill: #ff7f0e; stroke: #ff7f0e"/>
     <use xlink:href="#m530cbe1479" x="207.307136" y="19.8" style="fill: #ff7f0e; stroke: #ff7f0e"/>
     <use xlink:href="#m530cbe1479" x="258.882292" y="130.711498" style="fill: #ff7f0e; stroke: #ff7f0e"/>
     <use xlink:href="#m530cbe1479" x="246.401432" y="88.135696" style="fill: #ff7f0e; stroke: #ff7f0e"/>
     <use xlink:href="#m530cbe1479" x="282.821746" y="128.72265" style="fill: #ff7f0e; stroke: #ff7f0e"/>
     <use xlink:href="#m530cbe1479" x="224.198826" y="116.31073" style="fill: #ff7f0e; stroke: #ff7f0e"/>
     <use xlink:href="#m530cbe1479" x="279.934574" y="185.228571" style="fill: #ff7f0e; stroke: #ff7f0e"/>
     <use xlink:href="#m530cbe1479" x="266.39873" y="106.945647" style="fill: #ff7f0e; stroke: #ff7f0e"/>
     <use xlink:href="#m530cbe1479" x="244.940917" y="108.793447" style="fill: #ff7f0e; stroke: #ff7f0e"/>
     <use xlink:href="#m530cbe1479" x="280.788121" y="88.793431" style="fill: #ff7f0e; stroke: #ff7f0e"/>
     <use xlink:href="#m530cbe1479" x="235.285024" y="84.909698" style="fill: #ff7f0e; stroke: #ff7f0e"/>
     <use xlink:href="#m530cbe1479" x="289.466245" y="132.559821" style="fill: #ff7f0e; stroke: #ff7f0e"/>
     <use xlink:href="#m530cbe1479" x="251.101541" y="134.057599" style="fill: #ff7f0e; stroke: #ff7f0e"/>
     <use xlink:href="#m530cbe1479" x="298.668004" y="109.349293" style="fill: #ff7f0e; stroke: #ff7f0e"/>
     <use xlink:href="#m530cbe1479" x="279.624383" y="123.194214" style="fill: #ff7f0e; stroke: #ff7f0e"/>
     <use xlink:href="#m530cbe1479" x="269.159225" y="154.8638" style="fill: #ff7f0e; stroke: #ff7f0e"/>
     <use xlink:href="#m530cbe1479" x="278.534009" y="171.992094" style="fill: #ff7f0e; stroke: #ff7f0e"/>
     <use xlink:href="#m530cbe1479" x="300.379887" y="163.968255" style="fill: #ff7f0e; stroke: #ff7f0e"/>
     <use xlink:href="#m530cbe1479" x="311.801241" y="166.168805" style="fill: #ff7f0e; stroke: #ff7f0e"/>
     <use xlink:href="#m530cbe1479" x="274.138846" y="125.044743" style="fill: #ff7f0e; stroke: #ff7f0e"/>
     <use xlink:href="#m530cbe1479" x="217.538659" y="105.485981" style="fill: #ff7f0e; stroke: #ff7f0e"/>
     <use xlink:href="#m530cbe1479" x="229.550844" y="73.328056" style="fill: #ff7f0e; stroke: #ff7f0e"/>
     <use xlink:href="#m530cbe1479" x="223.404761" y="75.703355" style="fill: #ff7f0e; stroke: #ff7f0e"/>
     <use xlink:href="#m530cbe1479" x="239.898621" y="110.662191" style="fill: #ff7f0e; stroke: #ff7f0e"/>
     <use xlink:href="#m530cbe1479" x="302.808151" y="100.456541" style="fill: #ff7f0e; stroke: #ff7f0e"/>
     <use xlink:href="#m530cbe1479" x="262.742457" y="94.411418" style="fill: #ff7f0e; stroke: #ff7f0e"/>
     <use xlink:href="#m530cbe1479" x="273.813456" y="159.171095" style="fill: #ff7f0e; stroke: #ff7f0e"/>
     <use xlink:href="#m530cbe1479" x="294.747888" y="179.543602" style="fill: #ff7f0e; stroke: #ff7f0e"/>
     <use xlink:href="#m530cbe1479" x="274.230135" y="105.125672" style="fill: #ff7f0e; stroke: #ff7f0e"/>
     <use xlink:href="#m530cbe1479" x="245.439332" y="115.005916" style="fill: #ff7f0e; stroke: #ff7f0e"/>
     <use xlink:href="#m530cbe1479" x="241.415439" y="75.546821" style="fill: #ff7f0e; stroke: #ff7f0e"/>
     <use xlink:href="#m530cbe1479" x="256.509862" y="76.617306" style="fill: #ff7f0e; stroke: #ff7f0e"/>
     <use xlink:href="#m530cbe1479" x="278.060559" y="137.346849" style="fill: #ff7f0e; stroke: #ff7f0e"/>
     <use xlink:href="#m530cbe1479" x="244.659808" y="102.037992" style="fill: #ff7f0e; stroke: #ff7f0e"/>
     <use xlink:href="#m530cbe1479" x="197.357189" y="44.01776" style="fill: #ff7f0e; stroke: #ff7f0e"/>
     <use xlink:href="#m530cbe1479" x="251.055663" y="92.442991" style="fill: #ff7f0e; stroke: #ff7f0e"/>
     <use xlink:href="#m530cbe1479" x="249.788617" y="120.338659" style="fill: #ff7f0e; stroke: #ff7f0e"/>
     <use xlink:href="#m530cbe1479" x="252.028656" y="112.648832" style="fill: #ff7f0e; stroke: #ff7f0e"/>
     <use xlink:href="#m530cbe1479" x="265.502953" y="142.32957" style="fill: #ff7f0e; stroke: #ff7f0e"/>
     <use xlink:href="#m530cbe1479" x="187.141803" y="68.467644" style="fill: #ff7f0e; stroke: #ff7f0e"/>
     <use xlink:href="#m530cbe1479" x="248.122612" y="107.334304" style="fill: #ff7f0e; stroke: #ff7f0e"/>
    </g>
   </g>
   <g id="PathCollection_3">
    <defs>
     <path id="mbb74624a94" d="M 0 3 
C 0.795609 3 1.55874 2.683901 2.12132 2.12132 
C 2.683901 1.55874 3 0.795609 3 0 
C 3 -0.795609 2.683901 -1.55874 2.12132 -2.12132 
C 1.55874 -2.683901 0.795609 -3 0 -3 
C -0.795609 -3 -1.55874 -2.683901 -2.12132 -2.12132 
C -2.683901 -1.55874 -3 -0.795609 -3 0 
C -3 0.795609 -2.683901 1.55874 -2.12132 2.12132 
C -1.55874 2.683901 -0.795609 3 0 3 
z
" style="stroke: #2ca02c"/>
    </defs>
    <g clip-path="url(#p2cbb92f5a1)">
     <use xlink:href="#mbb74624a94" x="361.041878" y="139.696373" style="fill: #2ca02c; stroke: #2ca02c"/>
     <use xlink:href="#mbb74624a94" x="304.589281" y="85.760921" style="fill: #2ca02c; stroke: #2ca02c"/>
     <use xlink:href="#mbb74624a94" x="365.366197" y="173.461891" style="fill: #2ca02c; stroke: #2ca02c"/>
     <use xlink:href="#mbb74624a94" x="332.730429" y="123.481507" style="fill: #2ca02c; stroke: #2ca02c"/>
     <use xlink:href="#mbb74624a94" x="351.876231" y="136.793575" style="fill: #2ca02c; stroke: #2ca02c"/>
     <use xlink:href="#mbb74624a94" x="404.842187" y="193.213617" style="fill: #2ca02c; stroke: #2ca02c"/>
     <use xlink:href="#mbb74624a94" x="259.36457" y="26.788102" style="fill: #2ca02c; stroke: #2ca02c"/>
     <use xlink:href="#mbb74624a94" x="381.347101" y="174.568807" style="fill: #2ca02c; stroke: #2ca02c"/>
     <use xlink:href="#mbb74624a94" x="350.420492" y="117.362843" style="fill: #2ca02c; stroke: #2ca02c"/>
     <use xlink:href="#mbb74624a94" x="380.546004" y="215.35366" style="fill: #2ca02c; stroke: #2ca02c"/>
     <use xlink:href="#mbb74624a94" x="317.060844" y="163.757076" style="fill: #2ca02c; stroke: #2ca02c"/>
     <use xlink:href="#mbb74624a94" x="324.22533" y="120.053939" style="fill: #2ca02c; stroke: #2ca02c"/>
     <use xlink:href="#mbb74624a94" x="342.547326" y="161.279889" style="fill: #2ca02c; stroke: #2ca02c"/>
     <use xlink:href="#mbb74624a94" x="301.09514" y="66.489452" style="fill: #2ca02c; stroke: #2ca02c"/>
     <use xlink:href="#mbb74624a94" x="313.224047" y="89.127967" style="fill: #2ca02c; stroke: #2ca02c"/>
     <use xlink:href="#mbb74624a94" x="329.337341" y="152.0189" style="fill: #2ca02c; stroke: #2ca02c"/>
     <use xlink:href="#mbb74624a94" x="331.625515" y="144.639935" style="fill: #2ca02c; stroke: #2ca02c"/>
     <use xlink:href="#mbb74624a94" x="409.395833" y="252.860337" style="fill: #2ca02c; stroke: #2ca02c"/>
     <use xlink:href="#mbb74624a94" x="425.006392" y="165.197847" style="fill: #2ca02c; stroke: #2ca02c"/>
     <use xlink:href="#mbb74624a94" x="298.799926" y="67.985025" style="fill: #2ca02c; stroke: #2ca02c"/>
     <use xlink:href="#mbb74624a94" x="355.812485" y="176.735132" style="fill: #2ca02c; stroke: #2ca02c"/>
     <use xlink:href="#mbb74624a94" x="293.650673" y="82.785262" style="fill: #2ca02c; stroke: #2ca02c"/>
     <use xlink:href="#mbb74624a94" x="410.046615" y="184.607634" style="fill: #2ca02c; stroke: #2ca02c"/>
     <use xlink:href="#mbb74624a94" x="303.250263" y="121.126629" style="fill: #2ca02c; stroke: #2ca02c"/>
     <use xlink:href="#mbb74624a94" x="348.103706" y="172.611192" style="fill: #2ca02c; stroke: #2ca02c"/>
     <use xlink:href="#mbb74624a94" x="365.235403" y="194.174287" style="fill: #2ca02c; stroke: #2ca02c"/>
     <use xlink:href="#mbb74624a94" x="296.66094" y="123.483713" style="fill: #2ca02c; stroke: #2ca02c"/>
     <use xlink:href="#mbb74624a94" x="298.311276" y="129.500489" style="fill: #2ca02c; stroke: #2ca02c"/>
     <use xlink:href="#mbb74624a94" x="340.42354" y="120.617868" style="fill: #2ca02c; stroke: #2ca02c"/>
     <use xlink:href="#mbb74624a94" x="353.79838" y="184.986159" style="fill: #2ca02c; stroke: #2ca02c"/>
     <use xlink:href="#mbb74624a94" x="376.748045" y="176.455766" style="fill: #2ca02c; stroke: #2ca02c"/>
     <use xlink:href="#mbb74624a94" x="396.426324" y="271.8" style="fill: #2ca02c; stroke: #2ca02c"/>
     <use xlink:href="#mbb74624a94" x="342.236007" y="119.897405" style="fill: #2ca02c; stroke: #2ca02c"/>
     <use xlink:href="#mbb74624a94" x="306.05252" y="126.947712" style="fill: #2ca02c; stroke: #2ca02c"/>
     <use xlink:href="#mbb74624a94" x="323.107002" y="92.921042" style="fill: #2ca02c; stroke: #2ca02c"/>
     <use xlink:href="#mbb74624a94" x="388.627181" y="206.313982" style="fill: #2ca02c; stroke: #2ca02c"/>
     <use xlink:href="#mbb74624a94" x="341.467376" y="154.005541" style="fill: #2ca02c; stroke: #2ca02c"/>
     <use xlink:href="#mbb74624a94" x="329.369807" y="145.342183" style="fill: #2ca02c; stroke: #2ca02c"/>
     <use xlink:href="#mbb74624a94" x="292.149524" y="124.888209" style="fill: #2ca02c; stroke: #2ca02c"/>
     <use xlink:href="#mbb74624a94" x="339.614275" y="176.171202" style="fill: #2ca02c; stroke: #2ca02c"/>
     <use xlink:href="#mbb74624a94" x="350.062636" y="158.165911" style="fill: #2ca02c; stroke: #2ca02c"/>
     <use xlink:href="#mbb74624a94" x="330.238363" y="179.694782" style="fill: #2ca02c; stroke: #2ca02c"/>
     <use xlink:href="#mbb74624a94" x="304.589281" y="85.760921" style="fill: #2ca02c; stroke: #2ca02c"/>
     <use xlink:href="#mbb74624a94" x="362.65158" y="167.158346" style="fill: #2ca02c; stroke: #2ca02c"/>
     <use xlink:href="#mbb74624a94" x="355.353576" y="169.729339" style="fill: #2ca02c; stroke: #2ca02c"/>
     <use xlink:href="#mbb74624a94" x="331.343278" y="158.536354" style="fill: #2ca02c; stroke: #2ca02c"/>
     <use xlink:href="#mbb74624a94" x="310.25149" y="104.812604" style="fill: #2ca02c; stroke: #2ca02c"/>
     <use xlink:href="#mbb74624a94" x="322.249603" y="148.163515" style="fill: #2ca02c; stroke: #2ca02c"/>
     <use xlink:href="#mbb74624a94" x="329.159541" y="151.768561" style="fill: #2ca02c; stroke: #2ca02c"/>
     <use xlink:href="#mbb74624a94" x="303.322235" y="113.656588" style="fill: #2ca02c; stroke: #2ca02c"/>
    </g>
   </g>
   <g id="matplotlib.axis_1">
    <g id="xtick_1">
     <g id="line2d_1">
      <defs>
       <path id="m19cfe162f4" d="M 0 0 
L 0 3.5 
" style="stroke: #000000; stroke-width: 0.8"/>
      </defs>
      <g>
       <use xlink:href="#m19cfe162f4" x="81.23698" y="284.4" style="stroke: #000000; stroke-width: 0.8"/>
      </g>
     </g>
     <g id="text_1">
      <!-- −3 -->
      <g transform="translate(73.865887 298.998438) scale(0.1 -0.1)">
       <defs>
        <path id="DejaVuSans-2212" d="M 678 2272 
L 4684 2272 
L 4684 1741 
L 678 1741 
L 678 2272 
z
" transform="scale(0.015625)"/>
        <path id="DejaVuSans-33" d="M 2597 2516 
Q 3050 2419 3304 2112 
Q 3559 1806 3559 1356 
Q 3559 666 3084 287 
Q 2609 -91 1734 -91 
Q 1441 -91 1130 -33 
Q 819 25 488 141 
L 488 750 
Q 750 597 1062 519 
Q 1375 441 1716 441 
Q 2309 441 2620 675 
Q 2931 909 2931 1356 
Q 2931 1769 2642 2001 
Q 2353 2234 1838 2234 
L 1294 2234 
L 1294 2753 
L 1863 2753 
Q 2328 2753 2575 2939 
Q 2822 3125 2822 3475 
Q 2822 3834 2567 4026 
Q 2313 4219 1838 4219 
Q 1578 4219 1281 4162 
Q 984 4106 628 3988 
L 628 4550 
Q 988 4650 1302 4700 
Q 1616 4750 1894 4750 
Q 2613 4750 3031 4423 
Q 3450 4097 3450 3541 
Q 3450 3153 3228 2886 
Q 3006 2619 2597 2516 
z
" transform="scale(0.015625)"/>
       </defs>
       <use xlink:href="#DejaVuSans-2212"/>
       <use xlink:href="#DejaVuSans-33" transform="translate(83.789062 0)"/>
      </g>
     </g>
    </g>
    <g id="xtick_2">
     <g id="line2d_2">
      <g>
       <use xlink:href="#m19cfe162f4" x="131.8237" y="284.4" style="stroke: #000000; stroke-width: 0.8"/>
      </g>
     </g>
     <g id="text_2">
      <!-- −2 -->
      <g transform="translate(124.452606 298.998438) scale(0.1 -0.1)">
       <defs>
        <path id="DejaVuSans-32" d="M 1228 531 
L 3431 531 
L 3431 0 
L 469 0 
L 469 531 
Q 828 903 1448 1529 
Q 2069 2156 2228 2338 
Q 2531 2678 2651 2914 
Q 2772 3150 2772 3378 
Q 2772 3750 2511 3984 
Q 2250 4219 1831 4219 
Q 1534 4219 1204 4116 
Q 875 4013 500 3803 
L 500 4441 
Q 881 4594 1212 4672 
Q 1544 4750 1819 4750 
Q 2544 4750 2975 4387 
Q 3406 4025 3406 3419 
Q 3406 3131 3298 2873 
Q 3191 2616 2906 2266 
Q 2828 2175 2409 1742 
Q 1991 1309 1228 531 
z
" transform="scale(0.015625)"/>
       </defs>
       <use xlink:href="#DejaVuSans-2212"/>
       <use xlink:href="#DejaVuSans-32" transform="translate(83.789062 0)"/>
      </g>
     </g>
    </g>
    <g id="xtick_3">
     <g id="line2d_3">
      <g>
       <use xlink:href="#m19cfe162f4" x="182.41042" y="284.4" style="stroke: #000000; stroke-width: 0.8"/>
      </g>
     </g>
     <g id="text_3">
      <!-- −1 -->
      <g transform="translate(175.039326 298.998438) scale(0.1 -0.1)">
       <defs>
        <path id="DejaVuSans-31" d="M 794 531 
L 1825 531 
L 1825 4091 
L 703 3866 
L 703 4441 
L 1819 4666 
L 2450 4666 
L 2450 531 
L 3481 531 
L 3481 0 
L 794 0 
L 794 531 
z
" transform="scale(0.015625)"/>
       </defs>
       <use xlink:href="#DejaVuSans-2212"/>
       <use xlink:href="#DejaVuSans-31" transform="translate(83.789062 0)"/>
      </g>
     </g>
    </g>
    <g id="xtick_4">
     <g id="line2d_4">
      <g>
       <use xlink:href="#m19cfe162f4" x="232.99714" y="284.4" style="stroke: #000000; stroke-width: 0.8"/>
      </g>
     </g>
     <g id="text_4">
      <!-- 0 -->
      <g transform="translate(229.81589 298.998438) scale(0.1 -0.1)">
       <defs>
        <path id="DejaVuSans-30" d="M 2034 4250 
Q 1547 4250 1301 3770 
Q 1056 3291 1056 2328 
Q 1056 1369 1301 889 
Q 1547 409 2034 409 
Q 2525 409 2770 889 
Q 3016 1369 3016 2328 
Q 3016 3291 2770 3770 
Q 2525 4250 2034 4250 
z
M 2034 4750 
Q 2819 4750 3233 4129 
Q 3647 3509 3647 2328 
Q 3647 1150 3233 529 
Q 2819 -91 2034 -91 
Q 1250 -91 836 529 
Q 422 1150 422 2328 
Q 422 3509 836 4129 
Q 1250 4750 2034 4750 
z
" transform="scale(0.015625)"/>
       </defs>
       <use xlink:href="#DejaVuSans-30"/>
      </g>
     </g>
    </g>
    <g id="xtick_5">
     <g id="line2d_5">
      <g>
       <use xlink:href="#m19cfe162f4" x="283.58386" y="284.4" style="stroke: #000000; stroke-width: 0.8"/>
      </g>
     </g>
     <g id="text_5">
      <!-- 1 -->
      <g transform="translate(280.40261 298.998438) scale(0.1 -0.1)">
       <use xlink:href="#DejaVuSans-31"/>
      </g>
     </g>
    </g>
    <g id="xtick_6">
     <g id="line2d_6">
      <g>
       <use xlink:href="#m19cfe162f4" x="334.17058" y="284.4" style="stroke: #000000; stroke-width: 0.8"/>
      </g>
     </g>
     <g id="text_6">
      <!-- 2 -->
      <g transform="translate(330.98933 298.998438) scale(0.1 -0.1)">
       <use xlink:href="#DejaVuSans-32"/>
      </g>
     </g>
    </g>
    <g id="xtick_7">
     <g id="line2d_7">
      <g>
       <use xlink:href="#m19cfe162f4" x="384.7573" y="284.4" style="stroke: #000000; stroke-width: 0.8"/>
      </g>
     </g>
     <g id="text_7">
      <!-- 3 -->
      <g transform="translate(381.57605 298.998438) scale(0.1 -0.1)">
       <use xlink:href="#DejaVuSans-33"/>
      </g>
     </g>
    </g>
    <g id="xtick_8">
     <g id="line2d_8">
      <g>
       <use xlink:href="#m19cfe162f4" x="435.34402" y="284.4" style="stroke: #000000; stroke-width: 0.8"/>
      </g>
     </g>
     <g id="text_8">
      <!-- 4 -->
      <g transform="translate(432.16277 298.998438) scale(0.1 -0.1)">
       <defs>
        <path id="DejaVuSans-34" d="M 2419 4116 
L 825 1625 
L 2419 1625 
L 2419 4116 
z
M 2253 4666 
L 3047 4666 
L 3047 1625 
L 3713 1625 
L 3713 1100 
L 3047 1100 
L 3047 0 
L 2419 0 
L 2419 1100 
L 313 1100 
L 313 1709 
L 2253 4666 
z
" transform="scale(0.015625)"/>
       </defs>
       <use xlink:href="#DejaVuSans-34"/>
      </g>
     </g>
    </g>
    <g id="text_9">
     <!-- $PC_1$ -->
     <g transform="translate(238.560937 312.676562) scale(0.1 -0.1)">
      <defs>
       <path id="DejaVuSans-Oblique-50" d="M 1081 4666 
L 2541 4666 
Q 3178 4666 3512 4369 
Q 3847 4072 3847 3500 
Q 3847 2731 3353 2303 
Q 2859 1875 1966 1875 
L 1172 1875 
L 806 0 
L 172 0 
L 1081 4666 
z
M 1613 4147 
L 1275 2394 
L 2069 2394 
Q 2606 2394 2893 2669 
Q 3181 2944 3181 3456 
Q 3181 3784 2986 3965 
Q 2791 4147 2438 4147 
L 1613 4147 
z
" transform="scale(0.015625)"/>
       <path id="DejaVuSans-Oblique-43" d="M 4447 4306 
L 4319 3641 
Q 4019 3944 3683 4091 
Q 3347 4238 2956 4238 
Q 2422 4238 2017 3981 
Q 1613 3725 1319 3200 
Q 1131 2863 1032 2486 
Q 934 2109 934 1728 
Q 934 1091 1264 756 
Q 1594 422 2222 422 
Q 2656 422 3056 561 
Q 3456 700 3834 978 
L 3688 231 
Q 3316 72 2936 -9 
Q 2556 -91 2175 -91 
Q 1278 -91 773 396 
Q 269 884 269 1753 
Q 269 2309 461 2846 
Q 653 3384 1013 3828 
Q 1394 4300 1883 4525 
Q 2372 4750 3022 4750 
Q 3422 4750 3780 4639 
Q 4138 4528 4447 4306 
z
" transform="scale(0.015625)"/>
      </defs>
      <use xlink:href="#DejaVuSans-Oblique-50" transform="translate(0 0.78125)"/>
      <use xlink:href="#DejaVuSans-Oblique-43" transform="translate(60.302734 0.78125)"/>
      <use xlink:href="#DejaVuSans-31" transform="translate(130.126953 -15.625) scale(0.7)"/>
     </g>
    </g>
   </g>
   <g id="matplotlib.axis_2">
    <g id="ytick_1">
     <g id="line2d_9">
      <defs>
       <path id="m10e038a25c" d="M 0 0 
L -3.5 0 
" style="stroke: #000000; stroke-width: 0.8"/>
      </defs>
      <g>
       <use xlink:href="#m10e038a25c" x="52.160938" y="283.810894" style="stroke: #000000; stroke-width: 0.8"/>
      </g>
     </g>
     <g id="text_10">
      <!-- −1.5 -->
      <g transform="translate(20.878125 287.610113) scale(0.1 -0.1)">
       <defs>
        <path id="DejaVuSans-2e" d="M 684 794 
L 1344 794 
L 1344 0 
L 684 0 
L 684 794 
z
" transform="scale(0.015625)"/>
        <path id="DejaVuSans-35" d="M 691 4666 
L 3169 4666 
L 3169 4134 
L 1269 4134 
L 1269 2991 
Q 1406 3038 1543 3061 
Q 1681 3084 1819 3084 
Q 2600 3084 3056 2656 
Q 3513 2228 3513 1497 
Q 3513 744 3044 326 
Q 2575 -91 1722 -91 
Q 1428 -91 1123 -41 
Q 819 9 494 109 
L 494 744 
Q 775 591 1075 516 
Q 1375 441 1709 441 
Q 2250 441 2565 725 
Q 2881 1009 2881 1497 
Q 2881 1984 2565 2268 
Q 2250 2553 1709 2553 
Q 1456 2553 1204 2497 
Q 953 2441 691 2322 
L 691 4666 
z
" transform="scale(0.015625)"/>
       </defs>
       <use xlink:href="#DejaVuSans-2212"/>
       <use xlink:href="#DejaVuSans-31" transform="translate(83.789062 0)"/>
       <use xlink:href="#DejaVuSans-2e" transform="translate(147.412109 0)"/>
       <use xlink:href="#DejaVuSans-35" transform="translate(179.199219 0)"/>
      </g>
     </g>
    </g>
    <g id="ytick_2">
     <g id="line2d_10">
      <g>
       <use xlink:href="#m10e038a25c" x="52.160938" y="236.086085" style="stroke: #000000; stroke-width: 0.8"/>
      </g>
     </g>
     <g id="text_11">
      <!-- −1.0 -->
      <g transform="translate(20.878125 239.885304) scale(0.1 -0.1)">
       <use xlink:href="#DejaVuSans-2212"/>
       <use xlink:href="#DejaVuSans-31" transform="translate(83.789062 0)"/>
       <use xlink:href="#DejaVuSans-2e" transform="translate(147.412109 0)"/>
       <use xlink:href="#DejaVuSans-30" transform="translate(179.199219 0)"/>
      </g>
     </g>
    </g>
    <g id="ytick_3">
     <g id="line2d_11">
      <g>
       <use xlink:href="#m10e038a25c" x="52.160938" y="188.361276" style="stroke: #000000; stroke-width: 0.8"/>
      </g>
     </g>
     <g id="text_12">
      <!-- −0.5 -->
      <g transform="translate(20.878125 192.160495) scale(0.1 -0.1)">
       <use xlink:href="#DejaVuSans-2212"/>
       <use xlink:href="#DejaVuSans-30" transform="translate(83.789062 0)"/>
       <use xlink:href="#DejaVuSans-2e" transform="translate(147.412109 0)"/>
       <use xlink:href="#DejaVuSans-35" transform="translate(179.199219 0)"/>
      </g>
     </g>
    </g>
    <g id="ytick_4">
     <g id="line2d_12">
      <g>
       <use xlink:href="#m10e038a25c" x="52.160938" y="140.636467" style="stroke: #000000; stroke-width: 0.8"/>
      </g>
     </g>
     <g id="text_13">
      <!-- 0.0 -->
      <g transform="translate(29.257812 144.435686) scale(0.1 -0.1)">
       <use xlink:href="#DejaVuSans-30"/>
       <use xlink:href="#DejaVuSans-2e" transform="translate(63.623047 0)"/>
       <use xlink:href="#DejaVuSans-30" transform="translate(95.410156 0)"/>
      </g>
     </g>
    </g>
    <g id="ytick_5">
     <g id="line2d_13">
      <g>
       <use xlink:href="#m10e038a25c" x="52.160938" y="92.911658" style="stroke: #000000; stroke-width: 0.8"/>
      </g>
     </g>
     <g id="text_14">
      <!-- 0.5 -->
      <g transform="translate(29.257812 96.710877) scale(0.1 -0.1)">
       <use xlink:href="#DejaVuSans-30"/>
       <use xlink:href="#DejaVuSans-2e" transform="translate(63.623047 0)"/>
       <use xlink:href="#DejaVuSans-35" transform="translate(95.410156 0)"/>
      </g>
     </g>
    </g>
    <g id="ytick_6">
     <g id="line2d_14">
      <g>
       <use xlink:href="#m10e038a25c" x="52.160938" y="45.186849" style="stroke: #000000; stroke-width: 0.8"/>
      </g>
     </g>
     <g id="text_15">
      <!-- 1.0 -->
      <g transform="translate(29.257812 48.986067) scale(0.1 -0.1)">
       <use xlink:href="#DejaVuSans-31"/>
       <use xlink:href="#DejaVuSans-2e" transform="translate(63.623047 0)"/>
       <use xlink:href="#DejaVuSans-30" transform="translate(95.410156 0)"/>
      </g>
     </g>
    </g>
    <g id="text_16">
     <!-- $PC_2$ -->
     <g transform="translate(14.798438 154.7) rotate(-90) scale(0.1 -0.1)">
      <use xlink:href="#DejaVuSans-Oblique-50" transform="translate(0 0.78125)"/>
      <use xlink:href="#DejaVuSans-Oblique-43" transform="translate(60.302734 0.78125)"/>
      <use xlink:href="#DejaVuSans-32" transform="translate(130.126953 -15.625) scale(0.7)"/>
     </g>
    </g>
   </g>
   <g id="patch_3">
    <path d="M 52.160938 284.4 
L 52.160938 7.2 
" style="fill: none; stroke: #000000; stroke-width: 0.8; stroke-linejoin: miter; stroke-linecap: square"/>
   </g>
   <g id="patch_4">
    <path d="M 442.760938 284.4 
L 442.760938 7.2 
" style="fill: none; stroke: #000000; stroke-width: 0.8; stroke-linejoin: miter; stroke-linecap: square"/>
   </g>
   <g id="patch_5">
    <path d="M 52.160937 284.4 
L 442.760938 284.4 
" style="fill: none; stroke: #000000; stroke-width: 0.8; stroke-linejoin: miter; stroke-linecap: square"/>
   </g>
   <g id="patch_6">
    <path d="M 52.160937 7.2 
L 442.760938 7.2 
" style="fill: none; stroke: #000000; stroke-width: 0.8; stroke-linejoin: miter; stroke-linecap: square"/>
   </g>
   <g id="legend_1">
    <g id="patch_7">
     <path d="M 354.965625 59.234375 
L 435.760937 59.234375 
Q 437.760937 59.234375 437.760937 57.234375 
L 437.760937 14.2 
Q 437.760937 12.2 435.760937 12.2 
L 354.965625 12.2 
Q 352.965625 12.2 352.965625 14.2 
L 352.965625 57.234375 
Q 352.965625 59.234375 354.965625 59.234375 
z
" style="fill: #ffffff; opacity: 0.8; stroke: #cccccc; stroke-linejoin: miter"/>
    </g>
    <g id="PathCollection_4">
     <g>
      <use xlink:href="#m717344b63d" x="366.965625" y="21.173437" style="fill: #1f77b4; stroke: #1f77b4"/>
     </g>
    </g>
    <g id="text_17">
     <!-- setosa -->
     <g transform="translate(384.965625 23.798437) scale(0.1 -0.1)">
      <defs>
       <path id="DejaVuSans-73" d="M 2834 3397 
L 2834 2853 
Q 2591 2978 2328 3040 
Q 2066 3103 1784 3103 
Q 1356 3103 1142 2972 
Q 928 2841 928 2578 
Q 928 2378 1081 2264 
Q 1234 2150 1697 2047 
L 1894 2003 
Q 2506 1872 2764 1633 
Q 3022 1394 3022 966 
Q 3022 478 2636 193 
Q 2250 -91 1575 -91 
Q 1294 -91 989 -36 
Q 684 19 347 128 
L 347 722 
Q 666 556 975 473 
Q 1284 391 1588 391 
Q 1994 391 2212 530 
Q 2431 669 2431 922 
Q 2431 1156 2273 1281 
Q 2116 1406 1581 1522 
L 1381 1569 
Q 847 1681 609 1914 
Q 372 2147 372 2553 
Q 372 3047 722 3315 
Q 1072 3584 1716 3584 
Q 2034 3584 2315 3537 
Q 2597 3491 2834 3397 
z
" transform="scale(0.015625)"/>
       <path id="DejaVuSans-65" d="M 3597 1894 
L 3597 1613 
L 953 1613 
Q 991 1019 1311 708 
Q 1631 397 2203 397 
Q 2534 397 2845 478 
Q 3156 559 3463 722 
L 3463 178 
Q 3153 47 2828 -22 
Q 2503 -91 2169 -91 
Q 1331 -91 842 396 
Q 353 884 353 1716 
Q 353 2575 817 3079 
Q 1281 3584 2069 3584 
Q 2775 3584 3186 3129 
Q 3597 2675 3597 1894 
z
M 3022 2063 
Q 3016 2534 2758 2815 
Q 2500 3097 2075 3097 
Q 1594 3097 1305 2825 
Q 1016 2553 972 2059 
L 3022 2063 
z
" transform="scale(0.015625)"/>
       <path id="DejaVuSans-74" d="M 1172 4494 
L 1172 3500 
L 2356 3500 
L 2356 3053 
L 1172 3053 
L 1172 1153 
Q 1172 725 1289 603 
Q 1406 481 1766 481 
L 2356 481 
L 2356 0 
L 1766 0 
Q 1100 0 847 248 
Q 594 497 594 1153 
L 594 3053 
L 172 3053 
L 172 3500 
L 594 3500 
L 594 4494 
L 1172 4494 
z
" transform="scale(0.015625)"/>
       <path id="DejaVuSans-6f" d="M 1959 3097 
Q 1497 3097 1228 2736 
Q 959 2375 959 1747 
Q 959 1119 1226 758 
Q 1494 397 1959 397 
Q 2419 397 2687 759 
Q 2956 1122 2956 1747 
Q 2956 2369 2687 2733 
Q 2419 3097 1959 3097 
z
M 1959 3584 
Q 2709 3584 3137 3096 
Q 3566 2609 3566 1747 
Q 3566 888 3137 398 
Q 2709 -91 1959 -91 
Q 1206 -91 779 398 
Q 353 888 353 1747 
Q 353 2609 779 3096 
Q 1206 3584 1959 3584 
z
" transform="scale(0.015625)"/>
       <path id="DejaVuSans-61" d="M 2194 1759 
Q 1497 1759 1228 1600 
Q 959 1441 959 1056 
Q 959 750 1161 570 
Q 1363 391 1709 391 
Q 2188 391 2477 730 
Q 2766 1069 2766 1631 
L 2766 1759 
L 2194 1759 
z
M 3341 1997 
L 3341 0 
L 2766 0 
L 2766 531 
Q 2569 213 2275 61 
Q 1981 -91 1556 -91 
Q 1019 -91 701 211 
Q 384 513 384 1019 
Q 384 1609 779 1909 
Q 1175 2209 1959 2209 
L 2766 2209 
L 2766 2266 
Q 2766 2663 2505 2880 
Q 2244 3097 1772 3097 
Q 1472 3097 1187 3025 
Q 903 2953 641 2809 
L 641 3341 
Q 956 3463 1253 3523 
Q 1550 3584 1831 3584 
Q 2591 3584 2966 3190 
Q 3341 2797 3341 1997 
z
" transform="scale(0.015625)"/>
      </defs>
      <use xlink:href="#DejaVuSans-73"/>
      <use xlink:href="#DejaVuSans-65" transform="translate(52.099609 0)"/>
      <use xlink:href="#DejaVuSans-74" transform="translate(113.623047 0)"/>
      <use xlink:href="#DejaVuSans-6f" transform="translate(152.832031 0)"/>
      <use xlink:href="#DejaVuSans-73" transform="translate(214.013672 0)"/>
      <use xlink:href="#DejaVuSans-61" transform="translate(266.113281 0)"/>
     </g>
    </g>
    <g id="PathCollection_5">
     <g>
      <use xlink:href="#m530cbe1479" x="366.965625" y="35.851562" style="fill: #ff7f0e; stroke: #ff7f0e"/>
     </g>
    </g>
    <g id="text_18">
     <!-- versicolor -->
     <g transform="translate(384.965625 38.476562) scale(0.1 -0.1)">
      <defs>
       <path id="DejaVuSans-76" d="M 191 3500 
L 800 3500 
L 1894 563 
L 2988 3500 
L 3597 3500 
L 2284 0 
L 1503 0 
L 191 3500 
z
" transform="scale(0.015625)"/>
       <path id="DejaVuSans-72" d="M 2631 2963 
Q 2534 3019 2420 3045 
Q 2306 3072 2169 3072 
Q 1681 3072 1420 2755 
Q 1159 2438 1159 1844 
L 1159 0 
L 581 0 
L 581 3500 
L 1159 3500 
L 1159 2956 
Q 1341 3275 1631 3429 
Q 1922 3584 2338 3584 
Q 2397 3584 2469 3576 
Q 2541 3569 2628 3553 
L 2631 2963 
z
" transform="scale(0.015625)"/>
       <path id="DejaVuSans-69" d="M 603 3500 
L 1178 3500 
L 1178 0 
L 603 0 
L 603 3500 
z
M 603 4863 
L 1178 4863 
L 1178 4134 
L 603 4134 
L 603 4863 
z
" transform="scale(0.015625)"/>
       <path id="DejaVuSans-63" d="M 3122 3366 
L 3122 2828 
Q 2878 2963 2633 3030 
Q 2388 3097 2138 3097 
Q 1578 3097 1268 2742 
Q 959 2388 959 1747 
Q 959 1106 1268 751 
Q 1578 397 2138 397 
Q 2388 397 2633 464 
Q 2878 531 3122 666 
L 3122 134 
Q 2881 22 2623 -34 
Q 2366 -91 2075 -91 
Q 1284 -91 818 406 
Q 353 903 353 1747 
Q 353 2603 823 3093 
Q 1294 3584 2113 3584 
Q 2378 3584 2631 3529 
Q 2884 3475 3122 3366 
z
" transform="scale(0.015625)"/>
       <path id="DejaVuSans-6c" d="M 603 4863 
L 1178 4863 
L 1178 0 
L 603 0 
L 603 4863 
z
" transform="scale(0.015625)"/>
      </defs>
      <use xlink:href="#DejaVuSans-76"/>
      <use xlink:href="#DejaVuSans-65" transform="translate(59.179688 0)"/>
      <use xlink:href="#DejaVuSans-72" transform="translate(120.703125 0)"/>
      <use xlink:href="#DejaVuSans-73" transform="translate(161.816406 0)"/>
      <use xlink:href="#DejaVuSans-69" transform="translate(213.916016 0)"/>
      <use xlink:href="#DejaVuSans-63" transform="translate(241.699219 0)"/>
      <use xlink:href="#DejaVuSans-6f" transform="translate(296.679688 0)"/>
      <use xlink:href="#DejaVuSans-6c" transform="translate(357.861328 0)"/>
      <use xlink:href="#DejaVuSans-6f" transform="translate(385.644531 0)"/>
      <use xlink:href="#DejaVuSans-72" transform="translate(446.826172 0)"/>
     </g>
    </g>
    <g id="PathCollection_6">
     <g>
      <use xlink:href="#mbb74624a94" x="366.965625" y="50.529687" style="fill: #2ca02c; stroke: #2ca02c"/>
     </g>
    </g>
    <g id="text_19">
     <!-- virginica -->
     <g transform="translate(384.965625 53.154687) scale(0.1 -0.1)">
      <defs>
       <path id="DejaVuSans-67" d="M 2906 1791 
Q 2906 2416 2648 2759 
Q 2391 3103 1925 3103 
Q 1463 3103 1205 2759 
Q 947 2416 947 1791 
Q 947 1169 1205 825 
Q 1463 481 1925 481 
Q 2391 481 2648 825 
Q 2906 1169 2906 1791 
z
M 3481 434 
Q 3481 -459 3084 -895 
Q 2688 -1331 1869 -1331 
Q 1566 -1331 1297 -1286 
Q 1028 -1241 775 -1147 
L 775 -588 
Q 1028 -725 1275 -790 
Q 1522 -856 1778 -856 
Q 2344 -856 2625 -561 
Q 2906 -266 2906 331 
L 2906 616 
Q 2728 306 2450 153 
Q 2172 0 1784 0 
Q 1141 0 747 490 
Q 353 981 353 1791 
Q 353 2603 747 3093 
Q 1141 3584 1784 3584 
Q 2172 3584 2450 3431 
Q 2728 3278 2906 2969 
L 2906 3500 
L 3481 3500 
L 3481 434 
z
" transform="scale(0.015625)"/>
       <path id="DejaVuSans-6e" d="M 3513 2113 
L 3513 0 
L 2938 0 
L 2938 2094 
Q 2938 2591 2744 2837 
Q 2550 3084 2163 3084 
Q 1697 3084 1428 2787 
Q 1159 2491 1159 1978 
L 1159 0 
L 581 0 
L 581 3500 
L 1159 3500 
L 1159 2956 
Q 1366 3272 1645 3428 
Q 1925 3584 2291 3584 
Q 2894 3584 3203 3211 
Q 3513 2838 3513 2113 
z
" transform="scale(0.015625)"/>
      </defs>
      <use xlink:href="#DejaVuSans-76"/>
      <use xlink:href="#DejaVuSans-69" transform="translate(59.179688 0)"/>
      <use xlink:href="#DejaVuSans-72" transform="translate(86.962891 0)"/>
      <use xlink:href="#DejaVuSans-67" transform="translate(126.326172 0)"/>
      <use xlink:href="#DejaVuSans-69" transform="translate(189.802734 0)"/>
      <use xlink:href="#DejaVuSans-6e" transform="translate(217.585938 0)"/>
      <use xlink:href="#DejaVuSans-69" transform="translate(280.964844 0)"/>
      <use xlink:href="#DejaVuSans-63" transform="translate(308.748047 0)"/>
      <use xlink:href="#DejaVuSans-61" transform="translate(363.728516 0)"/>
     </g>
    </g>
   </g>
  </g>
 </g>
 <defs>
  <clipPath id="p2cbb92f5a1">
   <rect x="52.160938" y="7.2" width="390.6" height="277.2"/>
  </clipPath>
 </defs>
</svg>
