<?xml version="1.0" encoding="utf-8" standalone="no"?>
<!DOCTYPE svg PUBLIC "-//W3C//DTD SVG 1.1//EN"
  "http://www.w3.org/Graphics/SVG/1.1/DTD/svg11.dtd">
<svg xmlns:xlink="http://www.w3.org/1999/xlink" width="427.903125pt" height="149.440612pt" viewBox="0 0 427.903125 149.440612" xmlns="http://www.w3.org/2000/svg" version="1.1">
 <metadata>
  <rdf:RDF xmlns:dc="http://purl.org/dc/elements/1.1/" xmlns:cc="http://creativecommons.org/ns#" xmlns:rdf="http://www.w3.org/1999/02/22-rdf-syntax-ns#">
   <cc:Work>
    <dc:type rdf:resource="http://purl.org/dc/dcmitype/StillImage"/>
    <dc:date>2025-07-09T06:20:27.597111</dc:date>
    <dc:format>image/svg+xml</dc:format>
    <dc:creator>
     <cc:Agent>
      <dc:title>Matplotlib v3.10.0, https://matplotlib.org/</dc:title>
     </cc:Agent>
    </dc:creator>
   </cc:Work>
  </rdf:RDF>
 </metadata>
 <defs>
  <style type="text/css">*{stroke-linejoin: round; stroke-linecap: butt}</style>
 </defs>
 <g id="figure_1">
  <g id="patch_1">
   <path d="M 0 149.440612 
L 427.903125 149.440612 
L 427.903125 0 
L 0 0 
z
" style="fill: #ffffff"/>
  </g>
  <g id="axes_1">
   <g id="patch_2">
    <path d="M 30.103125 125.562487 
L 420.703125 125.562487 
L 420.703125 7.2 
L 30.103125 7.2 
z
" style="fill: #ffffff"/>
   </g>
   <g id="patch_3">
    <path d="M 48.301534 125.563114 
L 51.852443 125.563114 
L 51.852443 7.199633 
L 48.301534 7.199633 
z
" clip-path="url(#p9a6e74f3aa)" style="fill: #bfbf00"/>
   </g>
   <g id="patch_4">
    <path d="M 52.74017 125.563114 
L 56.29108 125.563114 
L 56.29108 7.202187 
L 52.74017 7.202187 
z
" clip-path="url(#p9a6e74f3aa)" style="fill: #bfbf00"/>
   </g>
   <g id="patch_5">
    <path d="M 57.178807 125.563114 
L 60.729716 125.563114 
L 60.729716 39.265606 
L 57.178807 39.265606 
z
" clip-path="url(#p9a6e74f3aa)" style="fill: #bfbf00"/>
   </g>
   <g id="patch_6">
    <path d="M 61.617443 125.563114 
L 65.168352 125.563114 
L 65.168352 7.2 
L 61.617443 7.2 
z
" clip-path="url(#p9a6e74f3aa)" style="fill: #bfbf00"/>
   </g>
   <g id="patch_7">
    <path d="M 66.05608 125.563114 
L 69.606989 125.563114 
L 69.606989 7.199788 
L 66.05608 7.199788 
z
" clip-path="url(#p9a6e74f3aa)" style="fill: #bfbf00"/>
   </g>
   <g id="patch_8">
    <path d="M 70.494716 125.563114 
L 74.045625 125.563114 
L 74.045625 7.200677 
L 70.494716 7.200677 
z
" clip-path="url(#p9a6e74f3aa)" style="fill: #bfbf00"/>
   </g>
   <g id="patch_9">
    <path d="M 74.933352 125.563114 
L 78.484261 125.563114 
L 78.484261 7.201623 
L 74.933352 7.201623 
z
" clip-path="url(#p9a6e74f3aa)" style="fill: #bfbf00"/>
   </g>
   <g id="patch_10">
    <path d="M 79.371989 125.563114 
L 82.922898 125.563114 
L 82.922898 21.588133 
L 79.371989 21.588133 
z
" clip-path="url(#p9a6e74f3aa)" style="fill: #bfbf00"/>
   </g>
   <g id="patch_11">
    <path d="M 83.810625 125.563114 
L 87.361534 125.563114 
L 87.361534 122.156527 
L 83.810625 122.156527 
z
" clip-path="url(#p9a6e74f3aa)" style="fill: #bfbf00"/>
   </g>
   <g id="patch_12">
    <path d="M 88.249261 125.563114 
L 91.80017 125.563114 
L 91.80017 7.227409 
L 88.249261 7.227409 
z
" clip-path="url(#p9a6e74f3aa)" style="fill: #bfbf00"/>
   </g>
   <g id="patch_13">
    <path d="M 92.687898 125.563114 
L 96.238807 125.563114 
L 96.238807 7.199492 
L 92.687898 7.199492 
z
" clip-path="url(#p9a6e74f3aa)" style="fill: #bfbf00"/>
   </g>
   <g id="patch_14">
    <path d="M 97.126534 125.563114 
L 100.677443 125.563114 
L 100.677443 124.671697 
L 97.126534 124.671697 
z
" clip-path="url(#p9a6e74f3aa)" style="fill: #bfbf00"/>
   </g>
   <g id="patch_15">
    <path d="M 101.56517 125.563114 
L 105.11608 125.563114 
L 105.11608 97.461117 
L 101.56517 97.461117 
z
" clip-path="url(#p9a6e74f3aa)" style="fill: #bfbf00"/>
   </g>
   <g id="patch_16">
    <path d="M 106.003807 125.563114 
L 109.554716 125.563114 
L 109.554716 7.199506 
L 106.003807 7.199506 
z
" clip-path="url(#p9a6e74f3aa)" style="fill: #bfbf00"/>
   </g>
   <g id="patch_17">
    <path d="M 110.442443 125.563114 
L 113.993352 125.563114 
L 113.993352 10.926272 
L 110.442443 10.926272 
z
" clip-path="url(#p9a6e74f3aa)" style="fill: #bfbf00"/>
   </g>
   <g id="patch_18">
    <path d="M 114.88108 125.563114 
L 118.431989 125.563114 
L 118.431989 7.203908 
L 114.88108 7.203908 
z
" clip-path="url(#p9a6e74f3aa)" style="fill: #bfbf00"/>
   </g>
   <g id="patch_19">
    <path d="M 119.319716 125.563114 
L 122.870625 125.563114 
L 122.870625 7.199944 
L 119.319716 7.199944 
z
" clip-path="url(#p9a6e74f3aa)" style="fill: #bfbf00"/>
   </g>
   <g id="patch_20">
    <path d="M 123.758352 125.563114 
L 127.309261 125.563114 
L 127.309261 7.199605 
L 123.758352 7.199605 
z
" clip-path="url(#p9a6e74f3aa)" style="fill: #bfbf00"/>
   </g>
   <g id="patch_21">
    <path d="M 128.196989 125.563114 
L 131.747898 125.563114 
L 131.747898 9.412032 
L 128.196989 9.412032 
z
" clip-path="url(#p9a6e74f3aa)" style="fill: #bfbf00"/>
   </g>
   <g id="patch_22">
    <path d="M 132.635625 125.563114 
L 136.186534 125.563114 
L 136.186534 7.211359 
L 132.635625 7.211359 
z
" clip-path="url(#p9a6e74f3aa)" style="fill: #bfbf00"/>
   </g>
   <g id="patch_23">
    <path d="M 137.074261 125.563114 
L 140.62517 125.563114 
L 140.62517 7.201298 
L 137.074261 7.201298 
z
" clip-path="url(#p9a6e74f3aa)" style="fill: #bfbf00"/>
   </g>
   <g id="patch_24">
    <path d="M 141.512898 125.563114 
L 145.063807 125.563114 
L 145.063807 7.208113 
L 141.512898 7.208113 
z
" clip-path="url(#p9a6e74f3aa)" style="fill: #bfbf00"/>
   </g>
   <g id="patch_25">
    <path d="M 145.951534 125.563114 
L 149.502443 125.563114 
L 149.502443 124.351645 
L 145.951534 124.351645 
z
" clip-path="url(#p9a6e74f3aa)" style="fill: #bfbf00"/>
   </g>
   <g id="patch_26">
    <path d="M 150.39017 125.563114 
L 153.94108 125.563114 
L 153.94108 13.19945 
L 150.39017 13.19945 
z
" clip-path="url(#p9a6e74f3aa)" style="fill: #bfbf00"/>
   </g>
   <g id="patch_27">
    <path d="M 154.828807 125.563114 
L 158.379716 125.563114 
L 158.379716 23.627006 
L 154.828807 23.627006 
z
" clip-path="url(#p9a6e74f3aa)" style="fill: #bfbf00"/>
   </g>
   <g id="patch_28">
    <path d="M 159.267443 125.563114 
L 162.818352 125.563114 
L 162.818352 73.46305 
L 159.267443 73.46305 
z
" clip-path="url(#p9a6e74f3aa)" style="fill: #bfbf00"/>
   </g>
   <g id="patch_29">
    <path d="M 163.70608 125.563114 
L 167.256989 125.563114 
L 167.256989 20.409316 
L 163.70608 20.409316 
z
" clip-path="url(#p9a6e74f3aa)" style="fill: #bfbf00"/>
   </g>
   <g id="patch_30">
    <path d="M 168.144716 125.563114 
L 171.695625 125.563114 
L 171.695625 114.020851 
L 168.144716 114.020851 
z
" clip-path="url(#p9a6e74f3aa)" style="fill: #bfbf00"/>
   </g>
   <g id="patch_31">
    <path d="M 172.583352 125.563114 
L 176.134261 125.563114 
L 176.134261 36.10703 
L 172.583352 36.10703 
z
" clip-path="url(#p9a6e74f3aa)" style="fill: #bfbf00"/>
   </g>
   <g id="patch_32">
    <path d="M 177.021989 125.563114 
L 180.572898 125.563114 
L 180.572898 22.462758 
L 177.021989 22.462758 
z
" clip-path="url(#p9a6e74f3aa)" style="fill: #bfbf00"/>
   </g>
   <g id="patch_33">
    <path d="M 181.460625 125.563114 
L 185.011534 125.563114 
L 185.011534 7.199506 
L 181.460625 7.199506 
z
" clip-path="url(#p9a6e74f3aa)" style="fill: #bfbf00"/>
   </g>
   <g id="patch_34">
    <path d="M 185.899261 125.563114 
L 189.45017 125.563114 
L 189.45017 7.295137 
L 185.899261 7.295137 
z
" clip-path="url(#p9a6e74f3aa)" style="fill: #bfbf00"/>
   </g>
   <g id="patch_35">
    <path d="M 190.337898 125.563114 
L 193.888807 125.563114 
L 193.888807 7.202469 
L 190.337898 7.202469 
z
" clip-path="url(#p9a6e74f3aa)" style="fill: #bfbf00"/>
   </g>
   <g id="patch_36">
    <path d="M 194.776534 125.563114 
L 198.327443 125.563114 
L 198.327443 9.468796 
L 194.776534 9.468796 
z
" clip-path="url(#p9a6e74f3aa)" style="fill: #bfbf00"/>
   </g>
   <g id="patch_37">
    <path d="M 199.21517 125.563114 
L 202.76608 125.563114 
L 202.76608 7.201171 
L 199.21517 7.201171 
z
" clip-path="url(#p9a6e74f3aa)" style="fill: #bfbf00"/>
   </g>
   <g id="patch_38">
    <path d="M 203.653807 125.563114 
L 207.204716 125.563114 
L 207.204716 7.199577 
L 203.653807 7.199577 
z
" clip-path="url(#p9a6e74f3aa)" style="fill: #bfbf00"/>
   </g>
   <g id="patch_39">
    <path d="M 208.092443 125.563114 
L 211.643352 125.563114 
L 211.643352 7.769249 
L 208.092443 7.769249 
z
" clip-path="url(#p9a6e74f3aa)" style="fill: #bfbf00"/>
   </g>
   <g id="patch_40">
    <path d="M 212.53108 125.563114 
L 216.081989 125.563114 
L 216.081989 7.199492 
L 212.53108 7.199492 
z
" clip-path="url(#p9a6e74f3aa)" style="fill: #bfbf00"/>
   </g>
   <g id="patch_41">
    <path d="M 216.969716 125.563114 
L 220.520625 125.563114 
L 220.520625 7.201298 
L 216.969716 7.201298 
z
" clip-path="url(#p9a6e74f3aa)" style="fill: #bfbf00"/>
   </g>
   <g id="patch_42">
    <path d="M 221.408352 125.563114 
L 224.959261 125.563114 
L 224.959261 124.815593 
L 221.408352 124.815593 
z
" clip-path="url(#p9a6e74f3aa)" style="fill: #bfbf00"/>
   </g>
   <g id="patch_43">
    <path d="M 225.846989 125.563114 
L 229.397898 125.563114 
L 229.397898 125.553839 
L 225.846989 125.553839 
z
" clip-path="url(#p9a6e74f3aa)" style="fill: #bfbf00"/>
   </g>
   <g id="patch_44">
    <path d="M 230.285625 125.563114 
L 233.836534 125.563114 
L 233.836534 125.483726 
L 230.285625 125.483726 
z
" clip-path="url(#p9a6e74f3aa)" style="fill: #bfbf00"/>
   </g>
   <g id="patch_45">
    <path d="M 234.724261 125.563114 
L 238.27517 125.563114 
L 238.27517 125.511315 
L 234.724261 125.511315 
z
" clip-path="url(#p9a6e74f3aa)" style="fill: #bfbf00"/>
   </g>
   <g id="patch_46">
    <path d="M 239.162898 125.563114 
L 242.713807 125.563114 
L 242.713807 125.539595 
L 239.162898 125.539595 
z
" clip-path="url(#p9a6e74f3aa)" style="fill: #bfbf00"/>
   </g>
   <g id="patch_47">
    <path d="M 243.601534 125.563114 
L 247.152443 125.563114 
L 247.152443 118.184341 
L 243.601534 118.184341 
z
" clip-path="url(#p9a6e74f3aa)" style="fill: #bfbf00"/>
   </g>
   <g id="patch_48">
    <path d="M 248.04017 125.563114 
L 251.59108 125.563114 
L 251.59108 121.436106 
L 248.04017 121.436106 
z
" clip-path="url(#p9a6e74f3aa)" style="fill: #bfbf00"/>
   </g>
   <g id="patch_49">
    <path d="M 252.478807 125.563114 
L 256.029716 125.563114 
L 256.029716 124.936119 
L 252.478807 124.936119 
z
" clip-path="url(#p9a6e74f3aa)" style="fill: #bfbf00"/>
   </g>
   <g id="patch_50">
    <path d="M 256.917443 125.563114 
L 260.468352 125.563114 
L 260.468352 125.509919 
L 256.917443 125.509919 
z
" clip-path="url(#p9a6e74f3aa)" style="fill: #bfbf00"/>
   </g>
   <g id="patch_51">
    <path d="M 261.35608 125.563114 
L 264.906989 125.563114 
L 264.906989 125.520103 
L 261.35608 125.520103 
z
" clip-path="url(#p9a6e74f3aa)" style="fill: #bfbf00"/>
   </g>
   <g id="patch_52">
    <path d="M 265.794716 125.563114 
L 269.345625 125.563114 
L 269.345625 125.526773 
L 265.794716 125.526773 
z
" clip-path="url(#p9a6e74f3aa)" style="fill: #bfbf00"/>
   </g>
   <g id="patch_53">
    <path d="M 270.233352 125.563114 
L 273.784261 125.563114 
L 273.784261 125.461915 
L 270.233352 125.461915 
z
" clip-path="url(#p9a6e74f3aa)" style="fill: #bfbf00"/>
   </g>
   <g id="patch_54">
    <path d="M 274.671989 125.563114 
L 278.222898 125.563114 
L 278.222898 125.559315 
L 274.671989 125.559315 
z
" clip-path="url(#p9a6e74f3aa)" style="fill: #bfbf00"/>
   </g>
   <g id="patch_55">
    <path d="M 279.110625 125.563114 
L 282.661534 125.563114 
L 282.661534 125.549792 
L 279.110625 125.549792 
z
" clip-path="url(#p9a6e74f3aa)" style="fill: #bfbf00"/>
   </g>
   <g id="patch_56">
    <path d="M 283.549261 125.563114 
L 287.10017 125.563114 
L 287.10017 124.984899 
L 283.549261 124.984899 
z
" clip-path="url(#p9a6e74f3aa)" style="fill: #bfbf00"/>
   </g>
   <g id="patch_57">
    <path d="M 287.987898 125.563114 
L 291.538807 125.563114 
L 291.538807 125.514908 
L 287.987898 125.514908 
z
" clip-path="url(#p9a6e74f3aa)" style="fill: #bfbf00"/>
   </g>
   <g id="patch_58">
    <path d="M 292.426534 125.563114 
L 295.977443 125.563114 
L 295.977443 125.461397 
L 292.426534 125.461397 
z
" clip-path="url(#p9a6e74f3aa)" style="fill: #bfbf00"/>
   </g>
   <g id="patch_59">
    <path d="M 296.86517 125.563114 
L 300.41608 125.563114 
L 300.41608 125.382642 
L 296.86517 125.382642 
z
" clip-path="url(#p9a6e74f3aa)" style="fill: #bfbf00"/>
   </g>
   <g id="patch_60">
    <path d="M 301.303807 125.563114 
L 304.854716 125.563114 
L 304.854716 125.547779 
L 301.303807 125.547779 
z
" clip-path="url(#p9a6e74f3aa)" style="fill: #bfbf00"/>
   </g>
   <g id="patch_61">
    <path d="M 305.742443 125.563114 
L 309.293352 125.563114 
L 309.293352 125.559482 
L 305.742443 125.559482 
z
" clip-path="url(#p9a6e74f3aa)" style="fill: #bfbf00"/>
   </g>
   <g id="patch_62">
    <path d="M 310.18108 125.563114 
L 313.731989 125.563114 
L 313.731989 125.46561 
L 310.18108 125.46561 
z
" clip-path="url(#p9a6e74f3aa)" style="fill: #bfbf00"/>
   </g>
   <g id="patch_63">
    <path d="M 314.619716 125.563114 
L 318.170625 125.563114 
L 318.170625 125.562487 
L 314.619716 125.562487 
z
" clip-path="url(#p9a6e74f3aa)" style="fill: #bfbf00"/>
   </g>
   <g id="patch_64">
    <path d="M 319.058352 125.563114 
L 322.609261 125.563114 
L 322.609261 125.525575 
L 319.058352 125.525575 
z
" clip-path="url(#p9a6e74f3aa)" style="fill: #bfbf00"/>
   </g>
   <g id="patch_65">
    <path d="M 323.496989 125.563114 
L 327.047898 125.563114 
L 327.047898 125.562556 
L 323.496989 125.562556 
z
" clip-path="url(#p9a6e74f3aa)" style="fill: #bfbf00"/>
   </g>
   <g id="patch_66">
    <path d="M 327.935625 125.563114 
L 331.486534 125.563114 
L 331.486534 125.504591 
L 327.935625 125.504591 
z
" clip-path="url(#p9a6e74f3aa)" style="fill: #bfbf00"/>
   </g>
   <g id="patch_67">
    <path d="M 332.374261 125.563114 
L 335.92517 125.563114 
L 335.92517 125.465039 
L 332.374261 125.465039 
z
" clip-path="url(#p9a6e74f3aa)" style="fill: #bfbf00"/>
   </g>
   <g id="patch_68">
    <path d="M 336.812898 125.563114 
L 340.363807 125.563114 
L 340.363807 125.560472 
L 336.812898 125.560472 
z
" clip-path="url(#p9a6e74f3aa)" style="fill: #bfbf00"/>
   </g>
   <g id="patch_69">
    <path d="M 341.251534 125.563114 
L 344.802443 125.563114 
L 344.802443 125.540616 
L 341.251534 125.540616 
z
" clip-path="url(#p9a6e74f3aa)" style="fill: #bfbf00"/>
   </g>
   <g id="patch_70">
    <path d="M 345.69017 125.563114 
L 349.24108 125.563114 
L 349.24108 125.177336 
L 345.69017 125.177336 
z
" clip-path="url(#p9a6e74f3aa)" style="fill: #bfbf00"/>
   </g>
   <g id="patch_71">
    <path d="M 350.128807 125.563114 
L 353.679716 125.563114 
L 353.679716 125.5302 
L 350.128807 125.5302 
z
" clip-path="url(#p9a6e74f3aa)" style="fill: #bfbf00"/>
   </g>
   <g id="patch_72">
    <path d="M 354.567443 125.563114 
L 358.118352 125.563114 
L 358.118352 125.299751 
L 354.567443 125.299751 
z
" clip-path="url(#p9a6e74f3aa)" style="fill: #bfbf00"/>
   </g>
   <g id="patch_73">
    <path d="M 359.00608 125.563114 
L 362.556989 125.563114 
L 362.556989 125.412977 
L 359.00608 125.412977 
z
" clip-path="url(#p9a6e74f3aa)" style="fill: #bfbf00"/>
   </g>
   <g id="patch_74">
    <path d="M 363.444716 125.563114 
L 366.995625 125.563114 
L 366.995625 125.547856 
L 363.444716 125.547856 
z
" clip-path="url(#p9a6e74f3aa)" style="fill: #bfbf00"/>
   </g>
   <g id="patch_75">
    <path d="M 367.883352 125.563114 
L 371.434261 125.563114 
L 371.434261 125.540347 
L 367.883352 125.540347 
z
" clip-path="url(#p9a6e74f3aa)" style="fill: #bfbf00"/>
   </g>
   <g id="patch_76">
    <path d="M 372.321989 125.563114 
L 375.872898 125.563114 
L 375.872898 125.553675 
L 372.321989 125.553675 
z
" clip-path="url(#p9a6e74f3aa)" style="fill: #bfbf00"/>
   </g>
   <g id="patch_77">
    <path d="M 376.760625 125.563114 
L 380.311534 125.563114 
L 380.311534 123.93495 
L 376.760625 123.93495 
z
" clip-path="url(#p9a6e74f3aa)" style="fill: #bfbf00"/>
   </g>
   <g id="patch_78">
    <path d="M 381.199261 125.563114 
L 384.75017 125.563114 
L 384.75017 125.110677 
L 381.199261 125.110677 
z
" clip-path="url(#p9a6e74f3aa)" style="fill: #bfbf00"/>
   </g>
   <g id="patch_79">
    <path d="M 385.637898 125.563114 
L 389.188807 125.563114 
L 389.188807 125.561074 
L 385.637898 125.561074 
z
" clip-path="url(#p9a6e74f3aa)" style="fill: #bfbf00"/>
   </g>
   <g id="patch_80">
    <path d="M 390.076534 125.563114 
L 393.627443 125.563114 
L 393.627443 125.511875 
L 390.076534 125.511875 
z
" clip-path="url(#p9a6e74f3aa)" style="fill: #bfbf00"/>
   </g>
   <g id="patch_81">
    <path d="M 394.51517 125.563114 
L 398.06608 125.563114 
L 398.06608 125.466425 
L 394.51517 125.466425 
z
" clip-path="url(#p9a6e74f3aa)" style="fill: #bfbf00"/>
   </g>
   <g id="patch_82">
    <path d="M 398.953807 125.563114 
L 402.504716 125.563114 
L 402.504716 125.557055 
L 398.953807 125.557055 
z
" clip-path="url(#p9a6e74f3aa)" style="fill: #bfbf00"/>
   </g>
   <g id="patch_83">
    <path d="M 48.301534 7.199633 
L 51.852443 7.199633 
L 51.852443 7.199478 
L 48.301534 7.199478 
z
" clip-path="url(#p9a6e74f3aa)" style="fill: #0000ff"/>
   </g>
   <g id="patch_84">
    <path d="M 52.74017 7.202187 
L 56.29108 7.202187 
L 56.29108 7.199478 
L 52.74017 7.199478 
z
" clip-path="url(#p9a6e74f3aa)" style="fill: #0000ff"/>
   </g>
   <g id="patch_85">
    <path d="M 57.178807 39.265606 
L 60.729716 39.265606 
L 60.729716 7.199478 
L 57.178807 7.199478 
z
" clip-path="url(#p9a6e74f3aa)" style="fill: #0000ff"/>
   </g>
   <g id="patch_86">
    <path d="M 61.617443 7.2 
L 65.168352 7.2 
L 65.168352 7.199478 
L 61.617443 7.199478 
z
" clip-path="url(#p9a6e74f3aa)" style="fill: #0000ff"/>
   </g>
   <g id="patch_87">
    <path d="M 66.05608 7.199788 
L 69.606989 7.199788 
L 69.606989 7.199478 
L 66.05608 7.199478 
z
" clip-path="url(#p9a6e74f3aa)" style="fill: #0000ff"/>
   </g>
   <g id="patch_88">
    <path d="M 70.494716 7.200677 
L 74.045625 7.200677 
L 74.045625 7.199478 
L 70.494716 7.199478 
z
" clip-path="url(#p9a6e74f3aa)" style="fill: #0000ff"/>
   </g>
   <g id="patch_89">
    <path d="M 74.933352 7.201623 
L 78.484261 7.201623 
L 78.484261 7.199478 
L 74.933352 7.199478 
z
" clip-path="url(#p9a6e74f3aa)" style="fill: #0000ff"/>
   </g>
   <g id="patch_90">
    <path d="M 79.371989 21.588133 
L 82.922898 21.588133 
L 82.922898 7.199478 
L 79.371989 7.199478 
z
" clip-path="url(#p9a6e74f3aa)" style="fill: #0000ff"/>
   </g>
   <g id="patch_91">
    <path d="M 83.810625 122.156527 
L 87.361534 122.156527 
L 87.361534 7.199464 
L 83.810625 7.199464 
z
" clip-path="url(#p9a6e74f3aa)" style="fill: #0000ff"/>
   </g>
   <g id="patch_92">
    <path d="M 88.249261 7.227409 
L 91.80017 7.227409 
L 91.80017 7.199478 
L 88.249261 7.199478 
z
" clip-path="url(#p9a6e74f3aa)" style="fill: #0000ff"/>
   </g>
   <g id="patch_93">
    <path d="M 92.687898 7.199492 
L 96.238807 7.199492 
L 96.238807 7.199478 
L 92.687898 7.199478 
z
" clip-path="url(#p9a6e74f3aa)" style="fill: #0000ff"/>
   </g>
   <g id="patch_94">
    <path d="M 97.126534 124.671697 
L 100.677443 124.671697 
L 100.677443 7.199464 
L 97.126534 7.199464 
z
" clip-path="url(#p9a6e74f3aa)" style="fill: #0000ff"/>
   </g>
   <g id="patch_95">
    <path d="M 101.56517 97.461117 
L 105.11608 97.461117 
L 105.11608 7.199485 
L 101.56517 7.199485 
z
" clip-path="url(#p9a6e74f3aa)" style="fill: #0000ff"/>
   </g>
   <g id="patch_96">
    <path d="M 106.003807 7.199506 
L 109.554716 7.199506 
L 109.554716 7.199478 
L 106.003807 7.199478 
z
" clip-path="url(#p9a6e74f3aa)" style="fill: #0000ff"/>
   </g>
   <g id="patch_97">
    <path d="M 110.442443 10.926272 
L 113.993352 10.926272 
L 113.993352 7.199485 
L 110.442443 7.199485 
z
" clip-path="url(#p9a6e74f3aa)" style="fill: #0000ff"/>
   </g>
   <g id="patch_98">
    <path d="M 114.88108 7.203908 
L 118.431989 7.203908 
L 118.431989 7.199478 
L 114.88108 7.199478 
z
" clip-path="url(#p9a6e74f3aa)" style="fill: #0000ff"/>
   </g>
   <g id="patch_99">
    <path d="M 119.319716 7.199944 
L 122.870625 7.199944 
L 122.870625 7.199478 
L 119.319716 7.199478 
z
" clip-path="url(#p9a6e74f3aa)" style="fill: #0000ff"/>
   </g>
   <g id="patch_100">
    <path d="M 123.758352 7.199605 
L 127.309261 7.199605 
L 127.309261 7.199478 
L 123.758352 7.199478 
z
" clip-path="url(#p9a6e74f3aa)" style="fill: #0000ff"/>
   </g>
   <g id="patch_101">
    <path d="M 128.196989 9.412032 
L 131.747898 9.412032 
L 131.747898 7.199478 
L 128.196989 7.199478 
z
" clip-path="url(#p9a6e74f3aa)" style="fill: #0000ff"/>
   </g>
   <g id="patch_102">
    <path d="M 132.635625 7.211359 
L 136.186534 7.211359 
L 136.186534 7.199478 
L 132.635625 7.199478 
z
" clip-path="url(#p9a6e74f3aa)" style="fill: #0000ff"/>
   </g>
   <g id="patch_103">
    <path d="M 137.074261 7.201298 
L 140.62517 7.201298 
L 140.62517 7.199478 
L 137.074261 7.199478 
z
" clip-path="url(#p9a6e74f3aa)" style="fill: #0000ff"/>
   </g>
   <g id="patch_104">
    <path d="M 141.512898 7.208113 
L 145.063807 7.208113 
L 145.063807 7.199478 
L 141.512898 7.199478 
z
" clip-path="url(#p9a6e74f3aa)" style="fill: #0000ff"/>
   </g>
   <g id="patch_105">
    <path d="M 145.951534 124.351645 
L 149.502443 124.351645 
L 149.502443 7.199464 
L 145.951534 7.199464 
z
" clip-path="url(#p9a6e74f3aa)" style="fill: #0000ff"/>
   </g>
   <g id="patch_106">
    <path d="M 150.39017 13.19945 
L 153.94108 13.19945 
L 153.94108 7.199478 
L 150.39017 7.199478 
z
" clip-path="url(#p9a6e74f3aa)" style="fill: #0000ff"/>
   </g>
   <g id="patch_107">
    <path d="M 154.828807 23.627006 
L 158.379716 23.627006 
L 158.379716 7.199485 
L 154.828807 7.199485 
z
" clip-path="url(#p9a6e74f3aa)" style="fill: #0000ff"/>
   </g>
   <g id="patch_108">
    <path d="M 159.267443 73.46305 
L 162.818352 73.46305 
L 162.818352 7.199478 
L 159.267443 7.199478 
z
" clip-path="url(#p9a6e74f3aa)" style="fill: #0000ff"/>
   </g>
   <g id="patch_109">
    <path d="M 163.70608 20.409316 
L 167.256989 20.409316 
L 167.256989 7.199478 
L 163.70608 7.199478 
z
" clip-path="url(#p9a6e74f3aa)" style="fill: #0000ff"/>
   </g>
   <g id="patch_110">
    <path d="M 168.144716 114.020851 
L 171.695625 114.020851 
L 171.695625 7.199478 
L 168.144716 7.199478 
z
" clip-path="url(#p9a6e74f3aa)" style="fill: #0000ff"/>
   </g>
   <g id="patch_111">
    <path d="M 172.583352 36.10703 
L 176.134261 36.10703 
L 176.134261 7.199478 
L 172.583352 7.199478 
z
" clip-path="url(#p9a6e74f3aa)" style="fill: #0000ff"/>
   </g>
   <g id="patch_112">
    <path d="M 177.021989 22.462758 
L 180.572898 22.462758 
L 180.572898 7.199485 
L 177.021989 7.199485 
z
" clip-path="url(#p9a6e74f3aa)" style="fill: #0000ff"/>
   </g>
   <g id="patch_113">
    <path d="M 181.460625 7.199506 
L 185.011534 7.199506 
L 185.011534 7.199478 
L 181.460625 7.199478 
z
" clip-path="url(#p9a6e74f3aa)" style="fill: #0000ff"/>
   </g>
   <g id="patch_114">
    <path d="M 185.899261 7.295137 
L 189.45017 7.295137 
L 189.45017 7.199478 
L 185.899261 7.199478 
z
" clip-path="url(#p9a6e74f3aa)" style="fill: #0000ff"/>
   </g>
   <g id="patch_115">
    <path d="M 190.337898 7.202469 
L 193.888807 7.202469 
L 193.888807 7.199478 
L 190.337898 7.199478 
z
" clip-path="url(#p9a6e74f3aa)" style="fill: #0000ff"/>
   </g>
   <g id="patch_116">
    <path d="M 194.776534 9.468796 
L 198.327443 9.468796 
L 198.327443 7.199478 
L 194.776534 7.199478 
z
" clip-path="url(#p9a6e74f3aa)" style="fill: #0000ff"/>
   </g>
   <g id="patch_117">
    <path d="M 199.21517 7.201171 
L 202.76608 7.201171 
L 202.76608 7.199478 
L 199.21517 7.199478 
z
" clip-path="url(#p9a6e74f3aa)" style="fill: #0000ff"/>
   </g>
   <g id="patch_118">
    <path d="M 203.653807 7.199577 
L 207.204716 7.199577 
L 207.204716 7.199478 
L 203.653807 7.199478 
z
" clip-path="url(#p9a6e74f3aa)" style="fill: #0000ff"/>
   </g>
   <g id="patch_119">
    <path d="M 208.092443 7.769249 
L 211.643352 7.769249 
L 211.643352 7.199478 
L 208.092443 7.199478 
z
" clip-path="url(#p9a6e74f3aa)" style="fill: #0000ff"/>
   </g>
   <g id="patch_120">
    <path d="M 212.53108 7.199492 
L 216.081989 7.199492 
L 216.081989 7.199478 
L 212.53108 7.199478 
z
" clip-path="url(#p9a6e74f3aa)" style="fill: #0000ff"/>
   </g>
   <g id="patch_121">
    <path d="M 216.969716 7.201298 
L 220.520625 7.201298 
L 220.520625 7.199478 
L 216.969716 7.199478 
z
" clip-path="url(#p9a6e74f3aa)" style="fill: #0000ff"/>
   </g>
   <g id="patch_122">
    <path d="M 221.408352 124.815593 
L 224.959261 124.815593 
L 224.959261 7.199492 
L 221.408352 7.199492 
z
" clip-path="url(#p9a6e74f3aa)" style="fill: #0000ff"/>
   </g>
   <g id="patch_123">
    <path d="M 225.846989 125.553839 
L 229.397898 125.553839 
L 229.397898 7.199478 
L 225.846989 7.199478 
z
" clip-path="url(#p9a6e74f3aa)" style="fill: #0000ff"/>
   </g>
   <g id="patch_124">
    <path d="M 230.285625 125.483726 
L 233.836534 125.483726 
L 233.836534 7.199478 
L 230.285625 7.199478 
z
" clip-path="url(#p9a6e74f3aa)" style="fill: #0000ff"/>
   </g>
   <g id="patch_125">
    <path d="M 234.724261 125.511315 
L 238.27517 125.511315 
L 238.27517 7.199478 
L 234.724261 7.199478 
z
" clip-path="url(#p9a6e74f3aa)" style="fill: #0000ff"/>
   </g>
   <g id="patch_126">
    <path d="M 239.162898 125.539595 
L 242.713807 125.539595 
L 242.713807 7.199478 
L 239.162898 7.199478 
z
" clip-path="url(#p9a6e74f3aa)" style="fill: #0000ff"/>
   </g>
   <g id="patch_127">
    <path d="M 243.601534 118.184341 
L 247.152443 118.184341 
L 247.152443 7.199485 
L 243.601534 7.199485 
z
" clip-path="url(#p9a6e74f3aa)" style="fill: #0000ff"/>
   </g>
   <g id="patch_128">
    <path d="M 248.04017 121.436106 
L 251.59108 121.436106 
L 251.59108 7.199478 
L 248.04017 7.199478 
z
" clip-path="url(#p9a6e74f3aa)" style="fill: #0000ff"/>
   </g>
   <g id="patch_129">
    <path d="M 252.478807 124.936119 
L 256.029716 124.936119 
L 256.029716 7.199492 
L 252.478807 7.199492 
z
" clip-path="url(#p9a6e74f3aa)" style="fill: #0000ff"/>
   </g>
   <g id="patch_130">
    <path d="M 256.917443 125.509919 
L 260.468352 125.509919 
L 260.468352 7.199492 
L 256.917443 7.199492 
z
" clip-path="url(#p9a6e74f3aa)" style="fill: #0000ff"/>
   </g>
   <g id="patch_131">
    <path d="M 261.35608 125.520103 
L 264.906989 125.520103 
L 264.906989 7.199478 
L 261.35608 7.199478 
z
" clip-path="url(#p9a6e74f3aa)" style="fill: #0000ff"/>
   </g>
   <g id="patch_132">
    <path d="M 265.794716 125.526773 
L 269.345625 125.526773 
L 269.345625 7.199464 
L 265.794716 7.199464 
z
" clip-path="url(#p9a6e74f3aa)" style="fill: #0000ff"/>
   </g>
   <g id="patch_133">
    <path d="M 270.233352 125.461915 
L 273.784261 125.461915 
L 273.784261 7.199478 
L 270.233352 7.199478 
z
" clip-path="url(#p9a6e74f3aa)" style="fill: #0000ff"/>
   </g>
   <g id="patch_134">
    <path d="M 274.671989 125.559315 
L 278.222898 125.559315 
L 278.222898 7.199478 
L 274.671989 7.199478 
z
" clip-path="url(#p9a6e74f3aa)" style="fill: #0000ff"/>
   </g>
   <g id="patch_135">
    <path d="M 279.110625 125.549792 
L 282.661534 125.549792 
L 282.661534 7.199478 
L 279.110625 7.199478 
z
" clip-path="url(#p9a6e74f3aa)" style="fill: #0000ff"/>
   </g>
   <g id="patch_136">
    <path d="M 283.549261 124.984899 
L 287.10017 124.984899 
L 287.10017 7.199478 
L 283.549261 7.199478 
z
" clip-path="url(#p9a6e74f3aa)" style="fill: #0000ff"/>
   </g>
   <g id="patch_137">
    <path d="M 287.987898 125.514908 
L 291.538807 125.514908 
L 291.538807 7.199485 
L 287.987898 7.199485 
z
" clip-path="url(#p9a6e74f3aa)" style="fill: #0000ff"/>
   </g>
   <g id="patch_138">
    <path d="M 292.426534 125.461397 
L 295.977443 125.461397 
L 295.977443 7.199478 
L 292.426534 7.199478 
z
" clip-path="url(#p9a6e74f3aa)" style="fill: #0000ff"/>
   </g>
   <g id="patch_139">
    <path d="M 296.86517 125.382642 
L 300.41608 125.382642 
L 300.41608 7.199485 
L 296.86517 7.199485 
z
" clip-path="url(#p9a6e74f3aa)" style="fill: #0000ff"/>
   </g>
   <g id="patch_140">
    <path d="M 301.303807 125.547779 
L 304.854716 125.547779 
L 304.854716 7.199478 
L 301.303807 7.199478 
z
" clip-path="url(#p9a6e74f3aa)" style="fill: #0000ff"/>
   </g>
   <g id="patch_141">
    <path d="M 305.742443 125.559482 
L 309.293352 125.559482 
L 309.293352 7.199478 
L 305.742443 7.199478 
z
" clip-path="url(#p9a6e74f3aa)" style="fill: #0000ff"/>
   </g>
   <g id="patch_142">
    <path d="M 310.18108 125.46561 
L 313.731989 125.46561 
L 313.731989 7.199485 
L 310.18108 7.199485 
z
" clip-path="url(#p9a6e74f3aa)" style="fill: #0000ff"/>
   </g>
   <g id="patch_143">
    <path d="M 314.619716 125.562487 
L 318.170625 125.562487 
L 318.170625 7.199478 
L 314.619716 7.199478 
z
" clip-path="url(#p9a6e74f3aa)" style="fill: #0000ff"/>
   </g>
   <g id="patch_144">
    <path d="M 319.058352 125.525575 
L 322.609261 125.525575 
L 322.609261 7.199478 
L 319.058352 7.199478 
z
" clip-path="url(#p9a6e74f3aa)" style="fill: #0000ff"/>
   </g>
   <g id="patch_145">
    <path d="M 323.496989 125.562556 
L 327.047898 125.562556 
L 327.047898 7.199485 
L 323.496989 7.199485 
z
" clip-path="url(#p9a6e74f3aa)" style="fill: #0000ff"/>
   </g>
   <g id="patch_146">
    <path d="M 327.935625 125.504591 
L 331.486534 125.504591 
L 331.486534 7.199485 
L 327.935625 7.199485 
z
" clip-path="url(#p9a6e74f3aa)" style="fill: #0000ff"/>
   </g>
   <g id="patch_147">
    <path d="M 332.374261 125.465039 
L 335.92517 125.465039 
L 335.92517 7.199478 
L 332.374261 7.199478 
z
" clip-path="url(#p9a6e74f3aa)" style="fill: #0000ff"/>
   </g>
   <g id="patch_148">
    <path d="M 336.812898 125.560472 
L 340.363807 125.560472 
L 340.363807 7.199478 
L 336.812898 7.199478 
z
" clip-path="url(#p9a6e74f3aa)" style="fill: #0000ff"/>
   </g>
   <g id="patch_149">
    <path d="M 341.251534 125.540616 
L 344.802443 125.540616 
L 344.802443 7.199485 
L 341.251534 7.199485 
z
" clip-path="url(#p9a6e74f3aa)" style="fill: #0000ff"/>
   </g>
   <g id="patch_150">
    <path d="M 345.69017 125.177336 
L 349.24108 125.177336 
L 349.24108 7.199485 
L 345.69017 7.199485 
z
" clip-path="url(#p9a6e74f3aa)" style="fill: #0000ff"/>
   </g>
   <g id="patch_151">
    <path d="M 350.128807 125.5302 
L 353.679716 125.5302 
L 353.679716 7.199485 
L 350.128807 7.199485 
z
" clip-path="url(#p9a6e74f3aa)" style="fill: #0000ff"/>
   </g>
   <g id="patch_152">
    <path d="M 354.567443 125.299751 
L 358.118352 125.299751 
L 358.118352 7.199478 
L 354.567443 7.199478 
z
" clip-path="url(#p9a6e74f3aa)" style="fill: #0000ff"/>
   </g>
   <g id="patch_153">
    <path d="M 359.00608 125.412977 
L 362.556989 125.412977 
L 362.556989 7.199485 
L 359.00608 7.199485 
z
" clip-path="url(#p9a6e74f3aa)" style="fill: #0000ff"/>
   </g>
   <g id="patch_154">
    <path d="M 363.444716 125.547856 
L 366.995625 125.547856 
L 366.995625 7.199478 
L 363.444716 7.199478 
z
" clip-path="url(#p9a6e74f3aa)" style="fill: #0000ff"/>
   </g>
   <g id="patch_155">
    <path d="M 367.883352 125.540347 
L 371.434261 125.540347 
L 371.434261 7.199464 
L 367.883352 7.199464 
z
" clip-path="url(#p9a6e74f3aa)" style="fill: #0000ff"/>
   </g>
   <g id="patch_156">
    <path d="M 372.321989 125.553675 
L 375.872898 125.553675 
L 375.872898 7.199478 
L 372.321989 7.199478 
z
" clip-path="url(#p9a6e74f3aa)" style="fill: #0000ff"/>
   </g>
   <g id="patch_157">
    <path d="M 376.760625 123.93495 
L 380.311534 123.93495 
L 380.311534 7.199485 
L 376.760625 7.199485 
z
" clip-path="url(#p9a6e74f3aa)" style="fill: #0000ff"/>
   </g>
   <g id="patch_158">
    <path d="M 381.199261 125.110677 
L 384.75017 125.110677 
L 384.75017 7.199478 
L 381.199261 7.199478 
z
" clip-path="url(#p9a6e74f3aa)" style="fill: #0000ff"/>
   </g>
   <g id="patch_159">
    <path d="M 385.637898 125.561074 
L 389.188807 125.561074 
L 389.188807 7.199485 
L 385.637898 7.199485 
z
" clip-path="url(#p9a6e74f3aa)" style="fill: #0000ff"/>
   </g>
   <g id="patch_160">
    <path d="M 390.076534 125.511875 
L 393.627443 125.511875 
L 393.627443 7.199478 
L 390.076534 7.199478 
z
" clip-path="url(#p9a6e74f3aa)" style="fill: #0000ff"/>
   </g>
   <g id="patch_161">
    <path d="M 394.51517 125.466425 
L 398.06608 125.466425 
L 398.06608 7.199485 
L 394.51517 7.199485 
z
" clip-path="url(#p9a6e74f3aa)" style="fill: #0000ff"/>
   </g>
   <g id="patch_162">
    <path d="M 398.953807 125.557055 
L 402.504716 125.557055 
L 402.504716 7.199478 
L 398.953807 7.199478 
z
" clip-path="url(#p9a6e74f3aa)" style="fill: #0000ff"/>
   </g>
   <g id="matplotlib.axis_1">
    <g id="xtick_1">
     <g id="line2d_1">
      <defs>
       <path id="m71a388197d" d="M 0 0 
L 0 3.5 
" style="stroke: #000000; stroke-width: 0.8"/>
      </defs>
      <g>
       <use xlink:href="#m71a388197d" x="50.076989" y="125.562487" style="stroke: #000000; stroke-width: 0.8"/>
      </g>
     </g>
     <g id="text_1">
      <!-- 0 -->
      <g transform="translate(46.895739 140.160924) scale(0.1 -0.1)">
       <defs>
        <path id="DejaVuSans-30" d="M 2034 4250 
Q 1547 4250 1301 3770 
Q 1056 3291 1056 2328 
Q 1056 1369 1301 889 
Q 1547 409 2034 409 
Q 2525 409 2770 889 
Q 3016 1369 3016 2328 
Q 3016 3291 2770 3770 
Q 2525 4250 2034 4250 
z
M 2034 4750 
Q 2819 4750 3233 4129 
Q 3647 3509 3647 2328 
Q 3647 1150 3233 529 
Q 2819 -91 2034 -91 
Q 1250 -91 836 529 
Q 422 1150 422 2328 
Q 422 3509 836 4129 
Q 1250 4750 2034 4750 
z
" transform="scale(0.015625)"/>
       </defs>
       <use xlink:href="#DejaVuSans-30"/>
      </g>
     </g>
    </g>
    <g id="xtick_2">
     <g id="line2d_2">
      <g>
       <use xlink:href="#m71a388197d" x="94.463352" y="125.562487" style="stroke: #000000; stroke-width: 0.8"/>
      </g>
     </g>
     <g id="text_2">
      <!-- 10 -->
      <g transform="translate(88.100852 140.160924) scale(0.1 -0.1)">
       <defs>
        <path id="DejaVuSans-31" d="M 794 531 
L 1825 531 
L 1825 4091 
L 703 3866 
L 703 4441 
L 1819 4666 
L 2450 4666 
L 2450 531 
L 3481 531 
L 3481 0 
L 794 0 
L 794 531 
z
" transform="scale(0.015625)"/>
       </defs>
       <use xlink:href="#DejaVuSans-31"/>
       <use xlink:href="#DejaVuSans-30" transform="translate(63.623047 0)"/>
      </g>
     </g>
    </g>
    <g id="xtick_3">
     <g id="line2d_3">
      <g>
       <use xlink:href="#m71a388197d" x="138.849716" y="125.562487" style="stroke: #000000; stroke-width: 0.8"/>
      </g>
     </g>
     <g id="text_3">
      <!-- 20 -->
      <g transform="translate(132.487216 140.160924) scale(0.1 -0.1)">
       <defs>
        <path id="DejaVuSans-32" d="M 1228 531 
L 3431 531 
L 3431 0 
L 469 0 
L 469 531 
Q 828 903 1448 1529 
Q 2069 2156 2228 2338 
Q 2531 2678 2651 2914 
Q 2772 3150 2772 3378 
Q 2772 3750 2511 3984 
Q 2250 4219 1831 4219 
Q 1534 4219 1204 4116 
Q 875 4013 500 3803 
L 500 4441 
Q 881 4594 1212 4672 
Q 1544 4750 1819 4750 
Q 2544 4750 2975 4387 
Q 3406 4025 3406 3419 
Q 3406 3131 3298 2873 
Q 3191 2616 2906 2266 
Q 2828 2175 2409 1742 
Q 1991 1309 1228 531 
z
" transform="scale(0.015625)"/>
       </defs>
       <use xlink:href="#DejaVuSans-32"/>
       <use xlink:href="#DejaVuSans-30" transform="translate(63.623047 0)"/>
      </g>
     </g>
    </g>
    <g id="xtick_4">
     <g id="line2d_4">
      <g>
       <use xlink:href="#m71a388197d" x="183.23608" y="125.562487" style="stroke: #000000; stroke-width: 0.8"/>
      </g>
     </g>
     <g id="text_4">
      <!-- 30 -->
      <g transform="translate(176.87358 140.160924) scale(0.1 -0.1)">
       <defs>
        <path id="DejaVuSans-33" d="M 2597 2516 
Q 3050 2419 3304 2112 
Q 3559 1806 3559 1356 
Q 3559 666 3084 287 
Q 2609 -91 1734 -91 
Q 1441 -91 1130 -33 
Q 819 25 488 141 
L 488 750 
Q 750 597 1062 519 
Q 1375 441 1716 441 
Q 2309 441 2620 675 
Q 2931 909 2931 1356 
Q 2931 1769 2642 2001 
Q 2353 2234 1838 2234 
L 1294 2234 
L 1294 2753 
L 1863 2753 
Q 2328 2753 2575 2939 
Q 2822 3125 2822 3475 
Q 2822 3834 2567 4026 
Q 2313 4219 1838 4219 
Q 1578 4219 1281 4162 
Q 984 4106 628 3988 
L 628 4550 
Q 988 4650 1302 4700 
Q 1616 4750 1894 4750 
Q 2613 4750 3031 4423 
Q 3450 4097 3450 3541 
Q 3450 3153 3228 2886 
Q 3006 2619 2597 2516 
z
" transform="scale(0.015625)"/>
       </defs>
       <use xlink:href="#DejaVuSans-33"/>
       <use xlink:href="#DejaVuSans-30" transform="translate(63.623047 0)"/>
      </g>
     </g>
    </g>
    <g id="xtick_5">
     <g id="line2d_5">
      <g>
       <use xlink:href="#m71a388197d" x="227.622443" y="125.562487" style="stroke: #000000; stroke-width: 0.8"/>
      </g>
     </g>
     <g id="text_5">
      <!-- 40 -->
      <g transform="translate(221.259943 140.160924) scale(0.1 -0.1)">
       <defs>
        <path id="DejaVuSans-34" d="M 2419 4116 
L 825 1625 
L 2419 1625 
L 2419 4116 
z
M 2253 4666 
L 3047 4666 
L 3047 1625 
L 3713 1625 
L 3713 1100 
L 3047 1100 
L 3047 0 
L 2419 0 
L 2419 1100 
L 313 1100 
L 313 1709 
L 2253 4666 
z
" transform="scale(0.015625)"/>
       </defs>
       <use xlink:href="#DejaVuSans-34"/>
       <use xlink:href="#DejaVuSans-30" transform="translate(63.623047 0)"/>
      </g>
     </g>
    </g>
    <g id="xtick_6">
     <g id="line2d_6">
      <g>
       <use xlink:href="#m71a388197d" x="272.008807" y="125.562487" style="stroke: #000000; stroke-width: 0.8"/>
      </g>
     </g>
     <g id="text_6">
      <!-- 50 -->
      <g transform="translate(265.646307 140.160924) scale(0.1 -0.1)">
       <defs>
        <path id="DejaVuSans-35" d="M 691 4666 
L 3169 4666 
L 3169 4134 
L 1269 4134 
L 1269 2991 
Q 1406 3038 1543 3061 
Q 1681 3084 1819 3084 
Q 2600 3084 3056 2656 
Q 3513 2228 3513 1497 
Q 3513 744 3044 326 
Q 2575 -91 1722 -91 
Q 1428 -91 1123 -41 
Q 819 9 494 109 
L 494 744 
Q 775 591 1075 516 
Q 1375 441 1709 441 
Q 2250 441 2565 725 
Q 2881 1009 2881 1497 
Q 2881 1984 2565 2268 
Q 2250 2553 1709 2553 
Q 1456 2553 1204 2497 
Q 953 2441 691 2322 
L 691 4666 
z
" transform="scale(0.015625)"/>
       </defs>
       <use xlink:href="#DejaVuSans-35"/>
       <use xlink:href="#DejaVuSans-30" transform="translate(63.623047 0)"/>
      </g>
     </g>
    </g>
    <g id="xtick_7">
     <g id="line2d_7">
      <g>
       <use xlink:href="#m71a388197d" x="316.39517" y="125.562487" style="stroke: #000000; stroke-width: 0.8"/>
      </g>
     </g>
     <g id="text_7">
      <!-- 60 -->
      <g transform="translate(310.03267 140.160924) scale(0.1 -0.1)">
       <defs>
        <path id="DejaVuSans-36" d="M 2113 2584 
Q 1688 2584 1439 2293 
Q 1191 2003 1191 1497 
Q 1191 994 1439 701 
Q 1688 409 2113 409 
Q 2538 409 2786 701 
Q 3034 994 3034 1497 
Q 3034 2003 2786 2293 
Q 2538 2584 2113 2584 
z
M 3366 4563 
L 3366 3988 
Q 3128 4100 2886 4159 
Q 2644 4219 2406 4219 
Q 1781 4219 1451 3797 
Q 1122 3375 1075 2522 
Q 1259 2794 1537 2939 
Q 1816 3084 2150 3084 
Q 2853 3084 3261 2657 
Q 3669 2231 3669 1497 
Q 3669 778 3244 343 
Q 2819 -91 2113 -91 
Q 1303 -91 875 529 
Q 447 1150 447 2328 
Q 447 3434 972 4092 
Q 1497 4750 2381 4750 
Q 2619 4750 2861 4703 
Q 3103 4656 3366 4563 
z
" transform="scale(0.015625)"/>
       </defs>
       <use xlink:href="#DejaVuSans-36"/>
       <use xlink:href="#DejaVuSans-30" transform="translate(63.623047 0)"/>
      </g>
     </g>
    </g>
    <g id="xtick_8">
     <g id="line2d_8">
      <g>
       <use xlink:href="#m71a388197d" x="360.781534" y="125.562487" style="stroke: #000000; stroke-width: 0.8"/>
      </g>
     </g>
     <g id="text_8">
      <!-- 70 -->
      <g transform="translate(354.419034 140.160924) scale(0.1 -0.1)">
       <defs>
        <path id="DejaVuSans-37" d="M 525 4666 
L 3525 4666 
L 3525 4397 
L 1831 0 
L 1172 0 
L 2766 4134 
L 525 4134 
L 525 4666 
z
" transform="scale(0.015625)"/>
       </defs>
       <use xlink:href="#DejaVuSans-37"/>
       <use xlink:href="#DejaVuSans-30" transform="translate(63.623047 0)"/>
      </g>
     </g>
    </g>
    <g id="xtick_9">
     <g id="line2d_9">
      <g>
       <use xlink:href="#m71a388197d" x="405.167898" y="125.562487" style="stroke: #000000; stroke-width: 0.8"/>
      </g>
     </g>
     <g id="text_9">
      <!-- 80 -->
      <g transform="translate(398.805398 140.160924) scale(0.1 -0.1)">
       <defs>
        <path id="DejaVuSans-38" d="M 2034 2216 
Q 1584 2216 1326 1975 
Q 1069 1734 1069 1313 
Q 1069 891 1326 650 
Q 1584 409 2034 409 
Q 2484 409 2743 651 
Q 3003 894 3003 1313 
Q 3003 1734 2745 1975 
Q 2488 2216 2034 2216 
z
M 1403 2484 
Q 997 2584 770 2862 
Q 544 3141 544 3541 
Q 544 4100 942 4425 
Q 1341 4750 2034 4750 
Q 2731 4750 3128 4425 
Q 3525 4100 3525 3541 
Q 3525 3141 3298 2862 
Q 3072 2584 2669 2484 
Q 3125 2378 3379 2068 
Q 3634 1759 3634 1313 
Q 3634 634 3220 271 
Q 2806 -91 2034 -91 
Q 1263 -91 848 271 
Q 434 634 434 1313 
Q 434 1759 690 2068 
Q 947 2378 1403 2484 
z
M 1172 3481 
Q 1172 3119 1398 2916 
Q 1625 2713 2034 2713 
Q 2441 2713 2670 2916 
Q 2900 3119 2900 3481 
Q 2900 3844 2670 4047 
Q 2441 4250 2034 4250 
Q 1625 4250 1398 4047 
Q 1172 3844 1172 3481 
z
" transform="scale(0.015625)"/>
       </defs>
       <use xlink:href="#DejaVuSans-38"/>
       <use xlink:href="#DejaVuSans-30" transform="translate(63.623047 0)"/>
      </g>
     </g>
    </g>
   </g>
   <g id="matplotlib.axis_2">
    <g id="ytick_1">
     <g id="line2d_10">
      <defs>
       <path id="m87c716265e" d="M 0 0 
L -3.5 0 
" style="stroke: #000000; stroke-width: 0.8"/>
      </defs>
      <g>
       <use xlink:href="#m87c716265e" x="30.103125" y="101.890387" style="stroke: #000000; stroke-width: 0.8"/>
      </g>
     </g>
     <g id="text_10">
      <!-- 0.2 -->
      <g transform="translate(7.2 105.689606) scale(0.1 -0.1)">
       <defs>
        <path id="DejaVuSans-2e" d="M 684 794 
L 1344 794 
L 1344 0 
L 684 0 
L 684 794 
z
" transform="scale(0.015625)"/>
       </defs>
       <use xlink:href="#DejaVuSans-30"/>
       <use xlink:href="#DejaVuSans-2e" transform="translate(63.623047 0)"/>
       <use xlink:href="#DejaVuSans-32" transform="translate(95.410156 0)"/>
      </g>
     </g>
    </g>
    <g id="ytick_2">
     <g id="line2d_11">
      <g>
       <use xlink:href="#m87c716265e" x="30.103125" y="78.21766" style="stroke: #000000; stroke-width: 0.8"/>
      </g>
     </g>
     <g id="text_11">
      <!-- 0.4 -->
      <g transform="translate(7.2 82.016878) scale(0.1 -0.1)">
       <use xlink:href="#DejaVuSans-30"/>
       <use xlink:href="#DejaVuSans-2e" transform="translate(63.623047 0)"/>
       <use xlink:href="#DejaVuSans-34" transform="translate(95.410156 0)"/>
      </g>
     </g>
    </g>
    <g id="ytick_3">
     <g id="line2d_12">
      <g>
       <use xlink:href="#m87c716265e" x="30.103125" y="54.544932" style="stroke: #000000; stroke-width: 0.8"/>
      </g>
     </g>
     <g id="text_12">
      <!-- 0.6 -->
      <g transform="translate(7.2 58.344151) scale(0.1 -0.1)">
       <use xlink:href="#DejaVuSans-30"/>
       <use xlink:href="#DejaVuSans-2e" transform="translate(63.623047 0)"/>
       <use xlink:href="#DejaVuSans-36" transform="translate(95.410156 0)"/>
      </g>
     </g>
    </g>
    <g id="ytick_4">
     <g id="line2d_13">
      <g>
       <use xlink:href="#m87c716265e" x="30.103125" y="30.872205" style="stroke: #000000; stroke-width: 0.8"/>
      </g>
     </g>
     <g id="text_13">
      <!-- 0.8 -->
      <g transform="translate(7.2 34.671424) scale(0.1 -0.1)">
       <use xlink:href="#DejaVuSans-30"/>
       <use xlink:href="#DejaVuSans-2e" transform="translate(63.623047 0)"/>
       <use xlink:href="#DejaVuSans-38" transform="translate(95.410156 0)"/>
      </g>
     </g>
    </g>
   </g>
   <g id="line2d_14">
    <path d="M 47.85767 66.381296 
L 402.94858 66.381296 
" clip-path="url(#p9a6e74f3aa)" style="fill: none; stroke: #ff0000; stroke-linecap: square"/>
   </g>
   <g id="patch_163">
    <path d="M 30.103125 125.562487 
L 30.103125 7.2 
" style="fill: none; stroke: #000000; stroke-width: 0.8; stroke-linejoin: miter; stroke-linecap: square"/>
   </g>
   <g id="patch_164">
    <path d="M 420.703125 125.562487 
L 420.703125 7.2 
" style="fill: none; stroke: #000000; stroke-width: 0.8; stroke-linejoin: miter; stroke-linecap: square"/>
   </g>
   <g id="patch_165">
    <path d="M 30.103125 125.562487 
L 420.703125 125.562487 
" style="fill: none; stroke: #000000; stroke-width: 0.8; stroke-linejoin: miter; stroke-linecap: square"/>
   </g>
   <g id="patch_166">
    <path d="M 30.103125 7.2 
L 420.703125 7.2 
" style="fill: none; stroke: #000000; stroke-width: 0.8; stroke-linejoin: miter; stroke-linecap: square"/>
   </g>
   <g id="legend_1">
    <g id="patch_167">
     <path d="M 348.735937 44.55625 
L 413.703125 44.55625 
Q 415.703125 44.55625 415.703125 42.55625 
L 415.703125 14.2 
Q 415.703125 12.2 413.703125 12.2 
L 348.735937 12.2 
Q 346.735937 12.2 346.735937 14.2 
L 346.735937 42.55625 
Q 346.735937 44.55625 348.735937 44.55625 
z
" style="fill: #ffffff; opacity: 0.8; stroke: #cccccc; stroke-linejoin: miter"/>
    </g>
    <g id="patch_168">
     <path d="M 350.735937 23.798438 
L 370.735937 23.798438 
L 370.735937 16.798438 
L 350.735937 16.798438 
z
" style="fill: #bfbf00"/>
    </g>
    <g id="text_14">
     <!-- p(dog) -->
     <g transform="translate(378.735937 23.798438) scale(0.1 -0.1)">
      <defs>
       <path id="DejaVuSans-70" d="M 1159 525 
L 1159 -1331 
L 581 -1331 
L 581 3500 
L 1159 3500 
L 1159 2969 
Q 1341 3281 1617 3432 
Q 1894 3584 2278 3584 
Q 2916 3584 3314 3078 
Q 3713 2572 3713 1747 
Q 3713 922 3314 415 
Q 2916 -91 2278 -91 
Q 1894 -91 1617 61 
Q 1341 213 1159 525 
z
M 3116 1747 
Q 3116 2381 2855 2742 
Q 2594 3103 2138 3103 
Q 1681 3103 1420 2742 
Q 1159 2381 1159 1747 
Q 1159 1113 1420 752 
Q 1681 391 2138 391 
Q 2594 391 2855 752 
Q 3116 1113 3116 1747 
z
" transform="scale(0.015625)"/>
       <path id="DejaVuSans-28" d="M 1984 4856 
Q 1566 4138 1362 3434 
Q 1159 2731 1159 2009 
Q 1159 1288 1364 580 
Q 1569 -128 1984 -844 
L 1484 -844 
Q 1016 -109 783 600 
Q 550 1309 550 2009 
Q 550 2706 781 3412 
Q 1013 4119 1484 4856 
L 1984 4856 
z
" transform="scale(0.015625)"/>
       <path id="DejaVuSans-64" d="M 2906 2969 
L 2906 4863 
L 3481 4863 
L 3481 0 
L 2906 0 
L 2906 525 
Q 2725 213 2448 61 
Q 2172 -91 1784 -91 
Q 1150 -91 751 415 
Q 353 922 353 1747 
Q 353 2572 751 3078 
Q 1150 3584 1784 3584 
Q 2172 3584 2448 3432 
Q 2725 3281 2906 2969 
z
M 947 1747 
Q 947 1113 1208 752 
Q 1469 391 1925 391 
Q 2381 391 2643 752 
Q 2906 1113 2906 1747 
Q 2906 2381 2643 2742 
Q 2381 3103 1925 3103 
Q 1469 3103 1208 2742 
Q 947 2381 947 1747 
z
" transform="scale(0.015625)"/>
       <path id="DejaVuSans-6f" d="M 1959 3097 
Q 1497 3097 1228 2736 
Q 959 2375 959 1747 
Q 959 1119 1226 758 
Q 1494 397 1959 397 
Q 2419 397 2687 759 
Q 2956 1122 2956 1747 
Q 2956 2369 2687 2733 
Q 2419 3097 1959 3097 
z
M 1959 3584 
Q 2709 3584 3137 3096 
Q 3566 2609 3566 1747 
Q 3566 888 3137 398 
Q 2709 -91 1959 -91 
Q 1206 -91 779 398 
Q 353 888 353 1747 
Q 353 2609 779 3096 
Q 1206 3584 1959 3584 
z
" transform="scale(0.015625)"/>
       <path id="DejaVuSans-67" d="M 2906 1791 
Q 2906 2416 2648 2759 
Q 2391 3103 1925 3103 
Q 1463 3103 1205 2759 
Q 947 2416 947 1791 
Q 947 1169 1205 825 
Q 1463 481 1925 481 
Q 2391 481 2648 825 
Q 2906 1169 2906 1791 
z
M 3481 434 
Q 3481 -459 3084 -895 
Q 2688 -1331 1869 -1331 
Q 1566 -1331 1297 -1286 
Q 1028 -1241 775 -1147 
L 775 -588 
Q 1028 -725 1275 -790 
Q 1522 -856 1778 -856 
Q 2344 -856 2625 -561 
Q 2906 -266 2906 331 
L 2906 616 
Q 2728 306 2450 153 
Q 2172 0 1784 0 
Q 1141 0 747 490 
Q 353 981 353 1791 
Q 353 2603 747 3093 
Q 1141 3584 1784 3584 
Q 2172 3584 2450 3431 
Q 2728 3278 2906 2969 
L 2906 3500 
L 3481 3500 
L 3481 434 
z
" transform="scale(0.015625)"/>
       <path id="DejaVuSans-29" d="M 513 4856 
L 1013 4856 
Q 1481 4119 1714 3412 
Q 1947 2706 1947 2009 
Q 1947 1309 1714 600 
Q 1481 -109 1013 -844 
L 513 -844 
Q 928 -128 1133 580 
Q 1338 1288 1338 2009 
Q 1338 2731 1133 3434 
Q 928 4138 513 4856 
z
" transform="scale(0.015625)"/>
      </defs>
      <use xlink:href="#DejaVuSans-70"/>
      <use xlink:href="#DejaVuSans-28" transform="translate(63.476562 0)"/>
      <use xlink:href="#DejaVuSans-64" transform="translate(102.490234 0)"/>
      <use xlink:href="#DejaVuSans-6f" transform="translate(165.966797 0)"/>
      <use xlink:href="#DejaVuSans-67" transform="translate(227.148438 0)"/>
      <use xlink:href="#DejaVuSans-29" transform="translate(290.625 0)"/>
     </g>
    </g>
    <g id="patch_169">
     <path d="M 350.735937 38.476563 
L 370.735937 38.476563 
L 370.735937 31.476563 
L 350.735937 31.476563 
z
" style="fill: #0000ff"/>
    </g>
    <g id="text_15">
     <!-- p(cat) -->
     <g transform="translate(378.735937 38.476563) scale(0.1 -0.1)">
      <defs>
       <path id="DejaVuSans-63" d="M 3122 3366 
L 3122 2828 
Q 2878 2963 2633 3030 
Q 2388 3097 2138 3097 
Q 1578 3097 1268 2742 
Q 959 2388 959 1747 
Q 959 1106 1268 751 
Q 1578 397 2138 397 
Q 2388 397 2633 464 
Q 2878 531 3122 666 
L 3122 134 
Q 2881 22 2623 -34 
Q 2366 -91 2075 -91 
Q 1284 -91 818 406 
Q 353 903 353 1747 
Q 353 2603 823 3093 
Q 1294 3584 2113 3584 
Q 2378 3584 2631 3529 
Q 2884 3475 3122 3366 
z
" transform="scale(0.015625)"/>
       <path id="DejaVuSans-61" d="M 2194 1759 
Q 1497 1759 1228 1600 
Q 959 1441 959 1056 
Q 959 750 1161 570 
Q 1363 391 1709 391 
Q 2188 391 2477 730 
Q 2766 1069 2766 1631 
L 2766 1759 
L 2194 1759 
z
M 3341 1997 
L 3341 0 
L 2766 0 
L 2766 531 
Q 2569 213 2275 61 
Q 1981 -91 1556 -91 
Q 1019 -91 701 211 
Q 384 513 384 1019 
Q 384 1609 779 1909 
Q 1175 2209 1959 2209 
L 2766 2209 
L 2766 2266 
Q 2766 2663 2505 2880 
Q 2244 3097 1772 3097 
Q 1472 3097 1187 3025 
Q 903 2953 641 2809 
L 641 3341 
Q 956 3463 1253 3523 
Q 1550 3584 1831 3584 
Q 2591 3584 2966 3190 
Q 3341 2797 3341 1997 
z
" transform="scale(0.015625)"/>
       <path id="DejaVuSans-74" d="M 1172 4494 
L 1172 3500 
L 2356 3500 
L 2356 3053 
L 1172 3053 
L 1172 1153 
Q 1172 725 1289 603 
Q 1406 481 1766 481 
L 2356 481 
L 2356 0 
L 1766 0 
Q 1100 0 847 248 
Q 594 497 594 1153 
L 594 3053 
L 172 3053 
L 172 3500 
L 594 3500 
L 594 4494 
L 1172 4494 
z
" transform="scale(0.015625)"/>
      </defs>
      <use xlink:href="#DejaVuSans-70"/>
      <use xlink:href="#DejaVuSans-28" transform="translate(63.476562 0)"/>
      <use xlink:href="#DejaVuSans-63" transform="translate(102.490234 0)"/>
      <use xlink:href="#DejaVuSans-61" transform="translate(157.470703 0)"/>
      <use xlink:href="#DejaVuSans-74" transform="translate(218.75 0)"/>
      <use xlink:href="#DejaVuSans-29" transform="translate(257.958984 0)"/>
     </g>
    </g>
   </g>
  </g>
 </g>
 <defs>
  <clipPath id="p9a6e74f3aa">
   <rect x="30.103125" y="7.2" width="390.6" height="118.362487"/>
  </clipPath>
 </defs>
</svg>
