<?xml version="1.0" encoding="utf-8" standalone="no"?>
<!DOCTYPE svg PUBLIC "-//W3C//DTD SVG 1.1//EN"
  "http://www.w3.org/Graphics/SVG/1.1/DTD/svg11.dtd">
<svg xmlns:xlink="http://www.w3.org/1999/xlink" width="421.678125pt" height="174.298125pt" viewBox="0 0 421.678125 174.298125" xmlns="http://www.w3.org/2000/svg" version="1.1">
 <metadata>
  <rdf:RDF xmlns:dc="http://purl.org/dc/elements/1.1/" xmlns:cc="http://creativecommons.org/ns#" xmlns:rdf="http://www.w3.org/1999/02/22-rdf-syntax-ns#">
   <cc:Work>
    <dc:type rdf:resource="http://purl.org/dc/dcmitype/StillImage"/>
    <dc:date>2025-05-08T14:45:46.744461</dc:date>
    <dc:format>image/svg+xml</dc:format>
    <dc:creator>
     <cc:Agent>
      <dc:title>Matplotlib v3.10.0, https://matplotlib.org/</dc:title>
     </cc:Agent>
    </dc:creator>
   </cc:Work>
  </rdf:RDF>
 </metadata>
 <defs>
  <style type="text/css">*{stroke-linejoin: round; stroke-linecap: butt}</style>
 </defs>
 <g id="figure_1">
  <g id="patch_1">
   <path d="M 0 174.298125 
L 421.678125 174.298125 
L 421.678125 0 
L 0 0 
z
" style="fill: #ffffff"/>
  </g>
  <g id="axes_1">
   <g id="patch_2">
    <path d="M 23.878125 150.42 
L 414.478125 150.42 
L 414.478125 7.2 
L 23.878125 7.2 
z
" style="fill: #ffffff"/>
   </g>
   <g id="patch_3">
    <path d="M 42.076534 78.81 
L 45.627443 78.81 
L 45.627443 19.628182 
L 42.076534 19.628182 
z
" clip-path="url(#pc78ea751f6)" style="fill: #1f77b4"/>
   </g>
   <g id="patch_4">
    <path d="M 46.51517 78.81 
L 50.06608 78.81 
L 50.06608 19.628182 
L 46.51517 19.628182 
z
" clip-path="url(#pc78ea751f6)" style="fill: #1f77b4"/>
   </g>
   <g id="patch_5">
    <path d="M 50.953807 78.81 
L 54.504716 78.81 
L 54.504716 19.628182 
L 50.953807 19.628182 
z
" clip-path="url(#pc78ea751f6)" style="fill: #1f77b4"/>
   </g>
   <g id="patch_6">
    <path d="M 55.392443 78.81 
L 58.943352 78.81 
L 58.943352 19.628182 
L 55.392443 19.628182 
z
" clip-path="url(#pc78ea751f6)" style="fill: #1f77b4"/>
   </g>
   <g id="patch_7">
    <path d="M 59.83108 78.81 
L 63.381989 78.81 
L 63.381989 19.628182 
L 59.83108 19.628182 
z
" clip-path="url(#pc78ea751f6)" style="fill: #1f77b4"/>
   </g>
   <g id="patch_8">
    <path d="M 64.269716 78.81 
L 67.820625 78.81 
L 67.820625 19.628182 
L 64.269716 19.628182 
z
" clip-path="url(#pc78ea751f6)" style="fill: #1f77b4"/>
   </g>
   <g id="patch_9">
    <path d="M 68.708352 78.81 
L 72.259261 78.81 
L 72.259261 19.628182 
L 68.708352 19.628182 
z
" clip-path="url(#pc78ea751f6)" style="fill: #1f77b4"/>
   </g>
   <g id="patch_10">
    <path d="M 73.146989 78.81 
L 76.697898 78.81 
L 76.697898 19.628182 
L 73.146989 19.628182 
z
" clip-path="url(#pc78ea751f6)" style="fill: #1f77b4"/>
   </g>
   <g id="patch_11">
    <path d="M 77.585625 78.81 
L 81.136534 78.81 
L 81.136534 137.991818 
L 77.585625 137.991818 
z
" clip-path="url(#pc78ea751f6)" style="fill: #1f77b4"/>
   </g>
   <g id="patch_12">
    <path d="M 82.024261 78.81 
L 85.57517 78.81 
L 85.57517 19.628182 
L 82.024261 19.628182 
z
" clip-path="url(#pc78ea751f6)" style="fill: #1f77b4"/>
   </g>
   <g id="patch_13">
    <path d="M 86.462898 78.81 
L 90.013807 78.81 
L 90.013807 19.628182 
L 86.462898 19.628182 
z
" clip-path="url(#pc78ea751f6)" style="fill: #1f77b4"/>
   </g>
   <g id="patch_14">
    <path d="M 90.901534 78.81 
L 94.452443 78.81 
L 94.452443 137.991818 
L 90.901534 137.991818 
z
" clip-path="url(#pc78ea751f6)" style="fill: #1f77b4"/>
   </g>
   <g id="patch_15">
    <path d="M 95.34017 78.81 
L 98.89108 78.81 
L 98.89108 137.991818 
L 95.34017 137.991818 
z
" clip-path="url(#pc78ea751f6)" style="fill: #1f77b4"/>
   </g>
   <g id="patch_16">
    <path d="M 99.778807 78.81 
L 103.329716 78.81 
L 103.329716 19.628182 
L 99.778807 19.628182 
z
" clip-path="url(#pc78ea751f6)" style="fill: #1f77b4"/>
   </g>
   <g id="patch_17">
    <path d="M 104.217443 78.81 
L 107.768352 78.81 
L 107.768352 19.628182 
L 104.217443 19.628182 
z
" clip-path="url(#pc78ea751f6)" style="fill: #1f77b4"/>
   </g>
   <g id="patch_18">
    <path d="M 108.65608 78.81 
L 112.206989 78.81 
L 112.206989 19.628182 
L 108.65608 19.628182 
z
" clip-path="url(#pc78ea751f6)" style="fill: #1f77b4"/>
   </g>
   <g id="patch_19">
    <path d="M 113.094716 78.81 
L 116.645625 78.81 
L 116.645625 19.628182 
L 113.094716 19.628182 
z
" clip-path="url(#pc78ea751f6)" style="fill: #1f77b4"/>
   </g>
   <g id="patch_20">
    <path d="M 117.533352 78.81 
L 121.084261 78.81 
L 121.084261 19.628182 
L 117.533352 19.628182 
z
" clip-path="url(#pc78ea751f6)" style="fill: #1f77b4"/>
   </g>
   <g id="patch_21">
    <path d="M 121.971989 78.81 
L 125.522898 78.81 
L 125.522898 19.628182 
L 121.971989 19.628182 
z
" clip-path="url(#pc78ea751f6)" style="fill: #1f77b4"/>
   </g>
   <g id="patch_22">
    <path d="M 126.410625 78.81 
L 129.961534 78.81 
L 129.961534 19.628182 
L 126.410625 19.628182 
z
" clip-path="url(#pc78ea751f6)" style="fill: #1f77b4"/>
   </g>
   <g id="patch_23">
    <path d="M 130.849261 78.81 
L 134.40017 78.81 
L 134.40017 19.628182 
L 130.849261 19.628182 
z
" clip-path="url(#pc78ea751f6)" style="fill: #1f77b4"/>
   </g>
   <g id="patch_24">
    <path d="M 135.287898 78.81 
L 138.838807 78.81 
L 138.838807 19.628182 
L 135.287898 19.628182 
z
" clip-path="url(#pc78ea751f6)" style="fill: #1f77b4"/>
   </g>
   <g id="patch_25">
    <path d="M 139.726534 78.81 
L 143.277443 78.81 
L 143.277443 137.991818 
L 139.726534 137.991818 
z
" clip-path="url(#pc78ea751f6)" style="fill: #1f77b4"/>
   </g>
   <g id="patch_26">
    <path d="M 144.16517 78.81 
L 147.71608 78.81 
L 147.71608 19.628182 
L 144.16517 19.628182 
z
" clip-path="url(#pc78ea751f6)" style="fill: #1f77b4"/>
   </g>
   <g id="patch_27">
    <path d="M 148.603807 78.81 
L 152.154716 78.81 
L 152.154716 19.628182 
L 148.603807 19.628182 
z
" clip-path="url(#pc78ea751f6)" style="fill: #1f77b4"/>
   </g>
   <g id="patch_28">
    <path d="M 153.042443 78.81 
L 156.593352 78.81 
L 156.593352 137.991818 
L 153.042443 137.991818 
z
" clip-path="url(#pc78ea751f6)" style="fill: #1f77b4"/>
   </g>
   <g id="patch_29">
    <path d="M 157.48108 78.81 
L 161.031989 78.81 
L 161.031989 19.628182 
L 157.48108 19.628182 
z
" clip-path="url(#pc78ea751f6)" style="fill: #1f77b4"/>
   </g>
   <g id="patch_30">
    <path d="M 161.919716 78.81 
L 165.470625 78.81 
L 165.470625 137.991818 
L 161.919716 137.991818 
z
" clip-path="url(#pc78ea751f6)" style="fill: #1f77b4"/>
   </g>
   <g id="patch_31">
    <path d="M 166.358352 78.81 
L 169.909261 78.81 
L 169.909261 19.628182 
L 166.358352 19.628182 
z
" clip-path="url(#pc78ea751f6)" style="fill: #1f77b4"/>
   </g>
   <g id="patch_32">
    <path d="M 170.796989 78.81 
L 174.347898 78.81 
L 174.347898 19.628182 
L 170.796989 19.628182 
z
" clip-path="url(#pc78ea751f6)" style="fill: #1f77b4"/>
   </g>
   <g id="patch_33">
    <path d="M 175.235625 78.81 
L 178.786534 78.81 
L 178.786534 19.628182 
L 175.235625 19.628182 
z
" clip-path="url(#pc78ea751f6)" style="fill: #1f77b4"/>
   </g>
   <g id="patch_34">
    <path d="M 179.674261 78.81 
L 183.22517 78.81 
L 183.22517 19.628182 
L 179.674261 19.628182 
z
" clip-path="url(#pc78ea751f6)" style="fill: #1f77b4"/>
   </g>
   <g id="patch_35">
    <path d="M 184.112898 78.81 
L 187.663807 78.81 
L 187.663807 19.628182 
L 184.112898 19.628182 
z
" clip-path="url(#pc78ea751f6)" style="fill: #1f77b4"/>
   </g>
   <g id="patch_36">
    <path d="M 188.551534 78.81 
L 192.102443 78.81 
L 192.102443 19.628182 
L 188.551534 19.628182 
z
" clip-path="url(#pc78ea751f6)" style="fill: #1f77b4"/>
   </g>
   <g id="patch_37">
    <path d="M 192.99017 78.81 
L 196.54108 78.81 
L 196.54108 19.628182 
L 192.99017 19.628182 
z
" clip-path="url(#pc78ea751f6)" style="fill: #1f77b4"/>
   </g>
   <g id="patch_38">
    <path d="M 197.428807 78.81 
L 200.979716 78.81 
L 200.979716 19.628182 
L 197.428807 19.628182 
z
" clip-path="url(#pc78ea751f6)" style="fill: #1f77b4"/>
   </g>
   <g id="patch_39">
    <path d="M 201.867443 78.81 
L 205.418352 78.81 
L 205.418352 19.628182 
L 201.867443 19.628182 
z
" clip-path="url(#pc78ea751f6)" style="fill: #1f77b4"/>
   </g>
   <g id="patch_40">
    <path d="M 206.30608 78.81 
L 209.856989 78.81 
L 209.856989 19.628182 
L 206.30608 19.628182 
z
" clip-path="url(#pc78ea751f6)" style="fill: #1f77b4"/>
   </g>
   <g id="patch_41">
    <path d="M 210.744716 78.81 
L 214.295625 78.81 
L 214.295625 19.628182 
L 210.744716 19.628182 
z
" clip-path="url(#pc78ea751f6)" style="fill: #1f77b4"/>
   </g>
   <g id="patch_42">
    <path d="M 215.183352 78.81 
L 218.734261 78.81 
L 218.734261 137.991818 
L 215.183352 137.991818 
z
" clip-path="url(#pc78ea751f6)" style="fill: #1f77b4"/>
   </g>
   <g id="patch_43">
    <path d="M 219.621989 78.81 
L 223.172898 78.81 
L 223.172898 137.991818 
L 219.621989 137.991818 
z
" clip-path="url(#pc78ea751f6)" style="fill: #1f77b4"/>
   </g>
   <g id="patch_44">
    <path d="M 224.060625 78.81 
L 227.611534 78.81 
L 227.611534 137.991818 
L 224.060625 137.991818 
z
" clip-path="url(#pc78ea751f6)" style="fill: #1f77b4"/>
   </g>
   <g id="patch_45">
    <path d="M 228.499261 78.81 
L 232.05017 78.81 
L 232.05017 137.991818 
L 228.499261 137.991818 
z
" clip-path="url(#pc78ea751f6)" style="fill: #1f77b4"/>
   </g>
   <g id="patch_46">
    <path d="M 232.937898 78.81 
L 236.488807 78.81 
L 236.488807 137.991818 
L 232.937898 137.991818 
z
" clip-path="url(#pc78ea751f6)" style="fill: #1f77b4"/>
   </g>
   <g id="patch_47">
    <path d="M 237.376534 78.81 
L 240.927443 78.81 
L 240.927443 137.991818 
L 237.376534 137.991818 
z
" clip-path="url(#pc78ea751f6)" style="fill: #1f77b4"/>
   </g>
   <g id="patch_48">
    <path d="M 241.81517 78.81 
L 245.36608 78.81 
L 245.36608 137.991818 
L 241.81517 137.991818 
z
" clip-path="url(#pc78ea751f6)" style="fill: #1f77b4"/>
   </g>
   <g id="patch_49">
    <path d="M 246.253807 78.81 
L 249.804716 78.81 
L 249.804716 137.991818 
L 246.253807 137.991818 
z
" clip-path="url(#pc78ea751f6)" style="fill: #1f77b4"/>
   </g>
   <g id="patch_50">
    <path d="M 250.692443 78.81 
L 254.243352 78.81 
L 254.243352 137.991818 
L 250.692443 137.991818 
z
" clip-path="url(#pc78ea751f6)" style="fill: #1f77b4"/>
   </g>
   <g id="patch_51">
    <path d="M 255.13108 78.81 
L 258.681989 78.81 
L 258.681989 137.991818 
L 255.13108 137.991818 
z
" clip-path="url(#pc78ea751f6)" style="fill: #1f77b4"/>
   </g>
   <g id="patch_52">
    <path d="M 259.569716 78.81 
L 263.120625 78.81 
L 263.120625 137.991818 
L 259.569716 137.991818 
z
" clip-path="url(#pc78ea751f6)" style="fill: #1f77b4"/>
   </g>
   <g id="patch_53">
    <path d="M 264.008352 78.81 
L 267.559261 78.81 
L 267.559261 137.991818 
L 264.008352 137.991818 
z
" clip-path="url(#pc78ea751f6)" style="fill: #1f77b4"/>
   </g>
   <g id="patch_54">
    <path d="M 268.446989 78.81 
L 271.997898 78.81 
L 271.997898 137.991818 
L 268.446989 137.991818 
z
" clip-path="url(#pc78ea751f6)" style="fill: #1f77b4"/>
   </g>
   <g id="patch_55">
    <path d="M 272.885625 78.81 
L 276.436534 78.81 
L 276.436534 137.991818 
L 272.885625 137.991818 
z
" clip-path="url(#pc78ea751f6)" style="fill: #1f77b4"/>
   </g>
   <g id="patch_56">
    <path d="M 277.324261 78.81 
L 280.87517 78.81 
L 280.87517 137.991818 
L 277.324261 137.991818 
z
" clip-path="url(#pc78ea751f6)" style="fill: #1f77b4"/>
   </g>
   <g id="patch_57">
    <path d="M 281.762898 78.81 
L 285.313807 78.81 
L 285.313807 137.991818 
L 281.762898 137.991818 
z
" clip-path="url(#pc78ea751f6)" style="fill: #1f77b4"/>
   </g>
   <g id="patch_58">
    <path d="M 286.201534 78.81 
L 289.752443 78.81 
L 289.752443 137.991818 
L 286.201534 137.991818 
z
" clip-path="url(#pc78ea751f6)" style="fill: #1f77b4"/>
   </g>
   <g id="patch_59">
    <path d="M 290.64017 78.81 
L 294.19108 78.81 
L 294.19108 137.991818 
L 290.64017 137.991818 
z
" clip-path="url(#pc78ea751f6)" style="fill: #1f77b4"/>
   </g>
   <g id="patch_60">
    <path d="M 295.078807 78.81 
L 298.629716 78.81 
L 298.629716 137.991818 
L 295.078807 137.991818 
z
" clip-path="url(#pc78ea751f6)" style="fill: #1f77b4"/>
   </g>
   <g id="patch_61">
    <path d="M 299.517443 78.81 
L 303.068352 78.81 
L 303.068352 137.991818 
L 299.517443 137.991818 
z
" clip-path="url(#pc78ea751f6)" style="fill: #1f77b4"/>
   </g>
   <g id="patch_62">
    <path d="M 303.95608 78.81 
L 307.506989 78.81 
L 307.506989 137.991818 
L 303.95608 137.991818 
z
" clip-path="url(#pc78ea751f6)" style="fill: #1f77b4"/>
   </g>
   <g id="patch_63">
    <path d="M 308.394716 78.81 
L 311.945625 78.81 
L 311.945625 137.991818 
L 308.394716 137.991818 
z
" clip-path="url(#pc78ea751f6)" style="fill: #1f77b4"/>
   </g>
   <g id="patch_64">
    <path d="M 312.833352 78.81 
L 316.384261 78.81 
L 316.384261 137.991818 
L 312.833352 137.991818 
z
" clip-path="url(#pc78ea751f6)" style="fill: #1f77b4"/>
   </g>
   <g id="patch_65">
    <path d="M 317.271989 78.81 
L 320.822898 78.81 
L 320.822898 137.991818 
L 317.271989 137.991818 
z
" clip-path="url(#pc78ea751f6)" style="fill: #1f77b4"/>
   </g>
   <g id="patch_66">
    <path d="M 321.710625 78.81 
L 325.261534 78.81 
L 325.261534 137.991818 
L 321.710625 137.991818 
z
" clip-path="url(#pc78ea751f6)" style="fill: #1f77b4"/>
   </g>
   <g id="patch_67">
    <path d="M 326.149261 78.81 
L 329.70017 78.81 
L 329.70017 137.991818 
L 326.149261 137.991818 
z
" clip-path="url(#pc78ea751f6)" style="fill: #1f77b4"/>
   </g>
   <g id="patch_68">
    <path d="M 330.587898 78.81 
L 334.138807 78.81 
L 334.138807 137.991818 
L 330.587898 137.991818 
z
" clip-path="url(#pc78ea751f6)" style="fill: #1f77b4"/>
   </g>
   <g id="patch_69">
    <path d="M 335.026534 78.81 
L 338.577443 78.81 
L 338.577443 137.991818 
L 335.026534 137.991818 
z
" clip-path="url(#pc78ea751f6)" style="fill: #1f77b4"/>
   </g>
   <g id="patch_70">
    <path d="M 339.46517 78.81 
L 343.01608 78.81 
L 343.01608 137.991818 
L 339.46517 137.991818 
z
" clip-path="url(#pc78ea751f6)" style="fill: #1f77b4"/>
   </g>
   <g id="patch_71">
    <path d="M 343.903807 78.81 
L 347.454716 78.81 
L 347.454716 137.991818 
L 343.903807 137.991818 
z
" clip-path="url(#pc78ea751f6)" style="fill: #1f77b4"/>
   </g>
   <g id="patch_72">
    <path d="M 348.342443 78.81 
L 351.893352 78.81 
L 351.893352 137.991818 
L 348.342443 137.991818 
z
" clip-path="url(#pc78ea751f6)" style="fill: #1f77b4"/>
   </g>
   <g id="patch_73">
    <path d="M 352.78108 78.81 
L 356.331989 78.81 
L 356.331989 137.991818 
L 352.78108 137.991818 
z
" clip-path="url(#pc78ea751f6)" style="fill: #1f77b4"/>
   </g>
   <g id="patch_74">
    <path d="M 357.219716 78.81 
L 360.770625 78.81 
L 360.770625 137.991818 
L 357.219716 137.991818 
z
" clip-path="url(#pc78ea751f6)" style="fill: #1f77b4"/>
   </g>
   <g id="patch_75">
    <path d="M 361.658352 78.81 
L 365.209261 78.81 
L 365.209261 137.991818 
L 361.658352 137.991818 
z
" clip-path="url(#pc78ea751f6)" style="fill: #1f77b4"/>
   </g>
   <g id="patch_76">
    <path d="M 366.096989 78.81 
L 369.647898 78.81 
L 369.647898 137.991818 
L 366.096989 137.991818 
z
" clip-path="url(#pc78ea751f6)" style="fill: #1f77b4"/>
   </g>
   <g id="patch_77">
    <path d="M 370.535625 78.81 
L 374.086534 78.81 
L 374.086534 137.991818 
L 370.535625 137.991818 
z
" clip-path="url(#pc78ea751f6)" style="fill: #1f77b4"/>
   </g>
   <g id="patch_78">
    <path d="M 374.974261 78.81 
L 378.52517 78.81 
L 378.52517 137.991818 
L 374.974261 137.991818 
z
" clip-path="url(#pc78ea751f6)" style="fill: #1f77b4"/>
   </g>
   <g id="patch_79">
    <path d="M 379.412898 78.81 
L 382.963807 78.81 
L 382.963807 137.991818 
L 379.412898 137.991818 
z
" clip-path="url(#pc78ea751f6)" style="fill: #1f77b4"/>
   </g>
   <g id="patch_80">
    <path d="M 383.851534 78.81 
L 387.402443 78.81 
L 387.402443 137.991818 
L 383.851534 137.991818 
z
" clip-path="url(#pc78ea751f6)" style="fill: #1f77b4"/>
   </g>
   <g id="patch_81">
    <path d="M 388.29017 78.81 
L 391.84108 78.81 
L 391.84108 137.991818 
L 388.29017 137.991818 
z
" clip-path="url(#pc78ea751f6)" style="fill: #1f77b4"/>
   </g>
   <g id="patch_82">
    <path d="M 392.728807 78.81 
L 396.279716 78.81 
L 396.279716 137.991818 
L 392.728807 137.991818 
z
" clip-path="url(#pc78ea751f6)" style="fill: #1f77b4"/>
   </g>
   <g id="matplotlib.axis_1">
    <g id="xtick_1">
     <g id="line2d_1">
      <defs>
       <path id="m5866cf9040" d="M 0 0 
L 0 3.5 
" style="stroke: #000000; stroke-width: 0.8"/>
      </defs>
      <g>
       <use xlink:href="#m5866cf9040" x="43.851989" y="150.42" style="stroke: #000000; stroke-width: 0.8"/>
      </g>
     </g>
     <g id="text_1">
      <!-- 0 -->
      <g transform="translate(40.670739 165.018438) scale(0.1 -0.1)">
       <defs>
        <path id="DejaVuSans-30" d="M 2034 4250 
Q 1547 4250 1301 3770 
Q 1056 3291 1056 2328 
Q 1056 1369 1301 889 
Q 1547 409 2034 409 
Q 2525 409 2770 889 
Q 3016 1369 3016 2328 
Q 3016 3291 2770 3770 
Q 2525 4250 2034 4250 
z
M 2034 4750 
Q 2819 4750 3233 4129 
Q 3647 3509 3647 2328 
Q 3647 1150 3233 529 
Q 2819 -91 2034 -91 
Q 1250 -91 836 529 
Q 422 1150 422 2328 
Q 422 3509 836 4129 
Q 1250 4750 2034 4750 
z
" transform="scale(0.015625)"/>
       </defs>
       <use xlink:href="#DejaVuSans-30"/>
      </g>
     </g>
    </g>
    <g id="xtick_2">
     <g id="line2d_2">
      <g>
       <use xlink:href="#m5866cf9040" x="88.238352" y="150.42" style="stroke: #000000; stroke-width: 0.8"/>
      </g>
     </g>
     <g id="text_2">
      <!-- 10 -->
      <g transform="translate(81.875852 165.018438) scale(0.1 -0.1)">
       <defs>
        <path id="DejaVuSans-31" d="M 794 531 
L 1825 531 
L 1825 4091 
L 703 3866 
L 703 4441 
L 1819 4666 
L 2450 4666 
L 2450 531 
L 3481 531 
L 3481 0 
L 794 0 
L 794 531 
z
" transform="scale(0.015625)"/>
       </defs>
       <use xlink:href="#DejaVuSans-31"/>
       <use xlink:href="#DejaVuSans-30" transform="translate(63.623047 0)"/>
      </g>
     </g>
    </g>
    <g id="xtick_3">
     <g id="line2d_3">
      <g>
       <use xlink:href="#m5866cf9040" x="132.624716" y="150.42" style="stroke: #000000; stroke-width: 0.8"/>
      </g>
     </g>
     <g id="text_3">
      <!-- 20 -->
      <g transform="translate(126.262216 165.018438) scale(0.1 -0.1)">
       <defs>
        <path id="DejaVuSans-32" d="M 1228 531 
L 3431 531 
L 3431 0 
L 469 0 
L 469 531 
Q 828 903 1448 1529 
Q 2069 2156 2228 2338 
Q 2531 2678 2651 2914 
Q 2772 3150 2772 3378 
Q 2772 3750 2511 3984 
Q 2250 4219 1831 4219 
Q 1534 4219 1204 4116 
Q 875 4013 500 3803 
L 500 4441 
Q 881 4594 1212 4672 
Q 1544 4750 1819 4750 
Q 2544 4750 2975 4387 
Q 3406 4025 3406 3419 
Q 3406 3131 3298 2873 
Q 3191 2616 2906 2266 
Q 2828 2175 2409 1742 
Q 1991 1309 1228 531 
z
" transform="scale(0.015625)"/>
       </defs>
       <use xlink:href="#DejaVuSans-32"/>
       <use xlink:href="#DejaVuSans-30" transform="translate(63.623047 0)"/>
      </g>
     </g>
    </g>
    <g id="xtick_4">
     <g id="line2d_4">
      <g>
       <use xlink:href="#m5866cf9040" x="177.01108" y="150.42" style="stroke: #000000; stroke-width: 0.8"/>
      </g>
     </g>
     <g id="text_4">
      <!-- 30 -->
      <g transform="translate(170.64858 165.018438) scale(0.1 -0.1)">
       <defs>
        <path id="DejaVuSans-33" d="M 2597 2516 
Q 3050 2419 3304 2112 
Q 3559 1806 3559 1356 
Q 3559 666 3084 287 
Q 2609 -91 1734 -91 
Q 1441 -91 1130 -33 
Q 819 25 488 141 
L 488 750 
Q 750 597 1062 519 
Q 1375 441 1716 441 
Q 2309 441 2620 675 
Q 2931 909 2931 1356 
Q 2931 1769 2642 2001 
Q 2353 2234 1838 2234 
L 1294 2234 
L 1294 2753 
L 1863 2753 
Q 2328 2753 2575 2939 
Q 2822 3125 2822 3475 
Q 2822 3834 2567 4026 
Q 2313 4219 1838 4219 
Q 1578 4219 1281 4162 
Q 984 4106 628 3988 
L 628 4550 
Q 988 4650 1302 4700 
Q 1616 4750 1894 4750 
Q 2613 4750 3031 4423 
Q 3450 4097 3450 3541 
Q 3450 3153 3228 2886 
Q 3006 2619 2597 2516 
z
" transform="scale(0.015625)"/>
       </defs>
       <use xlink:href="#DejaVuSans-33"/>
       <use xlink:href="#DejaVuSans-30" transform="translate(63.623047 0)"/>
      </g>
     </g>
    </g>
    <g id="xtick_5">
     <g id="line2d_5">
      <g>
       <use xlink:href="#m5866cf9040" x="221.397443" y="150.42" style="stroke: #000000; stroke-width: 0.8"/>
      </g>
     </g>
     <g id="text_5">
      <!-- 40 -->
      <g transform="translate(215.034943 165.018438) scale(0.1 -0.1)">
       <defs>
        <path id="DejaVuSans-34" d="M 2419 4116 
L 825 1625 
L 2419 1625 
L 2419 4116 
z
M 2253 4666 
L 3047 4666 
L 3047 1625 
L 3713 1625 
L 3713 1100 
L 3047 1100 
L 3047 0 
L 2419 0 
L 2419 1100 
L 313 1100 
L 313 1709 
L 2253 4666 
z
" transform="scale(0.015625)"/>
       </defs>
       <use xlink:href="#DejaVuSans-34"/>
       <use xlink:href="#DejaVuSans-30" transform="translate(63.623047 0)"/>
      </g>
     </g>
    </g>
    <g id="xtick_6">
     <g id="line2d_6">
      <g>
       <use xlink:href="#m5866cf9040" x="265.783807" y="150.42" style="stroke: #000000; stroke-width: 0.8"/>
      </g>
     </g>
     <g id="text_6">
      <!-- 50 -->
      <g transform="translate(259.421307 165.018438) scale(0.1 -0.1)">
       <defs>
        <path id="DejaVuSans-35" d="M 691 4666 
L 3169 4666 
L 3169 4134 
L 1269 4134 
L 1269 2991 
Q 1406 3038 1543 3061 
Q 1681 3084 1819 3084 
Q 2600 3084 3056 2656 
Q 3513 2228 3513 1497 
Q 3513 744 3044 326 
Q 2575 -91 1722 -91 
Q 1428 -91 1123 -41 
Q 819 9 494 109 
L 494 744 
Q 775 591 1075 516 
Q 1375 441 1709 441 
Q 2250 441 2565 725 
Q 2881 1009 2881 1497 
Q 2881 1984 2565 2268 
Q 2250 2553 1709 2553 
Q 1456 2553 1204 2497 
Q 953 2441 691 2322 
L 691 4666 
z
" transform="scale(0.015625)"/>
       </defs>
       <use xlink:href="#DejaVuSans-35"/>
       <use xlink:href="#DejaVuSans-30" transform="translate(63.623047 0)"/>
      </g>
     </g>
    </g>
    <g id="xtick_7">
     <g id="line2d_7">
      <g>
       <use xlink:href="#m5866cf9040" x="310.17017" y="150.42" style="stroke: #000000; stroke-width: 0.8"/>
      </g>
     </g>
     <g id="text_7">
      <!-- 60 -->
      <g transform="translate(303.80767 165.018438) scale(0.1 -0.1)">
       <defs>
        <path id="DejaVuSans-36" d="M 2113 2584 
Q 1688 2584 1439 2293 
Q 1191 2003 1191 1497 
Q 1191 994 1439 701 
Q 1688 409 2113 409 
Q 2538 409 2786 701 
Q 3034 994 3034 1497 
Q 3034 2003 2786 2293 
Q 2538 2584 2113 2584 
z
M 3366 4563 
L 3366 3988 
Q 3128 4100 2886 4159 
Q 2644 4219 2406 4219 
Q 1781 4219 1451 3797 
Q 1122 3375 1075 2522 
Q 1259 2794 1537 2939 
Q 1816 3084 2150 3084 
Q 2853 3084 3261 2657 
Q 3669 2231 3669 1497 
Q 3669 778 3244 343 
Q 2819 -91 2113 -91 
Q 1303 -91 875 529 
Q 447 1150 447 2328 
Q 447 3434 972 4092 
Q 1497 4750 2381 4750 
Q 2619 4750 2861 4703 
Q 3103 4656 3366 4563 
z
" transform="scale(0.015625)"/>
       </defs>
       <use xlink:href="#DejaVuSans-36"/>
       <use xlink:href="#DejaVuSans-30" transform="translate(63.623047 0)"/>
      </g>
     </g>
    </g>
    <g id="xtick_8">
     <g id="line2d_8">
      <g>
       <use xlink:href="#m5866cf9040" x="354.556534" y="150.42" style="stroke: #000000; stroke-width: 0.8"/>
      </g>
     </g>
     <g id="text_8">
      <!-- 70 -->
      <g transform="translate(348.194034 165.018438) scale(0.1 -0.1)">
       <defs>
        <path id="DejaVuSans-37" d="M 525 4666 
L 3525 4666 
L 3525 4397 
L 1831 0 
L 1172 0 
L 2766 4134 
L 525 4134 
L 525 4666 
z
" transform="scale(0.015625)"/>
       </defs>
       <use xlink:href="#DejaVuSans-37"/>
       <use xlink:href="#DejaVuSans-30" transform="translate(63.623047 0)"/>
      </g>
     </g>
    </g>
    <g id="xtick_9">
     <g id="line2d_9">
      <g>
       <use xlink:href="#m5866cf9040" x="398.942898" y="150.42" style="stroke: #000000; stroke-width: 0.8"/>
      </g>
     </g>
     <g id="text_9">
      <!-- 80 -->
      <g transform="translate(392.580398 165.018438) scale(0.1 -0.1)">
       <defs>
        <path id="DejaVuSans-38" d="M 2034 2216 
Q 1584 2216 1326 1975 
Q 1069 1734 1069 1313 
Q 1069 891 1326 650 
Q 1584 409 2034 409 
Q 2484 409 2743 651 
Q 3003 894 3003 1313 
Q 3003 1734 2745 1975 
Q 2488 2216 2034 2216 
z
M 1403 2484 
Q 997 2584 770 2862 
Q 544 3141 544 3541 
Q 544 4100 942 4425 
Q 1341 4750 2034 4750 
Q 2731 4750 3128 4425 
Q 3525 4100 3525 3541 
Q 3525 3141 3298 2862 
Q 3072 2584 2669 2484 
Q 3125 2378 3379 2068 
Q 3634 1759 3634 1313 
Q 3634 634 3220 271 
Q 2806 -91 2034 -91 
Q 1263 -91 848 271 
Q 434 634 434 1313 
Q 434 1759 690 2068 
Q 947 2378 1403 2484 
z
M 1172 3481 
Q 1172 3119 1398 2916 
Q 1625 2713 2034 2713 
Q 2441 2713 2670 2916 
Q 2900 3119 2900 3481 
Q 2900 3844 2670 4047 
Q 2441 4250 2034 4250 
Q 1625 4250 1398 4047 
Q 1172 3844 1172 3481 
z
" transform="scale(0.015625)"/>
       </defs>
       <use xlink:href="#DejaVuSans-38"/>
       <use xlink:href="#DejaVuSans-30" transform="translate(63.623047 0)"/>
      </g>
     </g>
    </g>
   </g>
   <g id="matplotlib.axis_2">
    <g id="ytick_1">
     <g id="line2d_10">
      <defs>
       <path id="mecf6095cb3" d="M 0 0 
L -3.5 0 
" style="stroke: #000000; stroke-width: 0.8"/>
      </defs>
      <g>
       <use xlink:href="#mecf6095cb3" x="23.878125" y="108.400909" style="stroke: #000000; stroke-width: 0.8"/>
      </g>
     </g>
     <g id="text_10">
      <!-- cats -->
      <g transform="translate(14.798438 118.779034) rotate(-90) scale(0.1 -0.1)">
       <defs>
        <path id="DejaVuSans-63" d="M 3122 3366 
L 3122 2828 
Q 2878 2963 2633 3030 
Q 2388 3097 2138 3097 
Q 1578 3097 1268 2742 
Q 959 2388 959 1747 
Q 959 1106 1268 751 
Q 1578 397 2138 397 
Q 2388 397 2633 464 
Q 2878 531 3122 666 
L 3122 134 
Q 2881 22 2623 -34 
Q 2366 -91 2075 -91 
Q 1284 -91 818 406 
Q 353 903 353 1747 
Q 353 2603 823 3093 
Q 1294 3584 2113 3584 
Q 2378 3584 2631 3529 
Q 2884 3475 3122 3366 
z
" transform="scale(0.015625)"/>
        <path id="DejaVuSans-61" d="M 2194 1759 
Q 1497 1759 1228 1600 
Q 959 1441 959 1056 
Q 959 750 1161 570 
Q 1363 391 1709 391 
Q 2188 391 2477 730 
Q 2766 1069 2766 1631 
L 2766 1759 
L 2194 1759 
z
M 3341 1997 
L 3341 0 
L 2766 0 
L 2766 531 
Q 2569 213 2275 61 
Q 1981 -91 1556 -91 
Q 1019 -91 701 211 
Q 384 513 384 1019 
Q 384 1609 779 1909 
Q 1175 2209 1959 2209 
L 2766 2209 
L 2766 2266 
Q 2766 2663 2505 2880 
Q 2244 3097 1772 3097 
Q 1472 3097 1187 3025 
Q 903 2953 641 2809 
L 641 3341 
Q 956 3463 1253 3523 
Q 1550 3584 1831 3584 
Q 2591 3584 2966 3190 
Q 3341 2797 3341 1997 
z
" transform="scale(0.015625)"/>
        <path id="DejaVuSans-74" d="M 1172 4494 
L 1172 3500 
L 2356 3500 
L 2356 3053 
L 1172 3053 
L 1172 1153 
Q 1172 725 1289 603 
Q 1406 481 1766 481 
L 2356 481 
L 2356 0 
L 1766 0 
Q 1100 0 847 248 
Q 594 497 594 1153 
L 594 3053 
L 172 3053 
L 172 3500 
L 594 3500 
L 594 4494 
L 1172 4494 
z
" transform="scale(0.015625)"/>
        <path id="DejaVuSans-73" d="M 2834 3397 
L 2834 2853 
Q 2591 2978 2328 3040 
Q 2066 3103 1784 3103 
Q 1356 3103 1142 2972 
Q 928 2841 928 2578 
Q 928 2378 1081 2264 
Q 1234 2150 1697 2047 
L 1894 2003 
Q 2506 1872 2764 1633 
Q 3022 1394 3022 966 
Q 3022 478 2636 193 
Q 2250 -91 1575 -91 
Q 1294 -91 989 -36 
Q 684 19 347 128 
L 347 722 
Q 666 556 975 473 
Q 1284 391 1588 391 
Q 1994 391 2212 530 
Q 2431 669 2431 922 
Q 2431 1156 2273 1281 
Q 2116 1406 1581 1522 
L 1381 1569 
Q 847 1681 609 1914 
Q 372 2147 372 2553 
Q 372 3047 722 3315 
Q 1072 3584 1716 3584 
Q 2034 3584 2315 3537 
Q 2597 3491 2834 3397 
z
" transform="scale(0.015625)"/>
       </defs>
       <use xlink:href="#DejaVuSans-63"/>
       <use xlink:href="#DejaVuSans-61" transform="translate(54.980469 0)"/>
       <use xlink:href="#DejaVuSans-74" transform="translate(116.259766 0)"/>
       <use xlink:href="#DejaVuSans-73" transform="translate(155.46875 0)"/>
      </g>
     </g>
    </g>
    <g id="ytick_2">
     <g id="line2d_11">
      <g>
       <use xlink:href="#mecf6095cb3" x="23.878125" y="49.219091" style="stroke: #000000; stroke-width: 0.8"/>
      </g>
     </g>
     <g id="text_11">
      <!-- dogs -->
      <g transform="translate(14.798438 61.231591) rotate(-90) scale(0.1 -0.1)">
       <defs>
        <path id="DejaVuSans-64" d="M 2906 2969 
L 2906 4863 
L 3481 4863 
L 3481 0 
L 2906 0 
L 2906 525 
Q 2725 213 2448 61 
Q 2172 -91 1784 -91 
Q 1150 -91 751 415 
Q 353 922 353 1747 
Q 353 2572 751 3078 
Q 1150 3584 1784 3584 
Q 2172 3584 2448 3432 
Q 2725 3281 2906 2969 
z
M 947 1747 
Q 947 1113 1208 752 
Q 1469 391 1925 391 
Q 2381 391 2643 752 
Q 2906 1113 2906 1747 
Q 2906 2381 2643 2742 
Q 2381 3103 1925 3103 
Q 1469 3103 1208 2742 
Q 947 2381 947 1747 
z
" transform="scale(0.015625)"/>
        <path id="DejaVuSans-6f" d="M 1959 3097 
Q 1497 3097 1228 2736 
Q 959 2375 959 1747 
Q 959 1119 1226 758 
Q 1494 397 1959 397 
Q 2419 397 2687 759 
Q 2956 1122 2956 1747 
Q 2956 2369 2687 2733 
Q 2419 3097 1959 3097 
z
M 1959 3584 
Q 2709 3584 3137 3096 
Q 3566 2609 3566 1747 
Q 3566 888 3137 398 
Q 2709 -91 1959 -91 
Q 1206 -91 779 398 
Q 353 888 353 1747 
Q 353 2609 779 3096 
Q 1206 3584 1959 3584 
z
" transform="scale(0.015625)"/>
        <path id="DejaVuSans-67" d="M 2906 1791 
Q 2906 2416 2648 2759 
Q 2391 3103 1925 3103 
Q 1463 3103 1205 2759 
Q 947 2416 947 1791 
Q 947 1169 1205 825 
Q 1463 481 1925 481 
Q 2391 481 2648 825 
Q 2906 1169 2906 1791 
z
M 3481 434 
Q 3481 -459 3084 -895 
Q 2688 -1331 1869 -1331 
Q 1566 -1331 1297 -1286 
Q 1028 -1241 775 -1147 
L 775 -588 
Q 1028 -725 1275 -790 
Q 1522 -856 1778 -856 
Q 2344 -856 2625 -561 
Q 2906 -266 2906 331 
L 2906 616 
Q 2728 306 2450 153 
Q 2172 0 1784 0 
Q 1141 0 747 490 
Q 353 981 353 1791 
Q 353 2603 747 3093 
Q 1141 3584 1784 3584 
Q 2172 3584 2450 3431 
Q 2728 3278 2906 2969 
L 2906 3500 
L 3481 3500 
L 3481 434 
z
" transform="scale(0.015625)"/>
       </defs>
       <use xlink:href="#DejaVuSans-64"/>
       <use xlink:href="#DejaVuSans-6f" transform="translate(63.476562 0)"/>
       <use xlink:href="#DejaVuSans-67" transform="translate(124.658203 0)"/>
       <use xlink:href="#DejaVuSans-73" transform="translate(188.134766 0)"/>
      </g>
     </g>
    </g>
   </g>
   <g id="line2d_12">
    <path d="M 41.63267 78.81 
L 396.72358 78.81 
" clip-path="url(#pc78ea751f6)" style="fill: none; stroke: #000000; stroke-linecap: square"/>
   </g>
   <g id="line2d_13">
    <path d="M 219.178125 143.91 
L 219.178125 13.71 
" clip-path="url(#pc78ea751f6)" style="fill: none; stroke-dasharray: 19.2,4.8,3,4.8; stroke-dashoffset: 0; stroke: #ff0000; stroke-width: 3"/>
   </g>
   <g id="patch_83">
    <path d="M 23.878125 150.42 
L 23.878125 7.2 
" style="fill: none; stroke: #000000; stroke-width: 0.8; stroke-linejoin: miter; stroke-linecap: square"/>
   </g>
   <g id="patch_84">
    <path d="M 414.478125 150.42 
L 414.478125 7.2 
" style="fill: none; stroke: #000000; stroke-width: 0.8; stroke-linejoin: miter; stroke-linecap: square"/>
   </g>
   <g id="patch_85">
    <path d="M 23.878125 150.42 
L 414.478125 150.42 
" style="fill: none; stroke: #000000; stroke-width: 0.8; stroke-linejoin: miter; stroke-linecap: square"/>
   </g>
   <g id="patch_86">
    <path d="M 23.878125 7.2 
L 414.478125 7.2 
" style="fill: none; stroke: #000000; stroke-width: 0.8; stroke-linejoin: miter; stroke-linecap: square"/>
   </g>
   <g id="text_12">
    <!-- dogs -->
    <g transform="translate(132.624716 16.669091) scale(0.1 -0.1)">
     <use xlink:href="#DejaVuSans-64"/>
     <use xlink:href="#DejaVuSans-6f" transform="translate(63.476562 0)"/>
     <use xlink:href="#DejaVuSans-67" transform="translate(124.658203 0)"/>
     <use xlink:href="#DejaVuSans-73" transform="translate(188.134766 0)"/>
    </g>
   </g>
   <g id="text_13">
    <!-- cats -->
    <g transform="translate(310.17017 16.669091) scale(0.1 -0.1)">
     <use xlink:href="#DejaVuSans-63"/>
     <use xlink:href="#DejaVuSans-61" transform="translate(54.980469 0)"/>
     <use xlink:href="#DejaVuSans-74" transform="translate(116.259766 0)"/>
     <use xlink:href="#DejaVuSans-73" transform="translate(155.46875 0)"/>
    </g>
   </g>
  </g>
 </g>
 <defs>
  <clipPath id="pc78ea751f6">
   <rect x="23.878125" y="7.2" width="390.6" height="143.22"/>
  </clipPath>
 </defs>
</svg>
